<?xml version="1.0" encoding="UTF-8" standalone="no"?>
<!-- Created with Inkscape (http://www.inkscape.org/) -->

<svg
   xmlns:dc="http://purl.org/dc/elements/1.1/"
   xmlns:cc="http://creativecommons.org/ns#"
   xmlns:rdf="http://www.w3.org/1999/02/22-rdf-syntax-ns#"
   xmlns:svg="http://www.w3.org/2000/svg"
   xmlns="http://www.w3.org/2000/svg"
   xmlns:sodipodi="http://sodipodi.sourceforge.net/DTD/sodipodi-0.dtd"
   xmlns:inkscape="http://www.inkscape.org/namespaces/inkscape"
   width="250"
   height="800"
   viewBox="0 0 66.145831 211.66667"
   version="1.1"
   id="svg4557"
   enable-background="new"
   inkscape:version="0.92.3 (2405546, 2018-03-11)"
   sodipodi:docname="]2.svg"
   inkscape:export-filename="C:\Users\zvi\Documents\Mazesplace\Mazes\Alphabet Maze Set\END\END (l).png"
   inkscape:export-xdpi="500"
   inkscape:export-ydpi="500">
  <defs
     id="defs4551">
    <inkscape:path-effect
       effect="spiro"
       id="path-effect5152"
       is_visible="true" />
    <inkscape:path-effect
       effect="spiro"
       id="path-effect5140"
       is_visible="true" />
    <inkscape:path-effect
       effect="spiro"
       id="path-effect5136"
       is_visible="true" />
    <filter
       style="color-interpolation-filters:sRGB;"
       inkscape:label="Lightness-Contrast"
       id="filter5131">
      <feColorMatrix
         values="0.5208 0 0 0.431685 0.2396 0 0.5208 0 0.431685 0.2396 0 0 0.5208 0.431685 0.2396 0 0 0 1 0"
         id="feColorMatrix5129" />
    </filter>
    <clipPath
       clipPathUnits="userSpaceOnUse"
       id="clipPath864">
      <rect
         style="fill:#000000;fill-opacity:0.53266332;stroke:none;stroke-width:1.26499999;stroke-linecap:round;stroke-linejoin:miter;stroke-miterlimit:4;stroke-dasharray:none;stroke-dashoffset:0;stroke-opacity:1;paint-order:normal"
         id="rect866"
         width="66.145836"
         height="211.66667"
         x="0"
         y="0" />
    </clipPath>
    <clipPath
       clipPathUnits="userSpaceOnUse"
       id="clipPath851">
      <rect
         style="opacity:0.60500004;fill:#000000;fill-opacity:1;stroke:none;stroke-width:1.26499999;stroke-linecap:round;stroke-linejoin:miter;stroke-miterlimit:4;stroke-dasharray:none;stroke-dashoffset:0;stroke-opacity:1;paint-order:normal"
         id="rect853"
         width="66.145836"
         height="211.66666"
         x="0"
         y="0" />
    </clipPath>
  </defs>
  <sodipodi:namedview
     id="base"
     pagecolor="#ffffff"
     bordercolor="#666666"
     borderopacity="1.0"
     inkscape:pageopacity="0.0"
     inkscape:pageshadow="2"
     inkscape:zoom="0.7"
     inkscape:cx="-332.58788"
     inkscape:cy="444.39137"
     inkscape:document-units="mm"
     inkscape:current-layer="layer2"
     showgrid="false"
     units="px"
     inkscape:window-width="1680"
     inkscape:window-height="987"
     inkscape:window-x="3832"
     inkscape:window-y="288"
     inkscape:window-maximized="1"
     inkscape:snap-page="true" />
  <metadata
     id="metadata4554">
    <rdf:RDF>
      <cc:Work
         rdf:about="">
        <dc:format>image/svg+xml</dc:format>
        <dc:type
           rdf:resource="http://purl.org/dc/dcmitype/StillImage" />
        <dc:title></dc:title>
      </cc:Work>
    </rdf:RDF>
  </metadata>
  <g
     inkscape:groupmode="layer"
     id="layer2"
     inkscape:label="Layer 2">
    <g
       id="g847"
       clip-path="url(#clipPath851)">
      <path
         sodipodi:nodetypes="ccsssssssssssssssccc"
         inkscape:original-d="M -3.2072344,1.3229167 H 10.156242 c 0,0 6.984479,6.6303813 9.38964,7.1651849 2.405161,0.5348036 -0.658571,1.8352564 0.09843,5.3991144 0.756999,3.563858 -3.20697,7.483282 -4.810851,11.22532 -1.603882,3.742038 5.167475,9.799618 7.750816,14.699823 2.583341,4.900208 9.087429,-9.265608 13.630746,-13.898014 C 40.758337,21.281937 30.691714,12.550604 27.929665,5.8691303 25.167616,-0.81234332 35.146207,6.5815844 38.754081,6.9382084 42.361955,7.2948323 51.672373,28.854045 58.131122,39.812359 64.589871,50.770676 47.618784,49.968337 42.36222,55.046723 37.105656,60.125109 44.500641,67.251767 45.569454,73.354686 46.638268,79.457605 31.849882,72.285343 24.989701,71.751067 18.129518,71.216794 27.840839,63.109088 29.266012,58.788495 30.691185,54.467902 22.13909,48.364719 18.575232,43.153229 15.011374,37.941739 11.448309,36.203956 7.8844509,32.729717 4.3205926,29.255479 11.27013,21.593223 12.962572,16.025372 14.655014,10.457522 13.141016,11.125166 13.229841,8.6754601 13.318671,6.2257542 6.4144686,6.6145833 6.4144686,6.6145833 h -9.3544334"
         inkscape:path-effect="#path-effect5136"
         inkscape:connector-curvature="0"
         id="path5134"
         d="M -3.2072344,1.3229167 H 10.156242 c 2.109944,0.022986 4.20646,0.7442856 5.883913,2.0243412 1.677453,1.2800557 2.92659,3.1118065 3.505727,5.1408437 0.499286,1.7492754 0.504273,3.6258284 0.09843,5.3991144 -0.455353,1.989618 -1.4062,3.825685 -2.361518,5.629374 -0.955319,1.803689 -1.932986,3.621278 -2.449333,5.595946 -0.771952,2.952179 -0.439523,6.189398 0.967003,8.897341 1.406526,2.707942 3.884081,4.852312 6.783813,5.802482 1.934968,0.634041 4.042179,0.741842 6.027527,0.289624 1.985347,-0.452219 3.842374,-1.465416 5.283523,-2.903886 1.441149,-1.438471 2.459661,-3.299055 2.875982,-5.29224 0.416321,-1.993184 0.226151,-4.111645 -0.556286,-5.991512 -0.770576,-1.85137 -2.07756,-3.427327 -3.467692,-4.872627 -1.390133,-1.445299 -2.886099,-2.795431 -4.144701,-4.356609 -1.258601,-1.561179 -2.286268,-3.377394 -2.550368,-5.365259 -0.132051,-0.993933 -0.06763,-2.0195245 0.241332,-2.9734003 0.308967,-0.9538758 0.867566,-1.833316 1.636071,-2.4773194 0.739874,-0.620011 1.658456,-1.0102488 2.608577,-1.1808255 0.950121,-0.1705766 1.931371,-0.1271525 2.878758,0.058013 1.894772,0.3703311 3.63069,1.28882 5.337081,2.1918906 6.428062,3.4019126 13.090827,6.9148546 17.567205,12.6467856 2.238189,2.865966 3.864051,6.267939 4.312495,9.876561 0.448443,3.608621 -0.345655,7.423249 -2.502659,10.350804 -2.210178,2.999724 -5.600496,4.846242 -8.699309,6.915198 -1.549407,1.034478 -3.057979,2.15334 -4.326172,3.518071 -1.268194,1.364732 -2.293131,2.993322 -2.743421,4.801095 -0.378955,1.521382 -0.340953,3.124097 -0.07439,4.669139 0.266565,1.545041 0.756212,3.042135 1.276224,4.521256 1.040026,2.958241 2.226917,5.989666 2.005398,9.117568 -0.192367,2.716266 -1.502043,5.337272 -3.561263,7.119046 -2.059219,1.781774 -4.84288,2.701312 -7.557962,2.492902 -2.715082,-0.20841 -5.327046,-1.543099 -7.08377,-3.62373 -1.756723,-2.080631 -2.634807,-4.881023 -2.376758,-7.591837 0.21666,-2.276019 1.182917,-4.403713 2.136147,-6.481826 0.95323,-2.078114 1.920731,-4.204993 2.140164,-6.480746 0.319575,-3.31433 -1.014221,-6.633739 -3.073924,-9.249946 C 24.132384,46.922342 21.393167,44.926967 18.57523,43.153229 16.415366,41.793711 14.1763,40.535551 12.217609,38.899445 10.258919,37.263339 8.567335,35.188778 7.8844509,32.729717 7.0857665,29.85366 7.7446096,26.7542 8.900195,24.002069 c 1.155585,-2.75213 2.790256,-5.276455 4.062377,-7.976697 0.551041,-1.169656 1.038696,-2.391344 1.175212,-3.677076 C 14.274301,11.062565 14.026349,9.6939477 13.229841,8.6754601 12.471641,7.705956 11.291839,7.1409239 10.089835,6.8763628 8.8878314,6.6118018 7.6452431,6.6145833 6.4144686,6.6145833 h -9.3544334"
         style="opacity:1;vector-effect:none;fill:none;fill-opacity:1;stroke:#000000;stroke-width:1.12897694;stroke-linecap:butt;stroke-linejoin:miter;stroke-miterlimit:4;stroke-dasharray:none;stroke-dashoffset:0;stroke-opacity:1" />
      <path
         inkscape:original-d="m 33.542324,64.133885 c -0.267533,2.272057 -1.603351,4.454229 -2.405425,6.68174 -0.802074,2.227511 2.762049,3.652419 4.142679,5.479026 1.380628,1.826604 3.385677,-5.256567 5.078119,-7.884451 1.692444,-2.627886 -3.652417,-5.078386 -5.479023,-7.617182 -1.826607,-2.538796 0.178443,-3.296589 0.267269,-4.944486 0.08882,-1.647899 4.811117,-6.949273 7.216277,-10.423511 2.40516,-3.474241 -0.08883,-0.980255 -0.133636,-1.469983 -0.04481,-0.48973 -5.077857,-1.871152 -7.617182,-2.806329 -2.539322,-0.935181 -2.85061,4.988766 -4.276312,7.483546 -1.425702,2.49478 1.960242,2.137891 2.939965,3.207234 0.979723,1.069343 0.712984,3.652419 1.069078,5.479023 0.356095,1.826607 -0.534273,4.54332 -0.801809,6.815373 z"
         inkscape:path-effect="#path-effect5140"
         inkscape:connector-curvature="0"
         id="path5138"
         d="m 33.542324,64.133885 c -0.381812,1.127146 -0.944735,2.182602 -1.432745,3.267998 -0.488009,1.085396 -0.906975,2.2255 -0.97268,3.413742 -0.06937,1.254568 0.275923,2.538595 1.017039,3.553237 0.741116,1.014642 1.882584,1.742582 3.12564,1.925789 0.942046,0.138842 1.923767,-0.03375 2.773364,-0.463762 0.849598,-0.430013 1.565501,-1.112789 2.05669,-1.928547 0.49119,-0.815758 0.758928,-1.761053 0.793504,-2.712648 0.03458,-0.951594 -0.161743,-1.907998 -0.545439,-2.779494 -0.634114,-1.440273 -1.744895,-2.606715 -2.813323,-3.762115 -1.068427,-1.1554 -2.140296,-2.37168 -2.6657,-3.855067 -0.564805,-1.59463 -0.431974,-3.404061 0.267269,-4.944486 0.889179,-1.958852 2.58376,-3.407165 4.100376,-4.932817 0.758308,-0.762826 1.486943,-1.564974 2.058218,-2.476335 0.571276,-0.911361 0.982127,-1.941407 1.057683,-3.014359 0.03473,-0.493172 -0.002,-0.993425 -0.133636,-1.469983 -0.201737,-0.730572 -0.626033,-1.393137 -1.181546,-1.908733 -0.555512,-0.515596 -1.23899,-0.886248 -1.964501,-1.10549 -1.451022,-0.438484 -3.032392,-0.269338 -4.471135,0.207894 -1.561206,0.517853 -3.041945,1.432337 -3.94732,2.805593 -0.452687,0.686628 -0.75219,1.4796 -0.824001,2.298884 -0.07181,0.819285 0.08938,1.663634 0.495009,2.379069 0.358919,0.633047 0.892249,1.146716 1.429597,1.637459 0.537347,0.490743 1.091919,0.9744 1.510368,1.569775 0.544461,0.774667 0.832525,1.705865 0.965207,2.643385 0.132683,0.937519 0.11762,1.888876 0.103871,2.835638 -0.03336,2.297179 -0.06472,4.639404 -0.801809,6.815373 z"
         style="opacity:1;vector-effect:none;fill:#000000;fill-opacity:1;stroke:#000000;stroke-width:1.12897694;stroke-linecap:butt;stroke-linejoin:miter;stroke-miterlimit:4;stroke-dasharray:none;stroke-dashoffset:0;stroke-opacity:1" />
      <g
         transform="rotate(45,15.201338,98.597666)"
         id="g5148">
        <path
           style="opacity:1;vector-effect:none;fill:none;fill-opacity:1;stroke:#000000;stroke-width:1.12899995;stroke-linecap:square;stroke-linejoin:miter;stroke-miterlimit:4;stroke-dasharray:none;stroke-dashoffset:0;stroke-opacity:1;paint-order:normal"
           d="m -18,18.666666 -6.55758,2e-6 v 10.199998 l 6.55758,1e-6 m 2.596401,-1.61e-4 V 18.666667 l 5.275682,10.2 -10e-7,-10.199999 M -8.054,28.866667 h 1.6752583 c 5.2180336,0 5.1863163,-10.2 0,-10.2 l -1.6752583,-1e-6 z"
           id="path5142"
           inkscape:connector-curvature="0"
           sodipodi:nodetypes="ccccccccccccc" />
        <path
           style="opacity:1;vector-effect:none;fill:none;fill-opacity:1;stroke:#000000;stroke-width:1.12897694;stroke-linecap:butt;stroke-linejoin:miter;stroke-miterlimit:4;stroke-dasharray:none;stroke-dashoffset:0;stroke-opacity:1"
           d="m -25.003125,23.766666 h 6.803571"
           id="path5144"
           inkscape:connector-curvature="0" />
      </g>
      <path
         inkscape:original-d="m 32.600447,14.930059 c 0.724189,1.417675 2.26812,0.125728 3.401785,0.188988 1.133663,0.06326 0.945205,-2.835086 1.41741,-4.252232 C 37.891849,9.449669 33.766138,9.4176418 31.938989,8.693452 30.111837,7.9692621 31.057307,8.630191 30.616072,8.598958 c -0.441238,-0.031234 -0.125727,1.385648 -0.188989,2.078869 -0.06326,0.693221 1.449173,2.834557 2.173364,4.252232 z"
         inkscape:path-effect="#path-effect5152"
         inkscape:connector-curvature="0"
         id="path5150"
         d="m 32.600447,14.930059 c 0.485859,0.346756 1.075789,0.541591 1.672063,0.569102 0.596274,0.02751 1.197242,-0.110366 1.729722,-0.380114 0.750112,-0.379998 1.368488,-1.034668 1.652021,-1.826297 0.283533,-0.791628 0.213263,-1.714264 -0.234611,-2.425935 C 37.150385,10.438966 36.757687,10.097004 36.31977,9.8444528 35.881853,9.5919011 35.398915,9.4253005 34.908231,9.303715 33.926863,9.0605441 32.90497,8.9919422 31.938989,8.693452 31.721509,8.6262503 31.506237,8.5472572 31.281284,8.5124812 31.05633,8.4777053 30.81622,8.4905403 30.616072,8.598958 c -0.167586,0.09078 -0.296938,0.2443651 -0.374637,0.4184025 -0.0777,0.1740375 -0.105846,0.3676042 -0.09943,0.5580901 0.01284,0.3809718 0.158567,0.7427924 0.285073,1.1023764 0.269095,0.764886 0.459163,1.557495 0.766033,2.308023 0.306871,0.750529 0.747339,1.473175 1.407331,1.944209 z"
         style="opacity:1;vector-effect:none;fill:#000000;fill-opacity:1;stroke:#000000;stroke-width:1.12897694;stroke-linecap:butt;stroke-linejoin:miter;stroke-miterlimit:4;stroke-dasharray:none;stroke-dashoffset:0;stroke-opacity:1" />
      <path
         inkscape:connector-curvature="0"
         id="path5158"
         d="M 12.955867,30.767161 11.757963,33.230888 9.0538712,31.916114"
         style="opacity:1;vector-effect:none;fill:none;fill-opacity:1;stroke:#000000;stroke-width:1.12897694;stroke-linecap:butt;stroke-linejoin:miter;stroke-miterlimit:4;stroke-dasharray:none;stroke-dashoffset:0;stroke-opacity:1" />
      <path
         inkscape:transform-center-y="-10.841958"
         inkscape:transform-center-x="6.8294392"
         inkscape:connector-curvature="0"
         id="path5158-9"
         d="m 40.101227,58.041287 -1.200058,2.462678 -2.702941,-1.317137"
         style="opacity:1;vector-effect:none;fill:none;fill-opacity:1;stroke:#000000;stroke-width:1.12897706;stroke-linecap:butt;stroke-linejoin:miter;stroke-miterlimit:4;stroke-dasharray:none;stroke-dashoffset:0;stroke-opacity:1" />
      <path
         inkscape:connector-curvature="0"
         id="path5158-0"
         d="m 28.65762,78.882069 0.174799,-2.73393 3.000656,0.191855"
         style="opacity:1;vector-effect:none;fill:none;fill-opacity:1;stroke:#000000;stroke-width:1.12897706;stroke-linecap:butt;stroke-linejoin:miter;stroke-miterlimit:4;stroke-dasharray:none;stroke-dashoffset:0;stroke-opacity:1" />
    </g>
  </g>
</svg>
