<?xml version="1.0" encoding="UTF-8" standalone="no"?>
<!-- Created with Inkscape (http://www.inkscape.org/) -->

<svg
   xmlns:dc="http://purl.org/dc/elements/1.1/"
   xmlns:cc="http://creativecommons.org/ns#"
   xmlns:rdf="http://www.w3.org/1999/02/22-rdf-syntax-ns#"
   xmlns:svg="http://www.w3.org/2000/svg"
   xmlns="http://www.w3.org/2000/svg"
   xmlns:sodipodi="http://sodipodi.sourceforge.net/DTD/sodipodi-0.dtd"
   xmlns:inkscape="http://www.inkscape.org/namespaces/inkscape"
   width="673.58704"
   height="800"
   viewBox="0 0 631.48788 750"
   id="svg2"
   version="1.1"
   inkscape:version="0.92.3 (2405546, 2018-03-11)"
   sodipodi:docname="a1.svg"
   inkscape:export-filename="C:\Users\zvi\Documents\Mazesplace\Mazes\Alphabet Maze Set\A\A (s).png"
   inkscape:export-xdpi="100"
   inkscape:export-ydpi="100">
  <defs
     id="defs4">
    <inkscape:path-effect
       effect="spiro"
       id="path-effect4546"
       is_visible="true" />
    <clipPath
       clipPathUnits="userSpaceOnUse"
       id="clipPath4150">
      <rect
         style="opacity:1;fill:#000000;fill-opacity:1;fill-rule:evenodd;stroke:none;stroke-width:4;stroke-linecap:round;stroke-linejoin:round;stroke-miterlimit:4;stroke-dasharray:none;stroke-dashoffset:2.4000001;stroke-opacity:1"
         id="rect4152"
         width="694.28571"
         height="822.85712"
         x="-62.857143"
         y="75.21933"
         transform="rotate(90)" />
    </clipPath>
    <clipPath
       clipPathUnits="userSpaceOnUse"
       id="clipPath4194">
      <rect
         style="opacity:1;fill:#000000;fill-opacity:1;fill-rule:evenodd;stroke:none;stroke-width:4;stroke-linecap:round;stroke-linejoin:round;stroke-miterlimit:4;stroke-dasharray:none;stroke-dashoffset:2.4000001;stroke-opacity:1"
         id="rect4196"
         width="652.55853"
         height="800.04083"
         x="54.548237"
         y="98.778214"
         transform="rotate(90)" />
    </clipPath>
    <clipPath
       clipPathUnits="userSpaceOnUse"
       id="clipPath908">
      <rect
         style="fill:#000000;fill-opacity:0.53266332;stroke:none;stroke-width:4.48228359;stroke-linecap:round;stroke-linejoin:miter;stroke-miterlimit:4;stroke-dasharray:none;stroke-dashoffset:0;stroke-opacity:1;paint-order:normal"
         id="rect910"
         width="631.48785"
         height="750"
         x="56.124813"
         y="140.79076" />
    </clipPath>
    <clipPath
       clipPathUnits="userSpaceOnUse"
       id="clipPath1094">
      <rect
         style="opacity:0.38200001;fill:#000000;fill-opacity:1;stroke:none;stroke-width:4.48228359;stroke-linecap:round;stroke-linejoin:miter;stroke-miterlimit:4;stroke-dasharray:none;stroke-dashoffset:0;stroke-opacity:1;paint-order:normal"
         id="rect1096"
         width="631.48785"
         height="750"
         x="56.124813"
         y="140.79076" />
    </clipPath>
  </defs>
  <sodipodi:namedview
     id="base"
     pagecolor="#ffffff"
     bordercolor="#666666"
     borderopacity="1.0"
     inkscape:pageopacity="0.0"
     inkscape:pageshadow="2"
     inkscape:zoom="0.37571815"
     inkscape:cx="-280.38021"
     inkscape:cy="531.84049"
     inkscape:document-units="px"
     inkscape:current-layer="layer3"
     showgrid="false"
     units="px"
     inkscape:window-width="1680"
     inkscape:window-height="987"
     inkscape:window-x="3832"
     inkscape:window-y="288"
     inkscape:window-maximized="1"
     fit-margin-top="5"
     fit-margin-left="15"
     fit-margin-right="15"
     fit-margin-bottom="0"
     inkscape:snap-page="true"
     inkscape:pagecheckerboard="true" />
  <metadata
     id="metadata7">
    <rdf:RDF>
      <cc:Work
         rdf:about="">
        <dc:format>image/svg+xml</dc:format>
        <dc:type
           rdf:resource="http://purl.org/dc/dcmitype/StillImage" />
        <dc:title></dc:title>
      </cc:Work>
    </rdf:RDF>
  </metadata>
  <g
     inkscape:groupmode="layer"
     id="layer2"
     inkscape:label="Layer 2"
     style="display:inline"
     transform="translate(-56.124812,-140.79075)">
    <path
       style="color:#000000;clip-rule:nonzero;display:inline;overflow:visible;visibility:visible;opacity:1;isolation:auto;mix-blend-mode:normal;color-interpolation:sRGB;color-interpolation-filters:linearRGB;solid-color:#000000;solid-opacity:1;fill:#000000;fill-opacity:1;fill-rule:evenodd;stroke:#000000;stroke-width:4.26666641;stroke-linecap:butt;stroke-linejoin:miter;stroke-miterlimit:4;stroke-dasharray:none;stroke-dashoffset:0;stroke-opacity:1;color-rendering:auto;image-rendering:auto;shape-rendering:auto;text-rendering:auto;enable-background:accumulate"
       d="m 336.02539,279.35547 c -1.0127,-0.0474 -2.00307,0.0758 -2.92773,0.40625 -6.55794,2.34374 -7.68867,12.1573 -8.53125,19.07031 -2.05654,16.87299 10.44597,33.24845 9.0332,50.1875 -2.51129,30.1102 -32.60531,55.16936 -30.61328,85.31836 0.38476,5.82331 3.60406,11.75383 8.02929,15.55859 9.507,8.17401 25.58962,4.53951 35.63282,12.04493 22.12092,16.53126 25.7966,50.90457 47.67773,67.75195 7.63297,5.87701 17.6499,11.89924 27.10156,10.03711 11.15152,-2.19704 19.49524,-13.19454 25.09375,-23.08594 2.86045,-5.0538 5.25811,-11.52611 3.51172,-17.06445 -1.2456,-3.95018 -4.95304,-7.81874 -9.0332,-8.53125 -7.0111,-1.22434 -15.59667,2.62792 -19.57227,8.53125 -3.64561,5.41333 4.17173,15.01885 -0.50195,19.57422 -4.43254,4.32034 -13.23907,3.14495 -18.57031,0 -12.51157,-7.38071 -12.7704,-26.22637 -21.07813,-38.14258 -7.46138,-10.70226 -24.59082,-16.60165 -25.5957,-29.60938 -0.24311,-3.14705 2.13584,-6.74775 5.01953,-8.03125 5.27668,-2.34858 12.51668,6.57469 17.0625,3.01172 5.93814,-4.65425 3.35271,-15.26875 1.50586,-22.58398 -1.69287,-6.70539 -7.6307,-11.54995 -11.04101,-17.56641 -5.64469,-9.95831 -11.64777,-19.85452 -15.55664,-30.61328 -6.09727,-16.78212 -11.59356,-34.34558 -12.04493,-52.19531 -0.31358,-12.40035 12.09089,-25.55202 6.52344,-36.63672 -1.90981,-3.80241 -6.73665,-7.22615 -11.125,-7.43164 z m 4.60156,86.72851 26.09571,61.73047 h -50.6875 z"
       transform="matrix(0.93750002,0,0,0.93750002,56.124812,140.79075)"
       id="path4214"
       inkscape:connector-curvature="0" />
    <path
       style="color:#000000;clip-rule:nonzero;display:inline;overflow:visible;visibility:visible;opacity:1;isolation:auto;mix-blend-mode:normal;color-interpolation:sRGB;color-interpolation-filters:linearRGB;solid-color:#000000;solid-opacity:1;fill:#000000;fill-opacity:1;fill-rule:evenodd;stroke:#000000;stroke-width:4.26666641;stroke-linecap:butt;stroke-linejoin:miter;stroke-miterlimit:4;stroke-dasharray:none;stroke-dashoffset:0;stroke-opacity:1;color-rendering:auto;image-rendering:auto;shape-rendering:auto;text-rendering:auto;enable-background:accumulate"
       d="M 250.99023,60 86.201172,673.06055 H 21.658203 V 797.86719 H 335.90835 V 673.3418 l -61.75015,0.53515 v -63.57226 h 128.22071 v 62.49414 l -59.19689,0.50781 0.83174,124.56055 H 654.80078 V 672.91406 H 592.32422 L 428.36133,60 h -59.61524 -1.23047 c 0.32406,9.378886 4.79105,17.48685 8.42774,23.199219 6.41037,10.06913 24.58503,-4.063488 35.80859,0 5.59525,2.02576 11.07918,6.094541 13.71485,11.429687 8.10609,16.408504 -2.86638,37.295834 2.28515,54.857424 5.38248,18.34881 23.95384,31.06653 28.95313,49.52344 4.31585,15.93377 -3.26767,33.34213 0,49.52343 4.1455,20.52837 29.04612,37.48778 24.38086,57.9043 -1.28264,5.61318 -7.29696,10.35233 -12.95313,11.42969 -9.54903,1.81886 -20.59633,-16.8198 -27.42773,-9.9043 -6.09978,6.17484 2.35164,18.97538 9.14258,24.38086 9.02083,7.18045 26.76662,-4.17074 34.28515,4.57031 9.44139,10.97657 -4.57778,29.46321 -0.76172,43.42969 6.52089,23.86591 30.34648,40.00557 38.85743,63.23633 10.42848,28.46472 6.14025,60.55288 13.71484,89.90625 4.39692,17.0391 24.08911,32.91085 18.28516,49.52344 -3.23226,9.25163 -18.31909,8.20405 -25.14258,15.23828 -14.01548,14.44834 -24.78139,33.05495 -29.71485,52.57031 -3.23733,12.80593 -9.68193,31.53195 0.76172,39.61914 4.33472,3.35665 12.56063,0.46078 16,-3.80859 8.28649,-10.28622 -4.35109,-27.44002 0.76172,-39.61914 7.1601,-17.05594 20.94667,-44.24263 38.85742,-39.61915 25.77337,6.65319 0.25893,60.69358 21.33399,76.95313 14.47914,11.17076 41.23981,-11.44453 54.85742,0.76172 18.48402,16.56828 18.32575,50.84271 9.14258,73.9043 -4.87211,12.2353 -18.49198,19.68277 -30.47656,25.14257 -9.84072,4.48312 -21.20816,4.64547 -32,5.33399 -26.88513,1.71533 -53.82672,-2.54081 -80.76172,-3.04883 -15.2354,-0.28736 -30.48558,0.51857 -45.71485,0 -11.19406,-0.38118 -27.07667,6.87405 -33.52343,-2.28516 -9.11598,-12.95141 20.60625,-31.84873 12.95312,-45.71484 -2.17461,-3.94004 -9.02385,-6.00258 -12.95312,-3.80859 -12.6413,7.05851 -4.34021,29.27925 -11.42774,41.90429 -3.0781,5.48304 -6.94404,11.86301 -12.95312,13.71485 -10.18783,3.13962 -24.66677,1.53685 -31.23829,-6.85743 -17.8533,-22.80525 -6.51563,-65.19651 2.28711,-86.85742 5.62428,-13.83969 30.05229,-5.71088 42.66602,-13.71484 4.39995,-2.79196 8.88156,-6.5318 10.66602,-11.42774 6.70562,-18.39797 5.13124,-40.8736 -3.04688,-58.66601 -3.07593,-6.69201 -9.14977,-12.53298 -16,-15.23828 -26.92954,-10.63505 -59.60325,10.53488 -86.85742,0.76172 -11.53957,-4.13801 -16.20729,-21.03735 -28.19141,-23.61914 -6.44552,-1.38859 -15.27525,-0.0761 -19.04687,5.33203 -3.64354,5.22447 4.14236,13.24265 1.52343,19.04883 -3.13269,6.94522 -16.53466,6.29961 -18.28515,13.71484 -1.5657,6.63238 7.42437,11.69064 9.14258,18.28516 4.16663,15.99159 -7.78434,36.42011 2.28515,49.52343 12.82286,16.68624 48.07017,1.8442 60.19141,19.04688 15.95561,22.6445 20.45326,68.3826 -3.04688,83.04883 -4.24393,2.6486 -8.71401,-5.9631 -13.71484,-6.09571 -9.24133,-0.24507 -16.66337,9.64423 -25.9043,9.9043 -12.52471,0.35248 -23.41209,-9.61913 -35.81054,-11.42773 -13.07047,-1.90662 -26.47645,-0.55798 -39.61914,0.76171 -21.06503,2.1152 -41.30895,11.05074 -62.47657,11.42774 -21.04387,0.37479 -41.509252,-10.99697 -62.474606,-9.14258 -7.999957,0.70758 -15.929742,11.68202 -22.857422,7.61914 -28.099434,-16.4795 -31.243992,-70.90544 -18.28711,-96 9.347403,-18.10378 43.361766,5.70906 60.953126,-4.57031 3.953042,-2.30994 6.369402,-7.02506 7.619142,-11.42969 3.95379,-13.93505 -4.03437,-29.16193 -1.52344,-43.42773 8.11798,-46.12184 44.75867,-84.11242 52.57031,-130.28711 2.6296,-15.54358 -4.98878,-31.70545 -2.28515,-47.23633 1.93322,-11.10528 9.6553,-20.45917 12.95312,-31.23828 7.825,-25.57641 8.61762,-52.92124 16,-78.62891 13.98353,-48.69481 43.32952,-92.65861 53.33203,-142.32422 3.86384,-19.18517 -5.38327,-40.6614 2.28711,-58.66601 3.73109,-8.75793 16.16236,-11.77868 19.8086,-20.57227 4.96202,-11.9669 -8.84269,-30.163511 0.76172,-38.85742 9.44433,-8.549024 27.90803,10.696903 38.0957,3.048828 C 303.64668,80.275147 303.30886,68.684286 302.0918,60 h -0.10157 z m 84.97657,0 c 4.2508,21.339122 1.25251,43.28494 -15.4043,51.32812 -9.5251,3.71719 -38.10234,1.31942 -41.66602,6.33008 -6.92051,10.89015 9.90574,24.76712 9.03321,37.64063 -0.43696,6.44704 -3.88671,12.41806 -7.02539,18.0664 -4.87546,8.77379 -14.01791,14.90599 -18.06836,24.08985 -6.52732,14.79984 -3.66021,32.42088 -9.03321,47.67773 -10.39142,29.50696 -40.80684,51.70601 -44.16406,82.8086 -0.72749,6.7397 3.58639,13.07486 5.51953,19.57226 4.94906,16.63406 14.91464,32.34281 15.5586,49.68555 0.38245,10.29992 -10.11633,20.28002 -7.02735,30.11328 1.34904,4.29441 5.59947,8.29033 10.03907,9.0332 5.9146,0.98968 13.4112,-1.92404 16.56054,-7.02734 4.1376,-6.70472 0.10375,-15.87544 -1.50586,-23.58789 -2.90838,-13.93514 -11.17136,-26.32046 -14.55273,-40.14844 -3.92833,-16.06473 -8.67547,-32.78591 -6.52539,-49.18359 2.3305,-17.77369 12.81555,-33.52671 20.57617,-49.68555 4.95938,-10.32622 13.53409,-19.06348 16.5625,-30.11133 1.3717,-5.00408 -1.77431,-10.89586 0.50195,-15.55859 2.866,-5.87067 11.5363,-7.04362 15.05664,-12.54688 3.82673,-5.98221 2.3369,-14.22783 5.51954,-20.57617 3.14977,-6.28285 9.07549,-10.76526 13.04882,-16.5625 5.38507,-7.85696 8.62828,-17.13471 14.55469,-24.5918 3.1656,-3.98319 8.51921,-6.12005 11.04102,-10.53906 3.66053,-6.41445 1.20401,-15.25543 5.01757,-21.58008 3.42931,-5.68732 12.19169,-7.05735 15.05664,-13.04882 C 355.23105,79.449989 339.98934,88.115472 343.74219,60 Z"
       transform="matrix(0.93750002,0,0,0.93750002,56.124812,140.79075)"
       id="path4198"
       inkscape:connector-curvature="0"
       sodipodi:nodetypes="cccccccccccccccccccsccscsscssssscssssscsssscsccccsscssccssssccsssscsssscsscccssssssccsccccccscscssscsscsssccccccccccc" />
    <path
       style="color:#000000;clip-rule:nonzero;display:inline;overflow:visible;visibility:visible;opacity:1;isolation:auto;mix-blend-mode:normal;color-interpolation:sRGB;color-interpolation-filters:linearRGB;solid-color:#000000;solid-opacity:1;fill:#000000;fill-opacity:1;fill-rule:evenodd;stroke:#000000;stroke-width:4;stroke-linecap:butt;stroke-linejoin:miter;stroke-miterlimit:4;stroke-dasharray:none;stroke-dashoffset:0;stroke-opacity:1;color-rendering:auto;image-rendering:auto;shape-rendering:auto;text-rendering:auto;enable-background:accumulate"
       d="m 456.38838,331.08036 c -3.00684,-7.58248 -12.5571,-11.52598 -15.05611,-19.29064 -2.40438,-7.47061 7.71731,-19.56629 0.94101,-23.52518 -5.41163,-3.16161 -11.35982,5.66431 -15.99712,9.88058 -4.80417,4.36799 -13.48067,9.26502 -11.76259,15.52661 1.2099,4.40949 9.3173,2.10299 12.70359,5.17554 10.23493,9.28667 7.74435,29.1046 19.29065,36.69927 3.41686,2.24746 9.36379,3.8553 12.23309,0.94101 5.96718,-6.06075 0.78274,-17.50086 -2.35252,-25.40719 z"
       id="path4208"
       inkscape:connector-curvature="0"
       sodipodi:nodetypes="aaaaaaaaa" />
    <path
       style="color:#000000;clip-rule:nonzero;display:inline;overflow:visible;visibility:visible;opacity:1;isolation:auto;mix-blend-mode:normal;color-interpolation:sRGB;color-interpolation-filters:linearRGB;solid-color:#000000;solid-opacity:1;fill:#000000;fill-opacity:1;fill-rule:evenodd;stroke:#000000;stroke-width:4;stroke-linecap:butt;stroke-linejoin:miter;stroke-miterlimit:4;stroke-dasharray:none;stroke-dashoffset:0;stroke-opacity:1;color-rendering:auto;image-rendering:auto;shape-rendering:auto;text-rendering:auto;enable-background:accumulate"
       d="m 424.86465,244.97822 c 9.1095,8.62918 7.47426,27.22908 0.4705,37.64028 -7.42906,11.04342 -26.32891,6.86397 -37.16977,14.58561 -8.06402,5.74378 -10.43921,18.14894 -19.29065,22.58417 -6.46367,3.23878 -17.75221,7.50489 -21.64316,1.41151 -3.17284,-4.96878 4.44875,-11.21469 8.46907,-15.52662 6.34903,-6.80954 16.68127,-8.74414 23.52517,-15.05611 13.90409,-12.82343 17.57963,-36.41461 34.34675,-45.16833 3.33957,-1.74351 8.55708,-3.06131 11.29209,-0.47051 z"
       id="path4210"
       inkscape:connector-curvature="0"
       sodipodi:nodetypes="aaaaaaaaa" />
    <path
       style="color:#000000;clip-rule:nonzero;display:inline;overflow:visible;visibility:visible;opacity:1;isolation:auto;mix-blend-mode:normal;color-interpolation:sRGB;color-interpolation-filters:linearRGB;solid-color:#000000;solid-opacity:1;fill:#000000;fill-opacity:1;fill-rule:evenodd;stroke:#000000;stroke-width:4;stroke-linecap:butt;stroke-linejoin:miter;stroke-miterlimit:4;stroke-dasharray:none;stroke-dashoffset:0;stroke-opacity:1;color-rendering:auto;image-rendering:auto;shape-rendering:auto;text-rendering:auto;enable-background:accumulate"
       d="m 484.14809,490.11054 c -4.03701,-7.60837 -13.53457,-17.01951 -21.64316,-14.11511 -8.35879,2.99402 -9.26311,16.61887 -7.99856,25.40719 2.20548,15.32751 19.9117,24.2913 25.87769,38.58129 4.25414,10.1897 2.23166,22.31791 6.58705,32.46474 3.77555,8.79598 12.69289,14.72884 16.46762,23.52517 4.6698,10.88213 -1.29899,26.42702 7.05755,34.81726 3.27756,3.29078 10.04306,5.75569 13.6446,2.82302 6.68884,-5.4466 2.09209,-17.50934 0,-25.87769 -3.87987,-15.51948 -16.01317,-27.76005 -22.58416,-42.34531 -7.01219,-15.56455 -14.99621,-31.16535 -17.87914,-47.99136 -1.5364,-8.96708 4.7347,-19.25267 0.47051,-27.2892 z"
       id="path4212"
       inkscape:connector-curvature="0"
       sodipodi:nodetypes="aaaaaaaaaaaa" />
    <path
       style="color:#000000;clip-rule:nonzero;display:inline;overflow:visible;visibility:visible;opacity:1;isolation:auto;mix-blend-mode:normal;color-interpolation:sRGB;color-interpolation-filters:linearRGB;solid-color:#000000;solid-opacity:1;fill:#000000;fill-opacity:1;fill-rule:evenodd;stroke:#000000;stroke-width:4;stroke-linecap:butt;stroke-linejoin:miter;stroke-miterlimit:4;stroke-dasharray:none;stroke-dashoffset:0;stroke-opacity:1;color-rendering:auto;image-rendering:auto;shape-rendering:auto;text-rendering:auto;enable-background:accumulate"
       d="m 471.915,662.31482 c -8.35231,7.20389 -26.95942,5.57611 -28.70072,16.46762 -0.66622,4.16707 4.36964,8.40859 8.46907,9.41007 10.41371,2.54405 19.62632,-9.06423 30.11222,-11.29209 7.6843,-1.63263 17.42606,-6.36276 23.52517,-1.41151 3.32349,2.69801 2.42756,8.45775 1.88202,12.7036 -1.17312,9.13021 -8.74839,16.43842 -10.82158,25.40719 -2.05141,8.87455 -9.75972,23.64595 -1.41151,27.2892 7.21725,3.14969 12.4112,-10.18871 16.46762,-16.93813 4.75219,-7.90711 3.20642,-18.77123 8.46906,-26.34819 5.92449,-8.52986 19.93422,-9.94616 24.46618,-19.29065 1.84784,-3.81008 2.83197,-9.55538 0,-12.70359 -6.96141,-7.73879 -21.24985,0.20559 -31.05323,-3.29352 -10.24201,-3.65567 -16.55541,-19.62515 -27.2892,-17.87914 -7.49462,1.21911 -8.36523,12.91986 -14.1151,17.87914 z"
       id="path4216"
       inkscape:connector-curvature="0"
       sodipodi:nodetypes="aaaaaaaaaaaaaaa" />
    <path
       style="color:#000000;clip-rule:nonzero;display:inline;overflow:visible;visibility:visible;opacity:1;isolation:auto;mix-blend-mode:normal;color-interpolation:sRGB;color-interpolation-filters:linearRGB;solid-color:#000000;solid-opacity:1;fill:#000000;fill-opacity:1;fill-rule:evenodd;stroke:#000000;stroke-width:4;stroke-linecap:butt;stroke-linejoin:miter;stroke-miterlimit:4;stroke-dasharray:none;stroke-dashoffset:0;stroke-opacity:1;color-rendering:auto;image-rendering:auto;shape-rendering:auto;text-rendering:auto;enable-background:accumulate"
       d="m 414.04307,678.31193 c 6.44692,-5.60066 -0.5384,-17.3239 -3.29352,-25.40718 -4.92046,-14.43619 -12.85927,-28.17911 -23.05468,-39.5223 -9.37309,-10.4283 -20.0497,-27.26711 -33.87625,-24.93668 -3.00282,0.50612 -5.27373,4.48446 -5.17554,7.52805 0.69501,21.5437 29.02567,32.25809 39.9928,50.81438 5.11326,8.6516 4.20445,21.13626 11.76259,27.75971 3.54837,3.10956 10.08284,6.85824 13.6446,3.76402 z"
       id="path4218"
       inkscape:connector-curvature="0"
       sodipodi:nodetypes="aaaaaaaa" />
    <path
       style="color:#000000;clip-rule:nonzero;display:inline;overflow:visible;visibility:visible;opacity:1;isolation:auto;mix-blend-mode:normal;color-interpolation:sRGB;color-interpolation-filters:linearRGB;solid-color:#000000;solid-opacity:1;fill:#000000;fill-opacity:1;fill-rule:evenodd;stroke:#000000;stroke-width:4;stroke-linecap:butt;stroke-linejoin:miter;stroke-miterlimit:4;stroke-dasharray:none;stroke-dashoffset:0;stroke-opacity:1;color-rendering:auto;image-rendering:auto;shape-rendering:auto;text-rendering:auto;enable-background:accumulate"
       d="m 370.28624,679.25294 c -7.26753,3.2245 -16.43074,-3.3791 -22.11366,-8.93957 -13.90987,-13.61016 -13.39137,-36.74534 -23.05467,-53.63739 -7.63232,-13.34176 -25.2636,-21.93325 -27.2892,-37.16978 -1.66197,-12.5013 12.75454,-22.70792 13.6446,-35.28776 0.93169,-13.16823 -11.77762,-25.68883 -8.93957,-38.58129 1.53774,-6.9855 6.87401,-13.55128 13.1741,-16.93812 1.80111,-0.96825 4.47167,0.74436 6.11654,-0.4705 8.94908,-6.60956 1.17422,-32.26718 12.23309,-31.05323 5.99752,0.65836 3.63164,11.90002 2.82303,17.87913 -1.47686,10.92037 -6.313,21.88524 -13.64461,30.11222 -1.82528,2.04819 -5.9019,1.74633 -7.05755,4.23453 -4.95262,10.66335 6.12202,23.06954 5.64604,34.81726 -0.47738,11.78216 -10.3462,22.7053 -8.46906,34.34675 1.8287,11.34104 16.3473,17.85955 18.34964,29.17122 0.39141,2.21115 -1.98396,4.41571 -1.41151,6.58705 5.77732,21.91367 40.94178,28.54955 45.16833,50.81438 0.93462,4.92342 -0.59483,12.0827 -5.17554,14.1151 z"
       id="path4220"
       inkscape:connector-curvature="0"
       sodipodi:nodetypes="aaaaaaaaaaaaaaaaaa" />
    <path
       style="color:#000000;clip-rule:nonzero;display:inline;overflow:visible;visibility:visible;opacity:1;isolation:auto;mix-blend-mode:normal;color-interpolation:sRGB;color-interpolation-filters:linearRGB;solid-color:#000000;solid-opacity:1;fill:#000000;fill-opacity:1;fill-rule:evenodd;stroke:#000000;stroke-width:4;stroke-linecap:butt;stroke-linejoin:miter;stroke-miterlimit:4;stroke-dasharray:none;stroke-dashoffset:0;stroke-opacity:1;color-rendering:auto;image-rendering:auto;shape-rendering:auto;text-rendering:auto;enable-background:accumulate"
       d="m 345.82006,433.17962 c -0.80809,-2.62177 -4.36919,-4.7817 -7.05755,-4.23453 -2.09032,0.42545 -4.154,3.0783 -3.76403,5.17553 0.58055,3.12214 4.94838,6.05938 7.99856,5.17554 2.1568,-0.62497 3.48444,-3.97063 2.82302,-6.11654 z"
       id="path4222"
       inkscape:connector-curvature="0"
       sodipodi:nodetypes="aaaaa" />
    <path
       style="color:#000000;clip-rule:nonzero;display:inline;overflow:visible;visibility:visible;opacity:1;isolation:auto;mix-blend-mode:normal;color-interpolation:sRGB;color-interpolation-filters:linearRGB;solid-color:#000000;solid-opacity:1;fill:#000000;fill-opacity:1;fill-rule:evenodd;stroke:#000000;stroke-width:4.00031281;stroke-linecap:butt;stroke-linejoin:miter;stroke-miterlimit:4;stroke-dasharray:none;stroke-dashoffset:0;stroke-opacity:1;color-rendering:auto;image-rendering:auto;shape-rendering:auto;text-rendering:auto;enable-background:accumulate"
       d="m 430.04019,478.81846 c 7.13531,1.28503 11.18972,-10.11629 13.6446,-16.93813 8.33803,-23.17043 8.57917,-50.45859 0.941,-73.86905 -4.86468,-14.90991 -15.49036,-28.49332 -28.23021,-37.64028 -10.99841,-7.89664 -25.04166,-12.72839 -38.58128,-12.70359 -13.39074,0.0245 -27.63879,4.35793 -38.11078,12.70359 -16.51218,13.1594 -26.012,34.16072 -32.93525,54.10791 -2.12403,6.11973 1.18459,13.86372 -2.35251,19.29064 -4.18569,6.42203 -16.05217,5.05395 -19.76115,11.76259 -3.188,5.76632 -1.16329,13.378 0.4705,19.76114 1.26971,4.96068 2.25887,11.85766 7.05755,13.6446 3.95742,1.47367 8.90491,-1.59592 11.76259,-4.70503 10.54179,-11.46931 7.53173,-30.36928 13.6446,-44.69783 7.68715,-18.01863 14.5702,-37.71684 28.70072,-51.28488 8.49963,-8.16129 19.77659,-15.07243 31.52373,-15.99712 10.68003,-0.84069 22.16477,3.25427 30.58273,9.88057 11.56113,9.10049 18.58713,23.62173 23.05467,37.64028 3.53202,11.08302 3.26613,23.22098 2.35251,34.81726 -0.88451,11.22676 -8.07424,21.68695 -7.52805,32.93524 0.19243,3.96297 -0.14079,10.58885 3.76403,11.29209 z"
       id="path4224"
       inkscape:connector-curvature="0"
       sodipodi:nodetypes="aaaaaaaaaaaaaaaaaaaa" />
    <path
       style="color:#000000;clip-rule:nonzero;display:inline;overflow:visible;visibility:visible;opacity:1;isolation:auto;mix-blend-mode:normal;color-interpolation:sRGB;color-interpolation-filters:linearRGB;solid-color:#000000;solid-opacity:1;fill:#000000;fill-opacity:1;fill-rule:evenodd;stroke:#000000;stroke-width:4;stroke-linecap:butt;stroke-linejoin:miter;stroke-miterlimit:4;stroke-dasharray:none;stroke-dashoffset:0;stroke-opacity:1;color-rendering:auto;image-rendering:auto;shape-rendering:auto;text-rendering:auto;enable-background:accumulate"
       d="m 407.45602,413.88897 c -6.06019,0.71696 -6.99461,10.44832 -7.99856,16.46763 -2.33944,14.02638 3.2894,28.25081 5.17554,42.34531 1.15616,8.63965 0.33009,17.86592 3.76403,25.87769 6.20471,14.47629 26.84521,21.59252 29.17121,37.16978 1.86247,12.473 -16.54438,23.01438 -13.6446,35.28776 2.14438,9.07617 11.40725,18.05854 20.70215,18.82014 6.3301,0.51867 12.63254,-4.96417 15.99712,-10.35108 4.85374,-7.77116 5.58978,-18.4192 3.29353,-27.2892 -5.62931,-21.74502 -28.96544,-34.75197 -39.52229,-54.57841 -6.2031,-11.6498 -11.66015,-24.12146 -13.64461,-37.16977 -0.94442,-6.20981 -0.53421,-12.71462 0.94101,-18.82014 1.25291,-5.18546 7.2878,-9.29716 6.58705,-14.58561 -0.7465,-5.63371 -5.17799,-13.84177 -10.82158,-13.1741 z"
       id="path4226"
       inkscape:connector-curvature="0"
       sodipodi:nodetypes="aaaaaaaaaaaaaa" />
    <path
       style="color:#000000;clip-rule:nonzero;display:inline;overflow:visible;visibility:visible;opacity:1;isolation:auto;mix-blend-mode:normal;color-interpolation:sRGB;color-interpolation-filters:linearRGB;solid-color:#000000;solid-opacity:1;fill:#000000;fill-opacity:1;fill-rule:evenodd;stroke:#000000;stroke-width:4;stroke-linecap:butt;stroke-linejoin:miter;stroke-miterlimit:4;stroke-dasharray:none;stroke-dashoffset:0;stroke-opacity:1;color-rendering:auto;image-rendering:auto;shape-rendering:auto;text-rendering:auto;enable-background:accumulate"
       d="m 242.7798,541.39542 c 0.14035,-4.4254 -0.75668,-11.95472 -5.17554,-12.23309 -5.61091,-0.35346 -7.94952,8.98764 -8.46906,14.58561 -0.47674,5.1368 0.0264,14.26938 5.17554,14.5856 6.30059,0.38693 8.26897,-10.62883 8.46906,-16.93812 z"
       id="path4228"
       inkscape:connector-curvature="0"
       sodipodi:nodetypes="aaaaa" />
    <path
       style="color:#000000;clip-rule:nonzero;display:inline;overflow:visible;visibility:visible;opacity:1;isolation:auto;mix-blend-mode:normal;color-interpolation:sRGB;color-interpolation-filters:linearRGB;solid-color:#000000;solid-opacity:1;fill:#000000;fill-opacity:1;fill-rule:evenodd;stroke:#000000;stroke-width:4;stroke-linecap:butt;stroke-linejoin:miter;stroke-miterlimit:4;stroke-dasharray:none;stroke-dashoffset:0;stroke-opacity:1;color-rendering:auto;image-rendering:auto;shape-rendering:auto;text-rendering:auto;enable-background:accumulate"
       d="m 247.95534,606.3249 c 11.06946,-0.67248 18.25035,13.77009 23.52517,23.52517 5.10596,9.4428 -1.18444,24.11826 6.58705,31.52374 5.05859,4.82035 14.3906,6.29176 20.70215,3.29352 5.07818,-2.41233 8.92786,-8.98233 8.46907,-14.58561 -2.17293,-26.53844 -29.3133,-45.92882 -50.81438,-61.63595 -4.09191,-2.98925 -9.09002,-6.30014 -14.1151,-5.64604 -7.55846,0.98387 -14.86725,6.86439 -18.34964,13.6446 -8.16974,15.90651 5.25517,36.86333 -0.94101,53.63739 -6.06053,16.40682 -28.26137,23.74657 -33.40575,40.4633 -3.47472,11.29115 2.74401,23.48685 3.29353,35.28777 0.4596,9.86988 -4.46056,20.82531 0,29.64172 2.988,5.90586 9.85064,14.2178 15.99712,11.76258 4.14256,-1.65475 2.22152,-8.71519 2.35252,-13.1741 0.62611,-21.31165 -15.08709,-43.58209 -7.52806,-63.51797 3.42629,-9.03635 12.06688,-20.59057 21.64316,-19.29064 5.73332,0.77827 6.47064,9.602 9.41007,14.58561 4.88377,8.28009 4.07434,26.31349 13.6446,25.40719 8.34561,-0.79032 8.86531,-15.72008 7.52806,-23.99568 -2.09691,-12.9768 -18.58883,-19.63096 -23.05467,-31.99424 -3.09769,-8.57568 -4.55562,-18.57198 -1.88202,-27.2892 2.68622,-8.75839 7.79392,-21.08764 16.93813,-21.64316 z"
       id="path4230"
       inkscape:connector-curvature="0"
       sodipodi:nodetypes="aaaaaaaaaaaaaaaaaaaaaa" />
    <path
       style="color:#000000;clip-rule:nonzero;display:inline;overflow:visible;visibility:visible;opacity:1;isolation:auto;mix-blend-mode:normal;color-interpolation:sRGB;color-interpolation-filters:linearRGB;solid-color:#000000;solid-opacity:1;fill:#000000;fill-opacity:1;fill-rule:evenodd;stroke:#000000;stroke-width:4;stroke-linecap:butt;stroke-linejoin:miter;stroke-miterlimit:4;stroke-dasharray:none;stroke-dashoffset:0;stroke-opacity:1;color-rendering:auto;image-rendering:auto;shape-rendering:auto;text-rendering:auto;enable-background:accumulate"
       d="m 273.83303,729.59681 c 2.33175,8.96012 7.09705,18.23225 5.17554,27.28921 -1.0293,4.85156 -3.51115,12.36014 -8.46907,12.23309 -3.87226,-0.0992 -4.85769,-6.21731 -6.11654,-9.88058 -3.7937,-11.03972 -6.93501,-23.58282 -3.76403,-34.81725 1.18448,-4.19649 3.69955,-11.08049 7.99856,-10.35108 5.37863,0.91259 3.80158,10.24696 5.17554,15.52661 z"
       id="path4232"
       inkscape:connector-curvature="0"
       sodipodi:nodetypes="aaaaaaa" />
    <path
       style="color:#000000;clip-rule:nonzero;display:inline;overflow:visible;visibility:visible;opacity:1;isolation:auto;mix-blend-mode:normal;color-interpolation:sRGB;color-interpolation-filters:linearRGB;solid-color:#000000;solid-opacity:1;fill:#000000;fill-opacity:1;fill-rule:evenodd;stroke:#000000;stroke-width:4;stroke-linecap:butt;stroke-linejoin:miter;stroke-miterlimit:4;stroke-dasharray:none;stroke-dashoffset:0;stroke-opacity:1;color-rendering:auto;image-rendering:auto;shape-rendering:auto;text-rendering:auto;enable-background:accumulate"
       d="m 479.44305,717.83423 c 1.26238,6.39994 -1.33792,13.06742 -3.29352,19.29064 -0.88338,2.81112 -0.82173,7.83848 -3.76403,7.99856 -3.30354,0.17974 -4.10471,-5.33872 -5.17554,-8.46906 -2.29836,-6.71874 -4.41446,-14.37763 -2.35252,-21.17266 1.13121,-3.72784 3.64209,-9.21456 7.52806,-8.93957 4.42765,0.31332 6.19857,6.93728 7.05755,11.29209 z"
       id="path4234"
       inkscape:connector-curvature="0"
       sodipodi:nodetypes="aaaaaaa" />
    <path
       style="color:#000000;clip-rule:nonzero;display:inline;overflow:visible;visibility:visible;opacity:1;isolation:auto;mix-blend-mode:normal;color-interpolation:sRGB;color-interpolation-filters:linearRGB;solid-color:#000000;solid-opacity:1;fill:#000000;fill-opacity:1;fill-rule:evenodd;stroke:#000000;stroke-width:4;stroke-linecap:butt;stroke-linejoin:miter;stroke-miterlimit:4;stroke-dasharray:none;stroke-dashoffset:0;stroke-opacity:1;color-rendering:auto;image-rendering:auto;shape-rendering:auto;text-rendering:auto;enable-background:accumulate"
       d="m 442.74378,812.87593 c 0.84263,-2.97214 -0.95218,-7.18956 -3.76403,-8.46906 -5.82484,-2.65053 -13.65334,1.29874 -18.34963,5.64604 -8.78406,8.1313 -23.26854,26.97301 -13.1741,33.40575 7.11022,4.53103 10.99212,-12.88028 17.40863,-18.34964 5.49563,-4.68442 15.90947,-5.2857 17.87913,-12.23309 z"
       id="path4236"
       inkscape:connector-curvature="0"
       sodipodi:nodetypes="aaaaaa" />
    <path
       style="color:#000000;clip-rule:nonzero;display:inline;overflow:visible;visibility:visible;opacity:1;isolation:auto;mix-blend-mode:normal;color-interpolation:sRGB;color-interpolation-filters:linearRGB;solid-color:#000000;solid-opacity:1;fill:#000000;fill-opacity:1;fill-rule:evenodd;stroke:#000000;stroke-width:4;stroke-linecap:butt;stroke-linejoin:miter;stroke-miterlimit:4;stroke-dasharray:none;stroke-dashoffset:0;stroke-opacity:1;color-rendering:auto;image-rendering:auto;shape-rendering:auto;text-rendering:auto;enable-background:accumulate"
       d="m 232.89923,729.59681 c 8.34095,-0.96108 11.08896,13.17492 13.6446,21.17266 3.10626,9.72086 -3.86841,21.84967 1.41151,30.58273 13.81937,22.85744 53.0248,19.18036 69.16401,40.4633 4.11435,5.42564 6.43692,13.06978 5.17554,19.76114 -0.79033,4.19252 -3.53159,8.85774 -7.52806,10.35108 -5.88019,2.19723 -13.62789,-0.0982 -18.34963,-4.23453 -10.07935,-8.8298 -1.14102,-34.28892 -14.11511,-37.64028 -23.99312,-6.19771 -40.80919,-7.05234 -72.45754,3.76403 -14.07594,4.8107 10.5133,22.75683 6.58705,33.40574 -1.66076,4.50437 -6.53575,9.59132 -11.29208,8.93957 -4.22686,-0.5792 -5.9414,-6.39073 -7.52806,-10.35108 -4.82561,-12.04486 8.2109,-36.23253 -5.17409,-38.58128 -19.28541,-3.38414 -43.28776,6.11655 -57.87337,18.34963 -5.18802,4.35124 -1.62006,13.73356 -4.70504,19.76115 -2.0771,4.05835 -4.41285,9.80941 -8.93956,10.35108 -2.67917,0.32059 -5.3939,-2.28489 -6.58705,-4.70504 -6.03709,-12.24541 -6.23967,-29.62646 1.41151,-40.9338 3.26624,-4.82703 10.43651,-5.31164 15.99712,-7.05755 13.2642,-4.16468 27.18503,-5.93577 40.9338,-7.99856 14.81577,-2.22288 31.90873,3.09798 44.69783,-4.70504 4.64169,-2.83203 7.24075,-8.47936 8.93957,-13.6446 3.53343,-10.74335 -0.35665,-22.79053 1.88201,-33.87625 0.92302,-4.57076 0.0727,-12.64034 4.70504,-13.1741 z"
       id="path4238"
       inkscape:connector-curvature="0"
       sodipodi:nodetypes="aaaaaaassaaassaaaaaaaaaa" />
    <path
       style="color:#000000;clip-rule:nonzero;display:inline;overflow:visible;visibility:visible;opacity:1;isolation:auto;mix-blend-mode:normal;color-interpolation:sRGB;color-interpolation-filters:linearRGB;solid-color:#000000;solid-opacity:1;fill:#000000;fill-opacity:1;fill-rule:evenodd;stroke:#000000;stroke-width:4;stroke-linecap:butt;stroke-linejoin:miter;stroke-miterlimit:4;stroke-dasharray:none;stroke-dashoffset:0;stroke-opacity:1;color-rendering:auto;image-rendering:auto;shape-rendering:auto;text-rendering:auto;enable-background:accumulate"
       d="m 479.91356,771.47162 c -6.11972,4.31914 -8.40356,13.73361 -7.52806,21.17266 1.683,14.30021 12.87937,26.53364 23.52517,36.22877 2.7489,2.50342 6.20884,4.59081 9.88058,5.17554 16.80532,2.67626 33.33059,-8.10911 50.34387,-8.46907 15.16989,-0.32096 30.11743,7.56931 45.16833,5.64605 14.73318,-1.88267 37.78464,-2.06245 41.40431,-16.46763 0.94938,-3.77823 -4.00285,-7.28146 -7.52805,-8.93956 -16.88901,-7.94387 -41.09729,10.77908 -55.98992,-0.47051 -9.78124,-7.38855 1.85843,-34.19628 -10.35108,-35.28776 -10.12969,-0.90555 -7.96398,18.8535 -13.6446,27.28921 -5.83457,8.66431 -10.76863,20.29442 -20.70215,23.52517 -10.24005,3.33045 -23.12617,-0.31726 -31.52373,-7.05755 -8.64509,-6.93897 -11.91335,-19.24764 -14.11511,-30.11223 -0.8105,-3.99941 3.30002,-9.29266 0.47051,-12.23309 -2.17493,-2.2602 -6.84736,-1.80869 -9.41007,0 z"
       id="path7612"
       inkscape:connector-curvature="0"
       sodipodi:nodetypes="aaaaaaaaaaaaaaaa" />
    <path
       style="color:#000000;clip-rule:nonzero;display:inline;overflow:visible;visibility:visible;opacity:1;isolation:auto;mix-blend-mode:normal;color-interpolation:sRGB;color-interpolation-filters:linearRGB;solid-color:#000000;solid-opacity:1;fill:#000000;fill-opacity:1;fill-rule:evenodd;stroke:#000000;stroke-width:4;stroke-linecap:butt;stroke-linejoin:miter;stroke-miterlimit:4;stroke-dasharray:none;stroke-dashoffset:0;stroke-opacity:1;color-rendering:auto;image-rendering:auto;shape-rendering:auto;text-rendering:auto;enable-background:accumulate"
       d="m 611.18403,858.98527 c -0.10875,-7.96237 -12.4015,-11.25445 -20.23165,-12.70359 -11.16014,-2.06542 -22.06187,6.22472 -33.40575,6.58704 -12.01603,0.38379 -25.25753,-10.55883 -35.75826,-4.70503 -3.00436,1.67483 -5.41105,6.17789 -4.23454,9.41007 1.72748,4.74584 8.68887,5.61344 13.6446,6.58705 14.95612,2.93831 30.4837,-4.44815 45.63884,-2.82302 7.45422,0.79934 14.23758,7.28346 21.64316,6.11654 5.02725,-0.79216 12.77311,-3.38026 12.7036,-8.46906 z"
       id="path7614"
       inkscape:connector-curvature="0"
       sodipodi:nodetypes="aaaaaaaaa" />
    <path
       style="color:#000000;clip-rule:nonzero;display:inline;overflow:visible;visibility:visible;opacity:1;isolation:auto;mix-blend-mode:normal;color-interpolation:sRGB;color-interpolation-filters:linearRGB;solid-color:#000000;solid-opacity:1;fill:#000000;fill-opacity:1;fill-rule:evenodd;stroke:#000000;stroke-width:4;stroke-linecap:butt;stroke-linejoin:miter;stroke-miterlimit:4;stroke-dasharray:none;stroke-dashoffset:0;stroke-opacity:1;color-rendering:auto;image-rendering:auto;shape-rendering:auto;text-rendering:auto;enable-background:accumulate"
       d="m 248.42584,832.16657 c -7.8546,0.95116 -18.95104,7.16701 -18.34964,15.05611 0.37414,4.90797 8.05665,5.90509 12.7036,7.52806 4.33451,1.51385 9.22112,3.11184 13.6446,1.88201 5.05011,-1.40404 11.95545,-4.64628 12.23309,-9.88057 0.23496,-4.42972 -5.78883,-6.84799 -9.41007,-9.41007 -3.26414,-2.30943 -6.85207,-5.65623 -10.82158,-5.17554 z"
       id="path7618"
       inkscape:connector-curvature="0"
       sodipodi:nodetypes="aaaaaaa" />
    <path
       style="color:#000000;clip-rule:nonzero;display:inline;overflow:visible;visibility:visible;opacity:1;isolation:auto;mix-blend-mode:normal;color-interpolation:sRGB;color-interpolation-filters:linearRGB;solid-color:#000000;solid-opacity:1;fill:#000000;fill-opacity:1;fill-rule:evenodd;stroke:#000000;stroke-width:4;stroke-linecap:butt;stroke-linejoin:miter;stroke-miterlimit:4;stroke-dasharray:none;stroke-dashoffset:0;stroke-opacity:1;color-rendering:auto;image-rendering:auto;shape-rendering:auto;text-rendering:auto;enable-background:accumulate"
       d="m 158.08917,838.28312 c 5.08795,-1.03497 13.51504,1.42969 14.11511,6.58705 0.43878,3.77112 -5.20688,6.3641 -8.93957,7.05755 -4.68208,0.86983 -12.38112,0.35699 -13.6446,-4.23453 -1.11963,-4.06875 4.33376,-8.56889 8.46906,-9.41007 z"
       id="path7620"
       inkscape:connector-curvature="0"
       sodipodi:nodetypes="aaaaa" />
  </g>
  <g
     inkscape:groupmode="layer"
     id="layer3"
     inkscape:label="Layer 3"
     style="display:inline"
     transform="translate(-56.124812,-140.79075)">
    <g
       id="g1092"
       clip-path="url(#clipPath1094)">
      <path
         inkscape:connector-curvature="0"
         id="path4235-4-3"
         d="m 250.45896,570.30369 9.33219,-2.42792 -2.2481,-8.64093"
         style="color:#000000;clip-rule:nonzero;display:inline;overflow:visible;visibility:visible;opacity:1;isolation:auto;mix-blend-mode:normal;color-interpolation:sRGB;color-interpolation-filters:linearRGB;solid-color:#000000;solid-opacity:1;fill:none;fill-opacity:1;fill-rule:evenodd;stroke:#000000;stroke-width:4;stroke-linecap:butt;stroke-linejoin:miter;stroke-miterlimit:4;stroke-dasharray:none;stroke-dashoffset:0;stroke-opacity:1;color-rendering:auto;image-rendering:auto;shape-rendering:auto;text-rendering:auto;enable-background:accumulate" />
      <path
         inkscape:connector-curvature="0"
         id="path4235-4-30"
         d="m 308.21492,635.36092 9.63075,-0.48311 -0.44736,-8.91738"
         style="color:#000000;clip-rule:nonzero;display:inline;overflow:visible;visibility:visible;opacity:1;isolation:auto;mix-blend-mode:normal;color-interpolation:sRGB;color-interpolation-filters:linearRGB;solid-color:#000000;solid-opacity:1;fill:none;fill-opacity:1;fill-rule:evenodd;stroke:#000000;stroke-width:4;stroke-linecap:butt;stroke-linejoin:miter;stroke-miterlimit:4;stroke-dasharray:none;stroke-dashoffset:0;stroke-opacity:1;color-rendering:auto;image-rendering:auto;shape-rendering:auto;text-rendering:auto;enable-background:accumulate" />
      <path
         inkscape:connector-curvature="0"
         id="path4235-4-33"
         d="m 310.82812,612.2263 -9.49235,-1.69706 -1.57133,8.78923"
         style="color:#000000;clip-rule:nonzero;display:inline;overflow:visible;visibility:visible;opacity:1;isolation:auto;mix-blend-mode:normal;color-interpolation:sRGB;color-interpolation-filters:linearRGB;solid-color:#000000;solid-opacity:1;fill:none;fill-opacity:1;fill-rule:evenodd;stroke:#000000;stroke-width:4;stroke-linecap:butt;stroke-linejoin:miter;stroke-miterlimit:4;stroke-dasharray:none;stroke-dashoffset:0;stroke-opacity:1;color-rendering:auto;image-rendering:auto;shape-rendering:auto;text-rendering:auto;enable-background:accumulate" />
      <path
         inkscape:connector-curvature="0"
         id="path4235-4-9"
         d="m 202.40747,635.98906 4.22954,8.66577 8.02387,-3.91627"
         style="color:#000000;clip-rule:nonzero;display:inline;overflow:visible;visibility:visible;opacity:1;isolation:auto;mix-blend-mode:normal;color-interpolation:sRGB;color-interpolation-filters:linearRGB;solid-color:#000000;solid-opacity:1;fill:none;fill-opacity:1;fill-rule:evenodd;stroke:#000000;stroke-width:4;stroke-linecap:butt;stroke-linejoin:miter;stroke-miterlimit:4;stroke-dasharray:none;stroke-dashoffset:0;stroke-opacity:1;color-rendering:auto;image-rendering:auto;shape-rendering:auto;text-rendering:auto;enable-background:accumulate" />
      <path
         inkscape:connector-curvature="0"
         id="path4235-4-4"
         d="m 203.8891,772.86188 -5.25263,8.08668 7.48769,4.86354"
         style="color:#000000;clip-rule:nonzero;display:inline;overflow:visible;visibility:visible;opacity:1;isolation:auto;mix-blend-mode:normal;color-interpolation:sRGB;color-interpolation-filters:linearRGB;solid-color:#000000;solid-opacity:1;fill:none;fill-opacity:1;fill-rule:evenodd;stroke:#000000;stroke-width:4;stroke-linecap:butt;stroke-linejoin:miter;stroke-miterlimit:4;stroke-dasharray:none;stroke-dashoffset:0;stroke-opacity:1;color-rendering:auto;image-rendering:auto;shape-rendering:auto;text-rendering:auto;enable-background:accumulate" />
      <path
         inkscape:transform-center-y="-3.7072899"
         inkscape:transform-center-x="1.358291"
         inkscape:connector-curvature="0"
         id="path4235-4-6"
         d="m 280.24167,737.56719 8.52685,4.50305 4.16948,-7.89525"
         style="color:#000000;clip-rule:nonzero;display:inline;overflow:visible;visibility:visible;opacity:1;isolation:auto;mix-blend-mode:normal;color-interpolation:sRGB;color-interpolation-filters:linearRGB;solid-color:#000000;solid-opacity:1;fill:none;fill-opacity:1;fill-rule:evenodd;stroke:#000000;stroke-width:4;stroke-linecap:butt;stroke-linejoin:miter;stroke-miterlimit:4;stroke-dasharray:none;stroke-dashoffset:0;stroke-opacity:1;color-rendering:auto;image-rendering:auto;shape-rendering:auto;text-rendering:auto;enable-background:accumulate" />
      <path
         inkscape:transform-center-y="-9.8338688"
         inkscape:transform-center-x="-8.4447829"
         inkscape:connector-curvature="0"
         id="path4235-4-48"
         d="m 321.52534,796.25494 -8.83985,3.85248 3.56713,8.18506"
         style="color:#000000;clip-rule:nonzero;display:inline;overflow:visible;visibility:visible;opacity:1;isolation:auto;mix-blend-mode:normal;color-interpolation:sRGB;color-interpolation-filters:linearRGB;solid-color:#000000;solid-opacity:1;fill:none;fill-opacity:1;fill-rule:evenodd;stroke:#000000;stroke-width:4;stroke-linecap:butt;stroke-linejoin:miter;stroke-miterlimit:4;stroke-dasharray:none;stroke-dashoffset:0;stroke-opacity:1;color-rendering:auto;image-rendering:auto;shape-rendering:auto;text-rendering:auto;enable-background:accumulate" />
      <path
         inkscape:connector-curvature="0"
         id="path4235-4-0"
         d="m 429.92978,852.89317 -1.93472,-9.44677 -8.74701,1.79144"
         style="color:#000000;clip-rule:nonzero;display:inline;overflow:visible;visibility:visible;opacity:1;isolation:auto;mix-blend-mode:normal;color-interpolation:sRGB;color-interpolation-filters:linearRGB;solid-color:#000000;solid-opacity:1;fill:none;fill-opacity:1;fill-rule:evenodd;stroke:#000000;stroke-width:4;stroke-linecap:butt;stroke-linejoin:miter;stroke-miterlimit:4;stroke-dasharray:none;stroke-dashoffset:0;stroke-opacity:1;color-rendering:auto;image-rendering:auto;shape-rendering:auto;text-rendering:auto;enable-background:accumulate" />
      <path
         inkscape:connector-curvature="0"
         id="path4235-4-2"
         d="m 456.73463,768.92389 3.80442,8.86065 8.2043,-3.52263"
         style="color:#000000;clip-rule:nonzero;display:inline;overflow:visible;visibility:visible;opacity:1;isolation:auto;mix-blend-mode:normal;color-interpolation:sRGB;color-interpolation-filters:linearRGB;solid-color:#000000;solid-opacity:1;fill:none;fill-opacity:1;fill-rule:evenodd;stroke:#000000;stroke-width:4;stroke-linecap:butt;stroke-linejoin:miter;stroke-miterlimit:4;stroke-dasharray:none;stroke-dashoffset:0;stroke-opacity:1;color-rendering:auto;image-rendering:auto;shape-rendering:auto;text-rendering:auto;enable-background:accumulate" />
      <path
         inkscape:connector-curvature="0"
         id="path4235-4-35"
         d="m 559.93073,833.30897 -7.79186,5.6808 5.26002,7.21468"
         style="color:#000000;clip-rule:nonzero;display:inline;overflow:visible;visibility:visible;opacity:1;isolation:auto;mix-blend-mode:normal;color-interpolation:sRGB;color-interpolation-filters:linearRGB;solid-color:#000000;solid-opacity:1;fill:none;fill-opacity:1;fill-rule:evenodd;stroke:#000000;stroke-width:4;stroke-linecap:butt;stroke-linejoin:miter;stroke-miterlimit:4;stroke-dasharray:none;stroke-dashoffset:0;stroke-opacity:1;color-rendering:auto;image-rendering:auto;shape-rendering:auto;text-rendering:auto;enable-background:accumulate" />
      <path
         inkscape:transform-center-y="-4.0458266"
         inkscape:transform-center-x="-2.7891166"
         inkscape:connector-curvature="0"
         id="path4235-4-37"
         d="m 503.48738,798.78763 9.4009,-2.14654 -1.98756,-8.70454"
         style="color:#000000;clip-rule:nonzero;display:inline;overflow:visible;visibility:visible;opacity:1;isolation:auto;mix-blend-mode:normal;color-interpolation:sRGB;color-interpolation-filters:linearRGB;solid-color:#000000;solid-opacity:1;fill:none;fill-opacity:1;fill-rule:evenodd;stroke:#000000;stroke-width:4;stroke-linecap:butt;stroke-linejoin:miter;stroke-miterlimit:4;stroke-dasharray:none;stroke-dashoffset:0;stroke-opacity:1;color-rendering:auto;image-rendering:auto;shape-rendering:auto;text-rendering:auto;enable-background:accumulate" />
      <path
         inkscape:transform-center-y="7.004271"
         inkscape:transform-center-x="2.4059827"
         inkscape:connector-curvature="0"
         id="path4235-4-32"
         d="m 524.37805,702.94976 1.02931,9.58776 8.87756,-0.95308"
         style="color:#000000;clip-rule:nonzero;display:inline;overflow:visible;visibility:visible;opacity:1;isolation:auto;mix-blend-mode:normal;color-interpolation:sRGB;color-interpolation-filters:linearRGB;solid-color:#000000;solid-opacity:1;fill:none;fill-opacity:1;fill-rule:evenodd;stroke:#000000;stroke-width:4;stroke-linecap:butt;stroke-linejoin:miter;stroke-miterlimit:4;stroke-dasharray:none;stroke-dashoffset:0;stroke-opacity:1;color-rendering:auto;image-rendering:auto;shape-rendering:auto;text-rendering:auto;enable-background:accumulate" />
      <path
         inkscape:connector-curvature="0"
         id="path4235-4-5"
         d="m 461.53596,660.76263 2.66713,-9.26666 -8.58026,-2.46955"
         style="color:#000000;clip-rule:nonzero;display:inline;overflow:visible;visibility:visible;opacity:1;isolation:auto;mix-blend-mode:normal;color-interpolation:sRGB;color-interpolation-filters:linearRGB;solid-color:#000000;solid-opacity:1;fill:none;fill-opacity:1;fill-rule:evenodd;stroke:#000000;stroke-width:4;stroke-linecap:butt;stroke-linejoin:miter;stroke-miterlimit:4;stroke-dasharray:none;stroke-dashoffset:0;stroke-opacity:1;color-rendering:auto;image-rendering:auto;shape-rendering:auto;text-rendering:auto;enable-background:accumulate" />
      <path
         inkscape:connector-curvature="0"
         id="path4235-4-8"
         d="m 354.88214,619.7 -9.6383,-0.29614 -0.27419,8.92437"
         style="color:#000000;clip-rule:nonzero;display:inline;overflow:visible;visibility:visible;opacity:1;isolation:auto;mix-blend-mode:normal;color-interpolation:sRGB;color-interpolation-filters:linearRGB;solid-color:#000000;solid-opacity:1;fill:none;fill-opacity:1;fill-rule:evenodd;stroke:#000000;stroke-width:4;stroke-linecap:butt;stroke-linejoin:miter;stroke-miterlimit:4;stroke-dasharray:none;stroke-dashoffset:0;stroke-opacity:1;color-rendering:auto;image-rendering:auto;shape-rendering:auto;text-rendering:auto;enable-background:accumulate" />
      <path
         inkscape:connector-curvature="0"
         id="path4235-4-7"
         d="m 377.95084,596.064 9.61467,0.73676 0.68217,-8.90247"
         style="color:#000000;clip-rule:nonzero;display:inline;overflow:visible;visibility:visible;opacity:1;isolation:auto;mix-blend-mode:normal;color-interpolation:sRGB;color-interpolation-filters:linearRGB;solid-color:#000000;solid-opacity:1;fill:none;fill-opacity:1;fill-rule:evenodd;stroke:#000000;stroke-width:4;stroke-linecap:butt;stroke-linejoin:miter;stroke-miterlimit:4;stroke-dasharray:none;stroke-dashoffset:0;stroke-opacity:1;color-rendering:auto;image-rendering:auto;shape-rendering:auto;text-rendering:auto;enable-background:accumulate" />
      <path
         inkscape:connector-curvature="0"
         id="path4235-4-34"
         d="m 525.9169,554.35787 -9.37973,-2.23727 -2.07153,8.68495"
         style="color:#000000;clip-rule:nonzero;display:inline;overflow:visible;visibility:visible;opacity:1;isolation:auto;mix-blend-mode:normal;color-interpolation:sRGB;color-interpolation-filters:linearRGB;solid-color:#000000;solid-opacity:1;fill:none;fill-opacity:1;fill-rule:evenodd;stroke:#000000;stroke-width:4;stroke-linecap:butt;stroke-linejoin:miter;stroke-miterlimit:4;stroke-dasharray:none;stroke-dashoffset:0;stroke-opacity:1;color-rendering:auto;image-rendering:auto;shape-rendering:auto;text-rendering:auto;enable-background:accumulate" />
      <path
         inkscape:connector-curvature="0"
         id="path4235-4-26"
         d="m 461.2737,540.3868 9.61648,-0.71264 -0.65987,-8.90416"
         style="color:#000000;clip-rule:nonzero;display:inline;overflow:visible;visibility:visible;opacity:1;isolation:auto;mix-blend-mode:normal;color-interpolation:sRGB;color-interpolation-filters:linearRGB;solid-color:#000000;solid-opacity:1;fill:none;fill-opacity:1;fill-rule:evenodd;stroke:#000000;stroke-width:4;stroke-linecap:butt;stroke-linejoin:miter;stroke-miterlimit:4;stroke-dasharray:none;stroke-dashoffset:0;stroke-opacity:1;color-rendering:auto;image-rendering:auto;shape-rendering:auto;text-rendering:auto;enable-background:accumulate" />
      <path
         inkscape:connector-curvature="0"
         id="path4235-4-40"
         d="m 385.15068,472.03111 8.52685,4.50305 4.16948,-7.89525"
         style="color:#000000;clip-rule:nonzero;display:inline;overflow:visible;visibility:visible;opacity:1;isolation:auto;mix-blend-mode:normal;color-interpolation:sRGB;color-interpolation-filters:linearRGB;solid-color:#000000;solid-opacity:1;fill:none;fill-opacity:1;fill-rule:evenodd;stroke:#000000;stroke-width:4;stroke-linecap:butt;stroke-linejoin:miter;stroke-miterlimit:4;stroke-dasharray:none;stroke-dashoffset:0;stroke-opacity:1;color-rendering:auto;image-rendering:auto;shape-rendering:auto;text-rendering:auto;enable-background:accumulate" />
      <path
         inkscape:connector-curvature="0"
         id="path4235-4-1"
         d="m 336.07101,519.43213 -2.23105,-9.38121 -8.68631,2.06581"
         style="color:#000000;clip-rule:nonzero;display:inline;overflow:visible;visibility:visible;opacity:1;isolation:auto;mix-blend-mode:normal;color-interpolation:sRGB;color-interpolation-filters:linearRGB;solid-color:#000000;solid-opacity:1;fill:none;fill-opacity:1;fill-rule:evenodd;stroke:#000000;stroke-width:4;stroke-linecap:butt;stroke-linejoin:miter;stroke-miterlimit:4;stroke-dasharray:none;stroke-dashoffset:0;stroke-opacity:1;color-rendering:auto;image-rendering:auto;shape-rendering:auto;text-rendering:auto;enable-background:accumulate" />
      <path
         inkscape:connector-curvature="0"
         id="path4235-4-02"
         d="m 466.68276,454.51553 -7.21609,-6.3963 -5.9225,6.68159"
         style="color:#000000;clip-rule:nonzero;display:inline;overflow:visible;visibility:visible;opacity:1;isolation:auto;mix-blend-mode:normal;color-interpolation:sRGB;color-interpolation-filters:linearRGB;solid-color:#000000;solid-opacity:1;fill:none;fill-opacity:1;fill-rule:evenodd;stroke:#000000;stroke-width:4;stroke-linecap:butt;stroke-linejoin:miter;stroke-miterlimit:4;stroke-dasharray:none;stroke-dashoffset:0;stroke-opacity:1;color-rendering:auto;image-rendering:auto;shape-rendering:auto;text-rendering:auto;enable-background:accumulate" />
      <path
         inkscape:connector-curvature="0"
         id="path4235-4-01"
         d="m 365.81172,376.97569 -5.00537,8.24202 7.63152,4.63459"
         style="color:#000000;clip-rule:nonzero;display:inline;overflow:visible;visibility:visible;opacity:1;isolation:auto;mix-blend-mode:normal;color-interpolation:sRGB;color-interpolation-filters:linearRGB;solid-color:#000000;solid-opacity:1;fill:none;fill-opacity:1;fill-rule:evenodd;stroke:#000000;stroke-width:4;stroke-linecap:butt;stroke-linejoin:miter;stroke-miterlimit:4;stroke-dasharray:none;stroke-dashoffset:0;stroke-opacity:1;color-rendering:auto;image-rendering:auto;shape-rendering:auto;text-rendering:auto;enable-background:accumulate" />
      <path
         inkscape:transform-center-y="-3.8374994"
         inkscape:transform-center-x="-10.895579"
         inkscape:connector-curvature="0"
         id="path4235-4-80"
         d="m 383.56482,318.2389 -3.8972,8.82023 8.1669,3.60851"
         style="color:#000000;clip-rule:nonzero;display:inline;overflow:visible;visibility:visible;opacity:1;isolation:auto;mix-blend-mode:normal;color-interpolation:sRGB;color-interpolation-filters:linearRGB;solid-color:#000000;solid-opacity:1;fill:none;fill-opacity:1;fill-rule:evenodd;stroke:#000000;stroke-width:4;stroke-linecap:butt;stroke-linejoin:miter;stroke-miterlimit:4;stroke-dasharray:none;stroke-dashoffset:0;stroke-opacity:1;color-rendering:auto;image-rendering:auto;shape-rendering:auto;text-rendering:auto;enable-background:accumulate" />
      <path
         inkscape:connector-curvature="0"
         id="path4235-4-70"
         d="m 470.62907,315.48227 -9.55176,-1.32228 -1.22431,8.84425"
         style="color:#000000;clip-rule:nonzero;display:inline;overflow:visible;visibility:visible;opacity:1;isolation:auto;mix-blend-mode:normal;color-interpolation:sRGB;color-interpolation-filters:linearRGB;solid-color:#000000;solid-opacity:1;fill:none;fill-opacity:1;fill-rule:evenodd;stroke:#000000;stroke-width:4;stroke-linecap:butt;stroke-linejoin:miter;stroke-miterlimit:4;stroke-dasharray:none;stroke-dashoffset:0;stroke-opacity:1;color-rendering:auto;image-rendering:auto;shape-rendering:auto;text-rendering:auto;enable-background:accumulate" />
      <path
         inkscape:connector-curvature="0"
         id="path4235-4-72"
         d="m 378.00784,257.89573 0.0652,9.64263 8.92838,-0.0604"
         style="color:#000000;clip-rule:nonzero;display:inline;overflow:visible;visibility:visible;opacity:1;isolation:auto;mix-blend-mode:normal;color-interpolation:sRGB;color-interpolation-filters:linearRGB;solid-color:#000000;solid-opacity:1;fill:none;fill-opacity:1;fill-rule:evenodd;stroke:#000000;stroke-width:4;stroke-linecap:butt;stroke-linejoin:miter;stroke-miterlimit:4;stroke-dasharray:none;stroke-dashoffset:0;stroke-opacity:1;color-rendering:auto;image-rendering:auto;shape-rendering:auto;text-rendering:auto;enable-background:accumulate" />
      <path
         inkscape:connector-curvature="0"
         id="path4235-4-71"
         d="m 289.61195,291.21615 4.02442,8.76292 8.11381,-3.72633"
         style="color:#000000;clip-rule:nonzero;display:inline;overflow:visible;visibility:visible;opacity:1;isolation:auto;mix-blend-mode:normal;color-interpolation:sRGB;color-interpolation-filters:linearRGB;solid-color:#000000;solid-opacity:1;fill:none;fill-opacity:1;fill-rule:evenodd;stroke:#000000;stroke-width:4;stroke-linecap:butt;stroke-linejoin:miter;stroke-miterlimit:4;stroke-dasharray:none;stroke-dashoffset:0;stroke-opacity:1;color-rendering:auto;image-rendering:auto;shape-rendering:auto;text-rendering:auto;enable-background:accumulate" />
      <path
         inkscape:connector-curvature="0"
         id="path4235-4-08"
         d="m 398.28353,189.08109 -5.77139,-7.725 -7.15279,5.34389"
         style="color:#000000;clip-rule:nonzero;display:inline;overflow:visible;visibility:visible;opacity:1;isolation:auto;mix-blend-mode:normal;color-interpolation:sRGB;color-interpolation-filters:linearRGB;solid-color:#000000;solid-opacity:1;fill:none;fill-opacity:1;fill-rule:evenodd;stroke:#000000;stroke-width:4;stroke-linecap:butt;stroke-linejoin:miter;stroke-miterlimit:4;stroke-dasharray:none;stroke-dashoffset:0;stroke-opacity:1;color-rendering:auto;image-rendering:auto;shape-rendering:auto;text-rendering:auto;enable-background:accumulate" />
      <path
         inkscape:connector-curvature="0"
         id="path4235-4-302"
         d="m 342.88119,183.78829 9.38218,2.22693 2.06195,-8.68722"
         style="color:#000000;clip-rule:nonzero;display:inline;overflow:visible;visibility:visible;opacity:1;isolation:auto;mix-blend-mode:normal;color-interpolation:sRGB;color-interpolation-filters:linearRGB;solid-color:#000000;solid-opacity:1;fill:none;fill-opacity:1;fill-rule:evenodd;stroke:#000000;stroke-width:4;stroke-linecap:butt;stroke-linejoin:miter;stroke-miterlimit:4;stroke-dasharray:none;stroke-dashoffset:0;stroke-opacity:1;color-rendering:auto;image-rendering:auto;shape-rendering:auto;text-rendering:auto;enable-background:accumulate" />
      <path
         inkscape:connector-curvature="0"
         d="M 51.779922,145.47908 H 316.74849 c 26.98124,0 39.08316,14.40355 45.20478,25.80294 13.02393,24.25255 17.44665,62.89445 -5.30111,73.87884 -8.92978,3.48486 -35.72152,1.23721 -39.06247,5.93472 -6.48798,10.20951 9.28706,23.21884 8.46906,35.28775 -0.40965,6.0441 -3.64452,11.64282 -6.58704,16.93814 -4.57074,8.22542 -13.14083,13.97429 -16.93813,22.58416 -6.11936,13.87485 -3.43188,30.39452 -8.46906,44.69782 -9.74196,27.66277 -38.25692,48.4744 -41.40431,77.63308 -0.68202,6.31846 3.36322,12.25832 5.17554,18.34963 4.63974,15.59443 13.9819,30.32102 14.58561,46.57984 0.35855,9.65618 -9.48297,19.01152 -6.58705,28.2302 1.26472,4.02601 5.24795,7.77263 9.41007,8.46907 5.54494,0.92782 12.5741,-1.80271 15.52661,-6.58705 3.879,-6.28567 0.0975,-14.88324 -1.41151,-22.11366 -2.72661,-13.06419 -10.47456,-24.67655 -13.6446,-37.64028 -3.68281,-15.06069 -8.13224,-30.73651 -6.11654,-46.10933 2.18485,-16.66283 12.01506,-31.43094 19.29064,-46.57985 4.64942,-9.68083 12.68749,-17.87285 15.52662,-28.23021 1.28597,-4.69133 -1.66351,-10.21429 0.47049,-14.5856 2.68687,-5.50375 10.81479,-6.60329 14.11511,-11.76259 3.58756,-5.60833 2.19182,-13.33906 5.17554,-19.29063 2.95293,-5.89017 8.50808,-10.09172 12.23308,-15.52663 5.0485,-7.3659 8.08859,-16.06365 13.6446,-23.05467 2.96775,-3.73426 7.9869,-5.73774 10.35109,-9.88056 3.43175,-6.01355 1.1298,-14.3023 4.70502,-20.23167 3.21497,-5.33187 11.42921,-6.61607 14.11512,-12.23308 11.94091,-24.97192 -11.17264,-8.10975 3.82701,-59.77313 4.66931,-16.08251 20.8379,-30.78725 56.16357,-30.78725 h 260.08324 m -646.578858,18.75 H 312.06389 c 19.24786,-0.34985 25.19695,19.31251 27.22166,32.41964 1.18376,8.17982 1.60974,19.32367 -5,24.28572 -9.55094,7.17007 -26.8602,-10.87185 -35.71428,-2.85714 -9.00413,8.15054 3.93761,25.2096 -0.71429,36.42858 -3.41835,8.24399 -15.07354,11.07514 -18.57143,19.2857 -7.19098,16.87932 1.4795,37.0139 -2.14285,55 -9.37736,46.56151 -36.89044,87.77718 -50,133.42856 -6.92098,24.10094 -7.66406,49.7364 -15,73.71428 -3.09171,10.10542 -10.33046,18.87451 -12.14286,29.28571 -2.53465,14.5602 4.60811,29.71361 2.14286,44.28571 -7.32342,43.28878 -41.67511,78.90364 -49.28572,122.14286 -2.354,13.37419 5.13526,27.65017 1.42858,40.71428 -1.17163,4.12934 -3.43687,8.54872 -7.14285,10.71429 -16.4919,9.63691 -48.379668,-12.68659 -57.142858,4.28571 -12.14709,23.52615 -9.20036,74.55048 17.142858,90.00001 6.4947,3.80895 13.92861,-6.4795 21.42857,-7.14286 19.65502,-1.73849 38.84279,8.92279 58.57142,8.57142 19.84464,-0.35344 38.82296,-8.73129 58.57142,-10.71429 12.32128,-1.23721 24.8893,-2.50173 37.14286,-0.71428 11.62355,1.69557 21.82951,11.04474 33.57143,10.71429 8.66337,-0.24382 15.62197,-9.51547 24.28572,-9.28571 4.68828,0.12432 8.87845,8.19734 12.85714,5.71427 22.03138,-13.74959 17.81553,-56.62791 2.85714,-77.85713 -11.36366,-16.12751 -44.40715,-2.2138 -56.42858,-17.85715 -9.44015,-12.28437 1.76337,-31.43644 -2.14285,-46.42856 -1.61082,-6.18236 -10.03927,-10.925 -8.57143,-17.14286 1.64109,-6.95178 14.20596,-6.34599 17.14286,-12.85714 2.45524,-5.44329 -4.84439,-12.95921 -1.42857,-17.85715 3.5359,-5.07011 11.81446,-6.3018 17.85714,-5 11.23511,2.42043 15.61022,18.26348 26.42857,22.14286 25.55079,9.16234 56.18212,-10.68464 81.42856,-0.71428 6.42209,2.53622 12.11632,8.01195 15,14.28571 7.66699,16.68039 9.1437,37.75188 2.85716,55 -1.67293,4.58994 -5.87506,8.09682 -10.00001,10.71428 -11.82537,7.50371 -34.72723,-0.11757 -39.99999,12.85714 -8.25257,20.3071 -18.88033,60.04862 -2.14286,81.42857 6.1608,7.86963 19.73462,9.37197 29.28571,6.42857 5.63352,-1.7361 9.25713,-7.71678 12.14285,-12.85713 6.64456,-11.83598 -1.13691,-32.66837 10.7143,-39.28573 3.68371,-2.05686 10.10414,-0.12235 12.14284,3.57144 7.17481,12.99948 -20.68907,30.71519 -12.14284,42.85714 6.04386,8.58676 20.93412,1.78551 31.42855,2.14287 14.27744,0.48616 28.57397,-0.26941 42.85715,-10e-6 25.25157,0.47627 50.50948,4.46525 75.71429,2.85713 10.11737,-0.64549 20.77432,-0.79707 29.99999,-4.99999 11.23557,-5.11857 24.00382,-12.10083 28.57142,-23.57143 8.6092,-21.62024 8.7574,-53.75295 -8.57141,-69.28571 -12.76651,-11.44336 -37.85438,9.75831 -51.42858,-0.71428 -19.75787,-15.24333 4.16253,-65.9055 -20,-72.14286 -16.79133,-4.33454 -29.71598,21.15292 -36.42857,37.14286 -4.79326,11.41793 7.0543,27.49952 -0.71428,37.14285 -3.22441,4.00254 -10.9362,6.71829 -15,3.57143 -9.79092,-7.58174 -3.74929,-25.1373 -0.71429,-37.14286 4.62512,-18.29565 14.71763,-35.74039 27.85714,-49.28571 6.39702,-6.59459 20.54119,-5.6123 23.57143,-14.28571 5.44121,-15.5743 -13.02074,-30.45441 -17.14285,-46.42857 -7.10118,-27.51878 -3.08045,-57.60003 -12.85715,-84.28571 -7.97901,-21.77884 -30.31524,-36.91142 -36.42857,-59.28571 -3.57756,-13.09358 9.56559,-30.42376 0.71429,-40.71429 -7.04862,-8.19473 -23.68582,2.44596 -32.14285,-4.28571 -6.3665,-5.06763 -14.28997,-17.06822 -8.57143,-22.85713 6.40444,-6.48328 16.76206,10.99089 25.71428,9.28571 5.30266,-1.01002 10.94038,-5.45193 12.14285,-10.71429 4.37368,-19.14049 -18.97072,-35.04037 -22.85713,-54.28571 -3.06344,-15.16997 4.04611,-31.49065 0,-46.42856 -4.68683,-17.30335 -22.0968,-29.22657 -27.14287,-46.42858 -4.82956,-16.46399 5.45662,-36.0456 -2.14284,-51.42857 -2.47094,-5.0017 -7.61161,-8.81514 -12.85715,-10.71429 -10.52209,-3.80952 -27.56171,9.43981 -33.57143,0 -5.61993,-8.82756 -13.37557,-23.75488 -2.31678,-40.06788 3.4036,-5.02068 16.52497,-14.49462 55.92618,-14.49462 h 231.33111"
         style="color:#000000;clip-rule:nonzero;display:inline;overflow:visible;visibility:visible;opacity:1;isolation:auto;mix-blend-mode:normal;color-interpolation:sRGB;color-interpolation-filters:linearRGB;solid-color:#000000;solid-opacity:1;fill:none;fill-opacity:1;fill-rule:evenodd;stroke:#000000;stroke-width:3.99999976;stroke-linecap:butt;stroke-linejoin:miter;stroke-miterlimit:4;stroke-dasharray:none;stroke-dashoffset:0;stroke-opacity:1;color-rendering:auto;image-rendering:auto;shape-rendering:auto;text-rendering:auto;enable-background:accumulate"
         id="path7616" />
    </g>
  </g>
</svg>
