<?xml version="1.0" encoding="UTF-8" standalone="no"?>
<!-- Created with Inkscape (http://www.inkscape.org/) -->

<svg
   xmlns:dc="http://purl.org/dc/elements/1.1/"
   xmlns:cc="http://creativecommons.org/ns#"
   xmlns:rdf="http://www.w3.org/1999/02/22-rdf-syntax-ns#"
   xmlns:svg="http://www.w3.org/2000/svg"
   xmlns="http://www.w3.org/2000/svg"
   xmlns:sodipodi="http://sodipodi.sourceforge.net/DTD/sodipodi-0.dtd"
   xmlns:inkscape="http://www.inkscape.org/namespaces/inkscape"
   width="534.71161"
   height="800"
   viewBox="0 0 501.29214 750"
   id="svg2"
   version="1.1"
   inkscape:version="0.92.3 (2405546, 2018-03-11)"
   sodipodi:docname="f.svg"
   inkscape:export-filename="C:\Users\zvi\Documents\Mazesplace\Mazes\Alphabet Maze Set\F\F (s).png"
   inkscape:export-xdpi="100"
   inkscape:export-ydpi="100">
  <defs
     id="defs4">
    <inkscape:path-effect
       effect="spiro"
       id="path-effect4691"
       is_visible="true" />
    <inkscape:path-effect
       effect="spiro"
       id="path-effect4687"
       is_visible="true" />
    <inkscape:path-effect
       effect="spiro"
       id="path-effect4683"
       is_visible="true" />
    <inkscape:path-effect
       effect="spiro"
       id="path-effect4679"
       is_visible="true" />
    <inkscape:path-effect
       effect="spiro"
       id="path-effect4671"
       is_visible="true" />
    <inkscape:path-effect
       effect="spiro"
       id="path-effect4667"
       is_visible="true" />
    <inkscape:path-effect
       effect="spiro"
       id="path-effect4663"
       is_visible="true" />
    <inkscape:path-effect
       effect="spiro"
       id="path-effect4659"
       is_visible="true" />
    <inkscape:path-effect
       effect="spiro"
       id="path-effect4655"
       is_visible="true" />
    <inkscape:path-effect
       effect="spiro"
       id="path-effect4651"
       is_visible="true" />
    <inkscape:path-effect
       effect="spiro"
       id="path-effect4647"
       is_visible="true" />
    <inkscape:path-effect
       effect="spiro"
       id="path-effect4686"
       is_visible="true" />
    <inkscape:path-effect
       effect="spiro"
       id="path-effect4682"
       is_visible="true" />
    <inkscape:path-effect
       effect="spiro"
       id="path-effect4678"
       is_visible="true" />
    <inkscape:path-effect
       effect="spiro"
       id="path-effect4674"
       is_visible="true" />
    <inkscape:path-effect
       effect="spiro"
       id="path-effect4670"
       is_visible="true" />
    <inkscape:path-effect
       effect="spiro"
       id="path-effect4666"
       is_visible="true" />
    <inkscape:path-effect
       effect="spiro"
       id="path-effect4662"
       is_visible="true" />
    <inkscape:path-effect
       effect="spiro"
       id="path-effect4658"
       is_visible="true" />
    <inkscape:path-effect
       effect="spiro"
       id="path-effect4654"
       is_visible="true" />
    <inkscape:path-effect
       effect="spiro"
       id="path-effect4650"
       is_visible="true" />
    <inkscape:path-effect
       effect="spiro"
       id="path-effect4646"
       is_visible="true" />
    <inkscape:path-effect
       effect="spiro"
       id="path-effect4642"
       is_visible="true" />
    <inkscape:path-effect
       effect="spiro"
       id="path-effect4638"
       is_visible="true" />
    <inkscape:path-effect
       effect="spiro"
       id="path-effect4634"
       is_visible="true" />
    <inkscape:path-effect
       effect="spiro"
       id="path-effect4630"
       is_visible="true" />
    <inkscape:path-effect
       effect="spiro"
       id="path-effect4626"
       is_visible="true" />
    <inkscape:path-effect
       effect="spiro"
       id="path-effect4622"
       is_visible="true" />
    <inkscape:path-effect
       effect="spiro"
       id="path-effect4618"
       is_visible="true" />
    <inkscape:path-effect
       effect="spiro"
       id="path-effect4614"
       is_visible="true" />
    <inkscape:path-effect
       effect="spiro"
       id="path-effect4872"
       is_visible="true" />
    <inkscape:path-effect
       effect="spiro"
       id="path-effect4661"
       is_visible="true" />
    <inkscape:path-effect
       effect="spiro"
       id="path-effect4657"
       is_visible="true" />
    <inkscape:path-effect
       effect="spiro"
       id="path-effect4653"
       is_visible="true" />
    <inkscape:path-effect
       effect="spiro"
       id="path-effect4649"
       is_visible="true" />
    <inkscape:path-effect
       effect="spiro"
       id="path-effect4645"
       is_visible="true" />
    <inkscape:path-effect
       effect="spiro"
       id="path-effect4641"
       is_visible="true" />
    <inkscape:path-effect
       effect="spiro"
       id="path-effect4633"
       is_visible="true" />
    <inkscape:path-effect
       effect="spiro"
       id="path-effect4629"
       is_visible="true" />
    <inkscape:path-effect
       effect="spiro"
       id="path-effect4625"
       is_visible="true" />
    <inkscape:path-effect
       effect="spiro"
       id="path-effect4621"
       is_visible="true" />
    <inkscape:path-effect
       effect="spiro"
       id="path-effect4617"
       is_visible="true" />
    <inkscape:path-effect
       effect="spiro"
       id="path-effect4613"
       is_visible="true" />
    <inkscape:path-effect
       effect="spiro"
       id="path-effect4605"
       is_visible="true" />
    <inkscape:path-effect
       effect="spiro"
       id="path-effect4601"
       is_visible="true" />
    <inkscape:path-effect
       effect="spiro"
       id="path-effect4597"
       is_visible="true" />
    <inkscape:path-effect
       effect="spiro"
       id="path-effect4821"
       is_visible="true" />
    <inkscape:path-effect
       effect="spiro"
       id="path-effect4640"
       is_visible="true" />
    <inkscape:path-effect
       effect="spiro"
       id="path-effect4636"
       is_visible="true" />
    <inkscape:path-effect
       effect="spiro"
       id="path-effect4632"
       is_visible="true" />
    <inkscape:path-effect
       effect="spiro"
       id="path-effect4628"
       is_visible="true" />
    <inkscape:path-effect
       effect="spiro"
       id="path-effect4624"
       is_visible="true" />
    <inkscape:path-effect
       effect="spiro"
       id="path-effect4620"
       is_visible="true" />
    <inkscape:path-effect
       effect="spiro"
       id="path-effect4616"
       is_visible="true" />
    <inkscape:path-effect
       effect="spiro"
       id="path-effect4612"
       is_visible="true" />
    <inkscape:path-effect
       effect="spiro"
       id="path-effect4608"
       is_visible="true" />
    <inkscape:path-effect
       effect="spiro"
       id="path-effect4604"
       is_visible="true" />
    <inkscape:path-effect
       effect="spiro"
       id="path-effect4600"
       is_visible="true" />
    <inkscape:path-effect
       effect="spiro"
       id="path-effect4596"
       is_visible="true" />
    <inkscape:path-effect
       effect="spiro"
       id="path-effect4592"
       is_visible="true" />
    <inkscape:path-effect
       effect="spiro"
       id="path-effect4588"
       is_visible="true" />
    <inkscape:path-effect
       effect="spiro"
       id="path-effect4584"
       is_visible="true" />
    <inkscape:path-effect
       effect="spiro"
       id="path-effect4580"
       is_visible="true" />
    <inkscape:path-effect
       effect="spiro"
       id="path-effect4576"
       is_visible="true" />
    <inkscape:path-effect
       effect="spiro"
       id="path-effect4572"
       is_visible="true" />
    <inkscape:path-effect
       effect="spiro"
       id="path-effect4568"
       is_visible="true" />
    <inkscape:path-effect
       effect="spiro"
       id="path-effect4564"
       is_visible="true" />
    <inkscape:path-effect
       effect="spiro"
       id="path-effect4813"
       is_visible="true" />
    <inkscape:path-effect
       effect="spiro"
       id="path-effect4635"
       is_visible="true" />
    <inkscape:path-effect
       effect="spiro"
       id="path-effect4631"
       is_visible="true" />
    <inkscape:path-effect
       effect="spiro"
       id="path-effect4627"
       is_visible="true" />
    <inkscape:path-effect
       effect="spiro"
       id="path-effect4623"
       is_visible="true" />
    <inkscape:path-effect
       effect="spiro"
       id="path-effect4619"
       is_visible="true" />
    <inkscape:path-effect
       effect="spiro"
       id="path-effect4615"
       is_visible="true" />
    <inkscape:path-effect
       effect="spiro"
       id="path-effect4611"
       is_visible="true" />
    <inkscape:path-effect
       effect="spiro"
       id="path-effect4607"
       is_visible="true" />
    <inkscape:path-effect
       effect="spiro"
       id="path-effect4595"
       is_visible="true" />
    <inkscape:path-effect
       effect="spiro"
       id="path-effect4591"
       is_visible="true" />
    <inkscape:path-effect
       effect="spiro"
       id="path-effect4587"
       is_visible="true" />
    <inkscape:path-effect
       effect="spiro"
       id="path-effect4583"
       is_visible="true" />
    <inkscape:path-effect
       effect="spiro"
       id="path-effect4579"
       is_visible="true" />
    <inkscape:path-effect
       effect="spiro"
       id="path-effect4574"
       is_visible="true" />
    <clipPath
       clipPathUnits="userSpaceOnUse"
       id="clipPath4150">
      <rect
         style="opacity:1;fill:#000000;fill-opacity:1;fill-rule:evenodd;stroke:none;stroke-width:4;stroke-linecap:round;stroke-linejoin:round;stroke-miterlimit:4;stroke-dasharray:none;stroke-dashoffset:2.4000001;stroke-opacity:1"
         id="rect4152"
         width="694.28571"
         height="822.85712"
         x="-62.857143"
         y="75.21933"
         transform="rotate(90)" />
    </clipPath>
    <clipPath
       clipPathUnits="userSpaceOnUse"
       id="clipPath4194">
      <rect
         style="opacity:1;fill:#000000;fill-opacity:1;fill-rule:evenodd;stroke:none;stroke-width:4;stroke-linecap:round;stroke-linejoin:round;stroke-miterlimit:4;stroke-dasharray:none;stroke-dashoffset:2.4000001;stroke-opacity:1"
         id="rect4196"
         width="652.55853"
         height="800.04083"
         x="54.548237"
         y="98.778214"
         transform="rotate(90)" />
    </clipPath>
    <clipPath
       clipPathUnits="userSpaceOnUse"
       id="clipPath8848">
      <rect
         style="opacity:1;fill:#b0c836;fill-opacity:1;fill-rule:evenodd;stroke:none;stroke-width:4;stroke-linecap:round;stroke-linejoin:round;stroke-miterlimit:4;stroke-dasharray:none;stroke-dashoffset:2.4000001;stroke-opacity:1"
         id="rect8850"
         width="256.66153"
         height="167.81715"
         x="541.52765"
         y="194.94344" />
    </clipPath>
    <filter
       style="color-interpolation-filters:sRGB"
       inkscape:label="Lightness-Contrast"
       id="filter4634">
      <feColorMatrix
         values="2.406 0 0 0.213727 -0.703 0 2.406 0 0.213727 -0.703 0 0 2.406 0.213727 -0.703 0 0 0 1 0"
         id="feColorMatrix4632" />
    </filter>
    <clipPath
       clipPathUnits="userSpaceOnUse"
       id="clipPath4638">
      <rect
         style="opacity:1;fill:none;fill-opacity:1;fill-rule:evenodd;stroke:#000000;stroke-width:18.33501053;stroke-linecap:square;stroke-linejoin:miter;stroke-miterlimit:4;stroke-dasharray:none;stroke-dashoffset:0;stroke-opacity:1;paint-order:normal"
         id="rect4640"
         width="521.82104"
         height="760.14319"
         x="125.31806"
         y="139.22516"
         transform="scale(-1)" />
    </clipPath>
    <clipPath
       clipPathUnits="userSpaceOnUse"
       id="clipPath962">
      <rect
         style="fill:#000000;fill-opacity:0.53266332;stroke:none;stroke-width:4.48228312;stroke-linecap:round;stroke-linejoin:miter;stroke-miterlimit:4;stroke-dasharray:none;stroke-dashoffset:0;stroke-opacity:1;paint-order:normal"
         id="rect964"
         width="501.29221"
         height="750"
         x="116.23548"
         y="132.25256" />
    </clipPath>
  </defs>
  <sodipodi:namedview
     id="base"
     pagecolor="#ffffff"
     bordercolor="#666666"
     borderopacity="1.0"
     inkscape:pageopacity="0.0"
     inkscape:pageshadow="2"
     inkscape:zoom="0.70737053"
     inkscape:cx="62.154297"
     inkscape:cy="393.60398"
     inkscape:document-units="px"
     inkscape:current-layer="layer2"
     showgrid="false"
     units="px"
     inkscape:window-width="1536"
     inkscape:window-height="801"
     inkscape:window-x="-8"
     inkscape:window-y="-8"
     inkscape:window-maximized="1"
     fit-margin-top="0"
     fit-margin-left="15"
     fit-margin-right="15"
     fit-margin-bottom="0"
     inkscape:snap-global="true"
     borderlayer="true"
     inkscape:snap-page="true" />
  <metadata
     id="metadata7">
    <rdf:RDF>
      <cc:Work
         rdf:about="">
        <dc:format>image/svg+xml</dc:format>
        <dc:type
           rdf:resource="http://purl.org/dc/dcmitype/StillImage" />
        <dc:title></dc:title>
      </cc:Work>
    </rdf:RDF>
  </metadata>
  <g
     inkscape:groupmode="layer"
     id="layer2"
     inkscape:label="Layer 2"
     style="display:inline"
     transform="translate(-116.23548,-132.25256)">
    <g
       id="g958"
       clip-path="url(#clipPath962)">
      <path
         sodipodi:nodetypes="cccccccccccccc"
         inkscape:connector-curvature="0"
         id="path4642"
         d="M 160.75013,188.50256 H 132.29814 V 880.25244 H 308.56715 V 653.62086 H 541.82539 V 481.32785 H 303.26583 V 360.72274 H 601.46498 V 188.50256 H 569.8163 m -24.36591,0 H 185.11604"
         style="opacity:1;vector-effect:none;fill:none;fill-opacity:1;stroke:#000000;stroke-width:4.00031233;stroke-linecap:butt;stroke-linejoin:miter;stroke-miterlimit:4;stroke-dasharray:none;stroke-dashoffset:0;stroke-opacity:1" />
      <path
         sodipodi:nodetypes="ccsssssssscssccssssccsscsssssssscscsssssscccsssssccccsssccccsccccssccssscscsccssssssccsssscsssssccccsssssssscsssccssscccc"
         inkscape:original-d="m 111.84162,155.69006 h 27.17736 c 0,0 7.96672,-1.03419 13.12011,7.4011 5.15339,8.43529 -0.78002,62.78814 -2.34287,74.97204 -1.56286,12.18389 9.9972,42.48322 14.9944,63.72623 4.9972,21.24302 6.56099,17.80492 9.84008,26.70878 3.27909,8.90387 18.74395,25.61452 28.11452,38.42318 9.37056,12.80866 3.74954,26.86404 5.6229,40.29746 1.87336,13.43343 11.24674,34.67364 16.86871,52.01186 5.62196,17.33821 -2.18575,12.80678 -3.28003,19.21158 -1.09428,6.4048 -6.55912,-4.68669 -9.84008,-7.02863 -3.28096,-2.34193 -12.4944,-39.36126 -18.74301,-59.04048 -6.24861,-19.67922 -19.9916,-41.86032 -29.98881,-62.78907 -9.99721,-20.92876 -2.49813,-15.30774 -3.7486,-22.96019 -1.25048,-7.65246 -7.18389,1.2486 -10.77724,1.87429 -3.59334,0.62571 1.87524,35.29841 2.81146,52.94901 0.93621,17.6506 -0.93622,54.97855 -1.40573,82.46924 -0.46951,27.49068 7.18576,81.21877 10.77723,121.82956 3.59147,40.61079 -8.12103,28.73834 -12.18296,43.10892 -4.06192,14.37058 -2.81051,17.80492 -4.21717,26.70879 -1.40667,8.90387 10.62197,9.37057 15.93156,14.05725 5.30958,4.68669 17.49441,-28.11545 26.24021,-42.17177 8.7458,-14.05631 4.99907,-30.61451 7.4972,-45.92037 2.49813,-15.30585 9.37244,2.49814 14.05726,3.7486 4.68481,1.25048 -8.43342,33.4241 -12.65153,50.13755 -4.21812,16.71346 -4.06005,13.74394 -6.09148,20.61731 -2.03143,6.87338 -19.99161,19.99161 -29.98881,29.98882 -9.99721,9.99721 -11.55726,44.98228 -17.33729,67.47483 -5.78003,22.49255 3.12477,28.11358 4.68575,42.17177 1.56098,14.05819 -6.24673,16.86777 -9.3715,25.30306 -3.12477,8.43529 4.68669,12.4944 7.02863,18.74301 2.34194,6.24861 4.06192,18.74207 6.09148,28.11452 2.02955,9.37244 9.68482,-8.12291 14.52583,-12.18296 4.841,-4.06005 7.49814,-33.73835 11.2458,-50.60612 3.74767,-16.86777 13.74581,-3.74954 20.61731,-5.62291 6.8715,-1.87336 -9.99533,27.17643 -14.9944,40.76604 -4.99908,13.58963 13.74581,14.36871 20.61731,21.55447 6.87149,7.18576 46.85845,-0.31332 70.28628,-0.46857 23.42782,-0.15526 11.24674,-33.11359 16.86871,-49.66898 5.62196,-16.55539 -18.1173,-25.61639 -27.17737,-38.42317 -9.06006,-12.80679 -0.62382,-15.9325 -0.93714,-23.89734 -0.31332,-7.96484 5.31145,-3.43716 7.96578,-5.15433 2.65431,-1.71717 4.3743,8.74581 6.56005,13.12011 2.18574,4.37431 1.87523,14.05632 2.81145,21.08588 0.93621,7.02958 11.8715,-7.18576 17.80585,-10.77722 5.93436,-3.59147 -5.93435,-34.36312 -8.90292,-51.54328 -2.96858,-17.18015 -15.93062,-25.61638 -23.89734,-38.42316 -7.96672,-12.8068 8.12291,-25.92878 12.18296,-38.89175 4.06005,-12.96298 5.62384,-7.81053 8.43435,-11.71438 2.81051,-3.90385 2.81239,5.30958 4.21717,7.96578 1.40479,2.6562 0.62571,10.30772 0.93716,15.46298 0.31144,5.15527 6.2486,-5.62384 9.3715,-8.43436 3.1229,-2.81051 11.55913,-3.74953 17.33728,-5.6229 5.77816,-1.87336 29.98975,3.43528 44.98323,5.15433 14.99347,1.71905 25.61638,-8.74767 38.42317,-13.12011 12.80678,-4.37243 2.81238,-23.74208 4.21717,-35.61171 1.40479,-11.86964 6.87338,-7.18576 10.30866,-10.77723 3.43528,-3.59148 8.12291,12.4944 12.18295,18.74301 4.06005,6.2486 -2.81051,19.05445 -4.21717,28.58309 -1.40667,9.52862 15.62011,7.80864 23.42876,11.71438 7.80865,3.90573 39.04887,-7.49815 58.57191,-11.24581 19.52302,-3.74767 12.80865,-1.87524 19.21157,-2.81145 6.40293,-0.93622 2.81239,-14.37058 4.21719,-21.55446 1.40479,-7.18388 -4.68482,-21.86779 -7.02864,-32.80026 -2.34381,-10.93249 6.24861,-22.49256 9.37151,-33.73742 3.12289,-11.24488 -7.18388,-29.0526 -10.77723,-43.5775 -3.59335,-14.52489 -25.30212,3.43528 -37.9546,5.15433 -12.65246,1.71904 -16.55538,10.62009 -24.83448,15.93156 -8.2791,5.31145 -15.61824,-11.24675 -23.42877,-16.86871 -7.81051,-5.62196 -31.86217,2.18574 -47.79467,3.28002 -15.93249,1.09428 -8.12103,22.80306 -12.18295,34.20599 -4.06192,11.40294 -4.68482,5.62197 -7.02863,8.43436 -2.34381,2.81239 -4.68481,-3.43716 -7.02863,-5.15433 -2.34381,-1.71717 6.87338,-21.24302 10.30866,-31.86311 3.43528,-10.6201 -11.86964,-10.30959 -17.80586,-15.46299 -5.93623,-5.15339 -39.35939,0.62384 -59.04048,0.93716 -19.6811,0.31331 -8.43342,-6.56099 -12.65153,-9.84009 -4.21812,-3.27908 4.68669,-5.93622 7.02863,-8.90293 2.34194,-2.9667 0.31332,-36.23742 0.46857,-54.35472 0.15526,-18.11731 4.06192,-23.4297 6.09148,-35.14314 2.02956,-11.71345 -8.43341,-20.93064 -12.65153,-31.39455 -4.21812,-10.4639 20.93063,-9.06005 31.39454,-13.58867 10.46391,-4.52863 26.24115,4.06004 39.36032,6.09147 13.11916,2.03143 6.2486,-9.37244 9.3715,-14.05725 3.1229,-4.68482 -10.93248,-5.31146 -16.40013,-7.96578 -5.46765,-2.65433 -8.43342,-14.37058 -12.65153,-21.55447 -4.21812,-7.18388 17.8068,-5.62383 26.70879,-8.43435 8.90198,-2.81051 13.43343,23.11544 20.14873,34.67457 6.7153,11.55913 18.43156,13.11917 27.64594,19.68016 9.21438,6.56099 35.30027,-14.37058 52.949,-21.55446 17.64873,-7.18388 21.86778,11.24486 32.80026,16.86871 10.93249,5.62384 42.79748,-19.36872 64.19481,-29.05167 21.39733,-9.68295 -10.93248,-17.18203 -16.40013,-25.77163 -5.46765,-8.58961 16.55726,-5.93623 24.83449,-8.90294 8.27722,-2.96671 16.55726,-17.18203 24.83449,-25.77164 8.27722,-8.58961 -7.80866,-77.15965 -14.99442,-89.96643 -7.18576,-12.80679 21.25004,-9.27541 21.25004,-9.27541 h 34.97899 m 4.18816,-18.75 c 0,2.2851 -53.38856,0 -53.38856,0 0,0 -23.42782,20.06913 -35.14314,28.96255 -11.71532,8.89343 -4.06005,23.74021 -6.09148,35.61172 -2.03143,11.87151 -16.86777,7.80865 -25.30306,11.71438 -8.43529,3.90573 -29.98788,-2.5 -44.98322,-3.7486 -14.99534,-1.2486 -35.92316,-3.74954 -53.88615,-5.6229 -17.96299,-1.87337 -12.80679,0.62383 -19.21159,0.93715 -6.40479,0.31332 7.81053,7.18388 11.71439,10.77723 3.90385,3.59334 9.9972,13.74393 14.9944,20.61731 4.9972,6.87337 -12.80678,1.24859 -19.21158,1.8743 -6.4048,0.6257 -21.86591,-20.61825 -32.80027,-30.92597 -10.93436,-10.30771 -35.29839,6.24674 -52.949,9.37151 -17.6506,3.12477 -25.30212,-5.62384 -37.95459,-8.43436 -12.65247,-2.81051 -18.42969,-2.81239 -27.64594,-4.21717 -9.21625,-1.40479 -3.1229,18.74207 -4.68575,28.11451 -1.56286,9.37244 -14.05632,16.243 -21.08589,24.36591 -7.02956,8.12291 6.24861,-21.5554 9.37151,-32.33169 3.12289,-10.77629 -11.24487,-12.49628 -16.86871,-18.74301 -5.62384,-6.24673 -18.74207,1.56098 -28.11451,2.34288 -9.37245,0.78189 -1.87337,-24.83543 -3.28003,-32.33169 -1.40667,-7.49627 -37.72031,-38.33406 -37.72031,-38.33406 h -34.44028"
         inkscape:path-effect="#path-effect4647"
         inkscape:connector-curvature="0"
         id="path4644"
         d="m 111.84162,155.69006 h 27.17736 c 4.97441,1.10225 9.60394,3.71379 13.12011,7.4011 4.50426,4.72349 7.08685,11.06377 8.00186,17.52616 0.91501,6.46238 0.24957,13.06332 -1.09777,19.44959 -2.69468,12.77253 -8.10156,24.99295 -9.24696,37.99629 -0.96507,10.95613 1.15662,21.97493 4.31386,32.51059 3.15723,10.53566 7.34858,20.73393 10.68054,31.21564 2.88043,9.06128 5.15973,18.43243 9.84008,26.70878 3.92011,6.93199 9.38275,12.83855 14.62668,18.83197 5.24393,5.99341 10.38861,12.25537 13.48784,19.59121 5.30357,12.5535 4.0751,26.7578 5.6229,40.29746 2.07907,18.18704 9.24297,35.37037 16.86871,52.01186 1.58694,3.46314 3.23204,7.07643 3.11247,10.88398 -0.0598,1.90378 -0.5866,3.82031 -1.69004,5.37284 -1.10344,1.55253 -2.8136,2.70956 -4.70246,2.95476 -1.06194,0.13785 -2.15255,-0.0102 -3.16144,-0.36915 -1.00888,-0.359 -1.93772,-0.92509 -2.76019,-1.61085 -1.64494,-1.37152 -2.84878,-3.19318 -3.91845,-5.04863 -5.17361,-8.97419 -7.69372,-19.19812 -9.95052,-29.30798 -2.25679,-10.10985 -4.34903,-20.37525 -8.79249,-29.7325 -5.07803,-10.69356 -13.00087,-19.73211 -19.51794,-29.61474 -3.25854,-4.94131 -6.18795,-10.14019 -8.16148,-15.72049 -1.97352,-5.58031 -2.96925,-11.57173 -2.30939,-17.45384 0.46642,-4.15774 1.7493,-8.2306 1.7398,-12.41441 -0.005,-2.09191 -0.34485,-4.20876 -1.23488,-6.10189 -0.89002,-1.89314 -2.36144,-3.55163 -4.25352,-4.44389 -1.73362,-0.81754 -3.74558,-0.95705 -5.62209,-0.56654 -1.87651,0.3905 -3.62321,1.28889 -5.15515,2.44083 -3.81124,2.86586 -6.29377,7.28173 -7.33973,11.93411 -1.04596,4.65239 -0.73651,9.53209 0.30177,14.18619 2.07656,9.30821 6.95837,17.74044 9.84942,26.82871 4.19713,13.19401 4.07824,27.37404 2.76153,41.15679 -1.31672,13.78274 -3.78961,27.4721 -4.16726,41.31245 -0.55778,20.44205 3.45989,40.6921 6.9476,60.84215 3.48772,20.15005 6.46689,40.70852 3.82963,60.98741 -1.9304,14.84354 -6.82438,29.13241 -12.18296,43.10892 -1.64451,4.2893 -3.34243,8.58321 -4.31696,13.0724 -0.97454,4.48919 -1.1991,9.2301 0.0998,13.63639 1.05709,3.58602 3.12399,6.87307 5.91999,9.35488 2.796,2.4818 6.31451,4.14675 10.01157,4.70237 4.81572,0.72375 9.8392,-0.45322 14.00686,-2.97226 4.16766,-2.51903 7.49153,-6.32775 9.72027,-10.65761 4.45747,-8.65972 4.49514,-19.00612 2.51308,-28.5419 -1.75823,-8.45894 -5.0227,-16.71114 -5.08197,-25.35068 -0.0296,-4.31976 0.78373,-8.7114 2.87609,-12.49073 2.09236,-3.77932 5.54794,-6.89742 9.70308,-8.07896 2.44682,-0.69577 5.08238,-0.70772 7.53909,-0.0477 2.45671,0.65998 4.72846,1.98859 6.51817,3.79634 3.26547,3.2984 4.79657,8.05996 4.76992,12.7013 -0.0266,4.64134 -1.49455,9.17856 -3.54889,13.34058 -4.10867,8.32404 -10.56811,15.4209 -13.87256,24.09567 -2.55441,6.7058 -3.11162,14.08943 -6.09148,20.61731 -2.9603,6.48502 -8.12378,11.7025 -13.59019,16.27822 -5.4664,4.57572 -11.35429,8.67338 -16.39862,13.7106 -8.56955,8.55748 -14.44171,19.6698 -17.26217,31.44744 -2.82047,11.77763 -2.64453,24.19245 -0.0751,36.02739 1.52368,7.01821 3.87165,13.84252 5.26129,20.88849 1.38964,7.04598 1.77994,14.49884 -0.57554,21.28328 -1.49536,4.30705 -4.02974,8.1624 -6.10794,12.22046 -2.0782,4.05807 -3.73923,8.54822 -3.26356,13.0826 0.3498,3.33451 1.82769,6.4335 3.33791,9.42692 1.51022,2.99341 3.09579,6.01649 3.69072,9.31609 0.91557,5.07792 -0.59854,10.25426 -0.7194,15.41265 -0.0604,2.57919 0.24428,5.21484 1.32859,7.55582 0.54215,1.17049 1.27753,2.25693 2.20457,3.1539 0.92705,0.89697 2.04839,1.60137 3.27772,1.99215 1.68481,0.53557 3.53646,0.46508 5.21795,-0.0808 1.68149,-0.5459 3.19548,-1.55205 4.44284,-2.80484 2.49473,-2.5056 3.88763,-5.8993 4.86504,-9.29729 2.41133,-8.383 2.64271,-17.20913 3.5718,-25.88242 0.92909,-8.67329 2.69012,-17.56478 7.674,-24.7237 2.31618,-3.327 5.40511,-6.26846 9.23152,-7.60719 1.91321,-0.66936 3.98609,-0.91919 5.98913,-0.60893 2.00304,0.31026 3.9303,1.19385 5.39666,2.59321 1.42121,1.35627 2.37898,3.16511 2.82563,5.07818 0.44665,1.91307 0.39504,3.9258 -0.0244,5.84502 -0.83879,3.83845 -3.09031,7.22112 -5.61979,10.22763 -2.52947,3.0065 -5.38149,5.74209 -7.74088,8.88384 -2.35938,3.14175 -4.24179,6.80709 -4.435,10.73137 -0.13098,2.66031 0.53031,5.33267 1.7332,7.70911 1.20288,2.37644 2.93472,4.46414 4.93481,6.22314 4.00017,3.51799 8.98329,5.69444 13.9493,7.62222 11.36178,4.41059 23.24946,7.83697 35.42646,8.35091 12.177,0.51395 24.72266,-2.05329 34.85982,-8.81948 7.86435,-5.24918 14.09733,-12.9915 17.2402,-21.90914 3.14288,-8.91764 3.11757,-18.97187 -0.37149,-27.75984 -2.90636,-7.32031 -8.014,-13.5232 -13.16607,-19.48055 -5.15207,-5.95735 -10.49312,-11.8959 -14.0113,-18.94262 -1.85602,-3.71749 -3.18393,-7.74111 -3.4859,-11.88518 -0.30196,-4.14408 0.46326,-8.41838 2.54876,-12.01216 0.83875,-1.44535 1.90004,-2.78754 3.26035,-3.75814 1.36032,-0.97061 3.04123,-1.54772 4.70543,-1.39619 1.36636,0.12441 2.66899,0.73605 3.70279,1.63809 1.03381,0.90203 1.80529,2.08417 2.30711,3.36111 1.00364,2.55388 0.93373,5.40384 0.55015,8.12091 -0.52781,3.7387 -1.62102,7.41708 -1.64373,11.19279 -0.0113,1.88785 0.2532,3.79557 0.96757,5.54308 0.71436,1.74751 1.8989,3.33015 3.48761,4.35001 1.67945,1.07811 3.75197,1.48136 5.73507,1.25739 1.98311,-0.22398 3.87435,-1.05258 5.47809,-2.24039 3.20747,-2.37564 5.19551,-6.05532 6.59269,-9.79422 3.18118,-8.51294 3.77695,-17.91638 2.09497,-26.84728 -1.68198,-8.9309 -5.59922,-17.38543 -10.99789,-24.696 -4.56429,-6.1807 -10.14875,-11.54183 -14.86276,-17.60911 -4.71402,-6.06728 -8.63196,-13.14126 -9.03458,-20.81405 -0.35878,-6.83729 2.09427,-13.49562 4.88757,-19.7466 2.79329,-6.25097 5.99712,-12.42267 7.29539,-19.14515 0.51241,-2.6533 0.73903,-5.42332 1.96263,-7.83274 0.61181,-1.20472 1.47921,-2.30123 2.6093,-3.04186 1.1301,-0.74062 2.5368,-1.10125 3.86242,-0.83978 0.81632,0.16101 1.58182,0.55144 2.21405,1.09235 0.63224,0.5409 1.13258,1.22942 1.48326,1.98396 0.70136,1.50908 0.79524,3.24832 0.51986,4.88947 -0.48117,2.86753 -2.025,5.47231 -2.51349,8.3386 -0.24424,1.43315 -0.20979,2.947 0.34752,4.28974 0.27866,0.67138 0.68686,1.29234 1.21605,1.79068 0.52919,0.49835 1.18092,0.87153 1.88708,1.04396 1.09459,0.26728 2.27405,0.0388 3.27015,-0.48781 0.99611,-0.52664 1.82194,-1.33367 2.50552,-2.22937 1.36716,-1.7914 2.2026,-3.94598 3.59583,-5.71718 1.94979,-2.47876 4.886,-4.04266 7.93983,-4.83009 3.05384,-0.78742 6.24441,-0.85845 9.39745,-0.79281 15.09754,0.31431 29.95787,3.64667 44.98323,5.15433 7.15973,0.71841 14.49114,1.00971 21.45665,-0.79571 3.48276,-0.90271 6.84659,-2.33306 9.79791,-4.39078 2.95131,-2.05772 5.48257,-4.7553 7.16861,-7.93362 2.82561,-5.3265 3.13159,-11.60117 3.05334,-17.63023 -0.0783,-6.02906 -0.46569,-12.17628 1.16383,-17.98148 0.71286,-2.53959 1.82769,-5.00543 3.56093,-6.9938 1.73324,-1.98836 4.1287,-3.46978 6.74773,-3.78343 2.15207,-0.25773 4.37049,0.28638 6.22989,1.40015 1.85939,1.11376 3.36427,2.7777 4.40578,4.67851 2.08304,3.80161 2.28685,8.39301 1.54728,12.66435 -0.83703,4.83422 -2.79154,9.39553 -4.09548,14.12523 -0.65197,2.36485 -1.14303,4.7864 -1.23858,7.23762 -0.0956,2.45121 0.21389,4.93941 1.11689,7.22024 1.71286,4.32637 5.48768,7.62947 9.76037,9.47215 4.27269,1.84268 9.01644,2.34576 13.66839,2.24223 9.97249,-0.22195 19.66769,-3.10746 29.2481,-5.88516 9.58041,-2.7777 19.34973,-5.49312 29.32381,-5.36065 3.30707,0.0439 6.61429,0.40196 9.91586,0.20635 3.30157,-0.19562 6.67618,-0.99872 9.29571,-3.0178 1.53505,-1.18319 2.75806,-2.74946 3.62646,-4.48215 0.8684,-1.73268 1.38824,-3.62929 1.62784,-5.55255 0.47918,-3.84651 -0.15048,-7.74628 -1.03711,-11.51976 -2.56777,-10.92837 -7.33197,-21.57838 -7.02864,-32.80026 0.31666,-11.71485 6.10833,-22.48178 9.37151,-33.73742 2.23548,-7.71079 3.29024,-15.90935 1.77865,-23.79407 -1.51158,-7.88471 -5.80681,-15.4356 -12.55588,-19.78343 -5.75513,-3.70751 -12.97111,-4.8648 -19.72382,-3.73871 -6.7527,1.12609 -13.0399,4.42964 -18.23078,8.89304 -3.84089,3.3026 -7.11773,7.22841 -11.03576,10.4391 -1.95901,1.60535 -4.08356,3.03136 -6.40851,4.03609 -2.32495,1.00473 -4.86043,1.57917 -7.39021,1.45637 -2.46154,-0.11949 -4.86422,-0.8958 -7.04135,-2.0506 -2.17713,-1.1548 -4.13948,-2.68127 -5.95272,-4.35029 -3.62647,-3.33804 -6.69054,-7.26235 -10.4347,-10.46782 -6.77092,-5.79676 -15.76849,-9.01265 -24.66743,-8.506 -8.89894,0.50664 -17.57774,4.811 -23.12724,11.78602 -3.79843,4.77415 -6.07397,10.58371 -7.72635,16.45655 -1.65238,5.87285 -2.73555,11.89635 -4.4566,17.74944 -0.5484,1.86504 -1.17632,3.74207 -2.29454,5.33225 -0.55911,0.7951 -1.23934,1.51124 -2.04099,2.06091 -0.80165,0.54967 -1.72755,0.92946 -2.6931,1.0412 -1.55921,0.18043 -3.15947,-0.35807 -4.39343,-1.32813 -1.23397,-0.97005 -2.11531,-2.34519 -2.6352,-3.8262 -0.95225,-2.71267 -0.71734,-5.73475 0.16052,-8.4724 0.87787,-2.73765 2.36266,-5.23695 3.91375,-7.65759 1.55109,-2.42064 3.1875,-4.80149 4.41484,-7.4013 1.22734,-2.5998 2.03803,-5.46518 1.81955,-8.33182 -0.16038,-2.10433 -0.87626,-4.15195 -1.97553,-5.95349 -1.09927,-1.80153 -2.57541,-3.36058 -4.25317,-4.64084 -3.35551,-2.56051 -7.45053,-3.98172 -11.57716,-4.86866 -9.65416,-2.07498 -19.67007,-1.41846 -29.49682,-0.44716 -9.82675,0.97131 -19.70694,2.24886 -29.54366,1.38432 -2.99007,-0.26279 -6.05897,-0.75752 -8.60413,-2.34865 -1.27259,-0.79556 -2.39047,-1.86383 -3.13919,-3.16452 -0.74871,-1.3007 -1.11314,-2.84018 -0.90821,-4.32692 0.26368,-1.91297 1.42609,-3.59062 2.77541,-4.97204 1.34933,-1.38142 2.91035,-2.5432 4.25322,-3.93089 3.26749,-3.37653 5.08978,-7.96965 5.7102,-12.62717 0.62041,-4.65753 0.11081,-9.39952 -0.79547,-14.00995 -1.81257,-9.22086 -5.22493,-18.3526 -4.44616,-27.7176 0.4975,-5.98269 2.68668,-11.67068 4.41687,-17.4193 1.73019,-5.74861 3.01833,-11.87281 1.67461,-17.72384 -1.28517,-5.59611 -4.82957,-10.34855 -7.8488,-15.23244 -1.50962,-2.44195 -2.91217,-4.97129 -3.8454,-7.68627 -0.93323,-2.71498 -1.38425,-5.63686 -0.95733,-8.47584 0.47754,-3.17558 2.05438,-6.14491 4.27476,-8.46489 2.22037,-2.31998 5.0628,-4.00447 8.1033,-5.03779 6.081,-2.06662 12.76076,-1.54047 19.01648,-0.086 6.56481,1.52634 12.86507,4.03273 19.40062,5.67982 6.53556,1.6471 13.52161,2.406 19.9597,0.41165 3.03936,-0.94151 5.96777,-2.55096 7.90597,-5.07436 0.9691,-1.2617 1.67229,-2.73877 1.95653,-4.3041 0.28424,-1.56533 0.13948,-3.21813 -0.491,-4.67879 -0.62544,-1.44897 -1.70848,-2.67336 -2.98183,-3.6057 -1.27335,-0.93235 -2.73347,-1.58518 -4.2346,-2.0723 -3.00227,-0.97425 -6.18416,-1.30519 -9.1837,-2.28778 -4.38518,-1.4365 -8.33321,-4.33109 -10.75809,-8.25707 -2.42489,-3.92597 -3.23653,-8.88271 -1.89344,-13.2974 0.78356,-2.57555 2.27059,-4.92632 4.22577,-6.77691 1.95518,-1.85059 4.37119,-3.20142 6.95721,-3.94971 5.17203,-1.49659 10.9272,-0.50817 15.52581,2.29227 5.80891,3.53749 9.62586,9.59912 12.37458,15.8202 2.74873,6.22107 4.64733,12.81448 7.77415,18.85437 2.73238,5.27797 6.43057,10.11965 11.16305,13.71501 4.73247,3.59535 10.54003,5.89257 16.48289,5.96515 4.84033,0.0591 9.60977,-1.33646 13.99687,-3.38234 4.38711,-2.04587 8.43951,-4.73275 12.47376,-7.40804 4.03425,-2.67529 8.08809,-5.36032 12.47715,-7.40199 4.38907,-2.04167 9.16101,-3.43048 14.00122,-3.36209 6.25678,0.0884 12.25899,2.59979 17.5848,5.88474 5.32581,3.28496 10.1197,7.35239 15.21546,10.98397 6.89962,4.91713 14.44193,9.06986 22.60756,11.32939 8.16562,2.25953 17.00487,2.54715 25.05094,-0.10684 8.04607,-2.65399 15.20277,-8.42162 18.69048,-16.14295 1.74386,-3.86066 2.5555,-8.15449 2.21928,-12.37737 -0.33621,-4.22288 -1.8334,-8.36364 -4.37345,-11.7539 -3.24218,-4.32739 -7.98251,-7.26417 -11.74319,-11.14944 -1.88035,-1.94263 -3.53333,-4.15925 -4.48219,-6.69089 -0.94886,-2.53163 -1.14642,-5.40833 -0.17475,-7.9313 0.83569,-2.16989 2.4909,-3.96744 4.45089,-5.21855 1.95998,-1.2511 4.21426,-1.98476 6.5004,-2.40944 4.57229,-0.84936 9.29705,-0.50393 13.8832,-1.27495 6.28231,-1.05618 12.16682,-4.25225 16.55881,-8.86671 4.392,-4.61447 7.28362,-10.61218 8.27568,-16.90493 1.23569,-7.83812 -0.42619,-15.88925 -3.20909,-23.32016 -2.78291,-7.43092 -6.66336,-14.39195 -10.08441,-21.55153 -3.42105,-7.15957 -6.42115,-14.65696 -7.25981,-22.54745 -0.83865,-7.89048 0.68597,-16.28488 5.55889,-22.54729 4.94827,-6.35925 13.22247,-9.97085 21.25004,-9.27541 h 34.97899 m 4.18816,-18.75 h -53.38856 c -8.19683,0.12047 -16.32387,3.10541 -22.65007,8.31903 -6.3262,5.21361 -10.80882,12.62069 -12.49307,20.64352 -1.25177,5.96273 -0.99098,12.12255 -1.31974,18.20637 -0.32876,6.08383 -1.34214,12.36959 -4.77174,17.40535 -2.71011,3.97932 -6.78598,6.90993 -11.23344,8.75377 -4.44746,1.84384 -9.26483,2.65456 -14.06962,2.96061 -15.03628,0.95775 -29.94103,-2.88862 -44.98322,-3.7486 -9.08877,-0.51962 -18.20674,0.0534 -27.30554,-0.24246 -9.0988,-0.29583 -18.34019,-1.51117 -26.58061,-5.38044 -3.37056,-1.58264 -6.64343,-3.62726 -10.34035,-4.07249 -1.84846,-0.22261 -3.7819,-0.0151 -5.44193,0.82791 -0.83002,0.4215 -1.58403,0.99899 -2.18266,1.71189 -0.59864,0.7129 -1.03952,1.56227 -1.24665,2.46984 -0.32753,1.43511 -0.0554,2.97295 0.61717,4.2823 0.67262,1.30935 1.72628,2.39936 2.93095,3.24527 2.40934,1.69184 5.34415,2.4113 8.16627,3.24966 4.72497,1.40364 9.50129,3.34732 12.81166,6.99931 1.65518,1.82599 2.89504,4.06325 3.35521,6.48443 0.46018,2.42119 0.10422,5.0255 -1.17247,7.13357 -0.92726,1.53109 -2.31329,2.76656 -3.9018,3.5916 -1.58851,0.82504 -3.37366,1.24656 -5.16258,1.30865 -3.57782,0.12417 -7.08648,-1.16901 -10.1472,-3.02595 -6.48557,-3.93479 -11.11541,-10.22411 -15.82306,-16.17249 -4.70764,-5.94838 -9.94156,-11.91715 -16.97721,-14.75348 -4.24012,-1.70935 -8.91602,-2.1651 -13.47275,-1.79538 -4.55673,0.36972 -9.01468,1.54037 -13.35113,2.98801 -8.67291,2.89528 -17.066,6.9402 -26.12512,8.17888 -13.04365,1.7835 -26.22747,-2.4517 -37.95459,-8.43436 -4.38475,-2.23691 -8.698,-4.74639 -13.45926,-5.99544 -2.38063,-0.62452 -4.86367,-0.9231 -7.31305,-0.68235 -2.44938,0.24074 -4.86641,1.03636 -6.87363,2.46062 -2.0522,1.45618 -3.62476,3.53376 -4.65637,5.82892 -1.03161,2.29517 -1.53864,4.80355 -1.68578,7.31559 -0.29429,5.02408 0.81865,10.00752 1.6564,14.97 0.6166,3.65249 1.08773,7.35611 0.87188,11.05398 -0.21585,3.69788 -1.15127,7.41401 -3.1643,10.52344 -2.01304,3.10943 -5.17941,5.56158 -8.81739,6.25869 -1.81899,0.34855 -3.72924,0.25405 -5.48546,-0.33409 -1.75622,-0.58814 -3.35142,-1.67582 -4.49062,-3.13611 -1.82413,-2.33827 -2.37774,-5.49451 -1.97807,-8.43309 0.39968,-2.93858 1.67209,-5.69261 3.19158,-8.2394 1.51949,-2.54679 3.29676,-4.93172 4.83614,-7.46653 1.53938,-2.53482 2.85328,-5.26429 3.32186,-8.19267 0.75462,-4.71596 -0.84709,-9.71735 -4.08245,-13.23049 -3.23537,-3.51314 -8.01031,-5.50997 -12.78626,-5.51252 -4.82271,-0.003 -9.41104,1.89152 -14.07248,3.12826 -2.33072,0.61837 -4.72373,1.07781 -7.1349,1.04825 -2.41118,-0.0296 -4.85334,-0.57007 -6.90713,-1.83363 -2.4604,-1.51371 -4.23577,-3.99896 -5.21165,-6.71788 -0.97587,-2.71893 -1.1966,-5.66375 -1.00443,-8.5461 0.38433,-5.7647 2.36805,-11.3182 2.93605,-17.06771 1.00483,-10.17127 -2.71719,-20.71242 -9.88582,-27.99768 -7.16862,-7.28527 -17.64833,-11.17693 -27.83449,-10.33638 h -34.44028"
         style="opacity:1;vector-effect:none;fill:none;fill-opacity:1;stroke:#000000;stroke-width:4.00031233;stroke-linecap:butt;stroke-linejoin:miter;stroke-miterlimit:4;stroke-dasharray:none;stroke-dashoffset:0;stroke-opacity:1" />
      <path
         inkscape:original-d="m 200.87091,279.76639 c 4.37244,-3.27908 0.31333,-2.81239 0.46858,-4.21717 0.15525,-1.40479 -3.74766,-15.62011 -5.6229,-23.42877 -1.87524,-7.80864 8.43529,-6.87337 12.65153,-10.30865 4.21624,-3.43528 -13.11917,-11.24674 -19.68016,-16.86871 -6.56099,-5.62196 -8.7458,2.49813 -13.12011,3.7486 -4.3743,1.25048 9.4e-4,14.68109 0,22.02304 -9.4e-4,7.34195 8.12291,25.92689 12.18296,38.89175 4.06005,12.96484 8.74767,-6.561 13.1201,-9.84009 z"
         inkscape:path-effect="#path-effect4651"
         inkscape:connector-curvature="0"
         id="path4649"
         d="m 200.87091,279.76639 c 0.37079,-1.37131 0.55232,-2.79909 0.46858,-4.21717 -0.12248,-2.07417 -0.80667,-4.07864 -1.67508,-5.96625 -0.8684,-1.88761 -1.92389,-3.68291 -2.84751,-5.54413 -0.92362,-1.86122 -1.72169,-3.81194 -2.02672,-5.86721 -0.30504,-2.05528 -0.0856,-4.2365 0.92641,-6.05118 0.67106,-1.20332 1.66323,-2.20364 2.76148,-3.03559 1.09824,-0.83196 2.30604,-1.50616 3.5123,-2.17191 1.20627,-0.66574 2.41945,-1.32845 3.53266,-2.14027 1.11321,-0.81182 2.13066,-1.78279 2.84509,-2.96088 0.68484,-1.1293 1.07505,-2.4303 1.16387,-3.74803 0.0888,-1.31774 -0.12068,-2.65069 -0.57257,-3.8917 -0.90379,-2.48203 -2.76156,-4.55215 -4.9818,-5.98317 -2.22023,-1.43103 -4.78884,-2.25612 -7.39278,-2.69973 -2.60394,-0.44361 -5.25556,-0.51904 -7.89688,-0.54608 -2.34591,-0.024 -4.71328,-0.008 -7.00515,0.49272 -2.29187,0.5012 -4.52857,1.52752 -6.11496,3.25588 -1.29434,1.41018 -2.09729,3.22812 -2.46411,5.10679 -0.36683,1.87866 -0.31446,3.82018 -0.0469,5.71553 0.53515,3.79069 1.91484,7.41914 2.511,11.20072 1.16257,7.37442 -0.7025,14.91204 -0.14282,22.35652 0.27983,3.72225 1.20261,7.47162 3.25959,10.58646 1.02848,1.55742 2.33496,2.94009 3.88002,3.98705 1.54507,1.04696 3.33157,1.7524 5.18617,1.96172 2.95872,0.33393 6.00836,-0.63198 8.35269,-2.46764 2.34433,-1.83566 3.99024,-4.49816 4.76741,-7.37245 z"
         style="opacity:1;vector-effect:none;fill:none;fill-opacity:1;stroke:#000000;stroke-width:4.00031233;stroke-linecap:butt;stroke-linejoin:miter;stroke-miterlimit:4;stroke-dasharray:none;stroke-dashoffset:0;stroke-opacity:1" />
      <path
         inkscape:original-d="m 247.72844,493.90528 c 0.78002,20.93062 -8.12104,6.24673 -12.18296,9.3715 -4.06192,3.12477 9.06006,2.81051 13.58868,4.21718 4.52862,1.40666 7.18576,-14.37059 10.77723,-21.55447 3.59148,-7.18388 4.06193,-30.61451 6.09148,-45.92037 2.02956,-15.30585 -9.37056,-9.06006 -14.05726,-13.58868 -4.68668,-4.52862 -6.8715,-24.67923 -10.30865,-37.01744 -3.43716,-12.33821 -11.24487,-29.36499 -16.86871,-44.04608 -5.62384,-14.68108 -14.68108,-13.12104 -22.02303,-19.68016 -7.34195,-6.55911 0.31332,3.43528 0.46857,5.15433 0.15525,1.71905 9.06006,10.6201 13.58868,15.93156 4.52863,5.31146 7.81053,32.17457 11.71438,48.26325 3.90386,16.08869 11.24675,24.05259 16.86871,36.0803 5.62196,12.02769 1.56286,41.85844 2.34288,62.78908 z"
         inkscape:path-effect="#path-effect4655"
         inkscape:connector-curvature="0"
         id="path4653"
         d="m 247.72844,493.90528 c -2.47817,1.13176 -5.17883,1.75966 -7.56577,3.07296 -1.19346,0.65666 -2.3062,1.49013 -3.15322,2.55695 -0.84701,1.06683 -1.41677,2.38022 -1.46397,3.74159 -0.0511,1.47414 0.52286,2.94442 1.49395,4.05468 0.9711,1.11026 2.32032,1.86512 3.75652,2.20135 1.43619,0.33623 2.95413,0.26452 4.37915,-0.11629 1.42503,-0.3808 2.75952,-1.06417 3.95906,-1.92256 3.33126,-2.38385 5.55555,-6.03754 7.08111,-9.83921 1.52556,-3.80167 2.43545,-7.81773 3.69612,-11.71526 2.47772,-7.66024 6.30818,-14.85619 8.40113,-22.63038 1.04647,-3.88709 1.64999,-7.925 1.38481,-11.94175 -0.26517,-4.01675 -1.42988,-8.02014 -3.69446,-11.34824 -1.8383,-2.70162 -4.33329,-4.88129 -6.85087,-6.96454 -2.51757,-2.08325 -5.10589,-4.12094 -7.20639,-6.62414 -4.1689,-4.96816 -6.12702,-11.42356 -7.24884,-17.81135 -1.12181,-6.38779 -1.51404,-12.90745 -3.05981,-19.20609 -1.87859,-7.65479 -5.40938,-14.78379 -8.79891,-21.89968 -3.38954,-7.1159 -6.69443,-14.38539 -8.0698,-22.1464 -0.61439,-3.46692 -0.83583,-6.99452 -1.45496,-10.46059 -0.61913,-3.46608 -1.67197,-6.93449 -3.75376,-9.77406 -1.0409,-1.41978 -2.33408,-2.66557 -3.84422,-3.57041 -1.51013,-0.90484 -3.24094,-1.46145 -5.00073,-1.51043 -1.75979,-0.049 -3.54462,0.4223 -4.99979,1.41311 -1.45518,0.99082 -2.56175,2.50964 -2.96957,4.22222 -0.4053,1.702 -0.12045,3.50687 0.46857,5.15433 1.18517,3.31487 3.53512,6.08114 6.05515,8.53926 2.52004,2.45813 5.26623,4.69929 7.53353,7.3923 5.40968,6.42543 7.68217,14.92306 8.77921,23.25056 1.09704,8.3275 1.17804,16.79909 2.93517,25.01269 2.79288,13.05518 9.67458,24.83386 16.86871,36.0803 6.451,10.08471 13.39707,20.33816 15.47661,32.12766 1.03977,5.89476 0.78019,12.09944 -1.37646,17.68317 -2.15666,5.58373 -6.31245,10.49165 -11.75727,12.97825 z"
         style="opacity:1;vector-effect:none;fill:none;fill-opacity:1;stroke:#000000;stroke-width:4.00031233;stroke-linecap:butt;stroke-linejoin:miter;stroke-miterlimit:4;stroke-dasharray:none;stroke-dashoffset:0;stroke-opacity:1" />
      <path
         inkscape:original-d="m 249.60273,320.53244 c 2.65433,6.09241 4.37431,18.74207 6.56006,28.11451 2.18575,9.37244 0.6257,6.24674 0.93715,9.37151 0.31145,3.12477 4.99908,-1.87524 7.49721,-2.81145 2.49813,-0.93622 1.56285,-7.81053 2.34288,-11.71438 0.78001,-3.90386 -1.2486,-19.99349 -1.87431,-29.98882 -0.62571,-9.99533 4.99908,-20.30587 7.49721,-30.45739 2.49812,-10.15153 -9.37057,-3.12477 -14.05726,-4.68575 -4.68669,-1.56098 -18.42969,4.9972 -27.64594,7.4972 -9.21625,2.50001 7.18576,10.93249 10.77723,16.40013 3.59147,5.46765 5.31146,12.18203 7.96577,18.27444 z"
         inkscape:path-effect="#path-effect4659"
         inkscape:connector-curvature="0"
         id="path4657"
         d="m 249.60273,320.53244 c 1.65032,4.59516 3.74244,9.02947 5.21181,13.68564 1.46938,4.65617 2.30352,9.64071 1.34825,14.42887 -0.32751,1.6416 -0.86349,3.25599 -0.91775,4.92906 -0.0271,0.83653 0.07,1.68482 0.3664,2.46754 0.29644,0.78272 0.80065,1.49805 1.4885,1.97491 0.6139,0.4256 1.35856,0.64958 2.10517,0.67378 0.74661,0.0242 1.49406,-0.147 2.17381,-0.45677 1.35949,-0.61953 2.4188,-1.76634 3.21823,-3.02846 2.16653,-3.42045 2.58717,-7.67289 2.34288,-11.71438 -0.30491,-5.04443 -1.54515,-9.97947 -2.32421,-14.9727 -0.77905,-4.99323 -1.08141,-10.20007 0.4499,-15.01612 1.69127,-5.31911 5.46028,-9.70193 7.91647,-14.71395 1.22809,-2.50602 2.13485,-5.21872 2.20883,-8.0085 0.074,-2.78977 -0.75041,-5.67033 -2.62809,-7.73494 -1.69926,-1.86842 -4.11821,-2.94141 -6.57162,-3.54082 -2.4534,-0.59942 -4.98747,-0.77394 -7.48564,-1.14493 -5.36426,-0.79662 -10.68913,-2.50962 -16.08979,-2.01692 -2.70034,0.24635 -5.39397,1.07476 -7.56258,2.70252 -2.16861,1.62775 -3.76371,4.10982 -3.99357,6.8116 -0.14316,1.68268 0.2381,3.38474 0.93215,4.92428 0.69404,1.53955 1.69235,2.92619 2.80565,4.19603 2.22659,2.53966 4.92622,4.64506 7.03943,7.27982 4.18075,5.21259 5.7072,11.98566 7.96577,18.27444 z"
         style="opacity:1;vector-effect:none;fill:none;fill-opacity:1;stroke:#000000;stroke-width:4.00031233;stroke-linecap:butt;stroke-linejoin:miter;stroke-miterlimit:4;stroke-dasharray:none;stroke-dashoffset:0;stroke-opacity:1" />
      <path
         inkscape:original-d="m 423.44415,277.42352 c 8.43341,1.56285 10.93436,-8.43529 16.40013,-12.65153 5.46577,-4.21624 14.99535,2.49813 22.49162,3.7486 7.49626,1.25047 -7.49627,11.86963 -11.24581,17.80585 -3.74954,5.93623 -12.80679,12.18203 -19.21159,18.27444 -6.40479,6.09242 -23.42783,1.87337 -35.14314,2.81145 -11.71531,0.93809 -16.243,-21.5554 -24.36591,-32.33169 -8.12291,-10.77629 -28.73834,-4.68669 -43.10892,-7.02863 -14.37058,-2.34193 -12.4944,20.61637 -18.74301,30.92597 -6.24861,10.30959 -9.37057,7.49627 -14.05726,11.24581 -4.68668,3.74953 9.4e-4,-10.62198 0,-15.93157 -9.4e-4,-5.30958 -1.87336,-14.99534 -2.81145,-22.49161 -0.93809,-7.49626 -10.6201,-13.12104 -15.93156,-19.68016 -5.31146,-6.55911 3.12478,-6.2486 4.68575,-9.3715 1.56098,-3.1229 16.86965,1.87337 25.30307,2.81145 8.43341,0.93809 31.55167,-5.93622 47.3261,-8.90293 15.77442,-2.9667 11.55912,5.93435 17.33728,8.90293 5.77816,2.96858 17.18203,18.11731 25.77164,27.17737 8.58961,9.06005 16.86964,3.12289 25.30306,4.68575 z"
         inkscape:path-effect="#path-effect4663"
         inkscape:connector-curvature="0"
         id="path4661"
         d="m 423.44415,277.42352 c 3.19374,-1.34826 5.95085,-3.54651 8.53327,-5.85927 2.58243,-2.31276 5.04667,-4.77625 7.86686,-6.79226 3.66436,-2.61947 8.09611,-4.47339 12.58386,-4.08717 2.24388,0.19311 4.4558,0.95926 6.2524,2.31739 1.7966,1.35812 3.15672,3.3221 3.65536,5.51838 0.41037,1.80749 0.23471,3.72157 -0.34688,5.48145 -0.58159,1.75988 -1.55701,3.3724 -2.72196,4.81403 -2.32989,2.88327 -5.38049,5.07699 -8.17697,7.51037 -6.67533,5.80858 -12.02839,13.10712 -19.21159,18.27444 -5.06294,3.64209 -11.00742,6.14232 -17.21129,6.78277 -6.20388,0.64046 -12.65817,-0.64167 -17.93185,-3.97132 -5.75224,-3.6318 -9.79248,-9.40246 -13.26162,-15.25424 -3.46913,-5.85179 -6.57231,-12.00404 -11.10429,-17.07745 -5.28856,-5.92038 -12.50166,-10.17156 -20.31619,-11.56902 -7.81453,-1.39746 -16.18264,0.1442 -22.79273,4.54039 -5.12249,3.40683 -9.06664,8.37253 -12.00313,13.7784 -2.93648,5.40587 -4.9251,11.26939 -6.73988,17.14757 -1.04079,3.37119 -2.10416,6.89199 -4.52244,9.46106 -1.20914,1.28453 -2.75351,2.28958 -4.47405,2.6792 -1.72053,0.38961 -3.61848,0.12136 -5.06077,-0.89445 -1.17427,-0.82704 -1.99336,-2.10269 -2.40672,-3.47821 -0.41336,-1.37552 -0.44025,-2.84682 -0.23428,-4.26826 0.41194,-2.84288 1.71756,-5.465 2.641,-8.1851 1.26455,-3.72487 1.81798,-7.71311 1.40094,-11.62461 -0.41703,-3.91151 -1.82482,-7.74078 -4.21239,-10.867 -2.62431,-3.4362 -6.29035,-5.89561 -9.5023,-8.79006 -1.60598,-1.44723 -3.11587,-3.02394 -4.28657,-4.84138 -1.17071,-1.81743 -1.99423,-3.89197 -2.14269,-6.04872 -0.12584,-1.82803 0.24211,-3.68847 1.05976,-5.32828 0.81764,-1.63981 2.08342,-3.05429 3.62599,-4.04322 1.84448,-1.18248 4.0445,-1.74111 6.23387,-1.82496 2.18937,-0.0839 4.37555,0.28901 6.4918,0.85635 4.23249,1.1347 8.25681,3.04931 12.5774,3.78006 4.00303,0.67704 8.12765,0.30772 12.08831,-0.58437 3.96066,-0.89209 7.78463,-2.2971 11.59054,-3.71053 3.8059,-1.41342 7.61899,-2.84291 11.56766,-3.78665 3.94868,-0.94374 8.06024,-1.39363 12.07959,-0.82138 6.52666,0.92923 12.4285,4.5024 17.33728,8.90293 9.31586,8.35129 15.67137,19.79402 25.77164,27.17737 3.62209,2.64777 7.70855,4.73035 12.092,5.68722 4.38345,0.95687 9.07762,0.7435 13.21106,-1.00147 z"
         style="opacity:1;vector-effect:none;fill:none;fill-opacity:1;stroke:#000000;stroke-width:4.00031233;stroke-linecap:butt;stroke-linejoin:miter;stroke-miterlimit:4;stroke-dasharray:none;stroke-dashoffset:0;stroke-opacity:1" />
      <path
         inkscape:original-d="m 240.69981,610.11193 c 1.71717,-5.93435 -4.06005,-24.05447 -6.09148,-36.08029 -2.03143,-12.02583 -20.61637,-16.24488 -30.92596,-24.36591 -10.3096,-8.12104 -13.11917,-0.62571 -19.68016,-0.93716 -6.56099,-0.31144 -4.06005,-9.99721 -6.09148,-14.9944 -2.03143,-4.9972 1.25047,-19.6811 1.8743,-29.52025 0.62383,-9.83913 -6.55912,-25.61638 -9.84008,-38.42316 -3.28096,-12.80679 5.62384,-6.87338 8.43435,-10.30866 2.81052,-3.43528 0.62571,8.74581 0.93715,13.12011 0.31145,4.37431 13.43343,23.11544 20.14874,34.67457 6.71531,11.55912 14.68296,23.7402 22.02303,35.61172 7.34008,11.8715 19.05633,5.30957 28.5831,7.96578 9.52675,2.6562 10.62197,4.6848 15.93155,7.02862 5.30958,2.34382 -9.37056,18.74208 -14.05726,28.11452 -4.68668,9.37244 -3.12289,23.42782 -4.68574,35.14313 -1.56286,11.71532 -7.80866,7.18389 -11.71439,10.77724 -3.90573,3.59335 3.43716,-11.87151 5.15433,-17.80586 z"
         inkscape:path-effect="#path-effect4667"
         inkscape:connector-curvature="0"
         id="path4665"
         d="m 240.69981,610.11193 c 1.74315,-2.71442 2.73268,-5.8802 3.04502,-9.09098 0.31234,-3.21077 -0.0387,-6.46686 -0.83318,-9.59342 -1.58903,-6.25312 -4.89638,-11.9169 -8.30332,-17.39589 -3.61977,-5.82127 -7.45479,-11.61096 -12.52352,-16.22593 -5.06873,-4.61497 -11.54888,-8.00353 -18.40244,-8.13998 -3.34389,-0.0666 -6.65231,0.63241 -9.98797,0.87627 -1.66782,0.12194 -3.35196,0.12933 -5.00421,-0.12868 -1.65225,-0.258 -3.27619,-0.78844 -4.68798,-1.68475 -2.3791,-1.51044 -4.0319,-3.99215 -4.94671,-6.65761 -0.9148,-2.66547 -1.14566,-5.51871 -1.14477,-8.33679 0.003,-9.87468 2.75484,-19.68491 1.8743,-29.52025 -0.59111,-6.60254 -2.798,-12.93811 -4.971,-19.20077 -2.17299,-6.26267 -4.34736,-12.61401 -4.86908,-19.22239 -0.10778,-1.36522 -0.14391,-2.74321 0.0399,-4.10029 0.18379,-1.35707 0.59465,-2.69786 1.32918,-3.85369 0.73452,-1.15582 1.80789,-2.11861 3.09192,-2.59474 1.28403,-0.47613 2.7799,-0.43158 3.97336,0.24006 1.03198,0.58076 1.78468,1.59034 2.18758,2.70386 0.4029,1.11352 0.4762,2.32598 0.36177,3.50461 -0.22886,2.35726 -1.18017,4.58304 -1.6122,6.91164 -0.63223,3.40764 -0.12499,6.96659 1.09027,10.21234 1.21526,3.24575 3.11539,6.19934 5.27751,8.90803 4.32424,5.41738 9.72245,9.93499 13.78096,15.5542 4.12044,5.70496 6.7144,12.33776 9.74356,18.68983 3.02915,6.35207 6.67964,12.65968 12.27947,16.92189 3.99126,3.03788 8.78737,4.87813 13.67816,5.99124 4.89078,1.11311 9.90857,1.53278 14.90494,1.97454 3.01864,0.2669 6.07251,0.55052 8.93225,1.55317 2.85974,1.00265 5.5502,2.81396 6.9993,5.47545 1.33607,2.4539 1.497,5.43754 0.82275,8.14901 -0.67424,2.71148 -2.12824,5.17596 -3.85729,7.37074 -3.45811,4.38956 -8.06374,7.85439 -11.02272,12.59477 -3.16951,5.07766 -4.1842,11.21245 -4.42071,17.19346 -0.23651,5.98101 0.23603,11.985 -0.26503,17.94967 -0.13616,1.62081 -0.34567,3.24343 -0.80021,4.80515 -0.45454,1.56172 -1.16303,3.06718 -2.21643,4.3065 -1.05341,1.23932 -2.46843,2.20109 -4.05461,2.56114 -1.58617,0.36005 -3.34019,0.078 -4.64314,-0.89555 -0.69338,-0.51812 -1.24626,-1.21583 -1.62372,-1.99477 -0.37745,-0.77894 -0.58166,-1.63747 -0.63041,-2.50167 -0.0975,-1.7284 0.42242,-3.44876 1.2288,-4.98063 1.61276,-3.06374 4.30879,-5.41549 6.17966,-8.32879 z"
         style="opacity:1;vector-effect:none;fill:none;fill-opacity:1;stroke:#000000;stroke-width:4.00031233;stroke-linecap:butt;stroke-linejoin:miter;stroke-miterlimit:4;stroke-dasharray:none;stroke-dashoffset:0;stroke-opacity:1" />
      <path
         inkscape:original-d="m 200.87091,708.9813 c 7.18389,-11.08868 12.49628,-19.6811 18.74301,-29.52024 6.24674,-9.83914 8.12291,14.36871 12.18296,21.55446 4.06005,7.18576 -1.87337,20.30399 -2.81145,30.4574 -0.93809,10.15339 11.24674,-7.18576 16.86871,-10.77724 5.62196,-3.59147 4.68669,-26.86591 7.02863,-40.29746 2.34194,-13.43156 -18.74207,-10.93437 -28.11452,-16.40014 -9.37244,-5.46578 -23.74021,15.93062 -35.61172,23.89733 -11.87151,7.96672 -16.55538,16.55539 -24.83448,24.83449 -8.2791,8.2791 2.5,24.36498 3.7486,36.54887 1.2486,12.18389 9.4e-4,17.18016 0,25.77164 -9.4e-4,8.59149 8.12291,1.24859 12.18295,1.8743 4.06005,0.6257 19.05634,-0.62571 28.58309,-0.93715 9.52676,-0.31144 4.06193,25.61451 6.09148,38.42317 2.02956,12.80866 9.4e-4,15.93062 0,23.89734 -9.4e-4,7.96671 19.36871,1.87336 29.05166,2.81145 9.68295,0.93809 4.06193,-31.55167 6.09149,-47.3261 2.02955,-15.77443 -22.80306,-19.05633 -34.206,-28.58309 -11.40293,-9.52676 -1.56098,-5.62384 -2.34287,-8.43435 -0.7819,-2.81052 -10.30772,-9.4e-4 -15.46299,0 -5.15526,9.3e-4 -12.4944,-9.68483 -18.74301,-14.52583 -6.2486,-4.84101 14.37058,-22.18017 21.55446,-33.26885 z"
         inkscape:path-effect="#path-effect4671"
         inkscape:connector-curvature="0"
         id="path4669"
         d="m 200.87091,708.9813 c 2.86947,-5.48114 3.62532,-11.80913 5.84222,-17.58512 1.10845,-2.88799 2.61058,-5.67142 4.7745,-7.88198 2.16393,-2.21057 5.04205,-3.81513 8.12629,-4.05314 2.4425,-0.18849 4.92616,0.49299 6.99322,1.80775 2.06706,1.31477 3.71931,3.24465 4.80397,5.4412 2.16934,4.39311 2.01404,9.68446 0.38577,14.30551 -1.90758,5.41375 -5.67492,10.03766 -7.45017,15.49624 -0.88762,2.72928 -1.25084,5.69477 -0.5558,8.47933 0.34752,1.39228 0.9594,2.72463 1.84018,3.85753 0.88077,1.13289 2.03406,2.06209 3.35434,2.6243 1.69056,0.71989 3.61454,0.81792 5.40756,0.41624 1.79301,-0.40168 3.45812,-1.28567 4.89469,-2.43131 2.87314,-2.29129 4.79693,-5.54135 6.56646,-8.76217 3.39751,-6.184 6.49305,-12.61488 8.08513,-19.48875 1.59209,-6.87388 1.59902,-14.27166 -1.0565,-20.80871 -2.19848,-5.41197 -6.20814,-10.07596 -11.2477,-13.02987 -5.03956,-2.95391 -11.08087,-4.17371 -16.86682,-3.37027 -7.18627,0.99789 -13.63627,4.95595 -19.24748,9.55515 -5.6112,4.59919 -10.61565,9.91591 -16.36424,14.34218 -4.74047,3.65004 -9.95281,6.66756 -14.57373,10.46781 -4.62092,3.80025 -8.73107,8.58266 -10.26075,14.36668 -1.58045,5.97596 -0.25234,12.30117 1.27331,18.29135 1.52566,5.99019 3.26284,12.12648 2.47529,18.25752 -0.57864,4.50468 -2.49611,8.73626 -3.29734,13.20671 -0.40062,2.23523 -0.5164,4.54921 -0.0378,6.76904 0.4786,2.21984 1.58728,4.34617 3.33515,5.79589 1.63332,1.35471 3.73786,2.05386 5.84912,2.26728 2.11127,0.21341 4.24288,-0.0312 6.33383,-0.39298 4.8068,-0.83175 9.49942,-2.28246 14.33603,-2.91837 4.8366,-0.63591 9.98329,-0.38889 14.24706,1.98122 3.07424,1.70889 5.51633,4.44958 7.11785,7.58109 1.60152,3.13151 2.38946,6.64083 2.57051,10.15345 0.36212,7.02523 -1.6354,13.93307 -3.59688,20.68863 -1.14696,3.95027 -2.29498,7.9388 -2.57703,12.04253 -0.28204,4.10373 0.3657,8.38636 2.57703,11.85481 1.45751,2.28609 3.55508,4.14355 5.95352,5.40767 2.39844,1.26413 5.0904,1.94207 7.79852,2.07091 5.41625,0.2577 10.78068,-1.67025 15.29962,-4.66713 7.5965,-5.03787 13.07834,-13.29233 14.37366,-22.31503 1.29533,-9.0227 -1.75057,-18.65299 -8.28217,-25.01107 -5.48596,-5.34021 -12.87537,-8.14039 -19.56007,-11.87245 -3.34235,-1.86603 -6.56934,-4.01201 -9.22273,-6.77117 -2.65338,-2.75915 -4.71767,-6.17707 -5.4232,-9.93947 -0.27309,-1.45633 -0.34144,-2.94485 -0.60717,-4.40255 -0.26573,-1.45769 -0.75338,-2.92251 -1.7357,-4.0318 -0.90176,-1.01832 -2.17245,-1.66942 -3.50029,-1.96434 -1.32784,-0.29491 -2.7131,-0.25117 -4.05596,-0.0347 -2.68572,0.43297 -5.22527,1.54048 -7.90674,1.99902 -4.39879,0.75221 -9.10156,-0.36075 -12.6459,-3.07237 -3.54433,-2.71161 -5.85804,-6.99723 -6.09711,-11.45346 -0.18141,-3.3814 0.78681,-6.75688 2.36114,-9.75493 1.57433,-2.99805 3.73656,-5.64931 6.04947,-8.12262 4.62582,-4.94661 10.00273,-9.39126 13.14385,-15.3913 z"
         style="opacity:1;vector-effect:none;fill:none;fill-opacity:1;stroke:#000000;stroke-width:4.00031233;stroke-linecap:butt;stroke-linejoin:miter;stroke-miterlimit:4;stroke-dasharray:none;stroke-dashoffset:0;stroke-opacity:1" />
      <path
         inkscape:original-d="m 279.59155,536.54562 c -3.12477,-6.40293 0.93809,-1.25048 1.40573,-1.8743 0.46764,-0.62383 13.12104,-11.55913 19.68015,-17.33729 6.55912,-5.77815 16.86965,14.99348 25.30307,22.49162 8.43342,7.49813 -9.05819,19.36684 -13.58868,29.05166 -4.5305,9.68483 -15.61824,-8.74768 -23.42877,-13.1201 -7.81052,-4.37244 -6.24673,-12.80866 -9.3715,-19.21159 z"
         inkscape:path-effect="#path-effect4679"
         inkscape:connector-curvature="0"
         id="path4677"
         d="m 279.59155,536.54562 c 0.40473,-0.66873 0.91122,-1.26893 1.40573,-1.8743 2.82842,-3.4625 5.33795,-7.19474 8.42461,-10.42915 3.08666,-3.23441 6.87701,-6.00405 11.25554,-6.90814 3.06793,-0.63347 6.30415,-0.30984 9.2466,0.76508 2.94245,1.07492 5.59385,2.88428 7.79017,5.11804 4.39263,4.46752 6.89541,10.49502 8.2663,16.6085 1.32226,5.8966 1.65197,12.21078 -0.47939,17.86548 -1.06568,2.82734 -2.74683,5.44386 -5.00451,7.45195 -2.25769,2.00809 -5.10321,3.38756 -8.10478,3.73423 -2.29815,0.26543 -4.64422,-0.0719 -6.83622,-0.81153 -2.19201,-0.73964 -4.23648,-1.87381 -6.13119,-3.20122 -3.78942,-2.65484 -6.97779,-6.06225 -10.46136,-9.10735 -2.9366,-2.56697 -6.1427,-4.93869 -8.30792,-8.18288 -1.08261,-1.6221 -1.885,-3.45691 -2.13924,-5.39045 -0.25425,-1.93355 0.0659,-3.96984 1.07566,-5.63826 z"
         style="opacity:1;vector-effect:none;fill:none;fill-opacity:1;stroke:#000000;stroke-width:4.00031233;stroke-linecap:butt;stroke-linejoin:miter;stroke-miterlimit:4;stroke-dasharray:none;stroke-dashoffset:0;stroke-opacity:1" />
      <path
         inkscape:original-d="m 295.05453,603.55188 c -4.3743,-2.34195 20.93064,-6.561 31.39455,-9.84008 10.4639,-3.27909 17.49441,3.43528 26.24021,5.15433 8.7458,1.71904 15.93249,-18.74395 23.89733,-28.11452 7.96484,-9.37057 20.93064,-26.24115 31.39454,-39.36032 10.46391,-13.11917 8.12292,-6.24861 12.18296,-9.3715 4.06005,-3.1229 1.25047,10.6201 1.8743,15.93155 0.62384,5.31146 -16.55538,13.74394 -24.83448,20.61732 -8.2791,6.87337 -9.05819,29.05072 -13.58868,43.57749 -4.53051,14.52677 -25.9269,6.24673 -38.89175,9.3715 -12.96486,3.12478 -24.36498,-0.6257 -36.54887,-0.93715 -12.18389,-0.31144 -8.7458,-4.68668 -13.12011,-7.02862 z"
         inkscape:path-effect="#path-effect4683"
         inkscape:connector-curvature="0"
         id="path4681"
         d="m 295.05453,603.55188 c -0.78938,-1.63903 -1.04441,-3.51957 -0.78857,-5.32071 0.25583,-1.80113 1.01345,-3.51958 2.11549,-4.967 2.20409,-2.89485 5.71697,-4.62344 9.319,-5.13684 3.60202,-0.5134 7.29093,0.10034 10.74945,1.23032 3.45851,1.12998 6.72622,2.76483 9.99918,4.35415 4.10932,1.99545 8.2799,3.93948 12.70603,5.06984 4.42612,1.13037 9.16335,1.41271 13.53418,0.0845 6.03877,-1.83507 10.80939,-6.54944 14.37961,-11.75403 3.57021,-5.20458 6.17746,-11.00542 9.51772,-16.36049 8.89554,-14.26123 22.71996,-24.96362 31.39454,-39.36032 1.42297,-2.36162 2.72771,-4.84832 4.69844,-6.77661 0.98537,-0.96415 2.13538,-1.77714 3.42358,-2.26809 1.28821,-0.49096 2.7203,-0.64806 4.06094,-0.3268 1.55161,0.37182 2.92138,1.37875 3.83291,2.68827 0.91153,1.30952 1.37695,2.90484 1.4272,4.49958 0.0503,1.59474 -0.30285,3.18822 -0.91562,4.66139 -0.61277,1.47318 -1.4807,2.83066 -2.47019,4.08231 -3.35478,4.24362 -8.01706,7.21572 -12.55291,10.16343 -4.53585,2.94771 -9.13972,6.05029 -12.28157,10.45389 -2.2385,3.13747 -3.63344,6.81079 -4.54002,10.55682 -0.90658,3.74603 -1.34487,7.58668 -1.82051,11.41139 -0.47564,3.8247 -0.99389,7.66073 -2.05363,11.36635 -1.05973,3.70561 -2.68597,7.29985 -5.17452,10.24293 -2.2326,2.64037 -5.11331,4.6956 -8.2445,6.16247 -3.13119,1.46687 -6.51125,2.35849 -9.93204,2.86268 -6.84159,1.00838 -13.80112,0.48592 -20.71521,0.34635 -12.19444,-0.24617 -24.46275,0.7032 -36.54887,-0.93715 -2.56537,-0.34818 -5.14635,-0.82196 -7.50292,-1.89385 -2.35657,-1.0719 -4.49384,-2.80229 -5.61719,-5.13477 z"
         style="opacity:1;vector-effect:none;fill:none;fill-opacity:1;stroke:#000000;stroke-width:4.00031233;stroke-linecap:butt;stroke-linejoin:miter;stroke-miterlimit:4;stroke-dasharray:none;stroke-dashoffset:0;stroke-opacity:1" />
      <path
         inkscape:original-d="m 452.02724,547.32285 c 5.62196,-3.1229 13.43343,-9.06006 20.14873,-13.58868 6.71531,-4.52862 16.55726,7.80864 24.83449,11.71438 8.27722,3.90573 -3.1229,23.42783 -4.68576,35.14314 -1.56285,11.71532 4.99908,14.68109 7.49721,22.02303 2.49813,7.34196 -17.18016,6.24673 -25.77164,9.37152 -8.59148,3.12477 -2.81051,-17.49442 -4.21718,-26.24022 -1.40666,-8.7458 -13.43155,-12.1839 -20.14873,-18.27443 -6.71719,-6.09055 -9.68295,-7.18576 -14.52583,-10.77724 -4.84288,-3.59147 11.24674,-6.24861 16.86871,-9.3715 z"
         inkscape:path-effect="#path-effect4687"
         inkscape:connector-curvature="0"
         id="path4685"
         d="m 452.02724,547.32285 c 3.84313,-1.34418 7.07811,-3.98001 10.17984,-6.61739 3.10173,-2.63737 6.22563,-5.36989 9.96889,-6.97129 4.78017,-2.045 10.42577,-2.03209 15.1455,0.14878 4.71973,2.18086 8.41401,6.52512 9.68899,11.5656 0.73304,2.89797 0.68951,5.95003 0.23423,8.9044 -0.45527,2.95437 -1.31273,5.83022 -2.19813,8.68533 -1.7708,5.71022 -3.6874,11.65341 -2.72186,17.55341 0.6301,3.85025 2.44939,7.38459 4.12714,10.90689 1.67774,3.52231 3.26373,7.21612 3.37007,11.11614 0.0832,3.05083 -0.77759,6.12495 -2.45687,8.67338 -1.67928,2.54843 -4.17269,4.55651 -7.0306,5.62742 -2.85791,1.07091 -6.06641,1.19443 -8.9902,0.31925 -2.92378,-0.87519 -5.54348,-2.74848 -7.29397,-5.24853 -2.57307,-3.67486 -3.15357,-8.36805 -3.25808,-12.85296 -0.1045,-4.48491 0.17989,-9.04813 -0.9591,-13.38726 -1.20575,-4.59346 -3.99029,-8.70347 -7.58761,-11.80395 -3.59733,-3.10047 -7.97953,-5.22038 -12.56112,-6.47048 -3.19262,-0.87111 -6.5438,-1.35263 -9.46361,-2.9103 -1.45991,-0.77883 -2.79638,-1.83258 -3.74395,-3.18906 -0.94757,-1.35647 -1.48449,-3.03158 -1.31827,-4.67788 0.17302,-1.71364 1.09617,-3.29871 2.35489,-4.47436 1.25871,-1.17564 2.83453,-1.96901 4.46798,-2.51522 3.26689,-1.09243 6.79428,-1.24465 10.04584,-2.38192 z"
         style="opacity:1;vector-effect:none;fill:none;fill-opacity:1;stroke:#000000;stroke-width:4.00031233;stroke-linecap:butt;stroke-linejoin:miter;stroke-miterlimit:4;stroke-dasharray:none;stroke-dashoffset:0;stroke-opacity:1" />
      <path
         inkscape:original-d="m 485.47276,259.98467 c 6.8715,6.87337 5.93623,16.55539 8.90293,24.83449 2.96671,8.2791 -9.99534,13.11916 -14.99441,19.68015 -4.99907,6.561 8.12291,9.99534 12.18296,14.99441 4.06005,4.99908 18.43156,9.05818 27.64593,13.58868 9.21438,4.5305 7.18576,-8.43529 10.77723,-12.65153 3.59148,-4.21624 -12.18201,-6.87337 -18.27443,-10.30865 -6.09241,-3.43529 9.37245,-23.42971 14.05726,-35.14315 4.68482,-11.71344 23.11731,-14.68296 34.67457,-22.02304 11.55725,-7.34007 -2.81052,-8.43528 -4.21718,-12.65152 -1.40667,-4.21624 -20.61637,3.74766 -30.92596,5.6229 -10.3096,1.87523 -34.98602,-6.87338 -52.48043,-10.30866 -17.49442,-3.43528 -6.55912,-1.87523 -9.84008,-2.81145 -3.28096,-0.93621 1.25047,4.37244 1.8743,6.56005 0.62383,2.18762 13.74582,13.74394 20.61731,20.61732 z"
         inkscape:path-effect="#path-effect4691"
         inkscape:connector-curvature="0"
         id="path4689"
         d="m 485.47276,259.98467 c 3.29886,3.34512 6.49597,6.91688 8.43969,11.19405 0.97186,2.13859 1.61569,4.44037 1.74507,6.78586 0.12938,2.3455 -0.26715,4.73597 -1.28183,6.85458 -0.91194,1.9041 -2.29571,3.54725 -3.81475,5.01346 -1.51904,1.46621 -3.18236,2.77352 -4.77317,4.16153 -1.5908,1.38802 -3.12199,2.8717 -4.30969,4.61716 -1.1877,1.74545 -2.022,3.77811 -2.0968,5.888 -0.0598,1.68548 0.36813,3.36972 1.11004,4.88431 0.7419,1.51459 1.79064,2.86555 2.98356,4.05774 2.38584,2.3844 5.31843,4.12894 8.08936,6.05236 4.31424,2.9947 8.29552,6.4702 12.77578,9.21029 4.48027,2.74009 9.6314,4.74765 14.87015,4.37839 3.20857,-0.22616 6.43666,-1.41631 8.6539,-3.74653 1.10861,-1.16511 1.94461,-2.60004 2.34113,-4.15866 0.39652,-1.55862 0.34371,-3.23928 -0.2178,-4.74634 -0.62972,-1.69014 -1.87049,-3.10715 -3.33243,-4.16349 -1.46194,-1.05635 -3.14128,-1.77514 -4.85055,-2.35095 -3.41852,-1.1516 -7.08668,-1.79825 -10.09145,-3.79421 -3.26493,-2.16878 -5.42523,-5.82251 -6.06686,-9.68925 -0.64164,-3.86674 0.17062,-7.90696 1.97121,-11.38852 1.80059,-3.48157 4.55157,-6.42162 7.71861,-8.73101 3.16704,-2.30939 6.7455,-4.00917 10.4343,-5.33437 6.80065,-2.44313 14.03596,-3.65617 20.62062,-6.63273 3.29233,-1.48828 6.41662,-3.4291 8.9464,-6.00877 2.52977,-2.57966 4.4447,-5.82977 5.10755,-9.38154 0.42783,-2.29241 0.3256,-4.69292 -0.38304,-6.91464 -0.70863,-2.22172 -2.03211,-4.25671 -3.83414,-5.73688 -2.1518,-1.76746 -4.91976,-2.69588 -7.69808,-2.88317 -2.77833,-0.18729 -5.57067,0.33398 -8.20946,1.22332 -5.27759,1.77867 -9.94679,4.98162 -15.01842,7.28275 -8.67385,3.93556 -18.57267,5.15008 -27.92454,3.34264 -9.35188,-1.80743 -18.10732,-6.64129 -24.55589,-13.6513 -1.35229,-1.47003 -2.66525,-3.07806 -4.4787,-3.91537 -0.90673,-0.41865 -1.92993,-0.62399 -2.91553,-0.46272 -0.98561,0.16127 -1.92479,0.71463 -2.44585,1.56664 -0.31814,0.52021 -0.47282,1.13243 -0.48268,1.74213 -0.01,0.60971 0.12141,1.21704 0.34213,1.78547 0.44144,1.13687 1.22464,2.10353 2.01485,3.03245 6.30009,7.40597 13.79004,13.69432 20.61731,20.61732 z"
         style="opacity:1;vector-effect:none;fill:none;fill-opacity:1;stroke:#000000;stroke-width:4.00031233;stroke-linecap:butt;stroke-linejoin:miter;stroke-miterlimit:4;stroke-dasharray:none;stroke-dashoffset:0;stroke-opacity:1" />
    </g>
  </g>
  <g
     inkscape:groupmode="layer"
     id="layer3"
     inkscape:label="Layer 3"
     style="display:inline"
     transform="translate(-116.23548,-132.25256)">
    <path
       style="color:#000000;clip-rule:nonzero;display:inline;overflow:visible;visibility:visible;opacity:1;isolation:auto;mix-blend-mode:normal;color-interpolation:sRGB;color-interpolation-filters:linearRGB;solid-color:#000000;solid-opacity:1;fill:none;fill-opacity:1;fill-rule:evenodd;stroke:#000000;stroke-width:3.99999976;stroke-linecap:butt;stroke-linejoin:miter;stroke-miterlimit:4;stroke-dasharray:none;stroke-dashoffset:0;stroke-opacity:1;color-rendering:auto;image-rendering:auto;shape-rendering:auto;text-rendering:auto;enable-background:accumulate"
       d="m 163.70582,171.21405 8.0233,5.3489 4.95269,-7.42902"
       id="path4235-4-01-69-2-0-20-37-04-6-61"
       inkscape:connector-curvature="0"
       inkscape:transform-center-x="1.4813679"
       inkscape:transform-center-y="3.6687804" />
    <path
       style="color:#000000;clip-rule:nonzero;display:inline;overflow:visible;visibility:visible;opacity:1;isolation:auto;mix-blend-mode:normal;color-interpolation:sRGB;color-interpolation-filters:linearRGB;solid-color:#000000;solid-opacity:1;fill:none;fill-opacity:1;fill-rule:evenodd;stroke:#000000;stroke-width:3.99999976;stroke-linecap:butt;stroke-linejoin:miter;stroke-miterlimit:4;stroke-dasharray:none;stroke-dashoffset:0;stroke-opacity:1;color-rendering:auto;image-rendering:auto;shape-rendering:auto;text-rendering:auto;enable-background:accumulate"
       d="m 254.38865,625.31804 1.82472,9.46861 8.76727,-1.68957"
       id="path4235-4-01-69-2-0-20-37-04-6-61-1"
       inkscape:connector-curvature="0"
       inkscape:transform-center-x="-0.8544674"
       inkscape:transform-center-y="-0.67391323" />
    <path
       style="color:#000000;clip-rule:nonzero;display:inline;overflow:visible;visibility:visible;opacity:1;isolation:auto;mix-blend-mode:normal;color-interpolation:sRGB;color-interpolation-filters:linearRGB;solid-color:#000000;solid-opacity:1;fill:none;fill-opacity:1;fill-rule:evenodd;stroke:#000000;stroke-width:3.99999976;stroke-linecap:butt;stroke-linejoin:miter;stroke-miterlimit:4;stroke-dasharray:none;stroke-dashoffset:0;stroke-opacity:1;color-rendering:auto;image-rendering:auto;shape-rendering:auto;text-rendering:auto;enable-background:accumulate"
       d="m 248.65568,732.9745 0.439,9.63283 8.91932,-0.4065"
       id="path4235-4-01-69-2-0-20-37-04-6-61-1-8"
       inkscape:connector-curvature="0"
       inkscape:transform-center-x="-1.0647124"
       inkscape:transform-center-y="-1.1762232" />
    <path
       style="color:#000000;clip-rule:nonzero;display:inline;overflow:visible;visibility:visible;opacity:1;isolation:auto;mix-blend-mode:normal;color-interpolation:sRGB;color-interpolation-filters:linearRGB;solid-color:#000000;solid-opacity:1;fill:none;fill-opacity:1;fill-rule:evenodd;stroke:#000000;stroke-width:3.99999976;stroke-linecap:butt;stroke-linejoin:miter;stroke-miterlimit:4;stroke-dasharray:none;stroke-dashoffset:0;stroke-opacity:1;color-rendering:auto;image-rendering:auto;shape-rendering:auto;text-rendering:auto;enable-background:accumulate"
       d="m 257.08472,839.55378 2.02811,9.42713 8.72886,-1.87789"
       id="path4235-4-01-69-2-0-20-37-04-6-61-1-5"
       inkscape:connector-curvature="0"
       inkscape:transform-center-x="-0.8215774"
       inkscape:transform-center-y="-0.59779323" />
    <path
       style="color:#000000;clip-rule:nonzero;display:inline;overflow:visible;visibility:visible;opacity:1;isolation:auto;mix-blend-mode:normal;color-interpolation:sRGB;color-interpolation-filters:linearRGB;solid-color:#000000;solid-opacity:1;fill:none;fill-opacity:1;fill-rule:evenodd;stroke:#000000;stroke-width:3.99999976;stroke-linecap:butt;stroke-linejoin:miter;stroke-miterlimit:4;stroke-dasharray:none;stroke-dashoffset:0;stroke-opacity:1;color-rendering:auto;image-rendering:auto;shape-rendering:auto;text-rendering:auto;enable-background:accumulate"
       d="m 347.17147,536.75269 -7.18448,-6.43175 -5.95534,6.65234"
       id="path4235-4-01-69-2-0-20-37-04-6-61-1-0"
       inkscape:connector-curvature="0"
       inkscape:transform-center-x="-0.23929239"
       inkscape:transform-center-y="-1.4898082" />
    <path
       style="color:#000000;clip-rule:nonzero;display:inline;overflow:visible;visibility:visible;opacity:1;isolation:auto;mix-blend-mode:normal;color-interpolation:sRGB;color-interpolation-filters:linearRGB;solid-color:#000000;solid-opacity:1;fill:none;fill-opacity:1;fill-rule:evenodd;stroke:#000000;stroke-width:3.99999976;stroke-linecap:butt;stroke-linejoin:miter;stroke-miterlimit:4;stroke-dasharray:none;stroke-dashoffset:0;stroke-opacity:1;color-rendering:auto;image-rendering:auto;shape-rendering:auto;text-rendering:auto;enable-background:accumulate"
       d="m 324.26122,571.28979 -5.50114,7.91969 7.33309,5.09366"
       id="path4235-4-01-69-2-0-20-37-04-6-61-1-7"
       inkscape:connector-curvature="0"
       inkscape:transform-center-x="1.0669326"
       inkscape:transform-center-y="-0.44937323" />
    <path
       style="color:#000000;clip-rule:nonzero;display:inline;overflow:visible;visibility:visible;opacity:1;isolation:auto;mix-blend-mode:normal;color-interpolation:sRGB;color-interpolation-filters:linearRGB;solid-color:#000000;solid-opacity:1;fill:none;fill-opacity:1;fill-rule:evenodd;stroke:#000000;stroke-width:3.99999976;stroke-linecap:butt;stroke-linejoin:miter;stroke-miterlimit:4;stroke-dasharray:none;stroke-dashoffset:0;stroke-opacity:1;color-rendering:auto;image-rendering:auto;shape-rendering:auto;text-rendering:auto;enable-background:accumulate"
       d="m 406.3573,264.30804 7.24329,-6.36543 -5.89396,-6.70678"
       id="path4235-4-01-69-2-0-20-37-04-6-61-1-1"
       inkscape:connector-curvature="0"
       inkscape:transform-center-x="-1.2046974"
       inkscape:transform-center-y="0.031556774" />
    <path
       style="color:#000000;clip-rule:nonzero;display:inline;overflow:visible;visibility:visible;opacity:1;isolation:auto;mix-blend-mode:normal;color-interpolation:sRGB;color-interpolation-filters:linearRGB;solid-color:#000000;solid-opacity:1;fill:none;fill-opacity:1;fill-rule:evenodd;stroke:#000000;stroke-width:3.99999976;stroke-linecap:butt;stroke-linejoin:miter;stroke-miterlimit:4;stroke-dasharray:none;stroke-dashoffset:0;stroke-opacity:1;color-rendering:auto;image-rendering:auto;shape-rendering:auto;text-rendering:auto;enable-background:accumulate"
       d="m 461.62012,284.17427 4.29035,8.63579 7.99614,-3.97257"
       id="path4235-4-01-69-2-0-20-37-04-6-61-1-59"
       inkscape:connector-curvature="0"
       inkscape:transform-center-x="-0.41721739"
       inkscape:transform-center-y="0.29439678" />
    <path
       style="color:#000000;clip-rule:nonzero;display:inline;overflow:visible;visibility:visible;opacity:1;isolation:auto;mix-blend-mode:normal;color-interpolation:sRGB;color-interpolation-filters:linearRGB;solid-color:#000000;solid-opacity:1;fill:none;fill-opacity:1;fill-rule:evenodd;stroke:#000000;stroke-width:3.99999976;stroke-linecap:butt;stroke-linejoin:miter;stroke-miterlimit:4;stroke-dasharray:none;stroke-dashoffset:0;stroke-opacity:1;color-rendering:auto;image-rendering:auto;shape-rendering:auto;text-rendering:auto;enable-background:accumulate"
       d="m 575.59092,264.38461 -6.35429,-7.25307 -6.71583,5.88363"
       id="path4235-4-01-69-2-0-20-37-04-6-61-1-51"
       inkscape:connector-curvature="0"
       inkscape:transform-center-x="-0.028882392"
       inkscape:transform-center-y="-1.1994832" />
    <path
       style="color:#000000;clip-rule:nonzero;display:inline;overflow:visible;visibility:visible;opacity:1;isolation:auto;mix-blend-mode:normal;color-interpolation:sRGB;color-interpolation-filters:linearRGB;solid-color:#000000;solid-opacity:1;fill:none;fill-opacity:1;fill-rule:evenodd;stroke:#000000;stroke-width:3.99999976;stroke-linecap:butt;stroke-linejoin:miter;stroke-miterlimit:4;stroke-dasharray:none;stroke-dashoffset:0;stroke-opacity:1;color-rendering:auto;image-rendering:auto;shape-rendering:auto;text-rendering:auto;enable-background:accumulate"
       d="m 488.37236,235.49723 8.47066,-4.6078 -4.26651,-7.84324"
       id="path4235-4-01-69-2-0-20-37-04-6-61-1-06"
       inkscape:connector-curvature="0"
       inkscape:transform-center-x="-0.42705239"
       inkscape:transform-center-y="-0.35415823" />
    <path
       style="color:#000000;clip-rule:nonzero;display:inline;overflow:visible;visibility:visible;opacity:1;isolation:auto;mix-blend-mode:normal;color-interpolation:sRGB;color-interpolation-filters:linearRGB;solid-color:#000000;solid-opacity:1;fill:none;fill-opacity:1;fill-rule:evenodd;stroke:#000000;stroke-width:3.99999976;stroke-linecap:butt;stroke-linejoin:miter;stroke-miterlimit:4;stroke-dasharray:none;stroke-dashoffset:0;stroke-opacity:1;color-rendering:auto;image-rendering:auto;shape-rendering:auto;text-rendering:auto;enable-background:accumulate"
       d="m 218.79428,259.95964 -9.62283,-0.62063 -0.57465,8.91007"
       id="path4235-4-01-69-2-0-20-37-04-6-61-1-77"
       inkscape:connector-curvature="0"
       inkscape:transform-center-x="-1.2543124"
       inkscape:transform-center-y="0.89933678" />
    <path
       style="color:#000000;clip-rule:nonzero;display:inline;overflow:visible;visibility:visible;opacity:1;isolation:auto;mix-blend-mode:normal;color-interpolation:sRGB;color-interpolation-filters:linearRGB;solid-color:#000000;solid-opacity:1;fill:none;fill-opacity:1;fill-rule:evenodd;stroke:#000000;stroke-width:3.99999976;stroke-linecap:butt;stroke-linejoin:miter;stroke-miterlimit:4;stroke-dasharray:none;stroke-dashoffset:0;stroke-opacity:1;color-rendering:auto;image-rendering:auto;shape-rendering:auto;text-rendering:auto;enable-background:accumulate"
       d="m 245.20384,343.16987 -8.67664,-4.20714 -3.8955,8.03397"
       id="path4235-4-01-69-2-0-20-37-04-6-61-1-2"
       inkscape:connector-curvature="0"
       inkscape:transform-center-x="-0.7049024"
       inkscape:transform-center-y="-0.50993323" />
    <path
       style="color:#000000;clip-rule:nonzero;display:inline;overflow:visible;visibility:visible;opacity:1;isolation:auto;mix-blend-mode:normal;color-interpolation:sRGB;color-interpolation-filters:linearRGB;solid-color:#000000;solid-opacity:1;fill:none;fill-opacity:1;fill-rule:evenodd;stroke:#000000;stroke-width:3.99999976;stroke-linecap:butt;stroke-linejoin:miter;stroke-miterlimit:4;stroke-dasharray:none;stroke-dashoffset:0;stroke-opacity:1;color-rendering:auto;image-rendering:auto;shape-rendering:auto;text-rendering:auto;enable-background:accumulate"
       d="m 197.68394,297.62174 -1.15906,9.57291 8.86385,1.0732"
       id="path4235-4-01-69-2-0-20-37-04-6-61-1-19"
       inkscape:connector-curvature="0"
       inkscape:transform-center-x="-0.6985274"
       inkscape:transform-center-y="-1.1845332" />
    <path
       style="color:#000000;clip-rule:nonzero;display:inline;overflow:visible;visibility:visible;opacity:1;isolation:auto;mix-blend-mode:normal;color-interpolation:sRGB;color-interpolation-filters:linearRGB;solid-color:#000000;solid-opacity:1;fill:none;fill-opacity:1;fill-rule:evenodd;stroke:#000000;stroke-width:3.99999976;stroke-linecap:butt;stroke-linejoin:miter;stroke-miterlimit:4;stroke-dasharray:none;stroke-dashoffset:0;stroke-opacity:1;color-rendering:auto;image-rendering:auto;shape-rendering:auto;text-rendering:auto;enable-background:accumulate"
       d="m 262.91508,510.4428 1.66437,9.4981 8.79457,-1.54111"
       id="path4235-4-01-69-2-0-20-37-04-6-61-1-9"
       inkscape:connector-curvature="0"
       inkscape:transform-center-x="-0.8800224"
       inkscape:transform-center-y="-0.73347823" />
    <path
       style="color:#000000;clip-rule:nonzero;display:inline;overflow:visible;visibility:visible;opacity:1;isolation:auto;mix-blend-mode:normal;color-interpolation:sRGB;color-interpolation-filters:linearRGB;solid-color:#000000;solid-opacity:1;fill:none;fill-opacity:1;fill-rule:evenodd;stroke:#000000;stroke-width:3.99999976;stroke-linecap:butt;stroke-linejoin:miter;stroke-miterlimit:4;stroke-dasharray:none;stroke-dashoffset:0;stroke-opacity:1;color-rendering:auto;image-rendering:auto;shape-rendering:auto;text-rendering:auto;enable-background:accumulate"
       d="m 196.77125,444.57828 -9.62283,-0.62063 -0.57465,8.91007"
       id="path4235-4-01-69-2-0-20-37-04-6-61-1-56"
       inkscape:connector-curvature="0"
       inkscape:transform-center-x="-1.2543124"
       inkscape:transform-center-y="0.89933678" />
    <path
       style="color:#000000;clip-rule:nonzero;display:inline;overflow:visible;visibility:visible;opacity:1;isolation:auto;mix-blend-mode:normal;color-interpolation:sRGB;color-interpolation-filters:linearRGB;solid-color:#000000;solid-opacity:1;fill:none;fill-opacity:1;fill-rule:evenodd;stroke:#000000;stroke-width:3.99999976;stroke-linecap:butt;stroke-linejoin:miter;stroke-miterlimit:4;stroke-dasharray:none;stroke-dashoffset:0;stroke-opacity:1;color-rendering:auto;image-rendering:auto;shape-rendering:auto;text-rendering:auto;enable-background:accumulate"
       d="m 408.97162,578.47281 0.50857,-9.6294 -8.91615,-0.47089"
       id="path4235-4-01-69-2-0-20-37-04-6-61-1-6"
       inkscape:connector-curvature="0"
       inkscape:transform-center-x="0.94068261"
       inkscape:transform-center-y="1.2683068" />
    <path
       style="color:#000000;clip-rule:nonzero;display:inline;overflow:visible;visibility:visible;opacity:1;isolation:auto;mix-blend-mode:normal;color-interpolation:sRGB;color-interpolation-filters:linearRGB;solid-color:#000000;solid-opacity:1;fill:none;fill-opacity:1;fill-rule:evenodd;stroke:#000000;stroke-width:3.99999976;stroke-linecap:butt;stroke-linejoin:miter;stroke-miterlimit:4;stroke-dasharray:none;stroke-dashoffset:0;stroke-opacity:1;color-rendering:auto;image-rendering:auto;shape-rendering:auto;text-rendering:auto;enable-background:accumulate"
       d="m 456.70464,536.52724 1.29937,-9.55488 -8.84716,-1.20311"
       id="path4235-4-01-69-2-0-20-37-04-6-61-1-17"
       inkscape:connector-curvature="0"
       inkscape:transform-center-x="0.64561761"
       inkscape:transform-center-y="1.1656568" />
    <path
       style="color:#000000;clip-rule:nonzero;display:inline;overflow:visible;visibility:visible;opacity:1;isolation:auto;mix-blend-mode:normal;color-interpolation:sRGB;color-interpolation-filters:linearRGB;solid-color:#000000;solid-opacity:1;fill:none;fill-opacity:1;fill-rule:evenodd;stroke:#000000;stroke-width:3.99999976;stroke-linecap:butt;stroke-linejoin:miter;stroke-miterlimit:4;stroke-dasharray:none;stroke-dashoffset:0;stroke-opacity:1;color-rendering:auto;image-rendering:auto;shape-rendering:auto;text-rendering:auto;enable-background:accumulate"
       d="m 516.33955,529.39039 -9.62283,-0.62063 -0.57465,8.91007"
       id="path4235-4-01-69-2-0-20-37-04-6-61-1-68"
       inkscape:connector-curvature="0"
       inkscape:transform-center-x="-1.2543124"
       inkscape:transform-center-y="0.89933678" />
    <path
       style="color:#000000;clip-rule:nonzero;display:inline;overflow:visible;visibility:visible;opacity:1;isolation:auto;mix-blend-mode:normal;color-interpolation:sRGB;color-interpolation-filters:linearRGB;solid-color:#000000;solid-opacity:1;fill:none;fill-opacity:1;fill-rule:evenodd;stroke:#000000;stroke-width:3.99999976;stroke-linecap:butt;stroke-linejoin:miter;stroke-miterlimit:4;stroke-dasharray:none;stroke-dashoffset:0;stroke-opacity:1;color-rendering:auto;image-rendering:auto;shape-rendering:auto;text-rendering:auto;enable-background:accumulate"
       d="m 441.26956,599.28525 9.20723,2.86548 2.65323,-8.52526"
       id="path4235-4-01-69-2-0-20-37-04-6-61-1-88"
       inkscape:connector-curvature="0"
       inkscape:transform-center-x="0.93477761"
       inkscape:transform-center-y="-0.037888227" />
    <path
       style="color:#000000;clip-rule:nonzero;display:inline;overflow:visible;visibility:visible;opacity:1;isolation:auto;mix-blend-mode:normal;color-interpolation:sRGB;color-interpolation-filters:linearRGB;solid-color:#000000;solid-opacity:1;fill:none;fill-opacity:1;fill-rule:evenodd;stroke:#000000;stroke-width:3.99999976;stroke-linecap:butt;stroke-linejoin:miter;stroke-miterlimit:4;stroke-dasharray:none;stroke-dashoffset:0;stroke-opacity:1;color-rendering:auto;image-rendering:auto;shape-rendering:auto;text-rendering:auto;enable-background:accumulate"
       d="m 188.86584,574.85103 5.85624,-7.66084 -7.0934,-5.42246"
       id="path4235-4-01-69-2-0-20-37-04-6-61-1-16"
       inkscape:connector-curvature="0"
       inkscape:transform-center-x="-1.2257624"
       inkscape:transform-center-y="0.37220178" />
    <path
       style="color:#000000;clip-rule:nonzero;display:inline;overflow:visible;visibility:visible;opacity:1;isolation:auto;mix-blend-mode:normal;color-interpolation:sRGB;color-interpolation-filters:linearRGB;solid-color:#000000;solid-opacity:1;fill:none;fill-opacity:1;fill-rule:evenodd;stroke:#000000;stroke-width:3.99999976;stroke-linecap:butt;stroke-linejoin:miter;stroke-miterlimit:4;stroke-dasharray:none;stroke-dashoffset:0;stroke-opacity:1;color-rendering:auto;image-rendering:auto;shape-rendering:auto;text-rendering:auto;enable-background:accumulate"
       d="m 145.46535,746.9114 8.46115,4.62525 4.28266,-7.83444"
       id="path4235-4-01-69-2-0-20-37-04-6-61-1-05"
       inkscape:connector-curvature="0"
       inkscape:transform-center-x="0.62634261"
       inkscape:transform-center-y="0.68651178" />
    <path
       style="color:#000000;clip-rule:nonzero;display:inline;overflow:visible;visibility:visible;opacity:1;isolation:auto;mix-blend-mode:normal;color-interpolation:sRGB;color-interpolation-filters:linearRGB;solid-color:#000000;solid-opacity:1;fill:none;fill-opacity:1;fill-rule:evenodd;stroke:#000000;stroke-width:3.99999976;stroke-linecap:butt;stroke-linejoin:miter;stroke-miterlimit:4;stroke-dasharray:none;stroke-dashoffset:0;stroke-opacity:1;color-rendering:auto;image-rendering:auto;shape-rendering:auto;text-rendering:auto;enable-background:accumulate"
       d="m 146.90445,824.97065 7.98608,5.4043 5.004,-7.39456"
       id="path4235-4-01-69-2-0-20-37-04-6-61-1-66"
       inkscape:connector-curvature="0"
       inkscape:transform-center-x="0.46983761"
       inkscape:transform-center-y="1.0241118" />
    <path
       style="color:#000000;clip-rule:nonzero;display:inline;overflow:visible;visibility:visible;opacity:1;isolation:auto;mix-blend-mode:normal;color-interpolation:sRGB;color-interpolation-filters:linearRGB;solid-color:#000000;solid-opacity:1;fill:none;fill-opacity:1;fill-rule:evenodd;stroke:#000000;stroke-width:3.99999976;stroke-linecap:butt;stroke-linejoin:miter;stroke-miterlimit:4;stroke-dasharray:none;stroke-dashoffset:0;stroke-opacity:1;color-rendering:auto;image-rendering:auto;shape-rendering:auto;text-rendering:auto;enable-background:accumulate"
       d="m 562.11238,204.88567 -6.03117,-7.5239 -6.96659,5.58445"
       id="path4235-4-01-69-2-0-20-37-04-6-61-1-23"
       inkscape:connector-curvature="0"
       inkscape:transform-center-x="0.047307609"
       inkscape:transform-center-y="-1.0502982" />
  </g>
</svg>
