<?xml version="1.0" encoding="UTF-8" standalone="no"?>
<!-- Created with Inkscape (http://www.inkscape.org/) -->

<svg
   xmlns:dc="http://purl.org/dc/elements/1.1/"
   xmlns:cc="http://creativecommons.org/ns#"
   xmlns:rdf="http://www.w3.org/1999/02/22-rdf-syntax-ns#"
   xmlns:svg="http://www.w3.org/2000/svg"
   xmlns="http://www.w3.org/2000/svg"
   xmlns:sodipodi="http://sodipodi.sourceforge.net/DTD/sodipodi-0.dtd"
   xmlns:inkscape="http://www.inkscape.org/namespaces/inkscape"
   width="357.83899"
   height="800"
   viewBox="0 0 335.47405 750.00001"
   id="svg2"
   version="1.1"
   inkscape:version="0.92.3 (2405546, 2018-03-11)"
   sodipodi:docname="i.svg"
   inkscape:export-filename="C:\Users\zvi\Documents\Mazesplace\Mazes\Alphabet Maze Set\I\I (s).png"
   inkscape:export-xdpi="100"
   inkscape:export-ydpi="100">
  <defs
     id="defs4">
    <inkscape:path-effect
       effect="spiro"
       id="path-effect4614"
       is_visible="true" />
    <inkscape:path-effect
       effect="spiro"
       id="path-effect4610"
       is_visible="true" />
    <inkscape:path-effect
       effect="spiro"
       id="path-effect4606"
       is_visible="true" />
    <inkscape:path-effect
       effect="spiro"
       id="path-effect4602"
       is_visible="true" />
    <inkscape:path-effect
       effect="spiro"
       id="path-effect4598"
       is_visible="true" />
    <inkscape:path-effect
       effect="spiro"
       id="path-effect4594"
       is_visible="true" />
    <inkscape:path-effect
       effect="spiro"
       id="path-effect4590"
       is_visible="true" />
    <inkscape:path-effect
       effect="spiro"
       id="path-effect4586"
       is_visible="true" />
    <inkscape:path-effect
       effect="spiro"
       id="path-effect4582"
       is_visible="true" />
    <inkscape:path-effect
       effect="spiro"
       id="path-effect4578"
       is_visible="true" />
    <inkscape:path-effect
       effect="spiro"
       id="path-effect4570"
       is_visible="true" />
    <inkscape:path-effect
       effect="spiro"
       id="path-effect4545"
       is_visible="true" />
    <inkscape:path-effect
       effect="spiro"
       id="path-effect4571"
       is_visible="true" />
    <clipPath
       clipPathUnits="userSpaceOnUse"
       id="clipPath4560">
      <rect
         transform="rotate(90)"
         y="112.13254"
         x="28.427679"
         height="822.85712"
         width="694.28571"
         id="rect4562"
         style="opacity:1;fill:#ffffff;fill-opacity:0;fill-rule:evenodd;stroke:none;stroke-width:3.99999976;stroke-linecap:round;stroke-linejoin:round;stroke-miterlimit:4;stroke-dasharray:none;stroke-dashoffset:2.4000001;stroke-opacity:1" />
    </clipPath>
    <clipPath
       clipPathUnits="userSpaceOnUse"
       id="clipPath911">
      <rect
         style="fill:#000000;fill-opacity:0.53266332;stroke:none;stroke-width:4.48228312;stroke-linecap:round;stroke-linejoin:miter;stroke-miterlimit:4;stroke-dasharray:none;stroke-dashoffset:0;stroke-opacity:1;paint-order:normal"
         id="rect913"
         width="335.47406"
         height="750"
         x="239.42722"
         y="139.52261" />
    </clipPath>
  </defs>
  <sodipodi:namedview
     id="base"
     pagecolor="#ffffff"
     bordercolor="#666666"
     borderopacity="1.0"
     inkscape:pageopacity="0.0"
     inkscape:pageshadow="2"
     inkscape:zoom="0.49497475"
     inkscape:cx="28.338767"
     inkscape:cy="542.35402"
     inkscape:document-units="px"
     inkscape:current-layer="layer2"
     showgrid="false"
     units="px"
     inkscape:window-width="1536"
     inkscape:window-height="801"
     inkscape:window-x="-8"
     inkscape:window-y="-8"
     inkscape:window-maximized="1"
     fit-margin-top="0"
     fit-margin-left="15"
     fit-margin-right="15"
     fit-margin-bottom="0"
     inkscape:snap-page="true" />
  <metadata
     id="metadata7">
    <rdf:RDF>
      <cc:Work
         rdf:about="">
        <dc:format>image/svg+xml</dc:format>
        <dc:type
           rdf:resource="http://purl.org/dc/dcmitype/StillImage" />
        <dc:title></dc:title>
      </cc:Work>
    </rdf:RDF>
  </metadata>
  <g
     inkscape:groupmode="layer"
     id="layer2"
     inkscape:label="Layer 2"
     style="display:inline"
     transform="translate(-239.42721,-139.52261)">
    <g
       id="g907"
       clip-path="url(#clipPath911)">
      <path
         sodipodi:nodetypes="cccccccccccccccc"
         inkscape:connector-curvature="0"
         id="path4566"
         d="m 512.65335,195.77257 h -195.2009 m -28.79464,0 h -33.16794 v 169.42845 h 66.96465 v 348.88393 h -66.96465 v 173.4375 H 558.83862 V 717.43316 H 499.90988 V 367.87959 l 58.92874,1.7e-4 V 195.77257 h -28.10491"
         style="opacity:1;vector-effect:none;fill:none;fill-opacity:1;stroke:#000000;stroke-width:4.00031233;stroke-linecap:butt;stroke-linejoin:miter;stroke-miterlimit:4;stroke-dasharray:none;stroke-dashoffset:0;stroke-opacity:1" />
      <path
         sodipodi:nodetypes="cssscsssccssssssscsssssscssscsssssscsssssscsscsccscccsscc"
         inkscape:original-d="m 213.63756,162.96007 h 55.24553 c 10.49014,0 13.84023,15.85608 20.75893,22.77666 6.91871,6.92058 -4.29408,16.02828 -6.44253,24.04383 -2.14844,8.01554 -9.54332,17.45199 -14.3164,26.17938 -4.77307,8.72741 2.23308,23.65979 3.34822,35.49108 1.11513,11.83129 0.44736,44.64192 0.66964,66.96429 0.22228,22.32236 6.69736,13.83834 10.04464,20.75893 3.34728,6.92058 8.48308,-1.34023 12.72322,-2.00893 4.24013,-0.66871 14.28665,-8.48308 21.42857,-12.72322 7.14192,-4.24013 8.92951,5.35621 13.39286,8.03572 4.46334,2.6795 9.37594,29.90977 14.0625,44.86607 4.68656,14.95629 -8.92764,40.17763 -13.39286,60.26786 -4.46522,20.09022 4.91165,60.26692 7.36607,90.40179 2.45442,30.13486 0.8938,28.57049 1.33929,42.85713 0.44549,14.28666 -7.14192,47.76692 -10.71429,71.65179 -3.57237,23.88486 -3.04282,41.4767 -5.2759,58.66514 -2.23307,17.18844 -9.00888,-1.74643 -12.80446,0.93307 -3.79558,2.67952 -23.21334,12.05265 -34.82143,18.08037 -11.60808,6.02772 1.34023,32.14191 2.00893,48.21428 0.66871,16.07237 -1.78477,36.60621 -2.67857,54.91072 -0.89379,18.30451 21.42951,26.33835 32.14286,39.50892 10.71334,13.17058 18.75093,-13.39379 28.125,-20.08928 9.37406,-6.69549 -10.71335,-16.51879 -16.07143,-24.77679 -5.35808,-8.25799 3.57237,-9.37594 5.35714,-14.0625 1.78478,-4.68656 13.84023,7.14192 20.75893,10.71429 6.91871,3.57237 10.71523,25.89192 16.07143,38.83928 5.3562,12.94737 20.09023,-2.67951 30.13393,-4.01785 10.04371,-1.33835 18.75093,5.35621 28.125,8.03571 9.37406,2.67951 52.67951,-9.3e-4 79.01786,0 26.33835,9.4e-4 20.53665,-6.69737 30.80357,-10.04464 10.26692,-3.34728 3.12593,-4.91165 4.6875,-7.36607 1.56157,-2.45442 4.46523,-25.00094 6.69643,-37.5 2.2312,-12.49906 -2.2312,-49.55451 -3.34821,-74.33036 -1.11702,-24.77585 -19.1955,-12.05451 -28.79465,-18.08036 -9.59915,-6.02585 -16.51691,-8.92951 -24.77679,-13.39285 -8.25986,-4.46336 2.23308,-9.82237 3.34822,-14.73215 1.11514,-4.90977 -3.57049,-61.60808 -5.35715,-92.41072 -1.78665,-30.80263 4.91166,-53.57236 7.36608,-80.35713 2.45441,-26.78478 -5.80264,-32.1438 -8.70536,-48.21429 -2.90273,-16.07049 3.12594,-29.91166 4.6875,-44.86608 1.56156,-14.95442 9.4e-4,-5.8045 0,-8.70535 -9.4e-4,-2.90085 -6.69549,-1.34022 -10.04464,-2.00893 -3.34915,-0.6687 -12.9455,13.39192 -19.41965,20.08928 -6.47415,6.69737 -5.3562,-1.78665 -8.03571,-2.67857 -2.67951,-0.89192 1.78665,-4.46522 2.67858,-6.69643 0.89191,-2.2312 21.87593,-42.41165 32.8125,-63.61607 10.93655,-21.20442 6.69736,-16.07237 10.04463,-24.10714 3.34728,-8.03477 12.05451,-1.34023 18.08037,-2.00893 6.02584,-0.66871 15.1795,6.69549 22.76785,10.04464 7.58835,3.34915 6.69737,-21.42951 10.04465,-32.14285 3.34727,-10.71335 2.23308,-16.5188 3.3482,-24.77679 1.11514,-8.25799 3.12595,-19.64379 4.6875,-29.46428 1.56157,-9.8205 -15.17763,-36.16166 -22.76785,-54.24108 -7.59023,-18.07942 6.25094,-25.44736 9.375,-38.16964 3.12406,-12.72228 27.45535,-14.74095 27.45535,-14.74095 h 41.18304"
         inkscape:path-effect="#path-effect4570"
         inkscape:connector-curvature="0"
         id="path4568"
         d="m 213.63756,162.96007 h 55.24553 c 3.02083,0 6.083,0.0659 8.9824,0.91379 2.89941,0.84785 5.58251,2.47745 7.57265,4.75006 1.99013,2.2726 3.25885,5.12526 3.85907,8.08585 0.60022,2.9606 0.56523,6.01419 0.34481,9.02696 -0.6096,8.33212 -2.60139,16.62484 -6.44253,24.04383 -2.29532,4.43331 -5.21855,8.50495 -7.90102,12.71531 -2.68247,4.21036 -5.15623,8.6332 -6.41538,13.46407 -1.51282,5.8041 -1.20187,11.94037 -0.2426,17.86117 0.95926,5.92081 2.55099,11.72272 3.59082,17.62991 3.87652,22.02222 -0.0207,44.61415 0.66964,66.96429 0.12643,4.09302 0.42293,8.25567 1.89549,12.07672 0.73628,1.91052 1.76739,3.71928 3.13659,5.24161 1.3692,1.52233 3.08426,2.75223 5.01256,3.4406 2.09048,0.74627 4.38549,0.83934 6.56805,0.43501 2.18256,-0.40432 4.25749,-1.29248 6.15517,-2.44394 3.62621,-2.20029 6.58881,-5.3207 9.91122,-7.95742 1.6612,-1.31836 3.42698,-2.52429 5.35825,-3.40058 1.93126,-0.87629 4.03894,-1.41609 6.1591,-1.36522 2.68395,0.0644 5.28741,1.07576 7.52522,2.55896 2.23781,1.48321 4.13751,3.42387 5.86764,5.47676 10.3408,12.26993 14.84946,28.83909 14.0625,44.86607 -1.0111,20.59191 -10.1101,39.91417 -13.39286,60.26786 -4.8362,29.98528 3.11396,60.32813 7.36607,90.40179 2.00716,14.19592 3.19053,28.64003 1.33929,42.85713 -1.56968,12.05479 -5.28742,23.70842 -8.09904,35.53536 -2.81163,11.82694 -4.72392,24.14416 -2.61525,36.11643 1.89297,10.74759 6.95951,20.80928 8.18637,31.65312 0.61344,5.42192 0.21568,11.06033 -1.96537,16.06198 -1.09053,2.50083 -2.62208,4.81967 -4.57235,6.7275 -1.95028,1.90783 -4.32389,3.39797 -6.92455,4.22254 -4.0977,1.29923 -8.50578,0.91108 -12.80446,0.93307 -6.89169,0.0352 -13.85724,1.19472 -20.09023,4.13522 -6.23298,2.94049 -11.69937,7.75607 -14.7312,13.94515 -3.60012,7.34917 -3.54464,15.96814 -2.30463,24.05725 1.24001,8.0891 3.58135,16.00626 4.31356,24.15703 1.64357,18.29592 -4.89459,36.67528 -2.67857,54.91072 1.0906,8.97447 4.36893,17.75246 9.91796,24.88959 5.54904,7.13714 13.42301,12.55602 22.2249,14.61933 3.34725,0.78465 6.82212,1.08868 10.23955,0.71326 3.41742,-0.37542 6.77704,-1.44187 9.6929,-3.26327 2.91585,-1.82141 5.3748,-4.41146 6.88333,-7.5008 1.50854,-3.08935 2.03671,-6.67834 1.30922,-10.03847 -0.52695,-2.43385 -1.68526,-4.69601 -3.10766,-6.74005 -1.4224,-2.04404 -3.10935,-3.88805 -4.79967,-5.71674 -1.69032,-1.8287 -3.39436,-3.65478 -4.85673,-5.67042 -1.46236,-2.01564 -2.68502,-4.23836 -3.30737,-6.64958 -0.6739,-2.61094 -0.61384,-5.42722 0.30294,-7.96309 0.91679,-2.53587 2.70808,-4.77017 5.0542,-6.09941 1.92106,-1.08841 4.17198,-1.55482 6.37602,-1.42324 2.20403,0.13158 4.3581,0.84922 6.25683,1.97612 3.79747,2.25381 6.48608,6.06131 8.12608,10.16141 2.71285,6.78228 2.77333,14.29457 4.25473,21.4475 0.74069,3.57646 1.85964,7.11616 3.76917,10.22959 1.90953,3.11342 4.66296,5.78946 8.04753,7.16219 2.3877,0.96841 5.01226,1.26293 7.58491,1.12005 2.57264,-0.14288 5.10443,-0.71092 7.5826,-1.41631 4.95636,-1.41076 9.82376,-3.39181 14.96642,-3.72159 4.90792,-0.31472 9.79598,0.90187 14.41954,2.57798 4.62357,1.67611 9.06943,3.8164 13.70546,5.45773 12.53093,4.43641 26.10716,5.10306 39.3752,4.28759 13.26805,-0.81547 26.40616,-3.06238 39.64266,-4.28759 5.512,-0.51021 11.07259,-0.84825 16.44363,-2.18783 5.37103,-1.33958 10.62175,-3.77411 14.35994,-7.85681 1.97345,-2.15533 3.47173,-4.70865 4.6875,-7.36607 5.3094,-11.60528 5.26376,-24.81853 6.69643,-37.5 1.42883,-12.64744 4.41375,-25.1163 5.10722,-37.82529 0.69346,-12.70899 -1.14428,-26.08651 -8.45543,-36.50507 -6.66626,-9.49957 -17.43813,-15.69071 -28.79465,-18.08036 -4.89417,-1.02984 -9.9611,-1.41792 -14.6385,-3.18861 -2.3387,-0.88535 -4.56861,-2.12371 -6.39018,-3.83696 -1.82158,-1.71325 -3.2201,-3.92299 -3.74811,-6.36728 -0.54034,-2.50137 -0.15608,-5.12271 0.58805,-7.5712 0.74412,-2.44849 1.83875,-4.77352 2.76017,-7.16095 5.62041,-14.56271 4.59465,-30.82535 1.94848,-46.20909 -2.64616,-15.38374 -6.83556,-30.59905 -7.30563,-46.20163 -0.81183,-26.94626 9.51628,-53.48453 7.36608,-80.35713 -1.30368,-16.29298 -7.15661,-31.94277 -8.70536,-48.21429 -1.43219,-15.04691 0.86391,-30.24279 4.6875,-44.86608 0.37753,-1.44385 0.77186,-2.89499 0.87321,-4.38393 0.10136,-1.48894 -0.11024,-3.0388 -0.87321,-4.32142 -0.47922,-0.80562 -1.16477,-1.48302 -1.95956,-1.97999 -0.7948,-0.49696 -1.69687,-0.81523 -2.62316,-0.959 -1.85257,-0.28753 -3.76893,0.12477 -5.46192,0.93006 -2.13685,1.01641 -3.94257,2.63322 -5.46577,4.44405 -1.5232,1.81083 -2.78572,3.8226 -4.06305,5.8145 -1.27733,1.9919 -2.58209,3.98075 -4.17661,5.72911 -1.59452,1.74835 -3.50286,3.25954 -5.71422,4.10162 -1.48713,0.5663 -3.14049,0.8172 -4.67864,0.40935 -0.76908,-0.20393 -1.49866,-0.57257 -2.09317,-1.10136 -0.59452,-0.52878 -1.05018,-1.22015 -1.2639,-1.98656 -0.3367,-1.20744 -0.057,-2.51941 0.50073,-3.64199 0.55776,-1.12257 1.37581,-2.0911 2.17785,-3.05444 15.42327,-18.52511 27.99164,-39.99793 32.8125,-63.61607 0.89111,-4.3657 1.51931,-8.8034 2.90758,-13.03732 1.38827,-4.23392 3.624,-8.32905 7.13705,-11.06982 2.50688,-1.95579 5.59046,-3.14221 8.75382,-3.46267 3.16336,-0.32046 6.39809,0.21533 9.32655,1.45374 3.91239,1.65451 7.19099,4.48208 10.77339,6.76476 1.7912,1.14133 3.68006,2.15631 5.70618,2.7934 2.02612,0.6371 4.20213,0.88524 6.28828,0.48648 3.03951,-0.58099 5.72316,-2.52632 7.54011,-5.03129 1.81695,-2.50497 2.81769,-5.53406 3.24585,-8.59884 0.85632,-6.12956 -0.48377,-12.32899 -0.74131,-18.51272 -0.34805,-8.35693 1.28732,-16.67049 3.3482,-24.77679 2.46355,-9.69017 5.57589,-19.5054 4.6875,-29.46428 -0.87691,-9.83022 -5.58024,-18.86778 -10.47098,-27.44 -4.89074,-8.57221 -10.13913,-17.17059 -12.29687,-26.80108 -2.96991,-13.25539 0.54092,-27.85049 9.375,-38.16964 6.91192,-8.07387 16.90689,-13.44023 27.45535,-14.74095 h 41.18304"
         style="opacity:1;vector-effect:none;fill:none;fill-opacity:1;stroke:#000000;stroke-width:4.00031233;stroke-linecap:butt;stroke-linejoin:miter;stroke-miterlimit:4;stroke-dasharray:none;stroke-dashoffset:0;stroke-opacity:1" />
      <path
         sodipodi:nodetypes="cccscsscssscscc"
         inkscape:original-d="M 607.38756,144.21007 H 568.8831 c -30.1886,-1.16435 -34.34818,9.1485 -55.58036,34.16059 -9.15273,10.71522 -4.46335,18.74906 -6.69643,28.125 -2.23308,9.37594 -10.26692,1.78478 -15.40178,2.67857 -5.13487,0.8938 -8.03478,11.15978 -12.05357,16.74107 -4.0188,5.5813 -16.96335,1.33835 -25.44644,2.00893 -8.48308,0.67058 -16.96335,4.90978 -25.44643,7.36608 -8.48308,2.45629 -25.44549,-18.30451 -38.16963,-27.45536 -12.72416,-9.15085 -28.12407,11.6062 -42.18751,17.41071 -14.06343,5.80451 -19.64192,-14.28665 -29.46429,-21.42857 -9.82237,-7.14192 -1.78477,-17.85808 -2.67857,-26.78571 -0.89379,-8.92764 9.4e-4,-10.15719 -10.04464,-21.76339 -10.04557,-11.60621 -37.96295,-11.05792 -37.96295,-11.05792 h -49.76027"
         inkscape:path-effect="#path-effect4578"
         inkscape:connector-curvature="0"
         id="path4576"
         d="M 607.38756,144.21007 H 568.8831 c -12.12116,0 -24.68656,0.43232 -35.52996,5.84925 -5.42171,2.70846 -10.29696,6.58935 -13.88034,11.47709 -3.58338,4.88774 -5.83964,10.78268 -6.17006,16.83425 -0.27957,5.12021 0.79228,10.24631 0.47008,15.36402 -0.16111,2.55885 -0.683,5.12612 -1.84153,7.41336 -1.15853,2.28725 -2.99244,4.28322 -5.32498,5.34762 -2.39022,1.09072 -5.10339,1.14676 -7.72958,1.22402 -2.62619,0.0773 -5.3526,0.22073 -7.6722,1.45455 -1.54005,0.81917 -2.81139,2.08121 -3.83557,3.49324 -1.02418,1.41204 -1.81613,2.97715 -2.56552,4.55233 -1.49878,3.15037 -2.94146,6.4997 -5.65248,8.6955 -1.69206,1.37049 -3.7828,2.19261 -5.92393,2.5887 -2.14112,0.39608 -4.33921,0.38286 -6.51012,0.21429 -4.34184,-0.33714 -8.68575,-1.28944 -13.01239,-0.79406 -4.42142,0.50623 -8.51386,2.48767 -12.5956,4.26098 -4.08173,1.77332 -8.40979,3.39216 -12.85083,3.1051 -4.01071,-0.25924 -7.79774,-2.07895 -10.98687,-4.52486 -3.18913,-2.44591 -5.84851,-5.50438 -8.43723,-8.57872 -2.58871,-3.07434 -5.14659,-6.20373 -8.18246,-8.83745 -3.03587,-2.63373 -6.61271,-4.77427 -10.56307,-5.51433 -3.81836,-0.71533 -7.79994,-0.0828 -11.4423,1.26809 -3.64236,1.35083 -6.98556,3.39498 -10.20887,5.56335 -3.22331,2.16837 -6.35851,4.47718 -9.71833,6.42735 -3.35982,1.95017 -6.98061,3.54703 -10.81801,4.15192 -6.56563,1.03494 -13.45859,-0.99118 -18.73405,-5.03447 -5.27546,-4.04329 -8.95998,-9.98748 -10.73024,-16.3941 -2.39418,-8.66461 -1.40166,-17.88756 -2.67857,-26.78571 -1.1546,-8.04579 -4.31827,-15.99481 -10.04464,-21.76339 -4.77797,-4.81319 -11.13013,-7.87158 -17.73199,-9.42438 -6.60187,-1.5528 -13.44894,-1.63354 -20.23096,-1.63354 h -49.76027"
         style="opacity:1;vector-effect:none;fill:none;fill-opacity:1;stroke:#000000;stroke-width:4.00031233;stroke-linecap:butt;stroke-linejoin:miter;stroke-miterlimit:4;stroke-dasharray:none;stroke-dashoffset:0;stroke-opacity:1" />
      <path
         inkscape:original-d="m 375.35631,261.07156 c 4.79817,-7.58835 1.56344,-9.15273 2.34375,-13.72768 0.78031,-4.57496 -6.6955,-5.80452 -10.04465,-8.70536 -3.34914,-2.90085 -8.25799,4.90977 -12.38839,7.36607 -4.1304,2.4563 -20.75799,0.89192 -31.13839,1.33929 -10.38041,0.44736 -12.05263,-7.1438 -18.08036,-10.71429 -6.02772,-3.57049 -8.03478,3.79371 -12.05357,5.69197 -4.0188,1.89826 -0.22228,10.71334 -0.33482,16.07143 -0.11254,5.35807 -1.78478,17.18656 -2.67857,25.78125 -0.8938,8.59468 6.02772,-0.67059 9.04018,-1.00447 3.01245,-0.33389 8.48308,-8.03665 12.72321,-12.05358 4.24014,-4.01691 8.25987,-7.367 12.38839,-11.0491 4.12853,-3.6821 8.7063,0.89192 13.05804,1.33929 4.35174,0.44736 0.44736,6.69549 0.66964,10.04464 0.22228,3.34916 -11.15977,6.47228 -16.74107,9.70982 -5.58129,3.23755 -1.56156,11.6062 -2.34375,17.41072 -0.78219,5.8045 -8.70442,5.57942 -13.05804,8.37053 -4.35361,2.79112 -7.36513,0.66871 -11.0491,1.00447 -3.68397,0.33575 -1.56157,14.7312 -2.34375,22.09821 -0.78219,7.36701 13.17058,-0.22415 19.75446,-0.33482 6.58389,-0.11067 12.05451,-14.28665 18.08036,-21.42857 6.02584,-7.14193 2.67951,-8.92951 4.01786,-13.39286 1.33835,-4.46335 17.18843,-7.36701 25.78125,-11.04911 8.59281,-3.6821 9.59915,-15.1795 14.39732,-22.76785 z"
         inkscape:path-effect="#path-effect4582"
         inkscape:connector-curvature="0"
         id="path4580"
         d="m 375.35631,261.07156 c 0.78474,-2.21618 1.59303,-4.43252 2.09774,-6.72872 0.50471,-2.2962 0.69914,-4.69202 0.24601,-6.99896 -0.46546,-2.3697 -1.63824,-4.62068 -3.42754,-6.24257 -1.7893,-1.6219 -4.20491,-2.57864 -6.61711,-2.46279 -2.4438,0.11737 -4.72355,1.28821 -6.70004,2.73022 -1.9765,1.44201 -3.72921,3.17035 -5.68835,4.63585 -4.41189,3.30023 -9.84964,5.19249 -15.35508,5.4079 -5.50544,0.21542 -11.05646,-1.23786 -15.78331,-4.06861 -3.03341,-1.8166 -5.70748,-4.16559 -8.5715,-6.23899 -2.86402,-2.0734 -6.01863,-3.90969 -9.50886,-4.4753 -2.35824,-0.38216 -4.83643,-0.15353 -7.02046,0.81465 -2.18402,0.96818 -4.05231,2.69893 -5.03311,4.87732 -1.11107,2.46773 -1.03987,5.29485 -0.75166,7.98578 0.2882,2.69092 0.77266,5.40283 0.41684,8.08565 -0.31224,2.35427 -1.25991,4.57616 -2.32472,6.69895 -1.06482,2.12279 -2.25937,4.18772 -3.12098,6.40079 -0.86162,2.21307 -1.38313,4.61936 -1.03029,6.96788 0.17642,1.17426 0.57347,2.32124 1.2136,3.32137 0.64013,1.00012 1.52759,1.84969 2.58382,2.39226 1.40508,0.72177 3.05733,0.87522 4.61772,0.62953 1.56039,-0.2457 3.03965,-0.87045 4.42246,-1.634 5.14664,-2.84183 8.97799,-7.52178 12.72321,-12.05358 3.55622,-4.3031 7.32187,-8.70524 12.38839,-11.0491 2.12181,-0.98158 4.45981,-1.57302 6.79323,-1.42892 2.33341,0.14409 4.65917,1.06894 6.26481,2.76821 1.25003,1.32293 2.02539,3.08674 2.14859,4.90265 0.1232,1.81592 -0.40793,3.67038 -1.47895,5.14199 -0.96634,1.32777 -2.33425,2.32144 -3.79935,3.06324 -1.4651,0.7418 -3.03554,1.24858 -4.59739,1.75592 -1.56185,0.50733 -3.1305,1.02153 -4.58875,1.77671 -1.45825,0.75517 -2.81371,1.76872 -3.75558,3.11395 -0.8521,1.21701 -1.33572,2.66339 -1.57084,4.13033 -0.23511,1.46695 -0.23139,2.9615 -0.17728,4.44617 0.10822,2.96936 0.40236,6.03551 -0.59563,8.83422 -0.91845,2.57566 -2.89346,4.7008 -5.25177,6.08497 -2.35831,1.38417 -5.08055,2.06651 -7.80627,2.28556 -3.70126,0.29744 -7.54123,-0.21316 -11.0491,1.00447 -2.16456,0.75135 -4.0961,2.15259 -5.49707,3.96563 -1.40097,1.81304 -2.2685,4.03011 -2.48881,6.31075 -0.22031,2.28063 0.20495,4.61766 1.19755,6.68274 0.99259,2.06509 2.54788,3.85365 4.44458,5.13909 2.85765,1.9367 6.41641,2.69109 9.86272,2.49135 3.44631,-0.19975 6.79241,-1.30595 9.89174,-2.82617 8.65824,-4.24686 15.69406,-12.08477 18.08036,-21.42857 0.58095,-2.27476 0.89025,-4.61005 1.40735,-6.90017 0.5171,-2.29012 1.26093,-4.57158 2.61051,-6.49269 1.36951,-1.94947 3.31378,-3.44717 5.43282,-4.53605 2.11904,-1.08889 4.41635,-1.78863 6.7304,-2.35534 4.6281,-1.13342 9.48025,-1.79493 13.61803,-4.15772 3.98907,-2.27787 7.00108,-5.98894 9.20116,-10.02144 2.20008,-4.03249 3.66287,-8.41624 5.19616,-12.74641 z"
         style="opacity:1;vector-effect:none;fill:none;fill-opacity:1;stroke:#000000;stroke-width:4.00031233;stroke-linecap:butt;stroke-linejoin:miter;stroke-miterlimit:4;stroke-dasharray:none;stroke-dashoffset:0;stroke-opacity:1" />
      <path
         inkscape:original-d="m 418.21346,349.46441 c 0.55709,-10.37853 -2.45443,-12.50093 -3.68305,-18.75 -1.22861,-6.24906 -6.02585,-10.04557 -9.04017,-15.06696 -3.01433,-5.02139 -4.68656,1.11513 -7.03125,1.67411 -2.34469,0.55897 1.78665,10.71334 2.67857,16.07143 0.89192,5.35807 9.4e-4,20.31156 0,30.46875 -9.4e-4,10.15718 -6.6955,12.94549 -10.04465,19.41964 -3.34914,6.47415 -10.0437,-8.03666 -15.06695,-12.05357 -5.02327,-4.01693 -1.56157,-30.5813 -2.34375,-45.87054 -0.7822,-15.28924 -9.8205,-9.82236 -14.73215,-14.73214 -4.91165,-4.90978 -5.80264,6.47227 -8.70536,9.70982 -2.90272,3.23754 9.59915,27.45442 14.39732,41.18304 4.79818,13.72861 -2.45442,42.8562 -3.68303,64.28571 -1.22862,21.42951 -12.27585,43.52585 -18.41518,65.29018 -6.13933,21.76433 6.69737,16.51692 10.04464,24.77678 3.34727,8.25987 21.20629,1.78478 31.80804,2.67858 10.60174,0.89379 6.69736,-22.99201 10.04464,-34.48661 3.34728,-11.4946 -10.93656,-6.92058 -16.40625,-10.37947 -5.46969,-3.45888 -0.89192,6.02585 -1.33929,9.04018 -0.44736,3.01434 -1.11513,10.93657 -1.6741,16.40625 -0.55898,5.46969 -8.258,6.02585 -12.3884,9.04019 -4.1304,3.01432 -8.4812,-11.16166 -12.72321,-16.74108 -4.24201,-5.57942 15.17951,-27.90272 22.76786,-41.85268 7.58835,-13.94996 16.96522,-15.84915 25.44642,-23.77232 8.48121,-7.92317 12.27773,-30.13486 18.41518,-45.20089 6.13746,-15.06603 1.11702,-20.75987 1.67412,-31.1384 z"
         inkscape:path-effect="#path-effect4586"
         inkscape:connector-curvature="0"
         id="path4584"
         d="m 418.21346,349.46441 c -0.76716,-6.32558 -2.38757,-12.51115 -3.68305,-18.75 -0.62701,-3.01958 -1.19116,-6.09418 -2.52398,-8.8753 -0.66641,-1.39056 -1.52545,-2.69851 -2.61771,-3.78697 -1.09226,-1.08845 -2.42413,-1.95297 -3.89848,-2.40469 -1.21605,-0.37258 -2.52704,-0.4587 -3.76908,-0.18497 -1.24204,0.27373 -2.41021,0.91475 -3.26217,1.85908 -0.9705,1.07573 -1.49975,2.50583 -1.62696,3.94905 -0.1272,1.44321 0.1284,2.90096 0.58119,4.2772 0.90558,2.75248 2.57372,5.1858 3.72434,7.84518 2.04438,4.72509 2.39176,10.02541 2.02803,15.16094 -0.36373,5.13553 -1.40499,10.19725 -2.02803,15.30781 -0.47179,3.86991 -0.71695,7.82714 -2.09794,11.47291 -0.69049,1.82289 -1.66883,3.55358 -3.00605,4.97187 -1.33722,1.41829 -3.04659,2.5142 -4.94066,2.97486 -1.72429,0.41937 -3.56196,0.30168 -5.25125,-0.24176 -1.68929,-0.54344 -3.2318,-1.50296 -4.53559,-2.70678 -2.60757,-2.40764 -4.22059,-5.71776 -5.28011,-9.10503 -2.29498,-7.33702 -2.22323,-15.18409 -1.88927,-22.86441 0.33397,-7.68031 0.90413,-15.43956 -0.45448,-23.00613 -0.68576,-3.81924 -1.91925,-7.65895 -4.42888,-10.61844 -1.25482,-1.47975 -2.82041,-2.71319 -4.60624,-3.4715 -1.78583,-0.75831 -3.79545,-1.02718 -5.69703,-0.6422 -2.24805,0.45512 -4.26116,1.8074 -5.72904,3.56984 -1.46788,1.76243 -2.41663,3.91566 -2.97632,6.13998 -0.90906,3.61279 -0.82094,7.43229 -0.0768,11.08262 0.74414,3.65033 2.12887,7.145 3.78301,10.48304 3.30828,6.67607 7.70663,12.7904 10.6911,19.61738 4.41158,10.09148 5.54886,21.41253 4.48867,32.37501 -1.06019,10.96248 -4.24118,21.62231 -8.1717,31.9107 -4.07153,10.65748 -8.9613,20.99828 -12.7184,31.77063 -3.75709,10.77235 -6.38212,22.13142 -5.69678,33.51955 0.27402,4.55341 1.08354,9.09703 2.69941,13.36289 1.61586,4.26587 4.05664,8.2526 7.34523,11.41389 4.16559,4.00435 9.68769,6.60161 15.44173,7.12893 5.75403,0.52731 11.69868,-1.04444 16.36631,-4.45035 5.1156,-3.73279 8.54589,-9.50726 10.08064,-15.65117 1.53474,-6.14392 1.27172,-12.63923 -0.036,-18.83544 -0.42189,-1.99899 -0.95465,-3.98645 -1.8069,-5.84323 -0.85225,-1.85677 -2.03793,-3.58647 -3.61702,-4.88277 -1.57909,-1.2963 -3.57162,-2.13707 -5.61463,-2.14408 -1.0215,-0.004 -2.04623,0.20079 -2.97682,0.62207 -0.9306,0.42127 -1.76499,1.06123 -2.39088,1.86854 -0.95702,1.23443 -1.3935,2.80657 -1.5172,4.36361 -0.1237,1.55705 0.0435,3.12042 0.17791,4.67657 0.478,5.53363 0.50684,11.29811 -1.6741,16.40625 -1.06794,2.50131 -2.67335,4.80494 -4.81905,6.47618 -2.1457,1.67124 -4.85197,2.67764 -7.56935,2.56401 -1.92563,-0.0805 -3.81333,-0.71695 -5.44513,-1.7425 -1.6318,-1.02555 -3.0108,-2.43246 -4.08173,-4.03485 -2.14186,-3.20477 -3.02539,-7.1129 -3.19635,-10.96373 -0.36427,-8.20514 2.34983,-16.34507 6.6187,-23.36175 4.26886,-7.01668 10.03602,-13.00581 16.14916,-18.49093 8.65234,-7.76347 18.16159,-14.71331 25.44642,-23.77232 10.30302,-12.81227 15.47009,-29.02582 18.41518,-45.20089 1.86911,-10.26557 2.93037,-20.77996 1.67412,-31.1384 z"
         style="opacity:1;vector-effect:none;fill:none;fill-opacity:1;stroke:#000000;stroke-width:4.00031233;stroke-linecap:butt;stroke-linejoin:miter;stroke-miterlimit:4;stroke-dasharray:none;stroke-dashoffset:0;stroke-opacity:1" />
      <path
         inkscape:original-d="m 455.04381,375.58049 c 3.01246,-9.37406 -0.89192,-32.59023 -1.33929,-48.88393 -0.44736,-16.29371 16.96523,-18.75094 25.44644,-28.125 8.4812,-9.37407 12.0545,-13.84023 18.08035,-20.75893 6.02585,-6.91871 -7.81156,-22.09916 -11.71875,-33.14732 -3.90719,-11.04818 -18.74906,5.13299 -28.125,7.70088 -9.37594,2.56791 -24.10621,2.45443 -36.16072,3.68305 -12.0545,1.22861 -9.82049,-1.56344 -14.73213,-2.34375 -4.91166,-0.78032 -5.133,11.38298 -7.7009,17.07589 -2.5679,5.6929 5.80451,15.40084 8.70535,23.10268 2.90085,7.70182 18.97416,-3.12595 28.45983,-4.6875 9.48567,-1.56157 12.05451,-13.61701 18.08035,-20.42412 6.02585,-6.80709 14.9563,0.66871 22.43304,1.00447 7.47674,0.33577 -6.69549,6.24907 -10.04464,9.375 -3.34915,3.12594 -13.83835,22.76693 -20.75893,34.15178 -6.92058,11.38487 -2.90085,29.46336 -4.35268,44.19644 -1.45183,14.73308 -3.57049,32.14192 -5.35714,48.21428 -1.78665,16.07237 -10.71335,16.0705 -16.07143,24.10715 -5.35809,8.03665 9.4e-4,36.15978 0,54.24107 -9.4e-4,18.0813 -4.24014,33.48121 -6.3616,50.22321 -2.12148,16.74201 -2.23122,11.15978 -3.34822,16.74107 -1.11701,5.5813 4.01879,5.57942 6.02678,8.37054 2.008,2.79111 3.57237,-3.12594 5.35714,-4.6875 1.78479,-1.56156 2.4563,-12.50094 3.68305,-18.75 1.22673,-6.24906 4.01879,-36.38487 6.02678,-54.57589 2.00798,-18.19103 -4.68656,-22.54558 -7.03125,-33.81697 -2.34469,-11.27138 14.50987,-29.24201 21.76339,-43.8616 7.25353,-14.6196 6.02772,-18.75094 9.04018,-28.125 z"
         inkscape:path-effect="#path-effect4590"
         inkscape:connector-curvature="0"
         id="path4588"
         d="m 455.04381,375.58049 c 0.38219,-8.21108 -1.34939,-16.3504 -2.47557,-24.49285 -1.12618,-8.14245 -1.61614,-16.64563 1.13628,-24.39108 2.14645,-6.04021 6.15772,-11.26652 10.73131,-15.75803 4.57358,-4.49151 9.73518,-8.33071 14.71513,-12.36697 7.1942,-5.83091 14.21928,-12.34179 18.08035,-20.75893 2.78757,-6.07691 3.75672,-13.13946 1.80931,-19.53532 -0.9737,-3.19793 -2.66611,-6.18911 -4.99396,-8.58827 -2.32785,-2.39916 -5.29606,-4.19311 -8.5341,-5.02373 -4.81416,-1.23493 -9.95132,-0.31197 -14.61205,1.41397 -4.66072,1.72594 -8.99005,4.22667 -13.51295,6.28691 -11.2817,5.13895 -24.3543,7.46379 -36.16072,3.68305 -2.41942,-0.77477 -4.76193,-1.79576 -7.22617,-2.41335 -2.46423,-0.61759 -5.12288,-0.81063 -7.50596,0.0696 -1.56503,0.57807 -2.94856,1.60232 -4.04019,2.86399 -1.09164,1.26167 -1.89796,2.75568 -2.45559,4.32811 -1.11526,3.14486 -1.24004,6.54722 -1.20512,9.88379 0.0448,4.27634 0.34174,8.59821 1.61657,12.68036 1.27482,4.08214 3.60577,7.94084 7.08878,10.42232 2.11281,1.50528 4.59651,2.46492 7.15787,2.8764 2.56135,0.41148 5.1982,0.28207 7.73209,-0.27401 5.06779,-1.11215 9.6467,-3.89458 13.56987,-7.28989 6.88278,-5.95672 11.89412,-13.74686 18.08035,-20.42412 1.71038,-1.84614 3.52517,-3.61911 5.61567,-5.02036 2.09049,-1.40124 4.47973,-2.42322 6.98661,-2.64505 2.50688,-0.22183 5.13569,0.40957 7.08751,1.99829 0.97591,0.79436 1.77068,1.81735 2.26175,2.97591 0.49108,1.15856 0.67337,2.45206 0.4815,3.69568 -0.18125,1.17478 -0.68987,2.28597 -1.38485,3.25031 -0.69498,0.96435 -1.57266,1.78704 -2.52441,2.49917 -1.9035,1.42425 -4.09229,2.40995 -6.13538,3.62552 -5.88462,3.50115 -10.49091,8.89638 -13.79665,14.89296 -3.30575,5.99657 -5.37915,12.59695 -6.96228,19.25882 -3.43174,14.44092 -4.64468,29.35623 -4.35268,44.19644 0.16098,8.18149 0.77545,16.36672 0.36033,24.53925 -0.41512,8.17254 -1.91115,16.43109 -5.71747,23.67503 -4.50027,8.56462 -12.01055,15.32567 -16.07143,24.10715 -3.84814,8.32144 -4.29029,17.83142 -3.49212,26.96473 0.79816,9.13332 2.76401,18.13718 3.49212,27.27634 1.3477,16.91613 -1.58355,33.94003 -6.3616,50.22321 -1.60911,5.48371 -3.44641,11.027 -3.34822,16.74107 0.0331,1.92821 0.30932,3.91332 1.29521,5.57076 0.49295,0.82873 1.16173,1.56115 1.98001,2.07124 0.81828,0.51009 1.78929,0.79024 2.75156,0.72854 1.24317,-0.0797 2.4037,-0.72221 3.29154,-1.59603 0.88785,-0.87382 1.52845,-1.96751 2.0656,-3.09147 2.76114,-5.77759 2.95582,-12.38796 3.68305,-18.75 1.04437,-9.13657 3.27713,-18.09021 4.88904,-27.1439 1.61192,-9.05369 2.60117,-18.35311 1.13774,-27.43199 -0.91959,-5.70501 -2.7885,-11.20542 -4.37261,-16.7627 -1.58411,-5.55729 -2.8974,-11.28055 -2.65864,-17.05427 0.34157,-8.25991 3.84055,-16.08249 8.14351,-23.14134 4.30297,-7.05885 9.45509,-13.57901 13.61988,-20.72026 5.0095,-8.58966 8.57784,-18.19205 9.04018,-28.125 z"
         style="opacity:1;vector-effect:none;fill:none;fill-opacity:1;stroke:#000000;stroke-width:4.00031233;stroke-linecap:butt;stroke-linejoin:miter;stroke-miterlimit:4;stroke-dasharray:none;stroke-dashoffset:0;stroke-opacity:1" />
      <path
         inkscape:original-d="m 531.04828,301.25013 c -1.00541,10.04558 -4.01693,11.15977 -6.02679,16.74107 -2.00987,5.58129 -8.92763,4.90978 -13.39286,7.36607 -4.46522,2.45629 -11.38299,2.67763 -17.07589,4.01786 -5.6929,1.34022 2.90273,-7.59023 4.35267,-11.38393 1.44996,-3.79371 12.27773,-20.75986 18.41518,-31.13839 6.13746,-10.37853 -2.90085,-23.66166 -4.35268,-35.49108 -1.45182,-11.82941 -5.57942,-12.27772 -8.37053,-18.41517 -2.79112,-6.13746 3.79558,-5.35809 5.69196,-8.03572 1.89639,-2.67763 4.46523,7.81156 6.69644,11.71875 2.2312,3.90719 11.38486,22.99014 17.07588,34.4866 5.69103,11.49648 -2.00798,20.08836 -3.01338,30.13394 z"
         inkscape:path-effect="#path-effect4594"
         inkscape:connector-curvature="0"
         id="path4592"
         d="m 531.04828,301.25013 c -0.52833,2.97216 -0.90193,5.98135 -1.72881,8.88465 -0.82688,2.90329 -2.14718,5.73819 -4.29798,7.85642 -1.82362,1.796 -4.14793,2.98883 -6.48654,4.02909 -2.3386,1.04025 -4.74617,1.96404 -6.90632,3.33698 -2.79539,1.77669 -5.13331,4.27886 -8.14493,5.65762 -1.50581,0.68939 -3.185,1.07796 -4.82693,0.86169 -0.82097,-0.10814 -1.62494,-0.36791 -2.33768,-0.78944 -0.71274,-0.42152 -1.3324,-1.00677 -1.76635,-1.71201 -0.57681,-0.93742 -0.81053,-2.06497 -0.74903,-3.16392 0.0615,-1.09894 0.40773,-2.17032 0.91589,-3.14666 1.01631,-1.95268 2.64199,-3.50412 4.18581,-5.07335 8.55978,-8.70065 15.5059,-19.28482 18.41518,-31.13839 2.90789,-11.84789 1.54567,-24.81223 -4.35268,-35.49108 -1.6483,-2.98421 -3.6279,-5.77595 -5.26802,-8.76466 -1.64013,-2.98871 -2.95226,-6.24466 -3.10251,-9.65051 -0.0812,-1.84054 0.20105,-3.74853 1.1626,-5.32003 0.48078,-0.78575 1.12834,-1.47534 1.90978,-1.96308 0.78145,-0.48774 1.69855,-0.76838 2.61958,-0.75261 1.2321,0.0211 2.42218,0.57346 3.33519,1.40106 0.91301,0.8276 1.56372,1.91525 2.00293,3.0666 0.87842,2.3027 0.936,4.82298 1.35832,7.25109 1.10653,6.36194 4.68924,11.98212 8.27309,17.35378 3.58385,5.37165 7.3191,10.84813 8.80279,17.13282 1.16966,4.95452 0.86458,10.14829 0.0389,15.1716 -0.82571,5.0233 -2.16128,9.9502 -3.05224,14.96234 z"
         style="opacity:1;vector-effect:none;fill:none;fill-opacity:1;stroke:#000000;stroke-width:4.00031233;stroke-linecap:butt;stroke-linejoin:miter;stroke-miterlimit:4;stroke-dasharray:none;stroke-dashoffset:0;stroke-opacity:1" />
      <path
         sodipodi:nodetypes="ssscccssscsssccscccsccsss"
         inkscape:original-d="m 456.04827,547.6787 c 8.59282,-23.10174 5.80452,-39.28665 8.70536,-58.92857 2.90085,-19.64192 -1.56156,-10.49201 -2.34375,-15.73661 -0.78219,-5.2446 -3.79371,-1.34022 -5.69197,-2.00893 -1.89825,-0.66871 -6.24905,5.13299 -9.375,7.7009 -3.12593,2.5679 0.44738,9.15084 0.66965,13.72767 0.22228,4.57683 -1.78478,39.95442 -2.67857,59.93304 -0.89379,19.97862 -27.67763,45.9812 -41.51786,68.97321 -13.84022,22.99201 -16.07049,18.07943 -24.10714,27.12054 -8.03665,9.04112 6.36254,19.41871 5.69196,28.12501 -0.67059,8.70629 -17.24237,41.2937 -21.26116,60.60267 -4.0188,19.30898 -7.86736,8.03477 -3.85044,24.44196 4.01691,16.40719 27.6795,37.49907 32.81249,46.20536 5.13299,8.7063 2.67951,-0.44737 4.01787,-0.66964 1.33834,-0.22228 2.90271,-5.13486 4.35267,-7.70089 1.44995,-2.56603 5.80451,-9.37594 8.70536,-14.0625 2.90085,-4.68657 25.67058,-28.57237 38.50447,-42.85714 12.83387,-14.28478 -2.67764,-11.16165 -4.01787,-16.74108 -1.34022,-5.57942 -16.2937,2.00799 -24.44196,3.0134 -8.14826,1.0054 -19.19549,25.22227 -28.79464,37.83482 -9.59916,12.61254 -6.47228,-12.72416 -9.70983,-19.08482 -3.23754,-6.36067 8.7063,-23.66166 13.05805,-35.49107 4.35173,-11.82942 4.91164,-40.62595 7.36606,-60.9375 2.45443,-20.31157 18.75094,-22.7688 28.125,-34.15179 9.37407,-11.38299 17.18844,-46.2063 25.78125,-69.30804 z"
         inkscape:path-effect="#path-effect4598"
         inkscape:connector-curvature="0"
         id="path4596"
         d="m 456.04827,547.6787 c 3.06685,-19.61979 5.01744,-39.41599 8.70536,-58.92857 0.51698,-2.73532 1.07062,-5.50059 0.90222,-8.27924 -0.0842,-1.38932 -0.352,-2.77465 -0.87904,-4.06289 -0.52703,-1.28823 -1.31919,-2.47821 -2.36693,-3.39448 -1.55008,-1.35559 -3.63342,-2.06154 -5.69197,-2.00893 -2.15906,0.0552 -4.26958,0.92636 -5.91412,2.32638 -1.64454,1.40002 -2.82808,3.30954 -3.46088,5.37452 -0.67855,2.21427 -0.73638,4.57868 -0.50685,6.88318 0.22952,2.3045 0.7386,4.57036 1.1765,6.84449 3.81137,19.79332 2.21081,40.37809 -2.67857,59.93304 -6.63204,26.52467 -19.91155,52.21882 -41.51786,68.97321 -4.91435,3.81078 -10.2219,7.13779 -14.77497,11.37364 -4.55306,4.23585 -8.3969,9.59888 -9.33217,15.7469 -0.72489,4.76511 0.34334,9.6194 1.75816,14.22701 1.41482,4.60761 3.18929,9.13591 3.9338,13.898 1.68001,10.74579 -2.03172,21.61833 -6.86928,31.35961 -4.83755,9.74127 -10.87695,18.95036 -14.39188,29.24306 -2.67731,7.83993 -3.82337,16.15753 -3.85044,24.44196 -0.0342,10.4734 1.81177,21.22234 7.29599,30.14516 2.74211,4.4614 6.37832,8.40491 10.76069,11.27165 4.38236,2.86674 9.52145,4.63106 14.75581,4.78855 1.37227,0.0413 2.79837,-0.039 4.01787,-0.66964 1.34831,-0.69722 2.29555,-1.99855 2.92004,-3.38205 0.6245,-1.38349 0.97098,-2.87283 1.43263,-4.31884 1.69032,-5.29448 4.92733,-9.98632 8.70536,-14.0625 6.65355,-7.17862 14.96551,-12.57744 22.37761,-18.96988 3.70604,-3.19622 7.20907,-6.66607 10.07457,-10.63338 2.86549,-3.96731 5.08505,-8.45648 6.05229,-13.25388 0.59098,-2.93122 0.70727,-5.9823 0.0911,-8.90833 -0.61614,-2.92604 -1.98943,-5.72353 -4.10899,-7.83275 -1.64028,-1.63227 -3.70265,-2.82743 -5.91939,-3.49146 -2.21673,-0.66404 -4.58339,-0.80066 -6.87076,-0.45032 -4.57476,0.70069 -8.744,3.35463 -11.65181,6.95518 -2.72844,3.37845 -4.37725,7.49635 -5.66328,11.64418 -1.28603,4.14782 -2.25187,8.40087 -3.81731,12.45151 -1.56543,4.05065 -3.79787,7.95847 -7.15527,10.71276 -1.67871,1.37714 -3.62564,2.44504 -5.72286,3.00739 -2.09722,0.56235 -4.34607,0.60815 -6.43592,0.019 -1.86947,-0.52704 -3.58532,-1.55344 -4.99307,-2.89171 -1.40775,-1.33826 -2.51118,-2.98285 -3.29435,-4.7603 -1.56634,-3.55491 -1.83894,-7.57052 -1.42241,-11.43281 0.67836,-6.29008 3.09379,-12.25404 5.73637,-18.00227 2.64258,-5.74822 5.55174,-11.41487 7.32168,-17.4888 2.87933,-9.88104 2.61687,-20.3583 2.6742,-30.65015 0.0573,-10.29186 0.52295,-20.87748 4.69186,-30.28735 3.0015,-6.77486 7.78509,-12.60196 12.87344,-17.98866 5.08834,-5.38669 10.54823,-10.43719 15.25156,-16.16313 15.83871,-19.28241 21.92746,-44.65395 25.78125,-69.30804 z"
         style="opacity:1;vector-effect:none;fill:none;fill-opacity:1;stroke:#000000;stroke-width:4.00031233;stroke-linecap:butt;stroke-linejoin:miter;stroke-miterlimit:4;stroke-dasharray:none;stroke-dashoffset:0;stroke-opacity:1" />
      <path
         inkscape:original-d="m 465.42327,705.71441 c -5.46968,-12.72227 -6.69549,-14.06343 -10.04464,-21.09375 -3.34916,-7.03031 1.78666,-20.75986 2.67858,-31.13838 0.89191,-10.37853 3.79558,-12.27773 5.69195,-18.41518 1.89639,-6.13746 -1.11513,-4.91166 -1.6741,-7.36607 -0.55898,-2.45443 -2.2312,0.22227 -3.34822,0.33482 -1.117,0.11254 -8.92763,12.94548 -13.39285,19.41964 -4.46523,6.47415 -17.85621,32.81157 -26.78572,49.21875 -8.92951,16.40719 -1.56156,6.69549 -2.34375,10.04464 -0.78218,3.34915 4.68844,0.22228 7.03125,0.33482 2.34282,0.11255 10.2688,-1.78665 15.40179,-2.67857 5.13299,-0.89192 20.09022,7.36513 30.13393,11.04911 10.0437,3.68397 2.23308,8.70442 3.34822,13.05804 1.11512,4.35361 -2.45443,30.13298 -3.68305,45.20089 -1.22861,15.0679 5.58131,11.60621 8.37055,17.41071 2.78924,5.80451 5.13486,-3.34915 7.70088,-5.02232 2.56604,-1.67317 2.90273,-12.27772 4.35269,-18.41518 1.44995,-6.13746 -4.68657,-15.84915 -7.03126,-23.77232 -2.34468,-7.92317 -10.93656,-25.44737 -16.40625,-38.16965 z"
         inkscape:path-effect="#path-effect4602"
         inkscape:connector-curvature="0"
         id="path4600"
         d="m 465.42327,705.71441 c -3.73524,-6.86158 -8.13698,-13.51786 -10.04464,-21.09375 -2.57562,-10.22854 -0.33001,-21.02872 2.67858,-31.13838 1.83268,-6.15827 3.94757,-12.23132 5.69195,-18.41518 0.37805,-1.34018 0.74198,-2.72468 0.58545,-4.10833 -0.0783,-0.69183 -0.29058,-1.37493 -0.67072,-1.95824 -0.38014,-0.5833 -0.93422,-1.06236 -1.58883,-1.2995 -0.53961,-0.19548 -1.13036,-0.22284 -1.69875,-0.14332 -0.56839,0.0795 -1.11759,0.2625 -1.64947,0.47814 -3.76409,1.52611 -6.68144,4.6761 -8.72682,8.1852 -2.04539,3.5091 -3.32082,7.40198 -4.66603,11.23444 -6.22445,17.73327 -14.40471,35.07933 -26.78572,49.21875 -1.26596,1.44575 -2.60289,2.90273 -3.27409,4.70337 -0.3356,0.90033 -0.49286,1.87869 -0.35952,2.83023 0.13333,0.95154 0.57111,1.87338 1.28986,2.51104 0.4587,0.40695 1.01993,0.69058 1.60998,0.8575 0.59004,0.16692 1.20879,0.21961 1.82152,0.1955 1.22545,-0.0482 2.41599,-0.39761 3.59975,-0.71818 5.03674,-1.36396 10.20159,-2.24608 15.40179,-2.67857 5.63122,-0.46834 11.39449,-0.39696 16.8067,1.22724 5.41221,1.62421 10.4761,4.94324 13.32723,9.82187 2.28764,3.91443 3.02118,8.53598 3.34822,13.05804 1.09247,15.10573 -1.86871,30.16478 -3.68305,45.20089 -0.44014,3.64757 -0.79962,7.43896 0.37769,10.91924 0.58866,1.74015 1.57038,3.36966 2.95829,4.57312 1.38791,1.20346 3.19795,1.95632 5.03457,1.91835 1.59129,-0.0329 3.13635,-0.6503 4.43266,-1.57381 1.2963,-0.92351 2.35928,-2.14195 3.26822,-3.44851 3.67453,-5.28195 4.86937,-12.00158 4.35269,-18.41518 -0.66625,-8.27025 -3.95914,-16.06498 -7.03126,-23.77232 -5.13132,-12.87346 -9.78028,-25.99784 -16.40625,-38.16965 z"
         style="opacity:1;vector-effect:none;fill:none;fill-opacity:1;stroke:#000000;stroke-width:4.00031233;stroke-linecap:butt;stroke-linejoin:miter;stroke-miterlimit:4;stroke-dasharray:none;stroke-dashoffset:0;stroke-opacity:1" />
      <path
         sodipodi:nodetypes="sscssssssscss"
         inkscape:original-d="m 494.21791,836.6296 c 12.61068,-1.89639 12.27773,-29.0188 18.41518,-43.52679 6.13746,-14.50799 3.57238,-11.83129 5.35715,-17.74553 1.78478,-5.91425 5.13487,1.33834 7.70089,2.00892 2.56603,0.67058 -3.61808,8.2108 -3.06098,10.77871 0.5571,2.5679 -3.07648,36.65339 -6.98366,56.5204 -3.90719,19.86701 -23.65978,11.82943 -35.49108,17.74554 -11.83129,5.91611 -27.00799,-6.92058 -40.51339,-10.37947 -13.5054,-3.45888 -5.57941,-44.42058 -8.37053,-66.62946 -2.79112,-22.20888 12.50093,3.12406 18.75,4.6875 6.24906,1.56344 2.4563,8.4812 3.68303,12.72321 1.22674,4.24201 1.78665,26.33835 2.67857,39.50893 0.89192,13.17058 25.22415,-3.79558 37.83482,-5.69196 z"
         inkscape:path-effect="#path-effect4606"
         inkscape:connector-curvature="0"
         id="path4604"
         d="m 494.21791,836.6296 c 11.43737,-11.45469 18.7312,-27.34274 18.41518,-43.52679 -0.0641,-3.28262 -0.42875,-6.59555 0.13722,-9.82964 0.28298,-1.61705 0.80378,-3.20593 1.66534,-4.6033 0.86156,-1.39737 2.07672,-2.59787 3.55459,-3.31259 1.31998,-0.63836 2.85243,-0.87297 4.28057,-0.54094 1.42814,0.33204 2.73225,1.2551 3.42032,2.54986 0.46062,0.86675 0.63804,1.86832 0.59094,2.84873 -0.0471,0.98042 -0.31163,1.94175 -0.69119,2.84694 -0.75912,1.81037 -1.96356,3.39207 -2.96073,5.08304 -2.44651,4.1487 -3.62872,8.94622 -4.05885,13.74332 -0.43013,4.79709 -0.13841,9.6268 0.1864,14.43218 0.32482,4.80537 0.68264,9.62592 0.3839,14.43299 -0.29873,4.80707 -1.27917,9.63561 -3.49511,13.91191 -3.19683,6.16921 -8.84391,10.86423 -15.18679,13.70092 -6.34287,2.83669 -13.35708,3.9215 -20.30429,4.04462 -14.10501,0.24997 -28.24018,-3.42375 -40.51339,-10.37947 -6.19578,-3.51139 -11.95928,-7.87574 -16.61136,-13.26793 -4.65208,-5.39218 -8.16755,-11.84487 -9.64552,-18.81144 -1.47798,-6.96657 -0.84284,-14.44973 2.27524,-20.85247 3.11809,-6.40274 8.79903,-11.62082 15.61111,-13.69762 3.27291,-0.99782 6.798,-1.27262 10.13789,-0.52914 3.33988,0.74347 6.47906,2.54125 8.61211,5.21664 1.4029,1.7596 2.3494,3.85631 2.91675,6.03402 0.56736,2.17772 0.7649,4.43878 0.76628,6.68919 0.004,6.80775 -1.75958,13.49121 -2.28438,20.2787 -0.26239,3.39375 -0.21089,6.83688 0.52013,10.16134 0.73102,3.32445 2.16851,6.53633 4.44282,9.06889 2.39041,2.66184 5.64745,4.49065 9.11916,5.35475 3.47171,0.86409 7.14736,0.78636 10.63457,-0.0129 6.97441,-1.59853 13.02539,-5.97044 18.08109,-11.0338 z"
         style="opacity:1;vector-effect:none;fill:none;fill-opacity:1;stroke:#000000;stroke-width:4.00031233;stroke-linecap:butt;stroke-linejoin:miter;stroke-miterlimit:4;stroke-dasharray:none;stroke-dashoffset:0;stroke-opacity:1" />
      <path
         inkscape:original-d="m 317.4322,795.11174 c 5.80263,-7.92317 17.85809,9.82049 26.78571,14.73214 8.92764,4.91166 12.50094,20.9812 18.75,31.47322 6.24907,10.49201 21.87595,4.68656 32.8125,7.03125 10.93657,2.34469 -8.70441,-15.17952 -13.05803,-22.76786 -4.35361,-7.58835 -18.30264,-18.52772 -27.45536,-27.79018 -9.15272,-9.26245 -15.62406,-29.24201 -23.4375,-43.86161 -7.81343,-14.61959 -11.38299,-2.90272 -17.07589,-4.35267 -5.69291,-1.44996 -5.80263,10.26692 -8.70536,15.40178 -2.90272,5.13487 -5.80263,29.46335 -8.70536,44.19643 -2.90272,14.73308 -0.89192,20.31156 -1.33928,30.46875 -0.44737,10.15719 4.46522,11.38299 6.69643,17.07589 2.2312,5.69291 3.12593,-0.22414 4.6875,-0.33482 1.56156,-0.11067 -0.44549,-4.0188 -0.66965,-6.02678 -0.22415,-2.00799 -1.78477,-6.69737 -2.67857,-10.04465 -0.89379,-3.34728 -2.67763,-14.28665 -4.01785,-21.42857 -1.34022,-7.14192 11.60808,-15.84915 17.41071,-23.77232 z"
         inkscape:path-effect="#path-effect4610"
         inkscape:connector-curvature="0"
         id="path4608"
         d="m 317.4322,795.11174 c 5.29532,-0.91109 10.81559,0.64262 15.37285,3.48902 4.55725,2.84639 8.24145,6.90576 11.41286,11.24312 7.21203,9.86349 12.00309,21.28593 18.75,31.47322 1.91551,2.89227 3.99893,5.69548 6.49342,8.10628 2.49449,2.41079 5.42202,4.42681 8.70283,5.55407 3.28081,1.12726 6.93233,1.32436 10.21833,0.21232 3.286,-1.11204 6.15214,-3.60376 7.39792,-6.84142 0.84791,-2.20363 0.93043,-4.66464 0.42022,-6.96999 -0.5102,-2.30535 -1.59384,-4.46041 -2.98386,-6.36903 -2.78003,-3.81722 -6.70222,-6.61472 -10.49439,-9.42884 -10.52867,-7.8132 -20.78235,-16.50435 -27.45536,-27.79018 -4.25034,-7.18845 -6.90041,-15.1843 -10.10936,-22.89415 -3.20894,-7.70986 -7.13716,-15.36291 -13.32814,-20.96746 -2.31464,-2.09539 -4.96264,-3.89459 -7.94464,-4.81971 -2.98201,-0.92512 -6.33005,-0.9119 -9.13125,0.46704 -2.74106,1.34934 -4.75236,3.88457 -6.05558,6.64786 -1.30322,2.76329 -1.97388,5.77444 -2.64978,8.75392 -3.32373,14.65159 -7.013,29.26819 -8.70536,44.19643 -1.1458,10.10712 -1.36838,20.29693 -1.33928,30.46875 0.009,3.22936 0.0508,6.50828 0.96745,9.60483 0.45833,1.54827 1.13708,3.04021 2.0913,4.34277 0.95423,1.30256 2.19043,2.41227 3.63768,3.12829 0.75664,0.37434 1.58389,0.6425 2.428,0.63163 0.42205,-0.005 0.84484,-0.0815 1.23539,-0.24162 0.39056,-0.16008 0.74823,-0.40538 1.02411,-0.72483 0.35092,-0.40633 0.56124,-0.92352 0.64084,-1.45448 0.0796,-0.53095 0.0329,-1.07571 -0.0889,-1.59859 -0.24362,-1.04577 -0.77719,-1.9962 -1.22157,-2.97371 -1.43736,-3.16178 -1.955,-6.64769 -2.67857,-10.04465 -1.51774,-7.12537 -4.01136,-14.14336 -4.01785,-21.42857 -0.005,-5.33927 1.39758,-10.7428 4.41984,-15.14436 3.02226,-4.40156 7.72892,-7.72261 12.99087,-8.62796 z"
         style="opacity:1;vector-effect:none;fill:none;fill-opacity:1;stroke:#000000;stroke-width:4.00031233;stroke-linecap:butt;stroke-linejoin:miter;stroke-miterlimit:4;stroke-dasharray:none;stroke-dashoffset:0;stroke-opacity:1" />
      <path
         sodipodi:nodetypes="ccscsssscscc"
         inkscape:original-d="m 369.17112,679.97668 c 1.33836,-8.03478 -12.22906,-27.61142 -12.89963,-45.91405 -0.67059,-18.30263 15.40272,-21.87593 23.10267,-32.8125 7.69996,-10.93657 8.25987,-22.99201 12.3884,-34.4866 4.12852,-11.49461 -11.15978,-3.34916 -16.74107,-5.02233 -5.58129,-1.67317 -7.36514,10.04371 -11.04911,15.06696 -3.68398,5.02327 -9.82049,34.37407 -14.73214,51.5625 -4.91166,17.18845 8.72022,44.09374 9.05411,68.98308 0.33389,24.88933 -10.05764,14.16331 -11.06304,18.40532 -1.00541,4.24201 0.44736,3.12406 0.66964,4.6875 0.22228,1.56344 7.70182,1.11513 8.70535,0.33482 4.30596,-13.44587 10.09851,-26.89278 12.56482,-40.8047 z"
         inkscape:path-effect="#path-effect4614"
         inkscape:connector-curvature="0"
         id="path4612"
         d="m 369.17112,679.97668 c -1.62515,-7.86462 -5.33915,-15.10931 -8.40582,-22.5315 -3.06668,-7.42219 -5.54374,-15.4207 -4.49381,-23.38255 0.89387,-6.77847 4.30645,-13.01631 8.6003,-18.33698 4.29384,-5.32067 9.47103,-9.84602 14.50237,-14.47552 4.91711,-4.5244 9.82157,-9.31245 12.70872,-15.33844 1.44357,-3.013 2.35058,-6.31253 2.383,-9.65334 0.0324,-3.3408 -0.8388,-6.72253 -2.70332,-9.49482 -1.76965,-2.63123 -4.431,-4.66762 -7.45993,-5.60605 -3.02893,-0.93842 -6.40657,-0.75489 -9.28114,0.58372 -2.89231,1.34687 -5.17177,3.77027 -6.88475,6.46197 -1.71298,2.69169 -2.91613,5.66876 -4.16436,8.60499 -3.53463,8.31454 -7.50876,16.45597 -10.47934,24.98831 -2.97058,8.53234 -4.92971,17.56492 -4.2528,26.57419 0.89365,11.89392 6.26721,22.91101 9.86673,34.28235 1.79976,5.68567 3.17236,11.56 3.29278,17.52251 0.12041,5.9625 -1.06852,12.04564 -4.1054,17.17822 -1.84243,3.11387 -4.30916,5.80303 -6.47985,8.69766 -2.17068,2.89463 -4.0946,6.12269 -4.58319,9.70766 -0.21701,1.5923 -0.12368,3.28995 0.66964,4.6875 0.42839,0.75466 1.05201,1.3974 1.79341,1.84836 0.74139,0.45097 1.59892,0.70916 2.46606,0.74251 0.86713,0.0334 1.74196,-0.15821 2.5158,-0.5509 0.77384,-0.39268 1.445,-0.98562 1.93008,-1.70515 5.33214,-5.16626 9.33407,-11.69423 11.519,-18.78987 2.18493,-7.09563 2.54827,-14.74403 1.04582,-22.01483 z"
         style="opacity:1;vector-effect:none;fill:none;fill-opacity:1;stroke:#000000;stroke-width:4.00031233;stroke-linecap:butt;stroke-linejoin:miter;stroke-miterlimit:4;stroke-dasharray:none;stroke-dashoffset:0;stroke-opacity:1" />
    </g>
  </g>
  <g
     inkscape:groupmode="layer"
     id="layer3"
     inkscape:label="Layer 3"
     style="display:inline"
     transform="translate(-239.42721,-139.52261)">
    <path
       style="color:#000000;clip-rule:nonzero;display:inline;overflow:visible;visibility:visible;opacity:1;isolation:auto;mix-blend-mode:normal;color-interpolation:sRGB;color-interpolation-filters:linearRGB;solid-color:#000000;solid-opacity:1;fill:none;fill-opacity:1;fill-rule:evenodd;stroke:#000000;stroke-width:4;stroke-linecap:butt;stroke-linejoin:miter;stroke-miterlimit:4;stroke-dasharray:none;stroke-dashoffset:0;stroke-opacity:1;color-rendering:auto;image-rendering:auto;shape-rendering:auto;text-rendering:auto;enable-background:accumulate"
       d="m 273.42658,244.74851 6.81853,6.81853 6.31346,-6.31346"
       id="path4235-3"
       inkscape:connector-curvature="0" />
    <path
       style="color:#000000;clip-rule:nonzero;display:inline;overflow:visible;visibility:visible;opacity:1;isolation:auto;mix-blend-mode:normal;color-interpolation:sRGB;color-interpolation-filters:linearRGB;solid-color:#000000;solid-opacity:1;fill:none;fill-opacity:1;fill-rule:evenodd;stroke:#000000;stroke-width:4;stroke-linecap:butt;stroke-linejoin:miter;stroke-miterlimit:4;stroke-dasharray:none;stroke-dashoffset:0;stroke-opacity:1;color-rendering:auto;image-rendering:auto;shape-rendering:auto;text-rendering:auto;enable-background:accumulate"
       d="m 315.98407,235.40297 9.47357,-1.79893 -1.66568,-8.77183"
       id="path4235-3-8"
       inkscape:connector-curvature="0" />
    <path
       style="color:#000000;clip-rule:nonzero;display:inline;overflow:visible;visibility:visible;opacity:1;isolation:auto;mix-blend-mode:normal;color-interpolation:sRGB;color-interpolation-filters:linearRGB;solid-color:#000000;solid-opacity:1;fill:none;fill-opacity:1;fill-rule:evenodd;stroke:#000000;stroke-width:4;stroke-linecap:butt;stroke-linejoin:miter;stroke-miterlimit:4;stroke-dasharray:none;stroke-dashoffset:0;stroke-opacity:1;color-rendering:auto;image-rendering:auto;shape-rendering:auto;text-rendering:auto;enable-background:accumulate"
       d="m 346.6833,293.69412 -1.48583,9.52769 8.82195,1.37577"
       id="path4235-3-0"
       inkscape:connector-curvature="0" />
    <path
       style="color:#000000;clip-rule:nonzero;display:inline;overflow:visible;visibility:visible;opacity:1;isolation:auto;mix-blend-mode:normal;color-interpolation:sRGB;color-interpolation-filters:linearRGB;solid-color:#000000;solid-opacity:1;fill:none;fill-opacity:1;fill-rule:evenodd;stroke:#000000;stroke-width:4;stroke-linecap:butt;stroke-linejoin:miter;stroke-miterlimit:4;stroke-dasharray:none;stroke-dashoffset:0;stroke-opacity:1;color-rendering:auto;image-rendering:auto;shape-rendering:auto;text-rendering:auto;enable-background:accumulate"
       d="m 380.89651,262.02513 4.65312,8.44589 7.82029,-4.30845"
       id="path4235-3-87"
       inkscape:connector-curvature="0" />
    <path
       style="color:#000000;clip-rule:nonzero;display:inline;overflow:visible;visibility:visible;opacity:1;isolation:auto;mix-blend-mode:normal;color-interpolation:sRGB;color-interpolation-filters:linearRGB;solid-color:#000000;solid-opacity:1;fill:none;fill-opacity:1;fill-rule:evenodd;stroke:#000000;stroke-width:4;stroke-linecap:butt;stroke-linejoin:miter;stroke-miterlimit:4;stroke-dasharray:none;stroke-dashoffset:0;stroke-opacity:1;color-rendering:auto;image-rendering:auto;shape-rendering:auto;text-rendering:auto;enable-background:accumulate"
       d="m 413.30025,236.73644 -8.15174,5.15109 4.76953,7.54792"
       id="path4235-3-02"
       inkscape:connector-curvature="0" />
    <path
       style="color:#000000;clip-rule:nonzero;display:inline;overflow:visible;visibility:visible;opacity:1;isolation:auto;mix-blend-mode:normal;color-interpolation:sRGB;color-interpolation-filters:linearRGB;solid-color:#000000;solid-opacity:1;fill:none;fill-opacity:1;fill-rule:evenodd;stroke:#000000;stroke-width:4;stroke-linecap:butt;stroke-linejoin:miter;stroke-miterlimit:4;stroke-dasharray:none;stroke-dashoffset:0;stroke-opacity:1;color-rendering:auto;image-rendering:auto;shape-rendering:auto;text-rendering:auto;enable-background:accumulate"
       d="m 452.36934,246.78005 4.90177,-8.30405 -7.68895,-4.53868"
       id="path4235-3-2"
       inkscape:connector-curvature="0" />
    <path
       style="color:#000000;clip-rule:nonzero;display:inline;overflow:visible;visibility:visible;opacity:1;isolation:auto;mix-blend-mode:normal;color-interpolation:sRGB;color-interpolation-filters:linearRGB;solid-color:#000000;solid-opacity:1;fill:none;fill-opacity:1;fill-rule:evenodd;stroke:#000000;stroke-width:4;stroke-linecap:butt;stroke-linejoin:miter;stroke-miterlimit:4;stroke-dasharray:none;stroke-dashoffset:0;stroke-opacity:1;color-rendering:auto;image-rendering:auto;shape-rendering:auto;text-rendering:auto;enable-background:accumulate"
       d="m 477.68212,311.37498 3.0402,9.15106 8.47321,-2.815"
       id="path4235-3-04"
       inkscape:connector-curvature="0" />
    <path
       style="color:#000000;clip-rule:nonzero;display:inline;overflow:visible;visibility:visible;opacity:1;isolation:auto;mix-blend-mode:normal;color-interpolation:sRGB;color-interpolation-filters:linearRGB;solid-color:#000000;solid-opacity:1;fill:none;fill-opacity:1;fill-rule:evenodd;stroke:#000000;stroke-width:4;stroke-linecap:butt;stroke-linejoin:miter;stroke-miterlimit:4;stroke-dasharray:none;stroke-dashoffset:0;stroke-opacity:1;color-rendering:auto;image-rendering:auto;shape-rendering:auto;text-rendering:auto;enable-background:accumulate"
       d="m 399.87366,433.59219 1.95993,9.44158 8.74221,-1.81475"
       id="path4235-3-872"
       inkscape:connector-curvature="0" />
    <path
       style="color:#000000;clip-rule:nonzero;display:inline;overflow:visible;visibility:visible;opacity:1;isolation:auto;mix-blend-mode:normal;color-interpolation:sRGB;color-interpolation-filters:linearRGB;solid-color:#000000;solid-opacity:1;fill:none;fill-opacity:1;fill-rule:evenodd;stroke:#000000;stroke-width:4;stroke-linecap:butt;stroke-linejoin:miter;stroke-miterlimit:4;stroke-dasharray:none;stroke-dashoffset:0;stroke-opacity:1;color-rendering:auto;image-rendering:auto;shape-rendering:auto;text-rendering:auto;enable-background:accumulate"
       d="m 349.66153,384.90718 6.81853,6.81853 6.31346,-6.31346"
       id="path4235-3-27"
       inkscape:connector-curvature="0" />
    <path
       style="color:#000000;clip-rule:nonzero;display:inline;overflow:visible;visibility:visible;opacity:1;isolation:auto;mix-blend-mode:normal;color-interpolation:sRGB;color-interpolation-filters:linearRGB;solid-color:#000000;solid-opacity:1;fill:none;fill-opacity:1;fill-rule:evenodd;stroke:#000000;stroke-width:4;stroke-linecap:butt;stroke-linejoin:miter;stroke-miterlimit:4;stroke-dasharray:none;stroke-dashoffset:0;stroke-opacity:1;color-rendering:auto;image-rendering:auto;shape-rendering:auto;text-rendering:auto;enable-background:accumulate"
       d="m 379.86405,532.57609 -5.92606,7.60701 7.04353,5.48709"
       id="path4235-3-83"
       inkscape:connector-curvature="0" />
    <path
       style="color:#000000;clip-rule:nonzero;display:inline;overflow:visible;visibility:visible;opacity:1;isolation:auto;mix-blend-mode:normal;color-interpolation:sRGB;color-interpolation-filters:linearRGB;solid-color:#000000;solid-opacity:1;fill:none;fill-opacity:1;fill-rule:evenodd;stroke:#000000;stroke-width:4;stroke-linecap:butt;stroke-linejoin:miter;stroke-miterlimit:4;stroke-dasharray:none;stroke-dashoffset:0;stroke-opacity:1;color-rendering:auto;image-rendering:auto;shape-rendering:auto;text-rendering:auto;enable-background:accumulate"
       d="m 389.32635,622.75484 -0.75824,-9.613 -8.90093,0.70208"
       id="path4235-3-6"
       inkscape:connector-curvature="0" />
    <path
       style="color:#000000;clip-rule:nonzero;display:inline;overflow:visible;visibility:visible;opacity:1;isolation:auto;mix-blend-mode:normal;color-interpolation:sRGB;color-interpolation-filters:linearRGB;solid-color:#000000;solid-opacity:1;fill:none;fill-opacity:1;fill-rule:evenodd;stroke:#000000;stroke-width:4;stroke-linecap:butt;stroke-linejoin:miter;stroke-miterlimit:4;stroke-dasharray:none;stroke-dashoffset:0;stroke-opacity:1;color-rendering:auto;image-rendering:auto;shape-rendering:auto;text-rendering:auto;enable-background:accumulate"
       d="m 340.66487,675.16821 6.81853,6.81853 6.31346,-6.31346"
       id="path4235-3-01"
       inkscape:connector-curvature="0" />
    <path
       style="color:#000000;clip-rule:nonzero;display:inline;overflow:visible;visibility:visible;opacity:1;isolation:auto;mix-blend-mode:normal;color-interpolation:sRGB;color-interpolation-filters:linearRGB;solid-color:#000000;solid-opacity:1;fill:none;fill-opacity:1;fill-rule:evenodd;stroke:#000000;stroke-width:4;stroke-linecap:butt;stroke-linejoin:miter;stroke-miterlimit:4;stroke-dasharray:none;stroke-dashoffset:0;stroke-opacity:1;color-rendering:auto;image-rendering:auto;shape-rendering:auto;text-rendering:auto;enable-background:accumulate"
       d="m 345.28594,732.4182 -9.44636,1.93673 1.79327,8.74664"
       id="path4235-3-5"
       inkscape:connector-curvature="0"
       inkscape:transform-center-x="-3.3471678"
       inkscape:transform-center-y="4.0933398" />
    <path
       style="color:#000000;clip-rule:nonzero;display:inline;overflow:visible;visibility:visible;opacity:1;isolation:auto;mix-blend-mode:normal;color-interpolation:sRGB;color-interpolation-filters:linearRGB;solid-color:#000000;solid-opacity:1;fill:none;fill-opacity:1;fill-rule:evenodd;stroke:#000000;stroke-width:4;stroke-linecap:butt;stroke-linejoin:miter;stroke-miterlimit:4;stroke-dasharray:none;stroke-dashoffset:0;stroke-opacity:1;color-rendering:auto;image-rendering:auto;shape-rendering:auto;text-rendering:auto;enable-background:accumulate"
       d="m 433.48644,871.40597 9.09755,-3.19676 -2.95996,-8.42366"
       id="path4235-3-4"
       inkscape:connector-curvature="0" />
    <path
       style="color:#000000;clip-rule:nonzero;display:inline;overflow:visible;visibility:visible;opacity:1;isolation:auto;mix-blend-mode:normal;color-interpolation:sRGB;color-interpolation-filters:linearRGB;solid-color:#000000;solid-opacity:1;fill:none;fill-opacity:1;fill-rule:evenodd;stroke:#000000;stroke-width:4;stroke-linecap:butt;stroke-linejoin:miter;stroke-miterlimit:4;stroke-dasharray:none;stroke-dashoffset:0;stroke-opacity:1;color-rendering:auto;image-rendering:auto;shape-rendering:auto;text-rendering:auto;enable-background:accumulate"
       d="m 489.76647,794.46342 1.70985,9.49005 8.7871,-1.5832"
       id="path4235-3-63"
       inkscape:connector-curvature="0" />
    <path
       style="color:#000000;clip-rule:nonzero;display:inline;overflow:visible;visibility:visible;opacity:1;isolation:auto;mix-blend-mode:normal;color-interpolation:sRGB;color-interpolation-filters:linearRGB;solid-color:#000000;solid-opacity:1;fill:none;fill-opacity:1;fill-rule:evenodd;stroke:#000000;stroke-width:4;stroke-linecap:butt;stroke-linejoin:miter;stroke-miterlimit:4;stroke-dasharray:none;stroke-dashoffset:0;stroke-opacity:1;color-rendering:auto;image-rendering:auto;shape-rendering:auto;text-rendering:auto;enable-background:accumulate"
       d="m 539.35678,800.07367 -7.53606,-6.01603 -5.5704,6.97784"
       id="path4235-3-22"
       inkscape:connector-curvature="0" />
    <path
       style="color:#000000;clip-rule:nonzero;display:inline;overflow:visible;visibility:visible;opacity:1;isolation:auto;mix-blend-mode:normal;color-interpolation:sRGB;color-interpolation-filters:linearRGB;solid-color:#000000;solid-opacity:1;fill:none;fill-opacity:1;fill-rule:evenodd;stroke:#000000;stroke-width:4;stroke-linecap:butt;stroke-linejoin:miter;stroke-miterlimit:4;stroke-dasharray:none;stroke-dashoffset:0;stroke-opacity:1;color-rendering:auto;image-rendering:auto;shape-rendering:auto;text-rendering:auto;enable-background:accumulate"
       d="m 479.71221,675.88487 -6.75569,-6.8808 -6.37111,6.25528"
       id="path4235-3-7"
       inkscape:connector-curvature="0" />
    <path
       style="color:#000000;clip-rule:nonzero;display:inline;overflow:visible;visibility:visible;opacity:1;isolation:auto;mix-blend-mode:normal;color-interpolation:sRGB;color-interpolation-filters:linearRGB;solid-color:#000000;solid-opacity:1;fill:none;fill-opacity:1;fill-rule:evenodd;stroke:#000000;stroke-width:4;stroke-linecap:butt;stroke-linejoin:miter;stroke-miterlimit:4;stroke-dasharray:none;stroke-dashoffset:0;stroke-opacity:1;color-rendering:auto;image-rendering:auto;shape-rendering:auto;text-rendering:auto;enable-background:accumulate"
       d="m 416.9527,650.00854 3.20682,9.09401 8.42039,-2.96929"
       id="path4235-3-1"
       inkscape:connector-curvature="0" />
    <path
       style="color:#000000;clip-rule:nonzero;display:inline;overflow:visible;visibility:visible;opacity:1;isolation:auto;mix-blend-mode:normal;color-interpolation:sRGB;color-interpolation-filters:linearRGB;solid-color:#000000;solid-opacity:1;fill:none;fill-opacity:1;fill-rule:evenodd;stroke:#000000;stroke-width:4;stroke-linecap:butt;stroke-linejoin:miter;stroke-miterlimit:4;stroke-dasharray:none;stroke-dashoffset:0;stroke-opacity:1;color-rendering:auto;image-rendering:auto;shape-rendering:auto;text-rendering:auto;enable-background:accumulate"
       d="m 467.09177,523.17181 6.81853,6.81853 6.31346,-6.31346"
       id="path4235-3-23"
       inkscape:connector-curvature="0" />
    <path
       style="color:#000000;clip-rule:nonzero;display:inline;overflow:visible;visibility:visible;opacity:1;isolation:auto;mix-blend-mode:normal;color-interpolation:sRGB;color-interpolation-filters:linearRGB;solid-color:#000000;solid-opacity:1;fill:none;fill-opacity:1;fill-rule:evenodd;stroke:#000000;stroke-width:4;stroke-linecap:butt;stroke-linejoin:miter;stroke-miterlimit:4;stroke-dasharray:none;stroke-dashoffset:0;stroke-opacity:1;color-rendering:auto;image-rendering:auto;shape-rendering:auto;text-rendering:auto;enable-background:accumulate"
       d="m 524.42775,343.22073 3.16433,-9.10888 -8.43416,-2.92994"
       id="path4235-3-25"
       inkscape:connector-curvature="0" />
    <path
       style="color:#000000;clip-rule:nonzero;display:inline;overflow:visible;visibility:visible;opacity:1;isolation:auto;mix-blend-mode:normal;color-interpolation:sRGB;color-interpolation-filters:linearRGB;solid-color:#000000;solid-opacity:1;fill:none;fill-opacity:1;fill-rule:evenodd;stroke:#000000;stroke-width:4;stroke-linecap:butt;stroke-linejoin:miter;stroke-miterlimit:4;stroke-dasharray:none;stroke-dashoffset:0;stroke-opacity:1;color-rendering:auto;image-rendering:auto;shape-rendering:auto;text-rendering:auto;enable-background:accumulate"
       d="m 532.51251,175.99534 -1.62553,-9.50486 -8.8008,1.50512"
       id="path4235-3-00"
       inkscape:connector-curvature="0" />
    <path
       style="color:#000000;clip-rule:nonzero;display:inline;overflow:visible;visibility:visible;opacity:1;isolation:auto;mix-blend-mode:normal;color-interpolation:sRGB;color-interpolation-filters:linearRGB;solid-color:#000000;solid-opacity:1;fill:none;fill-opacity:1;fill-rule:evenodd;stroke:#000000;stroke-width:4;stroke-linecap:butt;stroke-linejoin:miter;stroke-miterlimit:4;stroke-dasharray:none;stroke-dashoffset:0;stroke-opacity:1;color-rendering:auto;image-rendering:auto;shape-rendering:auto;text-rendering:auto;enable-background:accumulate"
       d="m 296.89875,191.95985 6.72465,6.91112 6.3992,-6.22654"
       id="path4235-3-26"
       inkscape:connector-curvature="0" />
  </g>
</svg>
