<?xml version="1.0" encoding="UTF-8" standalone="no"?>
<!-- Created with Inkscape (http://www.inkscape.org/) -->

<svg
   xmlns:dc="http://purl.org/dc/elements/1.1/"
   xmlns:cc="http://creativecommons.org/ns#"
   xmlns:rdf="http://www.w3.org/1999/02/22-rdf-syntax-ns#"
   xmlns:svg="http://www.w3.org/2000/svg"
   xmlns="http://www.w3.org/2000/svg"
   xmlns:sodipodi="http://sodipodi.sourceforge.net/DTD/sodipodi-0.dtd"
   xmlns:inkscape="http://www.inkscape.org/namespaces/inkscape"
   width="598.05719"
   height="800"
   viewBox="0 0 560.67862 749.99999"
   id="svg2"
   version="1.1"
   inkscape:version="0.92.3 (2405546, 2018-03-11)"
   sodipodi:docname="j.svg"
   inkscape:export-filename="C:\Users\zvi\Documents\Mazesplace\Mazes\Alphabet Maze Set\J\J (s).png"
   inkscape:export-xdpi="100"
   inkscape:export-ydpi="100">
  <defs
     id="defs4">
    <inkscape:path-effect
       effect="spiro"
       id="path-effect4688"
       is_visible="true" />
    <inkscape:path-effect
       effect="spiro"
       id="path-effect4684"
       is_visible="true" />
    <inkscape:path-effect
       effect="spiro"
       id="path-effect4680"
       is_visible="true" />
    <inkscape:path-effect
       effect="spiro"
       id="path-effect4676"
       is_visible="true" />
    <inkscape:path-effect
       effect="spiro"
       id="path-effect4672"
       is_visible="true" />
    <inkscape:path-effect
       effect="spiro"
       id="path-effect4668"
       is_visible="true" />
    <inkscape:path-effect
       effect="spiro"
       id="path-effect4664"
       is_visible="true" />
    <inkscape:path-effect
       effect="spiro"
       id="path-effect4660"
       is_visible="true" />
    <inkscape:path-effect
       effect="spiro"
       id="path-effect4656"
       is_visible="true" />
    <inkscape:path-effect
       effect="spiro"
       id="path-effect4652"
       is_visible="true" />
    <inkscape:path-effect
       effect="spiro"
       id="path-effect4648"
       is_visible="true" />
    <inkscape:path-effect
       effect="spiro"
       id="path-effect4643"
       is_visible="true" />
    <inkscape:path-effect
       effect="spiro"
       id="path-effect4637"
       is_visible="true" />
    <inkscape:path-effect
       effect="spiro"
       id="path-effect4691"
       is_visible="true" />
    <inkscape:path-effect
       effect="spiro"
       id="path-effect4687"
       is_visible="true" />
    <inkscape:path-effect
       effect="spiro"
       id="path-effect4683"
       is_visible="true" />
    <inkscape:path-effect
       effect="spiro"
       id="path-effect4679"
       is_visible="true" />
    <inkscape:path-effect
       effect="spiro"
       id="path-effect4671"
       is_visible="true" />
    <inkscape:path-effect
       effect="spiro"
       id="path-effect4667"
       is_visible="true" />
    <inkscape:path-effect
       effect="spiro"
       id="path-effect4663"
       is_visible="true" />
    <inkscape:path-effect
       effect="spiro"
       id="path-effect4659"
       is_visible="true" />
    <inkscape:path-effect
       effect="spiro"
       id="path-effect4655"
       is_visible="true" />
    <inkscape:path-effect
       effect="spiro"
       id="path-effect4651"
       is_visible="true" />
    <inkscape:path-effect
       effect="spiro"
       id="path-effect4647"
       is_visible="true" />
    <inkscape:path-effect
       effect="spiro"
       id="path-effect4686"
       is_visible="true" />
    <inkscape:path-effect
       effect="spiro"
       id="path-effect4682"
       is_visible="true" />
    <inkscape:path-effect
       effect="spiro"
       id="path-effect4678"
       is_visible="true" />
    <inkscape:path-effect
       effect="spiro"
       id="path-effect4674"
       is_visible="true" />
    <inkscape:path-effect
       effect="spiro"
       id="path-effect4670"
       is_visible="true" />
    <inkscape:path-effect
       effect="spiro"
       id="path-effect4666"
       is_visible="true" />
    <inkscape:path-effect
       effect="spiro"
       id="path-effect4662"
       is_visible="true" />
    <inkscape:path-effect
       effect="spiro"
       id="path-effect4658"
       is_visible="true" />
    <inkscape:path-effect
       effect="spiro"
       id="path-effect4654"
       is_visible="true" />
    <inkscape:path-effect
       effect="spiro"
       id="path-effect4650"
       is_visible="true" />
    <inkscape:path-effect
       effect="spiro"
       id="path-effect4646"
       is_visible="true" />
    <inkscape:path-effect
       effect="spiro"
       id="path-effect4642"
       is_visible="true" />
    <inkscape:path-effect
       effect="spiro"
       id="path-effect4638"
       is_visible="true" />
    <inkscape:path-effect
       effect="spiro"
       id="path-effect4634"
       is_visible="true" />
    <inkscape:path-effect
       effect="spiro"
       id="path-effect4630"
       is_visible="true" />
    <inkscape:path-effect
       effect="spiro"
       id="path-effect4626"
       is_visible="true" />
    <inkscape:path-effect
       effect="spiro"
       id="path-effect4622"
       is_visible="true" />
    <inkscape:path-effect
       effect="spiro"
       id="path-effect4618"
       is_visible="true" />
    <inkscape:path-effect
       effect="spiro"
       id="path-effect4614"
       is_visible="true" />
    <inkscape:path-effect
       effect="spiro"
       id="path-effect4872"
       is_visible="true" />
    <inkscape:path-effect
       effect="spiro"
       id="path-effect4661"
       is_visible="true" />
    <inkscape:path-effect
       effect="spiro"
       id="path-effect4657"
       is_visible="true" />
    <inkscape:path-effect
       effect="spiro"
       id="path-effect4653"
       is_visible="true" />
    <inkscape:path-effect
       effect="spiro"
       id="path-effect4649"
       is_visible="true" />
    <inkscape:path-effect
       effect="spiro"
       id="path-effect4645"
       is_visible="true" />
    <inkscape:path-effect
       effect="spiro"
       id="path-effect4641"
       is_visible="true" />
    <inkscape:path-effect
       effect="spiro"
       id="path-effect4633"
       is_visible="true" />
    <inkscape:path-effect
       effect="spiro"
       id="path-effect4629"
       is_visible="true" />
    <inkscape:path-effect
       effect="spiro"
       id="path-effect4625"
       is_visible="true" />
    <inkscape:path-effect
       effect="spiro"
       id="path-effect4621"
       is_visible="true" />
    <inkscape:path-effect
       effect="spiro"
       id="path-effect4617"
       is_visible="true" />
    <inkscape:path-effect
       effect="spiro"
       id="path-effect4613"
       is_visible="true" />
    <inkscape:path-effect
       effect="spiro"
       id="path-effect4605"
       is_visible="true" />
    <inkscape:path-effect
       effect="spiro"
       id="path-effect4601"
       is_visible="true" />
    <inkscape:path-effect
       effect="spiro"
       id="path-effect4597"
       is_visible="true" />
    <inkscape:path-effect
       effect="spiro"
       id="path-effect4821"
       is_visible="true" />
    <inkscape:path-effect
       effect="spiro"
       id="path-effect4640"
       is_visible="true" />
    <inkscape:path-effect
       effect="spiro"
       id="path-effect4636"
       is_visible="true" />
    <inkscape:path-effect
       effect="spiro"
       id="path-effect4632"
       is_visible="true" />
    <inkscape:path-effect
       effect="spiro"
       id="path-effect4628"
       is_visible="true" />
    <inkscape:path-effect
       effect="spiro"
       id="path-effect4624"
       is_visible="true" />
    <inkscape:path-effect
       effect="spiro"
       id="path-effect4620"
       is_visible="true" />
    <inkscape:path-effect
       effect="spiro"
       id="path-effect4616"
       is_visible="true" />
    <inkscape:path-effect
       effect="spiro"
       id="path-effect4612"
       is_visible="true" />
    <inkscape:path-effect
       effect="spiro"
       id="path-effect4608"
       is_visible="true" />
    <inkscape:path-effect
       effect="spiro"
       id="path-effect4604"
       is_visible="true" />
    <inkscape:path-effect
       effect="spiro"
       id="path-effect4600"
       is_visible="true" />
    <inkscape:path-effect
       effect="spiro"
       id="path-effect4596"
       is_visible="true" />
    <inkscape:path-effect
       effect="spiro"
       id="path-effect4592"
       is_visible="true" />
    <inkscape:path-effect
       effect="spiro"
       id="path-effect4588"
       is_visible="true" />
    <inkscape:path-effect
       effect="spiro"
       id="path-effect4584"
       is_visible="true" />
    <inkscape:path-effect
       effect="spiro"
       id="path-effect4580"
       is_visible="true" />
    <inkscape:path-effect
       effect="spiro"
       id="path-effect4576"
       is_visible="true" />
    <inkscape:path-effect
       effect="spiro"
       id="path-effect4572"
       is_visible="true" />
    <inkscape:path-effect
       effect="spiro"
       id="path-effect4568"
       is_visible="true" />
    <inkscape:path-effect
       effect="spiro"
       id="path-effect4564"
       is_visible="true" />
    <inkscape:path-effect
       effect="spiro"
       id="path-effect4813"
       is_visible="true" />
    <inkscape:path-effect
       effect="spiro"
       id="path-effect4635"
       is_visible="true" />
    <inkscape:path-effect
       effect="spiro"
       id="path-effect4631"
       is_visible="true" />
    <inkscape:path-effect
       effect="spiro"
       id="path-effect4627"
       is_visible="true" />
    <inkscape:path-effect
       effect="spiro"
       id="path-effect4623"
       is_visible="true" />
    <inkscape:path-effect
       effect="spiro"
       id="path-effect4619"
       is_visible="true" />
    <inkscape:path-effect
       effect="spiro"
       id="path-effect4615"
       is_visible="true" />
    <inkscape:path-effect
       effect="spiro"
       id="path-effect4611"
       is_visible="true" />
    <inkscape:path-effect
       effect="spiro"
       id="path-effect4607"
       is_visible="true" />
    <inkscape:path-effect
       effect="spiro"
       id="path-effect4595"
       is_visible="true" />
    <inkscape:path-effect
       effect="spiro"
       id="path-effect4591"
       is_visible="true" />
    <inkscape:path-effect
       effect="spiro"
       id="path-effect4587"
       is_visible="true" />
    <inkscape:path-effect
       effect="spiro"
       id="path-effect4583"
       is_visible="true" />
    <inkscape:path-effect
       effect="spiro"
       id="path-effect4579"
       is_visible="true" />
    <inkscape:path-effect
       effect="spiro"
       id="path-effect4574"
       is_visible="true" />
    <clipPath
       clipPathUnits="userSpaceOnUse"
       id="clipPath4150">
      <rect
         style="opacity:1;fill:#000000;fill-opacity:1;fill-rule:evenodd;stroke:none;stroke-width:4;stroke-linecap:round;stroke-linejoin:round;stroke-miterlimit:4;stroke-dasharray:none;stroke-dashoffset:2.4000001;stroke-opacity:1"
         id="rect4152"
         width="694.28571"
         height="822.85712"
         x="-62.857143"
         y="75.21933"
         transform="rotate(90)" />
    </clipPath>
    <clipPath
       clipPathUnits="userSpaceOnUse"
       id="clipPath4194">
      <rect
         style="opacity:1;fill:#000000;fill-opacity:1;fill-rule:evenodd;stroke:none;stroke-width:4;stroke-linecap:round;stroke-linejoin:round;stroke-miterlimit:4;stroke-dasharray:none;stroke-dashoffset:2.4000001;stroke-opacity:1"
         id="rect4196"
         width="652.55853"
         height="800.04083"
         x="54.548237"
         y="98.778214"
         transform="rotate(90)" />
    </clipPath>
    <clipPath
       clipPathUnits="userSpaceOnUse"
       id="clipPath8848">
      <rect
         style="opacity:1;fill:#b0c836;fill-opacity:1;fill-rule:evenodd;stroke:none;stroke-width:4;stroke-linecap:round;stroke-linejoin:round;stroke-miterlimit:4;stroke-dasharray:none;stroke-dashoffset:2.4000001;stroke-opacity:1"
         id="rect8850"
         width="256.66153"
         height="167.81715"
         x="541.52765"
         y="194.94344" />
    </clipPath>
    <filter
       style="color-interpolation-filters:sRGB"
       inkscape:label="Lightness-Contrast"
       id="filter4634">
      <feColorMatrix
         values="2.406 0 0 0.213727 -0.703 0 2.406 0 0.213727 -0.703 0 0 2.406 0.213727 -0.703 0 0 0 1 0"
         id="feColorMatrix4632" />
    </filter>
    <clipPath
       clipPathUnits="userSpaceOnUse"
       id="clipPath4628">
      <rect
         y="139.79504"
         x="113.95997"
         height="759.00342"
         width="589.59845"
         id="rect4630"
         style="opacity:1;fill:none;fill-opacity:1;fill-rule:evenodd;stroke:#000000;stroke-width:19.47478676;stroke-linecap:square;stroke-linejoin:miter;stroke-miterlimit:4;stroke-dasharray:none;stroke-dashoffset:0;stroke-opacity:1;paint-order:normal"
         transform="rotate(-90)" />
    </clipPath>
    <clipPath
       clipPathUnits="userSpaceOnUse"
       id="clipPath976">
      <rect
         style="fill:#000000;fill-opacity:0.53266332;stroke:none;stroke-width:4.48228312;stroke-linecap:round;stroke-linejoin:miter;stroke-miterlimit:4;stroke-dasharray:none;stroke-dashoffset:0;stroke-opacity:1;paint-order:normal"
         id="rect978"
         width="560.67859"
         height="750"
         x="119.44652"
         y="123.15266" />
    </clipPath>
    <inkscape:path-effect
       effect="spiro"
       id="path-effect4637-7"
       is_visible="true" />
    <clipPath
       clipPathUnits="userSpaceOnUse"
       id="clipPath1005">
      <rect
         style="opacity:0.60500004;fill:#000000;fill-opacity:1;stroke:none;stroke-width:4.48228312;stroke-linecap:round;stroke-linejoin:miter;stroke-miterlimit:4;stroke-dasharray:none;stroke-dashoffset:0;stroke-opacity:1;paint-order:normal"
         id="rect1007"
         width="560.67859"
         height="750"
         x="119.44652"
         y="123.15266" />
    </clipPath>
  </defs>
  <sodipodi:namedview
     id="base"
     pagecolor="#ffffff"
     bordercolor="#666666"
     borderopacity="1.0"
     inkscape:pageopacity="0.0"
     inkscape:pageshadow="2"
     inkscape:zoom="0.70737055"
     inkscape:cx="346.73998"
     inkscape:cy="453.02654"
     inkscape:document-units="px"
     inkscape:current-layer="layer2"
     showgrid="false"
     units="px"
     inkscape:window-width="1680"
     inkscape:window-height="987"
     inkscape:window-x="3832"
     inkscape:window-y="288"
     inkscape:window-maximized="1"
     fit-margin-top="0"
     fit-margin-left="15"
     fit-margin-right="15"
     fit-margin-bottom="0"
     inkscape:snap-global="true"
     borderlayer="true"
     inkscape:snap-page="true" />
  <metadata
     id="metadata7">
    <rdf:RDF>
      <cc:Work
         rdf:about="">
        <dc:format>image/svg+xml</dc:format>
        <dc:type
           rdf:resource="http://purl.org/dc/dcmitype/StillImage" />
        <dc:title></dc:title>
      </cc:Work>
    </rdf:RDF>
  </metadata>
  <g
     inkscape:groupmode="layer"
     id="layer2"
     inkscape:label="Layer 2"
     style="display:inline"
     transform="translate(-119.44652,-123.15266)">
    <g
       id="g1003"
       clip-path="url(#clipPath1005)">
      <path
         inkscape:connector-curvature="0"
         id="path4632"
         transform="matrix(0.9375,0,0,0.9375,119.44652,123.15266)"
         d="M 18.132812,60 V 248.57227 H 207.0625 V 617.43359 H 17.132812 v 124.95313 l 55.480469,55.48047 H 325.01953 l 62.72656,-62.72657 V 252.57031 H 580.92383 V 60 h -17.57031 -0.6211 c -0.50233,4.171769 -1.91288,8.22997 -3.79883,12 -2.30032,4.598368 -5.2761,8.8196 -8.25586,13.009766 -2.97976,4.190165 -5.98713,8.385675 -8.36328,12.945312 -2.37616,4.559652 -4.115,9.532912 -4.375,14.667972 -0.42746,8.44236 3.15865,16.61831 7.82032,23.66992 4.66166,7.0516 10.43519,13.31106 15.17187,20.3125 4.43613,6.55717 7.95459,13.78795 9.84961,21.47461 1.89502,7.68665 2.12892,15.84519 0.14648,23.50976 -1.93123,7.46665 -5.94518,14.34859 -11.30859,19.89063 -5.36342,5.54205 -12.0529,9.75226 -19.28125,12.44141 -14.45669,5.37829 -30.76137,4.56709 -45.38281,-0.34571 -7.22824,-2.42868 -14.22851,-5.8944 -19.80274,-11.09765 -5.57423,-5.20326 -9.63022,-12.28553 -10.18554,-19.89063 -0.55153,-7.55313 2.29501,-14.93316 2.81836,-22.48828 0.26167,-3.77757 -0.0856,-7.67541 -1.66016,-11.11914 -0.78726,-1.72187 -1.87926,-3.312 -3.26367,-4.60352 -1.38441,-1.29152 -3.06517,-2.27829 -4.89258,-2.77343 -2.07501,-0.56223 -4.30823,-0.47892 -6.36328,0.15234 -2.05506,0.63127 -3.92989,1.79951 -5.4668,3.30273 -3.07381,3.00645 -4.72235,7.26216 -5.16406,11.53907 -0.7555,7.31523 1.75182,14.52869 4.16797,21.47461 2.41615,6.9459 4.81317,14.22162 3.83008,21.50976 -0.95853,7.10605 -5.23292,13.61913 -11.16016,17.6543 -5.92724,4.03517 -13.38804,5.62855 -20.50586,4.76172 -7.11781,-0.86684 -13.86502,-4.1197 -19.25586,-8.84766 -5.39084,-4.72796 -9.44755,-10.88677 -12.05469,-17.56641 -4.81169,-12.32786 -4.6648,-26.27028 -1,-38.98632 1.92222,-6.66967 4.80414,-13.22879 4.81641,-20.16993 0.006,-3.47056 -0.74918,-7.00015 -2.58203,-9.94726 -1.83285,-2.94712 -4.81616,-5.25762 -8.23242,-5.86914 -1.99963,-0.35794 -4.08778,-0.13193 -5.9961,0.56445 -1.90831,0.69639 -3.63681,1.85558 -5.07031,3.29492 -2.86699,2.87868 -4.50606,6.80522 -5.2207,10.80469 -1.42931,7.99892 0.59995,16.20245 0.29297,24.32227 -0.23713,6.27197 -1.92487,12.55293 -5.33789,17.82031 -3.41303,5.26737 -8.61505,9.45875 -14.6543,11.16797 -4.14464,1.17301 -8.59421,1.16582 -12.7793,0.14648 -4.18509,-1.01934 -8.10407,-3.03481 -11.48242,-5.70703 -6.7567,-5.34445 -11.22648,-13.18496 -13.72461,-21.42969 -1.37329,-4.53236 -2.1993,-9.22743 -3.82422,-13.67578 -1.62493,-4.44835 -4.18367,-8.75749 -8.16992,-11.31445 -2.65122,-1.70062 -5.82712,-2.53394 -8.97656,-2.48828 -3.14944,0.0456 -6.2668,0.95391 -9.01758,2.48828 -3.28728,1.83362 -6.05883,4.55596 -8.04102,7.75586 -1.98217,3.19989 -3.18077,6.86828 -3.57812,10.61133 -0.79471,7.4861 1.64882,15.12228 6,21.26562 4.35118,6.14333 10.50747,10.86455 17.23047,14.25195 6.72301,3.38742 14.01911,5.49949 21.37695,7.0918 11.60278,2.51097 23.80436,3.89419 33.98633,9.99805 6.18249,3.70627 11.31812,9.0218 15.29297,15.03515 3.97485,6.01335 6.82313,12.71785 8.94922,19.60547 4.2522,13.77527 5.65436,28.24888 8.74609,42.33008 1.52378,6.94001 3.45935,13.79288 4.67773,20.79297 1.21839,7.00007 1.70706,14.22272 0.32032,21.19141 -2.22557,11.18396 -9.03515,20.80702 -15.1875,30.4082 -3.07617,4.80059 -6.0363,9.70526 -8.24219,14.96289 -2.20589,5.25762 -3.64567,10.90448 -3.56055,16.60547 0.10755,7.2035 2.62129,14.14321 5.43946,20.77344 2.81815,6.63023 5.99482,13.17796 7.55664,20.21093 1.84835,8.32327 1.35757,16.96902 0.76757,25.47461 -0.58999,8.50558 -1.26444,17.11226 0.23243,25.50586 1.84102,10.32347 6.91422,19.98805 7.66797,30.44727 0.37687,5.22961 -0.40527,10.66561 -3.0625,15.18555 -1.32863,2.25997 -3.11732,4.26228 -5.28126,5.74218 -2.16392,1.4799 -4.70682,2.42607 -7.32226,2.60547 -3.37429,0.23146 -6.75102,-0.81315 -9.67578,-2.51172 -2.92477,-1.69857 -5.43605,-4.02592 -7.74219,-6.5 -4.6123,-4.94817 -8.66152,-10.68552 -14.57031,-13.97851 -2.94506,-1.64129 -6.32411,-2.60716 -9.6875,-2.37305 -3.36339,0.23412 -6.69191,1.74367 -8.80469,4.37109 -1.22725,1.52619 -2.02118,3.3854 -2.34766,5.31641 -0.32648,1.93102 -0.19185,3.93043 0.31446,5.82227 1.01262,3.78368 3.48432,7.06419 6.49609,9.56836 6.02355,5.00832 13.91188,7.00458 21.02734,10.28124 14.7412,6.7883 26.55598,19.69535 31.98829,34.98829 5.50447,15.49609 4.52021,32.47065 2.84765,48.83007 -1.67254,16.35943 -3.95625,32.98423 -0.84961,49.13282 1.39106,7.23087 3.86266,14.4027 3.375,21.75 -0.24382,3.67365 -1.26747,7.35537 -3.37109,10.37695 -2.10362,3.02158 -5.35685,5.32772 -9,5.85937 -2.21845,0.32375 -4.51249,-0.0122 -6.59766,-0.83593 -2.08515,-0.82368 -3.96585,-2.12543 -5.5664,-3.69531 -3.2011,-3.13979 -5.24511,-7.26774 -6.82813,-11.4629 -6.74898,-17.88539 -6.00175,-37.82822 -11.99609,-55.98046 -1.68217,-5.094 -3.95649,-10.11763 -7.65039,-14.00782 -1.84695,-1.94508 -4.03886,-3.58221 -6.49414,-4.66211 -2.45529,-1.0799 -5.17886,-1.59086 -7.84766,-1.32226 -2.50422,0.25203 -4.92614,1.18955 -6.99219,2.62695 -2.06603,1.43741 -3.77629,3.36826 -5.01953,5.55664 -2.48649,4.37676 -3.04945,9.69566 -2.08789,14.63672 0.96156,4.94107 3.36695,9.52294 6.4375,13.51172 3.07055,3.98879 6.79881,7.42337 10.66211,10.65039 4.78351,3.99567 9.85441,7.75627 13.71875,12.64648 1.93217,2.44511 3.54624,5.16839 4.53125,8.125 0.985,2.95662 1.32552,6.1555 0.74219,9.2168 -0.79731,4.18425 -3.32388,7.9612 -6.7207,10.53125 -3.39684,2.57005 -7.61718,3.96314 -11.86915,4.2168 -4.25197,0.25364 -8.53168,-0.60011 -12.48437,-2.1875 -3.95269,-1.58739 -7.58921,-3.89513 -10.91016,-6.5625 -3.98108,-3.19759 -7.52302,-6.91081 -11.48437,-10.13281 -3.96137,-3.22201 -8.47348,-5.99407 -13.50586,-6.85938 -1.95557,-0.33629 -3.98147,-0.37617 -5.91211,0.082 -1.93064,0.4582 -3.764,1.43448 -5.08398,2.91602 -1.79683,2.01671 -2.51986,4.86711 -2.19727,7.54883 0.32259,2.68172 1.62271,5.18856 3.4043,7.21875 3.56315,4.06038 8.79132,6.16915 13.78711,8.2246 15.34042,6.31163 30.58492,13.48665 46.98242,15.99415 4.95081,0.75707 10.02868,1.0946 14.71875,2.85156 2.34504,0.87847 4.57692,2.11649 6.41211,3.82031 1.83519,1.70383 3.26017,3.89083 3.85937,6.32227 0.47048,1.90901 0.42358,3.93429 -0.0684,5.83789 -0.49192,1.90359 -1.4228,3.68489 -2.65039,5.2207 -2.45517,3.07161 -6.04527,5.10625 -9.83203,6.16602 -7.57351,2.11954 -15.60821,0.53337 -23.43555,-0.23047 -29.58582,-2.88715 -59.54632,6.25163 -88.96679,1.99804 -5.30535,-0.76704 -10.5871,-1.97917 -15.47071,-4.18945 -4.8836,-2.21029 -9.37283,-5.46495 -12.51953,-9.80469 -3.04676,-4.2019 -4.72107,-9.22698 -6.1289,-14.22265 -1.40783,-4.99567 -2.60755,-10.09213 -4.86524,-14.76563 -2.70776,-5.60517 -6.86512,-10.42159 -11.58984,-14.47461 -4.72473,-4.053 -10.022,-7.38343 -15.40039,-10.51758 -2.19573,-1.2795 -4.46547,-2.55022 -6.96875,-2.98828 -1.25165,-0.21908 -2.55187,-0.21994 -3.78321,0.0937 -1.23132,0.31371 -2.39208,0.95383 -3.24414,1.89649 -1.10662,1.2243 -1.63811,2.9086 -1.60546,4.55859 0.0326,1.64999 0.60095,3.2614 1.46093,4.66992 1.71996,2.81707 4.50466,4.78182 7.14258,6.76563 5.58393,4.19929 10.91869,8.93892 14.54297,14.91211 1.81214,2.98659 3.17617,6.26565 3.83008,9.69726 0.65391,3.43162 0.58636,7.0196 -0.37891,10.37696 -1.21686,4.23244 -3.8475,8.00504 -7.23242,10.82226 -3.38492,2.81723 -7.4998,4.69829 -11.79297,5.67969 -8.58632,1.9628 -17.63225,0.36329 -25.95898,-2.50781 -20.100292,-6.9307 -36.97691,-20.9215 -51.980472,-35.98633 -7.973398,-8.00595 -15.634445,-16.49904 -21.078126,-26.40039 -5.443669,-9.90136 -8.560706,-21.39991 -6.912109,-32.57813 1.171925,-7.94619 4.729844,-15.47265 9.830078,-21.67773 5.100235,-6.20509 11.70973,-11.1064 18.966797,-14.54883 14.514155,-6.88486 31.250992,-7.8704 47.175782,-5.75781 13.60915,1.8054 26.82557,5.75354 40.1875,8.90429 13.36192,3.15076 27.12949,5.52163 40.7832,4.0918 9.96582,-1.04362 19.82625,-4.18566 28.01758,-9.95703 8.19133,-5.77137 14.61249,-14.29097 16.96484,-24.03125 2.67032,-11.05681 0.0656,-22.77732 2,-33.98633 1.5142,-8.77413 5.72694,-16.80781 9.67383,-24.78906 3.94689,-7.98124 7.74457,-16.30804 8.31836,-25.19336 0.47831,-7.40664 -1.33616,-14.81877 -4.21875,-21.6582 -2.88259,-6.83944 -6.81251,-13.17995 -10.76367,-19.46289 -3.95116,-6.28296 -7.95505,-12.56811 -11.00195,-19.33594 -3.0469,-6.76784 -5.12407,-14.09062 -5.00391,-21.51172 0.197,-12.16655 6.16897,-23.37662 11.64648,-34.24219 2.73876,-5.43279 5.39951,-10.93564 7.22852,-16.73828 1.82902,-5.80264 2.81056,-11.9497 2.11719,-17.99414 -0.87563,-7.63312 -4.34492,-14.69268 -7.81641,-21.54687 -3.47149,-6.8542 -7.05114,-13.83738 -8.17773,-21.4375 -0.64075,-4.32251 -0.4342,-8.87469 1.35937,-12.85938 0.89678,-1.99234 2.18461,-3.81876 3.83203,-5.2539 1.64744,-1.43514 3.65832,-2.47057 5.80469,-2.87891 2.78204,-0.52927 5.67828,0.003 8.32813,1.00195 2.64984,0.9991 5.10201,2.4507 7.57421,3.83203 2.47221,1.38134 5.00661,2.71045 7.74415,3.43555 2.73753,0.7251 5.72386,0.80848 8.34179,-0.27148 1.92023,-0.79214 3.57231,-2.19045 4.74024,-3.90821 1.16792,-1.71776 1.85599,-3.74501 2.05664,-5.8125 0.40129,-4.13496 -1.14943,-8.30826 -3.68946,-11.5957 -2.54001,-3.28745 -6.00553,-5.76045 -9.67773,-7.70313 -3.67219,-1.94266 -7.57893,-3.39528 -11.42383,-4.96875 -6.1445,-2.51452 -12.2255,-5.39625 -17.36133,-9.60351 -5.13583,-4.20727 -9.29782,-9.88202 -10.62695,-16.38672 -1.17854,-5.76771 -0.0873,-11.72039 0.75391,-17.54688 0.84121,-5.82648 1.39797,-11.95995 -0.75391,-17.43945 -2.08092,-5.29879 -6.5492,-9.41855 -11.625,-11.99609 -5.07581,-2.57755 -10.74807,-3.7498 -16.39648,-4.45899 -5.64842,-0.70918 -11.35023,-0.98215 -16.96875,-1.89843 -5.61854,-0.91629 -11.22698,-2.51622 -15.98829,-5.63672 -3.1732,-2.07968 -5.88576,-4.77759 -8.86328,-7.12891 -2.97751,-2.35133 -6.36267,-4.40919 -10.1289,-4.86719 -2.84413,-0.34585 -5.75614,0.25416 -8.36719,1.4336 -2.61105,1.17944 -4.93748,2.91902 -7.02734,4.8789 -4.17973,3.91976 -7.45271,8.72113 -11.59571,12.67969 -7.39737,7.06808 -17.29392,11.12539 -27.380856,12.83789 -10.086934,1.71249 -20.421742,1.22102 -30.597656,0.1582 -5.339073,-0.55763 -10.782863,-1.30823 -15.5625,-3.75195 -2.389814,-1.22186 -4.585204,-2.86808 -6.275391,-4.95312 -1.690197,-2.08505 -2.860152,-4.62096 -3.152344,-7.28907 -0.403915,-3.68824 0.881421,-7.40744 2.892578,-10.52539 2.011147,-3.11795 4.71433,-5.71988 7.433594,-8.24414 2.719264,-2.52426 5.499004,-5.02208 7.714844,-7.99804 2.215829,-2.97597 3.857625,-6.50963 3.951172,-10.21875 0.08894,-3.52551 -1.22803,-6.97235 -3.125,-9.94532 -1.896982,-2.97297 -4.358983,-5.53523 -6.808594,-8.07226 -2.4496,-2.53703 -4.919394,-5.09234 -6.835938,-8.05274 -1.916544,-2.96039 -3.265109,-6.38964 -3.222656,-9.91601 0.02813,-2.33835 0.67281,-4.65923 1.794922,-6.71094 1.122112,-2.0517 2.713392,-3.83488 4.583984,-5.23828 3.741174,-2.80681 8.525535,-4.03759 13.201172,-3.92383 4.675638,0.11376 9.253447,1.50355 13.47461,3.51758 4.221162,2.01404 8.118251,4.64405 11.927734,7.35742 4.953664,3.52834 9.901186,7.27514 15.669922,9.20117 2.884373,0.96301 5.955993,1.44846 8.982423,1.15235 3.02643,-0.29612 6.00673,-1.40249 8.33594,-3.35742 2.94504,-2.47182 4.70691,-6.22569 4.98437,-10.06055 0.27746,-3.83486 -0.87665,-7.71723 -2.98633,-10.93164 -2.63534,-4.01534 -6.68965,-6.97868 -11.13672,-8.79297 -4.44705,-1.81428 -9.280864,-2.53446 -14.082027,-2.66406 -9.602325,-0.25919 -19.159168,1.77779 -28.759765,1.46093 -6.897387,-0.22763 -13.892048,-1.73848 -19.730469,-5.41797 -2.919211,-1.83974 -5.520278,-4.21095 -7.5,-7.0371 C 33.906996,98.33985 32.557822,95.052469 32.126953,91.628906 31.579625,87.279957 32.521328,82.836572 34.25,78.808594 35.978683,74.780615 38.470995,71.127109 41.125,67.638672 43.054858,65.102059 45.078655,62.61384 46.896484,60 h -0.951172 z m 53.138672,0 c 0.643284,8.421518 2.862828,16.84945 7.839844,23.632812 5.114197,6.970337 12.84759,11.759653 21.121092,14.267579 8.2735,2.507929 17.0788,2.856209 25.69141,2.105469 17.2252,-1.501473 33.89402,-7.288771 51.15039,-8.375001 7.6988,-0.484618 15.68323,0.03324 22.63867,3.369141 3.47772,1.667957 6.64529,4.036227 9.03906,7.06055 2.39377,3.02431 3.98956,6.71869 4.3086,10.5625 0.25545,3.07771 -0.29607,6.16076 -0.375,9.24804 -0.0395,1.54365 0.0408,3.09848 0.39453,4.60157 0.35374,1.50308 0.9915,2.95669 1.98047,4.14257 0.8855,1.06183 2.03959,1.89068 3.31445,2.42579 1.27486,0.5351 2.66652,0.77912 4.04883,0.75 2.7646,-0.0582 5.44272,-1.21007 7.5957,-2.94532 2.15298,-1.73523 3.80886,-4.02856 5.07227,-6.48828 1.2634,-2.45971 2.15244,-5.09136 2.95898,-7.73633 2.41226,-7.91075 4.22166,-16.23913 8.9961,-22.992184 3.95916,-5.599936 9.77271,-9.749555 16.13476,-12.310547 6.36205,-2.561002 13.2638,-3.595691 20.12109,-3.705078 13.71456,-0.218794 27.20728,3.169834 40.85547,4.535157 33.01688,3.302901 66.05446,-5.265128 99.23438,-5.605469 14.42764,-0.14799 28.83799,1.262658 43.26562,1.115234 14.42764,-0.147413 29.12851,-1.938827 42.16992,-8.111328 C 514.07558,67.063259 519.0101,63.859609 523.33984,60 H 71.744141 Z"
         style="opacity:1;vector-effect:none;fill:#000000;fill-opacity:1;stroke:#000000;stroke-width:4.26699972;stroke-linecap:butt;stroke-linejoin:miter;stroke-miterlimit:4;stroke-dasharray:none;stroke-dashoffset:0;stroke-opacity:1" />
      <path
         sodipodi:nodetypes="cccscsccssssscssssssscssssssssscsssscssssscscsssssssssscssssssscsccssscssscssssscccccsscssscssscsccc"
         inkscape:original-d="m 110.20612,146.59016 h 34.67457 c 77.53186,1.65666 8.74767,33.10058 13.12011,39.97395 4.37243,6.87338 -5.62197,14.99347 -8.43436,22.49161 -2.81239,7.49814 19.36871,13.74394 29.05167,20.61731 9.68295,6.87338 33.73835,6.24673 50.60612,9.37151 16.86777,3.12477 -1.2486,13.11917 -1.8743,19.68016 -0.62571,6.56099 -20.61638,-4.3743 -30.92596,-6.56006 -10.3096,-2.18574 -28.11358,3.1229 -42.17178,4.68576 -14.05819,1.56285 12.49628,22.49067 18.74301,33.73741 6.24673,11.24675 -13.74393,23.11544 -20.61731,34.67457 -6.87337,11.55912 15.62011,9.99533 23.42876,14.9944 7.80865,4.99908 36.23743,-8.1229 54.35473,-12.18295 18.11731,-4.06005 16.86964,-11.87151 25.30307,-17.80586 8.43341,-5.93435 11.8715,7.49627 17.80585,11.24581 5.93435,3.74954 38.11172,14.99346 57.16618,22.49161 19.05445,7.49814 9.4e-4,21.8659 0,32.80026 -9.4e-4,10.93437 17.49441,16.24301 26.24021,24.36592 8.7458,8.1229 11.24674,21.24113 16.8687,31.86311 5.62197,10.62198 -19.99159,-4.99908 -29.9888,-7.49721 -9.99721,-2.49812 -6.8715,13.11917 -10.30866,19.68016 -3.43716,6.56099 9.99721,26.86405 14.9944,40.29748 4.99721,13.43342 -13.11917,43.10798 -19.68016,64.66337 -6.56099,21.55541 19.36872,51.22996 29.05167,76.84634 9.68295,25.61639 -11.24487,31.23741 -16.86871,46.85752 -5.62384,15.62012 -1.24859,21.24114 -1.8743,31.86312 -0.62571,10.62197 -28.11357,21.24114 -42.17177,31.86311 -14.0582,10.62198 -50.60519,-8.12291 -75.90919,-12.18295 -25.30399,-4.06005 -47.48135,26.23928 -71.22343,39.36032 -23.74208,13.12104 17.49441,36.86031 26.24021,55.29187 8.7458,18.43156 32.48882,22.49068 48.73183,33.73742 16.243,11.24674 28.11544,-8.74768 42.17177,-13.1201 14.05632,-4.37244 -11.24487,-21.86779 -16.86871,-32.80027 -5.62384,-10.93249 -4.37243,-9.99721 -6.56006,-14.99441 -2.18762,-4.99719 8.74768,0.62383 13.12011,0.93715 4.37243,0.31332 16.86965,15.61824 25.30306,23.42876 8.43342,7.81052 6.87337,18.1173 10.30866,27.17736 3.43528,9.06007 17.49441,8.74581 26.24021,13.12011 8.7458,4.37431 55.60519,-1.25047 83.40639,-1.8743 27.80119,-0.62383 22.49255,-10.62198 33.73742,-15.93156 11.24486,-5.30958 -15.61824,-8.12291 -23.42876,-12.18295 -7.81053,-4.06005 -29.36311,-9.99721 -44.04608,-14.99441 -14.68295,-4.99719 -9.37056,-14.37058 -14.05726,-21.55446 -4.68668,-7.18388 6.87338,-1.87524 10.30866,-2.81145 3.43528,-0.93621 15.62012,10.6201 23.42876,15.93156 7.80866,5.31145 26.24115,-3.74954 39.36032,-5.62291 13.11917,-1.87336 -11.86963,-18.74394 -17.80585,-28.11451 -5.93623,-9.37057 -1.87337,-29.36498 -2.81146,-44.04607 -0.93808,-14.68109 13.74581,12.4944 20.61731,18.74301 6.8715,6.24861 7.49814,34.98601 11.24581,52.48043 3.74767,17.4944 11.87151,9.99533 17.80585,14.9944 5.93435,4.99908 5.62385,-23.74209 8.43436,-35.61172 2.81052,-11.86963 -1.2486,-61.22809 -1.8743,-91.84074 -0.62571,-30.61265 -19.99161,-21.86778 -29.98882,-32.80027 -9.99721,-10.93248 -17.02396,-14.37057 -23.89733,-29.05166 -6.87338,-14.68108 12.65247,-6.2486 17.33728,-1.8743 4.68482,4.3743 19.99348,14.3687 29.98881,21.55446 9.99534,7.18576 4.99908,-33.73836 7.49721,-50.60613 2.49813,-16.86777 -0.62383,-31.86405 -0.93715,-47.79467 -0.31333,-15.93061 -8.12103,-25.61638 -12.18296,-38.42316 -4.06192,-12.80679 16.86965,-38.7365 25.30306,-58.10334 8.43342,-19.36683 -3.12289,-26.24115 -4.68574,-39.36031 -1.56286,-13.11917 -20.61638,-48.108 -30.92597,-72.16059 -10.3096,-24.05258 -21.24114,-6.24861 -31.86312,-9.3715 -10.62197,-3.1229 -20.61637,-38.11172 -30.92596,-57.16617 -10.3096,-19.05446 11.24674,-9.4e-4 16.86871,0 5.62196,9.3e-4 7.49814,15.61823 11.2458,23.42876 3.74767,7.81052 23.74208,16.86776 35.61172,25.30306 11.86963,8.43529 12.49628,-18.11919 18.74301,-27.17737 6.24673,-9.05818 9.99721,-24.36684 14.99441,-36.54887 4.99719,-12.18201 3.74953,22.49068 5.6229,33.73742 1.87336,11.24675 0.62571,24.36498 0.93715,36.54887 0.31144,12.18389 39.36126,2.49813 59.04048,3.7486 19.67922,1.25047 -4.9972,-26.86591 -7.49721,-40.29747 -2.5,-13.43155 10.62198,-9.37244 15.93156,-14.05726 5.30958,-4.68481 4.37431,25.61451 6.56005,38.42318 2.18575,12.80866 18.74395,19.36684 28.11451,29.05166 9.37058,9.68483 47.48323,-19.99348 71.22344,-29.98882 23.7402,-9.99533 -6.24673,-28.11545 -9.37151,-42.17176 -3.12477,-14.05633 -14.3687,-27.49069 -21.55446,-41.23463 -7.18575,-13.74393 17.50417,-44.11472 23.43853,-51.92337 5.93434,-7.80865 -31.8063,-31.87901 18.55627,-30.22235 h 25.48003 l 12.31902,-18.75 h -31.0035 c -62.95322,3.31333 -48.16464,33.13705 -55.3504,43.72955 -7.18576,10.59249 -14.48239,5.22347 -20.73099,16.78259 -6.24861,11.55913 -74.16021,4.37243 -80.09643,6.56006 -5.93622,2.18762 -58.04497,6.8152 -93.03287,5.25422 -34.98788,-1.56098 -30.74249,9.82536 -72.29044,10.76345 -41.54793,0.93808 -5.62196,14.3687 -8.43435,21.55446 -2.81238,7.18575 -14.3687,8.7458 -21.55446,13.1201 -7.18575,4.37431 -1.24859,-11.24674 -1.8743,-16.86871 -0.62571,-5.62196 -22.49067,-13.12104 -33.73742,-19.68016 -11.24674,-6.55911 -61.22622,-4.99907 -91.84074,-7.4972 -30.61452,-2.49813 -4.9972,-16.24488 -7.4972,-24.36591 -2.50001,-8.12103 0.34202,-23.61 -2.47036,-31.10626 -2.81239,-7.49627 46.28454,-19.57152 -33.89798,-18.24619 h -40.99938 z"
         inkscape:path-effect="#path-effect4637"
         inkscape:connector-curvature="0"
         id="path4634"
         d="m 110.20612,146.59016 h 34.67457 c 4.93429,0 10.03658,0.21134 14.465,2.38765 2.21421,1.08816 4.21419,2.625 5.78344,4.52876 1.56924,1.90376 2.69893,4.16473 3.29664,6.55838 1.19542,4.7873 0.17512,9.92913 -2.01124,14.3526 -2.18637,4.42346 -5.42608,8.21958 -8.41373,12.14656 -2.48813,3.27041 -4.82447,6.69575 -6.44511,10.47198 -1.62063,3.77623 -2.50237,7.94249 -1.98925,12.01963 0.40394,3.20959 1.66845,6.29033 3.52444,8.93986 1.85599,2.64952 4.29341,4.87256 7.03017,6.59732 5.47352,3.44952 12.03076,4.86672 18.49706,5.08013 9.00056,0.29705 17.96176,-1.61305 26.96394,-1.37006 4.50109,0.1215 9.03148,0.79602 13.20059,2.49691 4.16912,1.7009 7.97096,4.48028 10.44159,8.24466 1.97782,3.01351 3.05916,6.65186 2.79904,10.24704 -0.26012,3.59518 -1.91236,7.11579 -4.67334,9.43312 -2.18363,1.83275 -4.97751,2.86843 -7.81479,3.14604 -2.83728,0.27761 -5.71666,-0.17648 -8.42076,-1.0793 -5.40819,-1.80566 -10.04635,-5.31898 -14.69041,-8.6268 -3.57139,-2.54379 -7.22406,-5.00808 -11.1814,-6.89624 -3.95734,-1.88815 -8.24975,-3.19201 -12.63316,-3.29866 -4.38341,-0.10665 -8.86794,1.04699 -12.37529,3.67837 -1.75368,1.31569 -3.24695,2.9882 -4.29893,4.91167 -1.05198,1.92348 -1.65663,4.09842 -1.683,6.29062 -0.0398,3.30597 1.22474,6.52199 3.0215,9.29736 1.79677,2.77537 4.11284,5.16955 6.40935,7.54801 2.2965,2.37847 4.60531,4.78113 6.38373,7.56829 1.77841,2.78716 3.01181,6.01859 2.92843,9.32375 -0.0877,3.4773 -1.62575,6.78951 -3.7031,9.57948 -2.07734,2.78997 -4.68403,5.13298 -7.23334,7.49948 -2.54931,2.36649 -5.08376,4.8055 -6.96921,7.72858 -1.88546,2.92307 -3.09033,6.4093 -2.71166,9.86703 0.27393,2.50135 1.37083,4.87992 2.95539,6.83465 1.58456,1.95473 3.64225,3.49745 5.88271,4.64295 4.4809,2.29099 9.58528,2.99402 14.59066,3.5168 9.53992,0.99639 19.22771,1.45728 28.68421,-0.14818 9.4565,-1.60546 18.73548,-5.40845 25.67052,-12.03477 3.88406,-3.71115 6.95142,-8.21221 10.86991,-11.88698 1.95925,-1.83739 4.14137,-3.46876 6.58923,-4.57448 2.44786,-1.10573 5.17756,-1.66864 7.84393,-1.3444 3.53085,0.42936 6.70404,2.35858 9.49546,4.56294 2.79142,2.20437 5.33551,4.73317 8.31039,6.68287 4.46372,2.92547 9.72082,4.42604 14.9882,5.28506 5.26737,0.85902 10.61362,1.11587 15.90901,1.78073 5.29539,0.66486 10.61322,1.76367 15.37178,4.18012 4.75856,2.41645 8.94633,6.27807 10.89719,11.2457 2.01739,5.13703 1.49547,10.88668 0.70683,16.349 -0.78863,5.46233 -1.81171,11.04403 -0.70683,16.45126 1.24606,6.09816 5.14802,11.4178 9.96286,15.36212 4.81484,3.94431 10.51688,6.64643 16.27735,9.0038 3.60459,1.47512 7.26732,2.83571 10.71,4.65696 3.44269,1.82126 6.6903,4.13968 9.07157,7.22166 2.38127,3.08198 3.83636,6.99423 3.46015,10.87076 -0.18811,1.93827 -0.83342,3.83986 -1.92835,5.45026 -1.09493,1.6104 -2.64446,2.92084 -4.44467,3.66347 -2.45431,1.01247 -5.25381,0.93504 -7.82025,0.25526 -2.56644,-0.67978 -4.94295,-1.92622 -7.26064,-3.22122 -2.3177,-1.295 -4.61552,-2.65511 -7.09975,-3.59176 -2.48423,-0.93666 -5.2,-1.43568 -7.80816,-0.93949 -2.01222,0.38282 -3.89651,1.35352 -5.44097,2.69896 -1.54447,1.34545 -2.75353,3.05759 -3.59427,4.92541 -1.68146,3.73565 -1.87412,8.00344 -1.27342,12.05579 1.05619,7.12512 4.41193,13.67062 7.66644,20.09643 3.25452,6.42581 6.50706,13.045 7.32796,20.20105 0.65004,5.66666 -0.27021,11.42909 -1.98492,16.86907 -1.7147,5.43997 -4.20859,10.59822 -6.77617,15.69146 -5.13517,10.18647 -10.73438,20.6967 -10.91907,32.10284 -0.11265,6.95728 1.83515,13.82253 4.69162,20.16738 2.85647,6.34484 6.60975,12.23763 10.31397,18.1279 3.70421,5.89026 7.3889,11.83358 10.09133,18.24555 2.70243,6.41197 4.40316,13.36178 3.95475,20.30551 -0.53794,8.32999 -4.09878,16.1349 -7.79899,23.61731 -3.70021,7.48242 -7.65016,15.01446 -9.06972,23.24021 -1.8135,10.50844 0.62912,21.49735 -1.8743,31.86312 -2.20533,9.13151 -8.22416,17.1179 -15.90353,22.52856 -7.67937,5.41065 -16.92529,8.35615 -26.26824,9.33455 -12.80036,1.34046 -25.70603,-0.88161 -38.23284,-3.83544 -12.52681,-2.95383 -24.91777,-6.65495 -37.67635,-8.34751 -14.92949,-1.98055 -30.62117,-1.05687 -44.22818,5.39769 -6.8035,3.22728 -12.99818,7.82193 -17.77965,13.6392 -4.78148,5.81726 -8.11692,12.87387 -9.2156,20.32343 -1.54556,10.47958 1.37581,21.25868 6.47926,30.5412 5.10344,9.28251 12.28589,17.24509 19.76095,24.75067 14.06584,14.12328 29.88781,27.2399 48.73183,33.73742 7.80631,2.69166 16.28588,4.19136 24.33556,2.35123 4.02484,-0.92007 7.88386,-2.68344 11.05722,-5.32459 3.17336,-2.64115 5.63818,-6.17882 6.77899,-10.14674 0.90494,-3.14752 0.96861,-6.51185 0.35557,-9.72899 -0.61304,-3.21713 -1.89084,-6.28979 -3.58972,-9.08972 -3.39776,-5.59986 -8.39963,-10.04472 -13.63456,-13.98156 -2.47305,-1.85982 -5.08445,-3.70002 -6.69691,-6.34102 -0.80623,-1.32049 -1.33782,-2.83183 -1.36837,-4.37869 -0.0306,-1.54687 0.46776,-3.12692 1.50522,-4.2747 0.7988,-0.88374 1.88694,-1.4835 3.04131,-1.77759 1.15438,-0.2941 2.37266,-0.292 3.54608,-0.0866 2.34683,0.41068 4.47423,1.60185 6.53272,2.80139 5.04224,2.93826 10.00864,6.05919 14.43807,9.85889 4.42943,3.79969 8.32647,8.31502 10.86499,13.56987 2.11658,4.3814 3.24218,9.16032 4.56202,13.84377 1.31984,4.68344 2.8903,9.39431 5.74664,13.33359 2.95003,4.0685 7.15834,7.11944 11.73672,9.19158 4.57838,2.07215 9.52973,3.20943 14.50349,3.92853 27.58169,3.98773 55.66967,-4.58101 83.40639,-1.8743 7.33813,0.7161 14.87083,2.20413 21.97101,0.21706 3.55008,-0.99353 6.91594,-2.90139 9.21765,-5.78102 1.15086,-1.43982 2.02326,-3.10982 2.48445,-4.89443 0.46119,-1.78462 0.50536,-3.68347 0.0643,-5.47317 -0.56175,-2.27947 -1.89774,-4.32979 -3.61823,-5.92712 -1.72049,-1.59734 -3.81337,-2.75892 -6.01184,-3.58249 -4.39694,-1.64715 -9.1573,-1.96358 -13.79869,-2.67334 -15.37265,-2.35078 -29.66443,-9.07726 -44.04608,-14.99441 -4.68355,-1.92699 -9.58461,-3.9026 -12.92508,-7.7092 -1.67023,-1.90331 -2.8895,-4.2537 -3.19194,-6.76781 -0.30243,-2.51411 0.37525,-5.18678 2.05976,-7.07745 1.23749,-1.38894 2.95639,-2.30376 4.76636,-2.73332 1.80998,-0.42956 3.70895,-0.39337 5.5423,-0.0781 4.71786,0.81123 8.94842,3.41092 12.6622,6.43155 3.71377,3.02062 7.03429,6.50227 10.76656,9.50001 3.11339,2.50066 6.52295,4.66435 10.2286,6.15253 3.70565,1.48817 7.71827,2.28807 11.70449,2.05028 3.98622,-0.2378 7.94202,-1.54343 11.12654,-3.95285 3.18453,-2.40941 5.55321,-5.95014 6.30069,-9.87287 0.54687,-2.86997 0.22827,-5.87029 -0.69517,-8.64212 -0.92345,-2.77183 -2.43638,-5.32396 -4.24778,-7.61625 -3.62282,-4.58458 -8.37836,-8.1102 -12.8629,-11.85614 -3.62184,-3.02533 -7.11688,-6.24586 -9.99552,-9.98535 -2.87864,-3.73948 -5.13314,-8.03394 -6.0346,-12.66618 -0.90146,-4.63225 -0.37432,-9.62031 1.95677,-13.72352 1.16555,-2.05161 2.76896,-3.8617 4.70588,-5.20927 1.93692,-1.34756 4.2083,-2.22547 6.55601,-2.46175 2.502,-0.25181 5.05537,0.22692 7.3572,1.23933 2.30183,1.0124 4.35644,2.54717 6.08795,4.3707 3.46303,3.64705 5.59513,8.35736 7.17216,13.13298 5.61969,17.01773 4.91864,35.71287 11.24581,52.48043 1.48409,3.93296 3.40169,7.80386 6.40273,10.7474 1.50052,1.47177 3.26327,2.69242 5.2181,3.46462 1.95483,0.7722 4.10522,1.08589 6.18502,0.78238 3.41545,-0.49843 6.46601,-2.65974 8.43816,-5.49247 1.97214,-2.83273 2.93172,-6.28357 3.16031,-9.72761 0.45717,-6.88809 -1.85999,-13.6127 -3.16411,-20.39164 -2.91248,-15.1393 -0.77269,-30.72557 0.79532,-46.06253 1.56801,-15.33696 2.49082,-31.25062 -2.66962,-45.77821 -5.09279,-14.33713 -16.16895,-26.43624 -29.98882,-32.80027 -6.67075,-3.07187 -14.06647,-4.94342 -19.71354,-9.63871 -2.82354,-2.34765 -5.14062,-5.42303 -6.08995,-8.97022 -0.47467,-1.7736 -0.59977,-3.64767 -0.29369,-5.45799 0.30607,-1.81032 1.04931,-3.55394 2.19985,-4.98474 1.98073,-2.46321 5.10169,-3.87834 8.25487,-4.09783 3.15318,-0.21948 6.32142,0.68482 9.08241,2.22353 5.53949,3.08718 9.33443,8.4665 13.65846,13.1054 2.16202,2.31945 4.51672,4.50155 7.25868,6.09396 2.74197,1.59242 5.90827,2.57209 9.07167,2.3551 2.45197,-0.16819 4.83641,-1.05534 6.86509,-2.44275 2.02869,-1.3874 3.70521,-3.26494 4.95079,-5.38366 2.49117,-4.23745 3.22363,-9.33313 2.87031,-14.23588 -0.70665,-9.80552 -5.46302,-18.86559 -7.18898,-28.54384 -1.40331,-7.869 -0.77091,-15.93945 -0.21779,-23.91344 0.55312,-7.97398 1.01347,-16.07817 -0.71936,-23.88123 -1.4642,-6.59341 -4.44205,-12.73237 -7.08407,-18.94821 -2.64202,-6.21584 -4.99806,-12.72167 -5.09889,-19.47495 -0.0798,-5.34468 1.26947,-10.63917 3.33749,-15.56819 2.06802,-4.92903 4.84389,-9.52694 7.7278,-14.02749 5.76783,-9.00111 12.15131,-18.02269 14.23777,-28.50766 1.30007,-6.53314 0.84243,-13.3044 -0.29981,-19.86697 -1.14224,-6.56258 -2.95739,-12.98708 -4.38593,-19.49334 -2.8985,-13.20112 -4.21334,-26.77064 -8.19978,-39.68494 -1.99321,-6.45716 -4.66356,-12.74278 -8.38997,-18.38029 -3.72642,-5.63752 -8.54013,-10.62073 -14.33622,-14.09536 -9.54559,-5.72237 -20.98551,-7.01747 -31.86312,-9.3715 -6.89798,-1.49279 -13.73817,-3.47427 -20.04099,-6.64997 -6.30281,-3.17569 -12.07446,-7.60101 -16.15369,-13.36039 -4.07923,-5.75937 -6.36897,-12.91902 -5.62394,-19.93725 0.37252,-3.50911 1.49659,-6.94741 3.35488,-9.94731 1.85829,-2.9999 4.45596,-5.55223 7.53778,-7.27125 2.57886,-1.43847 5.50031,-2.28951 8.45292,-2.33227 2.9526,-0.0428 5.93027,0.73794 8.41579,2.33227 3.7371,2.39715 6.13645,6.43587 7.65982,10.6062 1.52336,4.17033 2.29852,8.57347 3.58598,12.82256 2.342,7.72943 6.53099,15.08004 12.8654,20.09046 3.16721,2.5052 6.84225,4.39331 10.76577,5.34895 3.92353,0.95563 8.09495,0.96335 11.98055,-0.13635 5.6618,-1.60239 10.53861,-5.53199 13.73832,-10.47016 3.19971,-4.93817 4.78239,-10.82723 5.00469,-16.70721 0.2878,-7.61233 -1.61562,-15.30176 -0.27564,-22.80076 0.66998,-3.7495 2.20686,-7.43209 4.89466,-10.13085 1.34391,-1.34938 2.96381,-2.43498 4.75286,-3.08784 1.78904,-0.65286 3.74788,-0.86499 5.62253,-0.52942 3.20275,0.5733 5.99929,2.73872 7.71759,5.50164 1.71829,2.76292 2.42588,6.07167 2.42014,9.32532 -0.0115,6.5073 -2.71275,12.65765 -4.51483,18.91046 -3.43575,11.92129 -3.57381,24.9915 0.93715,36.54887 2.44419,6.26216 6.24803,12.03721 11.30194,16.46967 5.05391,4.43246 11.37972,7.48096 18.05267,8.29363 6.67296,0.81266 13.66684,-0.68095 19.22363,-4.46392 5.55679,-3.78297 9.56362,-9.88886 10.46224,-16.55078 0.92165,-6.83263 -1.32462,-13.65419 -3.58976,-20.16598 -2.26514,-6.51179 -4.61573,-13.27345 -3.90745,-20.13149 0.4141,-4.0096 1.958,-7.99907 4.8397,-10.81761 1.44085,-1.40927 3.20003,-2.50497 5.12665,-3.09678 1.92661,-0.59181 4.01989,-0.66996 5.96521,-0.14287 1.7132,0.4642 3.28933,1.38883 4.58721,2.59963 1.29789,1.2108 2.32131,2.70257 3.05937,4.31682 1.47613,3.2285 1.80042,6.88228 1.5551,10.42375 -0.49064,7.08293 -3.15869,14.00192 -2.64163,21.08298 0.52062,7.12978 4.3231,13.76893 9.54894,18.64698 5.22584,4.87805 11.7891,8.12779 18.56557,10.40468 13.7076,4.60575 28.99358,5.36598 42.54673,0.32383 6.77658,-2.52107 13.04674,-6.46878 18.07495,-11.66444 5.0282,-5.19566 8.79123,-11.64823 10.60176,-18.64821 1.85853,-7.18554 1.6407,-14.83258 -0.13588,-22.03882 -1.77658,-7.20624 -5.07676,-13.98559 -9.23563,-20.13294 -4.44064,-6.56385 -9.85178,-12.43252 -14.22209,-19.0434 -4.37031,-6.61088 -7.73311,-14.27651 -7.33237,-22.19123 0.24375,-4.81412 1.87426,-9.4755 4.10191,-13.75016 2.22764,-4.27467 5.04747,-8.20762 7.841,-12.1359 2.79352,-3.92828 5.58216,-7.88696 7.73871,-12.19793 2.15655,-4.31096 3.67271,-9.01983 3.75691,-13.83938 0.0626,-3.58505 -0.64976,-7.13498 -0.91232,-10.71095 -0.26257,-3.57597 -0.0246,-7.27343 1.44284,-10.54501 1.4674,-3.27158 4.18285,-5.95794 7.46996,-7.39024 3.2871,-1.43229 6.97019,-1.57615 10.55579,-1.57615 h 25.48003 l 12.31902,-18.75 h -31.0035 c -6.35483,0 -12.79291,0.16878 -18.89239,1.95213 -6.09947,1.78335 -11.71774,5.14072 -16.22475,9.62076 -4.50702,4.48004 -7.88113,9.96419 -10.85525,15.5801 -2.97412,5.61592 -5.6428,11.43534 -9.37801,16.57656 -5.28083,7.26865 -12.61019,12.93902 -20.73099,16.78259 -12.22633,5.78672 -26.00938,7.46668 -39.53529,7.60488 -13.52591,0.13821 -27.03523,-1.18356 -40.56114,-1.04482 -31.10617,0.31907 -62.07955,8.35069 -93.03287,5.25422 -12.79518,-1.27999 -25.44484,-4.4565 -38.30225,-4.25139 -6.4287,0.10255 -12.89845,1.07293 -18.86287,3.47386 -5.96442,2.40093 -11.4136,6.29104 -15.12532,11.54098 -4.47603,6.33099 -6.17286,14.13812 -8.43435,21.55446 -0.75613,2.47966 -1.58982,4.94814 -2.77426,7.25413 -1.18445,2.30598 -2.73611,4.45586 -4.75453,6.08265 -2.01842,1.62679 -4.52948,2.70591 -7.12129,2.76045 -1.29591,0.0273 -2.6005,-0.20152 -3.79568,-0.70317 -1.19518,-0.50166 -2.27854,-1.2785 -3.1087,-2.27396 -0.92716,-1.11177 -1.52408,-2.47419 -1.8557,-3.88333 -0.33163,-1.40914 -0.40681,-2.86789 -0.3698,-4.31505 0.074,-2.89433 0.59069,-5.78498 0.3512,-8.67033 -0.2991,-3.60357 -1.79438,-7.06554 -4.03854,-9.90084 -2.24416,-2.83529 -5.21513,-5.05684 -8.4755,-6.62055 -6.52073,-3.12741 -14.00575,-3.61309 -21.22338,-3.15877 -16.17785,1.01834 -31.80395,6.4449 -47.95258,7.85254 -8.07432,0.70382 -16.32946,0.37694 -24.08586,-1.97424 -7.75641,-2.35118 -15.00774,-6.84081 -19.8023,-13.3755 -5.10154,-6.95308 -7.13265,-15.74976 -7.4972,-24.36591 -0.22119,-5.22788 0.12458,-10.46369 0.0408,-15.69558 -0.0837,-5.23188 -0.61569,-10.53352 -2.51119,-15.41068 -2.49835,-6.42828 -7.47701,-11.85629 -13.68556,-14.85936 -6.20856,-3.00307 -13.31571,-3.38683 -20.21242,-3.38683 h -40.99938 z"
         style="opacity:1;vector-effect:none;fill:none;fill-opacity:1;stroke:#000000;stroke-width:4.00031233;stroke-linecap:butt;stroke-linejoin:miter;stroke-miterlimit:4;stroke-dasharray:none;stroke-dashoffset:0;stroke-opacity:1" />
      <path
         inkscape:original-d="m 290.13901,251.22749 c -11.87151,-7.80864 -4.9972,-9.9972 -7.49721,-14.9944 -2.5,-4.9972 -19.36684,-2.50001 -29.05166,-3.7486 -9.68483,-1.2486 4.37431,13.74393 6.56005,20.61731 2.18575,6.87337 -13.74393,14.99346 -20.61731,22.49161 -6.87337,7.49814 -24.36497,6.24673 -36.54886,9.3715 -12.1839,3.12477 -2.49814,16.86777 -3.7486,25.30306 -1.25048,8.43529 23.74207,-6.24861 35.61171,-9.37151 11.86963,-3.12289 21.86778,-3.74954 32.80027,-5.6229 10.93248,-1.87335 26.24115,9.99534 39.36032,14.99441 13.11917,4.99908 19.99348,3.12289 29.98881,4.68575 9.99534,1.56286 9.99721,24.36498 14.99441,36.54887 4.9972,12.18389 13.12104,21.86591 19.68016,32.80027 6.55911,10.93435 16.24487,14.99346 24.36591,22.49161 8.12103,7.49814 -6.8715,27.48881 -10.30865,41.23461 -3.43716,13.74582 -18.11731,4.37244 -27.17737,6.56006 -9.06006,2.18762 6.24861,9.99533 9.3715,14.99441 3.1229,4.99907 25.61638,-16.24488 38.42317,-24.36592 12.80679,-8.12102 -2.49813,-28.74021 -3.7486,-43.10892 -1.25047,-14.3687 -13.11916,-32.48882 -19.68015,-48.73182 -6.561,-16.243 -23.74021,-25.61638 -35.61173,-38.42317 -11.87151,-12.80678 -20.61637,-15.62011 -30.92596,-23.42876 -10.30959,-7.80864 13.74581,-5.62384 20.61731,-8.43435 6.8715,-2.81051 5.62384,-4.99908 8.43435,-7.4972 2.81052,-2.49813 -13.11917,-0.62571 -19.68016,-0.93716 -6.56099,-0.31144 -23.74021,-15.62011 -35.61171,-23.42876 z"
         inkscape:path-effect="#path-effect4648"
         inkscape:connector-curvature="0"
         id="path4645"
         d="m 290.13901,251.22749 c -2.44949,-5.02613 -4.56207,-10.23552 -7.49721,-14.9944 -1.65247,-2.67923 -3.57342,-5.21767 -5.92416,-7.31122 -2.35074,-2.09354 -5.15128,-3.73341 -8.2134,-4.46304 -3.06211,-0.72964 -6.39291,-0.50558 -9.20949,0.90005 -1.40829,0.70282 -2.67682,1.69308 -3.67055,2.91362 -0.99373,1.22054 -1.7091,2.67198 -2.03406,4.21199 -0.37847,1.79359 -0.22472,3.67074 0.23427,5.44543 0.459,1.7747 1.21516,3.45857 2.04504,5.09305 1.65978,3.26895 3.65932,6.4657 4.28074,10.07883 0.47591,2.76708 0.0976,5.65488 -0.93554,8.26559 -1.03315,2.61071 -2.70642,4.94759 -4.74213,6.88126 -4.07143,3.86734 -9.4718,6.06585 -14.93964,7.34476 -6.1869,1.44709 -12.56956,1.8189 -18.84221,2.83167 -6.27265,1.01276 -12.60788,2.74848 -17.70665,6.53983 -3.92857,2.92122 -7.03186,7.13285 -7.97281,11.93721 -0.47047,2.40218 -0.39217,4.92109 0.31601,7.26422 0.70818,2.34314 2.0547,4.50277 3.9082,6.10163 2.50752,2.16302 5.85362,3.22355 9.16447,3.29124 3.31085,0.0677 6.59094,-0.80478 9.61859,-2.14629 6.05531,-2.68302 11.11667,-7.16406 16.82865,-10.51646 9.79224,-5.74713 21.70696,-8.04282 32.80027,-5.6229 6.88151,1.50115 13.25079,4.70662 19.58334,7.79003 6.33256,3.0834 12.8194,6.10857 19.77698,7.20438 5.05312,0.79586 10.20531,0.54853 15.31346,0.821 5.10815,0.27247 10.35364,1.12791 14.67535,3.86475 2.86473,1.81417 5.2017,4.39225 6.97988,7.27945 1.77818,2.8872 3.01529,6.08144 3.93328,9.34567 1.83597,6.52845 2.41958,13.34877 4.08125,19.92375 3.16652,12.52947 10.27315,23.93897 19.68016,32.80027 8.06677,7.59881 17.88138,13.50465 24.36591,22.49161 2.47196,3.42591 4.40914,7.25776 5.51355,11.33547 1.10441,4.0777 1.36318,8.40422 0.56074,12.55192 -0.80244,4.14771 -2.68443,8.10719 -5.53852,11.22192 -2.85409,3.11473 -6.6906,5.35513 -10.84442,6.1253 -4.86719,0.90244 -9.86901,-0.19614 -14.8174,-0.0645 -2.47419,0.0658 -4.97685,0.45284 -7.21628,1.50684 -2.23943,1.054 -4.2031,2.82833 -5.14369,5.11771 -0.62723,1.52667 -0.77984,3.23335 -0.51034,4.86169 0.26949,1.62834 0.95272,3.17752 1.90981,4.52218 1.91417,2.68932 4.861,4.50692 7.97203,5.61054 4.01114,1.42293 8.38797,1.75332 12.58905,1.07154 4.20109,-0.68179 8.22268,-2.36379 11.73098,-4.77331 7.0166,-4.81903 11.83532,-12.45972 14.10314,-20.66415 3.89761,-14.1006 0.60354,-29.14192 -3.7486,-43.10892 -5.21688,-16.74214 -11.94329,-32.99473 -19.68015,-48.73182 -3.96437,-8.0637 -8.23746,-16.06022 -13.97288,-22.97719 -5.73543,-6.91697 -13.067,-12.75098 -21.63885,-15.44598 -7.18004,-2.25741 -15.02666,-2.27418 -21.87422,-5.39824 -3.42379,-1.56203 -6.56821,-3.95519 -8.44346,-7.21797 -0.93762,-1.63138 -1.54278,-3.46338 -1.67667,-5.34025 -0.13388,-1.87687 0.21211,-3.79679 1.06839,-5.4723 0.87987,-1.72167 2.27596,-3.15021 3.88598,-4.2208 1.61001,-1.07059 3.43037,-1.7962 5.29619,-2.3032 3.73163,-1.014 7.63958,-1.17077 11.43514,-1.91035 2.02758,-0.39508 4.07397,-0.98135 5.73153,-2.21409 0.82879,-0.61638 1.54803,-1.39175 2.03924,-2.30033 0.49122,-0.90857 0.7477,-1.95335 0.66358,-2.98278 -0.0787,-0.96312 -0.45435,-1.89402 -1.03155,-2.66903 -0.57721,-0.775 -1.35136,-1.39573 -2.21417,-1.83089 -1.72561,-0.87031 -3.75798,-0.98583 -5.66124,-0.64997 -3.80652,0.67171 -7.10064,3.00729 -10.7732,4.21273 -3.69357,1.21234 -7.73091,1.24353 -11.50801,0.32388 -3.7771,-0.91966 -7.2979,-2.76634 -10.36121,-5.15974 -6.12663,-4.7868 -10.33635,-11.60383 -13.74249,-18.5929 z"
         style="opacity:1;vector-effect:none;fill:#000000;fill-opacity:1;stroke:#000000;stroke-width:4.00031233;stroke-linecap:butt;stroke-linejoin:miter;stroke-miterlimit:4;stroke-dasharray:none;stroke-dashoffset:0;stroke-opacity:1" />
      <path
         inkscape:original-d="m 426.96297,563.29859 c 6.24673,11.87152 6.24861,9.37057 9.3715,14.05726 3.1229,4.68668 5.62385,-5.62384 8.43436,-8.43436 2.81052,-2.81051 -8.7458,-25.61638 -13.1201,-38.42317 -4.37431,-12.80678 -7.49627,-21.24301 -11.24581,-31.86311 -3.74954,-10.6201 10.62198,-13.12104 15.93155,-19.68016 5.30959,-6.55911 13.74582,-27.49068 20.61732,-41.23461 6.8715,-13.74394 -8.7458,-34.9879 -13.12011,-52.48043 -4.37431,-17.49254 -16.243,-22.49255 -24.36592,-33.73742 -8.1229,-11.24487 -7.49625,-1.87524 -11.2458,-2.81145 -3.74954,-0.93621 -1.2486,8.7458 -1.8743,13.12011 -0.6257,4.3743 15.62012,16.243 23.42876,24.36591 7.80865,8.12291 3.12477,26.23927 4.68576,39.36031 1.56097,13.12105 -3.1229,29.36311 -4.68576,44.04608 -1.56285,14.68296 -16.86777,14.99346 -25.30306,22.49161 -8.43529,7.49814 -18.74207,-1.25048 -28.11451,-1.8743 -9.37245,-0.62383 -9.99533,17.49253 -14.99441,26.2402 -4.99907,8.74769 -1.24859,12.49441 -1.8743,18.74302 -0.6257,6.24861 11.87151,-2.5 17.80586,-3.7486 5.93435,-1.2486 13.74581,-10.62198 20.61731,-15.93156 6.8715,-5.30959 6.87337,8.12103 10.30865,12.18295 3.43529,4.06193 12.49628,23.74021 18.74301,35.61172 z"
         inkscape:path-effect="#path-effect4652"
         inkscape:connector-curvature="0"
         id="path4650"
         d="m 426.96297,563.29859 c 0.72295,2.96385 1.1169,6.05013 2.44338,8.7974 0.66324,1.37364 1.5641,2.65066 2.74573,3.61529 1.18163,0.96464 2.6576,1.60248 4.18239,1.64457 1.0745,0.0297 2.14936,-0.23554 3.11157,-0.71468 0.96221,-0.47914 1.81333,-1.16835 2.52332,-1.97541 1.41999,-1.61411 2.25944,-3.66338 2.79947,-5.74427 1.76005,-6.78199 0.52212,-14.06979 -2.18151,-20.53381 -2.70363,-6.46401 -6.79692,-12.23783 -10.93859,-17.88936 -3.45541,-4.7151 -6.99847,-9.43832 -9.366,-14.78311 -2.36753,-5.3448 -3.48625,-11.45938 -1.87981,-17.08 1.17522,-4.11185 3.72561,-7.70766 6.64237,-10.83512 2.91676,-3.12746 6.22583,-5.86102 9.28918,-8.84504 11.23879,-10.94776 19.13559,-25.61513 20.61732,-41.23461 1.72521,-18.18602 -5.10737,-36.06386 -13.12011,-52.48043 -6.1391,-12.57784 -13.33415,-25.12401 -24.36592,-33.73742 -1.61363,-1.25989 -3.33098,-2.44292 -5.27551,-3.0832 -0.97226,-0.32014 -1.99561,-0.49992 -3.01886,-0.47254 -1.02324,0.0274 -2.0466,0.26568 -2.95143,0.74429 -1.08594,0.57441 -1.97968,1.48664 -2.59097,2.55226 -0.61128,1.06563 -0.94555,2.27999 -1.03404,3.5053 -0.17696,2.45062 0.61353,4.88455 1.75071,7.06255 2.6227,5.02316 7.00044,8.87053 11.37239,12.47563 4.37194,3.6051 8.91471,7.17429 12.05637,11.89028 3.7345,5.60591 5.20707,12.45241 5.51859,19.18113 0.31152,6.72872 -0.45938,13.45361 -0.83283,20.17918 -0.82198,14.80313 0.22157,30.05585 -4.68576,44.04608 -1.98476,5.65834 -4.97295,11.05045 -9.28435,15.21794 -4.31139,4.16749 -10.0271,7.0357 -16.01871,7.27367 -4.75845,0.18899 -9.40816,-1.2415 -14.06553,-2.23519 -2.32868,-0.49684 -4.69166,-0.88774 -7.07264,-0.91151 -2.38098,-0.0238 -4.78977,0.32977 -6.97634,1.2724 -2.38717,1.02911 -4.4466,2.73659 -6.0911,4.74987 -1.6445,2.01327 -2.88953,4.32809 -3.89121,6.72691 -2.00335,4.79763 -3.05787,9.94557 -5.0121,14.76342 -1.25133,3.08496 -2.87522,6.0473 -3.62054,9.29188 -0.37265,1.62229 -0.51814,3.31113 -0.26817,4.9568 0.24998,1.64566 0.91042,3.24858 2.01441,4.49434 1.14663,1.29388 2.74114,2.16061 4.43093,2.52595 1.68979,0.36534 3.46847,0.24251 5.12676,-0.24629 3.31658,-0.97762 6.062,-3.34944 8.24817,-6.02826 2.93849,-3.60067 5.05711,-7.84181 8.22513,-11.24228 1.584,-1.70024 3.44076,-3.18433 5.57855,-4.09522 2.1378,-0.9109 4.57529,-1.21834 6.81363,-0.59406 2.64599,0.73797 4.80521,2.70054 6.39154,4.94319 1.58632,2.24264 2.68515,4.78453 3.91711,7.23976 3.01969,6.01806 6.87303,11.57117 10.39488,17.30983 3.52185,5.73866 6.75254,11.76051 8.34813,18.30189 z"
         style="opacity:1;vector-effect:none;fill:#000000;fill-opacity:1;stroke:#000000;stroke-width:4.00031233;stroke-linecap:butt;stroke-linejoin:miter;stroke-miterlimit:4;stroke-dasharray:none;stroke-dashoffset:0;stroke-opacity:1" />
      <path
         sodipodi:nodetypes="cssccssscccc"
         inkscape:original-d="m 381.51118,617.18475 c 2.18574,-1.87337 7.96672,-17.963 13.58868,-23.89734 5.62196,-5.93435 26.24115,6.24673 39.36032,9.3715 13.11917,3.12477 5.62383,-1.87524 8.43435,-2.81145 2.81051,-0.93622 -4.37243,-3.74954 -6.56006,-5.6229 -2.18761,-1.87337 -16.243,-8.74768 -24.3659,-13.12011 -8.12291,-4.37243 -11.86964,-15.62011 -17.80586,-23.42876 -5.93623,-7.80865 -16.86778,5.62196 -25.30306,8.43435 -8.4353,2.81239 8.74767,5.62197 13.1201,8.43436 4.37244,2.81239 -6.24673,13.74394 -9.3715,20.6173 -3.12477,6.87338 0.31332,4.06006 0,11.24582 -0.31333,7.18576 6.71719,12.65059 8.90293,10.77723 z"
         inkscape:path-effect="#path-effect4656"
         inkscape:connector-curvature="0"
         id="path4654"
         d="m 381.51118,617.18475 c 1.23254,0.0554 2.47047,-0.25502 3.56477,-0.82487 1.09431,-0.56984 2.04739,-1.39346 2.82566,-2.35081 1.55655,-1.9147 2.39713,-4.31531 2.9283,-6.72503 0.53117,-2.40972 0.78166,-4.87469 1.31728,-7.28342 0.53562,-2.40874 1.38554,-4.80716 2.95267,-6.71321 1.16664,-1.41895 2.70225,-2.51929 4.39008,-3.24434 1.68783,-0.72505 3.52478,-1.08025 5.36133,-1.12013 3.67308,-0.0798 7.28142,1.08615 10.56094,2.74225 6.55904,3.31218 12.09995,8.60277 19.04797,10.99372 1.61648,0.55626 3.36102,0.94797 5.02941,0.57524 0.83419,-0.18637 1.63313,-0.56842 2.25541,-1.15441 0.62228,-0.58599 1.05864,-1.38237 1.14953,-2.23228 0.0838,-0.78379 -0.12718,-1.58489 -0.52698,-2.26423 -0.39981,-0.67934 -0.98096,-1.24132 -1.63563,-1.68036 -1.30933,-0.87809 -2.87621,-1.26454 -4.39745,-1.67831 -9.00367,-2.44895 -17.77729,-6.51302 -24.3659,-13.12011 -6.93664,-6.9561 -11.05648,-16.29082 -17.80586,-23.42876 -2.4105,-2.54927 -5.17572,-4.81842 -8.36449,-6.28165 -3.18876,-1.46323 -6.83292,-2.08022 -10.25646,-1.31302 -1.71177,0.3836 -3.35194,1.11016 -4.75258,2.16633 -1.40065,1.05617 -2.55735,2.44467 -3.29213,4.0376 -0.73477,1.59293 -1.04032,3.38949 -0.81778,5.12954 0.22254,1.74006 0.98019,3.41615 2.18038,4.69555 1.80872,1.92809 4.42246,2.82638 6.87262,3.8192 1.22509,0.49641 2.44131,1.03641 3.53954,1.77203 1.09823,0.73563 2.08062,1.67963 2.70794,2.84313 0.94527,1.75321 1.00897,3.89025 0.48349,5.81149 -0.52548,1.92124 -1.59658,3.65208 -2.82259,5.22186 -1.22601,1.56978 -2.61563,3.00401 -3.88921,4.53545 -1.27357,1.53144 -2.44339,3.18368 -3.14319,5.0485 -1.33641,3.56123 -0.84043,7.5361 0,11.24582 0.55477,2.44879 1.2747,4.91568 2.70583,6.97874 0.71557,1.03153 1.6067,1.95028 2.66258,2.6294 1.05588,0.67912 2.28036,1.11276 3.53452,1.16909 z"
         style="opacity:1;vector-effect:none;fill:#000000;fill-opacity:1;stroke:#000000;stroke-width:4.00031233;stroke-linecap:butt;stroke-linejoin:miter;stroke-miterlimit:4;stroke-dasharray:none;stroke-dashoffset:0;stroke-opacity:1" />
      <path
         sodipodi:nodetypes="sssscccscccccss"
         inkscape:original-d="m 365.11104,710.43121 c -4.99907,-1.56098 11.24675,-16.86965 16.86871,-25.30306 5.62196,-8.43341 -8.74579,-13.12104 -13.1201,-19.68016 -4.37431,-6.55912 3.90573,-13.74582 12.65153,-22.49161 8.7458,-8.7458 17.33822,4.99719 19.21158,9.3715 1.87337,4.37431 -1.24859,14.99347 -1.8743,22.49161 -0.6257,7.49815 -2.49814,13.11917 -3.7486,19.68016 -1.25048,6.56099 13.12104,-6.2486 19.68016,-9.3715 6.55911,-3.1229 11.8715,-3.12477 17.80585,-4.68576 5.93436,-1.56097 6.24862,13.11917 9.37151,19.68016 3.1229,6.56099 2.50001,13.74394 3.7486,20.61731 1.2486,6.87338 -14.99347,-4.99906 -22.49161,-7.4972 -7.49814,-2.49813 -12.4944,-7.49814 -18.74301,-11.2458 -6.2486,-3.74767 -16.243,8.7458 -24.36591,13.1201 -8.12291,4.37431 -9.99533,-3.12477 -14.99441,-4.68575 z"
         inkscape:path-effect="#path-effect4660"
         inkscape:connector-curvature="0"
         id="path4658"
         d="m 365.11104,710.43121 c -0.38229,-1.28075 -0.39544,-2.65892 -0.11862,-3.96654 0.27682,-1.30761 0.83739,-2.54636 1.56754,-3.6659 1.46028,-2.23908 3.5618,-3.97695 5.70193,-5.57874 2.14013,-1.60179 4.36872,-3.11863 6.21239,-5.05429 1.84368,-1.93565 3.30185,-4.37217 3.50547,-7.03759 0.15433,-2.02021 -0.42482,-4.05 -1.38697,-5.83307 -0.96215,-1.78307 -2.29394,-3.34075 -3.71544,-4.78449 -2.84301,-2.8875 -6.15192,-5.46549 -8.01769,-9.0626 -1.153,-2.22293 -1.68836,-4.75627 -1.57584,-7.25789 0.11252,-2.50163 0.86829,-4.96661 2.14061,-7.12346 2.54465,-4.3137 7.14902,-7.27243 12.08676,-8.11026 3.75545,-0.63722 7.70787,-0.0962 11.1371,1.56204 3.42922,1.65828 6.31504,4.43102 8.07448,7.80946 1.81494,3.48501 2.41287,7.54132 1.98342,11.44707 -0.42944,3.90576 -1.85389,7.6646 -3.85772,11.04454 -1.87002,3.15425 -4.26368,6.04519 -5.50768,9.49465 -0.622,1.72473 -0.93999,3.58506 -0.70105,5.40288 0.23893,1.81783 1.06784,3.58969 2.46013,4.78263 1.54055,1.31997 3.67136,1.84043 5.69016,1.64022 2.0188,-0.20021 3.9292,-1.07173 5.58085,-2.24972 3.3033,-2.35599 5.58571,-5.84812 8.40915,-8.762 2.30225,-2.376 5.0437,-4.41054 8.19357,-5.42248 1.57494,-0.50597 3.24041,-0.7493 4.89138,-0.64585 1.65098,0.10345 3.28659,0.55845 4.7209,1.38257 1.6166,0.92886 2.94791,2.30695 3.97416,3.86354 1.02625,1.5566 1.7589,3.29072 2.33579,5.06368 1.15376,3.54593 1.70526,7.27944 3.06156,10.75294 1.34386,3.44162 3.45087,6.55604 4.66758,10.04464 0.60835,1.7443 0.98883,3.58852 0.90096,5.43377 -0.0879,1.84525 -0.66705,3.69546 -1.81994,5.1389 -1.42056,1.77857 -3.64261,2.8283 -5.90843,3.04593 -2.26582,0.21762 -4.56391,-0.34911 -6.59924,-1.3683 -4.07065,-2.03838 -7.01708,-5.72186 -9.98394,-9.17483 -2.45926,-2.8622 -5.0495,-5.66329 -8.1607,-7.79885 -3.11119,-2.13556 -6.81102,-3.57924 -10.58231,-3.44695 -2.33514,0.0819 -4.6222,0.76252 -6.73592,1.7584 -2.11372,0.99587 -4.06633,2.30252 -5.94869,3.68683 -3.76472,2.76862 -7.35443,5.9095 -11.6813,7.67487 -2.73463,1.11573 -5.79596,1.64093 -8.66392,0.93533 -1.43398,-0.3528 -2.7998,-1.01354 -3.92007,-1.97571 -1.12026,-0.96216 -1.98804,-2.23032 -2.41042,-3.64537 z"
         style="opacity:1;vector-effect:none;fill:#000000;fill-opacity:1;stroke:#000000;stroke-width:4.00031233;stroke-linecap:butt;stroke-linejoin:miter;stroke-miterlimit:4;stroke-dasharray:none;stroke-dashoffset:0;stroke-opacity:1" />
      <path
         inkscape:original-d="m 328.56217,808.83201 c 4.68482,-2.49813 -0.62383,-23.11732 -0.93715,-34.67457 -0.31331,-11.55725 23.74209,-6.87337 35.61173,-10.30865 11.86963,-3.43528 11.24673,3.74766 16.8687,5.6229 5.62197,1.87524 -4.9972,-8.74768 -7.4972,-13.12011 -2.5,-4.37242 -12.4944,-13.74581 -18.74302,-20.6173 -6.2486,-6.8715 -9.99532,3.12289 -14.9944,4.68574 -4.99907,1.56286 -24.98974,15.61824 -37.48602,23.42877 -12.49628,7.81052 -16.86776,-2.50001 -25.30306,-3.74861 -8.43529,-1.2486 -12.4944,4.99721 -18.74301,7.49721 -6.2486,2.5 9.99721,3.74767 14.99441,5.6229 4.9972,1.87524 15.62011,8.7458 23.42876,13.12011 7.80865,4.37431 12.49627,19.9916 18.743,29.98881 6.24675,9.99721 9.37245,-4.99908 14.05726,-7.4972 z"
         inkscape:path-effect="#path-effect4664"
         inkscape:connector-curvature="0"
         id="path4662"
         d="m 328.56217,808.83201 c 1.28613,-2.63742 1.7721,-5.61202 1.76178,-8.54631 -0.0103,-2.93428 -0.49967,-5.84558 -1.0827,-8.72138 -1.16605,-5.75159 -2.71952,-11.64292 -1.61623,-17.40688 0.70647,-3.69085 2.51289,-7.15757 5.09967,-9.88338 2.58678,-2.72581 5.94164,-4.70624 9.56595,-5.69913 3.62431,-0.9929 7.50737,-1.00085 11.14763,-0.0681 3.64026,0.93273 7.03131,2.7995 9.79848,5.34199 2.54627,2.33953 4.61923,5.27234 7.62434,6.98295 1.50255,0.85531 3.23937,1.37342 4.96046,1.20888 0.86054,-0.0823 1.70799,-0.33585 2.45529,-0.77041 0.7473,-0.43456 1.39208,-1.05237 1.82861,-1.79852 0.69483,-1.18764 0.82995,-2.65371 0.53168,-3.99696 -0.29827,-1.34324 -1.0034,-2.57111 -1.88016,-3.63157 -1.75351,-2.12092 -4.15743,-3.59213 -6.14872,-5.49158 -3.44078,-3.28209 -5.51756,-7.69702 -8.08416,-11.69998 -1.2833,-2.00148 -2.714,-3.92944 -4.4726,-5.52947 -1.7586,-1.60003 -3.86664,-2.86616 -6.18626,-3.38785 -2.6334,-0.59226 -5.41974,-0.19751 -7.95176,0.73761 -2.53202,0.93512 -4.83944,2.38881 -7.04264,3.94813 -6.08703,4.30813 -11.51285,9.48105 -17.47015,13.96687 -5.95729,4.48583 -12.64214,8.34832 -20.01587,9.4619 -8.50747,1.2848 -17.09101,-1.18151 -25.30306,-3.74861 -1.98973,-0.622 -3.9842,-1.25325 -6.03762,-1.61296 -2.05342,-0.35971 -4.18163,-0.44147 -6.21125,0.0345 -2.02962,0.47598 -3.95951,1.54349 -5.24172,3.18722 -0.6411,0.82187 -1.11339,1.77946 -1.34151,2.79653 -0.22812,1.01707 -0.2087,2.09301 0.0891,3.09191 0.41028,1.37623 1.33812,2.56752 2.48943,3.4259 1.15131,0.85838 2.51711,1.39899 3.91851,1.71268 2.8028,0.6274 5.71651,0.37175 8.58647,0.48432 4.66201,0.18286 9.30123,1.36782 13.39985,3.59698 4.09861,2.22917 7.64213,5.51426 10.02891,9.52313 3.15294,5.29573 4.18263,11.5537 6.39755,17.30521 1.10746,2.87576 2.53831,5.66559 4.58076,7.97314 2.04246,2.30756 4.74141,4.11363 7.76469,4.71046 2.80185,0.55312 5.78403,0.0298 8.28604,-1.34723 2.50201,-1.37705 4.51944,-3.58299 5.77122,-6.14997 z"
         style="opacity:1;vector-effect:none;fill:#000000;fill-opacity:1;stroke:#000000;stroke-width:4.00031233;stroke-linecap:butt;stroke-linejoin:miter;stroke-miterlimit:4;stroke-dasharray:none;stroke-dashoffset:0;stroke-opacity:1" />
      <path
         inkscape:original-d="m 354.80239,831.32362 c 6.24673,-0.62383 8.12291,1.87336 12.18295,2.81145 4.06005,0.93809 -9.99533,3.1229 -14.9944,4.68575 -4.99907,1.56286 -10.62011,-3.74954 -15.93156,-5.6229 -5.31145,-1.87337 12.49628,-1.25047 18.74301,-1.8743 z"
         inkscape:path-effect="#path-effect4668"
         inkscape:connector-curvature="0"
         id="path4666"
         d="m 354.80239,831.32362 c 2.25857,0.0959 4.49791,-0.5376 6.75762,-0.47411 1.12986,0.0317 2.27287,0.24565 3.26764,0.78232 0.99478,0.53666 1.83065,1.42128 2.15769,2.50324 0.22863,0.75638 0.20067,1.58205 -0.0419,2.33408 -0.24254,0.75204 -0.6945,1.43024 -1.26877,1.973 -1.14855,1.08552 -2.74417,1.60477 -4.32111,1.70845 -3.1539,0.20737 -6.20983,-1.10673 -9.36265,-1.32978 -3.19705,-0.22618 -6.40997,0.67537 -9.59439,0.31236 -1.59221,-0.1815 -3.18303,-0.70115 -4.41324,-1.72811 -0.61511,-0.51348 -1.13214,-1.14982 -1.47632,-1.87339 -0.34419,-0.72358 -0.51216,-1.5351 -0.44761,-2.33376 0.0722,-0.8938 0.43537,-1.75507 0.98807,-2.4612 0.5527,-0.70614 1.28984,-1.2594 2.10297,-1.63745 1.62626,-0.7561 3.50688,-0.80452 5.27388,-0.49779 1.76701,0.30674 3.45526,0.94761 5.15129,1.5306 1.69603,0.583 3.43498,1.11546 5.2268,1.19154 z"
         style="opacity:1;vector-effect:none;fill:#000000;fill-opacity:1;stroke:#000000;stroke-width:4.00031233;stroke-linecap:butt;stroke-linejoin:miter;stroke-miterlimit:4;stroke-dasharray:none;stroke-dashoffset:0;stroke-opacity:1" />
      <path
         inkscape:original-d="m 211.88793,786.80799 c -5.74405,-10.38082 8.3947,-12.37069 12.59064,-18.55463 4.19594,-6.18394 -9.27638,-11.92892 -13.91598,-17.89196 -4.63959,-5.96306 -26.94745,11.48525 -40.42259,17.2293 -13.47513,5.74403 17.67202,27.38923 26.50662,41.08525 8.8346,13.69602 21.64801,12.36882 32.47061,18.55463 10.82259,6.18582 9.3e-4,-6.18581 0,-9.27731 -9.4e-4,-3.09151 -11.48527,-20.76446 -17.2293,-31.14528 z"
         inkscape:path-effect="#path-effect4672"
         inkscape:connector-curvature="0"
         id="path4670"
         d="m 211.88793,786.80799 c 0.50432,-1.82392 1.47387,-3.49209 2.62457,-4.99439 1.15071,-1.5023 2.48448,-2.8529 3.80516,-4.2082 1.32068,-1.3553 2.6369,-2.72538 3.746,-4.25865 1.1091,-1.53328 2.01129,-3.24458 2.41491,-5.09339 0.44013,-2.01606 0.26862,-4.1461 -0.3783,-6.10562 -0.64692,-1.95952 -1.75869,-3.75092 -3.14142,-5.28267 -2.76547,-3.06351 -6.53485,-5.04684 -10.39626,-6.50367 -7.92038,-2.98819 -16.8713,-3.96126 -24.84938,-1.1307 -3.98903,1.41529 -7.66739,3.77431 -10.45936,6.95555 -2.79197,3.18125 -4.67026,7.1951 -5.11385,11.40445 -0.44041,4.17918 0.52841,8.42935 2.30388,12.23818 1.77548,3.80883 4.3319,7.20781 7.14345,10.33105 5.62311,6.24648 12.36252,11.54621 17.05929,18.51602 2.15813,3.20257 3.84034,6.69597 5.71535,10.07211 1.87502,3.37614 3.9823,6.68474 6.82386,9.3 2.84156,2.61525 6.50778,4.50056 10.36901,4.57066 1.93061,0.035 3.87951,-0.39056 5.57687,-1.31114 1.69736,-0.92058 3.13305,-2.34443 3.98552,-4.077 0.7023,-1.42736 1.00102,-3.0367 0.96486,-4.62708 -0.0361,-1.59037 -0.39982,-3.16318 -0.96486,-4.65023 -1.09356,-2.87797 -2.92243,-5.42182 -4.94404,-7.74381 -2.02161,-2.32199 -4.25132,-4.45474 -6.30125,-6.75177 -2.04993,-2.29703 -3.93729,-4.78982 -5.13595,-7.62563 -1.19865,-2.8358 -1.66854,-6.05669 -0.84806,-9.02407 z"
         style="opacity:1;vector-effect:none;fill:#000000;fill-opacity:1;stroke:#000000;stroke-width:4.00031233;stroke-linecap:butt;stroke-linejoin:miter;stroke-miterlimit:4;stroke-dasharray:none;stroke-dashoffset:0;stroke-opacity:1" />
      <path
         inkscape:original-d="m 375.4197,233.89021 c -3.90573,-3.59147 8.74767,-6.87337 13.12011,-10.30865 4.37243,-3.43529 23.74208,-5.31146 35.61171,-7.96578 11.86963,-2.65433 11.24675,12.4944 16.86871,18.74301 5.62196,6.24861 -4.9972,22.17829 -7.49721,33.26884 -2.5,11.09055 -4.37242,7.18388 -6.56005,10.77723 -2.18762,3.59335 -3.74766,-9.37244 -5.6229,-14.05726 -1.87524,-4.68481 2.5,-15.9325 3.7486,-23.89734 1.24859,-7.96484 -14.68109,-4.68668 -22.02303,-7.02862 -7.34195,-2.34194 -10.62011,7.49627 -15.93156,11.2458 -5.31146,3.74954 -7.80865,-7.18575 -11.71438,-10.77723 z"
         inkscape:path-effect="#path-effect4676"
         inkscape:connector-curvature="0"
         id="path4674"
         d="m 375.4197,233.89021 c 0.32701,-1.41444 1.02686,-2.72943 1.94238,-3.85611 0.91551,-1.12667 2.04297,-2.07005 3.26147,-2.85926 2.43698,-1.5784 5.2112,-2.53834 7.91626,-3.59328 5.776,-2.25257 11.36775,-5.00178 17.29071,-6.83338 5.92296,-1.8316 12.32625,-2.71329 18.321,-1.1324 4.30337,1.13485 8.26619,3.53902 11.24771,6.84318 2.98151,3.30416 4.96869,7.4974 5.621,11.89983 0.84043,5.67202 -0.50183,11.44205 -2.30285,16.8858 -1.80102,5.44375 -4.0765,10.75912 -5.19436,16.38304 -0.44021,2.21469 -0.70739,4.49711 -1.63491,6.55583 -0.46376,1.02936 -1.09493,1.99437 -1.92857,2.75574 -0.83365,0.76137 -1.87812,1.31165 -2.99657,1.46566 -1.50395,0.20709 -3.06387,-0.32628 -4.22781,-1.30096 -1.16394,-0.97468 -1.94614,-2.35965 -2.3329,-3.8277 -0.38677,-1.46805 -0.39504,-3.01741 -0.18236,-4.52058 0.21269,-1.50318 0.64144,-2.96733 1.12017,-4.40802 1.30136,-3.91635 2.98399,-7.71261 3.98185,-11.71706 0.99787,-4.00444 1.27153,-8.3375 -0.23325,-12.18028 -1.59455,-4.07201 -5.17837,-7.27489 -9.36006,-8.55447 -4.1817,-1.27957 -8.87495,-0.65928 -12.66297,1.52585 -2.84416,1.64066 -5.13493,4.06522 -7.56453,6.27385 -2.4296,2.20862 -5.15592,4.28659 -8.36703,4.97195 -1.54424,0.32959 -3.16293,0.31982 -4.69695,-0.0545 -1.53402,-0.37431 -2.98055,-1.11488 -4.16359,-2.1607 -1.18304,-1.04582 -2.09844,-2.39682 -2.60612,-3.892 -0.50768,-1.49518 -0.6034,-3.1316 -0.24772,-4.67004 z"
         style="opacity:1;vector-effect:none;fill:#000000;fill-opacity:1;stroke:#000000;stroke-width:4.00031233;stroke-linecap:butt;stroke-linejoin:miter;stroke-miterlimit:4;stroke-dasharray:none;stroke-dashoffset:0;stroke-opacity:1" />
      <path
         inkscape:original-d="m 500.81005,305.71289 c -3.97693,1.10538 3.53516,8.39282 5.30133,12.59064 1.76617,4.19782 4.41871,-10.60358 6.62665,-15.90397 2.20795,-5.30038 -7.95105,2.20795 -11.92798,3.31333 z"
         inkscape:path-effect="#path-effect4680"
         inkscape:connector-curvature="0"
         id="path4678"
         d="m 500.81005,305.71289 c -1.2712,2.2912 -1.42678,5.16913 -0.40998,7.58402 1.01679,2.41488 3.18409,4.31476 5.71131,5.00662 2.01497,0.55162 4.22829,0.34387 6.10542,-0.57308 1.87712,-0.91695 3.40152,-2.53503 4.20502,-4.46344 0.80351,-1.92842 0.87905,-4.15018 0.20837,-6.12871 -0.67067,-1.97854 -2.08165,-3.69641 -3.89216,-4.73874 -1.99042,-1.1459 -4.44498,-1.4561 -6.6579,-0.8414 -2.21291,0.6147 -4.15583,2.14642 -5.27008,4.15473 z"
         style="opacity:1;vector-effect:none;fill:#000000;fill-opacity:1;stroke:#000000;stroke-width:4.00031233;stroke-linecap:butt;stroke-linejoin:miter;stroke-miterlimit:4;stroke-dasharray:none;stroke-dashoffset:0;stroke-opacity:1" />
      <path
         inkscape:original-d="m 579.00457,303.06222 c -0.6636,-4.8586 16.34669,-14.1378 24.51863,-21.20529 8.17193,-7.0675 -9.27639,-11.92891 -13.91598,-17.89197 -4.63959,-5.96305 -29.59811,-7.95292 -44.39858,-11.92798 -14.80047,-3.97504 -11.04349,3.97506 -16.56664,5.96399 -5.52315,1.98894 -4.8586,-10.1618 -7.28932,-15.2413 -2.43071,-5.0795 18.1138,0.88262 27.16929,1.32534 9.05549,0.44271 26.06577,4.41682 39.09725,6.62665 13.03149,2.20982 21.20624,17.67014 31.80794,26.50661 10.60171,8.83648 -7.50927,23.85503 -11.2653,35.78394 -3.75604,11.92891 -18.11192,3.0915 -27.16929,4.63865 -9.05736,1.54716 -1.32439,-9.72003 -1.988,-14.57864 z"
         inkscape:path-effect="#path-effect4684"
         inkscape:connector-curvature="0"
         id="path4682"
         d="m 579.00457,303.06222 c 1.37358,-2.4275 3.54749,-4.31777 5.90701,-5.80509 2.35953,-1.48732 4.92492,-2.61147 7.428,-3.84194 2.50308,-1.23047 4.97866,-2.59054 7.0398,-4.46968 2.06114,-1.87914 3.69585,-4.33562 4.14382,-7.08858 0.32387,-1.99027 0.0127,-4.05821 -0.73959,-5.92906 -0.75231,-1.87085 -1.9335,-3.55113 -3.3281,-5.00754 -2.78921,-2.91282 -6.37084,-4.91294 -9.84829,-6.95537 -6.86274,-4.03074 -13.59374,-8.41985 -21.06586,-11.16054 -3.73606,-1.37035 -7.64751,-2.31687 -11.62086,-2.53722 -3.97334,-0.22034 -8.01386,0.2998 -11.71186,1.76978 -2.76452,1.09891 -5.29542,2.70518 -7.97801,3.99121 -2.68259,1.28604 -5.62808,2.26482 -8.58863,1.97278 -1.69846,-0.16754 -3.35531,-0.75923 -4.767,-1.71837 -1.41169,-0.95915 -2.57425,-2.28502 -3.32678,-3.81686 -0.75252,-1.53184 -1.09157,-3.26658 -0.95574,-4.96787 0.13582,-1.70128 0.74798,-3.36406 1.7602,-4.7382 1.45826,-1.97967 3.70241,-3.30445 6.08795,-3.90014 2.38553,-0.59569 4.90606,-0.50001 7.31489,-0.007 4.81766,0.98619 9.16652,3.49368 13.76645,5.23239 12.3935,4.68456 26.18265,3.6674 39.09725,6.62665 7.06494,1.61886 13.91822,4.47748 19.63247,8.93634 5.71424,4.45887 10.24142,10.58503 12.17547,17.57027 1.74874,6.31596 1.32503,13.1481 -0.7829,19.35342 -2.10792,6.20533 -5.85086,11.7939 -10.4824,16.43052 -3.61399,3.61795 -7.91547,6.75086 -12.87963,7.97867 -2.48209,0.6139 -5.10203,0.73285 -7.60261,0.19927 -2.50058,-0.53359 -4.87576,-1.73461 -6.68705,-3.53929 -1.86626,-1.85945 -3.09922,-4.34297 -3.45443,-6.9534 -0.35521,-2.61042 0.16903,-5.33237 1.46643,-7.62524 z"
         style="opacity:1;vector-effect:none;fill:#000000;fill-opacity:1;stroke:#000000;stroke-width:4.00031233;stroke-linecap:butt;stroke-linejoin:miter;stroke-miterlimit:4;stroke-dasharray:none;stroke-dashoffset:0;stroke-opacity:1" />
      <path
         inkscape:original-d="m 600.20987,224.20504 c 1.54528,3.09338 -14.57771,2.64972 -21.86796,3.97599 -7.29026,1.32627 -18.99547,-4.41871 -28.49462,-6.62665 -9.49913,-2.20795 -34.45766,8.8346 -51.6879,13.2533 -17.23023,4.41871 -14.13592,-3.97692 -21.20529,-5.96398 -7.06937,-1.98706 2.6516,-3.97693 3.97599,-5.96399 1.3244,-1.98706 40.20265,-8.3947 60.30255,-12.59064 20.09992,-4.19595 36.22665,3.0915 54.33857,4.63865 18.11192,1.54716 3.09338,6.18394 4.63866,9.27732 z"
         inkscape:path-effect="#path-effect4688"
         inkscape:connector-curvature="0"
         id="path4686"
         d="m 600.20987,224.20504 c -0.29191,2.13205 -1.61794,4.05175 -3.38121,5.28532 -1.76328,1.23357 -3.92858,1.81732 -6.07925,1.89123 -4.30133,0.14781 -8.40009,-1.63086 -12.4075,-3.20056 -9.12266,-3.57335 -18.70477,-6.23852 -28.49462,-6.62665 -17.92836,-0.71079 -35.19886,6.17919 -51.6879,13.2533 -2.08124,0.89289 -4.16783,1.79333 -6.34748,2.40811 -2.17965,0.61478 -4.46968,0.93884 -6.71655,0.65526 -2.24686,-0.28358 -4.45324,-1.2102 -6.03738,-2.82863 -0.79207,-0.80922 -1.42039,-1.78344 -1.79601,-2.85167 -0.37561,-1.06824 -0.49495,-2.23026 -0.30787,-3.34705 0.20141,-1.20232 0.75028,-2.32809 1.46532,-3.31544 0.71505,-0.98735 1.5939,-1.84501 2.51067,-2.64855 7.87951,-6.90628 18.50056,-9.87001 28.91799,-10.99272 10.41744,-1.1227 20.95331,-0.61181 31.38456,-1.59792 9.34042,-0.88299 18.57265,-2.96385 27.95245,-3.16987 4.6899,-0.10301 9.41531,0.27022 13.9477,1.47988 4.53238,1.20965 8.87483,3.27797 12.43842,6.32864 1.37077,1.17347 2.63442,2.50415 3.51729,4.07786 0.88287,1.57372 1.36614,3.41169 1.12137,5.19946 z"
         style="opacity:1;vector-effect:none;fill:#000000;fill-opacity:1;stroke:#000000;stroke-width:4.00031233;stroke-linecap:butt;stroke-linejoin:miter;stroke-miterlimit:4;stroke-dasharray:none;stroke-dashoffset:0;stroke-opacity:1" />
    </g>
  </g>
  <g
     inkscape:groupmode="layer"
     id="layer3"
     inkscape:label="Layer 3"
     style="display:inline"
     transform="translate(-119.44652,-123.15266)">
    <path
       style="color:#000000;clip-rule:nonzero;display:inline;overflow:visible;visibility:visible;opacity:1;isolation:auto;mix-blend-mode:normal;color-interpolation:sRGB;color-interpolation-filters:linearRGB;solid-color:#000000;solid-opacity:1;fill:none;fill-opacity:1;fill-rule:evenodd;stroke:#000000;stroke-width:3.99999976;stroke-linecap:butt;stroke-linejoin:miter;stroke-miterlimit:4;stroke-dasharray:none;stroke-dashoffset:0;stroke-opacity:1;color-rendering:auto;image-rendering:auto;shape-rendering:auto;text-rendering:auto;enable-background:accumulate"
       d="m 165.42761,190.99446 7.9832,5.40856 5.00793,-7.3919"
       id="path4235-4-01-69-2-0-20-37-04-6-61-1-9"
       inkscape:connector-curvature="0"
       inkscape:transform-center-x="0.46894261"
       inkscape:transform-center-y="1.0259918" />
    <path
       style="color:#000000;clip-rule:nonzero;display:inline;overflow:visible;visibility:visible;opacity:1;isolation:auto;mix-blend-mode:normal;color-interpolation:sRGB;color-interpolation-filters:linearRGB;solid-color:#000000;solid-opacity:1;fill:none;fill-opacity:1;fill-rule:evenodd;stroke:#000000;stroke-width:3.99999976;stroke-linecap:butt;stroke-linejoin:miter;stroke-miterlimit:4;stroke-dasharray:none;stroke-dashoffset:0;stroke-opacity:1;color-rendering:auto;image-rendering:auto;shape-rendering:auto;text-rendering:auto;enable-background:accumulate"
       d="m 178.78227,276.43358 5.36837,8.01029 7.41695,-4.97075"
       id="path4235-4-01-69-2-0-20-37-04-6-61-1-9-7"
       inkscape:connector-curvature="0"
       inkscape:transform-center-x="-0.19551239"
       inkscape:transform-center-y="0.75380679" />
    <path
       style="color:#000000;clip-rule:nonzero;display:inline;overflow:visible;visibility:visible;opacity:1;isolation:auto;mix-blend-mode:normal;color-interpolation:sRGB;color-interpolation-filters:linearRGB;solid-color:#000000;solid-opacity:1;fill:none;fill-opacity:1;fill-rule:evenodd;stroke:#000000;stroke-width:3.99999976;stroke-linecap:butt;stroke-linejoin:miter;stroke-miterlimit:4;stroke-dasharray:none;stroke-dashoffset:0;stroke-opacity:1;color-rendering:auto;image-rendering:auto;shape-rendering:auto;text-rendering:auto;enable-background:accumulate"
       d="m 299.66972,219.3534 -9.63135,0.47032 0.4355,8.91795"
       id="path4235-4-01-69-2-0-20-37-04-6-61-1-9-0"
       inkscape:connector-curvature="0"
       inkscape:transform-center-x="-1.1651774"
       inkscape:transform-center-y="1.0602268" />
    <path
       style="color:#000000;clip-rule:nonzero;display:inline;overflow:visible;visibility:visible;opacity:1;isolation:auto;mix-blend-mode:normal;color-interpolation:sRGB;color-interpolation-filters:linearRGB;solid-color:#000000;solid-opacity:1;fill:none;fill-opacity:1;fill-rule:evenodd;stroke:#000000;stroke-width:3.99999976;stroke-linecap:butt;stroke-linejoin:miter;stroke-miterlimit:4;stroke-dasharray:none;stroke-dashoffset:0;stroke-opacity:1;color-rendering:auto;image-rendering:auto;shape-rendering:auto;text-rendering:auto;enable-background:accumulate"
       d="m 378.67473,220.90208 2.56771,-9.29467 -8.60622,-2.3775"
       id="path4235-4-01-69-2-0-20-37-04-6-61-1-9-70"
       inkscape:connector-curvature="0"
       inkscape:transform-center-x="0.15592761"
       inkscape:transform-center-y="0.98161679" />
    <path
       style="color:#000000;clip-rule:nonzero;display:inline;overflow:visible;visibility:visible;opacity:1;isolation:auto;mix-blend-mode:normal;color-interpolation:sRGB;color-interpolation-filters:linearRGB;solid-color:#000000;solid-opacity:1;fill:none;fill-opacity:1;fill-rule:evenodd;stroke:#000000;stroke-width:3.99999976;stroke-linecap:butt;stroke-linejoin:miter;stroke-miterlimit:4;stroke-dasharray:none;stroke-dashoffset:0;stroke-opacity:1;color-rendering:auto;image-rendering:auto;shape-rendering:auto;text-rendering:auto;enable-background:accumulate"
       d="m 435.82643,289.74859 -7.76199,5.7215 5.29772,7.18705"
       id="path4235-4-01-69-2-0-20-37-04-6-61-1-9-8"
       inkscape:connector-curvature="0"
       inkscape:transform-center-x="0.91027262"
       inkscape:transform-center-y="0.11781678" />
    <path
       style="color:#000000;clip-rule:nonzero;display:inline;overflow:visible;visibility:visible;opacity:1;isolation:auto;mix-blend-mode:normal;color-interpolation:sRGB;color-interpolation-filters:linearRGB;solid-color:#000000;solid-opacity:1;fill:none;fill-opacity:1;fill-rule:evenodd;stroke:#000000;stroke-width:3.99999976;stroke-linecap:butt;stroke-linejoin:miter;stroke-miterlimit:4;stroke-dasharray:none;stroke-dashoffset:0;stroke-opacity:1;color-rendering:auto;image-rendering:auto;shape-rendering:auto;text-rendering:auto;enable-background:accumulate"
       d="m 338.85433,380.00438 9.24438,2.74325 2.54004,-8.55966"
       id="path4235-4-01-69-2-0-20-37-04-6-61-1-9-9"
       inkscape:connector-curvature="0"
       inkscape:transform-center-x="0.95417762"
       inkscape:transform-center-y="-0.086488223" />
    <path
       style="color:#000000;clip-rule:nonzero;display:inline;overflow:visible;visibility:visible;opacity:1;isolation:auto;mix-blend-mode:normal;color-interpolation:sRGB;color-interpolation-filters:linearRGB;solid-color:#000000;solid-opacity:1;fill:none;fill-opacity:1;fill-rule:evenodd;stroke:#000000;stroke-width:3.99999976;stroke-linecap:butt;stroke-linejoin:miter;stroke-miterlimit:4;stroke-dasharray:none;stroke-dashoffset:0;stroke-opacity:1;color-rendering:auto;image-rendering:auto;shape-rendering:auto;text-rendering:auto;enable-background:accumulate"
       d="m 409.65438,396.60352 9.32044,2.47253 2.28938,-8.63007"
       id="path4235-4-01-69-2-0-20-37-04-6-61-1-9-95"
       inkscape:connector-curvature="0"
       inkscape:transform-center-x="0.99628762"
       inkscape:transform-center-y="-0.19340322" />
    <path
       style="color:#000000;clip-rule:nonzero;display:inline;overflow:visible;visibility:visible;opacity:1;isolation:auto;mix-blend-mode:normal;color-interpolation:sRGB;color-interpolation-filters:linearRGB;solid-color:#000000;solid-opacity:1;fill:none;fill-opacity:1;fill-rule:evenodd;stroke:#000000;stroke-width:3.99999976;stroke-linecap:butt;stroke-linejoin:miter;stroke-miterlimit:4;stroke-dasharray:none;stroke-dashoffset:0;stroke-opacity:1;color-rendering:auto;image-rendering:auto;shape-rendering:auto;text-rendering:auto;enable-background:accumulate"
       d="m 441.24203,507.90958 -8.12723,-5.18963 -4.80521,7.52526"
       id="path4235-4-01-69-2-0-20-37-04-6-61-1-9-80"
       inkscape:connector-curvature="0"
       inkscape:transform-center-x="-0.5143724"
       inkscape:transform-center-y="-0.92988823" />
    <path
       style="color:#000000;clip-rule:nonzero;display:inline;overflow:visible;visibility:visible;opacity:1;isolation:auto;mix-blend-mode:normal;color-interpolation:sRGB;color-interpolation-filters:linearRGB;solid-color:#000000;solid-opacity:1;fill:none;fill-opacity:1;fill-rule:evenodd;stroke:#000000;stroke-width:3.99999976;stroke-linecap:butt;stroke-linejoin:miter;stroke-miterlimit:4;stroke-dasharray:none;stroke-dashoffset:0;stroke-opacity:1;color-rendering:auto;image-rendering:auto;shape-rendering:auto;text-rendering:auto;enable-background:accumulate"
       d="m 346.34697,560.33878 7.35817,6.23229 5.77065,-6.81316"
       id="path4235-4-01-69-2-0-20-37-04-6-61-1-9-4"
       inkscape:connector-curvature="0"
       inkscape:transform-center-x="0.28653761"
       inkscape:transform-center-y="1.3972918" />
    <path
       style="color:#000000;clip-rule:nonzero;display:inline;overflow:visible;visibility:visible;opacity:1;isolation:auto;mix-blend-mode:normal;color-interpolation:sRGB;color-interpolation-filters:linearRGB;solid-color:#000000;solid-opacity:1;fill:none;fill-opacity:1;fill-rule:evenodd;stroke:#000000;stroke-width:3.99999976;stroke-linecap:butt;stroke-linejoin:miter;stroke-miterlimit:4;stroke-dasharray:none;stroke-dashoffset:0;stroke-opacity:1;color-rendering:auto;image-rendering:auto;shape-rendering:auto;text-rendering:auto;enable-background:accumulate"
       d="m 402.06877,535.79934 -8.53244,4.49239 4.15965,7.90042"
       id="path4235-4-01-69-2-0-20-37-04-6-61-1-9-6"
       inkscape:connector-curvature="0"
       inkscape:transform-center-x="0.37858761"
       inkscape:transform-center-y="0.37728678" />
    <path
       style="color:#000000;clip-rule:nonzero;display:inline;overflow:visible;visibility:visible;opacity:1;isolation:auto;mix-blend-mode:normal;color-interpolation:sRGB;color-interpolation-filters:linearRGB;solid-color:#000000;solid-opacity:1;fill:none;fill-opacity:1;fill-rule:evenodd;stroke:#000000;stroke-width:3.99999976;stroke-linecap:butt;stroke-linejoin:miter;stroke-miterlimit:4;stroke-dasharray:none;stroke-dashoffset:0;stroke-opacity:1;color-rendering:auto;image-rendering:auto;shape-rendering:auto;text-rendering:auto;enable-background:accumulate"
       d="m 382.43584,622.74303 -5.37207,8.0078 7.41467,4.97414"
       id="path4235-4-01-69-2-0-20-37-04-6-61-1-9-5"
       inkscape:connector-curvature="0"
       inkscape:transform-center-x="1.0099026"
       inkscape:transform-center-y="-0.47659823" />
    <path
       style="color:#000000;clip-rule:nonzero;display:inline;overflow:visible;visibility:visible;opacity:1;isolation:auto;mix-blend-mode:normal;color-interpolation:sRGB;color-interpolation-filters:linearRGB;solid-color:#000000;solid-opacity:1;fill:none;fill-opacity:1;fill-rule:evenodd;stroke:#000000;stroke-width:3.99999976;stroke-linecap:butt;stroke-linejoin:miter;stroke-miterlimit:4;stroke-dasharray:none;stroke-dashoffset:0;stroke-opacity:1;color-rendering:auto;image-rendering:auto;shape-rendering:auto;text-rendering:auto;enable-background:accumulate"
       d="m 359.97902,730.73224 9.23662,-2.76926 -2.56416,-8.55246"
       id="path4235-4-01-69-2-0-20-37-04-6-61-1-9-48"
       inkscape:connector-curvature="0"
       inkscape:transform-center-x="0.31496761"
       inkscape:transform-center-y="-0.69713823" />
    <path
       style="color:#000000;clip-rule:nonzero;display:inline;overflow:visible;visibility:visible;opacity:1;isolation:auto;mix-blend-mode:normal;color-interpolation:sRGB;color-interpolation-filters:linearRGB;solid-color:#000000;solid-opacity:1;fill:none;fill-opacity:1;fill-rule:evenodd;stroke:#000000;stroke-width:3.99999976;stroke-linecap:butt;stroke-linejoin:miter;stroke-miterlimit:4;stroke-dasharray:none;stroke-dashoffset:0;stroke-opacity:1;color-rendering:auto;image-rendering:auto;shape-rendering:auto;text-rendering:auto;enable-background:accumulate"
       d="m 342.10519,773.1821 0.40862,9.63416 8.92055,-0.37837"
       id="path4235-4-01-69-2-0-20-37-04-6-61-1-9-85"
       inkscape:connector-curvature="0"
       inkscape:transform-center-x="-1.0690574"
       inkscape:transform-center-y="-1.1869182" />
    <path
       style="color:#000000;clip-rule:nonzero;display:inline;overflow:visible;visibility:visible;opacity:1;isolation:auto;mix-blend-mode:normal;color-interpolation:sRGB;color-interpolation-filters:linearRGB;solid-color:#000000;solid-opacity:1;fill:none;fill-opacity:1;fill-rule:evenodd;stroke:#000000;stroke-width:3.99999976;stroke-linecap:butt;stroke-linejoin:miter;stroke-miterlimit:4;stroke-dasharray:none;stroke-dashoffset:0;stroke-opacity:1;color-rendering:auto;image-rendering:auto;shape-rendering:auto;text-rendering:auto;enable-background:accumulate"
       d="m 247.73811,764.17074 -8.48906,-4.57382 -4.23503,7.86028"
       id="path4235-4-01-69-2-0-20-37-04-6-61-1-9-91"
       inkscape:connector-curvature="0"
       inkscape:transform-center-x="-0.6361974"
       inkscape:transform-center-y="-0.66462823" />
    <path
       style="color:#000000;clip-rule:nonzero;display:inline;overflow:visible;visibility:visible;opacity:1;isolation:auto;mix-blend-mode:normal;color-interpolation:sRGB;color-interpolation-filters:linearRGB;solid-color:#000000;solid-opacity:1;fill:none;fill-opacity:1;fill-rule:evenodd;stroke:#000000;stroke-width:3.99999976;stroke-linecap:butt;stroke-linejoin:miter;stroke-miterlimit:4;stroke-dasharray:none;stroke-dashoffset:0;stroke-opacity:1;color-rendering:auto;image-rendering:auto;shape-rendering:auto;text-rendering:auto;enable-background:accumulate"
       d="m 240.23399,834.03986 -4.55398,8.49972 7.87016,4.21665"
       id="path4235-4-01-69-2-0-20-37-04-6-61-1-9-51"
       inkscape:connector-curvature="0"
       inkscape:transform-center-x="0.65619762"
       inkscape:transform-center-y="-0.63998323" />
    <path
       style="color:#000000;clip-rule:nonzero;display:inline;overflow:visible;visibility:visible;opacity:1;isolation:auto;mix-blend-mode:normal;color-interpolation:sRGB;color-interpolation-filters:linearRGB;solid-color:#000000;solid-opacity:1;fill:none;fill-opacity:1;fill-rule:evenodd;stroke:#000000;stroke-width:3.99999976;stroke-linecap:butt;stroke-linejoin:miter;stroke-miterlimit:4;stroke-dasharray:none;stroke-dashoffset:0;stroke-opacity:1;color-rendering:auto;image-rendering:auto;shape-rendering:auto;text-rendering:auto;enable-background:accumulate"
       d="m 471.49642,205.31341 -3.09348,9.13315 8.45666,2.86433"
       id="path4235-4-01-69-2-0-20-37-04-6-61-1-9-852"
       inkscape:connector-curvature="0"
       inkscape:transform-center-x="0.05332761"
       inkscape:transform-center-y="-0.89792823" />
    <path
       style="color:#000000;clip-rule:nonzero;display:inline;overflow:visible;visibility:visible;opacity:1;isolation:auto;mix-blend-mode:normal;color-interpolation:sRGB;color-interpolation-filters:linearRGB;solid-color:#000000;solid-opacity:1;fill:none;fill-opacity:1;fill-rule:evenodd;stroke:#000000;stroke-width:3.99999976;stroke-linecap:butt;stroke-linejoin:miter;stroke-miterlimit:4;stroke-dasharray:none;stroke-dashoffset:0;stroke-opacity:1;color-rendering:auto;image-rendering:auto;shape-rendering:auto;text-rendering:auto;enable-background:accumulate"
       d="m 516.13616,328.49427 -5.55064,7.88508 7.30104,5.13948"
       id="path4235-4-01-69-2-0-20-37-04-6-61-1-9-2"
       inkscape:connector-curvature="0"
       inkscape:transform-center-x="1.0889076"
       inkscape:transform-center-y="-0.43881823" />
    <path
       style="color:#000000;clip-rule:nonzero;display:inline;overflow:visible;visibility:visible;opacity:1;isolation:auto;mix-blend-mode:normal;color-interpolation:sRGB;color-interpolation-filters:linearRGB;solid-color:#000000;solid-opacity:1;fill:none;fill-opacity:1;fill-rule:evenodd;stroke:#000000;stroke-width:3.99999976;stroke-linecap:butt;stroke-linejoin:miter;stroke-miterlimit:4;stroke-dasharray:none;stroke-dashoffset:0;stroke-opacity:1;color-rendering:auto;image-rendering:auto;shape-rendering:auto;text-rendering:auto;enable-background:accumulate"
       d="m 558.68689,229.89751 -8.61936,4.32326 4.00304,7.98092"
       id="path4235-4-01-69-2-0-20-37-04-6-61-1-9-20"
       inkscape:connector-curvature="0"
       inkscape:transform-center-x="0.30805761"
       inkscape:transform-center-y="0.41076178" />
    <path
       style="color:#000000;clip-rule:nonzero;display:inline;overflow:visible;visibility:visible;opacity:1;isolation:auto;mix-blend-mode:normal;color-interpolation:sRGB;color-interpolation-filters:linearRGB;solid-color:#000000;solid-opacity:1;fill:none;fill-opacity:1;fill-rule:evenodd;stroke:#000000;stroke-width:3.99999976;stroke-linecap:butt;stroke-linejoin:miter;stroke-miterlimit:4;stroke-dasharray:none;stroke-dashoffset:0;stroke-opacity:1;color-rendering:auto;image-rendering:auto;shape-rendering:auto;text-rendering:auto;enable-background:accumulate"
       d="m 634.35141,324.15525 -1.45117,-9.533 -8.82689,1.3437"
       id="path4235-4-01-69-2-0-20-37-04-6-61-1-9-59"
       inkscape:connector-curvature="0"
       inkscape:transform-center-x="0.91349762"
       inkscape:transform-center-y="0.81209179" />
    <path
       style="color:#000000;clip-rule:nonzero;display:inline;overflow:visible;visibility:visible;opacity:1;isolation:auto;mix-blend-mode:normal;color-interpolation:sRGB;color-interpolation-filters:linearRGB;solid-color:#000000;solid-opacity:1;fill:none;fill-opacity:1;fill-rule:evenodd;stroke:#000000;stroke-width:3.99999976;stroke-linecap:butt;stroke-linejoin:miter;stroke-miterlimit:4;stroke-dasharray:none;stroke-dashoffset:0;stroke-opacity:1;color-rendering:auto;image-rendering:auto;shape-rendering:auto;text-rendering:auto;enable-background:accumulate"
       d="m 633.76966,185.11978 -3.85402,-8.83915 -8.18442,3.56858"
       id="path4235-4-01-69-2-0-20-37-04-6-61-1-9-07"
       inkscape:connector-curvature="0"
       inkscape:transform-center-x="0.50113761"
       inkscape:transform-center-y="-0.11533322" />
  </g>
</svg>
