<?xml version="1.0" encoding="UTF-8" standalone="no"?>
<!-- Created with Inkscape (http://www.inkscape.org/) -->

<svg
   xmlns:dc="http://purl.org/dc/elements/1.1/"
   xmlns:cc="http://creativecommons.org/ns#"
   xmlns:rdf="http://www.w3.org/1999/02/22-rdf-syntax-ns#"
   xmlns:svg="http://www.w3.org/2000/svg"
   xmlns="http://www.w3.org/2000/svg"
   xmlns:sodipodi="http://sodipodi.sourceforge.net/DTD/sodipodi-0.dtd"
   xmlns:inkscape="http://www.inkscape.org/namespaces/inkscape"
   width="539.39288"
   height="800"
   viewBox="0 0 505.68082 749.99997"
   id="svg2"
   version="1.1"
   inkscape:version="0.92.3 (2405546, 2018-03-11)"
   sodipodi:docname="p.svg"
   inkscape:export-filename="C:\Users\zvi\Documents\Mazesplace\Mazes\Alphabet Maze Set\P\P (s).png"
   inkscape:export-xdpi="100"
   inkscape:export-ydpi="100">
  <defs
     id="defs4">
    <inkscape:path-effect
       effect="spiro"
       id="path-effect4811"
       is_visible="true" />
    <inkscape:path-effect
       effect="spiro"
       id="path-effect4639"
       is_visible="true" />
    <inkscape:path-effect
       effect="spiro"
       id="path-effect4635"
       is_visible="true" />
    <inkscape:path-effect
       effect="spiro"
       id="path-effect4631"
       is_visible="true" />
    <inkscape:path-effect
       effect="spiro"
       id="path-effect4627"
       is_visible="true" />
    <inkscape:path-effect
       effect="spiro"
       id="path-effect4623"
       is_visible="true" />
    <inkscape:path-effect
       effect="spiro"
       id="path-effect4619"
       is_visible="true" />
    <inkscape:path-effect
       effect="spiro"
       id="path-effect4615"
       is_visible="true" />
    <inkscape:path-effect
       effect="spiro"
       id="path-effect4611"
       is_visible="true" />
    <inkscape:path-effect
       effect="spiro"
       id="path-effect4607"
       is_visible="true" />
    <inkscape:path-effect
       effect="spiro"
       id="path-effect4603"
       is_visible="true" />
    <inkscape:path-effect
       effect="spiro"
       id="path-effect4599"
       is_visible="true" />
    <inkscape:path-effect
       effect="spiro"
       id="path-effect4593"
       is_visible="true" />
    <inkscape:path-effect
       effect="spiro"
       id="path-effect4589"
       is_visible="true" />
    <inkscape:path-effect
       effect="spiro"
       id="path-effect4585"
       is_visible="true" />
    <inkscape:path-effect
       effect="spiro"
       id="path-effect4581"
       is_visible="true" />
    <inkscape:path-effect
       effect="spiro"
       id="path-effect4577"
       is_visible="true" />
    <inkscape:path-effect
       effect="spiro"
       id="path-effect4569"
       is_visible="true" />
    <inkscape:path-effect
       effect="spiro"
       id="path-effect4574"
       is_visible="true" />
    <clipPath
       clipPathUnits="userSpaceOnUse"
       id="clipPath4150">
      <rect
         style="opacity:1;fill:#000000;fill-opacity:1;fill-rule:evenodd;stroke:none;stroke-width:4;stroke-linecap:round;stroke-linejoin:round;stroke-miterlimit:4;stroke-dasharray:none;stroke-dashoffset:2.4000001;stroke-opacity:1"
         id="rect4152"
         width="694.28571"
         height="822.85712"
         x="-62.857143"
         y="75.21933"
         transform="rotate(90)" />
    </clipPath>
    <clipPath
       clipPathUnits="userSpaceOnUse"
       id="clipPath4194">
      <rect
         style="opacity:1;fill:#000000;fill-opacity:1;fill-rule:evenodd;stroke:none;stroke-width:4;stroke-linecap:round;stroke-linejoin:round;stroke-miterlimit:4;stroke-dasharray:none;stroke-dashoffset:2.4000001;stroke-opacity:1"
         id="rect4196"
         width="652.55853"
         height="800.04083"
         x="54.548237"
         y="98.778214"
         transform="rotate(90)" />
    </clipPath>
    <clipPath
       clipPathUnits="userSpaceOnUse"
       id="clipPath8848">
      <rect
         style="opacity:1;fill:#b0c836;fill-opacity:1;fill-rule:evenodd;stroke:none;stroke-width:4;stroke-linecap:round;stroke-linejoin:round;stroke-miterlimit:4;stroke-dasharray:none;stroke-dashoffset:2.4000001;stroke-opacity:1"
         id="rect8850"
         width="256.66153"
         height="167.81715"
         x="541.52765"
         y="194.94344" />
    </clipPath>
    <clipPath
       clipPathUnits="userSpaceOnUse"
       id="clipPath4561">
      <rect
         style="fill:#000000;fill-opacity:1;fill-rule:evenodd;stroke:#c8c8c8;stroke-width:2.12598419;stroke-linecap:butt;stroke-linejoin:miter;stroke-miterlimit:4;stroke-dasharray:none;stroke-opacity:0.94117647;paint-order:normal"
         id="rect4563"
         width="170.9677"
         height="245.18623"
         x="-175.74326"
         y="230.76094"
         transform="rotate(90)" />
    </clipPath>
    <clipPath
       clipPathUnits="userSpaceOnUse"
       id="clipPath915">
      <rect
         style="fill:#000000;fill-opacity:0.53266332;stroke:none;stroke-width:4.48228312;stroke-linecap:round;stroke-linejoin:miter;stroke-miterlimit:4;stroke-dasharray:none;stroke-dashoffset:0;stroke-opacity:1;paint-order:normal"
         id="rect917"
         width="505.68082"
         height="750"
         x="125.73598"
         y="140.00011" />
    </clipPath>
  </defs>
  <sodipodi:namedview
     id="base"
     pagecolor="#ffffff"
     bordercolor="#666666"
     borderopacity="1.0"
     inkscape:pageopacity="0.0"
     inkscape:pageshadow="2"
     inkscape:zoom="2.0007459"
     inkscape:cx="349.67378"
     inkscape:cy="167.18142"
     inkscape:document-units="px"
     inkscape:current-layer="layer2"
     showgrid="false"
     units="px"
     inkscape:window-width="1680"
     inkscape:window-height="987"
     inkscape:window-x="3832"
     inkscape:window-y="288"
     inkscape:window-maximized="1"
     fit-margin-top="0"
     fit-margin-left="15"
     fit-margin-right="15"
     fit-margin-bottom="0"
     inkscape:snap-global="true"
     inkscape:snap-page="true" />
  <metadata
     id="metadata7">
    <rdf:RDF>
      <cc:Work
         rdf:about="">
        <dc:format>image/svg+xml</dc:format>
        <dc:type
           rdf:resource="http://purl.org/dc/dcmitype/StillImage" />
        <dc:title></dc:title>
      </cc:Work>
    </rdf:RDF>
  </metadata>
  <g
     inkscape:groupmode="layer"
     id="layer2"
     inkscape:label="Layer 2"
     style="display:inline"
     transform="translate(-125.73598,-140.00011)">
    <g
       id="g913"
       clip-path="url(#clipPath915)">
      <path
         sodipodi:nodetypes="cccccccccccc"
         inkscape:connector-curvature="0"
         id="path4565"
         d="m 166.35777,196.25011 h -24.68429 v 691.87495 h 180.245 v -235.9089 h 180.245 L 615.47928,538.90037 V 307.63013 L 498.18749,196.25011 h -28.16328 m -26.17529,0 H 196.84038"
         style="opacity:1;vector-effect:none;fill:none;fill-opacity:1;stroke:#000000;stroke-width:3.74999976;stroke-linecap:butt;stroke-linejoin:miter;stroke-miterlimit:4;stroke-dasharray:none;stroke-dashoffset:0;stroke-opacity:1" />
      <path
         sodipodi:nodetypes="ccasssssscscssscsccsccssscsssscscscccsssc"
         inkscape:original-d="m 123.72565,144.68761 h 26.11806 c 0,0 33.50347,1.91442 42.97343,13.57583 7.47301,9.20235 -0.55891,28.01956 3.52624,35.38823 6.73229,12.1435 14.57958,23.63413 21.86796,35.4526 7.28838,11.81847 23.41512,-8.3947 35.12127,-12.59064 11.70615,-4.19595 20.54356,-5.74404 30.81394,-8.61465 10.27038,-2.87062 48.59641,-9.4e-4 72.8932,0 24.2968,9.3e-4 4.86049,1.1035 7.28932,1.65666 2.42884,0.55316 -6.8466,21.42524 -10.27132,32.13927 -3.4247,10.71403 -23.19235,-6.4067 -34.78993,-9.60865 -11.59758,-3.20194 -8.8346,-2.65159 -13.2533,-3.97599 -4.41871,-1.32439 -13.69416,2.20795 -20.54263,3.31333 -6.84849,1.10538 -1.10351,9.27638 -1.65667,13.91597 -0.55316,4.6396 -0.21995,29.15634 -0.33133,43.73592 -0.11139,14.57958 -2.64972,6.62572 -3.97599,9.93999 -1.32628,3.31426 4.19781,13.69414 6.29532,20.54263 2.0975,6.84847 10.1618,-7.95293 15.2413,-11.92798 5.0795,-3.97506 1.32627,-7.06937 1.988,-10.60265 0.66172,-3.53328 0.6636,-22.08979 0.994,-33.13327 0.33039,-11.04349 8.17381,-12.3707 12.2593,-18.55464 4.08551,-6.18394 13.69603,10.15994 20.54263,15.2413 6.84661,5.08139 -2.42883,18.11192 -3.64465,27.16929 -1.21582,9.05736 -2.20795,13.91504 -3.31333,20.87396 -1.10538,6.95893 13.25424,-2.20982 19.87996,-3.31332 6.62572,-1.1035 3.53515,-8.17381 5.30133,-12.25931 1.76616,-4.08551 4.41871,-20.32268 6.62665,-30.48262 2.20794,-10.15993 11.04536,-9.27825 16.56664,-13.91597 5.52127,-4.63772 8.17381,8.61371 12.25931,12.92198 4.08549,4.30826 2.43071,28.93545 3.64466,43.40459 1.21394,14.46913 6.4067,8.39282 9.60864,12.59064 3.20195,4.19782 7.06937,-10.60358 10.60265,-15.90397 3.53328,-5.30039 -1.32439,-8.39471 -1.988,-12.59065 -0.6636,-4.19594 -12.81059,-41.52797 -19.21729,-62.29055 -6.40671,-20.76258 -0.21995,-9.72003 -0.33133,-14.57864 -0.11139,-4.85861 7.73203,-3.75604 11.59664,-5.63265 3.86462,-1.87662 14.35869,4.63772 21.53663,6.95798 7.17793,2.32027 11.26625,-1.76804 16.89797,-2.65066 5.63171,-0.88262 1.10538,-5.74404 1.65666,-8.61465 0.55128,-2.87061 43.30012,-57.57871 54.01413,-57.57871 h 135.81597"
         inkscape:path-effect="#path-effect4569"
         inkscape:connector-curvature="0"
         id="path4567"
         d="m 123.72565,144.68761 h 26.11806 c 7.84038,0 15.75937,-0.0746 23.41959,1.59644 3.83011,0.83554 7.58211,2.12872 10.97651,4.08982 3.3944,1.9611 6.42791,4.61118 8.57733,7.88957 3.30935,5.04756 4.34778,11.27131 4.40563,17.30673 0.0578,6.03542 -0.78344,12.04656 -0.87939,18.0815 -0.12026,7.56398 0.99359,15.31141 4.56347,21.98105 1.78494,3.33482 4.17613,6.36385 7.1232,8.73488 2.94708,2.37103 6.45783,4.07118 10.18129,4.73667 6.25074,1.1172 12.68843,-0.70689 18.42337,-3.43275 5.73493,-2.72587 11.00439,-6.34653 16.6979,-9.15789 9.60336,-4.74197 20.21356,-7.08404 30.81394,-8.61465 24.11922,-3.48262 48.70433,-2.96045 72.8932,0 2.48279,0.30387 5.00212,0.64408 7.28932,1.65666 3.47533,1.53858 6.19604,4.61681 7.47247,8.19673 1.27644,3.57992 1.13713,7.61105 -0.20748,11.16592 -1.34461,3.55488 -3.85698,6.62728 -6.96679,8.81226 -3.10982,2.18499 -6.79764,3.49742 -10.56952,3.96436 -6.04117,0.74787 -12.16313,-0.63273 -17.89117,-2.69295 -5.72804,-2.06023 -11.1915,-4.79859 -16.89876,-6.9157 -4.32649,-1.60491 -8.77885,-2.84745 -13.2533,-3.97599 -3.58325,-0.90376 -7.25191,-1.74157 -10.93789,-1.47694 -1.84299,0.13232 -3.67658,0.54565 -5.3483,1.33272 -1.67172,0.78706 -3.17819,1.95705 -4.25644,3.45755 -1.39856,1.94625 -2.0235,4.36365 -2.16325,6.7562 -0.13975,2.39256 0.17639,4.78599 0.50658,7.15977 1.01472,7.29501 2.17086,14.58894 2.45196,21.94882 0.2811,7.35988 -0.33739,14.83984 -2.78329,21.7871 -1.18528,3.36662 -2.78673,6.57477 -3.97599,9.93999 -1.34591,3.80849 -2.15587,7.94405 -1.29475,11.89051 0.43057,1.97323 1.28456,3.86863 2.58283,5.41574 1.29826,1.5471 3.05133,2.73295 5.00724,3.23638 1.72527,0.44407 3.57171,0.35004 5.27432,-0.17425 1.70261,-0.5243 3.26279,-1.46912 4.58504,-2.66303 2.64448,-2.38783 4.29606,-5.69719 5.38194,-9.0907 1.09817,-3.4319 1.6757,-7.01289 1.988,-10.60265 0.95842,-11.01677 -0.54856,-22.18301 0.994,-33.13327 0.54716,-3.88416 1.5,-7.77366 3.46292,-11.1697 1.96292,-3.39603 5.03413,-6.27515 8.79638,-7.38494 2.28545,-0.67416 4.75227,-0.67385 7.06366,-0.0949 2.3114,0.57899 4.46682,1.72658 6.30321,3.24495 3.67279,3.03674 5.99866,7.47325 7.17576,12.09121 2.30409,9.03933 0.42545,18.77569 -3.64465,27.16929 -1.62744,3.35621 -3.60885,6.5791 -4.63142,10.16617 -0.51128,1.79353 -0.7743,3.67313 -0.603,5.53024 0.17131,1.8571 0.79214,3.69308 1.92109,5.17755 1.18232,1.55463 2.89569,2.67833 4.76634,3.23996 1.87065,0.56163 3.88969,0.57267 5.79207,0.13028 3.80476,-0.88477 7.02546,-3.52334 9.32155,-6.68356 2.63268,-3.62348 4.18185,-7.92256 5.30133,-12.25931 2.60192,-10.07959 3.06939,-20.69926 6.62665,-30.48262 1.33436,-3.66982 3.14628,-7.25669 5.95456,-9.96991 1.40415,-1.35662 3.04892,-2.47789 4.86635,-3.19132 1.81743,-0.71343 3.81015,-1.01075 5.74573,-0.75474 3.10983,0.41133 5.91956,2.23641 7.95369,4.62441 2.03414,2.388 3.35485,5.30821 4.30562,8.29757 2.20733,6.94021 2.52713,14.32699 2.57554,21.6096 0.0484,7.28262 -0.15314,14.61551 1.06912,21.79499 0.47768,2.80589 1.19609,5.63309 2.73992,8.02428 0.77191,1.19559 1.74772,2.26884 2.9166,3.08063 1.16888,0.8118 2.5349,1.3562 3.95212,1.48573 1.80559,0.16503 3.64506,-0.35409 5.17261,-1.33081 1.52755,-0.97671 2.75007,-2.39362 3.61313,-3.98815 1.72612,-3.18905 2.00821,-6.96383 1.81691,-10.58501 -0.22443,-4.24825 -1.04637,-8.442 -1.988,-12.59065 -4.8115,-21.19849 -12.76861,-41.53143 -19.21729,-62.29055 -0.74304,-2.39195 -1.4704,-4.81125 -1.68812,-7.30647 -0.21772,-2.49523 0.10749,-5.10127 1.35679,-7.27217 1.12404,-1.95323 2.95025,-3.45562 5.00728,-4.37607 2.05702,-0.92044 4.33593,-1.2816 6.58936,-1.25658 3.79667,0.0422 7.50567,1.14999 11.03516,2.54971 3.52949,1.39972 6.93735,3.09924 10.50147,4.40827 2.90104,1.06549 5.97099,1.87613 9.05216,1.63581 1.54058,-0.12015 3.06894,-0.50781 4.43969,-1.22118 1.37074,-0.71336 2.57981,-1.75952 3.40612,-3.06529 0.79272,-1.25268 1.21721,-2.70947 1.42793,-4.17685 0.21072,-1.46737 0.21652,-2.95542 0.22873,-4.4378 0.063,-7.65021 0.33253,-15.35719 2.05799,-22.81054 1.72547,-7.45336 4.99097,-14.62945 10.04435,-20.37341 5.05338,-5.74395 11.82925,-9.89217 19.16714,-12.05669 7.33788,-2.16453 15.09418,-2.33807 22.74465,-2.33807 h 135.81597"
         style="opacity:1;vector-effect:none;fill:none;fill-opacity:1;stroke:#000000;stroke-width:3.74999976;stroke-linecap:butt;stroke-linejoin:miter;stroke-miterlimit:4;stroke-dasharray:none;stroke-dashoffset:0;stroke-opacity:1" />
      <path
         sodipodi:nodetypes="csscsccscscsssscccsscsscssscsssscscscsssscsssssscccsssssscsscssssssccssssssssssssssc"
         inkscape:original-d="M 635.52003,163.43761 H 516.74212 c -14.33771,0 -47.93185,39.60088 -43.73591,42.47337 4.19594,2.87249 22.08978,11.8166 26.83795,17.56063 4.74816,5.74404 34.01775,26.50568 51.02523,39.75993 17.00748,13.25425 3.53516,7.50927 5.30133,11.26531 1.76617,3.75605 -8.39283,6.62572 -12.59064,9.93999 -4.19783,3.31426 -10.60171,6.18393 -15.90398,9.27731 -5.30225,3.09337 0.22183,11.04349 0.33133,16.56664 0.10951,5.52315 5.30227,17.22836 7.95199,25.84395 2.64972,8.61559 -5.30038,14.13593 -7.95199,21.2053 -2.65159,7.06937 -0.66172,9.05549 -0.99399,13.58463 -0.33227,4.52916 11.70802,0.21996 17.56063,0.33134 5.85261,0.11138 1.54716,-16.78846 2.31933,-25.18129 0.77217,-8.39282 0.44271,-23.41511 0.66267,-35.12127 0.21995,-11.70615 23.19423,-8.83647 34.78993,-13.25331 11.59571,-4.41683 14.35869,11.04349 21.53664,16.56664 7.17793,5.52315 -2.42884,13.47326 -3.64467,20.2113 -1.21582,6.73804 1.54716,20.3208 2.31933,30.4826 0.77217,10.16181 -5.96305,79.9607 -8.94598,119.94245 -2.98294,39.98176 -1.10351,2.87061 -1.65667,4.30732 -0.55316,1.43672 -9.05549,-1.32626 -13.58464,-1.98799 -4.52915,-0.66173 -18.11192,-14.1378 -27.16929,-21.2053 -9.05736,-7.06749 -14.5777,-4.19781 -21.86795,-6.29532 -7.29026,-2.0975 1.10538,17.22837 1.65666,25.84396 0.55128,8.61559 25.18223,5.0795 37.77193,7.62065 12.58971,2.54116 18.99735,23.85502 28.49461,35.78393 9.49727,11.92892 -3.31238,7.50927 -4.96998,11.26532 -1.65761,3.75604 -32.91145,34.67855 -49.36858,52.01924 -16.45713,17.34067 -22.52969,21.20435 -33.79594,31.80794 -11.26625,10.60358 -48.15275,9.93904 -72.23053,14.90997 -24.07779,4.97093 -16.12392,-0.44272 -24.18729,-0.66267 -8.06337,-0.21995 -21.42524,2.64973 -32.13928,3.97599 -10.71403,1.32627 -28.27278,-0.22182 -42.41058,-0.33133 -14.1378,-0.1095 -6.84661,-20.10179 -10.27132,-30.15127 -3.4247,-10.0495 10.16181,-14.57958 15.24131,-21.86797 5.07949,-7.28838 2.20982,-17.67201 3.31333,-26.50661 1.1035,-8.83461 15.02135,-16.56758 22.53062,-24.84996 7.50927,-8.28238 48.8173,3.97506 73.22453,5.96399 24.40724,1.98894 9.49914,6.8466 14.24731,10.27132 4.74816,3.42471 9.72003,-13.03336 14.57864,-19.54864 4.85861,-6.51527 -10.8226,-5.74403 -16.23531,-8.61465 -5.4127,-2.8706 -16.78658,-0.22182 -25.18129,-0.33133 -8.39469,-0.10951 -46.82742,-6.18581 -70.24253,-9.27731 -23.41511,-3.0915 -20.98347,10.15993 -31.47661,15.2413 -10.49314,5.08137 9.4e-4,7.0675 0,10.60265 -9.4e-4,3.53515 -0.21994,23.19235 -0.33133,34.78994 -0.11138,11.59758 -25.18035,11.92703 -37.77193,17.89196 -12.59158,5.96493 -14.5777,-5.08137 -21.86796,-7.62066 -7.29026,-2.53927 -3.97505,7.06751 -5.96399,10.60266 -1.98893,3.53515 -13.91504,20.3208 -20.87396,30.48261 -6.95893,10.1618 -13.69415,38.21277 -20.54263,57.32055 -6.84848,19.1078 5.74404,23.19236 8.61465,34.78994 2.87061,11.59758 6.40671,-10.1618 9.60865,-15.2413 3.20194,-5.0795 -0.66173,-33.57599 -0.994,-50.36257 -0.33227,-16.7866 16.78846,-23.63601 25.18129,-35.4526 8.39283,-11.8166 22.97334,-6.18582 34.4586,-9.27733 11.48526,-3.0915 8.17382,9.49727 12.25931,14.24731 4.0855,4.75004 1.54716,8.17194 2.31933,12.25931 0.77217,4.08738 -1.98706,49.03631 -2.98199,73.55587 -0.99493,24.51956 -2.64972,7.28839 -3.976,10.93398 -1.32627,3.6456 1.98894,15.46126 2.982,23.19329 0.99306,7.73204 2.6516,62.5105 3.97599,93.76716 1.32439,31.25666 -6.8466,19.87902 -10.27131,29.81994 -3.42471,9.94093 -26.50568,9.05549 -39.75993,13.58465 -13.25425,4.52915 -30.0399,-7.73204 -45.06125,-11.59665 -15.02135,-3.86461 -21.86702,3.75417 -32.80194,5.63266 -10.93492,1.87849 -20.09991,2.87062 -30.15128,4.30732 -10.05136,1.43671 -0.88261,-5.52315 -1.32533,-8.28331 -0.44271,-2.76017 -1.76617,-31.3671 -2.65066,-47.04925 -0.88449,-15.68215 3.97693,-44.8413 5.96399,-67.26055 1.98706,-22.41924 -4.19594,-24.74044 -6.29532,-37.10926 -2.09938,-12.36882 4.19782,-27.39111 6.29532,-41.08526 2.0975,-13.69415 -4.85861,-47.71285 -7.28932,-71.56787 -2.43071,-23.85501 7.06937,-34.90131 10.60265,-52.35057 3.53327,-17.44924 -4.85861,-55.22305 -7.28932,-82.83317 -2.43071,-27.61013 1.98893,-47.05019 2.98199,-70.57388 0.99306,-23.52368 3.09338,-20.54356 4.63866,-30.81394 1.54528,-10.27038 -6.40483,-32.25066 -9.60865,-48.37458 -3.20382,-16.12392 7.29026,-27.83288 10.93398,-41.74792 3.64372,-13.91503 -8.39282,-33.13421 -12.59064,-49.69991 -4.19782,-16.5657 10.38268,-16.34668 15.57263,-24.51862 2.59498,-4.08597 -21.44953,-43.7987 -34.0438,-43.7987 h -6.77957"
         inkscape:path-effect="#path-effect4577"
         inkscape:connector-curvature="0"
         id="path4575"
         d="M 635.52003,163.43761 H 516.74212 c -6.32443,0 -12.69053,0.0421 -18.90332,1.22516 -6.21279,1.18306 -12.27824,3.54177 -17.25369,7.44603 -4.97545,3.90427 -8.78656,9.3798 -10.29018,15.5229 -1.50361,6.14309 -0.61126,12.89791 2.71128,18.27928 2.85456,4.62341 7.30632,8.06486 12.05459,10.70652 4.74826,2.64166 9.85153,4.57343 14.78336,6.85411 19.70384,9.11186 36.4276,23.69206 51.02523,39.75993 1.44367,1.58907 2.88166,3.2115 3.92456,5.08811 1.0429,1.87661 1.67287,4.05079 1.37677,6.1772 -0.19561,1.40477 -0.79035,2.74021 -1.62954,3.88363 -0.8392,1.14341 -1.91768,2.09959 -3.10353,2.87767 -2.37169,1.55616 -5.13152,2.39432 -7.85757,3.17869 -3.03001,0.87183 -6.09329,1.70976 -8.91813,3.11023 -2.82485,1.40046 -5.43312,3.42298 -6.98585,6.16708 -1.40557,2.48403 -1.86492,5.42629 -1.67348,8.27399 0.19145,2.84769 1.00252,5.6203 2.00481,8.29265 1.5975,4.25933 3.68705,8.31884 5.33892,12.55738 1.65187,4.23854 2.8724,8.74492 2.61307,13.28657 -0.21667,3.79453 -1.45828,7.46166 -3.00377,10.93396 -1.5455,3.4723 -3.40246,6.79916 -4.94822,10.27134 -0.95875,2.15361 -1.80327,4.38649 -2.10921,6.72393 -0.30595,2.33743 -0.0391,4.80528 1.11522,6.8607 0.83955,1.49493 2.12908,2.72582 3.63946,3.53725 1.51038,0.81144 3.23525,1.20633 4.94961,1.18096 3.42872,-0.0507 6.72247,-1.79838 8.97156,-4.38687 2.87485,-3.30868 4.07553,-7.81207 4.15483,-12.19452 0.0793,-4.38245 -0.86715,-8.71191 -1.8355,-12.98677 -1.32612,-5.85426 -2.70867,-11.73723 -2.97833,-17.73374 -0.26967,-5.99652 0.64186,-12.18791 3.641,-17.38753 3.29817,-5.71806 8.96908,-9.87215 15.22136,-11.9895 6.25227,-2.11734 13.04967,-2.30214 19.56857,-1.26381 4.77536,0.76062 9.52519,2.20218 13.51443,4.93505 3.98923,2.73288 7.16306,6.87297 8.02221,11.63159 0.61353,3.39816 0.039,6.90283 -0.85293,10.23874 -0.89196,3.33591 -2.10122,6.58921 -2.79174,9.97256 -2.05119,10.05028 0.58794,20.37231 2.31933,30.4826 6.81018,39.76749 -0.49739,80.49054 -8.94598,119.94245 -0.32528,1.51895 -0.6807,3.0988 -1.65667,4.30732 -0.8004,0.99112 -1.97387,1.64949 -3.21709,1.92764 -1.24322,0.27814 -2.55172,0.19108 -3.78248,-0.13786 -2.4615,-0.65789 -4.5621,-2.22877 -6.58507,-3.77777 -9.12151,-6.9844 -18.0502,-14.21774 -27.16929,-21.2053 -3.18165,-2.43796 -6.44114,-4.87678 -10.18389,-6.31149 -1.87138,-0.71736 -3.85413,-1.17386 -5.85787,-1.21495 -2.00373,-0.0411 -4.0299,0.3423 -5.82619,1.23112 -2.3331,1.15444 -4.21875,3.14866 -5.34782,5.49414 -1.12908,2.34549 -1.5134,5.02502 -1.20731,7.61005 0.30608,2.58504 1.28909,5.07291 2.73344,7.23854 1.44436,2.16562 3.34239,4.01336 5.47835,5.50123 5.32896,3.71206 11.9293,5.10391 18.3922,5.74272 6.4629,0.6388 13.00957,0.61371 19.37973,1.87793 8.33949,1.65505 16.36759,5.65912 21.9337,12.08601 2.78305,3.21344 4.92184,7.00172 6.10113,11.08594 1.17929,4.08422 1.38586,8.46301 0.45978,12.61198 -0.89823,4.02417 -2.82272,7.74538 -4.96998,11.26532 -12.48897,20.47279 -32.47466,34.99851 -49.36858,52.01924 -10.92352,11.00552 -20.81928,23.31964 -33.79594,31.80794 -10.45524,6.83899 -22.55122,10.91133 -34.86464,13.02401 -12.31343,2.11267 -24.88017,2.32262 -37.36589,1.88596 -8.06191,-0.28195 -16.12221,-0.83116 -24.18729,-0.66267 -10.80828,0.22579 -21.56213,1.74129 -32.13928,3.97599 -7.0947,1.49894 -14.15994,3.32776 -21.39454,3.81986 -7.23459,0.4921 -14.78028,-0.45027 -21.01604,-4.15119 -4.99378,-2.96381 -8.95845,-7.67303 -10.88021,-13.15289 -1.92177,-5.47986 -1.75202,-11.69289 0.60889,-16.99838 1.81397,-4.07639 4.80037,-7.49705 7.71518,-10.87513 2.9148,-3.37807 5.84934,-6.85813 7.52613,-10.99284 1.68059,-4.14409 1.99695,-8.70108 2.13188,-13.17094 0.13493,-4.46986 0.11444,-8.99293 1.18145,-13.33567 1.37539,-5.59786 4.53089,-10.66541 8.54794,-14.79955 4.01705,-4.13414 8.87545,-7.37758 13.98268,-10.05041 11.54864,-6.04388 24.66995,-9.27977 37.68047,-8.48863 13.01052,0.79115 25.86116,5.72674 35.54406,14.45262 2.20123,1.98367 4.236,4.15171 6.51506,6.04544 2.27906,1.89373 4.85227,3.5287 7.73225,4.22588 2.51304,0.60835 5.20303,0.46814 7.63767,-0.40248 2.43465,-0.87062 4.60453,-2.46895 6.15431,-4.53865 1.54979,-2.0697 2.47295,-4.60312 2.61351,-7.18492 0.14056,-2.58181 -0.50269,-5.20176 -1.82685,-7.42259 -1.62474,-2.72494 -4.21719,-4.78841 -7.08356,-6.14819 -2.86636,-1.35978 -6.00589,-2.05582 -9.15175,-2.46646 -8.33149,-1.08754 -16.77964,-0.23749 -25.18129,-0.33133 -23.64077,-0.26404 -46.63562,-7.9852 -70.24253,-9.27731 -6.33541,-0.34676 -12.85206,-0.19947 -18.77699,2.07053 -2.96247,1.135 -5.74231,2.80261 -7.99425,5.03715 -2.25194,2.23454 -3.96137,5.04965 -4.70537,8.13362 -0.83363,3.45554 -0.44374,7.07578 0,10.60265 1.46124,11.61401 3.41554,23.70024 -0.33133,34.78994 -2.5408,7.52006 -7.81445,14.21877 -14.88495,17.8264 -3.53525,1.80382 -7.47899,2.82488 -11.44761,2.86798 -3.96861,0.0431 -7.95573,-0.90085 -11.43937,-2.80242 -3.60033,-1.96526 -6.60054,-4.89258 -10.18228,-6.89151 -1.79087,-0.99946 -3.74133,-1.76439 -5.78074,-1.98102 -2.03942,-0.21662 -4.17753,0.14633 -5.90494,1.25187 -1.74241,1.11514 -2.95964,2.90039 -3.82395,4.77988 -0.86431,1.87949 -1.41913,3.88376 -2.14004,5.82278 -2.15397,5.79349 -5.75988,10.92859 -9.58924,15.7804 -3.82936,4.85181 -7.93234,9.50936 -11.28472,14.70221 -11.04499,17.10875 -13.03037,38.39261 -20.54263,57.32055 -1.38295,3.48449 -2.95714,6.89689 -4.14318,10.45323 -1.18605,3.55633 -1.98194,7.29834 -1.74227,11.03956 0.23967,3.74123 1.59112,7.4976 4.22714,10.16324 1.31802,1.33282 2.94167,2.37372 4.72715,2.94434 1.78549,0.57062 3.73189,0.66205 5.54581,0.18957 1.54939,-0.40358 2.98231,-1.20986 4.1875,-2.2639 1.20518,-1.05404 2.18646,-2.35163 2.94711,-3.76048 1.5213,-2.81772 2.15212,-6.03097 2.47404,-9.21692 0.84717,-8.38406 -0.31023,-16.82235 -1.22428,-25.19938 -0.91405,-8.37702 -1.57733,-16.9326 0.23028,-25.16319 1.58589,-7.22103 5.04464,-13.95205 9.49963,-19.85217 4.455,-5.90011 9.89223,-11.00251 15.68166,-15.60043 4.90689,-3.89701 10.17084,-7.49632 16.10255,-9.51598 5.93171,-2.01966 12.64176,-2.33255 18.35605,0.23865 5.87728,2.64453 10.18496,8.14542 12.25931,14.24731 1.34122,3.94532 1.82685,8.12145 2.31933,12.25931 1.46643,12.321 3.06741,24.6628 3.12074,37.07065 0.0533,12.40785 -1.48798,24.96734 -6.10273,36.48522 -1.44474,3.60591 -3.19467,7.1288 -3.976,10.93398 -0.79171,3.85575 -0.55338,7.86154 0.13886,11.73638 0.69224,3.87484 1.82961,7.65344 2.84314,11.45691 8.10881,30.42973 8.27032,62.56973 3.97599,93.76716 -1.45186,10.54748 -3.61659,21.50899 -10.27131,29.81994 -4.5745,5.71301 -11.04687,9.77293 -18.03261,11.95559 -6.98573,2.18267 -14.46629,2.54663 -21.72732,1.62906 -15.40999,-1.94734 -29.67341,-9.48136 -45.06125,-11.59665 -11.19397,-1.53878 -23.02127,-0.0252 -32.80194,5.63266 -4.98644,2.88453 -9.44399,6.8183 -14.90262,8.65907 -2.72932,0.92038 -5.70308,1.27851 -8.50699,0.61948 -1.40196,-0.32951 -2.74915,-0.91239 -3.91873,-1.75271 -1.16959,-0.84032 -2.15851,-1.94079 -2.82294,-3.21852 -1.30277,-2.50529 -1.28509,-5.45982 -1.32533,-8.28331 -0.22395,-15.71454 -3.16398,-31.3415 -2.65066,-47.04925 0.73708,-22.55496 8.5757,-44.84519 5.96399,-67.26055 -1.45421,-12.48094 -6.1261,-24.54502 -6.29532,-37.10926 -0.18692,-13.87805 5.12962,-27.25499 6.29532,-41.08526 1.0099,-11.98181 -1.11588,-23.98456 -3.33472,-35.80236 -2.21883,-11.81781 -4.55035,-23.75598 -3.9546,-35.76551 0.8834,-17.80838 8.13616,-34.69171 10.60265,-52.35057 3.84838,-27.55254 -4.07838,-55.19909 -7.28932,-82.83317 -2.7299,-23.4941 -2.02265,-47.45725 2.98199,-70.57388 2.20581,-10.18874 5.25907,-20.40764 4.63866,-30.81394 -0.49188,-8.25041 -3.27373,-16.16298 -5.73271,-24.05377 -2.45899,-7.89079 -4.63918,-16.09107 -3.87594,-24.32081 0.66825,-7.20546 3.55087,-13.98793 6.17565,-20.7315 2.62477,-6.74358 5.058,-13.78625 4.75833,-21.01642 -0.35955,-8.67496 -4.58506,-16.63532 -8.15072,-24.55178 -1.78283,-3.95823 -3.42864,-8.00605 -4.36784,-12.24444 -0.93921,-4.23839 -1.15058,-8.69859 -0.0721,-12.90369 1.21021,-4.71864 3.96788,-8.8845 6.93759,-12.74598 2.96971,-3.86148 6.21427,-7.54534 8.63504,-11.77264 2.91358,-5.08787 4.5547,-10.95647 4.30852,-16.81436 -0.24618,-5.85788 -2.43438,-11.63084 -6.21034,-16.1161 -3.77596,-4.48526 -9.05129,-7.5886 -14.69505,-9.17711 -5.64376,-1.58852 -11.58388,-1.69113 -17.44693,-1.69113 h -6.77957"
         style="opacity:1;vector-effect:none;fill:none;fill-opacity:1;stroke:#000000;stroke-width:3.74999976;stroke-linecap:butt;stroke-linejoin:miter;stroke-miterlimit:4;stroke-dasharray:none;stroke-dashoffset:0;stroke-opacity:1" />
      <path
         inkscape:original-d="m 452.49965,305.52525 c 0.78002,-3.90385 -7.49627,-8.43529 -11.2458,-12.65152 -3.74954,-4.21625 -6.8715,-15.62012 -10.30866,-23.42877 -3.43715,-7.80865 -8.7458,-18.74394 -13.1201,-28.11451 -4.37431,-9.37057 11.24673,-5.62384 16.8687,-8.43436 5.62197,-2.81051 8.12291,14.99347 12.18296,22.49162 4.06005,7.49814 10.62198,11.55725 15.93155,17.33728 5.30958,5.78003 9.4e-4,16.243 0,24.36591 -9.3e-4,8.12291 2.50001,9.99534 3.74861,14.9944 1.2486,4.99908 13.43342,-5.62383 20.14873,-8.43435 6.71531,-2.81051 -1.24859,-8.12291 -1.8743,-12.18295 -0.62571,-4.06005 5.31145,-6.56099 7.96578,-9.84008 2.65432,-3.27909 -7.18389,-10.62198 -10.77723,-15.93156 -3.59335,-5.30959 -9.68295,-24.36685 -14.52583,-36.54887 -4.84288,-12.18202 9.37244,0.62383 14.05725,0.93715 4.68482,0.31332 8.74768,13.74394 13.12011,20.61731 4.37243,6.87337 15.9325,8.12104 23.89734,12.18296 7.96484,4.06193 -3.43528,11.24486 -5.15433,16.86871 -1.71905,5.62384 -5.62196,11.55725 -8.43436,17.33728 -2.81239,5.78004 5.31146,11.55725 7.96578,17.33728 2.65432,5.78004 -8.12103,9.37057 -12.18295,14.05726 -4.06193,4.6867 -9.68295,-5.31145 -14.52583,-7.96578 -4.84289,-2.65432 -12.4944,10.62011 -18.74301,15.93156 -6.24861,5.31146 -11.55726,-12.80866 -17.33729,-19.21159 -5.78003,-6.40292 1.56286,-7.81052 2.34288,-11.71438 z"
         inkscape:path-effect="#path-effect4581"
         inkscape:connector-curvature="0"
         id="path4579"
         d="m 452.49965,305.52525 c -0.28097,-1.40998 -0.92616,-2.73142 -1.76062,-3.90218 -0.83445,-1.17075 -1.85574,-2.19774 -2.93759,-3.14463 -2.16369,-1.89377 -4.59354,-3.4953 -6.54759,-5.60471 -2.9193,-3.15141 -4.59873,-7.24092 -5.93757,-11.32273 -1.33885,-4.08181 -2.41039,-8.28383 -4.37109,-12.10604 -2.42726,-4.73173 -6.11459,-8.68392 -9.04455,-13.12195 -1.46498,-2.21902 -2.74909,-4.58014 -3.53996,-7.11879 -0.79086,-2.53865 -1.07346,-5.26975 -0.53559,-7.87377 0.73863,-3.57595 3.09914,-6.81248 6.34454,-8.48589 1.62271,-0.83671 3.44522,-1.28747 5.27093,-1.28481 1.82572,0.003 3.65129,0.46054 5.25323,1.33634 1.90965,1.04404 3.46906,2.65585 4.66821,4.47211 1.19915,1.81627 2.05573,3.83743 2.7764,5.89107 1.44132,4.10728 2.39617,8.45947 4.73835,12.12844 2.12467,3.32824 5.24927,5.86823 8.24389,8.44186 2.99463,2.57363 5.98328,5.33362 7.68766,8.89542 1.77952,3.71884 1.99867,8.00232 1.63532,12.10895 -0.36335,4.10663 -1.27355,8.15019 -1.63532,12.25696 -0.2328,2.64271 -0.23514,5.32698 0.30639,7.92407 0.54153,2.59709 1.65115,5.11324 3.44222,7.07033 1.61848,1.76851 3.77584,3.04063 6.11087,3.58352 2.33503,0.54289 4.83784,0.35151 7.05648,-0.55663 2.21864,-0.90815 4.14101,-2.53115 5.39319,-4.57544 1.25219,-2.04429 1.82479,-4.5002 1.58819,-6.8858 -0.20556,-2.07262 -0.99354,-4.03491 -1.57128,-6.03596 -0.57775,-2.00106 -0.94367,-4.16518 -0.30302,-6.14699 0.32797,-1.01454 0.90767,-1.93381 1.59102,-2.75227 0.68335,-0.81847 1.47098,-1.54289 2.26464,-2.2549 1.5873,-1.42403 3.26005,-2.87721 4.11012,-4.83291 0.70536,-1.62278 0.77312,-3.48643 0.34004,-5.20206 -0.43308,-1.71562 -1.34662,-3.28766 -2.50359,-4.62645 -2.31395,-2.67757 -5.513,-4.39731 -8.61368,-6.10305 -3.49748,-1.92403 -6.97718,-3.91316 -10.13704,-6.35233 -3.15986,-2.43916 -6.00724,-5.3544 -7.97171,-8.82933 -1.96446,-3.47493 -3.00507,-7.54374 -2.49245,-11.50246 0.25632,-1.97937 0.89858,-3.91397 1.92832,-5.62371 1.02974,-1.70973 2.44999,-3.19054 4.14705,-4.24104 2.12792,-1.3172 4.67699,-1.93546 7.17355,-1.7616 2.49656,0.17387 4.92926,1.13567 6.8837,2.69875 3.21475,2.57102 4.95896,6.51023 6.57859,10.29461 1.61963,3.78438 3.34643,7.72729 6.54152,10.3227 1.7844,1.44949 3.93213,2.38943 6.1258,3.07712 2.19367,0.68768 4.45342,1.13862 6.67833,1.71729 2.22492,0.57868 4.43778,1.29508 6.41641,2.46561 1.97863,1.17052 3.72315,2.83113 4.6768,4.92294 0.64429,1.41323 0.91006,2.98563 0.85732,4.5379 -0.0527,1.55227 -0.418,3.08532 -0.98556,4.53107 -1.13512,2.89151 -3.04983,5.40314 -5.02609,7.79974 -2.10398,2.55149 -4.31897,5.03983 -5.99063,7.89331 -1.67166,2.85349 -2.78351,6.15439 -2.44373,9.44397 0.32916,3.18677 1.97086,6.07266 3.6703,8.78849 1.69944,2.71583 3.52405,5.43933 4.29548,8.54879 0.44957,1.8121 0.52264,3.72201 0.16436,5.55435 -0.35828,1.83234 -1.15163,3.58395 -2.33092,5.0314 -1.1793,1.44744 -2.74611,2.58431 -4.50485,3.21093 -1.75874,0.62663 -3.70577,0.73494 -5.51154,0.26058 -2.70781,-0.71131 -4.90397,-2.62696 -7.09018,-4.37587 -1.0931,-0.87445 -2.21479,-1.72449 -3.44816,-2.38657 -1.23337,-0.66208 -2.5894,-1.13347 -3.98749,-1.20334 -2.12107,-0.106 -4.21274,0.72603 -5.92342,1.98451 -1.71067,1.25847 -3.07998,2.92262 -4.31867,4.64767 -1.23869,1.72506 -2.36762,3.53129 -3.70191,5.18351 -1.33429,1.65223 -2.90027,3.16458 -4.79901,4.11587 -2.42999,1.21746 -5.31905,1.43358 -7.941,0.71771 -2.62194,-0.71587 -4.96721,-2.33529 -6.67252,-4.45165 -1.70531,-2.11636 -2.78017,-4.7126 -3.20573,-7.397 -0.42556,-2.68439 -0.21367,-5.45326 0.48196,-8.08065 0.51544,-1.9468 1.29065,-3.81569 1.84648,-5.75135 0.55584,-1.93565 0.88998,-3.98799 0.4964,-5.96303 z"
         style="opacity:1;vector-effect:none;fill:none;fill-opacity:1;stroke:#000000;stroke-width:3.74999976;stroke-linecap:butt;stroke-linejoin:miter;stroke-miterlimit:4;stroke-dasharray:none;stroke-dashoffset:0;stroke-opacity:1" />
      <path
         inkscape:original-d="m 555.5862,413.76613 c 6.24673,4.06193 7.49814,3.1229 11.24581,4.68576 3.74766,1.56285 0.6257,-6.87338 0.93714,-10.30866 0.31145,-3.43528 -1.87336,-32.48882 -2.81145,-48.73182 -0.93808,-16.243 1.25048,-6.87338 1.87431,-10.30866 0.62383,-3.43528 6.87337,3.43528 10.30865,5.15433 3.43528,1.71905 1.87524,9.68295 2.81145,14.52583 0.93622,4.84288 -0.62383,21.24114 -0.93715,31.86311 -0.31332,10.62198 2.5,31.23742 3.7486,46.85753 1.2486,15.62011 -1.56098,5.93435 -2.34287,8.90293 -0.7819,2.96858 -8.7458,-1.87523 -13.12011,-2.81145 -4.37431,-0.93622 -14.68108,-18.43157 -22.02304,-27.64594 -7.34194,-9.21438 -13.74393,-0.93809 -20.61731,-1.40572 -6.87336,-0.46765 -8.43341,-15.93251 -12.65152,-23.89735 -4.21812,-7.96484 -16.24301,-16.55726 -24.36592,-24.83448 -8.1229,-8.27723 2.81239,-18.74395 4.21718,-28.11451 1.40478,-9.37057 9.9972,10.6201 14.99441,15.93155 4.99719,5.31146 6.87337,18.1173 10.30865,27.17737 3.43528,9.06006 13.12105,7.18388 19.68016,10.77723 6.55912,3.59334 12.49628,8.12103 18.74301,12.18295 z"
         inkscape:path-effect="#path-effect4585"
         inkscape:connector-curvature="0"
         id="path4583"
         d="m 555.5862,413.76613 c 1.54772,1.61119 2.99367,3.38315 4.9193,4.51597 0.96282,0.56641 2.04159,0.96091 3.1565,1.03022 1.11491,0.0693 2.26703,-0.20281 3.17001,-0.86043 0.74569,-0.54307 1.29757,-1.32912 1.63013,-2.18958 0.33257,-0.86045 0.45328,-1.79336 0.43172,-2.7156 -0.0431,-1.84447 -0.63844,-3.62374 -1.12471,-5.40348 -2.15042,-7.87052 -2.22427,-16.14493 -2.06296,-24.30234 0.16131,-8.15741 0.53962,-16.3728 -0.74849,-24.42948 -0.29207,-1.8268 -0.67069,-3.66544 -0.53097,-5.51015 0.0699,-0.92236 0.27214,-1.84093 0.66455,-2.67857 0.39242,-0.83763 0.98073,-1.59267 1.74073,-2.11994 0.90092,-0.62504 2.01946,-0.90865 3.11498,-0.86196 1.09552,0.0467 2.16617,0.4135 3.10176,0.98535 1.87118,1.14369 3.15893,3.04627 4.09191,5.03094 2.11321,4.49529 2.65824,9.56097 2.81145,14.52583 0.32783,10.62327 -0.99915,21.23496 -0.93715,31.86311 0.0914,15.6749 3.19979,31.19198 3.7486,46.85753 0.0555,1.58306 0.0836,3.18167 -0.22138,4.73607 -0.30493,1.5544 -0.97007,3.07902 -2.12149,4.16686 -0.90808,0.85793 -2.08781,1.40875 -3.31803,1.62601 -1.23022,0.21725 -2.50804,0.10862 -3.70684,-0.24284 -2.3976,-0.70291 -4.4246,-2.33678 -6.09524,-4.19462 -4.04112,-4.49393 -6.24707,-10.28995 -9.15851,-15.58613 -1.45573,-2.64809 -3.11693,-5.21032 -5.23252,-7.36805 -2.11558,-2.15773 -4.71473,-3.90372 -7.63201,-4.69176 -3.35586,-0.90652 -6.90397,-0.51025 -10.37092,-0.25769 -3.46695,0.25256 -7.09788,0.32521 -10.24639,-1.14803 -2.10015,-0.98269 -3.85791,-2.61024 -5.21111,-4.4931 -1.35319,-1.88286 -2.32046,-4.01819 -3.09152,-6.20491 -1.54213,-4.37344 -2.33957,-9.01989 -4.34889,-13.19934 -2.5295,-5.26146 -6.82163,-9.45505 -11.28448,-13.2186 -4.46285,-3.76356 -9.21242,-7.24415 -13.08144,-11.61588 -1.96613,-2.22159 -3.69775,-4.67449 -4.90774,-7.3832 -1.20998,-2.7087 -1.88635,-5.68465 -1.71932,-8.64661 0.16703,-2.96197 1.20863,-5.9053 3.13079,-8.16504 1.92217,-2.25974 4.74983,-3.78516 7.71345,-3.91966 1.9749,-0.0896 3.95693,0.42777 5.6988,1.36273 1.74187,0.93497 3.24872,2.27727 4.48036,3.82366 2.46328,3.09278 3.80442,6.92269 4.81525,10.74516 1.25408,4.74235 2.06827,9.59791 3.4743,14.29745 1.40604,4.69954 3.46308,9.31661 6.83435,12.87992 2.5911,2.73869 5.8612,4.75138 9.25972,6.38366 3.39851,1.63228 6.95354,2.91208 10.42044,4.39357 6.89893,2.94807 13.54563,6.77243 18.74301,12.18295 z"
         style="opacity:1;vector-effect:none;fill:none;fill-opacity:1;stroke:#000000;stroke-width:3.74999976;stroke-linecap:butt;stroke-linejoin:miter;stroke-miterlimit:4;stroke-dasharray:none;stroke-dashoffset:0;stroke-opacity:1" />
      <path
         inkscape:original-d="m 502.6372,485.45814 c -12.96485,-9.21437 -4.37243,-10.62198 -6.56005,-15.93155 -2.18763,-5.30958 0.93808,-21.24302 1.40572,-31.86312 0.46764,-10.6201 -3.74766,-9.68482 -5.6229,-14.52583 -1.87524,-4.84101 -4.37243,8.43341 -6.56006,12.65153 -2.18762,4.21811 -0.62383,31.86218 -0.93714,47.79467 -0.31332,15.9325 -5.62197,6.8715 -8.43436,10.30866 -2.81239,3.43716 12.80866,12.18202 19.21159,18.27443 6.40292,6.09241 12.49627,3.1229 18.743,4.68575 6.24673,1.56286 9.06006,9.05819 13.58869,13.58869 4.52862,4.5305 15.30772,-4.06193 22.96018,-6.09148 7.65246,-2.02956 8.74768,14.68109 13.12011,22.02303 4.37243,7.34195 4.68669,-2.18761 7.02863,-3.28003 2.34193,-1.0924 -2.18575,-18.11917 -3.28003,-27.17735 -1.09428,-9.05819 -17.18016,-1.87525 -25.77164,-2.81146 -8.59148,-0.93621 -25.92689,-18.43156 -38.89174,-27.64594 z"
         inkscape:path-effect="#path-effect4589"
         inkscape:connector-curvature="0"
         id="path4587"
         d="m 502.6372,485.45814 c -2.91434,-4.97588 -5.31035,-10.30207 -6.56005,-15.93155 -2.32074,-10.45413 -0.5953,-21.34311 1.40572,-31.86312 0.55607,-2.92341 1.13162,-5.95328 0.42845,-8.84483 -0.35158,-1.44578 -1.03378,-2.83056 -2.08274,-3.88581 -1.04897,-1.05526 -2.48113,-1.7593 -3.96861,-1.79519 -1.35427,-0.0327 -2.69479,0.48844 -3.74782,1.34064 -1.05303,0.8522 -1.82766,2.01968 -2.31656,3.28304 -0.97782,2.52673 -0.82862,5.33905 -0.49568,8.02785 1.01409,8.18979 3.58933,16.13212 4.49109,24.33504 0.45088,4.10146 0.47653,8.27822 -0.32316,12.32616 -0.79968,4.04794 -2.45314,7.97237 -5.10507,11.13347 -1.43883,1.71508 -3.14614,3.18205 -4.70485,4.78897 -1.5587,1.60691 -2.99748,3.40406 -3.72951,5.51969 -0.83542,2.41445 -0.67648,5.1224 0.25245,7.50244 0.92892,2.38004 2.59552,4.43711 4.61122,6.00696 4.03142,3.13969 9.25992,4.29368 14.34792,4.76503 3.26394,0.30237 6.55644,0.36174 9.78697,0.91702 3.23054,0.55528 6.45423,1.65078 8.95603,3.76873 2.5003,2.11668 4.09404,5.0785 5.99156,7.74894 0.94877,1.33522 1.99215,2.61774 3.24823,3.66904 1.25608,1.0513 2.73932,1.86703 4.3489,2.17071 2.01743,0.38063 4.11714,-0.0617 6.01125,-0.85375 1.8941,-0.79201 3.62388,-1.92155 5.37896,-2.98673 1.75507,-1.06519 3.57051,-2.08174 5.55355,-2.61318 1.98305,-0.53144 4.17218,-0.53986 6.01642,0.36218 1.01966,0.49873 1.90063,1.25883 2.60531,2.1487 0.70469,0.88986 1.23737,1.90767 1.6409,2.96861 0.80705,2.12189 1.10036,4.39696 1.48469,6.63438 0.38434,2.23741 0.88261,4.50407 2.0418,6.456 0.57959,0.97596 1.32337,1.86255 2.23223,2.54255 0.90886,0.68001 1.98695,1.14818 3.11518,1.27279 1.33276,0.14721 2.69122,-0.18899 3.88248,-0.80449 1.19125,-0.61551 2.22635,-1.49989 3.14615,-2.47554 3.59472,-3.81297 5.48774,-9.21254 4.90938,-14.42082 -0.57837,-5.20829 -3.66547,-10.11178 -8.18941,-12.75653 -3.7763,-2.20767 -8.28014,-2.80953 -12.65403,-2.86743 -4.37388,-0.0579 -8.75544,0.38108 -13.11761,0.056 -8.25094,-0.61495 -16.17485,-3.99273 -22.77805,-8.97811 -6.60319,-4.98538 -11.93218,-11.52842 -16.11369,-18.66783 z"
         style="opacity:1;vector-effect:none;fill:none;fill-opacity:1;stroke:#000000;stroke-width:3.74999976;stroke-linecap:butt;stroke-linejoin:miter;stroke-miterlimit:4;stroke-dasharray:none;stroke-dashoffset:0;stroke-opacity:1" />
      <path
         sodipodi:nodetypes="ccccc"
         inkscape:connector-curvature="0"
         id="path4595"
         d="M 320.36143,482.64669 H 437.03666 V 370.18864 l -116.64594,-1e-5 z"
         style="opacity:1;vector-effect:none;fill:none;fill-opacity:1;stroke:#000000;stroke-width:3.74999976;stroke-linecap:butt;stroke-linejoin:miter;stroke-miterlimit:4;stroke-dasharray:none;stroke-dashoffset:0;stroke-opacity:1" />
      <path
         inkscape:original-d="m 375.65331,331.29689 c -9.99721,-0.46763 -0.62383,-13.43343 -0.93715,-20.14873 -0.31332,-6.71531 1.56285,-3.12477 2.34287,-4.68576 0.78003,-1.56097 -3.74765,-2.18761 -5.6229,-3.28002 -1.87523,-1.09241 -3.74766,4.06004 -5.6229,6.09147 -1.87524,2.03144 -4.06005,17.18016 -6.09148,25.77164 -2.03143,8.59149 5.31146,7.49627 7.96578,11.24581 2.65433,3.74954 21.5554,-5.93623 32.33169,-8.90293 10.77629,-2.96671 3.43716,0.31145 5.15433,0.46857 1.71717,0.15714 0.31332,-3.43715 0.46857,-5.15432 0.15526,-1.71718 -19.9916,-0.93808 -29.98881,-1.40573 z"
         inkscape:path-effect="#path-effect4599"
         inkscape:connector-curvature="0"
         id="path4597"
         d="m 375.65331,331.29689 c -1.6886,-0.9107 -3.05223,-2.38124 -3.9249,-4.08981 -0.87266,-1.70856 -1.26376,-3.6461 -1.22559,-5.56425 0.0763,-3.8363 1.83493,-7.48366 4.21334,-10.49467 0.55429,-0.70172 1.14581,-1.3795 1.6045,-2.14713 0.45869,-0.76762 0.78243,-1.64549 0.73837,-2.53863 -0.0308,-0.62513 -0.24386,-1.23793 -0.59313,-1.75729 -0.34927,-0.51937 -0.83254,-0.94529 -1.38358,-1.24209 -1.10209,-0.59359 -2.45082,-0.65215 -3.64619,-0.28064 -1.35703,0.42175 -2.50927,1.35787 -3.40794,2.45868 -0.89868,1.10082 -1.5681,2.36749 -2.21496,3.63279 -2.04529,4.00069 -3.93649,8.10675 -5.14155,12.43533 -1.20505,4.32857 -1.70748,8.90744 -0.94993,13.33631 0.40565,2.37154 1.18134,4.70469 2.50127,6.71629 1.31993,2.01159 3.21014,3.68896 5.46451,4.52952 2.71015,1.0105 5.76412,0.75566 8.51044,-0.15194 2.74633,-0.9076 5.2433,-2.42754 7.69678,-3.95936 2.45348,-1.53182 4.91311,-3.09963 7.62015,-4.11845 2.70703,-1.01882 5.72085,-1.45951 8.50432,-0.67318 0.85843,0.24251 1.68547,0.59811 2.55961,0.77587 0.43706,0.0889 0.8859,0.13251 1.3301,0.0923 0.4442,-0.0402 0.88442,-0.16643 1.26462,-0.39961 0.41047,-0.25174 0.74243,-0.62434 0.96479,-1.05144 0.22236,-0.4271 0.33676,-0.90717 0.35292,-1.38842 0.0323,-0.96248 -0.324,-1.90721 -0.84914,-2.71446 -0.72302,-1.11144 -1.76665,-1.99915 -2.94399,-2.609 -1.17733,-0.60985 -2.48529,-0.94801 -3.80566,-1.0691 -2.64075,-0.24216 -5.28439,0.36876 -7.82346,1.13381 -2.53907,0.76506 -5.04415,1.69199 -7.66283,2.10996 -2.61868,0.41797 -5.41885,0.28738 -7.75287,-0.9714 z"
         style="opacity:1;vector-effect:none;fill:none;fill-opacity:1;stroke:#000000;stroke-width:3.74999976;stroke-linecap:butt;stroke-linejoin:miter;stroke-miterlimit:4;stroke-dasharray:none;stroke-dashoffset:0;stroke-opacity:1" />
      <path
         inkscape:original-d="m 454.84253,437.19489 c -2.81239,-0.62383 5.62383,21.86591 8.43435,32.80027 2.81052,10.93436 2.18762,6.55911 3.28003,9.84008 1.0924,3.28096 -18.11731,13.43155 -27.17737,20.14873 -9.06005,6.71719 -77.47017,-9.4e-4 -116.20666,0 -38.73648,9.4e-4 -7.18388,2.49814 -10.77722,3.74861 -3.59336,1.25047 -4.06005,-16.55727 -6.09148,-24.83449 -2.03144,-8.27723 2.18762,-27.49068 3.28003,-41.23462 1.0924,-13.74393 -20.30399,-22.49255 -30.4574,-33.73741 -10.1534,-11.24488 -0.62382,-9.99721 -0.93714,-14.99442 -0.31332,-4.99719 9.37244,0.62383 14.05725,0.93716 4.68482,0.31332 5.31146,7.18388 7.96577,10.77722 2.65433,3.59336 7.18576,-8.1229 10.77724,-12.18295 3.59147,-4.06005 -2.49813,-17.49441 -3.7486,-26.24021 -1.25048,-8.74581 14.99534,-4.06193 22.49161,-6.09148 7.49627,-2.02956 24.05447,4.06005 36.08029,6.09148 12.02583,2.03143 37.79934,-4.06193 56.6976,-6.09148 18.89827,-2.02956 13.12105,1.87337 19.68016,2.81145 6.55912,0.93809 6.56099,17.80492 9.84009,26.70879 3.27908,8.90387 3.43715,21.55352 5.15432,32.33169 1.71718,10.77817 7.49815,3.74766 11.2458,5.6229 3.74767,1.87524 -3.43528,10.30772 -5.15432,15.46299 -1.71905,5.15526 -5.62197,-1.25048 -8.43435,-1.87431 z"
         inkscape:path-effect="#path-effect4603"
         inkscape:connector-curvature="0"
         id="path4601"
         d="m 454.84253,437.19489 c -1.79482,0.0138 -3.55684,0.74383 -4.90711,1.92635 -1.35027,1.18251 -2.2945,2.79833 -2.76659,4.53 -0.4721,1.73168 -0.48313,3.57404 -0.13883,5.33558 0.34431,1.76154 1.03724,3.44467 1.93841,4.99692 1.80234,3.10448 4.40078,5.65844 7.00911,8.1248 2.60832,2.46636 5.28452,4.91564 7.29936,7.88662 1.96944,2.90403 3.27082,6.33123 3.28003,9.84008 0.008,3.10976 -1.00475,6.18618 -2.69418,8.79702 -1.68942,2.61085 -4.03625,4.76583 -6.67942,6.40422 -5.28635,3.27676 -11.60304,4.46411 -17.80377,4.94749 -19.61531,1.52911 -39.07793,-3.34722 -58.55209,-6.15 -9.73708,-1.40138 -19.59925,-2.28849 -29.41204,-1.59292 -9.81279,0.69556 -19.61185,3.02211 -28.24253,7.74292 -1.69737,0.92843 -3.35075,1.94916 -5.13124,2.70608 -1.78048,0.75693 -3.72198,1.24566 -5.64598,1.04253 -2.45666,-0.25937 -4.72113,-1.66163 -6.25815,-3.59554 -1.53703,-1.93391 -2.38048,-4.36186 -2.64248,-6.81824 -0.52399,-4.91276 1.17077,-9.75965 2.80915,-14.42071 2.34558,-6.67299 4.64014,-13.41895 5.6159,-20.42455 0.97576,-7.0056 0.56431,-14.35875 -2.33587,-20.81007 -3.12697,-6.95581 -8.86633,-12.35072 -14.62641,-17.34899 -5.76008,-4.99828 -11.79313,-9.91872 -15.83099,-16.38842 -1.42071,-2.27634 -2.58921,-4.76946 -2.92408,-7.43179 -0.16743,-1.33117 -0.12189,-2.69466 0.19795,-3.99763 0.31984,-1.30297 0.91837,-2.54419 1.78899,-3.565 0.86952,-1.01952 2.00317,-1.80794 3.25296,-2.29116 1.2498,-0.48323 2.61294,-0.66259 3.9476,-0.54353 2.66932,0.23811 5.17283,1.687 6.85669,3.77185 1.42944,1.76985 2.27463,3.92614 3.35338,5.92913 0.53937,1.00149 1.1443,1.9749 1.89869,2.82626 0.75438,0.85136 1.66548,1.58008 2.7137,2.02183 1.51327,0.63773 3.264,0.63942 4.81627,0.10354 1.55226,-0.53587 2.90469,-1.58864 3.89392,-2.8994 0.98923,-1.31077 1.62412,-2.87105 1.94066,-4.48242 0.31655,-1.61136 0.32165,-3.27416 0.12639,-4.90467 -0.53922,-4.50275 -2.56259,-8.6714 -3.91369,-13.00038 -0.67555,-2.16449 -1.1876,-4.39789 -1.24974,-6.6645 -0.0622,-2.26661 0.34324,-4.57706 1.41483,-6.57533 0.98338,-1.83377 2.50455,-3.35491 4.26895,-4.45793 1.7644,-1.10302 3.76641,-1.798 5.81461,-2.16492 4.0964,-0.73384 8.30671,-0.17433 12.40805,0.53137 12.03021,2.06999 23.89315,5.39561 36.08029,6.09148 19.01014,1.08546 37.74445,-4.26344 56.6976,-6.09148 3.35932,-0.32401 6.74784,-0.53718 10.10612,-0.20258 3.35829,0.3346 6.70399,1.23841 9.57404,3.01403 4.25665,2.63347 7.21525,7.06259 8.71319,11.83861 1.49795,4.77603 1.63269,9.89037 1.1269,14.87018 -0.58377,5.74749 -2.00194,11.43621 -1.85683,17.21145 0.0726,2.88762 0.5467,5.79063 1.67308,8.45049 1.12638,2.65987 2.93239,5.07091 5.33807,6.66975 1.75278,1.16492 3.76216,1.87002 5.72493,2.62949 1.96277,0.75948 3.93757,1.60689 5.52087,2.99341 1.33677,1.17063 2.35333,2.71018 2.87152,4.40983 0.51819,1.69965 0.53174,3.55482 0.005,5.2519 -0.52655,1.69707 -1.59585,3.22662 -3.02951,4.27635 -1.43366,1.04974 -3.2266,1.60849 -5.00152,1.52491 -1.44431,-0.068 -2.83384,-0.54332 -4.20724,-0.99545 -1.37339,-0.45214 -2.78124,-0.88997 -4.22711,-0.87886 z"
         style="opacity:1;vector-effect:none;fill:none;fill-opacity:1;stroke:#000000;stroke-width:3.74999976;stroke-linecap:butt;stroke-linejoin:miter;stroke-miterlimit:4;stroke-dasharray:none;stroke-dashoffset:0;stroke-opacity:1" />
      <path
         inkscape:original-d="m 259.91523,276.94217 c -0.6257,-18.2735 -8.43342,-17.18203 -12.65153,-25.77164 -4.21811,-8.58961 -16.24301,9.99533 -24.36591,14.9944 -8.12291,4.99908 -9.68295,14.99348 -14.52584,22.49161 -4.84288,7.49815 -8.43341,14.99348 -12.65153,22.49162 -4.21811,7.49813 6.24861,28.73834 9.37151,43.10892 3.1229,14.37057 14.05819,-7.49814 21.08588,-11.24581 7.02769,-3.74766 -1.87336,-18.11917 -2.81145,-27.17736 -0.93809,-9.05818 9.06006,-14.68296 13.58868,-22.02304 4.52862,-7.34007 8.74767,11.86964 13.12011,17.80586 4.37243,5.93622 -3.1229,24.36498 -4.68576,36.54887 -1.56285,12.18389 11.87152,10.93249 17.80586,16.40014 5.93435,5.46765 16.55727,-7.18576 24.83449,-10.77724 8.27723,-3.59147 11.87152,-4.3743 17.80586,-6.56005 5.93435,-2.18575 8.12291,-10.62197 12.18296,-15.93156 4.06005,-5.30958 -3.43528,-1.56285 -5.15433,-2.34288 -1.71905,-0.78002 -12.18202,8.74581 -18.27444,13.12011 -6.0924,4.37431 -21.8659,-6.87338 -32.80026,-10.30865 -10.93436,-3.43528 -1.2486,-36.5498 -1.8743,-54.8233 z"
         inkscape:path-effect="#path-effect4607"
         inkscape:connector-curvature="0"
         id="path4605"
         d="m 259.91523,276.94217 c 0.26041,-5.18745 0.0586,-10.51949 -1.8491,-15.35044 -0.95385,-2.41548 -2.33477,-4.67857 -4.16584,-6.52018 -1.83108,-1.84161 -4.12225,-3.25106 -6.63659,-3.90102 -2.46689,-0.63769 -5.09835,-0.5327 -7.55755,0.134 -2.4592,0.6667 -4.75085,1.88167 -6.79303,3.40536 -4.08437,3.0474 -7.13139,7.25367 -10.01533,11.45504 -5.05125,7.35874 -9.80795,14.91482 -14.52584,22.49161 -4.55012,7.30736 -9.07842,14.66002 -12.65153,22.49162 -3.47554,7.61775 -6.05954,15.96909 -5.03925,24.27983 0.51014,4.15537 1.94442,8.23202 4.40665,11.618 2.46222,3.38597 5.98192,6.04949 10.00411,7.21109 4.23065,1.2218 8.92989,0.71777 12.81283,-1.35923 3.88295,-2.07699 6.90757,-5.7001 8.27305,-9.88658 1.42949,-4.38275 1.06162,-9.15441 0.15958,-13.67528 -0.90203,-4.52087 -2.32022,-8.93827 -2.97103,-13.50208 -0.69589,-4.87991 -0.45316,-10.05839 1.80968,-14.43759 1.13141,-2.1896 2.76285,-4.13928 4.80734,-5.51569 2.04449,-1.37641 4.50869,-2.16049 6.97166,-2.06976 2.03854,0.0751 4.03982,0.74455 5.76483,1.83341 1.72501,1.08885 3.17672,2.5887 4.28917,4.29859 2.2249,3.41978 3.06293,7.59402 3.06611,11.67386 0.005,6.18367 -1.78582,12.2051 -3.26341,18.20964 -1.47759,6.00454 -2.65629,12.27992 -1.42235,18.33923 0.86764,4.26057 2.96008,8.29826 6.10574,11.29995 3.14567,3.00168 7.35579,4.92114 11.70012,5.10019 4.57691,0.18864 9.03937,-1.50138 13.05766,-3.70071 4.01829,-2.19933 7.73302,-4.92447 11.77683,-7.07653 5.59448,-2.97731 11.7162,-4.80542 17.80586,-6.56005 3.85452,-1.11061 7.88772,-2.29681 10.75433,-5.10275 1.4333,-1.40297 2.52034,-3.20557 2.85951,-5.18235 0.16958,-0.98839 0.15055,-2.01187 -0.0858,-2.98645 -0.23636,-0.97458 -0.69217,-1.89883 -1.34507,-2.66001 -1.26376,-1.47336 -3.21507,-2.25836 -5.15433,-2.34288 -1.92892,-0.0841 -3.85055,0.47666 -5.55102,1.3911 -1.70047,0.91444 -3.19502,2.17199 -4.56211,3.53539 -2.73418,2.72679 -5.03299,5.92983 -8.16131,8.19362 -2.6237,1.89863 -5.76109,3.05929 -8.97948,3.42065 -3.21839,0.36137 -6.51195,-0.0681 -9.56375,-1.15212 -6.10359,-2.16807 -11.10801,-6.91697 -14.25703,-12.57718 -4.51976,-8.12406 -5.34615,-17.81204 -4.77475,-27.09116 0.5714,-9.27912 2.43435,-18.44714 2.90045,-27.73214 z"
         style="opacity:1;vector-effect:none;fill:none;fill-opacity:1;stroke:#000000;stroke-width:3.74999976;stroke-linecap:butt;stroke-linejoin:miter;stroke-miterlimit:4;stroke-dasharray:none;stroke-dashoffset:0;stroke-opacity:1" />
      <path
         inkscape:original-d="m 245.85797,393.14883 c -6.09241,-3.12291 -25.61451,-13.74581 -38.42317,-20.61731 -12.80866,-6.8715 -16.243,4.37242 -24.36591,6.56005 -8.12291,2.18762 -4.68481,15.30585 -7.02863,22.96018 -2.34381,7.65434 -0.93621,43.10798 -1.40572,64.66339 -0.46952,21.55539 2.5,21.55351 3.7486,32.33169 1.2486,10.77816 5.93622,10.30772 8.90293,15.46298 2.9667,5.15526 5.62384,-7.49814 8.43435,-11.24581 2.81052,-3.74766 -3.12289,-26.55353 -4.68575,-39.8289 -1.56285,-13.27535 12.18389,-36.86219 18.27444,-55.29187 6.09053,-18.42968 6.2486,-3.12477 9.3715,-4.68576 3.1229,-1.56097 16.55726,10.93249 24.83449,16.40014 8.27722,5.46765 11.8715,4.37244 17.80586,6.56005 5.93434,2.18762 3.43715,-4.3743 5.15433,-6.56005 1.71717,-2.18574 -1.56099,-11.55913 -2.34288,-17.33728 -0.7819,-5.77816 -12.18202,-6.24861 -18.27444,-9.3715 z"
         inkscape:path-effect="#path-effect4611"
         inkscape:connector-curvature="0"
         id="path4609"
         d="m 245.85797,393.14883 c -6.75697,-2.76578 -12.73834,-7.08649 -18.82322,-11.1214 -6.08488,-4.03491 -12.48025,-7.87846 -19.59995,-9.49591 -4.30605,-0.97825 -8.83912,-1.10594 -13.1292,-0.0599 -4.29009,1.04606 -8.32431,3.30074 -11.23671,6.61993 -2.68722,3.06256 -4.34599,6.91641 -5.33499,10.86891 -0.98901,3.95251 -1.34463,8.03188 -1.69364,12.09127 -1.8497,21.51384 -3.60623,43.18259 -1.40572,64.66339 1.10593,10.79585 3.20782,21.49282 3.7486,32.33169 0.16523,3.31179 0.20231,6.71984 1.46733,9.78496 0.63251,1.53256 1.5781,2.95653 2.86079,4.00701 1.28269,1.05048 2.91726,1.70733 4.57481,1.67101 1.28196,-0.0281 2.54051,-0.46728 3.60979,-1.17499 1.06928,-0.70771 1.95345,-1.67666 2.63394,-2.76347 1.36098,-2.17361 1.89866,-4.75948 2.19062,-7.30735 1.52742,-13.3293 -3.00015,-26.51868 -4.68575,-39.8289 -1.27399,-10.05998 -0.89787,-20.41723 1.99475,-30.13624 2.89261,-9.71901 8.39551,-18.77864 16.27969,-25.15563 2.74803,-2.2227 5.87735,-4.15376 9.3715,-4.68576 2.5691,-0.39116 5.22467,0.003 7.656,0.92014 2.43133,0.91756 4.64819,2.34509 6.64102,4.01299 3.98567,3.3358 7.07233,7.59326 10.53747,11.46701 2.28298,2.55219 4.80631,4.99421 7.90949,6.44197 1.55159,0.72387 3.23664,1.18604 4.94781,1.24349 1.71118,0.0575 3.44866,-0.29975 4.94856,-1.12541 1.24385,-0.68471 2.3041,-1.67744 3.15377,-2.815 0.84968,-1.13756 1.49428,-2.41853 2.00056,-3.74505 1.09039,-2.85698 1.54782,-5.97083 1.18472,-9.00719 -0.3631,-3.03635 -1.56192,-5.98757 -3.5276,-8.33009 -2.22726,-2.65425 -5.32764,-4.43587 -8.5238,-5.77387 -3.19617,-1.338 -6.54395,-2.28506 -9.75064,-3.59763 z"
         style="opacity:1;vector-effect:none;fill:none;fill-opacity:1;stroke:#000000;stroke-width:3.74999976;stroke-linecap:butt;stroke-linejoin:miter;stroke-miterlimit:4;stroke-dasharray:none;stroke-dashoffset:0;stroke-opacity:1" />
      <path
         sodipodi:nodetypes="sccccscccscsss"
         inkscape:original-d="m 267.88101,470.46374 c -1.87524,-7.49627 8.43529,-8.12291 12.65153,-12.18296 4.21624,-4.06004 3.12477,-9.4e-4 4.68575,0 1.56099,9.3e-4 -9.79721,-9.63718 -8.23622,-17.60202 1.56097,-7.96484 -15.55219,21.3462 -21.17603,22.90906 -5.62385,1.56285 7.23396,11.40454 2.23489,29.36753 -4.99907,17.96298 17.8068,14.68109 26.70879,22.02303 8.90198,7.34195 9.06006,7.80866 13.58868,11.71439 4.52862,3.90572 -0.31145,9.05818 -0.46857,13.58867 -0.15714,4.5305 0.93808,7.80866 1.40572,11.71438 0.46764,3.90574 7.81052,-5.31145 11.71438,-7.96577 3.90385,-2.65433 -10.30772,-20.30587 -15.46298,-30.45739 -5.15527,-10.15153 -14.68109,-13.74581 -22.02304,-20.61731 -7.34195,-6.8715 -3.74766,-14.99534 -5.6229,-22.49161 z"
         inkscape:path-effect="#path-effect4615"
         inkscape:connector-curvature="0"
         id="path4613"
         d="m 267.88101,470.46374 c 0.68641,-3.07826 2.08437,-6.03963 4.27842,-8.30523 2.19405,-2.26561 5.22052,-3.78811 8.37311,-3.87773 1.56388,-0.0445 3.14189,0.25338 4.68575,0 1.24426,-0.20421 2.4234,-0.76972 3.37965,-1.59158 0.95626,-0.82186 1.6894,-1.89582 2.13245,-3.07632 0.8861,-2.361 0.5689,-5.09761 -0.65798,-7.30085 -1.22687,-2.20324 -3.30629,-3.87667 -5.6505,-4.80628 -2.3442,-0.92962 -4.93793,-1.14309 -7.43984,-0.82699 -5.47965,0.69232 -10.45339,3.88782 -13.99898,8.12275 -3.54558,4.23493 -5.76512,9.44662 -7.17705,14.78631 -2.56927,9.71658 -2.47557,20.4892 2.23489,29.36753 2.74846,5.18033 6.93595,9.49257 11.61887,13.02245 4.68292,3.52989 9.87196,6.32426 15.08992,9.00058 2.72629,1.39833 5.48409,2.77913 7.9273,4.62811 2.4432,1.84898 4.58198,4.21872 5.66138,7.08628 0.81155,2.15599 0.99352,4.51036 0.81446,6.80706 -0.17906,2.2967 -0.7081,4.55084 -1.28303,6.78161 -0.52201,2.02544 -1.0877,4.0747 -1.04473,6.16589 0.0215,1.0456 0.19882,2.09482 0.59703,3.06186 0.39822,0.96703 1.02359,1.85014 1.85342,2.48663 1.12982,0.86658 2.60563,1.2375 4.02361,1.10798 1.41798,-0.12951 2.77287,-0.74031 3.87721,-1.63914 1.10433,-0.89883 1.96481,-2.07651 2.58268,-3.35935 0.61787,-1.28284 0.99928,-2.67034 1.23088,-4.07526 0.96873,-5.87642 -0.69969,-11.972 -3.70139,-17.11599 -3.00169,-5.14398 -7.26309,-9.4383 -11.76159,-13.3414 -7.61826,-6.60995 -16.17227,-12.4016 -22.02304,-20.61731 -2.30887,-3.24213 -4.16056,-6.83613 -5.20997,-10.67553 -1.04941,-3.8394 -1.27919,-7.93126 -0.41293,-11.81608 z"
         style="opacity:1;vector-effect:none;fill:none;fill-opacity:1;stroke:#000000;stroke-width:3.74999976;stroke-linecap:butt;stroke-linejoin:miter;stroke-miterlimit:4;stroke-dasharray:none;stroke-dashoffset:0;stroke-opacity:1" />
      <path
         inkscape:original-d="m 223.83494,485.45814 c -8.2791,-10.30772 8.1229,-23.4297 12.18295,-35.14314 4.06005,-11.71345 2.81239,-5.31145 4.21718,-7.96578 1.40479,-2.65432 -10.93249,-4.06192 -16.40013,-6.09147 -5.46765,-2.02956 -4.9972,8.12103 -7.49721,12.18295 -2.5,4.06193 -4.37243,27.48881 -6.56005,41.23463 -2.18762,13.7458 22.80493,32.17455 34.20599,48.26324 11.40106,16.08869 12.1839,15.61824 18.27443,23.42876 6.09055,7.81053 4.37431,4.9972 6.56005,7.4972 2.18576,2.50001 5.31147,-9.99721 7.96579,-14.9944 2.65432,-4.9972 -18.74208,-24.99162 -28.11452,-37.48602 -9.37244,-12.4944 -16.55538,-20.61825 -24.83448,-30.92597 z"
         inkscape:path-effect="#path-effect4619"
         inkscape:connector-curvature="0"
         id="path4617"
         d="m 223.83494,485.45814 c -1.24895,-6.28114 -0.19158,-12.87272 2.18183,-18.82079 2.37341,-5.94806 6.01153,-11.31279 10.00112,-16.32235 0.95095,-1.19407 1.92701,-2.37604 2.7142,-3.68387 0.7872,-1.30783 1.38476,-2.76003 1.50298,-4.28191 0.14287,-1.83931 -0.44098,-3.71221 -1.54153,-5.19284 -1.10055,-1.48063 -2.69953,-2.56874 -4.45818,-3.12605 -1.75866,-0.55732 -3.66835,-0.59261 -5.46636,-0.17954 -1.79802,0.41307 -3.48405,1.26637 -4.93406,2.40696 -1.89814,1.49308 -3.38423,3.45864 -4.56517,5.5652 -1.18095,2.10656 -2.07156,4.36125 -2.93204,6.61775 -5.02509,13.17762 -9.20146,27.38096 -6.56005,41.23463 1.87709,9.84495 7.10367,18.77987 13.41467,26.56562 6.31099,7.78575 13.73159,14.58378 20.79132,21.69762 7.00557,7.05926 13.75744,14.56829 18.27443,23.42876 0.77888,1.52784 1.49494,3.10157 2.51343,4.48129 1.01849,1.37971 2.38952,2.57437 4.04662,3.01591 1.66381,0.44333 3.49463,0.0695 4.94385,-0.86033 1.44922,-0.92983 2.52655,-2.3799 3.15612,-3.98254 0.62956,-1.60264 0.82964,-3.35238 0.74894,-5.07236 -0.0807,-1.71997 -0.43506,-3.41662 -0.88312,-5.07917 -2.06557,-7.66435 -6.12962,-14.689 -11.11724,-20.86415 -4.98762,-6.17515 -10.8929,-11.54787 -16.99728,-16.62187 -5.19312,-4.31655 -10.5726,-8.45873 -15.14992,-13.42352 -4.57733,-4.9648 -8.36759,-10.87926 -9.68456,-17.50245 z"
         style="opacity:1;vector-effect:none;fill:none;fill-opacity:1;stroke:#000000;stroke-width:3.74999976;stroke-linecap:butt;stroke-linejoin:miter;stroke-miterlimit:4;stroke-dasharray:none;stroke-dashoffset:0;stroke-opacity:1" />
      <path
         inkscape:original-d="m 221.49206,559.9616 c 8.27723,7.81053 14.0582,20.92876 21.08588,31.39454 7.0277,10.46579 -8.43341,16.24301 -12.65153,24.36592 -4.21811,8.12291 -14.68108,18.11731 -22.02303,27.17736 -7.34195,9.06006 -4.37243,23.74021 -6.56005,35.61172 -2.18763,11.87151 -4.37244,27.48881 -6.56006,41.23462 -2.18762,13.74581 -8.7458,6.8715 -13.1201,10.30866 -4.37431,3.43715 -4.06005,13.11917 -6.09148,19.68016 -2.03143,6.56099 1.87524,49.04326 2.81145,73.5663 0.93621,24.52304 0.93809,9.05819 1.40572,13.58869 0.46764,4.5305 -9.68295,1.87336 -14.52583,2.81145 -4.84288,0.93808 0.31332,-11.55913 0.46858,-17.33729 0.15525,-5.77815 4.06192,-34.6755 6.09148,-52.01184 2.02955,-17.33635 9.3e-4,-21.5554 0,-32.33169 -9.4e-4,-10.7763 -0.62383,-21.24302 -0.93715,-31.86313 -0.31333,-10.62009 13.12104,-14.05818 19.68016,-21.08588 6.55911,-7.02769 -10.93249,-14.0582 -16.40014,-21.08588 -5.46765,-7.02769 14.0582,-14.99534 21.08589,-22.49161 7.02769,-7.49627 -13.74394,-19.05633 -20.61731,-28.58309 -6.87338,-9.52677 10.93436,-6.87338 16.40013,-10.30866 5.46577,-3.43528 18.74395,-9.06005 28.11451,-13.58868 9.37057,-4.52863 -12.4944,-8.12291 -18.74301,-12.18296 -6.2486,-4.06004 -13.11916,-13.74581 -19.68015,-20.61731 -6.561,-6.87149 10.62197,-13.12104 15.93155,-19.68016 5.30959,-6.55912 16.55727,15.61824 24.83449,23.42876 z"
         inkscape:path-effect="#path-effect4623"
         inkscape:connector-curvature="0"
         id="path4621"
         d="m 221.49206,559.9616 c 3.91976,5.11046 8.86534,9.33869 13.06837,14.21884 2.10152,2.44007 4.02406,5.05581 5.47265,7.9319 1.44859,2.87609 2.41504,6.02612 2.54486,9.2438 0.18971,4.70222 -1.41647,9.34259 -3.8242,13.38606 -2.40773,4.04347 -5.59304,7.56135 -8.82733,10.97986 -8.0437,8.50187 -16.67235,16.76808 -22.02303,27.17736 -5.58312,10.86145 -7.20316,23.41628 -6.56005,35.61172 0.37935,7.19373 1.51186,14.37293 1.11716,21.56583 -0.19735,3.59645 -0.78264,7.19077 -2.00493,10.5789 -1.22228,3.38813 -3.09837,6.5703 -5.67229,9.08989 -3.98468,3.90058 -9.4741,6.08978 -13.1201,10.30866 -2.28363,2.64244 -3.70347,5.9413 -4.56565,9.32569 -0.86217,3.38439 -1.19598,6.8776 -1.52583,10.35447 -2.33395,24.60154 -4.53712,49.9722 2.81145,73.5663 0.69134,2.21968 1.46763,4.42418 1.86217,6.71531 0.39453,2.29113 0.38861,4.70756 -0.45645,6.87338 -0.53983,1.38354 -1.4172,2.63582 -2.54272,3.60475 -1.12552,0.96892 -2.4979,1.65145 -3.95268,1.95016 -1.45478,0.29871 -2.98886,0.21138 -4.39579,-0.26419 -1.40693,-0.47557 -2.68231,-1.33968 -3.63464,-2.47927 -0.97217,-1.16334 -1.59812,-2.59462 -1.9063,-4.07904 -0.30818,-1.48441 -0.30691,-3.02215 -0.11247,-4.5257 0.38888,-3.0071 1.53097,-5.85519 2.48735,-8.73255 5.52398,-16.6194 4.93384,-34.53675 6.09148,-52.01184 0.71472,-10.78911 2.10815,-21.72643 0,-32.33169 -1.07372,-5.40146 -3.04086,-10.60901 -3.87344,-16.05285 -0.41629,-2.72192 -0.544,-5.50621 -0.12455,-8.22764 0.41944,-2.72144 1.40339,-5.38378 3.06084,-7.58264 1.5196,-2.01599 3.55399,-3.5869 5.67955,-4.94904 2.12555,-1.36214 4.36554,-2.54034 6.47501,-3.92726 2.10947,-1.38692 4.11033,-3.00882 5.55825,-5.07689 1.44792,-2.06808 2.30522,-4.63084 1.96735,-7.13269 -0.30855,-2.28474 -1.58008,-4.35009 -3.17256,-6.01719 -1.59248,-1.66711 -3.50435,-2.98838 -5.38191,-4.32628 -1.87757,-1.33791 -3.75396,-2.72196 -5.24229,-4.48267 -1.48832,-1.76071 -2.57402,-3.95445 -2.60338,-6.25974 -0.0172,-1.34727 0.32766,-2.68794 0.9191,-3.89857 0.59145,-1.21064 1.42487,-2.29436 2.38575,-3.2389 1.92176,-1.88908 4.31969,-3.20868 6.70911,-4.45466 2.38942,-1.24598 4.82782,-2.45841 6.89744,-4.18423 2.06962,-1.72582 3.7697,-4.05106 4.17449,-6.71525 0.23326,-1.53527 0.0251,-3.12235 -0.49911,-4.58408 -0.52422,-1.46173 -1.35752,-2.80164 -2.35789,-3.98939 -2.00074,-2.37548 -4.62876,-4.12413 -7.23,-5.82103 -2.60123,-1.6969 -5.24876,-3.40505 -7.31439,-5.72432 -1.03282,-1.15963 -1.91095,-2.46837 -2.49532,-3.90712 -0.58436,-1.43874 -0.86866,-3.01133 -0.7206,-4.55715 0.16906,-1.76501 0.90143,-3.4566 1.98698,-4.85854 1.08555,-1.40194 2.51471,-2.52033 4.08734,-3.33927 3.14528,-1.63787 6.77985,-2.071 10.32581,-2.11085 6.00633,-0.0675 12.14885,0.89685 17.93749,-0.70699 2.89431,-0.80192 5.65971,-2.27937 7.62963,-4.54644 0.98496,-1.13353 1.76068,-2.45543 2.21723,-3.88602 0.45655,-1.43059 0.58937,-2.97009 0.33016,-4.44923 -0.34022,-1.9414 -1.34758,-3.73189 -2.6957,-5.16973 -1.34813,-1.43783 -3.02616,-2.53827 -4.8057,-3.38563 -3.55909,-1.69472 -7.49681,-2.39648 -11.24161,-3.6276 -4.75656,-1.56374 -9.2668,-4.03324 -12.83397,-7.54685 -3.56716,-3.51361 -6.1494,-8.11217 -6.84618,-13.07046 -0.66947,-4.76398 0.4829,-9.8222 3.42385,-13.62937 1.47047,-1.90358 3.36699,-3.48239 5.52577,-4.54332 2.15879,-1.06092 4.57827,-1.59865 6.98193,-1.50747 2.95856,0.11222 5.83623,1.16945 8.33326,2.76021 2.49703,1.59077 4.63195,3.70047 6.49522,6.00131 3.72656,4.6017 6.40225,9.96876 10.00601,14.66724 z"
         style="opacity:1;vector-effect:none;fill:none;fill-opacity:1;stroke:#000000;stroke-width:3.74999976;stroke-linecap:butt;stroke-linejoin:miter;stroke-miterlimit:4;stroke-dasharray:none;stroke-dashoffset:0;stroke-opacity:1" />
      <path
         inkscape:original-d="m 206.02908,857.50687 c 2.18575,-0.46763 24.99161,-9.3e-4 37.48602,0 12.4944,9.4e-4 10.62197,4.68482 15.93155,7.02864 5.30959,2.34381 9.99721,-2.81239 14.99441,-4.21719 4.9972,-1.40478 -7.49626,-8.74767 -11.24581,-13.1201 -3.74954,-4.37243 -12.49439,-7.49814 -18.743,-11.2458 -6.24861,-3.74767 11.8715,-4.6867 17.80585,-7.02864 5.93436,-2.34193 16.86965,2.49814 25.30307,3.74861 8.43341,1.25047 4.3743,-13.43343 6.56005,-20.14873 2.18575,-6.71532 -8.12103,-28.42784 -12.18296,-42.64035 -4.06191,-14.21251 7.49814,-35.92504 11.24581,-53.88615 3.74767,-17.96111 -0.62383,-38.11173 -0.93715,-57.16618 -0.31333,-19.05445 -7.80865,-5.62384 -11.71438,-8.43435 -3.90573,-2.81052 -7.80865,8.43341 -11.71439,12.65152 -3.90572,4.21812 -3.12289,35.92317 -4.68574,53.88616 -1.56286,17.96299 -11.86964,18.42969 -17.80586,27.64594 -5.93623,9.21625 -19.36684,-2.81239 -29.05167,-4.21718 -9.68482,-1.40479 -9.37056,9.68295 -14.05725,14.52583 -4.68669,4.84289 -5.62197,26.23928 -8.43436,39.36032 -2.81239,13.12105 -1.56098,17.18016 -2.34287,25.77164 -0.7819,8.59149 11.87151,-1.56286 17.80586,-2.34288 5.93434,-0.78001 2.18762,-25.92876 3.28002,-38.89174 1.09241,-12.96298 20.61825,-11.24675 30.92597,-16.86871 10.30772,-5.62196 17.80679,31.86217 26.70878,47.79468 8.902,15.93249 -5.30958,5.62196 -7.96578,8.43435 -2.6562,2.81238 -7.80865,-9.99721 -11.71438,-14.99441 -3.90572,-4.9972 -5.93434,-10.62197 -8.90293,-15.93156 -2.96857,-5.30958 -8.74579,4.68482 -13.1201,7.02863 -4.37431,2.34382 -0.31145,31.54979 -0.46858,47.3261 -0.15712,15.7763 -12.18201,2.81051 -18.27443,4.21717 -6.09241,1.40667 -9.68295,2.18576 -14.52583,3.28003 -4.84288,1.09428 2.18762,6.55912 3.28002,9.84008 1.09241,3.28097 4.37431,-0.93808 6.56006,-1.40573 z"
         inkscape:path-effect="#path-effect4627"
         inkscape:connector-curvature="0"
         id="path4625"
         d="m 206.02908,857.50687 c 11.90039,-4.71582 25.60844,-4.77297 37.48602,0 5.38978,2.16586 10.39397,5.27482 15.93155,7.02864 2.73598,0.86652 5.66208,1.39233 8.47697,0.83305 1.40745,-0.27964 2.76931,-0.83386 3.92137,-1.68936 1.15205,-0.8555 2.08789,-2.01892 2.59607,-3.36088 0.58157,-1.53576 0.58424,-3.26474 0.11452,-4.83832 -0.46972,-1.57358 -1.39594,-2.99302 -2.56905,-4.14219 -2.34622,-2.29835 -5.5745,-3.47665 -8.79128,-4.13959 -3.91464,-0.80676 -8.00272,-0.95973 -11.71412,-2.44324 -1.8557,-0.74175 -3.60308,-1.82704 -4.91282,-3.33647 -1.30975,-1.50944 -2.15482,-3.46801 -2.11606,-5.46609 0.0361,-1.86282 0.8425,-3.67465 2.0989,-5.05047 1.2564,-1.37582 2.94067,-2.32748 4.73218,-2.83928 3.583,-1.0236 7.44001,-0.31836 10.97477,0.86111 4.19237,1.39889 8.15882,3.45125 12.42213,4.61615 2.13165,0.58246 4.33964,0.93915 6.54791,0.85695 2.20827,-0.0822 4.4212,-0.61629 6.33303,-1.72449 3.25066,-1.88425 5.40727,-5.31896 6.34856,-8.95643 0.94129,-3.63747 0.77483,-7.47748 0.21149,-11.1923 -2.22093,-14.64539 -10.39606,-27.93569 -12.18296,-42.64035 -1.11658,-9.18849 0.32865,-18.52154 2.7265,-27.46164 2.39785,-8.9401 5.73932,-17.59577 8.51931,-26.42451 2.94895,-9.36534 5.27806,-19.01417 5.56728,-28.82856 0.28923,-9.81439 -1.55839,-19.85572 -6.50443,-28.33762 -1.27512,-2.18668 -2.77277,-4.28549 -4.73803,-5.88089 -1.96525,-1.59539 -4.44717,-2.65722 -6.97635,-2.55346 -1.53537,0.063 -3.04047,0.55229 -4.36637,1.32901 -1.3259,0.77673 -2.47614,1.83522 -3.43221,3.03824 -1.91215,2.40603 -3.03261,5.34059 -3.91581,8.28427 -5.19568,17.317 -3.02557,35.8829 -4.68574,53.88616 -0.54303,5.8887 -1.54185,11.86509 -4.33134,17.07954 -1.39475,2.60722 -3.23464,4.99541 -5.52269,6.86831 -2.28804,1.8729 -5.03418,3.21823 -7.95183,3.69809 -4.88437,0.80331 -9.80258,-0.81689 -14.51207,-2.34103 -2.35475,-0.76208 -4.72448,-1.50769 -7.1637,-1.92695 -2.43922,-0.41926 -4.96407,-0.50479 -7.3759,0.0508 -3.42039,0.78793 -6.4683,2.84737 -8.80446,5.46697 -2.33615,2.6196 -4.00024,5.77998 -5.25279,9.05886 -4.79907,12.56283 -3.7272,26.76276 -8.43436,39.36032 -1.60522,4.29597 -3.87084,8.36754 -4.91038,12.83425 -0.51977,2.23335 -0.72247,4.56285 -0.35487,6.82624 0.3676,2.26338 1.33028,4.46092 2.92238,6.11115 1.18159,1.22474 2.68904,2.12528 4.31621,2.62371 1.62718,0.49843 3.37043,0.59755 5.05052,0.32654 3.36017,-0.54202 6.39755,-2.5698 8.43913,-5.29313 1.98955,-2.65393 3.06721,-5.90969 3.49974,-9.19824 0.43252,-3.28855 0.24943,-6.62753 -0.0863,-9.92736 -0.67152,-6.59967 -1.93639,-13.38212 -0.13339,-19.76614 1.75006,-6.19659 6.38233,-11.41312 12.11552,-14.34416 5.7332,-2.93104 12.47163,-3.65586 18.81045,-2.52455 10.23178,1.8261 19.44559,8.5373 24.46764,17.63691 5.02205,9.09961 5.80433,20.39418 2.24114,30.15777 -0.69627,1.90786 -1.56415,3.78334 -2.86905,5.33961 -1.30491,1.55626 -3.09057,2.77845 -5.09673,3.09474 -1.75338,0.27643 -3.58227,-0.15974 -5.11098,-1.06185 -1.52871,-0.90211 -2.76755,-2.24884 -3.68665,-3.76739 -1.83819,-3.03712 -2.40147,-6.65269 -2.91675,-10.16517 -0.46657,-3.18041 -0.93719,-6.40944 -2.24839,-9.34431 -0.65559,-1.46743 -1.52179,-2.85055 -2.63794,-4.007 -1.11616,-1.15645 -2.48868,-2.08163 -4.0166,-2.58025 -2.58594,-0.84389 -5.50875,-0.39753 -7.86391,0.96352 -2.35516,1.36104 -4.15589,3.57743 -5.25619,6.06511 -1.6625,3.75878 -1.76794,8.04796 -1.13064,12.10827 0.63731,4.06032 1.97707,7.97068 3.12514,11.9171 1.14808,3.94642 2.11552,8.00921 1.97502,12.11683 -0.1405,4.10763 -1.50067,8.30922 -4.4381,11.1839 -2.30821,2.2589 -5.43255,3.55173 -8.61481,4.1028 -3.18225,0.55107 -6.44335,0.40766 -9.65962,0.11437 -2.59267,-0.23642 -5.2071,-0.56892 -7.78925,-0.23669 -1.29107,0.16611 -2.56768,0.50101 -3.73568,1.07567 -1.168,0.57466 -2.22588,1.3952 -3.0009,2.44105 -0.61382,0.82832 -1.04495,1.79362 -1.23498,2.80692 -0.19003,1.0133 -0.13715,2.07336 0.16944,3.05769 0.3066,0.98432 0.86798,1.89036 1.62474,2.5905 0.75677,0.70014 1.70827,1.19099 2.72082,1.38497 1.11452,0.21351 2.27232,0.0689 3.3664,-0.23235 1.09407,-0.30123 2.13869,-0.75532 3.19366,-1.17338 z"
         style="opacity:1;vector-effect:none;fill:none;fill-opacity:1;stroke:#000000;stroke-width:3.74999976;stroke-linecap:butt;stroke-linejoin:miter;stroke-miterlimit:4;stroke-dasharray:none;stroke-dashoffset:0;stroke-opacity:1" />
      <path
         inkscape:original-d="m 479.67701,611.0363 c -6.56099,-0.31144 -9.99533,9.05819 -14.9944,13.58869 -4.99908,4.5305 -5.93436,0.31145 -8.90293,0.46857 -2.96859,0.15713 -1.2486,-7.18576 -1.87431,-10.77723 -0.6257,-3.59147 15.30774,-5.93622 22.96019,-8.90293 7.65246,-2.9667 12.49628,-8.74767 18.74301,-13.1201 6.24673,-4.37244 10.93436,3.12289 16.40014,4.68575 5.46577,1.56285 -8.43343,9.99534 -12.65154,14.9944 -4.21811,4.99908 -13.11917,-0.6257 -19.68016,-0.93715 z"
         inkscape:path-effect="#path-effect4631"
         inkscape:connector-curvature="0"
         id="path4629"
         d="m 479.67701,611.0363 c -3.16731,1.24508 -5.56689,3.86489 -7.7419,6.48241 -2.17502,2.61751 -4.31809,5.38252 -7.2525,7.10628 -1.34684,0.79118 -2.8502,1.34472 -4.40688,1.4739 -1.55667,0.12918 -3.16804,-0.18294 -4.49605,-1.00533 -1.72328,-1.06717 -2.87275,-2.96032 -3.17089,-4.96522 -0.29813,-2.00491 0.22085,-4.09406 1.29658,-5.81201 1.11858,-1.78638 2.80419,-3.17272 4.66925,-4.15452 1.86506,-0.9818 3.91007,-1.57893 5.97298,-2.01113 4.12581,-0.8644 8.43004,-1.1083 12.31796,-2.73728 3.53183,-1.47979 6.50149,-4.01336 9.39707,-6.51921 2.89558,-2.50584 5.83953,-5.06183 9.34594,-6.60089 2.89977,-1.27279 6.19365,-1.79721 9.27396,-1.06213 1.54016,0.36753 3.01103,1.04744 4.25506,2.02701 1.24404,0.97956 2.25675,2.26152 2.87112,3.72087 0.74863,1.77825 0.88926,3.79381 0.47083,5.6773 -0.41843,1.88349 -1.38442,3.63153 -2.69955,5.04328 -2.63025,2.82352 -6.56445,4.2151 -10.42282,4.27382 -3.32041,0.0505 -6.57781,-0.80143 -9.85194,-1.35614 -3.27414,-0.55471 -6.73764,-0.79592 -9.82822,0.41899 z"
         style="opacity:1;vector-effect:none;fill:none;fill-opacity:1;stroke:#000000;stroke-width:3.74999976;stroke-linecap:butt;stroke-linejoin:miter;stroke-miterlimit:4;stroke-dasharray:none;stroke-dashoffset:0;stroke-opacity:1" />
      <path
         inkscape:original-d="m 439.84811,600.72765 c 2.81053,1.09428 1.56286,-0.31332 2.34288,-0.46858 0.78003,-0.15525 46.23369,-21.86777 69.34913,-32.80026 23.11544,-10.93249 12.80867,5.30959 19.21159,7.96578 6.40293,2.6562 0.31332,-16.24488 0.46857,-24.36591 0.15526,-8.12104 -15.30585,-8.12291 -22.96018,-12.18296 -7.65433,-4.06005 -5.62196,-1.87524 -8.43436,-2.81145 -2.81238,-0.93622 -4.37242,6.24673 -6.56005,9.3715 -2.18762,3.12477 -16.86777,17.49254 -25.30306,26.24021 -8.43529,8.74768 -28.73834,-9.99721 -43.10892,-14.9944 -14.37058,-4.9972 -29.05072,4.37243 -43.57749,6.56005 -14.52678,2.18762 -2.49814,5.93435 -3.74861,8.90293 -1.25047,2.96858 -5.62197,24.05259 -8.43435,36.08029 -2.81239,12.0277 -5.62197,7.49627 -8.43435,11.24581 -2.81239,3.74954 11.8715,6.24673 17.80585,9.3715 5.93435,3.12478 4.06192,-13.74581 6.09148,-20.61731 2.02956,-6.8715 1.25047,-21.55539 1.87431,-32.33168 0.62382,-10.7763 10.30958,0.9362 15.46297,1.40572 5.15339,0.46951 19.6811,13.43156 29.52024,20.14873 9.83915,6.71719 5.62384,2.18575 8.43435,3.28003 z"
         inkscape:path-effect="#path-effect4635"
         inkscape:connector-curvature="0"
         id="path4633"
         d="m 439.84811,600.72765 c 0.79569,-0.0586 1.57548,-0.25028 2.34288,-0.46858 6.45642,-1.83664 12.22097,-5.56958 17.43252,-9.80023 5.21155,-4.23064 9.96659,-8.99594 15.11738,-13.30035 5.15079,-4.30441 10.79039,-8.19127 17.1625,-10.30192 6.37211,-2.11064 13.58341,-2.29879 19.63673,0.60224 3.21218,1.53943 5.97469,3.86814 9.04383,5.67599 1.53457,0.90393 3.15736,1.6814 4.88023,2.13276 1.72286,0.45136 3.55441,0.56724 5.28753,0.15703 2.45556,-0.5812 4.6102,-2.22223 5.96681,-4.34994 1.35662,-2.1277 1.93493,-4.71045 1.78622,-7.22947 -0.14871,-2.51902 -1.00253,-4.97188 -2.30278,-7.13449 -1.30024,-2.16262 -3.03763,-4.04321 -4.98168,-5.65201 -6.69214,-5.53809 -15.50525,-7.72435 -22.96018,-12.18296 -1.30655,-0.78141 -2.57853,-1.63663 -3.9798,-2.23173 -1.40126,-0.5951 -2.97048,-0.91912 -4.45456,-0.57972 -0.97721,0.22348 -1.87903,0.72813 -2.63243,1.3894 -0.75339,0.66127 -1.36279,1.47583 -1.85285,2.35032 -0.9801,1.74898 -1.48386,3.71596 -2.07477,5.63178 -1.88339,6.10624 -4.79098,11.96896 -9.058,16.72563 -4.26702,4.75666 -9.96076,8.35662 -16.24506,9.51458 -7.63214,1.40632 -15.50335,-0.82569 -22.53055,-4.11897 -7.02721,-3.29328 -13.52156,-7.64606 -20.57837,-10.87543 -7.28062,-3.33179 -15.30072,-5.45122 -23.27393,-4.71897 -3.98661,0.36613 -7.92361,1.45141 -11.45226,3.34235 -3.52866,1.89095 -6.64004,4.5994 -8.8513,7.93667 -1.78727,2.69737 -2.96793,5.76276 -3.74861,8.90293 -1.5099,6.07334 -1.55272,12.40052 -2.26904,18.61761 -0.71631,6.21709 -2.22777,12.59841 -6.16531,17.46268 -1.49259,1.84389 -3.29138,3.41449 -4.88876,5.16839 -1.59737,1.75389 -3.02529,3.76289 -3.54559,6.07742 -0.4758,2.11659 -0.14079,4.39399 0.86589,6.31568 1.00669,1.9217 2.6679,3.48125 4.62086,4.42585 1.95296,0.94461 4.18538,1.27947 6.33885,1.01695 2.15346,-0.26252 4.22373,-1.11381 5.98025,-2.38698 3.06589,-2.22224 5.11506,-5.67778 6.03877,-9.34994 0.92371,-3.67216 0.78335,-7.55197 0.0527,-11.26737 -1.13021,-5.74724 -3.64147,-11.19335 -4.32893,-17.01018 -0.34373,-2.90842 -0.21261,-5.9146 0.76508,-8.67524 0.9777,-2.76064 2.85768,-5.26128 5.43816,-6.64626 2.36899,-1.27147 5.18508,-1.53863 7.84549,-1.15006 2.6604,0.38856 5.19214,1.39542 7.61748,2.55578 10.76433,5.15 19.7324,13.32295 29.52024,20.14873 1.2628,0.88065 2.54874,1.74425 3.9537,2.37378 1.40495,0.62953 2.94526,1.01932 4.48065,0.90625 z"
         style="opacity:1;vector-effect:none;fill:none;fill-opacity:1;stroke:#000000;stroke-width:3.74999976;stroke-linecap:butt;stroke-linejoin:miter;stroke-miterlimit:4;stroke-dasharray:none;stroke-dashoffset:0;stroke-opacity:1" />
      <path
         inkscape:original-d="m 194.78327,246.95335 c 1.2486,-7.65246 -8.12103,-4.21811 -12.18295,-6.32576 -4.06193,-2.10766 0.78189,15.61823 1.17143,23.42876 0.38955,7.81052 4.84289,3.90385 7.26292,5.85719 2.42004,1.95333 2.50001,-15.30773 3.7486,-22.96019 z"
         inkscape:path-effect="#path-effect4639"
         inkscape:connector-curvature="0"
         id="path4637"
         d="m 194.78327,246.95335 c -1.5306,-1.8791 -3.1789,-3.71463 -5.23833,-4.99232 -1.02972,-0.63884 -2.15708,-1.13118 -3.34244,-1.38291 -1.18535,-0.25173 -2.43013,-0.25831 -3.60218,0.0495 -1.13191,0.29724 -2.18185,0.88495 -3.05208,1.66742 -0.87024,0.78246 -1.56194,1.7568 -2.04763,2.82154 -0.97139,2.12948 -1.1031,4.58247 -0.64299,6.87737 0.92022,4.58979 4.01101,8.39025 6.91413,12.06243 0.98518,1.24616 1.96615,2.5073 3.14149,3.57598 1.17534,1.06867 2.56866,1.94594 4.12143,2.28121 1.25,0.2699 2.57108,0.1762 3.78371,-0.22986 1.21263,-0.40605 2.31595,-1.11987 3.21246,-2.0318 1.79302,-1.82386 2.71463,-4.39971 2.7918,-6.95615 0.0772,-2.55645 -0.64094,-5.09262 -1.76865,-7.38819 -1.12771,-2.29557 -2.65547,-4.37118 -4.27072,-6.35419 z"
         style="opacity:1;vector-effect:none;fill:none;fill-opacity:1;stroke:#000000;stroke-width:3.74999976;stroke-linecap:butt;stroke-linejoin:miter;stroke-miterlimit:4;stroke-dasharray:none;stroke-dashoffset:0;stroke-opacity:1" />
    </g>
  </g>
  <g
     inkscape:groupmode="layer"
     id="layer3"
     inkscape:label="Layer 3"
     style="display:inline"
     transform="translate(-125.73598,-140.00011)">
    <path
       style="color:#000000;clip-rule:nonzero;display:inline;overflow:visible;visibility:visible;opacity:1;isolation:auto;mix-blend-mode:normal;color-interpolation:sRGB;color-interpolation-filters:linearRGB;solid-color:#000000;solid-opacity:1;fill:none;fill-opacity:1;fill-rule:evenodd;stroke:#000000;stroke-width:4;stroke-linecap:butt;stroke-linejoin:miter;stroke-miterlimit:4;stroke-dasharray:none;stroke-dashoffset:0;stroke-opacity:1;color-rendering:auto;image-rendering:auto;shape-rendering:auto;text-rendering:auto;enable-background:accumulate"
       d="m 173.29284,175.83497 6.59289,7.03693 6.51568,-6.10454"
       id="path4235-4-01-69-2"
       inkscape:connector-curvature="0"
       inkscape:transform-center-x="3.8474027"
       inkscape:transform-center-y="-1.5327204" />
    <path
       style="color:#000000;clip-rule:nonzero;display:inline;overflow:visible;visibility:visible;opacity:1;isolation:auto;mix-blend-mode:normal;color-interpolation:sRGB;color-interpolation-filters:linearRGB;solid-color:#000000;solid-opacity:1;fill:none;fill-opacity:1;fill-rule:evenodd;stroke:#000000;stroke-width:4;stroke-linecap:butt;stroke-linejoin:miter;stroke-miterlimit:4;stroke-dasharray:none;stroke-dashoffset:0;stroke-opacity:1;color-rendering:auto;image-rendering:auto;shape-rendering:auto;text-rendering:auto;enable-background:accumulate"
       d="m 464.42176,186.7184 -7.17229,-6.44537 -5.96793,6.64103"
       id="path4235-4-01-69-2-0"
       inkscape:connector-curvature="0"
       inkscape:transform-center-x="-4.2265764"
       inkscape:transform-center-y="1.0153278" />
    <path
       style="color:#000000;clip-rule:nonzero;display:inline;overflow:visible;visibility:visible;opacity:1;isolation:auto;mix-blend-mode:normal;color-interpolation:sRGB;color-interpolation-filters:linearRGB;solid-color:#000000;solid-opacity:1;fill:none;fill-opacity:1;fill-rule:evenodd;stroke:#000000;stroke-width:4;stroke-linecap:butt;stroke-linejoin:miter;stroke-miterlimit:4;stroke-dasharray:none;stroke-dashoffset:0;stroke-opacity:1;color-rendering:auto;image-rendering:auto;shape-rendering:auto;text-rendering:auto;enable-background:accumulate"
       d="m 155.6364,243.27572 7.09178,6.53384 6.04986,-6.56649"
       id="path4235-4-01-69-2-6"
       inkscape:connector-curvature="0"
       inkscape:transform-center-x="0.64241236"
       inkscape:transform-center-y="-5.5302604" />
    <path
       style="color:#000000;clip-rule:nonzero;display:inline;overflow:visible;visibility:visible;opacity:1;isolation:auto;mix-blend-mode:normal;color-interpolation:sRGB;color-interpolation-filters:linearRGB;solid-color:#000000;solid-opacity:1;fill:none;fill-opacity:1;fill-rule:evenodd;stroke:#000000;stroke-width:4;stroke-linecap:butt;stroke-linejoin:miter;stroke-miterlimit:4;stroke-dasharray:none;stroke-dashoffset:0;stroke-opacity:1;color-rendering:auto;image-rendering:auto;shape-rendering:auto;text-rendering:auto;enable-background:accumulate"
       d="m 193.72206,237.87541 9.45748,1.88163 1.74225,-8.75694"
       id="path4235-4-01-69-2-4"
       inkscape:connector-curvature="0"
       inkscape:transform-center-x="5.7977028"
       inkscape:transform-center-y="-0.54621537" />
    <path
       style="color:#000000;clip-rule:nonzero;display:inline;overflow:visible;visibility:visible;opacity:1;isolation:auto;mix-blend-mode:normal;color-interpolation:sRGB;color-interpolation-filters:linearRGB;solid-color:#000000;solid-opacity:1;fill:none;fill-opacity:1;fill-rule:evenodd;stroke:#000000;stroke-width:4;stroke-linecap:butt;stroke-linejoin:miter;stroke-miterlimit:4;stroke-dasharray:none;stroke-dashoffset:0;stroke-opacity:1;color-rendering:auto;image-rendering:auto;shape-rendering:auto;text-rendering:auto;enable-background:accumulate"
       d="m 164.53341,324.89091 7.09178,6.53384 6.04986,-6.56649"
       id="path4235-4-01-69-2-6-8"
       inkscape:connector-curvature="0"
       inkscape:transform-center-x="0.64241236"
       inkscape:transform-center-y="-5.5302604" />
    <path
       style="color:#000000;clip-rule:nonzero;display:inline;overflow:visible;visibility:visible;opacity:1;isolation:auto;mix-blend-mode:normal;color-interpolation:sRGB;color-interpolation-filters:linearRGB;solid-color:#000000;solid-opacity:1;fill:none;fill-opacity:1;fill-rule:evenodd;stroke:#000000;stroke-width:4;stroke-linecap:butt;stroke-linejoin:miter;stroke-miterlimit:4;stroke-dasharray:none;stroke-dashoffset:0;stroke-opacity:1;color-rendering:auto;image-rendering:auto;shape-rendering:auto;text-rendering:auto;enable-background:accumulate"
       d="m 267.31036,275.20809 6.03887,7.51774 6.96089,-5.59157"
       id="path4235-4-01-69-2-6-7"
       inkscape:connector-curvature="0"
       inkscape:transform-center-x="-0.67577768"
       inkscape:transform-center-y="-5.9988954" />
    <path
       style="color:#000000;clip-rule:nonzero;display:inline;overflow:visible;visibility:visible;opacity:1;isolation:auto;mix-blend-mode:normal;color-interpolation:sRGB;color-interpolation-filters:linearRGB;solid-color:#000000;solid-opacity:1;fill:none;fill-opacity:1;fill-rule:evenodd;stroke:#000000;stroke-width:4;stroke-linecap:butt;stroke-linejoin:miter;stroke-miterlimit:4;stroke-dasharray:none;stroke-dashoffset:0;stroke-opacity:1;color-rendering:auto;image-rendering:auto;shape-rendering:auto;text-rendering:auto;enable-background:accumulate"
       d="m 335.43504,342.77319 5.40665,-7.98452 -7.3931,-5.00616"
       id="path4235-4-01-69-2-6-6"
       inkscape:connector-curvature="0"
       inkscape:transform-center-x="5.9005225"
       inkscape:transform-center-y="1.9434149" />
    <path
       style="color:#000000;clip-rule:nonzero;display:inline;overflow:visible;visibility:visible;opacity:1;isolation:auto;mix-blend-mode:normal;color-interpolation:sRGB;color-interpolation-filters:linearRGB;solid-color:#000000;solid-opacity:1;fill:none;fill-opacity:1;fill-rule:evenodd;stroke:#000000;stroke-width:4;stroke-linecap:butt;stroke-linejoin:miter;stroke-miterlimit:4;stroke-dasharray:none;stroke-dashoffset:0;stroke-opacity:1;color-rendering:auto;image-rendering:auto;shape-rendering:auto;text-rendering:auto;enable-background:accumulate"
       d="m 379.02983,281.34673 -7.22998,6.38058 5.90797,6.69444"
       id="path4235-4-01-69-2-6-2"
       inkscape:connector-curvature="0"
       inkscape:transform-center-x="-5.8625579"
       inkscape:transform-center-y="0.2677148" />
    <path
       style="color:#000000;clip-rule:nonzero;display:inline;overflow:visible;visibility:visible;opacity:1;isolation:auto;mix-blend-mode:normal;color-interpolation:sRGB;color-interpolation-filters:linearRGB;solid-color:#000000;solid-opacity:1;fill:none;fill-opacity:1;fill-rule:evenodd;stroke:#000000;stroke-width:4;stroke-linecap:butt;stroke-linejoin:miter;stroke-miterlimit:4;stroke-dasharray:none;stroke-dashoffset:0;stroke-opacity:1;color-rendering:auto;image-rendering:auto;shape-rendering:auto;text-rendering:auto;enable-background:accumulate"
       d="m 414.05489,278.07453 8.71826,4.12024 3.81504,-8.07249"
       id="path4235-4-01-69-2-6-66"
       inkscape:connector-curvature="0"
       inkscape:transform-center-x="3.2379724"
       inkscape:transform-center-y="-6.1446704" />
    <path
       style="color:#000000;clip-rule:nonzero;display:inline;overflow:visible;visibility:visible;opacity:1;isolation:auto;mix-blend-mode:normal;color-interpolation:sRGB;color-interpolation-filters:linearRGB;solid-color:#000000;solid-opacity:1;fill:none;fill-opacity:1;fill-rule:evenodd;stroke:#000000;stroke-width:4;stroke-linecap:butt;stroke-linejoin:miter;stroke-miterlimit:4;stroke-dasharray:none;stroke-dashoffset:0;stroke-opacity:1;color-rendering:auto;image-rendering:auto;shape-rendering:auto;text-rendering:auto;enable-background:accumulate"
       d="m 154.09877,442.93205 7.69809,5.80722 5.37706,-7.1279"
       id="path4235-4-01-69-2-6-0"
       inkscape:connector-curvature="0"
       inkscape:transform-center-x="1.5016474"
       inkscape:transform-center-y="-5.7882354" />
    <path
       style="color:#000000;clip-rule:nonzero;display:inline;overflow:visible;visibility:visible;opacity:1;isolation:auto;mix-blend-mode:normal;color-interpolation:sRGB;color-interpolation-filters:linearRGB;solid-color:#000000;solid-opacity:1;fill:none;fill-opacity:1;fill-rule:evenodd;stroke:#000000;stroke-width:4;stroke-linecap:butt;stroke-linejoin:miter;stroke-miterlimit:4;stroke-dasharray:none;stroke-dashoffset:0;stroke-opacity:1;color-rendering:auto;image-rendering:auto;shape-rendering:auto;text-rendering:auto;enable-background:accumulate"
       d="m 229.93295,483.68357 8.65243,4.25672 3.94142,-8.01154"
       id="path4235-4-01-69-2-6-9"
       inkscape:connector-curvature="0"
       inkscape:transform-center-x="3.1086474"
       inkscape:transform-center-y="-6.1262954" />
    <path
       style="color:#000000;clip-rule:nonzero;display:inline;overflow:visible;visibility:visible;opacity:1;isolation:auto;mix-blend-mode:normal;color-interpolation:sRGB;color-interpolation-filters:linearRGB;solid-color:#000000;solid-opacity:1;fill:none;fill-opacity:1;fill-rule:evenodd;stroke:#000000;stroke-width:4;stroke-linecap:butt;stroke-linejoin:miter;stroke-miterlimit:4;stroke-dasharray:none;stroke-dashoffset:0;stroke-opacity:1;color-rendering:auto;image-rendering:auto;shape-rendering:auto;text-rendering:auto;enable-background:accumulate"
       d="m 284.56124,476.78755 5.76598,7.72903 7.15652,-5.33889"
       id="path4235-4-01-69-2-6-4"
       inkscape:connector-curvature="0"
       inkscape:transform-center-x="-0.9900677"
       inkscape:transform-center-y="-6.0954204" />
    <path
       style="color:#000000;clip-rule:nonzero;display:inline;overflow:visible;visibility:visible;opacity:1;isolation:auto;mix-blend-mode:normal;color-interpolation:sRGB;color-interpolation-filters:linearRGB;solid-color:#000000;solid-opacity:1;fill:none;fill-opacity:1;fill-rule:evenodd;stroke:#000000;stroke-width:4;stroke-linecap:butt;stroke-linejoin:miter;stroke-miterlimit:4;stroke-dasharray:none;stroke-dashoffset:0;stroke-opacity:1;color-rendering:auto;image-rendering:auto;shape-rendering:auto;text-rendering:auto;enable-background:accumulate"
       d="m 299.97223,431.58319 -9.64262,0.0657 0.0608,8.92837"
       id="path4235-4-01-69-2-6-44"
       inkscape:connector-curvature="0"
       inkscape:transform-center-x="-6.4438279"
       inkscape:transform-center-y="5.99064" />
    <path
       style="color:#000000;clip-rule:nonzero;display:inline;overflow:visible;visibility:visible;opacity:1;isolation:auto;mix-blend-mode:normal;color-interpolation:sRGB;color-interpolation-filters:linearRGB;solid-color:#000000;solid-opacity:1;fill:none;fill-opacity:1;fill-rule:evenodd;stroke:#000000;stroke-width:4;stroke-linecap:butt;stroke-linejoin:miter;stroke-miterlimit:4;stroke-dasharray:none;stroke-dashoffset:0;stroke-opacity:1;color-rendering:auto;image-rendering:auto;shape-rendering:auto;text-rendering:auto;enable-background:accumulate"
       d="m 291.91348,534.62197 -9.62992,-0.499 -0.46202,8.91662"
       id="path4235-4-01-69-2-6-1"
       inkscape:connector-curvature="0"
       inkscape:transform-center-x="-6.1123979"
       inkscape:transform-center-y="6.109875" />
    <path
       style="color:#000000;clip-rule:nonzero;display:inline;overflow:visible;visibility:visible;opacity:1;isolation:auto;mix-blend-mode:normal;color-interpolation:sRGB;color-interpolation-filters:linearRGB;solid-color:#000000;solid-opacity:1;fill:none;fill-opacity:1;fill-rule:evenodd;stroke:#000000;stroke-width:4;stroke-linecap:butt;stroke-linejoin:miter;stroke-miterlimit:4;stroke-dasharray:none;stroke-dashoffset:0;stroke-opacity:1;color-rendering:auto;image-rendering:auto;shape-rendering:auto;text-rendering:auto;enable-background:accumulate"
       d="m 244.06183,550.59087 -9.60431,0.8612 0.79742,8.8929"
       id="path4235-4-01-69-2-6-5"
       inkscape:connector-curvature="0"
       inkscape:transform-center-x="-6.5478129"
       inkscape:transform-center-y="5.435885" />
    <path
       style="color:#000000;clip-rule:nonzero;display:inline;overflow:visible;visibility:visible;opacity:1;isolation:auto;mix-blend-mode:normal;color-interpolation:sRGB;color-interpolation-filters:linearRGB;solid-color:#000000;solid-opacity:1;fill:none;fill-opacity:1;fill-rule:evenodd;stroke:#000000;stroke-width:4;stroke-linecap:butt;stroke-linejoin:miter;stroke-miterlimit:4;stroke-dasharray:none;stroke-dashoffset:0;stroke-opacity:1;color-rendering:auto;image-rendering:auto;shape-rendering:auto;text-rendering:auto;enable-background:accumulate"
       d="m 154.59343,611.82505 7.09178,6.53384 6.04986,-6.56649"
       id="path4235-4-01-69-2-6-11"
       inkscape:connector-curvature="0"
       inkscape:transform-center-x="0.64241236"
       inkscape:transform-center-y="-5.5302604" />
    <path
       style="color:#000000;clip-rule:nonzero;display:inline;overflow:visible;visibility:visible;opacity:1;isolation:auto;mix-blend-mode:normal;color-interpolation:sRGB;color-interpolation-filters:linearRGB;solid-color:#000000;solid-opacity:1;fill:none;fill-opacity:1;fill-rule:evenodd;stroke:#000000;stroke-width:4;stroke-linecap:butt;stroke-linejoin:miter;stroke-miterlimit:4;stroke-dasharray:none;stroke-dashoffset:0;stroke-opacity:1;color-rendering:auto;image-rendering:auto;shape-rendering:auto;text-rendering:auto;enable-background:accumulate"
       d="m 297.3799,628.98904 -8.9001,3.71115 3.43628,8.24085"
       id="path4235-4-01-69-2-6-93"
       inkscape:connector-curvature="0"
       inkscape:transform-center-x="-6.5420879"
       inkscape:transform-center-y="3.0938149" />
    <path
       style="color:#000000;clip-rule:nonzero;display:inline;overflow:visible;visibility:visible;opacity:1;isolation:auto;mix-blend-mode:normal;color-interpolation:sRGB;color-interpolation-filters:linearRGB;solid-color:#000000;solid-opacity:1;fill:none;fill-opacity:1;fill-rule:evenodd;stroke:#000000;stroke-width:4;stroke-linecap:butt;stroke-linejoin:miter;stroke-miterlimit:4;stroke-dasharray:none;stroke-dashoffset:0;stroke-opacity:1;color-rendering:auto;image-rendering:auto;shape-rendering:auto;text-rendering:auto;enable-background:accumulate"
       d="m 245.08792,721.79308 -4.59481,8.47774 7.84979,4.25446"
       id="path4235-4-01-69-2-6-07"
       inkscape:connector-curvature="0"
       inkscape:transform-center-x="-6.0734829"
       inkscape:transform-center-y="-2.7805253" />
    <path
       style="color:#000000;clip-rule:nonzero;display:inline;overflow:visible;visibility:visible;opacity:1;isolation:auto;mix-blend-mode:normal;color-interpolation:sRGB;color-interpolation-filters:linearRGB;solid-color:#000000;solid-opacity:1;fill:none;fill-opacity:1;fill-rule:evenodd;stroke:#000000;stroke-width:4;stroke-linecap:butt;stroke-linejoin:miter;stroke-miterlimit:4;stroke-dasharray:none;stroke-dashoffset:0;stroke-opacity:1;color-rendering:auto;image-rendering:auto;shape-rendering:auto;text-rendering:auto;enable-background:accumulate"
       d="m 182.09405,755.29212 7.09178,6.53384 6.04986,-6.56649"
       id="path4235-4-01-69-2-6-47"
       inkscape:connector-curvature="0"
       inkscape:transform-center-x="0.64241236"
       inkscape:transform-center-y="-5.5302604" />
    <path
       style="color:#000000;clip-rule:nonzero;display:inline;overflow:visible;visibility:visible;opacity:1;isolation:auto;mix-blend-mode:normal;color-interpolation:sRGB;color-interpolation-filters:linearRGB;solid-color:#000000;solid-opacity:1;fill:none;fill-opacity:1;fill-rule:evenodd;stroke:#000000;stroke-width:4;stroke-linecap:butt;stroke-linejoin:miter;stroke-miterlimit:4;stroke-dasharray:none;stroke-dashoffset:0;stroke-opacity:1;color-rendering:auto;image-rendering:auto;shape-rendering:auto;text-rendering:auto;enable-background:accumulate"
       d="m 392.0077,634.59966 5.48739,-7.92925 -7.34192,-5.08092"
       id="path4235-4-01-69-2-6-73"
       inkscape:connector-curvature="0"
       inkscape:transform-center-x="5.8794325"
       inkscape:transform-center-y="1.8560098" />
    <path
       style="color:#000000;clip-rule:nonzero;display:inline;overflow:visible;visibility:visible;opacity:1;isolation:auto;mix-blend-mode:normal;color-interpolation:sRGB;color-interpolation-filters:linearRGB;solid-color:#000000;solid-opacity:1;fill:none;fill-opacity:1;fill-rule:evenodd;stroke:#000000;stroke-width:4;stroke-linecap:butt;stroke-linejoin:miter;stroke-miterlimit:4;stroke-dasharray:none;stroke-dashoffset:0;stroke-opacity:1;color-rendering:auto;image-rendering:auto;shape-rendering:auto;text-rendering:auto;enable-background:accumulate"
       d="m 383.50417,515.51244 7.6703,-5.84387 -5.41102,-7.10215"
       id="path4235-4-01-69-2-6-79"
       inkscape:connector-curvature="0"
       inkscape:transform-center-x="6.0689225"
       inkscape:transform-center-y="-0.90134524" />
    <path
       style="color:#000000;clip-rule:nonzero;display:inline;overflow:visible;visibility:visible;opacity:1;isolation:auto;mix-blend-mode:normal;color-interpolation:sRGB;color-interpolation-filters:linearRGB;solid-color:#000000;solid-opacity:1;fill:none;fill-opacity:1;fill-rule:evenodd;stroke:#000000;stroke-width:4;stroke-linecap:butt;stroke-linejoin:miter;stroke-miterlimit:4;stroke-dasharray:none;stroke-dashoffset:0;stroke-opacity:1;color-rendering:auto;image-rendering:auto;shape-rendering:auto;text-rendering:auto;enable-background:accumulate"
       d="m 511.23037,519.44015 -8.28164,4.93952 4.57366,7.6682"
       id="path4235-4-01-69-2-6-97"
       inkscape:connector-curvature="0"
       inkscape:transform-center-x="-6.3295079"
       inkscape:transform-center-y="1.8872649" />
    <path
       style="color:#000000;clip-rule:nonzero;display:inline;overflow:visible;visibility:visible;opacity:1;isolation:auto;mix-blend-mode:normal;color-interpolation:sRGB;color-interpolation-filters:linearRGB;solid-color:#000000;solid-opacity:1;fill:none;fill-opacity:1;fill-rule:evenodd;stroke:#000000;stroke-width:4;stroke-linecap:butt;stroke-linejoin:miter;stroke-miterlimit:4;stroke-dasharray:none;stroke-dashoffset:0;stroke-opacity:1;color-rendering:auto;image-rendering:auto;shape-rendering:auto;text-rendering:auto;enable-background:accumulate"
       d="m 465.38352,449.80335 7.09178,6.53384 6.04986,-6.56649"
       id="path4235-4-01-69-2-6-74"
       inkscape:connector-curvature="0"
       inkscape:transform-center-x="0.64241236"
       inkscape:transform-center-y="-5.5302604" />
    <path
       style="color:#000000;clip-rule:nonzero;display:inline;overflow:visible;visibility:visible;opacity:1;isolation:auto;mix-blend-mode:normal;color-interpolation:sRGB;color-interpolation-filters:linearRGB;solid-color:#000000;solid-opacity:1;fill:none;fill-opacity:1;fill-rule:evenodd;stroke:#000000;stroke-width:4;stroke-linecap:butt;stroke-linejoin:miter;stroke-miterlimit:4;stroke-dasharray:none;stroke-dashoffset:0;stroke-opacity:1;color-rendering:auto;image-rendering:auto;shape-rendering:auto;text-rendering:auto;enable-background:accumulate"
       d="m 507.08595,407.97608 -9.348,2.36627 2.19101,8.65558"
       id="path4235-4-01-69-2-6-06"
       inkscape:connector-curvature="0"
       inkscape:transform-center-x="-6.6219079"
       inkscape:transform-center-y="4.2713699" />
    <path
       style="color:#000000;clip-rule:nonzero;display:inline;overflow:visible;visibility:visible;opacity:1;isolation:auto;mix-blend-mode:normal;color-interpolation:sRGB;color-interpolation-filters:linearRGB;solid-color:#000000;solid-opacity:1;fill:none;fill-opacity:1;fill-rule:evenodd;stroke:#000000;stroke-width:4;stroke-linecap:butt;stroke-linejoin:miter;stroke-miterlimit:4;stroke-dasharray:none;stroke-dashoffset:0;stroke-opacity:1;color-rendering:auto;image-rendering:auto;shape-rendering:auto;text-rendering:auto;enable-background:accumulate"
       d="m 457.04397,343.93448 -9.3279,2.44433 2.26329,8.63696"
       id="path4235-4-01-69-2-6-72"
       inkscape:connector-curvature="0"
       inkscape:transform-center-x="-6.6212079"
       inkscape:transform-center-y="4.2067099" />
    <path
       style="color:#000000;clip-rule:nonzero;display:inline;overflow:visible;visibility:visible;opacity:1;isolation:auto;mix-blend-mode:normal;color-interpolation:sRGB;color-interpolation-filters:linearRGB;solid-color:#000000;solid-opacity:1;fill:none;fill-opacity:1;fill-rule:evenodd;stroke:#000000;stroke-width:4;stroke-linecap:butt;stroke-linejoin:miter;stroke-miterlimit:4;stroke-dasharray:none;stroke-dashoffset:0;stroke-opacity:1;color-rendering:auto;image-rendering:auto;shape-rendering:auto;text-rendering:auto;enable-background:accumulate"
       d="m 578.25675,340.48186 9.22304,2.81424 2.60577,-8.53988"
       id="path4235-4-01-69-2-6-25"
       inkscape:connector-curvature="0"
       inkscape:transform-center-x="4.3920474"
       inkscape:transform-center-y="-6.2422554" />
    <path
       style="color:#000000;clip-rule:nonzero;display:inline;overflow:visible;visibility:visible;opacity:1;isolation:auto;mix-blend-mode:normal;color-interpolation:sRGB;color-interpolation-filters:linearRGB;solid-color:#000000;solid-opacity:1;fill:none;fill-opacity:1;fill-rule:evenodd;stroke:#000000;stroke-width:4;stroke-linecap:butt;stroke-linejoin:miter;stroke-miterlimit:4;stroke-dasharray:none;stroke-dashoffset:0;stroke-opacity:1;color-rendering:auto;image-rendering:auto;shape-rendering:auto;text-rendering:auto;enable-background:accumulate"
       d="m 538.47226,277.65331 -5.32837,-8.03697 -7.44165,4.9337"
       id="path4235-4-01-69-2-6-57"
       inkscape:connector-curvature="0"
       inkscape:transform-center-x="1.4747324"
       inkscape:transform-center-y="6.2296" />
  </g>
</svg>
