<?xml version="1.0" encoding="UTF-8" standalone="no"?>
<!-- Created with Inkscape (http://www.inkscape.org/) -->

<svg
   xmlns:dc="http://purl.org/dc/elements/1.1/"
   xmlns:cc="http://creativecommons.org/ns#"
   xmlns:rdf="http://www.w3.org/1999/02/22-rdf-syntax-ns#"
   xmlns:svg="http://www.w3.org/2000/svg"
   xmlns="http://www.w3.org/2000/svg"
   xmlns:sodipodi="http://sodipodi.sourceforge.net/DTD/sodipodi-0.dtd"
   xmlns:inkscape="http://www.inkscape.org/namespaces/inkscape"
   width="543.45306"
   height="800"
   viewBox="0 0 509.48724 749.99997"
   id="svg2"
   version="1.1"
   inkscape:version="0.92.3 (2405546, 2018-03-11)"
   sodipodi:docname="r.svg"
   inkscape:export-filename="C:\Users\zvi\Documents\Mazesplace\Mazes\Alphabet Maze Set\R\R (l).png"
   inkscape:export-xdpi="500"
   inkscape:export-ydpi="500">
  <defs
     id="defs4">
    <inkscape:path-effect
       effect="spiro"
       id="path-effect4574"
       is_visible="true" />
    <clipPath
       clipPathUnits="userSpaceOnUse"
       id="clipPath4150">
      <rect
         style="opacity:1;fill:#000000;fill-opacity:1;fill-rule:evenodd;stroke:none;stroke-width:4;stroke-linecap:round;stroke-linejoin:round;stroke-miterlimit:4;stroke-dasharray:none;stroke-dashoffset:2.4000001;stroke-opacity:1"
         id="rect4152"
         width="694.28571"
         height="822.85712"
         x="-62.857143"
         y="75.21933"
         transform="rotate(90)" />
    </clipPath>
    <clipPath
       clipPathUnits="userSpaceOnUse"
       id="clipPath4194">
      <rect
         style="opacity:1;fill:#000000;fill-opacity:1;fill-rule:evenodd;stroke:none;stroke-width:4;stroke-linecap:round;stroke-linejoin:round;stroke-miterlimit:4;stroke-dasharray:none;stroke-dashoffset:2.4000001;stroke-opacity:1"
         id="rect4196"
         width="652.55853"
         height="800.04083"
         x="54.548237"
         y="98.778214"
         transform="rotate(90)" />
    </clipPath>
    <clipPath
       clipPathUnits="userSpaceOnUse"
       id="clipPath8848">
      <rect
         style="opacity:1;fill:#b0c836;fill-opacity:1;fill-rule:evenodd;stroke:none;stroke-width:4;stroke-linecap:round;stroke-linejoin:round;stroke-miterlimit:4;stroke-dasharray:none;stroke-dashoffset:2.4000001;stroke-opacity:1"
         id="rect8850"
         width="256.66153"
         height="167.81715"
         x="541.52765"
         y="194.94344" />
    </clipPath>
    <clipPath
       clipPathUnits="userSpaceOnUse"
       id="clipPath899">
      <rect
         style="fill:#000000;fill-opacity:0.53266332;stroke:none;stroke-width:4.48228312;stroke-linecap:round;stroke-linejoin:miter;stroke-miterlimit:4;stroke-dasharray:none;stroke-dashoffset:0;stroke-opacity:1;paint-order:normal"
         id="rect901"
         width="509.48724"
         height="750"
         x="124.96032"
         y="140.77576" />
    </clipPath>
    <clipPath
       clipPathUnits="userSpaceOnUse"
       id="clipPath928">
      <rect
         style="opacity:0.60500004;fill:#000000;fill-opacity:1;stroke:none;stroke-width:4.48228312;stroke-linecap:round;stroke-linejoin:miter;stroke-miterlimit:4;stroke-dasharray:none;stroke-dashoffset:0;stroke-opacity:1;paint-order:normal"
         id="rect930"
         width="509.48724"
         height="750"
         x="124.96032"
         y="140.77576" />
    </clipPath>
  </defs>
  <sodipodi:namedview
     id="base"
     pagecolor="#ffffff"
     bordercolor="#666666"
     borderopacity="1.0"
     inkscape:pageopacity="0.0"
     inkscape:pageshadow="2"
     inkscape:zoom="0.70737053"
     inkscape:cx="90.649627"
     inkscape:cy="308.56456"
     inkscape:document-units="px"
     inkscape:current-layer="layer2"
     showgrid="false"
     units="px"
     inkscape:window-width="1680"
     inkscape:window-height="987"
     inkscape:window-x="3832"
     inkscape:window-y="288"
     inkscape:window-maximized="1"
     fit-margin-top="0"
     fit-margin-left="15"
     fit-margin-right="15"
     fit-margin-bottom="0"
     inkscape:snap-bbox="true"
     inkscape:snap-page="true" />
  <metadata
     id="metadata7">
    <rdf:RDF>
      <cc:Work
         rdf:about="">
        <dc:format>image/svg+xml</dc:format>
        <dc:type
           rdf:resource="http://purl.org/dc/dcmitype/StillImage" />
        <dc:title></dc:title>
      </cc:Work>
    </rdf:RDF>
  </metadata>
  <g
     inkscape:groupmode="layer"
     id="layer2"
     inkscape:label="Layer 2"
     style="display:inline"
     transform="translate(-124.96032,-140.77576)">
    <g
       id="g926"
       clip-path="url(#clipPath928)">
      <path
         inkscape:connector-curvature="0"
         id="path8852"
         transform="matrix(0.93749997,0,0,0.93749997,124.96032,140.77576)"
         d="M 17.132812,60 V 797.86719 H 210.42773 V 551.16992 h 62.42774 l 63.92969,125.60547 v 121.0918 H 526.32031 V 676.77539 L 434.56055,506.04297 526.32031,426.31836 V 182.63086 L 398.45898,60 h -35.64062 -2.27344 c -0.37279,5.487603 8.31806,9.859827 13.09375,13.574219 11.24014,8.74224 30.82552,6.719342 38.35938,18.802734 2.25493,3.61664 -1.6789,8.867737 0,12.785157 2.86398,6.68266 10.22637,10.36607 15.79297,15.04297 16.46984,13.8375 37.95663,21.97412 51.89648,38.35742 6.03093,7.08807 15.67688,15.97372 12.78711,24.82031 -3.13326,9.592 -16.99236,13.16411 -27.07617,13.53907 -10.56113,0.39268 -20.35671,-6.4584 -29.33399,-12.03516 -16.74831,-10.40418 -28.60687,-27.27219 -44.375,-39.10938 -12.34815,-9.26979 -23.68899,-24.03445 -39.10937,-24.82031 -10.0777,-0.51358 -21.70209,4.9984 -27.07617,13.53906 -8.27932,13.15777 -7.93706,32.84505 -0.75196,46.63086 5.59202,10.72924 18.27801,17.65977 30.08399,20.30664 6.43534,1.44279 13.70953,-6.06219 19.55468,-3.00781 11.6268,6.07556 8.24083,25.86028 17.29883,35.34961 6.12027,6.4117 16.60363,18.57362 23.31641,12.78516 9.31118,-8.02908 -6.01242,-24.33766 -12.78711,-34.59766 -7.03586,-10.65553 -16.80398,-19.88125 -27.82813,-26.32422 -9.51648,-5.5618 -25.04678,-0.90543 -31.58789,-9.77734 -4.4633,-6.05373 -5.15978,-17.09028 0,-22.5625 5.85787,-6.21258 17.68946,-4.786 25.57227,-1.50391 10.49454,4.36952 14.63733,17.42243 22.5625,25.57227 7.17246,7.37578 13.63074,15.95613 22.56445,21.05859 13.84587,7.90802 30.09767,11.25732 45.87891,13.53711 11.16591,1.61305 23.92582,-5.37359 33.8457,0 6.05313,3.27897 10.68648,10.44039 11.28125,17.29883 0.98977,11.41314 -13.82467,20.13747 -13.53711,31.58984 0.3293,13.11435 15.92312,22.30347 17.29883,35.34961 1.08401,10.27993 -7.17585,19.75479 -7.52148,30.08594 -0.42588,12.7297 11.39737,25.73914 6.76953,37.60547 -3.31582,8.50219 -20.27278,7.55182 -21.8125,16.54687 -2.22906,13.02219 21.75682,19.8823 21.8125,33.09375 0.0214,5.0764 -3.73332,10.51414 -8.27344,12.78516 -6.51783,3.2603 -15.62164,2.34122 -21.8125,-1.50391 -8.87611,-5.51294 -12.34141,-17.21458 -15.79492,-27.07617 -6.28122,-17.93617 -1.79729,-38.54345 -8.27344,-56.41016 -6.21269,-17.13987 -10.38358,-47.75341 -28.58008,-46.63085 -6.0471,0.37305 -7.58345,10.48858 -7.52148,16.54687 0.2075,20.29539 28.22879,34.69741 26.32422,54.9043 -0.55523,5.89079 -5.42693,11.29508 -10.5293,14.29101 -15.47262,9.08498 -39.9084,-5.05863 -53.40039,6.76953 -7.40764,6.49412 -8.5793,18.7858 -7.52148,28.58008 1.3605,12.59675 4.88586,31.30646 17.29882,33.84571 5.75509,1.17729 12.67821,-5.47237 13.53907,-11.28321 1.67117,-11.28061 -21.9514,-17.61908 -18.80469,-28.58008 3.65278,-12.72377 23.1093,-19.07422 36.10351,-16.54687 18.27912,3.55525 23.62824,29.22149 38.35743,40.61523 4.52633,3.50134 12.95709,2.94464 15.04297,8.27344 2.02286,5.16784 -1.8604,11.41281 -5.26563,15.79492 -5.12057,6.58955 -16.38906,6.62063 -21.05859,13.53711 -2.99889,4.44195 -0.44045,11.09143 -3.00977,15.79492 -6.46114,11.82803 -29.15474,14.3516 -29.33203,27.82813 -0.12594,9.57212 14.56646,12.64755 20.30664,20.30859 9.08225,12.12149 17.71225,25.28033 21.8125,39.86133 2.85367,10.14804 -2.81738,21.97461 1.50391,31.58984 6.17739,13.74523 22.71947,19.99036 32.34179,31.5879 9.23502,11.13074 20.23122,22.15826 24.06641,36.10351 2.59615,9.43995 4.35365,21.4872 -1.50391,29.33203 -5.4082,7.24304 -22.36377,0.57461 -25.57226,9.02539 -6.61208,17.41547 24.96183,30.38063 27.07617,48.88867 0.82864,7.25352 -0.68272,16.07257 -6.01563,21.0586 -5.24411,4.90302 -13.91402,5.19744 -21.06054,4.51367 -10.84686,-1.03782 -19.19556,-13.20371 -30.08399,-12.78711 -7.61939,0.29152 -12.68832,10.84782 -20.30664,10.5293 -7.99209,-0.33415 -17.53587,-5.282 -20.30859,-12.78516 -2.63876,-7.14062 1.487,-16.33104 6.76953,-21.8125 6.82267,-7.07959 19.63334,-4.34455 27.82813,-9.77734 6.21277,-4.11881 15.42699,-9.1027 15.04296,-16.54688 -0.32929,-6.3833 -7.90003,-12.68286 -14.29101,-12.78515 -10.14228,-0.16228 -15.79072,12.75135 -23.31445,19.55468 -10.12564,9.1561 -26.95944,15.13672 -29.33399,28.58008 -1.30679,7.39833 11.23034,12.93759 9.77734,20.3086 -0.65233,3.30924 -4.2715,5.86526 -7.52148,6.76757 -7.62764,2.11772 -15.4088,-4.91942 -23.31445,-4.51171 -8.63339,0.44522 -16.78141,10.70105 -24.82032,7.52148 -6.99789,-2.76784 -11.89183,-12.0541 -11.28125,-19.55469 0.57821,-7.10293 9.49889,-10.675 13.53711,-16.54687 5.72678,-8.32718 17.71966,-16.5788 15.04297,-26.32422 -2.28961,-8.33614 -18.7656,-5.02165 -22.56445,-12.78711 -4.56506,-9.33172 -4.55131,-25.76183 4.51367,-30.83594 9.99648,-5.59552 22.17688,7.00471 31.58789,13.53711 6.26386,4.34789 8.22933,17.49661 15.79492,16.54688 4.56654,-0.57325 7.58171,-7.50307 6.76954,-12.03321 -1.9147,-10.67988 -15.64616,-15.26739 -24.82032,-21.06054 -13.94734,-8.80724 -33.63805,-8.47024 -45.12695,-20.30664 -7.75028,-7.98473 -10.25035,-20.00289 -12.78516,-30.8379 -2.57566,-11.0096 2.53659,-23.60368 -2.25781,-33.84374 -6.31606,-13.4901 -25.3668,-17.67539 -32.33984,-30.8379 -2.85561,-5.39029 -2.05029,-12.02672 -3.00977,-18.05078 -3.15103,-19.78369 1.06371,-42.11093 -9.02539,-59.41797 C 269.12703,471.815 245.13847,469.48545 236,454.14648 c -4.55657,-7.64829 0.95497,-19.29752 -4.51172,-26.32421 -4.54856,-5.84656 -13.79391,-12.5547 -20.30664,-9.02539 -12.50206,6.77497 -12.15639,28.95922 -6.76953,42.11914 6.24963,15.26762 28.50923,17.36172 39.86133,29.33203 7.22515,7.61863 18.76811,15.92771 17.29883,26.32422 -1.29379,9.15466 -12.12931,15.65495 -21.0586,18.05273 -10.59022,2.8438 -22.12511,-9.99997 -32.34179,-6.01758 -11.67945,4.55258 -20.45644,17.7268 -22.5625,30.08399 -1.67853,9.84858 9.60937,18.60848 9.02539,28.58203 -0.32141,5.48902 -6.06981,9.58727 -6.76954,15.04101 -2.10331,16.39329 10.33881,32.49055 8.27344,48.88867 -0.92566,7.34949 -8.90089,12.90015 -9.02539,20.30665 -0.19093,11.35795 11.60213,20.29206 12.78516,31.58984 1.19335,11.39642 -2.88201,22.82378 -6.01563,33.8457 -1.98292,6.97455 -8.07153,12.96597 -8.02929,20.2168 0.032,5.50206 8.85684,10.41172 6.26953,15.26758 -6.87537,12.90367 -34.31147,20.57987 -42.97071,8.79883 -5.06556,-6.8918 18.07202,-16.03898 12.41602,-22.45508 -18.38929,-20.86068 -50.62802,38.06474 -77.496094,30.89258 -10.535019,-2.81222 -19.184934,-14.79848 -20.306641,-25.64454 -0.692043,-6.69148 3.094713,-14.87556 9.025391,-18.05078 13.109291,-7.0186 29.684274,8.43272 44.265624,5.51758 8.43066,-1.68546 18.23662,-5.26321 22.40039,-12.78516 7.81834,-14.12396 3.08932,-33.06514 -1.98437,-48.39062 -4.19611,-12.67465 -18.37974,-20.41339 -22.56446,-33.0918 -4.01067,-12.15112 3.25527,-26.48145 -1.5039,-38.35937 -2.11403,-5.27616 -8.50282,-7.8266 -11.28125,-12.78516 -3.333753,-5.94964 -2.646829,-13.62788 -6.017581,-19.55664 -3.50912,-6.17212 -7.604924,-18.18698 -14.289063,-15.79297 -9.924288,3.55453 -4.69773,21.54172 -1.503906,31.58789 3.084469,9.7022 16.407577,14.17343 18.802734,24.06836 2.521806,10.41816 -8.285823,21.11358 -6.017578,31.58985 3.311819,15.29622 31.242884,23.27163 27.076174,38.35742 -6.42465,23.26086 -54.581698,8.17326 -66.185549,29.33203 -4.023669,7.33686 5.61871,16.66166 3.759766,24.82031 -1.483019,6.50878 -4.791501,14.98268 -11.28125,16.54688 -6.107798,1.47214 -14.19767,-3.19842 -16.546875,-9.02539 -5.307083,-13.16367 12.575343,-26.42357 12.785156,-40.61524 0.177163,-11.98292 -11.64272,-22.75756 -9.777344,-34.5957 1.266304,-8.03629 12.420087,-12.25047 13.539063,-20.30859 2.246432,-16.17735 -12.89899,-30.43963 -15.042969,-46.63086 -1.350933,-10.20218 3.347181,-20.71309 1.503906,-30.8379 -1.468181,-8.06445 -9.77201,-14.36548 -9.777343,-22.5625 -0.0077,-12.01563 13.81605,-21.08748 14.291015,-33.09374 0.460694,-11.64541 -9.538563,-21.57057 -11.283203,-33.09376 -4.017301,-26.53382 0.398378,-53.70484 2.257813,-80.47656 2.202218,-31.70713 -4.836763,-66.94536 10.529296,-94.76758 7.590689,-13.74392 21.177868,-30.21982 36.853516,-29.33203 9.911616,0.56136 18.354903,11.50635 21.058594,21.0586 4.421778,15.62235 -14.663309,31.50289 -11.28125,47.38281 4.209429,19.76471 34.416768,28.07617 36.853518,48.13672 2.34208,19.28123 -23.248642,33.97756 -23.314456,53.40039 -0.03236,9.54659 9.361736,16.97254 11.281246,26.32422 2.01636,9.82349 -8.46723,24.71259 0,30.08593 3.97712,2.5239 10.54375,-1.87468 12.78516,-6.01757 6.02312,-11.13272 -5.98135,-24.96822 -5.26367,-37.60547 1.36528,-24.04091 22.07061,-46.20553 18.05078,-69.94727 -3.31985,-19.60757 -28.64376,-30.25825 -33.09375,-49.64062 -4.530272,-19.73192 17.23823,-42.01767 8.27344,-60.16992 C 105.53036,283.32157 90.530581,278.2014 78.054688,275.89453 66.583839,273.77352 54.2546,285.57314 43.457031,281.1582 35.334994,277.83724 28.579795,268.82624 27.662109,260.09961 26.477288,248.83265 40.71304,240.52273 41.953125,229.26172 44.143888,209.36776 23.533089,189.80228 29.167969,170.59766 c 3.294144,-11.22698 13.144643,-25.57857 24.820312,-24.82032 16.413046,1.06591 22.741264,24.39175 30.083985,39.10938 5.457909,10.93975 -1.04494,29.66232 9.777343,35.34961 6.106059,3.20883 16.482131,-0.59183 19.554691,-6.76758 4.69694,-9.44075 -5.58453,-20.41075 -9.77735,-30.08594 C 98.049769,170.51314 93.858307,155.78586 83.320312,146.5293 71.987427,136.57451 53.011146,139.36628 41.201172,129.98242 37.38994,126.95413 33.57614,122.7737 32.927734,117.94922 31.653404,103.47029 45.675163,79.845378 49.642578,60 Z m 60.210938,0 c -8.858395,21.431413 -20.70248,41.99459 -10.753906,46.61523 12.410251,5.76397 45.318916,-29.839258 66.371096,-20.255855 11.74615,5.347093 6.2856,26.621885 15.79297,35.349605 4.49744,4.12862 12.83943,10.18727 17.29882,6.01758 11.77285,-11.00801 -13.61706,-30.536724 -12.78515,-46.63281 0.24992,-4.835509 0.90011,-11.442624 5.26562,-13.537109 17.30039,-8.300374 35.72056,16.870764 54.9043,17.298828 15.5642,0.347306 29.56991,-12.61971 45.12695,-12.033203 16.71801,0.630282 31.07355,20.272826 47.38282,16.544922 6.2215,-1.422091 8.56377,-9.540107 13.53906,-13.53711 3.63676,-2.921675 6.04952,-4.884359 11.79687,-7.53125 3.18124,-1.465089 4.94789,-4.435072 6.3418,-8.298828 z"
         style="color:#000000;clip-rule:nonzero;display:inline;overflow:visible;visibility:visible;opacity:1;isolation:auto;mix-blend-mode:normal;color-interpolation:sRGB;color-interpolation-filters:linearRGB;solid-color:#000000;solid-opacity:1;fill:#000000;fill-opacity:1;fill-rule:evenodd;stroke:#000000;stroke-width:4.26666689;stroke-linecap:butt;stroke-linejoin:miter;stroke-miterlimit:4;stroke-dasharray:none;stroke-dashoffset:0;stroke-opacity:1;color-rendering:auto;image-rendering:auto;shape-rendering:auto;text-rendering:auto;enable-background:accumulate" />
      <path
         sodipodi:nodetypes="cccaaaaaaaaaaaaaaaaaaaaaaaaaaaaaaaaaaaaaaaaaaaaaaaaaaaaaaaaaaaaaaaaaaaaaaaaaaaaaaaaaaaaaaaaaaaaaaaaaaaaaaaaaaaaaaaaaaaaaaaaaaaaaaaaaaaaaaaaaaaaaaaaaaaaaaaaaaaaaaaaaassccsscsssssssssscc"
         inkscape:connector-curvature="0"
         id="path8858"
         d="m 118.55003,164.21326 h 22.18132 c 62.66629,4.25665 12.82241,61.27419 15.09887,87.1393 0.60788,4.52295 4.18322,8.44281 7.75625,11.28183 11.07185,8.79737 28.86182,6.1799 39.4864,15.51251 9.87937,8.67803 13.80947,22.48527 19.03808,34.55059 3.93077,9.07049 13.56987,19.35387 9.16648,28.20457 -2.88052,5.78977 -12.60854,9.3543 -18.33297,6.34602 -10.14589,-5.33183 -4.04969,-22.88434 -9.16648,-33.14036 -6.8838,-13.79778 -12.81733,-35.66665 -28.20456,-36.66593 -10.94594,-0.71086 -20.18051,12.74347 -23.26877,23.26876 -5.2827,18.00433 14.04078,36.34831 11.98694,54.9989 -1.16258,10.5572 -14.50794,18.34691 -13.39717,28.90968 0.86033,8.18122 7.19299,16.6298 14.8074,19.7432 10.12272,4.139 21.68133,-6.92425 32.43525,-4.9358 11.69615,2.16268 25.75807,6.96313 31.02502,17.62785 8.40449,17.01774 -12.00339,37.91046 -7.75626,56.40913 4.17188,18.17096 27.91267,28.15543 31.02503,46.53753 3.76859,22.25788 -15.64279,43.03727 -16.92274,65.57562 -0.67282,11.84742 10.58246,24.81878 4.9358,35.2557 -2.10133,3.88396 -8.25839,8.00707 -11.98694,5.64092 -7.93802,-5.03751 1.89033,-18.99505 0,-28.20457 -1.79954,-8.7672 -10.60706,-15.72906 -10.57672,-24.67899 0.0617,-18.2089 24.05424,-31.98697 21.85854,-50.06311 -2.28445,-18.80676 -30.60425,-26.59788 -34.55059,-45.1273 -3.17068,-14.88743 14.72213,-29.77623 10.57671,-44.42219 -2.53471,-8.95523 -10.45105,-19.21693 -19.74319,-19.7432 -14.69592,-0.83231 -27.43433,14.61453 -34.5506,27.49946 -14.40568,26.08333 -7.80701,59.11895 -9.87159,88.84438 -1.74322,25.09849 -5.88157,50.57175 -2.11535,75.44721 1.6356,10.80299 11.00862,20.10745 10.57672,31.02502 -0.44528,11.25587 -13.40436,19.76035 -13.39717,31.02502 0.005,7.6847 7.79006,13.59299 9.16648,21.15342 1.72807,9.492 -2.67673,19.34515 -1.41023,28.90968 2.00998,15.17929 16.20831,28.55082 14.10228,43.71708 -1.04904,7.55449 -11.50489,11.50406 -12.69205,19.03808 -1.74879,11.09827 9.33257,21.20127 9.16648,32.43525 -0.1967,13.30469 -16.96233,25.73522 -11.98694,38.07616 2.20238,5.46279 9.78645,9.8415 15.51251,8.46137 6.08414,-1.46644 9.18639,-9.41053 10.57672,-15.51251 1.74276,-7.64875 -7.29776,-16.39046 -3.52557,-23.26877 10.87861,-19.83636 56.02692,-5.6924 62.05004,-27.49945 3.90628,-14.14293 -22.27928,-21.62061 -25.38411,-35.96082 -2.12647,-9.82151 8.0051,-19.84778 5.64091,-29.61479 -2.24546,-9.2765 -14.73616,-13.46785 -17.62785,-22.56365 -2.99421,-9.41829 -7.89379,-26.28244 1.41023,-29.6148 6.26638,-2.24439 10.10737,9.02104 13.39717,14.8074 3.16008,5.5582 2.51552,12.75519 5.64091,18.33297 2.60478,4.64865 8.59481,7.04054 10.57671,11.98694 4.46173,11.13556 -2.34977,24.56915 1.41023,35.96082 3.92317,11.88602 17.21957,19.14253 21.15342,31.02502 4.75659,14.36764 9.19034,32.12426 1.86065,45.36548 -3.90354,7.05182 -13.0964,10.40681 -21.00014,11.98694 -13.67002,2.73294 -29.21036,-11.75391 -41.50032,-5.17398 -5.56001,2.97678 -9.11016,10.64947 -8.46137,16.92274 1.0516,10.16818 9.1615,21.40582 19.03808,24.04227 25.18882,6.7239 55.41273,-48.51842 72.65269,-28.96155 5.3025,6.01511 -16.38923,14.59094 -11.64026,21.05201 8.11803,11.04473 33.84017,3.84806 40.28583,-8.24913 2.42561,-4.55237 -5.84906,-9.15634 -5.8791,-14.31452 -0.0396,-6.79765 5.66851,-12.41454 7.5275,-18.95318 2.93777,-10.33305 6.75969,-21.046 5.64092,-31.73014 -1.10908,-10.59167 -12.16595,-18.96671 -11.98695,-29.61479 0.11673,-6.94359 7.59355,-12.14795 8.46137,-19.03808 1.93627,-15.37324 -9.7281,-30.46371 -7.75625,-45.83242 0.656,-5.11288 6.04471,-8.95631 6.34603,-14.10228 0.54749,-9.35019 -10.03499,-17.56128 -8.46137,-26.79434 1.97444,-11.58485 10.20394,-23.93654 21.15342,-28.20457 9.57814,-3.73349 20.39158,8.30697 30.31991,5.64091 8.37121,-2.24792 18.53028,-8.34024 19.7432,-16.92273 1.37745,-9.74672 -9.44405,-17.53654 -16.21763,-24.679 -10.64259,-11.22217 -31.51202,-13.18605 -37.37105,-27.49945 -5.05018,-12.33742 -5.37465,-33.13485 6.34603,-39.48639 6.10568,-3.30872 14.7738,2.98022 19.03808,8.46137 5.12502,6.58752 -0.0411,17.50873 4.23068,24.679 8.56733,14.38029 31.05629,16.56386 39.48639,31.02502 9.45853,16.22535 5.50728,37.1568 8.46137,55.70401 0.89951,5.64754 0.14334,11.86934 2.82046,16.92274 6.53724,12.33985 24.3986,16.26272 30.31991,28.90968 4.49475,9.60006 -0.29934,21.40863 2.11534,31.73013 2.37638,10.15782 4.72105,21.42401 11.98694,28.90968 10.77084,11.09664 29.23122,10.78131 42.30685,19.03809 8.60077,5.43108 21.47373,9.73081 23.26876,19.74319 0.76141,4.24701 -2.06489,10.74441 -6.34602,11.28183 -7.09274,0.89037 -8.93503,-11.43636 -14.8074,-15.51251 -8.82282,-6.12413 -20.24309,-17.93786 -29.61479,-12.69206 -8.49842,4.75698 -8.51043,20.1612 -4.23069,28.90968 3.56142,7.28012 19.00691,4.17181 21.15342,11.98694 2.50939,9.13634 -8.73342,16.87227 -14.10228,24.679 -3.78583,5.50488 -12.14998,8.8535 -12.69205,15.51251 -0.57242,7.03179 4.01618,15.73811 10.57671,18.33296 7.53647,2.98085 15.17497,-6.63374 23.26877,-7.05114 7.41155,-0.38222 14.70762,6.21604 21.85853,4.23069 3.04686,-0.84592 6.43958,-3.24362 7.05114,-6.34603 1.36219,-6.91032 -10.3916,-12.10215 -9.16648,-19.03808 2.22614,-12.60315 18.00667,-18.2105 27.49945,-26.79434 7.05351,-6.37813 12.35015,-18.4851 21.85854,-18.33297 5.99155,0.0959 13.08846,6.00258 13.39717,11.98694 0.36002,6.97891 -8.2778,11.65114 -14.10228,15.51252 -7.68261,5.09324 -19.69297,2.52935 -26.08923,9.16648 -4.95237,5.13887 -8.81986,13.75398 -6.34602,20.44831 2.59944,7.03421 11.54548,11.67368 19.03808,11.98694 7.14216,0.29861 11.8949,-9.5983 19.03808,-9.8716 10.2079,-0.39055 18.03564,11.01399 28.20457,11.98694 6.69986,0.64104 14.82683,0.3659 19.74319,-4.23068 4.9996,-4.6744 6.41776,-12.94302 5.64091,-19.7432 -1.98219,-17.35128 -31.58293,-29.50543 -25.38411,-45.83242 3.00796,-7.92262 18.90369,-1.67102 23.97388,-8.46137 5.49146,-7.35454 3.84412,-18.6495 1.41023,-27.49945 -3.59549,-13.07367 -13.90582,-23.41042 -22.56365,-33.84548 -9.02093,-10.87269 -24.52859,-16.72863 -30.3199,-29.61478 -4.05121,-9.01428 1.26508,-20.10102 -1.41024,-29.6148 -3.84398,-13.66969 -11.93369,-26.00716 -20.4483,-37.37105 -5.38142,-7.18223 -19.15615,-10.06422 -19.03809,-19.03808 0.16621,-12.63425 21.44213,-15.00045 27.49945,-26.08922 2.40874,-4.40953 0.009,-10.64307 2.82046,-14.8074 4.37769,-6.4842 14.94267,-6.51435 19.7432,-12.69205 3.1924,-4.10823 6.83224,-9.96255 4.9358,-14.8074 -1.95551,-4.99575 -9.85885,-4.47376 -14.10229,-7.75626 -13.80861,-10.68163 -18.82414,-34.74311 -35.96082,-38.07616 -12.18208,-2.36939 -30.421,3.58397 -33.84548,15.51251 -2.95004,10.27593 19.19459,16.21876 17.62786,26.79434 -0.80705,5.44766 -7.29667,11.68042 -12.69206,10.57671 -11.63715,-2.38055 -14.94215,-19.92067 -16.21762,-31.73013 -0.9917,-9.18213 0.10648,-20.7061 7.05114,-26.79434 12.64874,-11.08889 35.55752,2.17114 50.0631,-6.34603 4.78347,-2.80869 9.35107,-7.87455 9.8716,-13.39717 1.78554,-18.94396 -24.48446,-32.4464 -24.67899,-51.47333 -0.0581,-5.67965 1.38197,-15.16277 7.05114,-15.51251 17.05921,-1.0524 20.96993,27.64845 26.79433,43.71708 6.07139,16.75004 1.86762,36.0684 7.75626,52.88356 3.23767,9.24524 6.48605,20.21573 14.8074,25.38411 5.80393,3.60481 14.33784,4.46675 20.44831,1.41022 4.25636,-2.12908 7.77632,-7.22782 7.75625,-11.98694 -0.0522,-12.38574 -22.53805,-18.81672 -20.44831,-31.02502 1.44349,-8.43286 17.33973,-7.54172 20.44831,-15.51251 4.3386,-11.12468 -6.74529,-23.32161 -6.34603,-35.2557 0.32403,-9.68545 8.0674,-18.56714 7.05114,-28.20457 -1.28973,-12.23076 -15.9089,-20.84566 -16.21762,-33.14036 -0.26959,-10.7366 13.61996,-18.91498 12.69205,-29.6148 -0.5576,-6.42979 -4.9019,-13.14359 -10.57671,-16.21762 -9.29989,-5.03774 -21.26209,1.51223 -31.73013,0 -14.79491,-2.1373 -30.03146,-5.27829 -43.01196,-12.69206 -8.37536,-4.78356 -14.42925,-12.82839 -21.15343,-19.74319 -7.42985,-7.64047 -11.31479,-19.87746 -21.15342,-23.97388 -7.39013,-3.07696 -18.48213,-4.41406 -23.97388,1.41023 -4.8373,5.13021 -4.18435,15.47805 0,21.15342 6.13229,8.31742 20.69309,3.95229 29.61479,9.16648 10.33514,6.04027 19.4931,14.68944 26.08922,24.679 6.35128,9.61875 20.71617,24.90799 11.98694,32.43525 -6.29323,5.42668 -16.12078,-5.97597 -21.85853,-11.98694 -8.49187,-8.89625 -5.31751,-27.44453 -16.21763,-33.14037 -5.47983,-2.86348 -12.29985,4.17307 -18.33297,2.82046 -11.06811,-2.48144 -22.96204,-8.97942 -28.20456,-19.03808 -6.73603,-12.9242 -7.05675,-31.38167 0.70511,-43.71708 5.0382,-8.00687 15.93627,-13.17353 25.38411,-12.69205 14.45661,0.73674 25.08955,14.57834 36.66594,23.26877 14.78262,11.09736 25.90019,26.91201 41.60173,36.66593 8.4162,5.22821 17.59839,11.64998 27.49945,11.28183 9.45357,-0.35151 22.44668,-3.69956 25.38411,-12.69206 2.70916,-8.29368 -6.33294,-16.62369 -11.98694,-23.26876 -13.06861,-15.35934 -33.2124,-22.98816 -48.65288,-35.96082 -5.21868,-4.38459 -12.1224,-7.8373 -14.80739,-14.10229 -1.57396,-3.67258 2.114,-8.59634 0,-11.98694 -7.06299,-11.32818 -25.42319,-9.432 -35.96082,-17.62785 -4.8699,-3.78766 -14.09181,-8.30298 -11.98694,-14.10228 9.74395,-26.8464 49.59853,-31.43529 88.57217,-31.43529 h 102.17846 l -3.93854,-18.75 H 531.21142 c -103.73919,0 -78.9365,51.6345 -95.67392,59.34277 -5.38814,2.48146 -7.64934,4.32107 -11.0588,7.06014 -4.66433,3.74719 -6.85939,11.35885 -12.69205,12.69206 -15.28994,3.49491 -28.74905,-14.92162 -44.42219,-15.51251 -14.58473,-0.54985 -27.7154,11.60742 -42.30685,11.28182 -17.98476,-0.40131 -35.25422,-23.99922 -51.47333,-16.21762 -4.09267,1.96358 -4.7015,8.15876 -4.9358,12.69205 -0.77991,15.09008 23.02398,33.39707 11.98694,43.71708 -4.18068,3.90908 -12.00127,-1.77034 -16.21762,-5.64092 -8.91317,-8.18224 -3.79539,-28.12746 -14.8074,-33.14036 -19.73643,-8.98444 -50.58745,24.39419 -62.22206,18.99047 -20.99878,-9.75294 61.60474,-95.26498 -17.47763,-95.26498 h -49.08256 z"
         style="color:#000000;clip-rule:nonzero;display:inline;overflow:visible;visibility:visible;opacity:1;isolation:auto;mix-blend-mode:normal;color-interpolation:sRGB;color-interpolation-filters:linearRGB;solid-color:#000000;solid-opacity:1;fill:none;fill-opacity:1;fill-rule:evenodd;stroke:#000000;stroke-width:4;stroke-linecap:butt;stroke-linejoin:miter;stroke-miterlimit:4;stroke-dasharray:none;stroke-dashoffset:0;stroke-opacity:1;color-rendering:auto;image-rendering:auto;shape-rendering:auto;text-rendering:auto;enable-background:accumulate" />
      <path
         sodipodi:nodetypes="aaaaaaaaaaaaaaaaaaaaaaaa"
         inkscape:connector-curvature="0"
         id="path8860"
         d="m 337.04455,292.9543 c -0.32982,-4.82848 2.87992,-10.2377 7.05114,-12.69206 16.81351,-9.89313 43.08698,11.92695 58.52447,0 4.42102,-3.41567 5.86203,-10.87431 4.23069,-16.21762 -1.55597,-5.09645 -6.73768,-9.66015 -11.98694,-10.57671 -13.19953,-2.30474 -24.19397,17.23721 -37.37105,14.80739 -3.76271,-0.69383 -7.75118,-3.9966 -8.46137,-7.75625 -2.38037,-12.60127 24.02612,-23.87351 16.92274,-34.55059 -2.21704,-3.33244 -8.26333,-0.76294 -11.98694,0.70511 -11.64648,4.59169 -16.39353,24.23839 -28.90968,23.97388 -9.8161,-0.20745 -12.99687,-23.97046 -21.85854,-19.7432 -7.86055,3.7497 5.09334,18.19726 1.41023,26.08923 -5.46691,11.7142 -18.09793,23.26877 -31.02502,23.26877 -18.80304,0 -27.28917,-27.89944 -45.1273,-33.84548 -3.79061,-1.26354 -9.58758,-3.19503 -11.98695,0 -4.55598,6.0668 2.15946,15.53115 6.34603,21.85853 6.36037,9.61275 16.03471,17.7246 26.79434,21.85854 17.79319,6.83628 39.49701,-4.45729 57.11424,2.82046 11.99703,4.95602 17.38015,20.12594 28.90968,26.08922 12.4089,6.41811 26.93568,9.68146 40.89662,9.16648 8.09905,-0.29875 18.28647,-0.65892 23.26877,-7.05114 3.03773,-3.89737 4.04572,-11.16629 0.70511,-14.80739 -12.40312,-13.51878 -38.75,6.40334 -54.9989,-2.11535 -4.16331,-2.18267 -8.14102,-6.59199 -8.46137,-11.28182 z"
         style="color:#000000;clip-rule:nonzero;display:inline;overflow:visible;visibility:visible;opacity:1;isolation:auto;mix-blend-mode:normal;color-interpolation:sRGB;color-interpolation-filters:linearRGB;solid-color:#000000;solid-opacity:1;fill:#000000;fill-opacity:1;fill-rule:evenodd;stroke:#000000;stroke-width:4;stroke-linecap:butt;stroke-linejoin:miter;stroke-miterlimit:4;stroke-dasharray:none;stroke-dashoffset:0;stroke-opacity:1;color-rendering:auto;image-rendering:auto;shape-rendering:auto;text-rendering:auto;enable-background:accumulate" />
      <path
         sodipodi:nodetypes="aaaaaaaaa"
         inkscape:connector-curvature="0"
         id="path8862"
         d="m 467.49066,236.54516 c -5.41659,-1.59239 -11.57199,1.09616 -16.92274,-0.70511 -6.24111,-2.101 -16.69185,-4.71366 -16.21762,-11.28182 0.34063,-4.71777 7.96767,-6.11458 12.69205,-6.34603 11.81504,-0.57881 22.1785,8.24598 33.14037,12.69205 4.97625,2.01834 10.90034,2.66205 14.80739,6.34603 4.20622,3.96607 11.44832,11.06384 7.75626,15.51251 -3.27831,3.95013 -10.08786,-2.21156 -14.8074,-4.23068 -7.26406,-3.10772 -12.86817,-9.7585 -20.44831,-11.98695 z"
         style="color:#000000;clip-rule:nonzero;display:inline;overflow:visible;visibility:visible;opacity:1;isolation:auto;mix-blend-mode:normal;color-interpolation:sRGB;color-interpolation-filters:linearRGB;solid-color:#000000;solid-opacity:1;fill:#000000;fill-opacity:1;fill-rule:evenodd;stroke:#000000;stroke-width:4;stroke-linecap:butt;stroke-linejoin:miter;stroke-miterlimit:4;stroke-dasharray:none;stroke-dashoffset:0;stroke-opacity:1;color-rendering:auto;image-rendering:auto;shape-rendering:auto;text-rendering:auto;enable-background:accumulate" />
      <path
         sodipodi:nodetypes="aaaaa"
         inkscape:connector-curvature="0"
         id="path8864"
         d="m 549.2839,288.72361 c -2.23091,-5.19167 -11.19716,-7.52913 -16.21762,-4.9358 -2.64143,1.36444 -4.01397,5.73843 -2.82046,8.46137 2.06937,4.72118 9.24628,8.07552 14.10228,6.34603 3.46568,-1.23432 6.38825,-6.49153 4.9358,-9.8716 z"
         style="color:#000000;clip-rule:nonzero;display:inline;overflow:visible;visibility:visible;opacity:1;isolation:auto;mix-blend-mode:normal;color-interpolation:sRGB;color-interpolation-filters:linearRGB;solid-color:#000000;solid-opacity:1;fill:#000000;fill-opacity:1;fill-rule:evenodd;stroke:#000000;stroke-width:4;stroke-linecap:butt;stroke-linejoin:miter;stroke-miterlimit:4;stroke-dasharray:none;stroke-dashoffset:0;stroke-opacity:1;color-rendering:auto;image-rendering:auto;shape-rendering:auto;text-rendering:auto;enable-background:accumulate" />
      <path
         sodipodi:nodetypes="aaaaaaaaaaaaaaaaaaaa"
         inkscape:connector-curvature="0"
         id="path8866"
         d="m 256.66154,387.43959 c 2.80021,-9.41344 10.53545,-17.67843 10.57671,-27.49945 0.0337,-8.03259 -7.02814,-14.65988 -8.46137,-22.56365 -1.7194,-9.48193 5.40253,-20.92996 0,-28.90968 -2.12879,-3.1443 -7.51986,-6.48326 -10.57671,-4.23069 -9.49093,6.9938 3.93889,23.51943 2.82046,35.25571 -1.08732,11.40988 0.93093,27.71729 -9.16649,33.14036 -10.01855,5.38072 -23.25876,-3.8599 -32.43525,-10.57671 -10.73718,-7.85917 -11.16793,-26.90142 -23.26876,-32.43525 -2.36092,-1.07967 -6.27782,-1.42886 -7.75626,0.70512 -5.55283,8.01493 9.22768,18.56569 7.75626,28.20456 -0.59032,3.86702 -6.84831,5.99217 -6.34603,9.8716 0.98256,7.58894 9.92404,12.41806 16.92274,15.51251 11.87174,5.24905 28.37344,-4.23121 38.78128,3.52557 8.11895,6.05091 9.9885,18.16175 11.28182,28.20456 1.45219,11.2765 -8.46967,23.29563 -4.23068,33.84548 1.80655,4.49607 6.49097,9.89172 11.28182,9.16649 6.70317,-1.01472 10.48384,-10.19033 11.28183,-16.92274 1.44417,-12.18406 -11.82808,-22.3117 -12.69206,-34.55059 -0.47394,-6.71376 2.31168,-13.29211 4.23069,-19.7432 z"
         style="color:#000000;clip-rule:nonzero;display:inline;overflow:visible;visibility:visible;opacity:1;isolation:auto;mix-blend-mode:normal;color-interpolation:sRGB;color-interpolation-filters:linearRGB;solid-color:#000000;solid-opacity:1;fill:#000000;fill-opacity:1;fill-rule:evenodd;stroke:#000000;stroke-width:4;stroke-linecap:butt;stroke-linejoin:miter;stroke-miterlimit:4;stroke-dasharray:none;stroke-dashoffset:0;stroke-opacity:1;color-rendering:auto;image-rendering:auto;shape-rendering:auto;text-rendering:auto;enable-background:accumulate" />
      <path
         inkscape:connector-curvature="0"
         id="path8868"
         transform="matrix(0.93749997,0,0,0.93749997,124.96032,140.77576)"
         d="m 168.15625,182.32227 c -0.89618,0.0683 -1.6373,0.38482 -2.10352,1.06054 -25.47029,36.91631 26.54498,30.15414 31.58985,48.88867 2.74102,10.17904 -3.68112,21.27355 -1.50391,31.5879 1.04205,4.9366 6.42899,8.50517 6.76953,13.53906 0.78664,11.62793 -11.19974,21.43953 -11.2832,33.09375 -0.0755,10.54434 8.52832,19.6136 9.77734,30.08398 1.16159,9.73743 -7.03599,20.77145 -2.25586,29.33399 4.5365,8.12609 16.05841,9.64797 24.82032,12.78515 19.07351,6.82924 41.51101,3.31198 59.41797,12.78711 19.59229,10.3669 26.20179,49.08444 48.13476,45.87891 4.00004,-0.58461 6.3539,-6.50078 6.01758,-10.5293 -1.77867,-21.30519 -50.35096,-30.60668 -40.61523,-49.64062 7.54885,-14.75849 37.1856,13.94722 49.64062,3.00781 5.47562,-4.8093 2.01648,-14.54082 1.50391,-21.81055 -0.84731,-12.01716 -8.90505,-23.38232 -7.52149,-35.34961 1.08194,-9.35839 11.6779,-16.15832 12.03516,-25.57226 0.4273,-11.25979 -12.38805,-20.32749 -12.03516,-31.58985 0.28463,-9.08346 11.24503,-15.73247 11.2832,-24.82031 0.0208,-4.93831 -2.11749,-10.5078 -6.01757,-13.53711 -10.64407,-8.26754 -26.48112,-5.16767 -39.86328,-6.76953 -28.44783,-3.40523 -58.99528,4.25772 -85.74024,-6.01758 -16.33854,-6.27719 -34.75509,-17.44559 -41.36719,-32.33984 0,0 -6.80015,-4.3664 -10.68359,-4.07031 z m 42.27148,60.47851 h 122.59766 v 121.0918 H 210.42773 Z"
         style="color:#000000;clip-rule:nonzero;display:inline;overflow:visible;visibility:visible;opacity:1;isolation:auto;mix-blend-mode:normal;color-interpolation:sRGB;color-interpolation-filters:linearRGB;solid-color:#000000;solid-opacity:1;fill:#000000;fill-opacity:1;fill-rule:evenodd;stroke:#000000;stroke-width:4.26666689;stroke-linecap:butt;stroke-linejoin:miter;stroke-miterlimit:4;stroke-dasharray:none;stroke-dashoffset:0;stroke-opacity:1;color-rendering:auto;image-rendering:auto;shape-rendering:auto;text-rendering:auto;enable-background:accumulate" />
      <path
         sodipodi:nodetypes="aaaaaaaaaaaaaaaaaaaaaa"
         inkscape:connector-curvature="0"
         id="path8870"
         d="m 555.62993,422.6953 c -3.75075,-7.11098 -7.24595,-16.30703 -14.8074,-19.03809 -11.31737,-4.08763 -25.83861,0.2656 -35.2557,7.75626 -8.14559,6.47925 -15.08108,17.93345 -13.39717,28.20456 1.58665,9.67783 15.36332,12.76768 20.44831,21.15343 2.31228,3.81323 7.13964,9.31191 4.23068,12.69205 -3.57919,4.15893 -10.73336,-2.99423 -16.21762,-2.82045 -6.03978,0.19139 -12.03776,6.52553 -17.62786,4.23068 -9.47255,-3.88868 -15.08625,-15.91224 -16.21762,-26.08922 -0.63239,-5.68851 3.38025,-10.95945 5.64091,-16.21763 3.03101,-7.04996 11.23198,-12.80243 10.57671,-20.44831 -0.8309,-9.69515 -16.80184,-13.5732 -17.62785,-23.26876 -0.60681,-7.1226 2.80727,-17.94494 9.8716,-19.03808 11.82544,-1.82988 13.91036,21.98667 25.38411,25.3841 10.82929,3.2066 25.76321,1.50067 33.14036,-7.05114 7.38354,-8.55921 -7.87026,-28.54788 2.11534,-33.84547 9.40077,-4.98733 20.90977,7.86154 27.49945,16.21762 11.41738,14.47785 12.16805,34.89563 16.21763,52.88356 2.13903,9.5014 5.16113,19.21503 4.23068,28.90968 -0.47581,4.95759 -0.19242,12.58426 -4.9358,14.10228 -4.6581,1.49073 -9.09402,-4.51787 -11.98694,-8.46137 -7.29848,-9.94894 -5.52523,-24.3419 -11.28182,-35.2557 z"
         style="color:#000000;clip-rule:nonzero;display:inline;overflow:visible;visibility:visible;opacity:1;isolation:auto;mix-blend-mode:normal;color-interpolation:sRGB;color-interpolation-filters:linearRGB;solid-color:#000000;solid-opacity:1;fill:#000000;fill-opacity:1;fill-rule:evenodd;stroke:#000000;stroke-width:4;stroke-linecap:butt;stroke-linejoin:miter;stroke-miterlimit:4;stroke-dasharray:none;stroke-dashoffset:0;stroke-opacity:1;color-rendering:auto;image-rendering:auto;shape-rendering:auto;text-rendering:auto;enable-background:accumulate" />
      <path
         sodipodi:nodetypes="aaaaaaaaaaaaaaaaaa"
         inkscape:connector-curvature="0"
         id="path8872"
         d="m 292.62236,395.19584 c -1.21822,-4.35383 -1.83511,-12.28942 -6.34603,-11.98694 -9.49699,0.63682 -8.461,17.38113 -9.87159,26.79434 -2.51178,16.76168 5.99567,34.11947 2.82045,50.76822 -1.89133,9.91695 -10.94492,17.55608 -12.69205,27.49945 -2.40842,13.70697 4.18852,27.70058 3.52556,41.60173 -1.12662,23.6234 -14.66085,46.23814 -12.69205,69.8063 0.7489,8.96493 9.34345,16.38969 9.16649,25.38411 -0.15969,8.1166 -9.39576,14.44871 -9.16649,22.56365 0.13955,4.93942 1.56005,12.16762 6.34603,13.39717 5.05456,1.29855 10.1781,-4.59322 12.69206,-9.16649 17.01402,-30.95097 -5.97649,-72.66734 6.34602,-105.76711 3.50987,-9.42793 17.42703,-13.95469 18.33297,-23.97388 1.06966,-11.82989 -15.51427,-19.87284 -16.21763,-31.73014 -0.68254,-11.50623 11.29431,-20.92963 11.98695,-32.43525 0.60977,-10.12921 -6.70318,-19.47321 -7.05115,-29.61479 -0.24512,-7.1442 3.14548,-14.01514 3.52557,-21.15343 0.21282,-3.99689 0.3734,-8.13243 -0.70511,-11.98694 z"
         style="color:#000000;clip-rule:nonzero;display:inline;overflow:visible;visibility:visible;opacity:1;isolation:auto;mix-blend-mode:normal;color-interpolation:sRGB;color-interpolation-filters:linearRGB;solid-color:#000000;solid-opacity:1;fill:#000000;fill-opacity:1;fill-rule:evenodd;stroke:#000000;stroke-width:4;stroke-linecap:butt;stroke-linejoin:miter;stroke-miterlimit:4;stroke-dasharray:none;stroke-dashoffset:0;stroke-opacity:1;color-rendering:auto;image-rendering:auto;shape-rendering:auto;text-rendering:auto;enable-background:accumulate" />
      <path
         sodipodi:nodetypes="aaaaa"
         inkscape:connector-curvature="0"
         id="path8874"
         d="m 328.58318,612.37099 c 1.22861,-6.87933 -7.11452,-15.43582 -14.10228,-15.51251 -6.48342,-0.0711 -13.36853,7.61854 -13.39717,14.10229 -0.0213,4.82253 5.11868,9.75999 9.8716,10.57671 6.52724,1.12161 16.46346,-2.64675 17.62785,-9.16649 z"
         style="color:#000000;clip-rule:nonzero;display:inline;overflow:visible;visibility:visible;opacity:1;isolation:auto;mix-blend-mode:normal;color-interpolation:sRGB;color-interpolation-filters:linearRGB;solid-color:#000000;solid-opacity:1;fill:#000000;fill-opacity:1;fill-rule:evenodd;stroke:#000000;stroke-width:4;stroke-linecap:butt;stroke-linejoin:miter;stroke-miterlimit:4;stroke-dasharray:none;stroke-dashoffset:0;stroke-opacity:1;color-rendering:auto;image-rendering:auto;shape-rendering:auto;text-rendering:auto;enable-background:accumulate" />
      <path
         sodipodi:nodetypes="aaaaaaaaaaaaaaa"
         inkscape:connector-curvature="0"
         id="path8876"
         d="m 186.15013,501.66808 c -3.65021,-15.32587 9.89491,-36.26995 -1.41023,-47.24265 -1.85524,-1.80069 -5.88066,-1.77948 -7.75626,0 -12.97659,12.31157 -0.26834,35.88405 -2.82045,53.58867 -0.7239,5.02187 -4.48079,9.82435 -3.52557,14.8074 2.00105,10.43875 16.09485,15.69872 18.33296,26.08922 1.05802,4.91188 0.61152,11.13757 -2.82045,14.8074 -3.81601,4.08048 -12.49715,0.0629 -16.21763,4.23068 -4.4271,4.95934 -5.6531,13.72901 -2.82045,19.7432 2.11265,4.48551 7.74856,7.37545 12.69205,7.75625 6.09294,0.46934 13.44873,-2.02367 16.92274,-7.05114 4.01069,-5.80415 -1.72386,-14.52968 0.70511,-21.15342 2.47702,-6.75477 12.90856,-9.74473 13.39717,-16.92274 0.4079,-5.99226 -6.36239,-10.20114 -9.16648,-15.51251 -5.69447,-10.7862 -12.68654,-21.27516 -15.51251,-33.14036 z"
         style="color:#000000;clip-rule:nonzero;display:inline;overflow:visible;visibility:visible;opacity:1;isolation:auto;mix-blend-mode:normal;color-interpolation:sRGB;color-interpolation-filters:linearRGB;solid-color:#000000;solid-opacity:1;fill:#000000;fill-opacity:1;fill-rule:evenodd;stroke:#000000;stroke-width:4;stroke-linecap:butt;stroke-linejoin:miter;stroke-miterlimit:4;stroke-dasharray:none;stroke-dashoffset:0;stroke-opacity:1;color-rendering:auto;image-rendering:auto;shape-rendering:auto;text-rendering:auto;enable-background:accumulate" />
      <path
         sodipodi:nodetypes="aaaaaasaaaaaaaaaaa"
         inkscape:connector-curvature="0"
         id="path8878"
         d="m 276.40474,828.84103 c 1.42337,3.55153 3.93015,8.47884 7.75625,8.46137 3.16208,-0.0144 5.47056,-4.01263 6.34603,-7.05114 6.47242,-22.46388 -9.98173,-45.80962 -11.98694,-69.10119 -1.69346,-19.67043 8.45463,-41.38825 0,-59.22958 -5.72204,-12.0749 -21.68256,-15.83092 -31.02502,-25.38411 -18.146,-18.5553 -47.94776,-61.34493 -47.94776,-61.34493 -5.3375,-1.8251 -12.03925,-2.82338 -16.92274,0 -7.74824,4.47962 -14.99714,14.46296 -13.39717,23.26877 0.92534,5.09279 6.88602,10.75101 11.98694,9.87159 5.40228,-0.93138 2.99019,-13.75838 8.46137,-14.10228 16.70596,-1.05009 18.77868,28.07503 31.02502,39.48639 6.43859,5.99959 16.08836,8.16243 21.85854,14.8074 7.71908,8.88933 13.78835,20.08404 15.51251,31.73014 1.29022,8.71502 -5.5598,17.38005 -4.23068,26.08922 1.66505,10.91046 10.35332,19.51668 14.80739,29.61479 2.64231,5.99055 5.79025,11.90812 7.05114,18.33297 2.21837,11.30364 -3.58019,23.85809 0.70512,34.55059 z"
         style="color:#000000;clip-rule:nonzero;display:inline;overflow:visible;visibility:visible;opacity:1;isolation:auto;mix-blend-mode:normal;color-interpolation:sRGB;color-interpolation-filters:linearRGB;solid-color:#000000;solid-opacity:1;fill:#000000;fill-opacity:1;fill-rule:evenodd;stroke:#000000;stroke-width:4;stroke-linecap:butt;stroke-linejoin:miter;stroke-miterlimit:4;stroke-dasharray:none;stroke-dashoffset:0;stroke-opacity:1;color-rendering:auto;image-rendering:auto;shape-rendering:auto;text-rendering:auto;enable-background:accumulate" />
      <path
         sodipodi:nodetypes="aaaaaaaaaaaaaaaaaaaaaaaa"
         inkscape:connector-curvature="0"
         id="path8880"
         d="m 424.4787,570.06415 c -9.06275,-10.39291 -26.16634,-10.74192 -35.96082,-20.44831 -5.9845,-5.93067 -4.3374,-20.76911 -12.69205,-21.85854 -5.93286,-0.77363 -11.6092,6.80777 -12.69206,12.69205 -1.3519,7.34627 4.92783,14.29777 9.16649,20.44831 9.99674,14.50585 29.56625,21.57739 37.37104,37.37105 9.45452,19.13202 -1.15224,44.40769 8.46137,63.46027 8.98554,17.80785 36.9232,22.60737 43.01196,41.60174 3.5744,11.15063 -9.14304,23.18004 -6.34602,34.55059 1.63972,6.66584 6.67213,12.91872 12.69205,16.21762 10.76758,5.90061 26.17663,-2.85662 36.66594,3.52557 11.47325,6.98087 8.52681,32.22272 21.85853,33.84548 5.44682,0.663 11.22159,-5.84845 11.98694,-11.28183 1.22008,-8.66157 -7.20126,-16.38933 -13.39716,-22.56365 -14.10526,-14.05614 -40.98209,-13.39456 -51.47334,-30.3199 -3.47607,-5.60788 -2.98815,-13.33683 -1.41022,-19.7432 2.77665,-11.2731 15.39958,-18.38146 18.33296,-29.6148 1.36714,-5.23542 3.9113,-13.39495 -0.70511,-16.21762 -10.58797,-6.47395 -21.7802,18.41874 -33.84548,15.51251 -5.53146,-1.33239 -10.74269,-7.70992 -10.57671,-13.39717 0.33026,-11.31611 24.97385,-14.32271 22.56365,-25.3841 -3.22625,-14.80662 -34.44626,-4.97468 -41.60173,-18.33297 -5.18175,-9.67362 6.78188,-21.52069 5.64091,-32.43525 -0.65798,-6.29429 -2.89181,-12.85804 -7.05114,-17.62785 z"
         style="color:#000000;clip-rule:nonzero;display:inline;overflow:visible;visibility:visible;opacity:1;isolation:auto;mix-blend-mode:normal;color-interpolation:sRGB;color-interpolation-filters:linearRGB;solid-color:#000000;solid-opacity:1;fill:#000000;fill-opacity:1;fill-rule:evenodd;stroke:#000000;stroke-width:4;stroke-linecap:butt;stroke-linejoin:miter;stroke-miterlimit:4;stroke-dasharray:none;stroke-dashoffset:0;stroke-opacity:1;color-rendering:auto;image-rendering:auto;shape-rendering:auto;text-rendering:auto;enable-background:accumulate" />
      <path
         sodipodi:nodetypes="aaaaaaaaaaaaaaaaaaa"
         inkscape:connector-curvature="0"
         id="path8882"
         d="m 463.96509,558.78232 c -12.40258,0.64361 -19.79299,20.1021 -18.33297,32.43525 1.66179,14.03752 20.17467,19.91137 28.90968,31.02502 13.7366,17.47722 29.47411,34.67011 36.66594,55.70402 4.95727,14.49854 -3.927,32.4443 3.52557,45.83241 5.80772,10.43323 21.40718,11.86395 28.90968,21.15343 10.51101,13.01458 6.41465,36.72655 20.44831,45.83242 4.92922,3.19837 13.20688,3.87063 17.62785,0 5.35212,-4.68587 5.05878,-14.40121 2.82046,-21.15343 -8.26326,-24.92731 -46.10564,-31.69958 -54.99891,-56.40913 -4.87157,-13.53542 7.586,-29.2115 3.52558,-43.01196 -5.01573,-17.04731 -24.19968,-26.56062 -32.43526,-42.30684 -2.85928,-5.46689 -6.92759,-11.59405 -5.64091,-17.62786 2.49947,-11.7211 18.16275,-16.31282 23.97388,-26.79434 3.67881,-6.63547 6.71746,-14.2806 6.34603,-21.85853 -0.18589,-3.7926 -0.43362,-10.54959 -4.23068,-10.57671 -12.22166,-0.0873 -4.93461,25.76275 -14.10229,33.84547 -5.30372,4.67605 -13.78649,8.01052 -20.44831,5.64092 -12.22777,-4.3494 -9.60282,-32.40271 -22.56365,-31.73014 z"
         style="color:#000000;clip-rule:nonzero;display:inline;overflow:visible;visibility:visible;opacity:1;isolation:auto;mix-blend-mode:normal;color-interpolation:sRGB;color-interpolation-filters:linearRGB;solid-color:#000000;solid-opacity:1;fill:#000000;fill-opacity:1;fill-rule:evenodd;stroke:#000000;stroke-width:4;stroke-linecap:butt;stroke-linejoin:miter;stroke-miterlimit:4;stroke-dasharray:none;stroke-dashoffset:0;stroke-opacity:1;color-rendering:auto;image-rendering:auto;shape-rendering:auto;text-rendering:auto;enable-background:accumulate" />
      <path
         sodipodi:nodetypes="aaaaaaaaaaaaa"
         inkscape:connector-curvature="0"
         id="path8884"
         d="m 189.6757,737.17619 c -9.2282,-14.34204 -0.95295,-34.58895 -6.34603,-50.76821 -2.39693,-7.19078 -3.7327,-20.4239 -11.28182,-19.7432 -4.22009,0.38052 -3.89326,7.76319 -4.23069,11.98694 -0.6278,7.85838 3.95799,15.39007 4.23068,23.26876 0.29449,8.50835 -4.45823,17.02969 -2.82046,25.38411 2.36725,12.07547 16.44033,20.18737 17.62786,32.43525 0.83217,8.5828 -10.78479,16.60528 -7.75625,24.679 1.74137,4.64227 7.73839,7.54584 12.69205,7.75625 5.25087,0.22304 12.89479,-1.93612 14.10228,-7.05114 1.08001,-4.57501 -7.07652,-6.78968 -8.46137,-11.28182 -3.04982,-9.89291 6.2536,-21.87554 1.41023,-31.02502 -1.67851,-3.17083 -7.22517,-2.62382 -9.16648,-5.64092 z"
         style="color:#000000;clip-rule:nonzero;display:inline;overflow:visible;visibility:visible;opacity:1;isolation:auto;mix-blend-mode:normal;color-interpolation:sRGB;color-interpolation-filters:linearRGB;solid-color:#000000;solid-opacity:1;fill:#000000;fill-opacity:1;fill-rule:evenodd;stroke:#000000;stroke-width:4;stroke-linecap:butt;stroke-linejoin:miter;stroke-miterlimit:4;stroke-dasharray:none;stroke-dashoffset:0;stroke-opacity:1;color-rendering:auto;image-rendering:auto;shape-rendering:auto;text-rendering:auto;enable-background:accumulate" />
    </g>
  </g>
  <g
     inkscape:groupmode="layer"
     id="layer3"
     inkscape:label="Layer 3"
     style="display:inline"
     transform="translate(-124.96032,-140.77576)">
    <path
       style="color:#000000;clip-rule:nonzero;display:inline;overflow:visible;visibility:visible;opacity:1;isolation:auto;mix-blend-mode:normal;color-interpolation:sRGB;color-interpolation-filters:linearRGB;solid-color:#000000;solid-opacity:1;fill:none;fill-opacity:1;fill-rule:evenodd;stroke:#000000;stroke-width:4;stroke-linecap:butt;stroke-linejoin:miter;stroke-miterlimit:4;stroke-dasharray:none;stroke-dashoffset:0;stroke-opacity:1;color-rendering:auto;image-rendering:auto;shape-rendering:auto;text-rendering:auto;enable-background:accumulate"
       d="m 409.52178,233.28847 -8.50349,4.54701 4.21022,7.8736"
       id="path4235-4-01-6"
       inkscape:connector-curvature="0" />
    <path
       style="color:#000000;clip-rule:nonzero;display:inline;overflow:visible;visibility:visible;opacity:1;isolation:auto;mix-blend-mode:normal;color-interpolation:sRGB;color-interpolation-filters:linearRGB;solid-color:#000000;solid-opacity:1;fill:none;fill-opacity:1;fill-rule:evenodd;stroke:#000000;stroke-width:4;stroke-linecap:butt;stroke-linejoin:miter;stroke-miterlimit:4;stroke-dasharray:none;stroke-dashoffset:0;stroke-opacity:1;color-rendering:auto;image-rendering:auto;shape-rendering:auto;text-rendering:auto;enable-background:accumulate"
       d="m 417.24021,292.40937 -5.14363,-8.15645 -7.55227,4.76264"
       id="path4235-4-01-3"
       inkscape:connector-curvature="0"
       inkscape:transform-center-x="1.0192824"
       inkscape:transform-center-y="-11.877321" />
    <path
       style="color:#000000;clip-rule:nonzero;display:inline;overflow:visible;visibility:visible;opacity:1;isolation:auto;mix-blend-mode:normal;color-interpolation:sRGB;color-interpolation-filters:linearRGB;solid-color:#000000;solid-opacity:1;fill:none;fill-opacity:1;fill-rule:evenodd;stroke:#000000;stroke-width:4;stroke-linecap:butt;stroke-linejoin:miter;stroke-miterlimit:4;stroke-dasharray:none;stroke-dashoffset:0;stroke-opacity:1;color-rendering:auto;image-rendering:auto;shape-rendering:auto;text-rendering:auto;enable-background:accumulate"
       d="m 505.01399,262.57463 -9.18151,2.94694 2.72867,8.5014"
       id="path4235-4-01-7"
       inkscape:connector-curvature="0" />
    <path
       style="color:#000000;clip-rule:nonzero;display:inline;overflow:visible;visibility:visible;opacity:1;isolation:auto;mix-blend-mode:normal;color-interpolation:sRGB;color-interpolation-filters:linearRGB;solid-color:#000000;solid-opacity:1;fill:none;fill-opacity:1;fill-rule:evenodd;stroke:#000000;stroke-width:4;stroke-linecap:butt;stroke-linejoin:miter;stroke-miterlimit:4;stroke-dasharray:none;stroke-dashoffset:0;stroke-opacity:1;color-rendering:auto;image-rendering:auto;shape-rendering:auto;text-rendering:auto;enable-background:accumulate"
       d="m 326.4047,240.96027 6.12351,-7.44897 -6.89722,-5.66991"
       id="path4235-4-01-9"
       inkscape:connector-curvature="0"
       inkscape:transform-center-x="6.4272353"
       inkscape:transform-center-y="0.13745675" />
    <path
       style="color:#000000;clip-rule:nonzero;display:inline;overflow:visible;visibility:visible;opacity:1;isolation:auto;mix-blend-mode:normal;color-interpolation:sRGB;color-interpolation-filters:linearRGB;solid-color:#000000;solid-opacity:1;fill:none;fill-opacity:1;fill-rule:evenodd;stroke:#000000;stroke-width:4;stroke-linecap:butt;stroke-linejoin:miter;stroke-miterlimit:4;stroke-dasharray:none;stroke-dashoffset:0;stroke-opacity:1;color-rendering:auto;image-rendering:auto;shape-rendering:auto;text-rendering:auto;enable-background:accumulate"
       d="m 228.11334,238.52245 9.07678,-3.25526 -3.01415,-8.40443"
       id="path4235-4-01-69"
       inkscape:connector-curvature="0" />
    <path
       style="color:#000000;clip-rule:nonzero;display:inline;overflow:visible;visibility:visible;opacity:1;isolation:auto;mix-blend-mode:normal;color-interpolation:sRGB;color-interpolation-filters:linearRGB;solid-color:#000000;solid-opacity:1;fill:none;fill-opacity:1;fill-rule:evenodd;stroke:#000000;stroke-width:4;stroke-linecap:butt;stroke-linejoin:miter;stroke-miterlimit:4;stroke-dasharray:none;stroke-dashoffset:0;stroke-opacity:1;color-rendering:auto;image-rendering:auto;shape-rendering:auto;text-rendering:auto;enable-background:accumulate"
       d="m 196.23028,263.86636 9.59208,-0.98827 -0.91508,-8.88156"
       id="path4235-4-01-5"
       inkscape:connector-curvature="0" />
    <path
       style="color:#000000;clip-rule:nonzero;display:inline;overflow:visible;visibility:visible;opacity:1;isolation:auto;mix-blend-mode:normal;color-interpolation:sRGB;color-interpolation-filters:linearRGB;solid-color:#000000;solid-opacity:1;fill:none;fill-opacity:1;fill-rule:evenodd;stroke:#000000;stroke-width:4;stroke-linecap:butt;stroke-linejoin:miter;stroke-miterlimit:4;stroke-dasharray:none;stroke-dashoffset:0;stroke-opacity:1;color-rendering:auto;image-rendering:auto;shape-rendering:auto;text-rendering:auto;enable-background:accumulate"
       d="m 402.96019,341.86133 4.15283,-8.70279 -8.05815,-3.84521"
       id="path4235-4-01-4"
       inkscape:connector-curvature="0" />
    <path
       style="color:#000000;clip-rule:nonzero;display:inline;overflow:visible;visibility:visible;opacity:1;isolation:auto;mix-blend-mode:normal;color-interpolation:sRGB;color-interpolation-filters:linearRGB;solid-color:#000000;solid-opacity:1;fill:none;fill-opacity:1;fill-rule:evenodd;stroke:#000000;stroke-width:4;stroke-linecap:butt;stroke-linejoin:miter;stroke-miterlimit:4;stroke-dasharray:none;stroke-dashoffset:0;stroke-opacity:1;color-rendering:auto;image-rendering:auto;shape-rendering:auto;text-rendering:auto;enable-background:accumulate"
       d="m 450.21911,334.14475 -8.87583,3.76887 3.48972,8.21836"
       id="path4235-4-01-40"
       inkscape:connector-curvature="0"
       inkscape:transform-center-x="-6.5752041"
       inkscape:transform-center-y="-9.3661964" />
    <path
       style="color:#000000;clip-rule:nonzero;display:inline;overflow:visible;visibility:visible;opacity:1;isolation:auto;mix-blend-mode:normal;color-interpolation:sRGB;color-interpolation-filters:linearRGB;solid-color:#000000;solid-opacity:1;fill:none;fill-opacity:1;fill-rule:evenodd;stroke:#000000;stroke-width:4;stroke-linecap:butt;stroke-linejoin:miter;stroke-miterlimit:4;stroke-dasharray:none;stroke-dashoffset:0;stroke-opacity:1;color-rendering:auto;image-rendering:auto;shape-rendering:auto;text-rendering:auto;enable-background:accumulate"
       d="m 566.00795,359.54133 9.54742,-1.35328 -1.25306,-8.84021"
       id="path4235-4-01-37"
       inkscape:connector-curvature="0" />
    <path
       style="color:#000000;clip-rule:nonzero;display:inline;overflow:visible;visibility:visible;opacity:1;isolation:auto;mix-blend-mode:normal;color-interpolation:sRGB;color-interpolation-filters:linearRGB;solid-color:#000000;solid-opacity:1;fill:none;fill-opacity:1;fill-rule:evenodd;stroke:#000000;stroke-width:4;stroke-linecap:butt;stroke-linejoin:miter;stroke-miterlimit:4;stroke-dasharray:none;stroke-dashoffset:0;stroke-opacity:1;color-rendering:auto;image-rendering:auto;shape-rendering:auto;text-rendering:auto;enable-background:accumulate"
       d="m 239.54365,289.9729 -5.00537,8.24202 7.63152,4.63458"
       id="path4235-4-01-30"
       inkscape:connector-curvature="0"
       inkscape:transform-center-x="-7.9231646"
       inkscape:transform-center-y="-1.0424976" />
    <path
       style="color:#000000;clip-rule:nonzero;display:inline;overflow:visible;visibility:visible;opacity:1;isolation:auto;mix-blend-mode:normal;color-interpolation:sRGB;color-interpolation-filters:linearRGB;solid-color:#000000;solid-opacity:1;fill:none;fill-opacity:1;fill-rule:evenodd;stroke:#000000;stroke-width:4;stroke-linecap:butt;stroke-linejoin:miter;stroke-miterlimit:4;stroke-dasharray:none;stroke-dashoffset:0;stroke-opacity:1;color-rendering:auto;image-rendering:auto;shape-rendering:auto;text-rendering:auto;enable-background:accumulate"
       d="m 175.32577,306.53383 -1.86873,9.46004 8.75932,1.73029"
       id="path4235-4-01-0"
       inkscape:connector-curvature="0"
       inkscape:transform-center-x="1.7014644"
       inkscape:transform-center-y="-1.5820903" />
    <path
       style="color:#000000;clip-rule:nonzero;display:inline;overflow:visible;visibility:visible;opacity:1;isolation:auto;mix-blend-mode:normal;color-interpolation:sRGB;color-interpolation-filters:linearRGB;solid-color:#000000;solid-opacity:1;fill:none;fill-opacity:1;fill-rule:evenodd;stroke:#000000;stroke-width:4;stroke-linecap:butt;stroke-linejoin:miter;stroke-miterlimit:4;stroke-dasharray:none;stroke-dashoffset:0;stroke-opacity:1;color-rendering:auto;image-rendering:auto;shape-rendering:auto;text-rendering:auto;enable-background:accumulate"
       d="m 164.00672,385.006 9.50988,1.59589 1.47765,-8.80545"
       id="path4235-4-01-72"
       inkscape:connector-curvature="0" />
    <path
       style="color:#000000;clip-rule:nonzero;display:inline;overflow:visible;visibility:visible;opacity:1;isolation:auto;mix-blend-mode:normal;color-interpolation:sRGB;color-interpolation-filters:linearRGB;solid-color:#000000;solid-opacity:1;fill:none;fill-opacity:1;fill-rule:evenodd;stroke:#000000;stroke-width:4;stroke-linecap:butt;stroke-linejoin:miter;stroke-miterlimit:4;stroke-dasharray:none;stroke-dashoffset:0;stroke-opacity:1;color-rendering:auto;image-rendering:auto;shape-rendering:auto;text-rendering:auto;enable-background:accumulate"
       d="m 227.64225,468.60871 9.55047,1.33161 1.23295,-8.84304"
       id="path4235-4-01-62"
       inkscape:connector-curvature="0" />
    <path
       style="color:#000000;clip-rule:nonzero;display:inline;overflow:visible;visibility:visible;opacity:1;isolation:auto;mix-blend-mode:normal;color-interpolation:sRGB;color-interpolation-filters:linearRGB;solid-color:#000000;solid-opacity:1;fill:none;fill-opacity:1;fill-rule:evenodd;stroke:#000000;stroke-width:4;stroke-linecap:butt;stroke-linejoin:miter;stroke-miterlimit:4;stroke-dasharray:none;stroke-dashoffset:0;stroke-opacity:1;color-rendering:auto;image-rendering:auto;shape-rendering:auto;text-rendering:auto;enable-background:accumulate"
       d="m 292.97569,486.81067 8.12631,5.1911 4.80656,-7.52439"
       id="path4235-4-01-2"
       inkscape:connector-curvature="0"
       inkscape:transform-center-x="-8.1777239"
       inkscape:transform-center-y="1.2777957" />
    <path
       style="color:#000000;clip-rule:nonzero;display:inline;overflow:visible;visibility:visible;opacity:1;isolation:auto;mix-blend-mode:normal;color-interpolation:sRGB;color-interpolation-filters:linearRGB;solid-color:#000000;solid-opacity:1;fill:none;fill-opacity:1;fill-rule:evenodd;stroke:#000000;stroke-width:4;stroke-linecap:butt;stroke-linejoin:miter;stroke-miterlimit:4;stroke-dasharray:none;stroke-dashoffset:0;stroke-opacity:1;color-rendering:auto;image-rendering:auto;shape-rendering:auto;text-rendering:auto;enable-background:accumulate"
       d="m 221.34247,519.09647 -9.63342,0.42619 0.39464,8.91984"
       id="path4235-4-01-2-9"
       inkscape:connector-curvature="0"
       inkscape:transform-center-x="6.1298411"
       inkscape:transform-center-y="5.7807257" />
    <path
       style="color:#000000;clip-rule:nonzero;display:inline;overflow:visible;visibility:visible;opacity:1;isolation:auto;mix-blend-mode:normal;color-interpolation:sRGB;color-interpolation-filters:linearRGB;solid-color:#000000;solid-opacity:1;fill:none;fill-opacity:1;fill-rule:evenodd;stroke:#000000;stroke-width:4;stroke-linecap:butt;stroke-linejoin:miter;stroke-miterlimit:4;stroke-dasharray:none;stroke-dashoffset:0;stroke-opacity:1;color-rendering:auto;image-rendering:auto;shape-rendering:auto;text-rendering:auto;enable-background:accumulate"
       d="m 241.53388,582.41191 5.14994,8.15247 7.54858,-4.76849"
       id="path4235-4-01-27"
       inkscape:connector-curvature="0" />
    <path
       style="color:#000000;clip-rule:nonzero;display:inline;overflow:visible;visibility:visible;opacity:1;isolation:auto;mix-blend-mode:normal;color-interpolation:sRGB;color-interpolation-filters:linearRGB;solid-color:#000000;solid-opacity:1;fill:none;fill-opacity:1;fill-rule:evenodd;stroke:#000000;stroke-width:4;stroke-linecap:butt;stroke-linejoin:miter;stroke-miterlimit:4;stroke-dasharray:none;stroke-dashoffset:0;stroke-opacity:1;color-rendering:auto;image-rendering:auto;shape-rendering:auto;text-rendering:auto;enable-background:accumulate"
       d="m 218.3749,602.45944 -9.4247,2.03954 1.88849,8.72658"
       id="path4235-4-01-1"
       inkscape:connector-curvature="0"
       inkscape:transform-center-x="6.7978959"
       inkscape:transform-center-y="-0.64782066" />
    <path
       style="color:#000000;clip-rule:nonzero;display:inline;overflow:visible;visibility:visible;opacity:1;isolation:auto;mix-blend-mode:normal;color-interpolation:sRGB;color-interpolation-filters:linearRGB;solid-color:#000000;solid-opacity:1;fill:none;fill-opacity:1;fill-rule:evenodd;stroke:#000000;stroke-width:4;stroke-linecap:butt;stroke-linejoin:miter;stroke-miterlimit:4;stroke-dasharray:none;stroke-dashoffset:0;stroke-opacity:1;color-rendering:auto;image-rendering:auto;shape-rendering:auto;text-rendering:auto;enable-background:accumulate"
       d="m 257.4816,675.15631 9.64168,0.15002 0.13889,-8.9275"
       id="path4235-4-01-33"
       inkscape:connector-curvature="0"
       inkscape:transform-center-x="10.880126"
       inkscape:transform-center-y="-5.9477832" />
    <path
       style="color:#000000;clip-rule:nonzero;display:inline;overflow:visible;visibility:visible;opacity:1;isolation:auto;mix-blend-mode:normal;color-interpolation:sRGB;color-interpolation-filters:linearRGB;solid-color:#000000;solid-opacity:1;fill:none;fill-opacity:1;fill-rule:evenodd;stroke:#000000;stroke-width:4;stroke-linecap:butt;stroke-linejoin:miter;stroke-miterlimit:4;stroke-dasharray:none;stroke-dashoffset:0;stroke-opacity:1;color-rendering:auto;image-rendering:auto;shape-rendering:auto;text-rendering:auto;enable-background:accumulate"
       d="m 228.30504,704.76304 9.39119,2.18865 2.02652,-8.69556"
       id="path4235-4-01-31"
       inkscape:connector-curvature="0" />
    <path
       style="color:#000000;clip-rule:nonzero;display:inline;overflow:visible;visibility:visible;opacity:1;isolation:auto;mix-blend-mode:normal;color-interpolation:sRGB;color-interpolation-filters:linearRGB;solid-color:#000000;solid-opacity:1;fill:none;fill-opacity:1;fill-rule:evenodd;stroke:#000000;stroke-width:4;stroke-linecap:butt;stroke-linejoin:miter;stroke-miterlimit:4;stroke-dasharray:none;stroke-dashoffset:0;stroke-opacity:1;color-rendering:auto;image-rendering:auto;shape-rendering:auto;text-rendering:auto;enable-background:accumulate"
       d="m 194.38584,728.9359 9.18591,2.93321 2.71592,-8.50549"
       id="path4235-4-01-28"
       inkscape:connector-curvature="0" />
    <path
       style="color:#000000;clip-rule:nonzero;display:inline;overflow:visible;visibility:visible;opacity:1;isolation:auto;mix-blend-mode:normal;color-interpolation:sRGB;color-interpolation-filters:linearRGB;solid-color:#000000;solid-opacity:1;fill:none;fill-opacity:1;fill-rule:evenodd;stroke:#000000;stroke-width:4;stroke-linecap:butt;stroke-linejoin:miter;stroke-miterlimit:4;stroke-dasharray:none;stroke-dashoffset:0;stroke-opacity:1;color-rendering:auto;image-rendering:auto;shape-rendering:auto;text-rendering:auto;enable-background:accumulate"
       d="m 175.36894,788.12116 -7.4856,-6.07869 -5.62841,6.93113"
       id="path4235-4-01-11"
       inkscape:connector-curvature="0" />
    <path
       style="color:#000000;clip-rule:nonzero;display:inline;overflow:visible;visibility:visible;opacity:1;isolation:auto;mix-blend-mode:normal;color-interpolation:sRGB;color-interpolation-filters:linearRGB;solid-color:#000000;solid-opacity:1;fill:none;fill-opacity:1;fill-rule:evenodd;stroke:#000000;stroke-width:4;stroke-linecap:butt;stroke-linejoin:miter;stroke-miterlimit:4;stroke-dasharray:none;stroke-dashoffset:0;stroke-opacity:1;color-rendering:auto;image-rendering:auto;shape-rendering:auto;text-rendering:auto;enable-background:accumulate"
       d="m 286.96647,732.62319 7.36299,6.22663 5.76539,-6.8176"
       id="path4235-4-01-67"
       inkscape:connector-curvature="0" />
    <path
       style="color:#000000;clip-rule:nonzero;display:inline;overflow:visible;visibility:visible;opacity:1;isolation:auto;mix-blend-mode:normal;color-interpolation:sRGB;color-interpolation-filters:linearRGB;solid-color:#000000;solid-opacity:1;fill:none;fill-opacity:1;fill-rule:evenodd;stroke:#000000;stroke-width:4;stroke-linecap:butt;stroke-linejoin:miter;stroke-miterlimit:4;stroke-dasharray:none;stroke-dashoffset:0;stroke-opacity:1;color-rendering:auto;image-rendering:auto;shape-rendering:auto;text-rendering:auto;enable-background:accumulate"
       d="m 302.1761,557.77408 -6.65595,-6.97731 -6.46047,6.16294"
       id="path4235-4-01-46"
       inkscape:connector-curvature="0" />
    <path
       style="color:#000000;clip-rule:nonzero;display:inline;overflow:visible;visibility:visible;opacity:1;isolation:auto;mix-blend-mode:normal;color-interpolation:sRGB;color-interpolation-filters:linearRGB;solid-color:#000000;solid-opacity:1;fill:none;fill-opacity:1;fill-rule:evenodd;stroke:#000000;stroke-width:4;stroke-linecap:butt;stroke-linejoin:miter;stroke-miterlimit:4;stroke-dasharray:none;stroke-dashoffset:0;stroke-opacity:1;color-rendering:auto;image-rendering:auto;shape-rendering:auto;text-rendering:auto;enable-background:accumulate"
       d="m 393.44941,542.38901 9.58806,-1.02652 -0.95051,-8.87784"
       id="path4235-4-01-8"
       inkscape:connector-curvature="0" />
    <path
       style="color:#000000;clip-rule:nonzero;display:inline;overflow:visible;visibility:visible;opacity:1;isolation:auto;mix-blend-mode:normal;color-interpolation:sRGB;color-interpolation-filters:linearRGB;solid-color:#000000;solid-opacity:1;fill:none;fill-opacity:1;fill-rule:evenodd;stroke:#000000;stroke-width:4;stroke-linecap:butt;stroke-linejoin:miter;stroke-miterlimit:4;stroke-dasharray:none;stroke-dashoffset:0;stroke-opacity:1;color-rendering:auto;image-rendering:auto;shape-rendering:auto;text-rendering:auto;enable-background:accumulate"
       d="m 349.927,563.12005 8.99762,3.46807 3.21116,-8.33114"
       id="path4235-4-01-61"
       inkscape:connector-curvature="0" />
    <path
       style="color:#000000;clip-rule:nonzero;display:inline;overflow:visible;visibility:visible;opacity:1;isolation:auto;mix-blend-mode:normal;color-interpolation:sRGB;color-interpolation-filters:linearRGB;solid-color:#000000;solid-opacity:1;fill:none;fill-opacity:1;fill-rule:evenodd;stroke:#000000;stroke-width:4;stroke-linecap:butt;stroke-linejoin:miter;stroke-miterlimit:4;stroke-dasharray:none;stroke-dashoffset:0;stroke-opacity:1;color-rendering:auto;image-rendering:auto;shape-rendering:auto;text-rendering:auto;enable-background:accumulate"
       d="m 437.46032,703.07165 7.4934,6.06906 5.6195,-6.93835"
       id="path4235-4-01-91"
       inkscape:connector-curvature="0"
       inkscape:transform-center-x="6.5092988"
       inkscape:transform-center-y="-2.8976252" />
    <path
       style="color:#000000;clip-rule:nonzero;display:inline;overflow:visible;visibility:visible;opacity:1;isolation:auto;mix-blend-mode:normal;color-interpolation:sRGB;color-interpolation-filters:linearRGB;solid-color:#000000;solid-opacity:1;fill:none;fill-opacity:1;fill-rule:evenodd;stroke:#000000;stroke-width:4;stroke-linecap:butt;stroke-linejoin:miter;stroke-miterlimit:4;stroke-dasharray:none;stroke-dashoffset:0;stroke-opacity:1;color-rendering:auto;image-rendering:auto;shape-rendering:auto;text-rendering:auto;enable-background:accumulate"
       d="m 482.89537,830.57673 2.39157,9.34157 8.64961,-2.21443"
       id="path4235-4-01-610"
       inkscape:connector-curvature="0" />
    <path
       style="color:#000000;clip-rule:nonzero;display:inline;overflow:visible;visibility:visible;opacity:1;isolation:auto;mix-blend-mode:normal;color-interpolation:sRGB;color-interpolation-filters:linearRGB;solid-color:#000000;solid-opacity:1;fill:none;fill-opacity:1;fill-rule:evenodd;stroke:#000000;stroke-width:4;stroke-linecap:butt;stroke-linejoin:miter;stroke-miterlimit:4;stroke-dasharray:none;stroke-dashoffset:0;stroke-opacity:1;color-rendering:auto;image-rendering:auto;shape-rendering:auto;text-rendering:auto;enable-background:accumulate"
       d="m 536.37369,791.18713 0.67032,9.61953 8.90697,-0.62068"
       id="path4235-4-01-83"
       inkscape:connector-curvature="0" />
    <path
       style="color:#000000;clip-rule:nonzero;display:inline;overflow:visible;visibility:visible;opacity:1;isolation:auto;mix-blend-mode:normal;color-interpolation:sRGB;color-interpolation-filters:linearRGB;solid-color:#000000;solid-opacity:1;fill:none;fill-opacity:1;fill-rule:evenodd;stroke:#000000;stroke-width:4;stroke-linecap:butt;stroke-linejoin:miter;stroke-miterlimit:4;stroke-dasharray:none;stroke-dashoffset:0;stroke-opacity:1;color-rendering:auto;image-rendering:auto;shape-rendering:auto;text-rendering:auto;enable-background:accumulate"
       d="m 506.08847,724.89877 -9.13787,-3.07962 -2.85148,8.46101"
       id="path4235-4-01-04"
       inkscape:connector-curvature="0" />
    <path
       style="color:#000000;clip-rule:nonzero;display:inline;overflow:visible;visibility:visible;opacity:1;isolation:auto;mix-blend-mode:normal;color-interpolation:sRGB;color-interpolation-filters:linearRGB;solid-color:#000000;solid-opacity:1;fill:none;fill-opacity:1;fill-rule:evenodd;stroke:#000000;stroke-width:4;stroke-linecap:butt;stroke-linejoin:miter;stroke-miterlimit:4;stroke-dasharray:none;stroke-dashoffset:0;stroke-opacity:1;color-rendering:auto;image-rendering:auto;shape-rendering:auto;text-rendering:auto;enable-background:accumulate"
       d="m 534.11783,709.15808 7.87799,5.56075 5.14883,-7.29445"
       id="path4235-4-01-65"
       inkscape:connector-curvature="0" />
    <path
       style="color:#000000;clip-rule:nonzero;display:inline;overflow:visible;visibility:visible;opacity:1;isolation:auto;mix-blend-mode:normal;color-interpolation:sRGB;color-interpolation-filters:linearRGB;solid-color:#000000;solid-opacity:1;fill:none;fill-opacity:1;fill-rule:evenodd;stroke:#000000;stroke-width:4;stroke-linecap:butt;stroke-linejoin:miter;stroke-miterlimit:4;stroke-dasharray:none;stroke-dashoffset:0;stroke-opacity:1;color-rendering:auto;image-rendering:auto;shape-rendering:auto;text-rendering:auto;enable-background:accumulate"
       d="m 467.04408,513.88672 -3.38586,-9.02888 -8.36007,3.13508"
       id="path4235-4-01-81"
       inkscape:connector-curvature="0"
       inkscape:transform-center-x="7.6536312"
       inkscape:transform-center-y="-0.47735565" />
    <path
       style="color:#000000;clip-rule:nonzero;display:inline;overflow:visible;visibility:visible;opacity:1;isolation:auto;mix-blend-mode:normal;color-interpolation:sRGB;color-interpolation-filters:linearRGB;solid-color:#000000;solid-opacity:1;fill:none;fill-opacity:1;fill-rule:evenodd;stroke:#000000;stroke-width:4;stroke-linecap:butt;stroke-linejoin:miter;stroke-miterlimit:4;stroke-dasharray:none;stroke-dashoffset:0;stroke-opacity:1;color-rendering:auto;image-rendering:auto;shape-rendering:auto;text-rendering:auto;enable-background:accumulate"
       d="m 525.58411,546.05269 8.54853,-4.46177 -4.13129,-7.9153"
       id="path4235-4-01-34"
       inkscape:connector-curvature="0" />
    <path
       style="color:#000000;clip-rule:nonzero;display:inline;overflow:visible;visibility:visible;opacity:1;isolation:auto;mix-blend-mode:normal;color-interpolation:sRGB;color-interpolation-filters:linearRGB;solid-color:#000000;solid-opacity:1;fill:none;fill-opacity:1;fill-rule:evenodd;stroke:#000000;stroke-width:4;stroke-linecap:butt;stroke-linejoin:miter;stroke-miterlimit:4;stroke-dasharray:none;stroke-dashoffset:0;stroke-opacity:1;color-rendering:auto;image-rendering:auto;shape-rendering:auto;text-rendering:auto;enable-background:accumulate"
       d="m 449.12235,445.81351 6.79857,6.83842 6.33187,-6.29499"
       id="path4235-4-01-00"
       inkscape:connector-curvature="0" />
    <path
       style="color:#000000;clip-rule:nonzero;display:inline;overflow:visible;visibility:visible;opacity:1;isolation:auto;mix-blend-mode:normal;color-interpolation:sRGB;color-interpolation-filters:linearRGB;solid-color:#000000;solid-opacity:1;fill:none;fill-opacity:1;fill-rule:evenodd;stroke:#000000;stroke-width:4;stroke-linecap:butt;stroke-linejoin:miter;stroke-miterlimit:4;stroke-dasharray:none;stroke-dashoffset:0;stroke-opacity:1;color-rendering:auto;image-rendering:auto;shape-rendering:auto;text-rendering:auto;enable-background:accumulate"
       d="m 180.1213,181.41145 6.23089,7.3594 6.81425,-5.76936"
       id="path4235-4-01-69-2"
       inkscape:connector-curvature="0"
       inkscape:transform-center-x="3.6121077"
       inkscape:transform-center-y="-1.8878854" />
    <path
       style="color:#000000;clip-rule:nonzero;display:inline;overflow:visible;visibility:visible;opacity:1;isolation:auto;mix-blend-mode:normal;color-interpolation:sRGB;color-interpolation-filters:linearRGB;solid-color:#000000;solid-opacity:1;fill:none;fill-opacity:1;fill-rule:evenodd;stroke:#000000;stroke-width:4;stroke-linecap:butt;stroke-linejoin:miter;stroke-miterlimit:4;stroke-dasharray:none;stroke-dashoffset:0;stroke-opacity:1;color-rendering:auto;image-rendering:auto;shape-rendering:auto;text-rendering:auto;enable-background:accumulate"
       d="m 463.35196,184.99686 -3.18495,-9.10169 -8.42749,2.94905"
       id="path4235-4-01-69-2-0"
       inkscape:connector-curvature="0"
       inkscape:transform-center-x="-1.6651923"
       inkscape:transform-center-y="4.2745496" />
  </g>
</svg>
