<?xml version="1.0" encoding="UTF-8" standalone="no"?>
<!-- Created with Inkscape (http://www.inkscape.org/) -->

<svg
   xmlns:dc="http://purl.org/dc/elements/1.1/"
   xmlns:cc="http://creativecommons.org/ns#"
   xmlns:rdf="http://www.w3.org/1999/02/22-rdf-syntax-ns#"
   xmlns:svg="http://www.w3.org/2000/svg"
   xmlns="http://www.w3.org/2000/svg"
   xmlns:sodipodi="http://sodipodi.sourceforge.net/DTD/sodipodi-0.dtd"
   xmlns:inkscape="http://www.inkscape.org/namespaces/inkscape"
   width="535.50525"
   height="800"
   viewBox="0 0 502.03616 749.99998"
   id="svg2"
   version="1.1"
   inkscape:version="0.92.3 (2405546, 2018-03-11)"
   sodipodi:docname="s.svg"
   inkscape:export-filename="C:\Users\zvi\Documents\Mazesplace\Mazes\Alphabet Maze Set\S\S (s).png"
   inkscape:export-xdpi="100"
   inkscape:export-ydpi="100">
  <defs
     id="defs4">
    <inkscape:path-effect
       effect="spiro"
       id="path-effect4813"
       is_visible="true" />
    <inkscape:path-effect
       effect="spiro"
       id="path-effect4635"
       is_visible="true" />
    <inkscape:path-effect
       effect="spiro"
       id="path-effect4631"
       is_visible="true" />
    <inkscape:path-effect
       effect="spiro"
       id="path-effect4627"
       is_visible="true" />
    <inkscape:path-effect
       effect="spiro"
       id="path-effect4623"
       is_visible="true" />
    <inkscape:path-effect
       effect="spiro"
       id="path-effect4619"
       is_visible="true" />
    <inkscape:path-effect
       effect="spiro"
       id="path-effect4615"
       is_visible="true" />
    <inkscape:path-effect
       effect="spiro"
       id="path-effect4611"
       is_visible="true" />
    <inkscape:path-effect
       effect="spiro"
       id="path-effect4607"
       is_visible="true" />
    <inkscape:path-effect
       effect="spiro"
       id="path-effect4595"
       is_visible="true" />
    <inkscape:path-effect
       effect="spiro"
       id="path-effect4591"
       is_visible="true" />
    <inkscape:path-effect
       effect="spiro"
       id="path-effect4587"
       is_visible="true" />
    <inkscape:path-effect
       effect="spiro"
       id="path-effect4583"
       is_visible="true" />
    <inkscape:path-effect
       effect="spiro"
       id="path-effect4579"
       is_visible="true" />
    <inkscape:path-effect
       effect="spiro"
       id="path-effect4574"
       is_visible="true" />
    <clipPath
       clipPathUnits="userSpaceOnUse"
       id="clipPath4150">
      <rect
         style="opacity:1;fill:#000000;fill-opacity:1;fill-rule:evenodd;stroke:none;stroke-width:4;stroke-linecap:round;stroke-linejoin:round;stroke-miterlimit:4;stroke-dasharray:none;stroke-dashoffset:2.4000001;stroke-opacity:1"
         id="rect4152"
         width="694.28571"
         height="822.85712"
         x="-62.857143"
         y="75.21933"
         transform="rotate(90)" />
    </clipPath>
    <clipPath
       clipPathUnits="userSpaceOnUse"
       id="clipPath4194">
      <rect
         style="opacity:1;fill:#000000;fill-opacity:1;fill-rule:evenodd;stroke:none;stroke-width:4;stroke-linecap:round;stroke-linejoin:round;stroke-miterlimit:4;stroke-dasharray:none;stroke-dashoffset:2.4000001;stroke-opacity:1"
         id="rect4196"
         width="652.55853"
         height="800.04083"
         x="54.548237"
         y="98.778214"
         transform="rotate(90)" />
    </clipPath>
    <clipPath
       clipPathUnits="userSpaceOnUse"
       id="clipPath8848">
      <rect
         style="opacity:1;fill:#b0c836;fill-opacity:1;fill-rule:evenodd;stroke:none;stroke-width:4;stroke-linecap:round;stroke-linejoin:round;stroke-miterlimit:4;stroke-dasharray:none;stroke-dashoffset:2.4000001;stroke-opacity:1"
         id="rect8850"
         width="256.66153"
         height="167.81715"
         x="541.52765"
         y="194.94344" />
    </clipPath>
    <clipPath
       clipPathUnits="userSpaceOnUse"
       id="clipPath4561">
      <rect
         style="fill:#ffffff;fill-opacity:1;fill-rule:evenodd;stroke:#000000;stroke-width:3.75;stroke-linecap:round;stroke-linejoin:miter;stroke-miterlimit:4;stroke-dasharray:none;stroke-opacity:1;paint-order:normal"
         id="rect4563"
         width="172.43568"
         height="249.28201"
         x="-307.06079"
         y="335.98264"
         transform="rotate(-90)" />
    </clipPath>
    <clipPath
       clipPathUnits="userSpaceOnUse"
       id="clipPath904">
      <rect
         style="fill:#000000;fill-opacity:0.53266332;stroke:none;stroke-width:4.48228312;stroke-linecap:round;stroke-linejoin:miter;stroke-miterlimit:4;stroke-dasharray:none;stroke-dashoffset:0;stroke-opacity:1;paint-order:normal"
         id="rect906"
         width="502.03616"
         height="750"
         x="126.72998"
         y="138.0121" />
    </clipPath>
  </defs>
  <sodipodi:namedview
     id="base"
     pagecolor="#ffffff"
     bordercolor="#666666"
     borderopacity="1.0"
     inkscape:pageopacity="0.0"
     inkscape:pageshadow="2"
     inkscape:zoom="0.7073705"
     inkscape:cx="273.27747"
     inkscape:cy="514.42849"
     inkscape:document-units="px"
     inkscape:current-layer="layer2"
     showgrid="false"
     units="px"
     inkscape:window-width="1680"
     inkscape:window-height="987"
     inkscape:window-x="3832"
     inkscape:window-y="288"
     inkscape:window-maximized="1"
     fit-margin-top="0"
     fit-margin-left="15"
     fit-margin-right="15"
     fit-margin-bottom="0"
     inkscape:snap-global="true"
     inkscape:snap-page="true" />
  <metadata
     id="metadata7">
    <rdf:RDF>
      <cc:Work
         rdf:about="">
        <dc:format>image/svg+xml</dc:format>
        <dc:type
           rdf:resource="http://purl.org/dc/dcmitype/StillImage" />
        <dc:title></dc:title>
      </cc:Work>
    </rdf:RDF>
  </metadata>
  <g
     inkscape:groupmode="layer"
     id="layer2"
     inkscape:label="Layer 2"
     style="display:inline"
     transform="translate(-126.72998,-138.0121)">
    <g
       id="g900"
       clip-path="url(#clipPath904)">
      <path
         sodipodi:nodetypes="cccccccccccccccccc"
         inkscape:connector-curvature="0"
         id="path4575"
         d="M 559.15271,194.2621 H 258.3026 m -32.80194,0 H 202.6387 l -59.97122,63.33678 v 246.18021 l 293.89213,154.40106 v 55.00123 h -291.5728 v 172.95568 h 410.18991 l 57.6519,-57.65189 V 573.35897 L 319.93048,428.23523 V 369.92068 H 612.82862 V 194.2621 h -34.78994"
         style="opacity:1;vector-effect:none;fill:none;fill-opacity:1;stroke:#000000;stroke-width:3.74999976;stroke-linecap:butt;stroke-linejoin:miter;stroke-miterlimit:4;stroke-dasharray:none;stroke-dashoffset:0;stroke-opacity:1" />
      <path
         sodipodi:nodetypes="cssssssssssssccsscscsscsssccccsscsscsscsccsscscccsccscscscssssssssccscsssscsssssscsssscssccscssssscscssscssscsscscsssssscscccsc"
         inkscape:original-d="m 115.49081,161.4496 h 55.3442 c 24.85283,0 49.48608,20.8399 55.3428,22.71467 11.71345,3.74954 -1.87336,14.99347 -2.81145,22.49161 -0.93809,7.49814 -9.34242,21.38354 -11.53004,28.10073 -2.18762,6.71718 -3.35893,-11.15312 -11.16945,-6.62262 -7.81053,4.5305 -26.03139,37.56143 -35.40384,50.21391 -9.37244,12.65246 0.62571,29.05072 0.93715,43.57749 0.31145,14.52677 18.74395,6.24673 28.11452,9.3715 9.37056,3.12477 13.43342,17.49254 20.14873,26.24021 6.71531,8.74768 1.25047,19.67922 1.8743,29.52025 0.62383,9.84101 -4.9972,7.18388 -7.4972,10.77722 -2.50001,3.59336 -6.24673,-4.99906 -9.37151,-7.4972 -3.12477,-2.49813 -2.81051,-22.18016 -4.21717,-33.26884 -1.40667,-11.08867 -10.6201,-7.49814 -15.93156,-11.24581 -5.31146,-3.74766 -11.24487,6.24673 -16.86871,9.37151 -5.62384,3.12478 2.18762,20.30399 3.28003,30.45739 1.0924,10.1534 3.43715,12.4944 5.15433,18.74301 1.71717,6.2486 -8.12104,9.99533 -12.18296,14.99441 -4.06192,4.99907 -1.2486,10.62009 -1.8743,15.93156 -0.62571,5.31145 14.05819,47.48135 21.08588,71.22343 7.0277,23.74208 4.06193,5.62197 6.09148,8.43435 2.02956,2.81239 7.81053,4.06005 11.71438,6.09149 3.90386,2.03142 47.17084,26.86403 70.75487,40.29746 23.58401,13.43342 36.86219,7.49627 55.29187,11.24581 18.42968,3.74954 6.24861,0.31144 9.3715,0.46857 3.1229,0.15713 2.18763,-3.74953 3.28003,-5.6229 1.09241,-1.87336 -1.56098,-15.9325 -2.34287,-23.89734 -0.7819,-7.96484 7.49814,-16.55726 11.24581,-24.83448 3.74765,-8.27723 6.87336,5.62196 10.30864,8.43435 3.43528,2.81238 -1.87336,21.55352 -2.81145,32.33169 -0.93808,10.77817 -2.49813,6.55912 -3.7486,9.84008 -1.25047,3.28096 4.37431,10.6201 6.56005,15.93156 2.18575,5.31145 25.92878,16.243 38.89175,24.36591 12.96298,8.12291 20.61825,14.99347 30.92597,22.49161 10.30771,7.49814 15.93249,5.62197 23.89733,8.43435 7.96484,2.81239 2.5,7.49627 3.7486,11.24581 1.2486,3.74954 9.4e-4,46.23182 0,69.34914 -9.3e-4,23.11731 -7.49627,6.55911 -11.24581,9.84007 -3.74953,3.28097 -15.30585,-2.18762 -22.96018,-3.28002 -7.65433,-1.0924 -7.49627,2.81051 -11.24581,4.21717 -3.74954,1.40667 2.18763,5.30959 3.28003,7.96578 1.09241,2.6562 11.87151,9.99534 17.80586,14.99441 5.93435,4.99907 -2.49813,8.12103 -3.7486,12.18296 -1.25047,4.06192 -13.43155,-5.62384 -20.14874,-8.43435 -6.71717,-2.81052 -36.23554,-19.36872 -54.35473,-29.05167 -18.11917,-9.68295 -7.80864,2.81051 -11.71437,4.21718 -3.90574,1.40666 0.31331,4.06004 0.46857,6.09147 0.15525,2.03143 7.81053,6.8715 11.71438,10.30866 3.90386,3.43715 16.86965,18.11731 25.30306,27.17736 8.43343,9.06006 -2.49812,3.1229 -3.7486,4.68576 -1.25046,1.56285 -9.05818,-2.8124 -13.58868,-4.21718 -4.53049,-1.40479 -26.23927,-27.49068 -39.36032,-41.23462 -13.12104,-13.74394 -9.37056,-2.50001 -14.05725,-3.7486 -4.6867,-1.2486 -4.37244,4.99719 -6.56006,7.4972 -2.18762,2.50001 2.18762,6.8715 3.28002,10.30865 1.09242,3.43716 6.24862,17.49254 9.37152,26.24022 3.12289,8.74767 -7.49627,-3.43715 -11.24581,-5.15433 -3.74954,-1.71717 -11.86963,-19.99348 -17.80586,-29.98881 -5.93623,-9.99534 -16.86778,-8.74768 -25.30306,-13.12011 -8.43529,-4.37243 -9.05818,1.24859 -13.58868,1.8743 -4.53051,0.62571 -0.31145,6.24673 -0.46858,9.3715 -0.15713,3.12477 4.68669,16.86777 7.02863,25.30307 2.34193,8.43529 -5.93435,-9.4e-4 -8.90293,0 -2.96858,9.4e-4 -11.86964,-13.12104 -17.80586,-19.68016 -5.93622,-6.55912 -16.86777,-7.49814 -25.30306,-11.24581 -8.43529,-3.74766 -20.92876,12.4944 -31.39454,18.74301 -10.46579,6.2486 12.80866,21.24114 19.21158,31.86312 6.40293,10.62197 13.74581,17.80491 20.61731,26.70878 6.8715,8.90387 -11.86963,-0.6257 -17.80586,-0.93715 -5.93622,-0.31144 -16.243,-10.93435 -24.36591,-16.40013 -8.12291,-5.46577 -1.87336,6.8715 -2.81145,10.30866 -0.93809,3.43715 3.74954,25.30212 5.6229,37.95459 1.87337,12.65247 17.49442,18.42969 26.24022,27.64594 8.7458,9.21625 11.87151,-1.25048 17.80586,-1.8743 5.93434,-0.62383 33.42597,5.93435 50.13754,8.90292 16.71159,2.96859 14.68297,1.56099 22.02304,2.34288 7.34007,0.78189 45.60892,-10.62198 68.41199,-15.93155 22.80305,-5.30958 25.61638,0.31144 38.42316,0.46857 12.80679,0.15713 42.17271,8.43342 63.25765,12.65153 21.08496,4.21811 17.8068,-5.93622 26.7088,-8.90293 8.90199,-2.9667 21.24302,0.93622 31.86311,1.40572 10.6201,0.46952 20.93063,3.74767 31.39454,5.62291 10.46391,1.87524 13.74581,-14.99535 20.61731,-22.49161 6.8715,-7.49626 21.5554,-14.99534 32.33169,-22.49161 10.7763,-7.49627 -4.9972,-23.74209 -7.4972,-35.61172 -2.5,-11.86964 6.87337,-20.61825 10.30865,-30.92597 3.43529,-10.30771 -1.87335,-47.48323 -2.81145,-71.22343 -0.93809,-23.7402 1.56285,-46.23369 2.34288,-69.34914 0.78002,-23.11544 2.18762,-15.62011 3.28002,-23.42875 1.09241,-7.80865 -15.61823,-7.81053 -23.42876,-11.71438 -7.81052,-3.90386 -17.18015,-10.93436 -25.77163,-16.40014 -8.59148,-5.46577 -7.80865,-3.74954 -11.71438,-5.6229 -3.90574,-1.87337 -8.74581,9.68295 -13.12011,14.52583 -4.3743,4.84288 1.56285,55.29094 2.34287,82.93781 0.78003,27.64689 1.56286,13.74394 2.34288,20.61732 0.78002,6.87337 6.87338,23.42782 10.30866,35.14314 3.43528,11.71532 -6.8715,24.36498 -10.30866,36.54887 -3.43715,12.18389 -11.24486,-13.74582 -16.86871,-20.61732 -5.62383,-6.8715 7.18576,-25.30399 10.77723,-37.95459 3.59148,-12.6506 -8.12103,-22.49255 -12.18295,-33.73742 -4.06193,-11.24486 -1.87336,-15.62011 -2.81145,-23.42876 -0.93809,-7.80864 2.81239,-53.73089 4.21717,-80.59493 1.40479,-26.86404 -0.93621,-5.62385 -1.40572,-8.43436 -0.46951,-2.81051 -16.24301,-15.30773 -24.36592,-22.96018 -8.1229,-7.65247 -58.72715,-19.36872 -88.09214,-29.05167 -29.36498,-9.68295 -9.68295,-12.80866 -14.52583,-19.21158 -4.84288,-6.40293 -54.35379,-19.05634 -81.53209,-28.58309 -27.1783,-9.52676 -0.93621,-16.86965 -1.40573,-25.30307 -0.46951,-8.43341 3.43716,-13.43343 5.15433,-20.14873 1.71717,-6.71531 -6.8715,-17.8068 -10.30866,-26.70879 -3.43715,-8.90199 8.74769,-12.18389 13.12011,-18.27444 4.37243,-6.09053 9.99721,-0.62569 14.99441,-0.93714 4.9972,-0.31145 7.81053,-2.50001 11.71438,-3.7486 3.90386,-1.2486 25.92877,3.74766 38.89175,5.6229 12.96297,1.87524 16.55726,-6.56099 24.83449,-9.84008 8.27722,-3.27909 19.36871,8.12103 29.05166,12.18295 9.68295,4.06193 24.67924,-8.12291 37.01744,-12.18295 12.33821,-4.06005 38.11173,4.37243 57.16618,6.56005 19.05445,2.18762 43.42224,-14.05819 65.13196,-21.08589 21.70971,-7.02769 0.93809,-4.68668 1.40572,-7.02862 0.46764,-2.34194 3.74954,-59.97857 5.6229,-89.96645 1.87337,-29.98787 -1.87336,-10.30959 -2.81145,-15.46298 -0.93808,-5.15339 -6.8715,-4.68669 -10.30865,-7.02863 -3.43716,-2.34194 -3.1229,-6.56099 -4.68575,-9.84008 -1.56286,-3.27909 29.17497,-46.14343 38.42484,-46.14343 h 18.69996"
         inkscape:path-effect="#path-effect4579"
         inkscape:connector-curvature="0"
         id="path4577"
         d="m 115.49081,161.4496 h 55.3442 c 10.85925,0 21.8787,-0.368 32.42006,2.24028 5.27067,1.30415 10.40603,3.45606 14.61842,6.88193 4.21239,3.42586 7.45192,8.23016 8.30432,13.59246 0.59604,3.74955 0.0222,7.58414 -0.76259,11.29879 -0.78476,3.71464 -1.78396,7.40544 -2.04886,11.19282 -0.40324,5.76516 0.90586,11.61732 -0.11825,17.30509 -0.51205,2.84389 -1.64555,5.63934 -3.63486,7.73518 -0.99466,1.04792 -2.19536,1.90816 -3.53216,2.45629 -1.3368,0.54813 -2.81053,0.77865 -4.24477,0.60417 -2.17263,-0.26431 -4.13309,-1.42344 -5.88727,-2.73226 -1.75418,-1.30882 -3.38513,-2.79887 -5.28218,-3.89036 -2.64528,-1.52199 -5.74318,-2.20686 -8.79233,-2.07802 -3.04916,0.12883 -6.04518,1.05628 -8.70448,2.55363 -5.3186,2.99472 -9.16874,8.16467 -11.53456,13.79128 -4.73164,11.25321 -3.91069,23.99032 -6.37247,35.94702 -1.54553,7.50654 -4.39741,14.74302 -5.29627,22.35412 -0.44943,3.80555 -0.39715,7.70513 0.55326,11.41739 0.95041,3.71227 2.8375,7.23626 5.68016,9.80598 3.70336,3.34777 8.69938,4.84749 13.5925,5.83737 4.89312,0.98987 9.92518,1.58696 14.52202,3.53413 5.25215,2.22475 9.68884,6.14506 13.01105,10.78161 3.32221,4.63654 5.57513,9.97288 7.13768,15.4586 2.7221,9.55663 3.39691,19.70085 1.8743,29.52025 -0.36011,2.32237 -0.8585,4.67231 -2.03469,6.70693 -0.58809,1.0173 -1.3445,1.94512 -2.27139,2.66736 -0.92689,0.72225 -2.02826,1.23408 -3.19112,1.40293 -1.07283,0.15578 -2.18073,0.0172 -3.20077,-0.34991 -1.02004,-0.36708 -1.95321,-0.95866 -2.75648,-1.68667 -1.60654,-1.45601 -2.6725,-3.42328 -3.41426,-5.46062 -1.92583,-5.28951 -1.81228,-11.06806 -1.78539,-16.69718 0.0269,-5.62913 -0.0971,-11.44945 -2.43178,-16.57166 -1.41652,-3.10777 -3.63265,-5.85646 -6.4097,-7.84462 -2.77704,-1.98817 -6.11219,-3.20383 -9.52186,-3.40119 -3.3832,-0.19583 -6.81344,0.614 -9.76988,2.27046 -2.95644,1.65647 -5.43209,4.15039 -7.09883,7.10105 -2.62565,4.64824 -3.1813,10.26939 -2.32569,15.53894 0.85561,5.26955 3.0363,10.23889 5.60572,14.91845 1.60814,2.92883 3.38495,5.78911 4.53871,8.92487 1.15377,3.13577 1.64815,6.64039 0.61562,9.81814 -1.00384,3.08945 -3.32542,5.55348 -5.68918,7.78171 -2.36376,2.22822 -4.88553,4.39031 -6.49378,7.2127 -1.34607,2.36228 -1.97866,5.07922 -2.17469,7.79102 -0.19602,2.71179 0.028,5.43535 0.30039,8.14054 2.49727,24.79875 9.17361,49.33023 21.08588,71.22343 1.66633,3.06249 3.47796,6.12675 6.09148,8.43435 3.31621,2.92804 7.62947,4.3932 11.71438,6.09149 12.56637,5.22445 23.78362,13.1563 35.03108,20.8181 11.24746,7.6618 22.80544,15.19862 35.72379,19.47936 17.87901,5.92455 37.42014,5.29935 55.29187,11.24581 1.5374,0.51154 3.07271,1.0741 4.67897,1.28666 1.60626,0.21257 3.32091,0.0444 4.69253,-0.81809 0.94354,-0.59332 1.67528,-1.48516 2.19655,-2.47034 0.52126,-0.98519 0.84265,-2.0643 1.08348,-3.15256 0.87233,-3.94182 0.7175,-8.0495 0.12576,-12.04309 -0.59174,-3.99358 -1.61194,-7.909 -2.46863,-11.85425 -1.12635,-5.18704 -1.95812,-10.67191 -0.36102,-15.73386 0.79855,-2.53097 2.22016,-4.89896 4.25503,-6.60273 2.03487,-1.70377 4.70562,-2.70104 7.3518,-2.49789 2.32073,0.17816 4.51933,1.26023 6.26232,2.80279 1.74299,1.54257 3.05462,3.52584 4.04632,5.63156 2.38419,5.06244 2.96505,10.85659 2.26347,16.40821 -0.70158,5.55162 -2.63478,10.88777 -5.07492,15.92348 -1.53831,3.17461 -3.3111,6.33963 -3.7486,9.84008 -0.36815,2.94559 0.25271,5.9647 1.47917,8.668 1.22646,2.7033 3.03899,5.10887 5.08088,7.26356 5.28243,5.57424 12.0487,9.49427 18.86687,13.02822 6.81817,3.53395 13.8369,6.7896 20.02488,11.33769 5.17687,3.80493 9.67424,8.44388 14.53177,12.64886 4.85754,4.20498 10.22411,8.05182 16.3942,9.84275 4.15378,1.20567 8.52477,1.43665 12.75403,2.3427 2.11462,0.45302 4.20466,1.07975 6.13445,2.05585 1.92979,0.97611 3.70013,2.31413 5.00885,4.0358 1.20792,1.58907 1.99495,3.46379 2.54102,5.38369 0.54607,1.9199 0.86162,3.89628 1.20758,5.86212 2.0538,11.67007 5.22176,23.1683 6.28575,34.96985 1.06399,11.80155 -0.1552,24.23902 -6.28575,34.37929 -1.31806,2.18015 -2.8592,4.24172 -4.72904,5.97205 -1.86985,1.73033 -4.0801,3.12437 -6.51677,3.86802 -3.74805,1.14387 -7.80361,0.69889 -11.61217,-0.22371 -3.80856,-0.9226 -7.50122,-2.30897 -11.34801,-3.05631 -2.16474,-0.42056 -4.43145,-0.63134 -6.55455,-0.0352 -1.06156,0.29807 -2.07354,0.79985 -2.90675,1.52201 -0.8332,0.72216 -1.48202,1.67006 -1.78451,2.73036 -0.41532,1.45579 -0.157,3.04877 0.49345,4.4158 0.65044,1.36702 1.66855,2.52928 2.78658,3.54998 2.91038,2.65702 6.50167,4.42212 9.82345,6.54245 1.66089,1.06016 3.26885,2.2207 4.668,3.6081 1.39915,1.38741 2.58862,3.01199 3.31441,4.84386 0.85342,2.15401 1.03504,4.58858 0.39231,6.81456 -0.64273,2.22598 -2.12899,4.21936 -4.14091,5.3684 -1.71092,0.97713 -3.74332,1.32548 -5.70549,1.14674 -1.96217,-0.17873 -3.85686,-0.86543 -5.57305,-1.83328 -3.43237,-1.93571 -6.11777,-4.92782 -8.8702,-7.74781 -14.63232,-14.9915 -33.54769,-26.6192 -54.35473,-29.05167 -2.22307,-0.25989 -4.50794,-0.41073 -6.67215,0.16006 -1.0821,0.28539 -2.12331,0.75315 -3.01086,1.4348 -0.88756,0.68164 -1.61745,1.58257 -2.03136,2.62232 -0.3869,0.9719 -0.49078,2.04378 -0.38192,3.08418 0.10886,1.0404 0.42505,2.05163 0.85049,3.00729 1.08052,2.42715 2.86,4.49982 4.92002,6.17757 2.06003,1.67776 4.39972,2.98033 6.79436,4.13109 6.18149,2.97055 12.90298,5.04107 18.31596,9.25231 2.70649,2.10562 5.04977,4.75671 6.42507,7.89794 1.37529,3.14122 1.72008,6.79947 0.56203,10.02711 -0.69069,1.92504 -1.95305,3.70657 -3.7486,4.68576 -1.11391,0.60747 -2.3939,0.88511 -3.66264,0.87432 -1.26874,-0.0108 -2.5266,-0.30355 -3.70288,-0.77914 -2.35256,-0.95117 -4.34843,-2.6022 -6.22316,-4.31236 -14.0751,-12.83956 -23.68265,-30.40994 -39.36032,-41.23462 -2.06827,-1.42804 -4.25074,-2.73676 -6.64134,-3.5127 -2.3906,-0.77594 -5.01885,-0.99163 -7.41591,-0.2359 -1.66551,0.52509 -3.1825,1.51399 -4.33312,2.82766 -1.15061,1.31367 -1.93122,2.94844 -2.22694,4.66954 -0.31472,1.83166 -0.0825,3.73565 0.52773,5.49113 0.61019,1.75548 1.5889,3.36819 2.75229,4.81752 3.50068,4.36107 8.63728,7.27046 11.75767,11.91124 1.5602,2.32039 2.56857,5.11444 2.28558,7.89623 -0.1415,1.39089 -0.6092,2.75639 -1.41106,3.90165 -0.80185,1.14527 -1.94357,2.06222 -3.26067,2.5311 -1.03879,0.36981 -2.16918,0.45795 -3.26205,0.31138 -1.09287,-0.14657 -2.1488,-0.52368 -3.11702,-1.05131 -1.93644,-1.05525 -3.49783,-2.6854 -4.86674,-4.4144 -3.62025,-4.57254 -6.07504,-9.93473 -8.60394,-15.19011 -2.5289,-5.25538 -5.21956,-10.53781 -9.20192,-14.7987 -6.57395,-7.03373 -16.00973,-10.60535 -25.30306,-13.12011 -2.34586,-0.63479 -4.74853,-1.22175 -7.17559,-1.09754 -1.21353,0.0621 -2.42453,0.30549 -3.538,0.79201 -1.11347,0.48652 -2.12754,1.22187 -2.87509,2.17983 -1.01027,1.29463 -1.49635,2.95385 -1.51888,4.59587 -0.0225,1.64201 0.39745,3.26881 1.0503,4.77563 1.94219,4.4827 5.8208,7.83347 8.25064,12.07171 1.21492,2.11911 2.06668,4.51345 1.99314,6.95502 -0.0368,1.22079 -0.30818,2.4402 -0.8472,3.53616 -0.53902,1.09596 -1.35014,2.0651 -2.36795,2.74018 -1.29234,0.85717 -2.87887,1.21432 -4.42862,1.15811 -1.54975,-0.0562 -3.0664,-0.50797 -4.47431,-1.15811 -4.05863,-1.87419 -7.17446,-5.31597 -9.81622,-8.92239 -2.64175,-3.60641 -4.94484,-7.48449 -7.98964,-10.75777 -6.43905,-6.92223 -15.86927,-10.62759 -25.30306,-11.24581 -6.60932,-0.43313 -13.42236,0.59623 -19.2484,3.74709 -5.82604,3.15087 -10.56882,8.56298 -12.14614,14.99592 -1.59773,6.51617 0.16417,13.58608 3.89867,19.15983 3.7345,5.57375 9.28871,9.74996 15.31291,12.70329 5.91098,2.89783 12.47766,4.79889 17.39441,9.17642 2.45838,2.18876 4.44067,5.01252 5.19214,8.21714 0.37574,1.60231 0.43765,3.28423 0.11799,4.89866 -0.31965,1.61443 -1.02598,3.15866 -2.08723,4.41656 -1.07669,1.2762 -2.50638,2.24208 -4.07359,2.81809 -1.56721,0.57601 -3.26796,0.76639 -4.93014,0.60794 -3.32436,-0.31689 -6.42333,-2.01944 -8.80213,-4.36318 -3.96853,-3.91004 -5.98916,-9.40839 -9.68261,-13.57926 -1.84673,-2.08543 -4.16967,-3.84646 -6.86652,-4.54391 -1.34842,-0.34873 -2.77511,-0.4227 -4.14009,-0.14579 -1.36498,0.27691 -2.66511,0.91146 -3.67669,1.86883 -1.33364,1.26217 -2.11184,3.02323 -2.48209,4.82173 -0.37025,1.79849 -0.36298,3.65103 -0.32936,5.48693 0.235,12.83332 1.70617,25.73131 5.6229,37.95459 2.05248,6.40534 4.82629,12.69074 9.16342,17.83178 4.33714,5.14104 10.39226,9.06723 17.0768,9.81416 5.95025,0.66488 11.85972,-1.17363 17.80586,-1.8743 8.48126,-0.9994 17.07597,0.32842 25.37413,2.34613 8.29817,2.01771 16.42212,4.72552 24.76341,6.55679 7.22793,1.58684 14.62487,2.51053 22.02304,2.34288 23.47039,-0.53188 45.29051,-11.8647 68.41199,-15.93155 12.69368,-2.2327 25.82249,-2.24021 38.42316,0.46857 10.62006,2.28301 20.73159,6.44523 31.14002,9.55365 10.40844,3.10841 21.45383,5.16701 32.11763,3.09788 9.22328,-1.78962 17.61108,-6.55706 26.7088,-8.90293 10.44076,-2.69218 21.65687,-2.07134 31.86311,1.40572 5.17029,1.76141 10.09016,4.2328 15.33589,5.7549 2.62287,0.76105 5.32937,1.28175 8.05996,1.33134 2.7306,0.0496 5.49067,-0.38238 7.99869,-1.46333 4.72203,-2.03518 8.18716,-6.16778 11.13254,-10.38254 2.94539,-4.21476 5.61584,-8.72221 9.48477,-12.10907 5.05894,-4.42859 11.67306,-6.52772 17.78994,-9.3186 3.05844,-1.39544 6.05053,-3.00061 8.63985,-5.14461 2.58932,-2.14401 4.77144,-4.86243 5.9019,-8.0284 1.03919,-2.91036 1.15412,-6.09409 0.70322,-9.15134 -0.45091,-3.05725 -1.44879,-6.00789 -2.58933,-8.88004 -2.28109,-5.74431 -5.19282,-11.41386 -5.61109,-17.58034 -0.37167,-5.47943 1.27557,-10.90677 3.45169,-15.94928 2.17611,-5.0425 4.89633,-9.84656 6.85696,-14.97669 4.30217,-11.25694 4.77222,-23.65849 3.53316,-35.64565 -1.23906,-11.98717 -4.11931,-23.73399 -6.34461,-35.57778 -4.32719,-23.03077 -6.05978,-47.47367 2.34288,-69.34914 1.46209,-3.8064 3.22618,-7.52073 4.16755,-11.48812 0.47069,-1.9837 0.73136,-4.02713 0.62838,-6.0633 -0.10299,-2.03617 -0.57724,-4.06749 -1.51591,-5.87733 -1.03636,-1.9982 -2.61764,-3.68495 -4.4367,-5.01079 -1.81906,-1.32584 -3.87334,-2.3029 -5.9904,-3.06766 -4.23413,-1.52953 -8.72584,-2.22714 -13.00166,-3.63593 -9.73011,-3.20587 -17.85349,-9.8997 -25.77163,-16.40014 -1.71295,-1.40625 -3.43981,-2.81816 -5.37836,-3.89228 -1.93856,-1.07412 -4.12095,-1.80263 -6.33602,-1.73062 -1.74892,0.0568 -3.46581,0.61516 -4.97014,1.509 -1.50432,0.89385 -2.8005,2.1161 -3.86778,3.50277 -2.13455,2.77335 -3.3373,6.14435 -4.28219,9.51406 -3.7605,13.41081 -3.91659,27.58951 -2.73884,41.4677 1.17774,13.87819 3.65658,27.61514 5.08171,41.47011 0.70791,6.88217 1.15688,13.80125 2.34288,20.61732 2.095,12.04018 6.44879,23.54761 10.30866,35.14314 2.30933,6.93752 4.47435,14.22829 3.37804,21.45742 -0.54815,3.61456 -1.94427,7.14581 -4.30929,9.93368 -2.36502,2.78787 -5.74084,4.78238 -9.37741,5.15777 -2.51675,0.2598 -5.09462,-0.25548 -7.36444,-1.37327 -2.26982,-1.11779 -4.23234,-2.82616 -5.73556,-4.86132 -3.00643,-4.07032 -4.11029,-9.33402 -3.76871,-14.38273 0.44669,-6.60243 3.17562,-12.80244 5.7513,-18.89814 2.57567,-6.09571 5.07674,-12.43912 5.02593,-19.05645 -0.0462,-6.02224 -2.21233,-11.82522 -4.76885,-17.27808 -2.55653,-5.45287 -5.54371,-10.73473 -7.4141,-16.45934 -2.45402,-7.51088 -2.89983,-15.52764 -2.81145,-23.42876 0.30126,-26.93288 6.56561,-53.76294 4.21717,-80.59493 -0.24894,-2.84424 -0.59766,-5.69599 -1.40572,-8.43436 -1.63596,-5.54396 -5.12883,-10.4371 -9.47157,-14.25187 -4.34274,-3.81478 -9.51236,-6.59973 -14.89435,-8.70831 -14.67184,-5.74821 -30.7249,-6.55314 -46.25503,-9.22144 -7.76507,-1.33415 -15.49266,-3.16182 -22.73174,-6.27178 -7.23909,-3.10996 -14.00207,-7.55574 -19.10537,-13.55845 -5.21049,-6.1288 -8.61375,-13.75643 -14.52583,-19.21158 -5.48633,-5.06231 -12.74378,-7.8473 -20.07496,-9.25462 -7.33118,-1.40733 -14.83618,-1.54402 -22.28884,-1.97358 -7.45267,-0.42956 -14.98422,-1.17701 -21.99929,-3.72959 -7.01506,-2.55257 -13.54474,-7.09908 -17.169,-13.6253 -2.10867,-3.79709 -3.16334,-8.13608 -3.31075,-12.4769 -0.14741,-4.34081 0.5935,-8.6856 1.90502,-12.82617 1.0554,-3.33199 2.47574,-6.53802 3.57343,-9.85632 1.09769,-3.31829 1.87501,-6.80966 1.5809,-10.29241 -0.40466,-4.79182 -2.7833,-9.16222 -5.12103,-13.36464 -2.33774,-4.20241 -4.73636,-8.55649 -5.18763,-13.34415 -0.38427,-4.0769 0.73711,-8.28259 3.11905,-11.61352 2.38195,-3.33094 6.00753,-5.75508 10.00106,-6.66092 4.89423,-1.11014 10.06659,0.0128 14.99441,-0.93714 4.03072,-0.77702 7.69746,-2.90313 11.71438,-3.7486 3.24346,-0.68268 6.62092,-0.50542 9.87887,0.1044 3.25795,0.60983 6.41928,1.64316 9.56875,2.6761 3.14947,1.03294 6.30884,2.07118 9.56485,2.69127 3.256,0.62009 6.63158,0.81334 9.87928,0.15113 4.39861,-0.89688 8.31662,-3.29414 12.23681,-5.48145 3.92018,-2.1873 8.10994,-4.24761 12.59768,-4.35863 2.65526,-0.0657 5.29388,0.56394 7.76073,1.5485 2.46685,0.98457 4.77795,2.31872 7.04007,3.71066 4.52425,2.78389 9.04199,5.88142 14.25086,6.92379 3.24149,0.64867 6.61487,0.45882 9.8427,-0.25474 3.22783,-0.71356 6.32258,-1.94005 9.30919,-3.35717 5.97321,-2.83425 11.60049,-6.45888 17.86555,-8.57104 9.23738,-3.11423 19.32892,-2.74149 28.90723,-0.92947 9.57832,1.81203 18.83236,5.00619 28.25895,7.48952 12.24846,3.22672 25.19834,5.24703 37.5446,2.41749 6.17314,-1.41477 12.11073,-4.05963 17.02498,-8.05454 4.91426,-3.9949 8.7693,-9.3748 10.56238,-15.44884 0.67706,-2.29351 1.05975,-4.66242 1.40572,-7.02862 4.34894,-29.74394 3.13814,-60.00912 5.6229,-89.96645 0.22308,-2.68952 0.47584,-5.39825 0.17987,-8.08073 -0.29598,-2.68248 -1.18729,-5.37507 -2.99132,-7.38225 -1.39615,-1.55336 -3.24954,-2.60943 -5.08584,-3.60451 -1.83629,-0.99508 -3.71768,-1.9761 -5.22281,-3.42412 -1.32778,-1.2774 -2.31424,-2.87803 -3.0452,-4.56932 -0.73096,-1.69129 -1.2161,-3.47783 -1.64055,-5.27076 -1.39389,-5.8879 -2.14599,-11.99387 -1.4178,-18.00054 0.72819,-6.00667 3.00997,-11.87084 6.85928,-16.53916 3.84931,-4.66831 9.20016,-8.01019 14.9977,-9.74191 5.79755,-1.73171 11.93501,-1.86182 17.98566,-1.86182 h 18.69996"
         style="opacity:1;vector-effect:none;fill:none;fill-opacity:1;stroke:#000000;stroke-width:3.74999976;stroke-linecap:butt;stroke-linejoin:miter;stroke-miterlimit:4;stroke-dasharray:none;stroke-dashoffset:0;stroke-opacity:1" />
      <path
         sodipodi:nodetypes="ccsccsssssccssccsssssssssc"
         inkscape:original-d="m 631.75134,142.6996 h -25.75951 c -25.23642,1.48759 -54.98511,47.94932 -48.97636,55.76311 4.99686,6.49791 -5.80171,13.34656 -9.86362,18.03325 -4.06193,4.68669 -11.86964,6.8715 -17.80586,10.30866 -5.93623,3.43715 4.17674,-11.60678 -5.66429,-14.2611 -9.84101,-2.65432 -53.21907,6.29438 -67.90202,6.29532 -14.68297,9.4e-4 -10.30772,1.87336 -15.46299,2.81145 -5.15526,0.93809 1.25047,6.8715 1.8743,10.30865 0.62383,3.43716 12.49629,13.74394 18.74302,20.61731 6.24673,6.87338 4.06191,16.86778 6.09147,25.30306 2.02955,8.4353 -12.80679,1.2486 -19.21158,1.87431 -6.4048,0.6257 -6.24674,-9.68482 -9.37151,-14.52583 -3.12477,-4.84102 -9.37057,-23.74209 -14.05725,-35.61172 -4.68669,-11.86964 -9.37058,-7.18576 -14.05726,-10.77723 -4.68669,-3.59147 -5.93435,3.43528 -8.90293,5.15432 -2.96859,1.71905 -7.49627,23.11545 -11.24581,34.67458 -3.74953,11.55912 -14.99347,28.42595 -22.49161,42.64034 -7.49814,14.21438 -9.05818,-9.37244 -13.58868,-14.05726 -4.53049,-4.68481 10.93436,-18.11918 16.40013,-27.17736 5.46578,-9.05819 -0.2167,-41.09427 -1.15479,-54.68202 -0.93809,-13.58774 -25.39687,8.9169 -37.26837,6.41877 -11.87152,-2.49813 -38.75413,1.37148 -52.49994,3.7153 -13.74581,2.34381 -12.78727,-17.6173 -24.81497,-28.08121 -6.01386,-5.23195 -39.96752,-44.7447 -74.32075,-44.7447 h -64.12925"
         inkscape:path-effect="#path-effect4583"
         inkscape:connector-curvature="0"
         id="path4581"
         d="m 631.75134,142.6996 h -25.75951 c -7.02403,0 -14.19266,0.24344 -20.77208,2.70276 -6.57942,2.45931 -12.31204,7.07119 -16.18829,12.92881 -3.87625,5.85761 -5.89717,12.74178 -7.28111,19.62812 -1.38394,6.88634 -2.24653,13.93493 -4.73488,20.50342 -2.43098,6.41705 -6.34859,12.1398 -9.86362,18.03325 -1.9862,3.33015 -3.93196,6.82527 -6.99761,9.19944 -1.53282,1.18709 -3.33746,2.06266 -5.25794,2.32815 -1.92047,0.26549 -3.95819,-0.11265 -5.55031,-1.21893 -1.07446,-0.74658 -1.91666,-1.79579 -2.53588,-2.94835 -0.61923,-1.15256 -1.02438,-2.40904 -1.33156,-3.68084 -0.61437,-2.5436 -0.85421,-5.19084 -1.79685,-7.63191 -1.13438,-2.93762 -3.26654,-5.44831 -5.87546,-7.21182 -2.60893,-1.76351 -5.67759,-2.79717 -8.80401,-3.1739 -6.25286,-0.75345 -12.55792,1.07179 -18.28562,3.69083 -5.72769,2.61904 -11.06016,6.03316 -16.74732,8.73909 -5.68717,2.70593 -11.90888,4.71831 -18.18961,4.25112 -2.78162,-0.20691 -5.53287,-0.89719 -8.3205,-0.80061 -1.39381,0.0483 -2.79477,0.29938 -4.06158,0.8827 -1.2668,0.58332 -2.39511,1.51498 -3.08091,2.72936 -0.90512,1.60273 -0.97411,3.57893 -0.52214,5.36322 0.45196,1.7843 1.38303,3.40888 2.39644,4.94543 5.12186,7.76587 12.46644,13.75096 18.74302,20.61731 3.18203,3.48102 6.15633,7.30476 7.63984,11.78159 0.74175,2.23842 1.09379,4.62128 0.8765,6.96937 -0.21729,2.34808 -1.01814,4.65953 -2.42487,6.5521 -2.13082,2.86673 -5.60238,4.63038 -9.1643,4.89744 -3.56191,0.26706 -7.17084,-0.90543 -10.04728,-3.02313 -2.35308,-1.73239 -4.22349,-4.05705 -5.71089,-6.57217 -1.48739,-2.51511 -2.60949,-5.22726 -3.66062,-7.95366 -4.59548,-11.91969 -7.96567,-24.38274 -14.05725,-35.61172 -1.49255,-2.7513 -3.17753,-5.45868 -5.51493,-7.54049 -1.1687,-1.0409 -2.4953,-1.91526 -3.94809,-2.49728 -1.45279,-0.58202 -3.03436,-0.86644 -4.59424,-0.73946 -1.74995,0.14245 -3.43382,0.79788 -4.92206,1.72943 -1.48823,0.93155 -2.79139,2.13347 -3.98087,3.42489 -4.20784,4.56848 -7.04117,10.28849 -8.74989,16.25986 -1.70873,5.97136 -2.33254,12.20583 -2.49592,18.41472 -0.23972,9.11033 0.45976,18.47895 -2.49249,27.10101 -1.47613,4.31102 -3.89779,8.37018 -7.38009,11.30915 -3.48229,2.93897 -8.08401,4.67456 -12.61903,4.23018 -3.52078,-0.345 -6.89085,-2.00421 -9.34003,-4.55693 -2.44919,-2.55273 -3.96447,-5.97412 -4.24865,-9.50033 -0.21956,-2.72439 0.27669,-5.48056 1.24106,-8.038 0.96438,-2.55745 2.38787,-4.92438 4.0309,-7.10863 3.28608,-4.3685 7.42815,-8.00681 11.12817,-12.03073 7.23783,-7.87142 12.9274,-17.71129 13.52637,-28.38774 0.29948,-5.33823 -0.71524,-10.78904 -3.22255,-15.51131 -2.50732,-4.72226 -6.54436,-8.67666 -11.45861,-10.78297 -5.97304,-2.56013 -12.83849,-2.28684 -19.13262,-0.66962 -6.29414,1.61722 -12.17784,4.49324 -18.13575,7.08839 -8.32973,3.62827 -16.97742,6.75867 -25.99402,7.8766 -9.01659,1.11793 -18.48663,0.1095 -26.50592,-4.1613 -5.58288,-2.97325 -10.27715,-7.41335 -14.24724,-12.33749 -3.97008,-4.92415 -7.26473,-10.34938 -10.56773,-15.74372 -4.02508,-6.57361 -8.10526,-13.14129 -12.94659,-19.13922 -4.84132,-5.99794 -10.47689,-11.40441 -16.97208,-15.55486 -6.49519,-4.15044 -13.80787,-6.97943 -21.3727,-8.45829 -7.56483,-1.47886 -15.32136,-1.59233 -23.02938,-1.59233 h -64.12925"
         style="opacity:1;vector-effect:none;fill:none;fill-opacity:1;stroke:#000000;stroke-width:3.74999976;stroke-linecap:butt;stroke-linejoin:miter;stroke-miterlimit:4;stroke-dasharray:none;stroke-dashoffset:0;stroke-opacity:1" />
      <path
         sodipodi:nodetypes="scsssccccscscscssscssssccs"
         inkscape:original-d="m 234.61216,284.43937 c -5.93622,1.25047 -44.07495,-25.96722 -52.19785,-33.15111 -8.12291,-7.18388 14.98726,17.43625 8.89484,21.18579 -6.09241,3.74954 4.09983,29.14547 5.817,42.89129 1.71717,13.74581 11.24674,-9.68483 16.86871,-14.52584 5.62196,-4.841 9.3e-4,-3.43715 0,-5.15432 -9.4e-4,-1.71718 2.81239,-1.25048 4.21717,-1.87431 1.40479,-0.62382 21.24302,5.93436 31.86312,8.90293 10.6201,2.96859 -0.31145,7.80865 -0.46857,11.71438 -0.15714,3.90574 0.93808,3.74767 1.40572,5.62291 0.46764,1.87524 6.56099,1.24859 9.84008,1.8743 3.27909,0.6257 1.87524,9.68295 2.81145,14.52583 0.93621,4.84288 -9.37057,29.67549 -14.05725,44.51465 -4.6867,14.83915 4.06192,11.24487 6.09147,16.8687 2.02955,5.62384 -15.93062,16.24301 -23.89733,24.36592 -7.96672,8.1229 -20.92876,-4.68669 -31.39455,-7.02863 -10.46578,-2.34194 0.93809,12.4944 1.40573,18.74301 0.46764,6.24861 26.24115,-1.56286 39.36032,-2.34288 13.11917,-0.78002 7.49814,4.68482 11.24581,7.02863 3.74766,2.34381 8.1229,-4.68669 12.18295,-7.02863 4.06005,-2.34194 6.87337,-35.61265 10.30866,-53.41757 3.43528,-17.80493 12.80865,-34.67551 19.21158,-52.01186 6.40292,-17.33634 -11.55725,-15.30772 -17.33728,-22.96018 -5.78003,-7.65246 -1.87337,-13.43343 -2.81146,-20.14874 -0.93808,-6.7153 -14.36869,-1.56285 -21.55445,-2.34288 -7.18576,-0.78001 -11.86964,2.49814 -17.80587,3.74861 z"
         inkscape:path-effect="#path-effect4587"
         inkscape:connector-curvature="0"
         id="path4585"
         d="m 234.61216,284.43937 c -3.14755,-0.54941 -6.07085,-2.0999 -8.50753,-4.16666 -2.43669,-2.06676 -4.40876,-4.63674 -6.06059,-7.37177 -3.30366,-5.47005 -5.36423,-11.60542 -8.51186,-17.16672 -1.57382,-2.78064 -3.43077,-5.42652 -5.7467,-7.62774 -2.31592,-2.20123 -5.11228,-3.9489 -8.20194,-4.7631 -3.08965,-0.81421 -6.48078,-0.64863 -9.35606,0.7448 -1.43765,0.69671 -2.73436,1.69209 -3.74829,2.92666 -1.01394,1.23458 -1.74124,2.70898 -2.06488,4.27342 -0.39696,1.91887 -0.1826,3.93051 0.39447,5.80311 0.57707,1.87261 1.50589,3.61903 2.54352,5.28125 2.07526,3.32443 4.6318,6.41323 5.95685,10.10143 1.29194,3.59605 1.31911,7.53249 0.86137,11.32606 -0.45774,3.79356 -1.38137,7.51577 -1.94697,11.29476 -0.56561,3.77899 -0.76447,7.68716 0.2158,11.38036 0.49013,1.8466 1.27634,3.62356 2.3975,5.17054 1.12116,1.54699 2.5832,2.8597 4.2893,3.71957 2.05956,1.03802 4.44989,1.39115 6.72898,1.03754 2.27909,-0.3536 4.43856,-1.40598 6.15212,-2.94967 1.71357,-1.54369 2.97983,-3.56968 3.6604,-5.77334 0.68057,-2.20365 0.77867,-4.57863 0.32721,-6.84037 -0.17311,-0.86726 -0.42579,-1.72162 -0.50822,-2.60214 -0.0824,-0.88051 0.0217,-1.8137 0.50822,-2.55218 0.43684,-0.66301 1.14469,-1.10972 1.89159,-1.3791 0.74689,-0.26937 1.5402,-0.37858 2.32558,-0.49521 6.03141,-0.89565 12.11454,-2.32735 18.1588,-1.52296 3.02213,0.40219 6.004,1.3844 8.49552,3.14147 2.49153,1.75708 4.46451,4.32789 5.2088,7.28442 0.47988,1.9062 0.44537,3.90596 0.24725,5.86162 -0.19812,1.95566 -0.55635,3.89357 -0.71582,5.85276 -0.0811,0.99579 -0.10985,2.00574 0.0792,2.98677 0.18907,0.98104 0.61089,1.93895 1.3265,2.63614 0.61072,0.59499 1.40789,0.9741 2.23421,1.18429 0.82633,0.21019 1.68513,0.25982 2.53775,0.26342 1.70526,0.007 3.46607,-0.15769 5.06812,0.42659 1.29725,0.47312 2.39673,1.4231 3.14561,2.58322 0.74888,1.16013 1.15816,2.52131 1.28354,3.89644 0.25076,2.75027 -0.60116,5.47839 -1.6177,8.04617 -2.92461,7.38758 -7.27083,14.12749 -10.51649,21.37976 -1.62283,3.62613 -2.97304,7.39514 -3.68652,11.30325 -0.71348,3.90812 -0.77704,7.96759 0.14576,11.83164 1.39123,5.82555 4.94868,10.98936 6.09147,16.8687 1.28102,6.59049 -0.79229,13.76755 -5.46826,18.58532 -2.33799,2.40889 -5.27763,4.2318 -8.47919,5.24119 -3.20157,1.0094 -6.65896,1.20181 -9.94988,0.53941 -5.49226,-1.10549 -10.22318,-4.45501 -15.33149,-6.75549 -2.55416,-1.15024 -5.25832,-2.05134 -8.05322,-2.23931 -2.79489,-0.18797 -5.69947,0.3822 -8.00984,1.96617 -1.54273,1.05768 -2.78355,2.54633 -3.56392,4.24625 -0.78037,1.69992 -1.10033,3.6059 -0.9374,5.46927 0.16293,1.86338 0.80639,3.68035 1.83606,5.24192 1.02968,1.56156 2.44218,2.86596 4.07099,3.78557 2.95063,1.6659 6.49764,2.02412 9.86275,1.62731 3.36511,-0.39682 6.60133,-1.49994 9.80231,-2.61131 3.20098,-1.11137 6.42329,-2.24454 9.78024,-2.70535 3.35694,-0.46081 6.90311,-0.20589 9.91502,1.34647 1.982,1.02154 3.64506,2.55166 5.38943,3.94055 1.74437,1.38889 3.66398,2.68156 5.85638,3.08808 2.44792,0.4539 5.01906,-0.26956 7.10592,-1.62726 2.08687,-1.3577 3.73079,-3.30709 5.07703,-5.40137 4.94949,-7.69964 6.03507,-17.2055 6.51697,-26.34606 0.4819,-9.14055 0.53095,-18.51876 3.79169,-27.07151 3.4354,-9.01088 10.14053,-16.32843 15.13264,-24.57929 2.49605,-4.12543 4.58994,-8.55834 5.52315,-13.28894 0.93321,-4.7306 0.64195,-9.79651 -1.44421,-14.14363 -2.09633,-4.36832 -5.80361,-7.70418 -9.26153,-11.09824 -3.45792,-3.39406 -6.86947,-7.16921 -8.07575,-11.86194 -0.85624,-3.33099 -0.52157,-6.83226 -0.49467,-10.27143 0.0135,-1.71959 -0.0526,-3.44827 -0.38422,-5.13564 -0.33159,-1.68736 -0.93768,-3.33905 -1.93257,-4.74167 -1.12772,-1.58989 -2.7315,-2.8166 -4.51256,-3.60865 -1.78106,-0.79205 -3.73482,-1.16004 -5.6836,-1.20199 -3.89756,-0.0839 -7.70543,1.10591 -11.35829,2.46776 -2.8789,1.07331 -5.7222,2.26407 -8.6879,3.067 -2.9657,0.80292 -6.09127,1.20993 -9.11797,0.68161 z"
         style="opacity:1;vector-effect:none;fill:none;fill-opacity:1;stroke:#000000;stroke-width:3.74999976;stroke-linecap:butt;stroke-linejoin:miter;stroke-miterlimit:4;stroke-dasharray:none;stroke-dashoffset:0;stroke-opacity:1" />
      <path
         sodipodi:nodetypes="ssccccssssssscscs"
         inkscape:original-d="m 288.49832,253.98198 c -4.06192,-4.37243 -20.30399,2.49813 -30.45739,3.7486 -10.1534,1.25047 -7.49627,4.06005 -11.2458,6.09148 -3.74954,2.03143 -6.8715,-9.06006 -10.30866,-13.58868 -3.43716,-4.52863 22.49255,-14.37058 33.73742,-21.55446 11.24486,-7.18389 6.87336,4.37243 10.30865,6.56005 3.43528,2.18762 30.30213,-3.43716 45.45179,-5.15433 15.14967,-1.71717 35.94511,-2.36791 42.81661,0.75686 6.8715,3.12477 -24.07265,12.36231 -25.01074,14.23755 -0.93809,1.87524 -13.43156,31.5498 -20.14874,47.3261 -6.71718,15.7763 9.68483,19.05446 14.52584,28.58309 4.841,9.52863 -10.93249,15.30585 -16.40014,22.96019 -5.46765,7.65433 -7.49627,-5.93623 -11.24581,-8.90294 -3.74953,-2.9667 0.62571,-18.11918 0.93715,-27.17736 0.31145,-9.05818 -10.93248,-7.49814 -16.40012,-11.2458 -5.46765,-3.74767 3.74953,-19.6811 5.6229,-29.52024 1.87336,-9.83915 -8.12104,-8.74768 -12.18296,-13.12011 z"
         inkscape:path-effect="#path-effect4591"
         inkscape:connector-curvature="0"
         id="path4589"
         d="m 288.49832,253.98198 c -4.97677,-1.91367 -10.41859,-2.6256 -15.71317,-1.99484 -5.29457,0.63076 -10.43071,2.60912 -14.74422,5.74344 -1.75682,1.27655 -3.37742,2.73933 -5.19189,3.93252 -1.81447,1.19318 -3.88257,2.12301 -6.05391,2.15896 -1.58594,0.0263 -3.16642,-0.43402 -4.5313,-1.2421 -1.36488,-0.80809 -2.51655,-1.95622 -3.39525,-3.27675 -1.7574,-2.64105 -2.39812,-5.89755 -2.38211,-9.06983 0.0201,-3.97948 1.02859,-7.95233 2.92436,-11.45128 1.89578,-3.49896 4.67659,-6.51624 8.01904,-8.67603 3.34246,-2.15978 7.24039,-3.45594 11.21177,-3.71042 3.97139,-0.25448 8.00723,0.53516 11.58225,2.28327 3.6619,1.7906 6.77638,4.52565 10.30865,6.56005 6.96348,4.01059 15.38198,5.12377 23.32734,3.92118 7.94535,-1.20259 15.44374,-4.60974 22.12445,-9.07551 3.87393,-2.58956 7.50017,-5.53696 11.39423,-8.09614 3.89406,-2.55919 8.12433,-4.74977 12.70511,-5.60391 4.58078,-0.85413 9.56929,-0.25329 13.4099,2.38544 1.9203,1.31936 3.5168,3.1303 4.48735,5.24839 0.97056,2.11809 1.29837,4.54285 0.82002,6.82308 -0.5202,2.47975 -1.96771,4.70887 -3.83741,6.41884 -1.86969,1.70997 -4.14599,2.92836 -6.51613,3.82399 -4.7403,1.79126 -9.8687,2.33663 -14.6572,3.99472 -9.07472,3.14225 -16.5887,10.38993 -20.27722,19.25667 -3.68852,8.86675 -3.55924,19.20235 0.12848,28.06943 2.06164,4.95718 5.14515,9.40734 7.98511,13.9635 2.83996,4.55617 5.493,9.35402 6.54073,14.61959 1.06146,5.33454 0.33141,11.13594 -2.64158,15.69064 -1.48649,2.27735 -3.51332,4.21278 -5.90311,5.51081 -2.38979,1.29803 -5.14238,1.94646 -7.85545,1.75874 -2.54434,-0.17604 -5.04207,-1.09423 -7.05514,-2.66019 -2.01306,-1.56595 -3.52602,-3.78045 -4.19067,-6.24275 -0.60643,-2.24663 -0.50894,-4.63255 -0.10218,-6.92376 0.40676,-2.29121 1.11407,-4.51619 1.72482,-6.76165 0.61076,-2.24545 1.12896,-4.53948 1.14286,-6.86647 0.0139,-2.327 -0.50847,-4.70897 -1.82835,-6.62548 -0.95391,-1.3851 -2.28567,-2.4762 -3.72381,-3.3481 -1.43814,-0.87189 -2.98925,-1.53836 -4.53173,-2.2086 -1.54248,-0.67023 -3.08866,-1.35064 -4.51145,-2.24737 -1.4228,-0.89673 -2.72787,-2.02435 -3.63313,-3.44173 -1.39768,-2.18837 -1.74096,-4.92899 -1.38824,-7.50155 0.35271,-2.57257 1.35128,-5.01133 2.47451,-7.35246 1.12322,-2.34112 2.38246,-4.62309 3.30902,-7.04878 0.92656,-2.4257 1.51563,-5.03684 1.22761,-7.61745 -0.34831,-3.12083 -1.98092,-6.01507 -4.21402,-8.22282 -2.2331,-2.20775 -5.03795,-3.77026 -7.96894,-4.89729 z"
         style="opacity:1;vector-effect:none;fill:none;fill-opacity:1;stroke:#000000;stroke-width:3.74999976;stroke-linecap:butt;stroke-linejoin:miter;stroke-miterlimit:4;stroke-dasharray:none;stroke-dashoffset:0;stroke-opacity:1" />
      <path
         inkscape:original-d="m 414.54505,268.03924 c -3.74954,-4.21625 -13.74393,29.98788 -20.61731,44.98322 -6.87337,14.99535 -24.36497,12.18201 -36.54887,18.27443 -12.18389,6.09242 12.80866,4.68482 19.21159,7.02864 6.40293,2.3438 26.55354,-16.86965 39.8289,-25.30307 13.27536,-8.43341 4.06192,4.68482 6.09147,7.02863 2.02956,2.34381 11.24675,16.243 16.86871,24.36591 5.62196,8.12291 16.24488,-9.06006 24.36592,-13.58868 8.12102,-4.52862 24.99161,-4.99908 37.48602,-7.49721 12.4944,-2.49812 -1.56099,-6.2486 -2.34288,-9.3715 -0.7819,-3.1229 -26.23927,-3.74954 -39.36032,-5.6229 -13.12104,-1.87337 -22.49068,-18.43157 -33.73742,-27.64595 -11.24674,-9.21436 -7.49626,-8.43528 -11.24581,-12.65152 z"
         inkscape:path-effect="#path-effect4595"
         inkscape:connector-curvature="0"
         id="path4593"
         d="m 414.54505,268.03924 c -2.24905,-0.51628 -4.6624,-0.13721 -6.72838,0.89067 -2.06597,1.02789 -3.79125,2.67835 -5.06296,4.60384 -2.54343,3.851 -3.25179,8.62954 -3.33701,13.24385 -0.0852,4.61432 0.3861,9.24546 -0.0781,13.83715 -0.23212,2.29584 -0.70171,4.57993 -1.56776,6.7188 -0.86604,2.13887 -2.13935,4.13258 -3.84306,5.68891 -2.7359,2.49923 -6.4112,3.73335 -10.06814,4.33176 -3.65693,0.59842 -7.38311,0.62664 -11.06203,1.07034 -3.67891,0.4437 -7.40706,1.34798 -10.43646,3.482 -1.5147,1.06701 -2.83119,2.43637 -3.73458,4.05399 -0.90339,1.61763 -1.38172,3.48841 -1.24766,5.33634 0.14665,2.02146 1.02819,3.96602 2.37855,5.47742 1.35036,1.5114 3.15359,2.5943 5.09539,3.17498 3.88361,1.16136 8.16929,0.29924 11.73765,-1.62376 3.73324,-2.01186 6.77805,-5.09533 9.47881,-8.36498 2.70075,-3.26965 5.11963,-6.77174 7.9535,-9.92671 2.83387,-3.15497 6.15449,-5.99631 10.10836,-7.5298 1.97694,-0.76674 4.09639,-1.19347 6.21615,-1.14081 2.11976,0.0527 4.23887,0.59362 6.07208,1.65923 2.71853,1.58023 4.6784,4.21958 6.09147,7.02863 2.3403,4.65232 3.36001,9.86752 5.56615,14.58494 1.10306,2.35871 2.51803,4.60336 4.41367,6.38852 1.89565,1.78516 4.30246,3.09132 6.88889,3.39245 2.36589,0.27545 4.77594,-0.29661 6.92972,-1.31373 2.15378,-1.01713 4.0762,-2.46407 5.89276,-4.00466 3.63314,-3.08117 7.05705,-6.66855 11.54344,-8.27029 3.24231,-1.15758 6.78645,-1.16904 10.20791,-0.78672 3.42146,0.38232 6.7935,1.14283 10.21896,1.48747 3.42546,0.34464 6.97709,0.25378 10.17941,-1.0102 1.60117,-0.632 3.09654,-1.55679 4.30997,-2.77775 1.21342,-1.22096 2.13815,-2.74362 2.56977,-4.41001 0.41849,-1.61568 0.36659,-3.33929 -0.0661,-4.95122 -0.43273,-1.61193 -1.23884,-3.11325 -2.27674,-4.42028 -2.14223,-2.69771 -5.23871,-4.53844 -8.5298,-5.55608 -3.29108,-1.01764 -6.77965,-1.25534 -10.22268,-1.14419 -6.88606,0.22231 -13.75708,1.80834 -20.60784,1.07737 -7.54035,-0.80455 -14.61516,-4.43194 -20.28704,-9.46523 -5.67189,-5.03328 -10.01791,-11.41889 -13.45038,-18.18072 -1.32283,-2.60592 -2.53027,-5.29589 -4.2751,-7.64031 -1.74483,-2.34442 -4.12234,-4.35736 -6.97071,-5.01121 z"
         style="opacity:1;vector-effect:none;fill:none;fill-opacity:1;stroke:#000000;stroke-width:3.74999976;stroke-linecap:butt;stroke-linejoin:miter;stroke-miterlimit:4;stroke-dasharray:none;stroke-dashoffset:0;stroke-opacity:1" />
      <path
         sodipodi:nodetypes="csscccccssscsssc"
         inkscape:original-d="m 543.40325,263.35348 c -2.50001,-5.93434 -13.43156,2.81052 -20.14874,4.21718 -6.71718,1.40666 -9.68295,14.3687 -14.52584,21.55446 -4.84288,7.18576 -10.30771,-8.12291 -15.46298,-12.18295 -5.15526,-4.06005 0.31332,-7.49814 0.46858,-11.24581 0.15525,-3.74766 -7.80865,-14.37058 -11.71438,-21.55446 -3.90574,-7.18388 17.98709,-17.31523 22.67191,-19.34479 4.68481,-2.02955 -0.96548,22.75653 6.99936,26.34987 7.96484,3.59335 34.52447,-11.69177 47.64364,-16.37658 13.11917,-4.68482 7.18576,21.8659 10.77723,32.80026 3.59148,10.93436 -6.8715,14.99347 -10.30866,22.49162 -3.43715,7.49813 6.56099,18.42968 9.84009,27.64593 3.27908,9.21625 -20.61638,9.37057 -30.92597,14.05726 -10.30959,4.68669 1.56286,-18.74395 2.34288,-28.11452 0.78002,-9.37056 6.56099,-14.99535 9.84008,-22.4916 3.27909,-7.49627 -4.9972,-11.87152 -7.4972,-17.80587 z"
         inkscape:path-effect="#path-effect4607"
         inkscape:connector-curvature="0"
         id="path4605"
         d="m 543.40325,263.35348 c -3.20505,-1.95427 -7.18584,-2.54577 -10.85092,-1.73412 -3.66507,0.81166 -6.9884,2.99189 -9.29782,5.9513 -2.73529,3.50515 -4.00419,7.89533 -5.81292,11.95691 -0.90437,2.03078 -1.96404,4.0121 -3.38598,5.72092 -1.42194,1.70882 -3.22901,3.14132 -5.32694,3.87663 -1.79404,0.6288 -3.76306,0.72812 -5.62255,0.33278 -1.85948,-0.39534 -3.60663,-1.27906 -5.06059,-2.50379 -2.90792,-2.44946 -4.55998,-6.21621 -4.77984,-10.01194 -0.2173,-3.75165 0.86525,-7.50887 0.46858,-11.24581 -0.43574,-4.10502 -2.61333,-7.81018 -4.99827,-11.17962 -2.38494,-3.36944 -5.05418,-6.59607 -6.71611,-10.37484 -1.4761,-3.35625 -2.1031,-7.1114 -1.59044,-10.74189 0.51266,-3.6305 2.19437,-7.11883 4.85962,-9.63672 2.66525,-2.51789 6.32167,-4.01198 9.98588,-3.88194 3.6642,0.13004 7.27467,1.94012 9.41685,4.91576 1.35348,1.88008 2.10144,4.13906 2.49897,6.42129 0.39753,2.28224 0.46246,4.60718 0.56599,6.92147 0.10353,2.31428 0.24877,4.64197 0.80105,6.89178 0.55227,2.2498 1.53658,4.43695 3.13335,6.11533 1.56876,1.64893 3.68021,2.74097 5.90463,3.22256 2.22441,0.4816 4.55628,0.36969 6.76771,-0.16843 4.42284,-1.07623 8.26954,-3.78173 11.73056,-6.73828 3.46101,-2.95655 6.67327,-6.23195 10.4443,-8.78129 3.77104,-2.54934 8.26673,-4.36007 12.79644,-3.91114 3.38561,0.33554 6.59857,1.9451 9.03492,4.31979 2.43636,2.37469 4.10859,5.48469 4.94103,8.78348 1.66486,6.59758 -0.017,13.68232 -3.19872,19.69699 -1.95241,3.69077 -4.44601,7.06829 -6.51458,10.69523 -2.06858,3.62694 -3.73405,7.62145 -3.79408,11.79639 -0.0709,4.93328 2.08712,9.60217 4.36818,13.97699 2.28105,4.37482 4.77528,8.78458 5.47191,13.66894 0.55078,3.86173 -0.0904,7.89495 -1.87194,11.36517 -1.78154,3.47023 -4.70393,6.35443 -8.22662,8.02985 -3.52268,1.67541 -7.62795,2.12012 -11.41208,1.17315 -3.78412,-0.94698 -7.21331,-3.29106 -9.41533,-6.51091 -2.79661,-4.08928 -3.51137,-9.347 -2.78782,-14.24799 0.72356,-4.90099 2.77353,-9.50912 5.1307,-13.86653 1.96049,-3.62412 4.14815,-7.12538 5.99373,-10.80935 1.84557,-3.68398 3.35581,-7.59114 3.84635,-11.68225 0.40512,-3.37873 0.0923,-6.87176 -1.14955,-10.03999 -1.24187,-3.16824 -3.44223,-5.99431 -6.34765,-7.76588 z"
         style="opacity:1;vector-effect:none;fill:none;fill-opacity:1;stroke:#000000;stroke-width:3.74999976;stroke-linecap:butt;stroke-linejoin:miter;stroke-miterlimit:4;stroke-dasharray:none;stroke-dashoffset:0;stroke-opacity:1" />
      <path
         inkscape:original-d="m 236.95504,474.68091 c -7.96671,-11.08867 -20.30399,-4.99907 -30.45739,-7.4972 -10.1534,-2.49813 -9.99533,-14.68296 -14.9944,-22.02304 -4.99908,-7.34007 -6.24674,3.43528 -9.37151,5.15433 -3.12477,1.71905 7.18576,14.68109 10.77723,22.02304 3.59147,7.34195 23.74208,12.80678 35.61172,19.21158 11.86963,6.40481 13.43343,21.24115 20.14873,31.86311 6.71531,10.62198 31.86405,17.49254 47.79468,26.24022 15.93062,8.74768 10.62197,-12.80866 15.93156,-19.21158 5.30957,-6.40293 -9.37057,-8.4353 -14.05726,-12.65154 -4.6867,-4.21623 -24.98974,-6.56099 -37.48602,-9.84007 -12.49628,-3.27909 -15.93062,-22.18017 -23.89734,-33.26885 z"
         inkscape:path-effect="#path-effect4611"
         inkscape:connector-curvature="0"
         id="path4609"
         d="m 236.95504,474.68091 c -4.81607,-2.2872 -10.36911,-2.1406 -15.69316,-2.42381 -2.66203,-0.14161 -5.33662,-0.40555 -7.89525,-1.15378 -2.55863,-0.74824 -5.01204,-2.00696 -6.86898,-3.91961 -1.6103,-1.65861 -2.71608,-3.74417 -3.57893,-5.88883 -0.86284,-2.14466 -1.50277,-4.3722 -2.31513,-6.53649 -0.81235,-2.16428 -1.8141,-4.291 -3.30393,-6.05862 -1.48982,-1.76762 -3.51591,-3.16044 -5.79641,-3.5391 -1.88193,-0.31248 -3.85936,0.0891 -5.51626,1.03457 -1.6569,0.94551 -2.993,2.41804 -3.85525,4.11976 -1.01795,2.009 -1.38101,4.3227 -1.16395,6.5644 0.21706,2.2417 0.99996,4.41113 2.14593,6.34996 2.29195,3.87766 5.94822,6.76568 9.79525,9.10868 5.78168,3.52129 12.12431,5.99655 18.30508,8.75797 6.18076,2.76143 12.31384,5.88204 17.30664,10.45361 4.65694,4.26404 8.15364,9.6401 11.19882,15.17147 3.04518,5.53137 5.69317,11.28213 8.94991,16.69164 5.00992,8.32159 11.56637,15.8819 19.86318,20.93276 8.29681,5.05085 18.45034,7.41836 27.9315,5.30746 4.50974,-1.00406 8.88923,-3.06382 12.0231,-6.45863 1.56693,-1.6974 2.80215,-3.71359 3.5101,-5.91251 0.70794,-2.19893 0.87932,-4.58098 0.39836,-6.84044 -0.68919,-3.2377 -2.69364,-6.10548 -5.24899,-8.20973 -2.55535,-2.10425 -5.63729,-3.49179 -8.80827,-4.44181 -6.26825,-1.87796 -12.89033,-2.11033 -19.37242,-3.00485 -6.48209,-0.89451 -13.13249,-2.59185 -18.1136,-6.83522 -5.28468,-4.50198 -7.99228,-11.23036 -10.93417,-17.51852 -1.47094,-3.14408 -3.05621,-6.25823 -5.13704,-9.03655 -2.08082,-2.77832 -4.69061,-5.22468 -7.82613,-6.71378 z"
         style="opacity:1;vector-effect:none;fill:none;fill-opacity:1;stroke:#000000;stroke-width:3.74999976;stroke-linecap:butt;stroke-linejoin:miter;stroke-miterlimit:4;stroke-dasharray:none;stroke-dashoffset:0;stroke-opacity:1" />
      <path
         inkscape:original-d="m 382.68194,512.63551 c -12.1839,-17.49254 -16.55538,-15.9325 -24.83448,-23.89734 -8.2791,-7.96484 -38.42224,-5.93622 -57.63477,-8.90293 -19.21251,-2.96671 -20.92874,-15.62011 -31.39454,-23.42876 -10.46578,-7.80865 -9.68295,2.49813 -14.52583,3.7486 -4.84288,1.25048 1.56286,7.18389 2.34288,10.77723 0.78002,3.59335 19.6811,8.74581 29.52024,13.12011 9.83914,4.37431 22.49255,9.68295 33.73742,14.52583 11.24487,4.84288 26.86591,4.37243 40.29746,6.56005 13.43156,2.18763 21.86779,34.04887 32.80028,51.0747 10.93248,17.02584 1.56285,11.86964 2.34287,17.80586 0.78003,5.93622 12.1839,3.1229 18.27443,4.68576 6.09055,1.56285 3.74954,-9.06007 5.62291,-13.58869 1.87336,-4.52862 -24.36498,-34.98788 -36.54887,-52.48042 z"
         inkscape:path-effect="#path-effect4615"
         inkscape:connector-curvature="0"
         id="path4613"
         d="m 382.68194,512.63551 c -3.90226,-4.27171 -7.41997,-8.88328 -11.33998,-13.13871 -3.92002,-4.25542 -8.30776,-8.19486 -13.4945,-10.75863 -8.79929,-4.34942 -19.02647,-4.37546 -28.84198,-4.34725 -9.81551,0.0282 -20.05829,-0.0776 -28.79279,-4.55568 -5.84561,-2.997 -10.56926,-7.73941 -15.34258,-12.25257 -4.77331,-4.51317 -9.86376,-8.97181 -16.05196,-11.17619 -2.58981,-0.92255 -5.39824,-1.42723 -8.09905,-0.9136 -1.3504,0.25682 -2.65883,0.76988 -3.78503,1.55804 -1.12621,0.78817 -2.0657,1.85608 -2.64175,3.10416 -0.81234,1.76003 -0.86902,3.813 -0.37888,5.68846 0.49014,1.87547 1.49821,3.58526 2.72176,5.08877 3.45597,4.24673 8.54177,6.85985 13.72772,8.61612 5.18594,1.75627 10.59842,2.77201 15.79252,4.50399 11.63074,3.87828 21.92015,11.25974 33.73742,14.52583 13.14827,3.63396 27.45459,1.96188 40.29746,6.56005 10.14162,3.63104 18.73831,11.09692 24.35972,20.28586 5.62141,9.18894 8.34074,20.01726 8.44056,30.78884 0.0281,3.02921 -0.14421,6.06321 0.0609,9.08559 0.20511,3.02239 0.80852,6.07342 2.28197,8.72027 1.73052,3.10864 4.68835,5.54939 8.11989,6.48901 3.43154,0.93962 7.29477,0.31337 10.15454,-1.80325 2.0448,-1.51343 3.52712,-3.71092 4.41633,-6.0944 0.88921,-2.38348 1.21012,-4.95034 1.20658,-7.49429 -0.008,-5.48247 -1.50125,-10.90352 -3.8895,-15.83847 -2.38825,-4.93496 -5.65358,-9.40608 -9.28361,-13.51466 -7.26006,-8.21715 -15.98036,-15.03172 -23.37576,-23.12729 z"
         style="opacity:1;vector-effect:none;fill:none;fill-opacity:1;stroke:#000000;stroke-width:3.74999976;stroke-linecap:butt;stroke-linejoin:miter;stroke-miterlimit:4;stroke-dasharray:none;stroke-dashoffset:0;stroke-opacity:1" />
      <path
         inkscape:original-d="m 436.09952,612.44204 c 3.1229,3.12477 0.6257,-6.561 0.93714,-9.84009 0.31145,-3.27908 -6.8715,0.31145 -10.30865,0.46857 -3.43716,0.15714 6.24861,6.24674 9.37151,9.37152 z"
         inkscape:path-effect="#path-effect4619"
         inkscape:connector-curvature="0"
         id="path4617"
         d="m 436.09952,612.44204 c 1.48104,-1.11431 2.46298,-2.8683 2.6387,-4.71337 0.17572,-1.84507 -0.45748,-3.75288 -1.70156,-5.12672 -1.31824,-1.45574 -3.30279,-2.28254 -5.26467,-2.19337 -1.96188,0.0892 -3.86324,1.09261 -5.04398,2.66194 -0.95925,1.27495 -1.44004,2.9014 -1.32815,4.49298 0.11189,1.59159 0.81551,3.13477 1.94371,4.26297 1.1282,1.1282 2.67138,1.83182 4.26296,1.94371 1.59159,0.1119 3.21804,-0.36889 4.49299,-1.32814 z"
         style="opacity:1;vector-effect:none;fill:none;fill-opacity:1;stroke:#000000;stroke-width:3.74999976;stroke-linecap:butt;stroke-linejoin:miter;stroke-miterlimit:4;stroke-dasharray:none;stroke-dashoffset:0;stroke-opacity:1" />
      <path
         inkscape:original-d="m 471.24266,574.95601 c -4.84289,-14.68109 -12.18202,-19.36871 -18.27443,-29.05166 -6.09242,-9.68296 -11.24487,-4.37431 -16.86871,-6.56005 -5.62385,-2.18575 -0.31145,4.68481 -0.46858,7.02862 -0.15713,2.34382 14.99535,20.92876 22.49161,31.39454 7.49627,10.46579 1.87524,13.11917 2.81146,19.68016 0.9362,6.56099 11.24673,35.2984 16.86871,52.94901 5.62196,17.6506 -1.2486,24.98974 -1.87431,37.48601 -0.62571,12.49628 8.74767,18.11731 13.12011,27.17737 4.37243,9.06005 4.68669,-1.25047 7.02863,-1.8743 2.34193,-0.62383 3.12477,-10.62198 4.68575,-15.93156 1.56098,-5.30959 -11.24487,-31.23929 -16.86871,-46.85752 -5.62384,-15.61825 1.25047,-20.93064 1.8743,-31.39454 0.62383,-10.46392 -9.68295,-29.36499 -14.52583,-44.04608 z"
         inkscape:path-effect="#path-effect4623"
         inkscape:connector-curvature="0"
         id="path4621"
         d="m 471.24266,574.95601 c -5.73965,-9.89768 -12.15045,-19.38706 -18.27443,-29.05166 -0.96913,-1.52944 -1.93425,-3.06773 -3.07676,-4.4724 -1.14252,-1.40466 -2.47418,-2.68031 -4.04977,-3.57245 -1.5756,-0.89214 -3.41162,-1.3837 -5.21088,-1.18094 -0.89962,0.10137 -1.78223,0.37565 -2.56724,0.82661 -0.785,0.45097 -1.47061,1.08011 -1.96406,1.83913 -0.66012,1.01537 -0.96107,2.23668 -0.99257,3.44735 -0.0315,1.21068 0.1952,2.41567 0.52399,3.58127 1.76383,6.25304 6.32982,11.27393 10.85757,15.93345 4.52775,4.65952 9.29069,9.40136 11.63404,15.46109 2.39871,6.20288 1.99105,13.08043 2.81146,19.68016 1.14601,9.21902 4.7083,17.94105 8.28411,26.51528 3.57581,8.57422 7.23233,17.2427 8.5846,26.43373 1.82664,12.41522 -0.64835,24.99716 -1.87431,37.48601 -0.54964,5.59911 -0.82412,11.40379 1.06907,16.70172 0.94659,2.64896 2.4427,5.129 4.5133,7.03312 2.0706,1.90412 4.7346,3.20708 7.53774,3.44253 2.46695,0.20721 5.01469,-0.43458 7.02863,-1.8743 2.37223,-1.69586 3.89924,-4.40078 4.57165,-7.23825 0.67242,-2.83748 0.55161,-5.81026 0.1141,-8.69331 -1.25097,-8.24354 -4.99826,-15.86526 -8.63463,-23.36844 -3.63638,-7.50317 -7.26067,-15.20818 -8.23408,-23.48908 -1.2263,-10.43223 1.85068,-20.89051 1.8743,-31.39454 0.0352,-15.64566 -6.67713,-30.51146 -14.52583,-44.04608 z"
         style="opacity:1;vector-effect:none;fill:none;fill-opacity:1;stroke:#000000;stroke-width:3.74999976;stroke-linecap:butt;stroke-linejoin:miter;stroke-miterlimit:4;stroke-dasharray:none;stroke-dashoffset:0;stroke-opacity:1" />
      <path
         inkscape:original-d="m 571.05128,609.63058 c -2.81238,-0.78002 -8.12103,62.78815 -12.18296,94.18363 -4.06192,31.39547 6.56099,15.30585 9.84008,22.96018 3.27909,7.65433 -8.12103,37.79746 -12.18295,56.6976 -4.06192,18.90014 -11.24487,6.55912 -16.86871,9.84008 -5.62384,3.28097 14.99534,6.55911 22.49161,9.84008 7.49627,3.28096 10.3096,-20.61825 15.46299,-30.92596 5.15339,-10.30772 0.6257,-54.04329 0.93714,-81.06352 0.31145,-27.02023 -4.37243,-16.24488 -6.56005,-24.36591 -2.18762,-8.12103 8.12291,-27.17831 12.18296,-40.76605 4.06005,-13.58774 -3.1229,-9.37244 -4.68576,-14.05726 -1.56285,-4.68481 -5.62196,-1.56285 -8.43435,-2.34287 z"
         inkscape:path-effect="#path-effect4627"
         inkscape:connector-curvature="0"
         id="path4625"
         d="m 571.05128,609.63058 c -4.79454,-0.0204 -9.5661,1.30995 -13.74586,3.65891 -4.17977,2.34895 -7.77034,5.69958 -10.54651,9.60866 -5.55234,7.81816 -7.74364,17.69332 -7.35922,27.27478 0.38441,9.58145 3.19766,18.92469 6.91277,27.76494 3.71511,8.84025 8.33582,17.26569 12.55586,25.87634 3.66637,7.48092 7.03595,15.11522 9.84008,22.96018 3.59236,10.05015 6.27304,20.7428 4.94276,31.33246 -0.66515,5.29483 -2.35346,10.49815 -5.2384,14.98756 -2.88494,4.4894 -6.99753,8.24036 -11.88731,10.37758 -3.07912,1.34582 -6.40771,2.04166 -9.50597,3.3428 -1.54914,0.65057 -3.04483,1.4573 -4.34025,2.52732 -1.29542,1.07002 -2.38748,2.41438 -3.02249,3.96996 -1.04596,2.56227 -0.75376,5.58734 0.5903,8.00659 1.34405,2.41925 3.67455,4.22912 6.29035,5.13292 2.6158,0.90379 5.49478,0.9325 8.18645,0.28895 2.69168,-0.64356 5.20202,-1.9392 7.42451,-3.58838 4.7342,-3.51296 8.14568,-8.57648 10.49638,-13.98274 2.3507,-5.40626 3.71102,-11.18328 4.96661,-16.94322 5.82726,-26.73212 9.56716,-55.10035 0.93714,-81.06352 -2.6669,-8.02329 -6.52452,-15.91107 -6.56005,-24.36591 -0.03,-7.13577 2.68373,-13.97109 5.53056,-20.51446 2.84683,-6.54336 5.91122,-13.15435 6.6524,-20.25159 0.2687,-2.5729 0.22034,-5.20973 -0.48717,-7.698 -0.7075,-2.48826 -2.11435,-4.82695 -4.19859,-6.35926 -2.39076,-1.75767 -5.46703,-2.33027 -8.43435,-2.34287 z"
         style="opacity:1;vector-effect:none;fill:none;fill-opacity:1;stroke:#000000;stroke-width:3.74999976;stroke-linecap:butt;stroke-linejoin:miter;stroke-miterlimit:4;stroke-dasharray:none;stroke-dashoffset:0;stroke-opacity:1" />
      <path
         inkscape:original-d="m 209.77768,839.23244 c 5.15339,0.62571 7.18576,4.9972 10.77723,7.49721 3.59147,2.5 -7.49627,4.37243 -11.2458,6.56005 -3.74954,2.18762 -9.99534,-10.62198 -14.99441,-15.93156 -4.99908,-5.30958 10.30959,1.2486 15.46298,1.8743 z"
         inkscape:path-effect="#path-effect4631"
         inkscape:connector-curvature="0"
         id="path4629"
         d="m 209.77768,839.23244 c 2.22983,0.73714 4.58985,1.12382 6.69219,2.17057 1.05117,0.52337 2.03229,1.21578 2.78084,2.12052 0.74855,0.90473 1.25404,2.03294 1.3042,3.20612 0.0522,1.22125 -0.39427,2.43851 -1.13934,3.40756 -0.74508,0.96904 -1.77452,1.69858 -2.89503,2.18709 -2.24102,0.97703 -4.76697,1.00264 -7.21143,0.9654 -2.40898,-0.0367 -4.83054,-0.1204 -7.1929,-0.59344 -2.36236,-0.47304 -4.6797,-1.35457 -6.56931,-2.84919 -1.88962,-1.49461 -3.32219,-3.64496 -3.66034,-6.03036 -0.16908,-1.19271 -0.0623,-2.42858 0.34848,-3.56099 0.41081,-1.13241 1.12923,-2.15743 2.07966,-2.89758 1.07495,-0.83712 2.41805,-1.29175 3.77453,-1.41922 1.35648,-0.12746 2.7285,0.0596 4.04548,0.40867 2.63394,0.69819 5.05577,2.02956 7.64297,2.88485 z"
         style="opacity:1;vector-effect:none;fill:none;fill-opacity:1;stroke:#000000;stroke-width:3.74999976;stroke-linecap:butt;stroke-linejoin:miter;stroke-miterlimit:4;stroke-dasharray:none;stroke-dashoffset:0;stroke-opacity:1" />
      <path
         inkscape:original-d="m 463.27618,742.70734 c -6.2486,-2.02955 -1.87337,19.9916 -2.81145,29.98881 -0.93809,9.99721 14.37057,15.61825 21.55446,23.42877 7.18388,7.81052 -8.12103,14.05632 -12.18296,21.08589 -4.06192,7.02956 -36.86031,-12.49628 -55.29187,-18.74302 -18.43157,-6.24673 -13.11918,-5.93622 -19.68017,-8.90293 -6.56099,-2.9667 -0.31143,16.55539 -0.46857,24.83449 -0.15712,8.2791 -9.68295,2.81052 -14.52583,4.21718 -4.84288,1.40667 -28.11358,-14.05819 -42.17177,-21.08589 -14.05819,-7.02769 2.50001,14.05632 3.74861,21.08589 1.24859,7.02957 -11.24488,3.1229 -16.86871,4.68575 -5.62385,1.56286 -35.61079,-25.61638 -53.41758,-38.42316 -17.8068,-12.80679 -1.2486,9.68295 -1.87431,14.52583 -0.6257,4.84288 3.12477,4.37243 4.68576,6.56005 1.56097,2.18762 -5.62196,7.49627 -8.43436,11.24581 -2.81239,3.74953 -19.99161,-15.30773 -29.98882,-22.96019 -9.9972,-7.65246 -1.87335,9.99533 -2.81145,14.9944 -0.93808,4.99908 12.1839,9.99534 18.27444,14.99441 6.09054,4.99907 5.93622,10.93249 8.90293,16.40014 2.96671,5.46764 15.62011,-5.62385 23.42876,-8.43436 7.80865,-2.81051 14.68297,1.56099 22.02304,2.34288 7.34007,0.78189 17.8068,11.86963 26.70878,17.80586 8.902,5.93622 24.05447,-10.93436 36.0803,-16.40013 12.02583,-5.46578 34.67551,10.30771 52.01185,15.46298 17.33634,5.15526 15.30773,-9.06006 22.96018,-13.58869 7.65247,-4.52862 28.11546,6.24673 42.17178,9.37151 14.05632,3.12478 15.30772,-17.8068 22.96018,-26.70879 7.65247,-8.90199 -16.55539,-30.30214 -24.83449,-45.4518 -8.2791,-15.14966 -0.9362,-17.4944 -1.40572,-26.24021 -0.46951,-8.7458 -12.4944,-4.06192 -18.74301,-6.09148 z"
         inkscape:path-effect="#path-effect4635"
         inkscape:connector-curvature="0"
         id="path4633"
         d="m 463.27618,742.70734 c -2.61715,1.26391 -4.8215,3.33521 -6.33523,5.81625 -1.51374,2.48103 -2.34375,5.35991 -2.48811,8.26269 -0.28871,5.80554 2.17118,11.54677 6.01189,15.90987 3.5727,4.05864 8.22168,6.98689 12.39513,10.42477 2.08673,1.71894 4.07234,3.58401 5.70409,5.7396 1.63175,2.15559 2.90486,4.61746 3.45524,7.2644 0.88765,4.26899 -0.1869,8.82219 -2.50575,12.51477 -2.31885,3.69258 -5.80753,6.56169 -9.67721,8.57112 -4.69744,2.43927 -9.99163,3.66988 -15.28409,3.74703 -5.29245,0.0771 -10.57983,-0.98486 -15.50711,-2.91823 -9.85456,-3.86674 -18.1152,-11.12849 -24.50067,-19.57182 -2.48362,-3.28402 -4.80464,-6.84971 -8.26054,-9.08797 -1.72796,-1.11914 -3.73019,-1.87052 -5.78836,-1.91795 -2.05816,-0.0474 -4.16808,0.65477 -5.63127,2.10299 -1.53131,1.51563 -2.24319,3.71423 -2.32665,5.86715 -0.0835,2.15292 0.40493,4.28582 0.98364,6.36119 0.57872,2.07536 1.25318,4.13465 1.55708,6.26765 0.30389,2.133 0.21554,4.3801 -0.68264,6.3385 -0.58149,1.26787 -1.49033,2.37836 -2.59222,3.23362 -1.10189,0.85525 -2.39359,1.45722 -3.74733,1.79338 -2.70749,0.67233 -5.61415,0.27031 -8.18628,-0.80982 -4.40862,-1.85134 -7.7836,-5.53636 -10.56804,-9.42356 -2.78445,-3.88719 -5.1419,-8.09823 -8.31078,-11.67896 -1.58444,-1.79036 -3.37305,-3.41784 -5.41192,-4.66639 -2.03887,-1.24855 -4.33738,-2.11073 -6.71871,-2.32316 -2.38133,-0.21244 -4.84576,0.24734 -6.9023,1.46656 -2.05654,1.21922 -3.67338,3.22192 -4.26002,5.53962 -0.44701,1.76605 -0.29613,3.64044 0.14666,5.40756 0.44279,1.76711 1.16804,3.44846 1.87846,5.12598 0.71042,1.67752 1.41253,3.371 1.80534,5.1499 0.39281,1.77889 0.46395,3.66439 -0.0818,5.40245 -0.49608,1.57975 -1.49388,2.98629 -2.77223,4.03868 -1.27834,1.0524 -2.82931,1.75575 -4.44834,2.10283 -3.23805,0.69416 -6.65679,-0.035 -9.64814,-1.45576 -5.5951,-2.65747 -9.81018,-7.56648 -13.13875,-12.79026 -3.32858,-5.22377 -5.94153,-10.88287 -9.36891,-16.04236 -3.42737,-5.15949 -7.85275,-9.92499 -13.59036,-12.25887 -2.86881,-1.16694 -6.02693,-1.68637 -9.09791,-1.28523 -3.07097,0.40114 -6.04372,1.75164 -8.22165,3.95356 -1.85063,1.87101 -3.09803,4.34072 -3.45248,6.94838 -0.35445,2.60766 0.19581,5.33812 1.57817,7.57745 0.70811,1.14709 1.61696,2.15392 2.47948,3.18992 0.86252,1.03599 1.69281,2.1237 2.20628,3.37013 0.53112,1.28928 0.70251,2.72267 0.50414,4.10288 -0.19837,1.38021 -0.76447,2.70411 -1.61428,3.80962 -0.8498,1.10552 -1.98042,1.99124 -3.2515,2.56455 -1.27108,0.57331 -2.67988,0.83441 -4.07272,0.76876 -1.69679,-0.08 -3.3533,-0.64035 -4.81823,-1.50027 -1.46493,-0.85992 -2.74441,-2.01298 -3.85234,-3.3006 -2.21588,-2.57524 -3.74094,-5.65599 -5.41239,-8.61372 -1.67146,-2.95773 -3.57245,-5.89072 -6.3064,-7.90752 -1.36697,-1.0084 -2.93267,-1.76885 -4.59955,-2.09595 -1.66688,-0.3271 -3.43684,-0.20719 -4.99991,0.45787 -1.34068,0.57043 -2.50545,1.53229 -3.35704,2.7145 -0.85158,1.18221 -1.39236,2.57966 -1.60465,4.0211 -0.4246,2.88287 0.47844,5.8721 2.15024,8.2588 2.27951,3.25429 5.80506,5.37161 9.20783,7.42289 3.40276,2.05128 6.90128,4.24017 9.06661,7.57152 1.72798,2.6585 2.45686,5.81994 3.51829,8.80774 0.53072,1.49389 1.15486,2.96507 2.02127,4.29274 0.86641,1.32767 1.9872,2.51255 3.36337,3.29966 1.8976,1.08535 4.19226,1.35405 6.35347,1.02534 2.16121,-0.32872 4.20336,-1.22174 6.08727,-2.33071 3.7678,-2.21792 7.00672,-5.32212 10.98802,-7.12899 3.50348,-1.59002 7.46384,-2.09129 11.28209,-1.61857 3.81825,0.47272 7.49282,1.89937 10.74095,3.96145 4.59349,2.91618 8.28286,7.0227 12.3768,10.60655 2.04697,1.79192 4.21446,3.46654 6.60436,4.76632 2.38991,1.29978 5.01556,2.21897 7.72762,2.43299 3.35009,0.26436 6.71926,-0.55623 9.79288,-1.91485 3.07362,-1.35862 5.88419,-3.24188 8.61945,-5.19415 2.73525,-1.95227 5.4198,-3.98788 8.31533,-5.69343 2.89553,-1.70555 6.03164,-3.08398 9.35264,-3.5977 4.58695,-0.70955 9.30427,0.26988 13.61126,2.00004 4.30699,1.73015 8.27514,4.18903 12.25731,6.57355 3.98217,2.38452 8.03814,4.72313 12.44519,6.17967 4.40705,1.45654 9.2361,1.9881 13.69809,0.70972 4.30192,-1.23252 7.9555,-4.03012 11.49024,-6.77443 3.53473,-2.74432 7.17638,-5.55295 11.46994,-6.81426 3.51148,-1.03156 7.27962,-0.95782 10.87141,-0.25519 3.59178,0.70262 7.03473,2.01429 10.40643,3.43774 6.74341,2.84688 13.57434,6.23128 20.89394,6.18896 6.64303,-0.0384 13.20295,-3.1011 17.52461,-8.14635 4.32166,-5.04524 6.34008,-11.98117 5.43557,-18.56244 -0.59585,-4.33546 -2.3844,-8.43785 -4.67204,-12.16853 -2.28764,-3.73067 -5.07335,-7.12684 -7.84263,-10.5154 -2.76927,-3.38856 -5.54176,-6.79713 -7.79879,-10.5464 -2.25702,-3.74928 -3.99622,-7.87684 -4.52103,-12.22147 -0.53156,-4.40054 0.19304,-8.84103 0.50873,-13.26231 0.31569,-4.42127 0.17318,-9.06777 -1.91445,-12.9779 -1.70895,-3.20087 -4.69354,-5.69654 -8.14487,-6.81652 -3.45133,-1.11997 -7.33071,-0.85292 -10.59814,0.72504 z"
         style="opacity:1;vector-effect:none;fill:none;fill-opacity:1;stroke:#000000;stroke-width:3.74999976;stroke-linecap:butt;stroke-linejoin:miter;stroke-miterlimit:4;stroke-dasharray:none;stroke-dashoffset:0;stroke-opacity:1" />
    </g>
  </g>
  <g
     inkscape:groupmode="layer"
     id="layer3"
     inkscape:label="Layer 3"
     style="display:inline"
     transform="translate(-126.72998,-138.0121)">
    <path
       style="color:#000000;clip-rule:nonzero;display:inline;overflow:visible;visibility:visible;opacity:1;isolation:auto;mix-blend-mode:normal;color-interpolation:sRGB;color-interpolation-filters:linearRGB;solid-color:#000000;solid-opacity:1;fill:none;fill-opacity:1;fill-rule:evenodd;stroke:#000000;stroke-width:4;stroke-linecap:butt;stroke-linejoin:miter;stroke-miterlimit:4;stroke-dasharray:none;stroke-dashoffset:0;stroke-opacity:1;color-rendering:auto;image-rendering:auto;shape-rendering:auto;text-rendering:auto;enable-background:accumulate"
       d="m 533.39304,298.49464 -3.22019,-9.08927 -8.416,2.98167"
       id="path4235-4-01-69-2-0"
       inkscape:connector-curvature="0"
       inkscape:transform-center-x="1.2945374"
       inkscape:transform-center-y="0.93841233" />
    <path
       style="color:#000000;clip-rule:nonzero;display:inline;overflow:visible;visibility:visible;opacity:1;isolation:auto;mix-blend-mode:normal;color-interpolation:sRGB;color-interpolation-filters:linearRGB;solid-color:#000000;solid-opacity:1;fill:none;fill-opacity:1;fill-rule:evenodd;stroke:#000000;stroke-width:4;stroke-linecap:butt;stroke-linejoin:miter;stroke-miterlimit:4;stroke-dasharray:none;stroke-dashoffset:0;stroke-opacity:1;color-rendering:auto;image-rendering:auto;shape-rendering:auto;text-rendering:auto;enable-background:accumulate"
       d="m 409.69065,241.84787 -1.55613,9.51646 8.81155,1.44085"
       id="path4235-4-01-69-2-0-0"
       inkscape:connector-curvature="0"
       inkscape:transform-center-x="-1.5265227"
       inkscape:transform-center-y="-1.5053078" />
    <path
       style="color:#000000;clip-rule:nonzero;display:inline;overflow:visible;visibility:visible;opacity:1;isolation:auto;mix-blend-mode:normal;color-interpolation:sRGB;color-interpolation-filters:linearRGB;solid-color:#000000;solid-opacity:1;fill:none;fill-opacity:1;fill-rule:evenodd;stroke:#000000;stroke-width:4;stroke-linecap:butt;stroke-linejoin:miter;stroke-miterlimit:4;stroke-dasharray:none;stroke-dashoffset:0;stroke-opacity:1;color-rendering:auto;image-rendering:auto;shape-rendering:auto;text-rendering:auto;enable-background:accumulate"
       d="m 350.47711,247.31409 4.45768,8.55065 7.91727,-4.1275"
       id="path4235-4-01-69-2-0-9"
       inkscape:connector-curvature="0"
       inkscape:transform-center-x="-0.94269268"
       inkscape:transform-center-y="-0.52244772" />
    <path
       style="color:#000000;clip-rule:nonzero;display:inline;overflow:visible;visibility:visible;opacity:1;isolation:auto;mix-blend-mode:normal;color-interpolation:sRGB;color-interpolation-filters:linearRGB;solid-color:#000000;solid-opacity:1;fill:none;fill-opacity:1;fill-rule:evenodd;stroke:#000000;stroke-width:4;stroke-linecap:butt;stroke-linejoin:miter;stroke-miterlimit:4;stroke-dasharray:none;stroke-dashoffset:0;stroke-opacity:1;color-rendering:auto;image-rendering:auto;shape-rendering:auto;text-rendering:auto;enable-background:accumulate"
       d="m 354.15397,341.93845 -3.22019,-9.08927 -8.416,2.98167"
       id="path4235-4-01-69-2-0-2"
       inkscape:connector-curvature="0"
       inkscape:transform-center-x="-0.11118833"
       inkscape:transform-center-y="-2.3416144" />
    <path
       style="color:#000000;clip-rule:nonzero;display:inline;overflow:visible;visibility:visible;opacity:1;isolation:auto;mix-blend-mode:normal;color-interpolation:sRGB;color-interpolation-filters:linearRGB;solid-color:#000000;solid-opacity:1;fill:none;fill-opacity:1;fill-rule:evenodd;stroke:#000000;stroke-width:4;stroke-linecap:butt;stroke-linejoin:miter;stroke-miterlimit:4;stroke-dasharray:none;stroke-dashoffset:0;stroke-opacity:1;color-rendering:auto;image-rendering:auto;shape-rendering:auto;text-rendering:auto;enable-background:accumulate"
       d="m 287.43188,265.7317 -9.26629,2.66838 2.47073,8.57991"
       id="path4235-4-01-69-2-0-3"
       inkscape:connector-curvature="0"
       inkscape:transform-center-x="-1.1117327"
       inkscape:transform-center-y="1.4381223" />
    <path
       style="color:#000000;clip-rule:nonzero;display:inline;overflow:visible;visibility:visible;opacity:1;isolation:auto;mix-blend-mode:normal;color-interpolation:sRGB;color-interpolation-filters:linearRGB;solid-color:#000000;solid-opacity:1;fill:none;fill-opacity:1;fill-rule:evenodd;stroke:#000000;stroke-width:4;stroke-linecap:butt;stroke-linejoin:miter;stroke-miterlimit:4;stroke-dasharray:none;stroke-dashoffset:0;stroke-opacity:1;color-rendering:auto;image-rendering:auto;shape-rendering:auto;text-rendering:auto;enable-background:accumulate"
       d="m 226.94146,356.05407 8.16944,5.12297 4.74349,-7.56431"
       id="path4235-4-01-69-2-0-07"
       inkscape:connector-curvature="0"
       inkscape:transform-center-x="0.49440737"
       inkscape:transform-center-y="-0.14639771" />
    <path
       style="color:#000000;clip-rule:nonzero;display:inline;overflow:visible;visibility:visible;opacity:1;isolation:auto;mix-blend-mode:normal;color-interpolation:sRGB;color-interpolation-filters:linearRGB;solid-color:#000000;solid-opacity:1;fill:none;fill-opacity:1;fill-rule:evenodd;stroke:#000000;stroke-width:4;stroke-linecap:butt;stroke-linejoin:miter;stroke-miterlimit:4;stroke-dasharray:none;stroke-dashoffset:0;stroke-opacity:1;color-rendering:auto;image-rendering:auto;shape-rendering:auto;text-rendering:auto;enable-background:accumulate"
       d="m 172.4304,381.32049 9.00439,3.45044 3.19484,-8.33741"
       id="path4235-4-01-69-2-0-4"
       inkscape:connector-curvature="0"
       inkscape:transform-center-x="1.0075974"
       inkscape:transform-center-y="-0.83638773" />
    <path
       style="color:#000000;clip-rule:nonzero;display:inline;overflow:visible;visibility:visible;opacity:1;isolation:auto;mix-blend-mode:normal;color-interpolation:sRGB;color-interpolation-filters:linearRGB;solid-color:#000000;solid-opacity:1;fill:none;fill-opacity:1;fill-rule:evenodd;stroke:#000000;stroke-width:4;stroke-linecap:butt;stroke-linejoin:miter;stroke-miterlimit:4;stroke-dasharray:none;stroke-dashoffset:0;stroke-opacity:1;color-rendering:auto;image-rendering:auto;shape-rendering:auto;text-rendering:auto;enable-background:accumulate"
       d="m 201.53553,508.76377 9.4779,-1.77596 -1.64442,-8.77583"
       id="path4235-4-01-69-2-0-5"
       inkscape:connector-curvature="0"
       inkscape:transform-center-x="1.3776424"
       inkscape:transform-center-y="-1.6546078" />
    <path
       style="color:#000000;clip-rule:nonzero;display:inline;overflow:visible;visibility:visible;opacity:1;isolation:auto;mix-blend-mode:normal;color-interpolation:sRGB;color-interpolation-filters:linearRGB;solid-color:#000000;solid-opacity:1;fill:none;fill-opacity:1;fill-rule:evenodd;stroke:#000000;stroke-width:4;stroke-linecap:butt;stroke-linejoin:miter;stroke-miterlimit:4;stroke-dasharray:none;stroke-dashoffset:0;stroke-opacity:1;color-rendering:auto;image-rendering:auto;shape-rendering:auto;text-rendering:auto;enable-background:accumulate"
       d="m 277.30505,503.29768 8.9693,-3.54065 -3.2784,-8.30491"
       id="path4235-4-01-69-2-0-47"
       inkscape:connector-curvature="0"
       inkscape:transform-center-x="0.83445238"
       inkscape:transform-center-y="-1.2075327" />
    <path
       style="color:#000000;clip-rule:nonzero;display:inline;overflow:visible;visibility:visible;opacity:1;isolation:auto;mix-blend-mode:normal;color-interpolation:sRGB;color-interpolation-filters:linearRGB;solid-color:#000000;solid-opacity:1;fill:none;fill-opacity:1;fill-rule:evenodd;stroke:#000000;stroke-width:4;stroke-linecap:butt;stroke-linejoin:miter;stroke-miterlimit:4;stroke-dasharray:none;stroke-dashoffset:0;stroke-opacity:1;color-rendering:auto;image-rendering:auto;shape-rendering:auto;text-rendering:auto;enable-background:accumulate"
       d="m 288.65947,464.66473 9.49288,-1.69402 -1.56855,-8.78971"
       id="path4235-4-01-69-2-0-45"
       inkscape:connector-curvature="0"
       inkscape:transform-center-x="1.4012024"
       inkscape:transform-center-y="-1.6735478" />
    <path
       style="color:#000000;clip-rule:nonzero;display:inline;overflow:visible;visibility:visible;opacity:1;isolation:auto;mix-blend-mode:normal;color-interpolation:sRGB;color-interpolation-filters:linearRGB;solid-color:#000000;solid-opacity:1;fill:none;fill-opacity:1;fill-rule:evenodd;stroke:#000000;stroke-width:4;stroke-linecap:butt;stroke-linejoin:miter;stroke-miterlimit:4;stroke-dasharray:none;stroke-dashoffset:0;stroke-opacity:1;color-rendering:auto;image-rendering:auto;shape-rendering:auto;text-rendering:auto;enable-background:accumulate"
       d="m 390.82003,514.11789 9.21631,-2.83621 -2.62614,-8.53363"
       id="path4235-4-01-69-2-0-7"
       inkscape:connector-curvature="0"
       inkscape:transform-center-x="1.0597574"
       inkscape:transform-center-y="-1.3952627" />
    <path
       style="color:#000000;clip-rule:nonzero;display:inline;overflow:visible;visibility:visible;opacity:1;isolation:auto;mix-blend-mode:normal;color-interpolation:sRGB;color-interpolation-filters:linearRGB;solid-color:#000000;solid-opacity:1;fill:none;fill-opacity:1;fill-rule:evenodd;stroke:#000000;stroke-width:4;stroke-linecap:butt;stroke-linejoin:miter;stroke-miterlimit:4;stroke-dasharray:none;stroke-dashoffset:0;stroke-opacity:1;color-rendering:auto;image-rendering:auto;shape-rendering:auto;text-rendering:auto;enable-background:accumulate"
       d="m 370.01025,579.13319 9.56962,-1.18605 -1.09821,-8.86078"
       id="path4235-4-01-69-2-0-20"
       inkscape:connector-curvature="0"
       inkscape:transform-center-x="1.5441424"
       inkscape:transform-center-y="-1.7875678" />
    <path
       style="color:#000000;clip-rule:nonzero;display:inline;overflow:visible;visibility:visible;opacity:1;isolation:auto;mix-blend-mode:normal;color-interpolation:sRGB;color-interpolation-filters:linearRGB;solid-color:#000000;solid-opacity:1;fill:none;fill-opacity:1;fill-rule:evenodd;stroke:#000000;stroke-width:4;stroke-linecap:butt;stroke-linejoin:miter;stroke-miterlimit:4;stroke-dasharray:none;stroke-dashoffset:0;stroke-opacity:1;color-rendering:auto;image-rendering:auto;shape-rendering:auto;text-rendering:auto;enable-background:accumulate"
       d="m 459.1975,671.92855 9.04801,3.33436 3.08737,-8.37781"
       id="path4235-4-01-69-2-0-8"
       inkscape:connector-curvature="0"
       inkscape:transform-center-x="1.0404524"
       inkscape:transform-center-y="-0.88125773" />
    <path
       style="color:#000000;clip-rule:nonzero;display:inline;overflow:visible;visibility:visible;opacity:1;isolation:auto;mix-blend-mode:normal;color-interpolation:sRGB;color-interpolation-filters:linearRGB;solid-color:#000000;solid-opacity:1;fill:none;fill-opacity:1;fill-rule:evenodd;stroke:#000000;stroke-width:4;stroke-linecap:butt;stroke-linejoin:miter;stroke-miterlimit:4;stroke-dasharray:none;stroke-dashoffset:0;stroke-opacity:1;color-rendering:auto;image-rendering:auto;shape-rendering:auto;text-rendering:auto;enable-background:accumulate"
       d="m 516.98775,687.66123 -9.16065,-3.01112 -2.78807,8.4821"
       id="path4235-4-01-69-2-0-25"
       inkscape:connector-curvature="0"
       inkscape:transform-center-x="-1.1302477"
       inkscape:transform-center-y="1.0043373" />
    <path
       style="color:#000000;clip-rule:nonzero;display:inline;overflow:visible;visibility:visible;opacity:1;isolation:auto;mix-blend-mode:normal;color-interpolation:sRGB;color-interpolation-filters:linearRGB;solid-color:#000000;solid-opacity:1;fill:none;fill-opacity:1;fill-rule:evenodd;stroke:#000000;stroke-width:4;stroke-linecap:butt;stroke-linejoin:miter;stroke-miterlimit:4;stroke-dasharray:none;stroke-dashoffset:0;stroke-opacity:1;color-rendering:auto;image-rendering:auto;shape-rendering:auto;text-rendering:auto;enable-background:accumulate"
       d="m 494.80934,760.93529 9.03739,3.36304 3.11393,-8.36796"
       id="path4235-4-01-69-2-0-254"
       inkscape:connector-curvature="0"
       inkscape:transform-center-x="1.0323624"
       inkscape:transform-center-y="-0.87020273" />
    <path
       style="color:#000000;clip-rule:nonzero;display:inline;overflow:visible;visibility:visible;opacity:1;isolation:auto;mix-blend-mode:normal;color-interpolation:sRGB;color-interpolation-filters:linearRGB;solid-color:#000000;solid-opacity:1;fill:none;fill-opacity:1;fill-rule:evenodd;stroke:#000000;stroke-width:4;stroke-linecap:butt;stroke-linejoin:miter;stroke-miterlimit:4;stroke-dasharray:none;stroke-dashoffset:0;stroke-opacity:1;color-rendering:auto;image-rendering:auto;shape-rendering:auto;text-rendering:auto;enable-background:accumulate"
       d="m 431.40042,775.64956 -6.8681,6.76858 6.26722,6.35935"
       id="path4235-4-01-69-2-0-52"
       inkscape:connector-curvature="0"
       inkscape:transform-center-x="0.38468237"
       inkscape:transform-center-y="0.1430823" />
    <path
       style="color:#000000;clip-rule:nonzero;display:inline;overflow:visible;visibility:visible;opacity:1;isolation:auto;mix-blend-mode:normal;color-interpolation:sRGB;color-interpolation-filters:linearRGB;solid-color:#000000;solid-opacity:1;fill:none;fill-opacity:1;fill-rule:evenodd;stroke:#000000;stroke-width:4;stroke-linecap:butt;stroke-linejoin:miter;stroke-miterlimit:4;stroke-dasharray:none;stroke-dashoffset:0;stroke-opacity:1;color-rendering:auto;image-rendering:auto;shape-rendering:auto;text-rendering:auto;enable-background:accumulate"
       d="m 328.31629,777.80794 -2.39623,9.34037 8.64851,2.21873"
       id="path4235-4-01-69-2-0-1"
       inkscape:connector-curvature="0"
       inkscape:transform-center-x="-1.2312027"
       inkscape:transform-center-y="-1.2944027" />
    <path
       style="color:#000000;clip-rule:nonzero;display:inline;overflow:visible;visibility:visible;opacity:1;isolation:auto;mix-blend-mode:normal;color-interpolation:sRGB;color-interpolation-filters:linearRGB;solid-color:#000000;solid-opacity:1;fill:none;fill-opacity:1;fill-rule:evenodd;stroke:#000000;stroke-width:4;stroke-linecap:butt;stroke-linejoin:miter;stroke-miterlimit:4;stroke-dasharray:none;stroke-dashoffset:0;stroke-opacity:1;color-rendering:auto;image-rendering:auto;shape-rendering:auto;text-rendering:auto;enable-background:accumulate"
       d="m 246.116,775.58792 -7.62233,5.90632 5.46883,7.05771"
       id="path4235-4-01-69-2-0-13"
       inkscape:connector-curvature="0"
       inkscape:transform-center-x="0.021857357"
       inkscape:transform-center-y="0.46807231" />
    <path
       style="color:#000000;clip-rule:nonzero;display:inline;overflow:visible;visibility:visible;opacity:1;isolation:auto;mix-blend-mode:normal;color-interpolation:sRGB;color-interpolation-filters:linearRGB;solid-color:#000000;solid-opacity:1;fill:none;fill-opacity:1;fill-rule:evenodd;stroke:#000000;stroke-width:4;stroke-linecap:butt;stroke-linejoin:miter;stroke-miterlimit:4;stroke-dasharray:none;stroke-dashoffset:0;stroke-opacity:1;color-rendering:auto;image-rendering:auto;shape-rendering:auto;text-rendering:auto;enable-background:accumulate"
       d="m 225.1415,836.11313 9.38381,-2.22004 -2.05561,-8.68872"
       id="path4235-4-01-69-2-0-525"
       inkscape:connector-curvature="0"
       inkscape:transform-center-x="1.2474774"
       inkscape:transform-center-y="-1.5492428" />
    <path
       style="color:#000000;clip-rule:nonzero;display:inline;overflow:visible;visibility:visible;opacity:1;isolation:auto;mix-blend-mode:normal;color-interpolation:sRGB;color-interpolation-filters:linearRGB;solid-color:#000000;solid-opacity:1;fill:none;fill-opacity:1;fill-rule:evenodd;stroke:#000000;stroke-width:4;stroke-linecap:butt;stroke-linejoin:miter;stroke-miterlimit:4;stroke-dasharray:none;stroke-dashoffset:0;stroke-opacity:1;color-rendering:auto;image-rendering:auto;shape-rendering:auto;text-rendering:auto;enable-background:accumulate"
       d="m 184.06116,843.78251 -3.22019,-9.08927 -8.416,2.98167"
       id="path4235-4-01-69-2-0-5257"
       inkscape:connector-curvature="0"
       inkscape:transform-center-x="5.9802898"
       inkscape:transform-center-y="1.4069876" />
    <path
       style="color:#000000;clip-rule:nonzero;display:inline;overflow:visible;visibility:visible;opacity:1;isolation:auto;mix-blend-mode:normal;color-interpolation:sRGB;color-interpolation-filters:linearRGB;solid-color:#000000;solid-opacity:1;fill:none;fill-opacity:1;fill-rule:evenodd;stroke:#000000;stroke-width:4;stroke-linecap:butt;stroke-linejoin:miter;stroke-miterlimit:4;stroke-dasharray:none;stroke-dashoffset:0;stroke-opacity:1;color-rendering:auto;image-rendering:auto;shape-rendering:auto;text-rendering:auto;enable-background:accumulate"
       d="m 369.30972,856.54205 6.61575,-7.01544 -6.49579,-6.12569"
       id="path4235-4-01-69-2-0-96"
       inkscape:connector-curvature="0"
       inkscape:transform-center-x="-0.49557266"
       inkscape:transform-center-y="-0.042367703" />
    <path
       style="color:#000000;clip-rule:nonzero;display:inline;overflow:visible;visibility:visible;opacity:1;isolation:auto;mix-blend-mode:normal;color-interpolation:sRGB;color-interpolation-filters:linearRGB;solid-color:#000000;solid-opacity:1;fill:none;fill-opacity:1;fill-rule:evenodd;stroke:#000000;stroke-width:4;stroke-linecap:butt;stroke-linejoin:miter;stroke-miterlimit:4;stroke-dasharray:none;stroke-dashoffset:0;stroke-opacity:1;color-rendering:auto;image-rendering:auto;shape-rendering:auto;text-rendering:auto;enable-background:accumulate"
       d="m 449.18109,863.45482 6.88699,-6.74936 -6.24942,-6.37685"
       id="path4235-4-01-69-2-0-58"
       inkscape:connector-curvature="0"
       inkscape:transform-center-x="-0.37619266"
       inkscape:transform-center-y="-0.15076771" />
    <path
       style="color:#000000;clip-rule:nonzero;display:inline;overflow:visible;visibility:visible;opacity:1;isolation:auto;mix-blend-mode:normal;color-interpolation:sRGB;color-interpolation-filters:linearRGB;solid-color:#000000;solid-opacity:1;fill:none;fill-opacity:1;fill-rule:evenodd;stroke:#000000;stroke-width:4;stroke-linecap:butt;stroke-linejoin:miter;stroke-miterlimit:4;stroke-dasharray:none;stroke-dashoffset:0;stroke-opacity:1;color-rendering:auto;image-rendering:auto;shape-rendering:auto;text-rendering:auto;enable-background:accumulate"
       d="m 572.41477,826.00975 1.1529,-9.57368 -8.86453,-1.0675"
       id="path4235-4-01-69-2-0-49"
       inkscape:connector-curvature="0"
       inkscape:transform-center-x="1.6625174"
       inkscape:transform-center-y="1.6012774" />
    <path
       style="color:#000000;clip-rule:nonzero;display:inline;overflow:visible;visibility:visible;opacity:1;isolation:auto;mix-blend-mode:normal;color-interpolation:sRGB;color-interpolation-filters:linearRGB;solid-color:#000000;solid-opacity:1;fill:none;fill-opacity:1;fill-rule:evenodd;stroke:#000000;stroke-width:4;stroke-linecap:butt;stroke-linejoin:miter;stroke-miterlimit:4;stroke-dasharray:none;stroke-dashoffset:0;stroke-opacity:1;color-rendering:auto;image-rendering:auto;shape-rendering:auto;text-rendering:auto;enable-background:accumulate"
       d="m 543.83786,594.28804 -1.0973,9.58021 8.87057,1.01601"
       id="path4235-4-01-69-2-0-93"
       inkscape:connector-curvature="0"
       inkscape:transform-center-x="-1.6809827"
       inkscape:transform-center-y="-1.6142528" />
    <path
       style="color:#000000;clip-rule:nonzero;display:inline;overflow:visible;visibility:visible;opacity:1;isolation:auto;mix-blend-mode:normal;color-interpolation:sRGB;color-interpolation-filters:linearRGB;solid-color:#000000;solid-opacity:1;fill:none;fill-opacity:1;fill-rule:evenodd;stroke:#000000;stroke-width:4;stroke-linecap:butt;stroke-linejoin:miter;stroke-miterlimit:4;stroke-dasharray:none;stroke-dashoffset:0;stroke-opacity:1;color-rendering:auto;image-rendering:auto;shape-rendering:auto;text-rendering:auto;enable-background:accumulate"
       d="m 233.6944,192.37742 8.25709,4.98045 4.61152,-7.64548"
       id="path4235-4-01-69-2-0-451"
       inkscape:connector-curvature="0"
       inkscape:transform-center-x="0.54131737"
       inkscape:transform-center-y="-0.20867271" />
    <path
       style="color:#000000;clip-rule:nonzero;display:inline;overflow:visible;visibility:visible;opacity:1;isolation:auto;mix-blend-mode:normal;color-interpolation:sRGB;color-interpolation-filters:linearRGB;solid-color:#000000;solid-opacity:1;fill:none;fill-opacity:1;fill-rule:evenodd;stroke:#000000;stroke-width:4;stroke-linecap:butt;stroke-linejoin:miter;stroke-miterlimit:4;stroke-dasharray:none;stroke-dashoffset:0;stroke-opacity:1;color-rendering:auto;image-rendering:auto;shape-rendering:auto;text-rendering:auto;enable-background:accumulate"
       d="m 572.58361,208.80085 -6.82973,-6.8073 -6.30306,6.32383"
       id="path4235-4-01-69-2-0-138"
       inkscape:connector-curvature="0"
       inkscape:transform-center-x="0.11849736"
       inkscape:transform-center-y="-0.41182272" />
    <path
       style="color:#000000;clip-rule:nonzero;display:inline;overflow:visible;visibility:visible;opacity:1;isolation:auto;mix-blend-mode:normal;color-interpolation:sRGB;color-interpolation-filters:linearRGB;solid-color:#000000;solid-opacity:1;fill:none;fill-opacity:1;fill-rule:evenodd;stroke:#000000;stroke-width:4;stroke-linecap:butt;stroke-linejoin:miter;stroke-miterlimit:4;stroke-dasharray:none;stroke-dashoffset:0;stroke-opacity:1;color-rendering:auto;image-rendering:auto;shape-rendering:auto;text-rendering:auto;enable-background:accumulate"
       d="m 572.15876,289.82497 6.53782,7.08812 6.56308,-6.05356"
       id="path4235-4-01-69-2-0-0-1"
       inkscape:connector-curvature="0"
       inkscape:transform-center-x="-0.23388766"
       inkscape:transform-center-y="0.28408726" />
  </g>
</svg>
