<?xml version="1.0" encoding="UTF-8" standalone="no"?>
<!-- Created with Inkscape (http://www.inkscape.org/) -->

<svg
   xmlns:dc="http://purl.org/dc/elements/1.1/"
   xmlns:cc="http://creativecommons.org/ns#"
   xmlns:rdf="http://www.w3.org/1999/02/22-rdf-syntax-ns#"
   xmlns:svg="http://www.w3.org/2000/svg"
   xmlns="http://www.w3.org/2000/svg"
   xmlns:sodipodi="http://sodipodi.sourceforge.net/DTD/sodipodi-0.dtd"
   xmlns:inkscape="http://www.inkscape.org/namespaces/inkscape"
   width="592.62372"
   height="800"
   viewBox="0 0 555.58474 749.99999"
   id="svg2"
   version="1.1"
   inkscape:version="0.92.3 (2405546, 2018-03-11)"
   sodipodi:docname="t.svg"
   inkscape:export-filename="C:\Users\zvi\Documents\Mazesplace\Mazes\Alphabet Maze Set\T\T (l).png"
   inkscape:export-xdpi="500"
   inkscape:export-ydpi="500">
  <defs
     id="defs4">
    <inkscape:path-effect
       effect="spiro"
       id="path-effect4742"
       is_visible="true" />
    <inkscape:path-effect
       effect="spiro"
       id="path-effect4738"
       is_visible="true" />
    <inkscape:path-effect
       effect="spiro"
       id="path-effect4734"
       is_visible="true" />
    <inkscape:path-effect
       effect="spiro"
       id="path-effect4730"
       is_visible="true" />
    <inkscape:path-effect
       effect="spiro"
       id="path-effect4726"
       is_visible="true" />
    <inkscape:path-effect
       effect="spiro"
       id="path-effect4722"
       is_visible="true" />
    <inkscape:path-effect
       effect="spiro"
       id="path-effect4718"
       is_visible="true" />
    <inkscape:path-effect
       effect="spiro"
       id="path-effect4714"
       is_visible="true" />
    <inkscape:path-effect
       effect="spiro"
       id="path-effect4710"
       is_visible="true" />
    <inkscape:path-effect
       effect="spiro"
       id="path-effect4706"
       is_visible="true" />
    <inkscape:path-effect
       effect="spiro"
       id="path-effect4702"
       is_visible="true" />
    <inkscape:path-effect
       effect="spiro"
       id="path-effect4698"
       is_visible="true" />
    <inkscape:path-effect
       effect="spiro"
       id="path-effect4694"
       is_visible="true" />
    <inkscape:path-effect
       effect="spiro"
       id="path-effect4769"
       is_visible="true" />
    <inkscape:path-effect
       effect="spiro"
       id="path-effect4765"
       is_visible="true" />
    <inkscape:path-effect
       effect="spiro"
       id="path-effect4761"
       is_visible="true" />
    <inkscape:path-effect
       effect="spiro"
       id="path-effect4757"
       is_visible="true" />
    <inkscape:path-effect
       effect="spiro"
       id="path-effect4749"
       is_visible="true" />
    <inkscape:path-effect
       effect="spiro"
       id="path-effect4745"
       is_visible="true" />
    <inkscape:path-effect
       effect="spiro"
       id="path-effect4741"
       is_visible="true" />
    <inkscape:path-effect
       effect="spiro"
       id="path-effect4737"
       is_visible="true" />
    <inkscape:path-effect
       effect="spiro"
       id="path-effect4733"
       is_visible="true" />
    <inkscape:path-effect
       effect="spiro"
       id="path-effect4729"
       is_visible="true" />
    <inkscape:path-effect
       effect="spiro"
       id="path-effect4725"
       is_visible="true" />
    <inkscape:path-effect
       effect="spiro"
       id="path-effect4717"
       is_visible="true" />
    <inkscape:path-effect
       effect="spiro"
       id="path-effect4713"
       is_visible="true" />
    <inkscape:path-effect
       effect="spiro"
       id="path-effect4709"
       is_visible="true" />
    <inkscape:path-effect
       effect="spiro"
       id="path-effect4705"
       is_visible="true" />
    <inkscape:path-effect
       effect="spiro"
       id="path-effect4701"
       is_visible="true" />
    <inkscape:path-effect
       effect="spiro"
       id="path-effect4697"
       is_visible="true" />
    <inkscape:path-effect
       effect="spiro"
       id="path-effect4693"
       is_visible="true" />
    <inkscape:path-effect
       effect="spiro"
       id="path-effect4689"
       is_visible="true" />
    <inkscape:path-effect
       effect="spiro"
       id="path-effect4685"
       is_visible="true" />
    <inkscape:path-effect
       effect="spiro"
       id="path-effect4681"
       is_visible="true" />
    <inkscape:path-effect
       effect="spiro"
       id="path-effect4677"
       is_visible="true" />
    <inkscape:path-effect
       effect="spiro"
       id="path-effect4673"
       is_visible="true" />
    <inkscape:path-effect
       effect="spiro"
       id="path-effect4669"
       is_visible="true" />
    <inkscape:path-effect
       effect="spiro"
       id="path-effect4665"
       is_visible="true" />
    <inkscape:path-effect
       effect="spiro"
       id="path-effect4688"
       is_visible="true" />
    <inkscape:path-effect
       effect="spiro"
       id="path-effect4684"
       is_visible="true" />
    <inkscape:path-effect
       effect="spiro"
       id="path-effect4680"
       is_visible="true" />
    <inkscape:path-effect
       effect="spiro"
       id="path-effect4676"
       is_visible="true" />
    <inkscape:path-effect
       effect="spiro"
       id="path-effect4672"
       is_visible="true" />
    <inkscape:path-effect
       effect="spiro"
       id="path-effect4668"
       is_visible="true" />
    <inkscape:path-effect
       effect="spiro"
       id="path-effect4664"
       is_visible="true" />
    <inkscape:path-effect
       effect="spiro"
       id="path-effect4660"
       is_visible="true" />
    <inkscape:path-effect
       effect="spiro"
       id="path-effect4656"
       is_visible="true" />
    <inkscape:path-effect
       effect="spiro"
       id="path-effect4652"
       is_visible="true" />
    <inkscape:path-effect
       effect="spiro"
       id="path-effect4648"
       is_visible="true" />
    <inkscape:path-effect
       effect="spiro"
       id="path-effect4643"
       is_visible="true" />
    <inkscape:path-effect
       effect="spiro"
       id="path-effect4637"
       is_visible="true" />
    <inkscape:path-effect
       effect="spiro"
       id="path-effect4691"
       is_visible="true" />
    <inkscape:path-effect
       effect="spiro"
       id="path-effect4687"
       is_visible="true" />
    <inkscape:path-effect
       effect="spiro"
       id="path-effect4683"
       is_visible="true" />
    <inkscape:path-effect
       effect="spiro"
       id="path-effect4679"
       is_visible="true" />
    <inkscape:path-effect
       effect="spiro"
       id="path-effect4671"
       is_visible="true" />
    <inkscape:path-effect
       effect="spiro"
       id="path-effect4667"
       is_visible="true" />
    <inkscape:path-effect
       effect="spiro"
       id="path-effect4663"
       is_visible="true" />
    <inkscape:path-effect
       effect="spiro"
       id="path-effect4659"
       is_visible="true" />
    <inkscape:path-effect
       effect="spiro"
       id="path-effect4655"
       is_visible="true" />
    <inkscape:path-effect
       effect="spiro"
       id="path-effect4651"
       is_visible="true" />
    <inkscape:path-effect
       effect="spiro"
       id="path-effect4647"
       is_visible="true" />
    <inkscape:path-effect
       effect="spiro"
       id="path-effect4686"
       is_visible="true" />
    <inkscape:path-effect
       effect="spiro"
       id="path-effect4682"
       is_visible="true" />
    <inkscape:path-effect
       effect="spiro"
       id="path-effect4678"
       is_visible="true" />
    <inkscape:path-effect
       effect="spiro"
       id="path-effect4674"
       is_visible="true" />
    <inkscape:path-effect
       effect="spiro"
       id="path-effect4670"
       is_visible="true" />
    <inkscape:path-effect
       effect="spiro"
       id="path-effect4666"
       is_visible="true" />
    <inkscape:path-effect
       effect="spiro"
       id="path-effect4662"
       is_visible="true" />
    <inkscape:path-effect
       effect="spiro"
       id="path-effect4658"
       is_visible="true" />
    <inkscape:path-effect
       effect="spiro"
       id="path-effect4654"
       is_visible="true" />
    <inkscape:path-effect
       effect="spiro"
       id="path-effect4650"
       is_visible="true" />
    <inkscape:path-effect
       effect="spiro"
       id="path-effect4646"
       is_visible="true" />
    <inkscape:path-effect
       effect="spiro"
       id="path-effect4642"
       is_visible="true" />
    <inkscape:path-effect
       effect="spiro"
       id="path-effect4638"
       is_visible="true" />
    <inkscape:path-effect
       effect="spiro"
       id="path-effect4634"
       is_visible="true" />
    <inkscape:path-effect
       effect="spiro"
       id="path-effect4630"
       is_visible="true" />
    <inkscape:path-effect
       effect="spiro"
       id="path-effect4626"
       is_visible="true" />
    <inkscape:path-effect
       effect="spiro"
       id="path-effect4622"
       is_visible="true" />
    <inkscape:path-effect
       effect="spiro"
       id="path-effect4618"
       is_visible="true" />
    <inkscape:path-effect
       effect="spiro"
       id="path-effect4614"
       is_visible="true" />
    <inkscape:path-effect
       effect="spiro"
       id="path-effect4872"
       is_visible="true" />
    <inkscape:path-effect
       effect="spiro"
       id="path-effect4661"
       is_visible="true" />
    <inkscape:path-effect
       effect="spiro"
       id="path-effect4657"
       is_visible="true" />
    <inkscape:path-effect
       effect="spiro"
       id="path-effect4653"
       is_visible="true" />
    <inkscape:path-effect
       effect="spiro"
       id="path-effect4649"
       is_visible="true" />
    <inkscape:path-effect
       effect="spiro"
       id="path-effect4645"
       is_visible="true" />
    <inkscape:path-effect
       effect="spiro"
       id="path-effect4641"
       is_visible="true" />
    <inkscape:path-effect
       effect="spiro"
       id="path-effect4633"
       is_visible="true" />
    <inkscape:path-effect
       effect="spiro"
       id="path-effect4629"
       is_visible="true" />
    <inkscape:path-effect
       effect="spiro"
       id="path-effect4625"
       is_visible="true" />
    <inkscape:path-effect
       effect="spiro"
       id="path-effect4621"
       is_visible="true" />
    <inkscape:path-effect
       effect="spiro"
       id="path-effect4617"
       is_visible="true" />
    <inkscape:path-effect
       effect="spiro"
       id="path-effect4613"
       is_visible="true" />
    <inkscape:path-effect
       effect="spiro"
       id="path-effect4605"
       is_visible="true" />
    <inkscape:path-effect
       effect="spiro"
       id="path-effect4601"
       is_visible="true" />
    <inkscape:path-effect
       effect="spiro"
       id="path-effect4597"
       is_visible="true" />
    <inkscape:path-effect
       effect="spiro"
       id="path-effect4821"
       is_visible="true" />
    <inkscape:path-effect
       effect="spiro"
       id="path-effect4640"
       is_visible="true" />
    <inkscape:path-effect
       effect="spiro"
       id="path-effect4636"
       is_visible="true" />
    <inkscape:path-effect
       effect="spiro"
       id="path-effect4632"
       is_visible="true" />
    <inkscape:path-effect
       effect="spiro"
       id="path-effect4628"
       is_visible="true" />
    <inkscape:path-effect
       effect="spiro"
       id="path-effect4624"
       is_visible="true" />
    <inkscape:path-effect
       effect="spiro"
       id="path-effect4620"
       is_visible="true" />
    <inkscape:path-effect
       effect="spiro"
       id="path-effect4616"
       is_visible="true" />
    <inkscape:path-effect
       effect="spiro"
       id="path-effect4612"
       is_visible="true" />
    <inkscape:path-effect
       effect="spiro"
       id="path-effect4608"
       is_visible="true" />
    <inkscape:path-effect
       effect="spiro"
       id="path-effect4604"
       is_visible="true" />
    <inkscape:path-effect
       effect="spiro"
       id="path-effect4600"
       is_visible="true" />
    <inkscape:path-effect
       effect="spiro"
       id="path-effect4596"
       is_visible="true" />
    <inkscape:path-effect
       effect="spiro"
       id="path-effect4592"
       is_visible="true" />
    <inkscape:path-effect
       effect="spiro"
       id="path-effect4588"
       is_visible="true" />
    <inkscape:path-effect
       effect="spiro"
       id="path-effect4584"
       is_visible="true" />
    <inkscape:path-effect
       effect="spiro"
       id="path-effect4580"
       is_visible="true" />
    <inkscape:path-effect
       effect="spiro"
       id="path-effect4576"
       is_visible="true" />
    <inkscape:path-effect
       effect="spiro"
       id="path-effect4572"
       is_visible="true" />
    <inkscape:path-effect
       effect="spiro"
       id="path-effect4568"
       is_visible="true" />
    <inkscape:path-effect
       effect="spiro"
       id="path-effect4564"
       is_visible="true" />
    <inkscape:path-effect
       effect="spiro"
       id="path-effect4813"
       is_visible="true" />
    <inkscape:path-effect
       effect="spiro"
       id="path-effect4635"
       is_visible="true" />
    <inkscape:path-effect
       effect="spiro"
       id="path-effect4631"
       is_visible="true" />
    <inkscape:path-effect
       effect="spiro"
       id="path-effect4627"
       is_visible="true" />
    <inkscape:path-effect
       effect="spiro"
       id="path-effect4623"
       is_visible="true" />
    <inkscape:path-effect
       effect="spiro"
       id="path-effect4619"
       is_visible="true" />
    <inkscape:path-effect
       effect="spiro"
       id="path-effect4615"
       is_visible="true" />
    <inkscape:path-effect
       effect="spiro"
       id="path-effect4611"
       is_visible="true" />
    <inkscape:path-effect
       effect="spiro"
       id="path-effect4607"
       is_visible="true" />
    <inkscape:path-effect
       effect="spiro"
       id="path-effect4595"
       is_visible="true" />
    <inkscape:path-effect
       effect="spiro"
       id="path-effect4591"
       is_visible="true" />
    <inkscape:path-effect
       effect="spiro"
       id="path-effect4587"
       is_visible="true" />
    <inkscape:path-effect
       effect="spiro"
       id="path-effect4583"
       is_visible="true" />
    <inkscape:path-effect
       effect="spiro"
       id="path-effect4579"
       is_visible="true" />
    <inkscape:path-effect
       effect="spiro"
       id="path-effect4574"
       is_visible="true" />
    <clipPath
       clipPathUnits="userSpaceOnUse"
       id="clipPath4150">
      <rect
         style="opacity:1;fill:#000000;fill-opacity:1;fill-rule:evenodd;stroke:none;stroke-width:4;stroke-linecap:round;stroke-linejoin:round;stroke-miterlimit:4;stroke-dasharray:none;stroke-dashoffset:2.4000001;stroke-opacity:1"
         id="rect4152"
         width="694.28571"
         height="822.85712"
         x="-62.857143"
         y="75.21933"
         transform="rotate(90)" />
    </clipPath>
    <clipPath
       clipPathUnits="userSpaceOnUse"
       id="clipPath4194">
      <rect
         style="opacity:1;fill:#000000;fill-opacity:1;fill-rule:evenodd;stroke:none;stroke-width:4;stroke-linecap:round;stroke-linejoin:round;stroke-miterlimit:4;stroke-dasharray:none;stroke-dashoffset:2.4000001;stroke-opacity:1"
         id="rect4196"
         width="652.55853"
         height="800.04083"
         x="54.548237"
         y="98.778214"
         transform="rotate(90)" />
    </clipPath>
    <clipPath
       clipPathUnits="userSpaceOnUse"
       id="clipPath8848">
      <rect
         style="opacity:1;fill:#b0c836;fill-opacity:1;fill-rule:evenodd;stroke:none;stroke-width:4;stroke-linecap:round;stroke-linejoin:round;stroke-miterlimit:4;stroke-dasharray:none;stroke-dashoffset:2.4000001;stroke-opacity:1"
         id="rect8850"
         width="256.66153"
         height="167.81715"
         x="541.52765"
         y="194.94344" />
    </clipPath>
    <filter
       style="color-interpolation-filters:sRGB"
       inkscape:label="Lightness-Contrast"
       id="filter4634">
      <feColorMatrix
         values="2.406 0 0 0.213727 -0.703 0 2.406 0 0.213727 -0.703 0 0 2.406 0.213727 -0.703 0 0 0 1 0"
         id="feColorMatrix4632" />
    </filter>
    <clipPath
       clipPathUnits="userSpaceOnUse"
       id="clipPath4682">
      <rect
         y="115.27039"
         x="114.58923"
         height="808.05273"
         width="627.70026"
         id="rect4684"
         style="opacity:1;fill:none;fill-opacity:1;fill-rule:evenodd;stroke:#000000;stroke-width:20.7333107;stroke-linecap:square;stroke-linejoin:miter;stroke-miterlimit:4;stroke-dasharray:none;stroke-dashoffset:0;stroke-opacity:1;paint-order:normal"
         transform="rotate(-90)" />
    </clipPath>
    <clipPath
       clipPathUnits="userSpaceOnUse"
       id="clipPath1016">
      <rect
         style="fill:#000000;fill-opacity:0.53266332;stroke:none;stroke-width:4.48228312;stroke-linecap:round;stroke-linejoin:miter;stroke-miterlimit:4;stroke-dasharray:none;stroke-dashoffset:0;stroke-opacity:1;paint-order:normal"
         id="rect1018"
         width="555.58472"
         height="750"
         x="128.40645"
         y="120.06977" />
    </clipPath>
    <inkscape:path-effect
       effect="spiro"
       id="path-effect4694-9"
       is_visible="true" />
    <clipPath
       clipPathUnits="userSpaceOnUse"
       id="clipPath1045">
      <rect
         style="opacity:0.60500004;fill:#000000;fill-opacity:1;stroke:none;stroke-width:4.48228312;stroke-linecap:round;stroke-linejoin:miter;stroke-miterlimit:4;stroke-dasharray:none;stroke-dashoffset:0;stroke-opacity:1;paint-order:normal"
         id="rect1047"
         width="555.58472"
         height="750"
         x="128.40645"
         y="120.06977" />
    </clipPath>
  </defs>
  <sodipodi:namedview
     id="base"
     pagecolor="#ffffff"
     bordercolor="#666666"
     borderopacity="1.0"
     inkscape:pageopacity="0.0"
     inkscape:pageshadow="2"
     inkscape:zoom="0.70737053"
     inkscape:cx="480.12686"
     inkscape:cy="345.92847"
     inkscape:document-units="px"
     inkscape:current-layer="layer2"
     showgrid="false"
     units="px"
     inkscape:window-width="1680"
     inkscape:window-height="987"
     inkscape:window-x="3832"
     inkscape:window-y="288"
     inkscape:window-maximized="1"
     fit-margin-top="0"
     fit-margin-left="15"
     fit-margin-right="15"
     fit-margin-bottom="0"
     inkscape:snap-global="true"
     borderlayer="true"
     inkscape:snap-page="true"
     inkscape:snap-smooth-nodes="true" />
  <metadata
     id="metadata7">
    <rdf:RDF>
      <cc:Work
         rdf:about="">
        <dc:format>image/svg+xml</dc:format>
        <dc:type
           rdf:resource="http://purl.org/dc/dcmitype/StillImage" />
        <dc:title></dc:title>
      </cc:Work>
    </rdf:RDF>
  </metadata>
  <g
     inkscape:groupmode="layer"
     id="layer2"
     inkscape:label="Layer 2"
     style="display:inline"
     transform="translate(-128.40645,-120.06977)">
    <g
       id="g1043"
       clip-path="url(#clipPath1045)">
      <path
         inkscape:connector-curvature="0"
         id="path4686"
         transform="matrix(0.9375,0,0,0.9375,128.40645,120.06977)"
         d="M 17.132812,60 V 246.5293 H 200.91211 V 797.86719 H 387.51953 V 253.59766 h 187.9707 V 60 h -32.19335 -0.65626 c -0.0426,0.41419 -0.0998,0.826783 -0.1289,1.242188 -0.47778,6.8192 0.87577,13.757509 3.8789,19.898437 2.4652,5.040928 5.98192,9.488509 8.75782,14.365234 1.38794,2.438368 2.59399,4.997171 3.34961,7.699221 0.7556,2.70205 1.05168,5.55851 0.61523,8.33008 -0.48824,3.10052 -1.88885,6.02681 -3.84375,8.48242 -1.9549,2.45561 -4.45261,4.451 -7.18359,5.99804 -5.46198,3.0941 -11.74497,4.38029 -17.95313,5.31055 -6.87333,1.02993 -13.87214,1.69317 -20.41992,4.02344 -3.27389,1.16514 -6.41957,2.75132 -9.15039,4.90039 -2.73082,2.14908 -5.0392,4.87807 -6.47852,8.04102 -0.66378,1.4587 -1.14395,3.01985 -1.21093,4.62109 -0.067,1.60124 0.30104,3.24907 1.21093,4.56836 1.17151,1.69859 3.16654,2.72553 5.2129,2.99023 2.04635,0.26472 4.13562,-0.17457 6.04492,-0.95703 3.81859,-1.5649 6.95955,-4.43706 10.65429,-6.27539 6.18259,-3.07616 13.64597,-3.01778 20.14649,-0.6875 6.50053,2.33028 12.09403,6.77322 16.60937,11.99805 8.63641,9.99343 13.60418,23.27455 12.8125,36.45898 -0.79168,13.18444 -7.56736,26.05712 -18.46679,33.51758 -10.35908,7.09059 -23.54647,8.99126 -36.0586,7.97461 -12.51214,-1.01665 -24.62643,-4.71063 -36.74804,-7.97461 -7.21239,-1.94208 -14.53227,-3.76343 -21.1875,-7.1543 -6.65525,-3.39087 -12.69817,-8.56903 -15.56836,-15.46484 -1.58105,-3.79856 -2.13828,-7.96402 -2.08399,-12.07813 0.0543,-4.1141 0.70451,-8.19821 1.46289,-12.24218 1.51675,-8.08794 3.48014,-16.35012 2.03516,-24.45117 -0.52703,-2.95468 -1.518,-5.85498 -3.16016,-8.36719 -1.64216,-2.51222 -3.96069,-4.62299 -6.73437,-5.76953 -2.49164,-1.02996 -5.29343,-1.25361 -7.93946,-0.73633 -2.64602,0.51728 -5.13289,1.76187 -7.20703,3.48437 -4.14825,3.44502 -6.53748,8.69634 -7.25195,14.04102 -0.71447,5.34468 0.12266,10.79401 1.57031,15.98828 1.44766,5.19427 3.49773,10.19701 5.27735,15.28711 1.83636,5.25241 3.39925,10.68322 3.51953,16.24609 0.12027,5.56286 -1.32901,11.32376 -4.9336,15.5625 -2.60835,3.06725 -6.19927,5.17996 -9.98437,6.55274 -3.7851,1.37278 -7.78401,2.04921 -11.76953,2.62109 -3.98553,0.57188 -7.99712,1.04937 -11.89844,2.04492 -3.90133,0.99555 -7.72278,2.539 -10.87891,5.03907 -3.15238,2.49708 -5.5439,5.88489 -7.11718,9.58593 -1.57328,3.70105 -2.35028,7.70951 -2.57813,11.72461 -0.4557,8.0302 1.2437,16.0025 2.62695,23.92578 2.54447,14.5748 4.03436,29.59878 1.17579,44.11524 -1.4293,7.25822 -3.95437,14.33487 -7.79688,20.65625 -3.84252,6.32137 -9.02647,11.87411 -15.29102,15.80859 -6.14105,3.85693 -13.3074,6.18492 -18.65234,11.08594 -2.67247,2.45051 -4.83618,5.57271 -5.62695,9.11133 -0.39543,1.7693 -0.43989,3.62493 -0.0547,5.39648 0.38522,1.77155 1.20689,3.45521 2.42188,4.80078 1.39891,1.54927 3.29551,2.61965 5.32031,3.12696 2.0248,0.50707 4.17045,0.46503 6.20312,-0.01 4.06534,-0.94959 7.57638,-3.565 10.38867,-6.65039 2.02266,-2.21906 3.75607,-4.71325 5.99415,-6.71484 1.11905,-1.00079 2.36471,-1.87497 3.74609,-2.46289 1.38138,-0.58793 2.90413,-0.88221 4.39648,-0.71875 2.16856,0.23752 4.1543,1.43103 5.66797,3.00195 1.51369,1.57093 2.59941,3.5034 3.52149,5.48047 5.69953,12.22052 5.51473,26.34721 3.82031,39.72461 -1.69442,13.37741 -4.78827,26.66667 -4.52734,40.14843 0.27544,14.23195 4.27575,28.08555 7.69921,41.90235 3.42348,13.8168 6.30978,28.11854 4.31641,42.21289 -2.77235,19.60223 -14.713,36.97163 -17.66992,56.54687 -2.19232,14.51352 0.70308,29.30588 4.5293,43.47657 3.82621,14.17068 8.61414,28.17846 10.31445,42.75781 1.79905,15.42594 0.046,31.24009 -4.94922,45.94531 -3.15667,9.29275 -7.84025,18.45576 -15.59375,24.47266 -3.87675,3.00844 -8.48025,5.14908 -13.3418,5.8164 -4.86153,0.66734 -9.97699,-0.19266 -14.18164,-2.72265 -3.25349,-1.95767 -5.89856,-4.86652 -7.71093,-8.20313 -1.81238,-3.33662 -2.80694,-7.08973 -3.08008,-10.87695 -0.54626,-7.57445 1.75588,-15.11597 5.13672,-21.91602 1.67331,-3.36561 3.6236,-6.61798 4.82421,-10.17968 0.60032,-1.78087 1.00756,-3.63749 1.07422,-5.51563 0.0666,-1.87813 -0.21603,-3.7802 -0.95117,-5.50976 -0.88905,-2.09171 -2.43575,-3.89092 -4.3418,-5.12891 -1.90604,-1.23798 -4.16015,-1.91702 -6.43164,-1.99414 -2.27149,-0.0771 -4.55455,0.44166 -6.59375,1.44531 -2.03919,1.00366 -3.83544,2.48628 -5.25195,4.26367 -2.18422,2.7407 -3.44352,6.13551 -4.02344,9.5918 -0.5799,3.45628 -0.509,6.98922 -0.25195,10.48438 0.51411,6.99031 1.75778,14.1257 0.0352,20.91992 -1.6271,6.41743 -5.91131,12.05237 -11.46875,15.65039 -5.55744,3.59802 -12.31447,5.19615 -18.92578,4.84765 -6.65554,-0.35082 -13.17599,-2.63838 -18.68946,-6.38281 -5.51346,-3.74444 -10.01929,-8.92226 -13.11914,-14.82226 -5.51544,-10.49763 -6.46615,-23.03778 -3.99023,-34.63477 2.47591,-11.59698 8.19502,-22.31499 15.30078,-31.80859 6.19092,-8.27135 13.49322,-15.76821 18.60937,-24.74414 2.55808,-4.48798 4.55061,-9.34434 5.40235,-14.43946 0.85172,-5.09511 0.52472,-10.44535 -1.39258,-15.24218 -1.18759,-2.97118 -3.04075,-5.76919 -5.71289,-7.5293 -1.33607,-0.88005 -2.86298,-1.48483 -4.45117,-1.67774 -1.5882,-0.19291 -3.23614,0.0349 -4.67969,0.72461 -1.78174,0.85132 -3.18561,2.36688 -4.17774,4.07422 -0.99212,1.70734 -1.60411,3.6067 -2.10937,5.51563 -0.50525,1.90894 -0.91203,3.84757 -1.53711,5.7207 -0.62508,1.87312 -1.48254,3.6983 -2.7793,5.1875 -2.26558,2.60179 -5.75246,3.96373 -9.20117,4.05664 -3.4487,0.0929 -6.85379,-0.99115 -9.88281,-2.64258 -6.47778,-3.5317 -11.36062,-9.64544 -14.07031,-16.50781 -2.7097,-6.86236 -3.34535,-14.43218 -2.57227,-21.76953 1.54616,-14.67473 8.45779,-28.1432 14.52148,-41.5957 11.00787,-24.42128 20.15247,-50.83271 39.58399,-69.27149 3.11342,-2.95436 6.58301,-5.73181 10.70508,-6.92773 2.06102,-0.59797 4.2604,-0.77781 6.36523,-0.35938 2.10483,0.41845 4.10846,1.45605 5.54883,3.04688 1.52558,1.68495 2.35881,3.90546 2.71484,6.15039 0.35604,2.24493 0.2649,4.53326 0.13868,6.80273 -0.1263,2.26947 -0.28517,4.55026 -0.0645,6.8125 0.22072,2.26224 0.84541,4.53119 2.15821,6.38672 1.75426,2.47949 4.67891,4.04045 7.70312,4.32227 3.02421,0.28181 6.10855,-0.66502 8.58203,-2.42774 2.47348,-1.76272 4.34637,-4.30553 5.5,-7.11523 1.15363,-2.8097 1.60896,-5.87946 1.54102,-8.91602 -0.14869,-6.64253 -2.75546,-13.0412 -6.35938,-18.62304 -3.60392,-5.58185 -8.18835,-10.45186 -12.72656,-15.30469 -3.15538,-3.37415 -6.34305,-6.79233 -10.21094,-9.31836 -3.86787,-2.52603 -8.54761,-4.10854 -13.11328,-3.4043 -4.44028,0.68491 -8.33149,3.45744 -11.30859,6.82227 -2.9771,3.36482 -5.17946,7.32754 -7.50782,11.16992 -2.32836,3.84239 -4.85807,7.65589 -8.31835,10.52148 -1.73015,1.43279 -3.68472,2.61397 -5.8086,3.34571 -2.12387,0.73176 -4.4217,1.00453 -6.64062,0.65429 -3.62069,-0.57149 -6.87227,-2.80677 -9.03321,-5.76757 -2.16092,-2.96079 -3.28585,-6.59696 -3.58789,-10.25 -0.60407,-7.30608 1.92926,-14.45516 4.13867,-21.44532 5.44386,-17.22325 9.11401,-34.95589 14.13672,-52.30664 2.17179,-7.50233 4.62836,-15.00377 8.61719,-21.71875 3.98883,-6.71498 9.65666,-12.65485 16.83008,-15.74414 6.11557,-2.63373 13.00034,-3.08686 19.09375,-5.77148 3.0467,-1.34231 5.90375,-3.28293 7.84961,-5.98438 0.97293,-1.35072 1.70612,-2.8818 2.08008,-4.5039 0.37395,-1.62211 0.38333,-3.33619 -0.043,-4.94532 -0.53837,-2.03213 -1.76689,-3.85727 -3.37696,-5.20898 -1.61006,-1.35171 -3.59013,-2.23619 -5.65234,-2.64453 -4.12441,-0.81667 -8.44401,0.2623 -12.17578,2.19922 -6.89541,3.57895 -11.99065,9.87821 -16.03125,16.51367 -4.0406,6.63544 -7.23718,13.77178 -11.53711,20.24219 -1.22229,1.83927 -2.5615,3.65276 -4.35352,4.94336 -0.89601,0.64529 -1.90138,1.15234 -2.97265,1.41992 -1.07128,0.26757 -2.21047,0.28992 -3.27539,-0.002 -1.78202,-0.48841 -3.23784,-1.82558 -4.23242,-3.38281 -0.99457,-1.55724 -1.58203,-3.33465 -2.12891,-5.09961 -8.83946,-28.52786 -9.52302,-59.61142 -1.41406,-88.35547 3.87015,-13.71866 9.69631,-26.93193 12.01562,-40.99609 0.82216,-4.98547 1.19053,-10.12722 0.125,-15.06641 -1.06553,-4.93919 -3.70173,-9.6889 -7.90039,-12.5 -3.91008,-2.61788 -8.84748,-3.35451 -13.53125,-2.90234 -4.68376,0.45217 -9.18518,2.00386 -13.59179,3.6543 -4.40661,1.65043 -8.80093,3.41971 -13.41602,4.33789 -4.61509,0.91816 -9.53397,0.93804 -13.88672,-0.84961 -3.33532,-1.3698 -6.21654,-3.76815 -8.30273,-6.70899 -2.08619,-2.94083 -3.38887,-6.40828 -3.91993,-9.97461 -1.06209,-7.13266 0.9536,-14.4708 4.44727,-20.77929 4.61485,-8.33298 11.78536,-15.14754 20.10352,-19.78907 8.31815,-4.64152 17.74903,-7.15067 27.2539,-7.77734 3.87466,-0.25545 7.87554,-0.22774 11.46094,-1.71875 1.7927,-0.7455 3.45287,-1.87995 4.625,-3.42773 1.17213,-1.5478 1.8248,-3.53025 1.58594,-5.45703 -0.13505,-1.08946 -0.54829,-2.13627 -1.14063,-3.06055 -0.59234,-0.92427 -1.36082,-1.7277 -2.2207,-2.41016 -1.71975,-1.36491 -3.77383,-2.23488 -5.82813,-3.00976 -12.0727,-4.55385 -25.41649,-6.3168 -38.0039,-3.48047 -12.58742,2.83633 -24.29608,10.57608 -30.5586,21.85742 -5.26105,9.4773 -6.42898,20.60075 -7.75195,31.35937 -1.32296,10.75862 -3.06576,21.91566 -9.21289,30.84376 -6.17589,8.96988 -16.30048,14.71242 -26.90039,17.21093 -10.599905,2.49851 -21.694898,2.00768 -32.47461,0.45899 -9.199829,-1.32172 -18.442582,-3.46003 -26.519531,-8.0586 -4.038475,-2.29928 -7.752511,-5.20671 -10.775391,-8.73632 -3.02288,-3.52962 -5.342822,-7.69242 -6.529297,-12.18555 -1.494986,-5.66147 -1.157496,-11.68982 0.179688,-17.39063 1.337173,-5.7008 3.641262,-11.12379 6.080078,-16.44726 2.438816,-5.32348 5.029001,-10.59376 6.978515,-16.11524 1.949515,-5.52147 3.254454,-11.34645 3.019532,-17.19726 -0.386326,-9.62159 -4.8453,-18.52956 -8.792969,-27.3125 C 35.8855,104.56919 34.011121,100.1095 32.802694,95.448949 31.594278,90.788394 31.065674,85.897368 31.808554,81.140355 32.845012,74.503406 36.271045,68.497842 38.169882,62.054418 38.370023,61.375673 38.546931,60.689799 38.710938,60 h -0.541016 z m 47.316407,0 c 0.01849,7.05495 -0.186259,14.142334 0.580078,21.140625 0.347499,3.173376 0.913367,6.376519 2.335937,9.234375 0.711296,1.428939 1.635388,2.760188 2.789063,3.863281 1.153675,1.103083 2.541477,1.975301 4.064453,2.453125 1.704501,0.534774 3.545421,0.566077 5.300781,0.234375 1.75536,-0.331701 3.43092,-1.018151 4.994141,-1.882812 3.126432,-1.729344 5.800497,-4.154702 8.697266,-6.246094 2.896778,-2.091392 6.174987,-3.900826 9.742182,-4.101563 1.78361,-0.100373 3.60859,0.220982 5.1875,1.056641 1.57892,0.835669 2.89716,2.204737 3.54102,3.871094 0.42289,1.094432 0.55009,2.293257 0.43555,3.460937 -0.11455,1.16768 -0.46614,2.304028 -0.97071,3.363282 -1.00914,2.118496 -2.60161,3.900224 -4.25,5.570314 -1.64839,1.67009 -3.38493,3.27186 -4.77539,5.16211 -1.39046,1.89024 -2.432067,4.13013 -2.457028,6.47656 -0.02715,2.55457 1.200528,5.059 3.130858,6.73242 1.93035,1.67343 4.51373,2.52851 7.06836,2.50781 2.55464,-0.0207 5.07015,-0.88685 7.19922,-2.29882 2.12907,-1.41197 3.87976,-3.35479 5.2207,-5.5293 3.45653,-5.6052 4.12129,-12.41916 5.14844,-18.923829 0.51357,-3.25233 1.1431,-6.504029 2.29688,-9.58789 1.15377,-3.083872 2.85924,-6.01148 5.27929,-8.244141 3.13569,-2.892885 7.34837,-4.475787 11.59961,-4.833984 4.25123,-0.358198 8.54183,0.45062 12.56055,1.882812 8.03745,2.864384 14.96616,8.116508 22.49023,12.140625 13.77445,7.367019 29.63169,10.561765 45.23828,9.896485 10.29846,-0.439009 20.46653,-2.507706 30.75391,-3.15625 10.28738,-0.648545 21.04006,0.241598 30.03516,5.27539 4.66677,2.611592 8.68143,6.238632 13.17968,9.130862 2.24912,1.44611 4.63279,2.71304 7.17969,3.52734 2.54691,0.81425 5.26921,1.16659 7.91406,0.77344 2.96851,-0.44126 5.84442,-1.88132 7.69727,-4.24219 0.92643,-1.18044 1.58538,-2.57581 1.86133,-4.05078 0.27596,-1.47498 0.16399,-3.02897 -0.36914,-4.43164 -0.81074,-2.133078 -2.50857,-3.787465 -4.17383,-5.347657 -1.66526,-1.560203 -3.39486,-3.162877 -4.30859,-5.253906 -0.68855,-1.575691 -0.86361,-3.361696 -0.5625,-5.054688 0.30109,-1.692992 1.06979,-3.291306 2.15039,-4.628906 2.1612,-2.675211 5.49969,-4.232939 8.90625,-4.705078 3.40655,-0.472128 6.8862,0.06234 10.19336,1.005859 3.30715,0.943531 6.48309,2.288931 9.70703,3.486328 18.37903,6.826134 38.21579,8.759073 57.81836,9.111329 19.60257,0.352298 39.22514,-0.814398 58.81054,0.07813 9.19711,0.419285 18.42369,1.29039 27.58985,0.427734 9.16614,-0.862656 18.43804,-3.620419 25.42382,-9.617188 4.51571,-3.876384 7.90296,-8.9697 10.17383,-14.470703 0.70811,-1.715344 1.29927,-3.473313 1.8086,-5.255859 H 64.675781 Z"
         style="opacity:1;vector-effect:none;fill:#000000;fill-opacity:1;stroke:#000000;stroke-width:4.26699972;stroke-linecap:butt;stroke-linejoin:miter;stroke-miterlimit:4;stroke-dasharray:none;stroke-dashoffset:0;stroke-opacity:1" />
      <path
         sodipodi:nodetypes="ccccssssssccssscssccscssssssccscsssscssscsccscssssscccsssssscssssssssssccccssssssssssssscsssccc"
         inkscape:original-d="m 119.12913,143.50727 h 14.24731 c 33.13327,-0.994 25.73445,27.8913 30.81394,34.73979 5.0795,6.84848 -3.97505,11.92704 -5.96399,17.89196 -1.98893,5.96493 9.27826,34.45767 13.91598,51.68791 4.63772,17.23023 -10.15993,41.96787 -15.24131,62.95321 -5.08137,20.98534 27.39111,18.11192 41.08526,27.16929 13.69415,9.05736 37.1102,-11.04536 55.6639,-16.56664 18.55369,-5.52127 10.60358,-38.87731 15.90397,-58.31456 5.30038,-19.43724 42.8533,-11.48714 64.27854,-17.2293 21.42525,-5.74216 5.74404,5.30039 8.61465,7.95199 2.87062,2.65159 -11.04348,6.62571 -16.56663,9.93998 -5.52315,3.31426 -29.59812,17.22836 -44.39859,25.84395 -14.80046,8.61559 4.86049,23.41324 7.28933,35.12126 2.42884,11.70804 34.01776,-2.65159 51.02523,-3.97599 17.00748,-1.32439 4.86049,17.22837 7.28932,25.84396 2.42884,8.61559 -7.50927,25.62212 -11.26531,38.43459 -3.75604,12.81247 0.88449,55.22118 1.32534,82.83318 0.44084,27.612 3.97693,5.30038 5.96398,7.95199 1.98706,2.6516 6.6276,-3.97693 9.93998,-5.96399 3.3124,-1.98706 17.23024,-22.97335 25.84395,-34.4586 8.61371,-11.48527 13.25425,3.53328 19.87997,5.30132 6.62572,1.76805 -18.11192,13.25237 -27.16928,19.87996 -9.05737,6.6276 -15.90304,23.41324 -23.85596,35.12127 -7.95292,11.70802 -8.8346,32.69056 -13.25331,49.03724 -4.4187,16.34669 5.30226,23.41325 7.95198,35.12127 2.64973,11.70803 24.74045,-20.32267 37.10927,-30.48261 12.36882,-10.15994 14.57958,7.95105 21.86796,11.92798 7.28838,3.97693 11.92892,21.20435 17.89196,31.80794 5.96306,10.60358 -14.57769,8.8346 -21.86795,13.2533 -7.29026,4.41871 -3.0915,-16.34668 -4.63866,-24.51861 -1.54716,-8.17194 -14.13593,2.64972 -21.20529,3.97599 -7.06937,1.32626 -24.73858,43.2932 -37.10927,64.94121 -12.37069,21.64801 1.32627,49.91986 1.98799,74.8812 0.66174,24.96133 11.92892,-0.8845 17.89198,-1.32534 5.96305,-0.44084 6.62759,-12.81246 9.93997,-19.21729 3.31239,-6.40484 9.27826,5.30039 13.91598,7.95198 4.63772,2.6516 -14.13593,34.01589 -21.20529,51.02524 -7.06937,17.00935 -7.0675,41.52609 -10.60265,62.29055 -3.53515,20.76445 19.8809,13.25238 29.81994,19.87997 9.93905,6.62759 18.99735,-12.81248 28.49462,-19.2173 9.49726,-6.40483 2.6516,-25.624 3.97599,-38.4346 1.32439,-12.81059 14.1378,0.88262 21.20529,1.32533 7.06749,0.44272 -3.0915,13.25237 -4.63866,19.87997 -1.54715,6.62759 3.53516,25.62212 5.30133,38.43459 1.76617,12.81247 26.94933,-17.23023 40.42259,-25.84396 13.47326,-8.61371 3.09338,-28.71643 4.63866,-43.07325 1.54528,-14.35681 -9.27638,-53.89772 -13.91598,-80.84518 -4.63959,-26.94745 11.04536,-35.34309 16.56664,-53.01323 5.52127,-17.67014 -7.50927,-52.5724 -11.26531,-78.85719 -3.75604,-26.28479 0.44271,-49.92173 0.66266,-74.8812 0.21996,-24.95945 -5.74216,-5.30225 -8.61465,-7.95198 -2.87248,-2.64973 -8.8346,6.18394 -13.25331,9.27732 -4.41871,3.09337 -13.69414,2.20794 -20.54263,3.31332 -6.84847,1.10539 13.69602,-18.99734 20.54263,-28.49461 6.84661,-9.49727 13.69603,-50.36351 20.54264,-75.54386 6.8466,-25.18035 4.4187,-28.27466 6.62665,-42.41059 2.20794,-14.13592 27.83288,-10.16181 41.74792,-15.2413 13.91503,-5.0795 0.88449,-19.8809 1.32533,-29.81995 0.44084,-9.93904 9.72003,-30.04177 14.57864,-45.06124 4.85861,-15.01948 6.18581,8.83459 9.27731,13.2533 3.09151,4.41871 -0.88261,30.48167 -1.32532,45.72391 -0.44272,15.24225 22.97333,14.13594 34.4586,21.20531 11.48526,7.06936 45.50396,-9.4e-4 68.25453,0 22.75058,9.3e-4 3.53516,-43.73686 5.30133,-65.60388 1.76617,-21.86703 -22.97147,-7.06937 -34.4586,-10.60265 -11.48714,-3.53328 -13.69415,2.64972 -20.54263,3.97599 -6.84848,1.32627 9.4e-4,-5.74404 0,-8.61465 -9.4e-4,-2.87061 22.53157,-10.60359 33.79594,-15.90397 11.26437,-5.30039 18.11379,-12.3707 27.16928,-18.55463 9.05549,-6.18394 -7.95105,-18.99735 -11.92798,-28.49462 -3.97693,-9.49727 35.60198,-52.63175 35.60198,-52.63175 h 40.39095 l -13.03971,-18.75 h -44.39858 c -59.97763,-1.8743 -22.08792,32.28355 -33.13328,40.23648 -11.04536,7.95292 -8.8346,19.87902 -13.25331,29.81994 -4.4187,9.94092 -33.13233,5.74216 -49.69991,8.61465 -16.56756,2.87249 -72.89225,-5.74404 -109.33979,-8.61465 -36.44753,-2.87061 -18.99547,6.18394 -28.49462,9.27732 -9.49914,3.09337 5.30227,6.62571 7.95199,9.93998 2.64972,3.31427 -5.74216,7.95105 -8.61465,11.92798 -2.87249,3.97693 -17.67014,-8.3947 -26.50662,-12.59065 -8.83647,-4.19594 -37.99188,-1.32626 -56.98922,-1.98799 -18.99735,-0.66173 -28.2728,-6.18582 -42.4106,-9.27732 -14.1378,-3.0915 -29.15633,-5.74404 -43.73591,-8.61465 -14.57958,-2.87061 -7.95105,22.97147 -11.92798,34.45861 -3.97693,11.48713 -14.13593,-0.8845 -21.20529,-1.32534 -7.06937,-0.44084 7.51114,-15.02135 11.2653,-22.53062 3.75418,-7.50927 -23.41323,4.41683 -35.12126,6.62665 -11.70803,2.20982 -5.74216,-9.72003 -8.61465,-14.57864 -2.87249,-4.85861 -1.32439,-25.18222 -1.988,-37.77193 -0.6636,-12.5897 26.513,-37.25448 -49.36219,-33.60982 h -26.84433 z"
         inkscape:path-effect="#path-effect4694"
         inkscape:connector-curvature="0"
         id="path4692"
         d="m 119.12913,143.50727 h 14.24731 c 4.68568,0 9.4281,0.0835 13.95075,1.30879 4.52264,1.22527 8.7674,3.60464 11.94932,7.04426 3.18192,3.43962 5.24421,7.86541 5.99799,12.49006 0.75377,4.62466 0.2404,9.4021 -1.08412,13.89668 -1.78016,6.04071 -4.99231,11.66982 -5.96399,17.89196 -0.69645,4.4597 -0.19989,9.04504 0.933,13.41431 1.1329,4.36927 2.88934,8.54992 4.73981,12.66693 3.70094,8.23401 7.88099,16.58643 8.24317,25.60667 0.22024,5.48514 -1.00321,10.94604 -2.83088,16.12242 -1.82767,5.17638 -4.25472,10.11606 -6.54111,15.10682 -2.28639,4.99076 -4.44742,10.0759 -5.70102,15.4204 -1.25361,5.34451 -1.56985,10.99594 -0.1683,16.30357 1.11232,4.21231 3.28795,8.11392 6.1219,11.42293 2.83395,3.30901 6.3158,6.03524 10.10187,8.19082 7.57214,4.31116 16.23665,6.31643 24.86149,7.55554 10.10598,1.45191 20.50763,1.91165 30.44504,-0.43071 9.93742,-2.34236 19.42896,-7.72666 25.21886,-16.13593 5.76293,-8.37009 7.39783,-18.82945 8.63811,-28.91565 1.24027,-10.08621 2.33362,-20.51394 7.26586,-29.39891 5.87111,-10.57626 16.84947,-17.83332 28.65017,-20.49237 11.80071,-2.65906 24.3102,-1.00616 35.62837,3.26307 1.9259,0.72645 3.85113,1.54288 5.46339,2.82249 0.80614,0.6398 1.52768,1.39349 2.083,2.25999 0.55532,0.86651 0.94165,1.84815 1.06826,2.86951 0.22393,1.80636 -0.38759,3.66323 -1.48646,5.11429 -1.09887,1.45105 -2.65459,2.51563 -4.33525,3.21454 -3.36131,1.39782 -7.11243,1.37166 -10.74492,1.61115 -8.91082,0.5875 -17.75348,2.9396 -25.55175,7.29103 -7.79827,4.35143 -14.52042,10.74075 -18.84684,18.55292 -3.27532,5.91421 -5.16475,12.79273 -4.16904,19.4796 0.49786,3.34343 1.71957,6.59472 3.67537,9.35175 1.95581,2.75703 4.65614,5.00573 7.783,6.28991 4.0807,1.67592 8.69312,1.65738 13.01977,0.79659 4.32665,-0.86078 8.4459,-2.51942 12.57709,-4.0667 4.1312,-1.54727 8.35117,-3.00245 12.7422,-3.42636 4.39103,-0.42391 9.02047,0.26621 12.68617,2.72048 3.93624,2.6354 6.40711,7.08795 7.40604,11.71844 0.99894,4.63048 0.65405,9.45163 -0.11672,14.12552 -2.17436,13.18515 -7.63704,25.57335 -11.26531,38.43459 -7.60214,26.94754 -6.96162,56.0883 1.32534,82.83318 0.5127,1.65465 1.06327,3.32073 1.99568,4.78063 0.93241,1.45991 2.29765,2.71347 3.9683,3.17136 0.99836,0.27363 2.06732,0.25162 3.07165,7.7e-4 1.00432,-0.25085 1.94552,-0.72536 2.78553,-1.33033 1.68001,-1.20992 2.9369,-2.91011 4.0828,-4.63443 4.03118,-6.06601 7.02813,-12.75672 10.81619,-18.97746 3.78806,-6.22073 8.56331,-12.12587 15.02776,-15.48114 3.49853,-1.81586 7.54935,-2.82841 11.41599,-2.06278 1.93332,0.38282 3.78949,1.21243 5.29892,2.47966 1.50944,1.26723 2.66034,2.97931 3.16506,4.88444 0.39965,1.50856 0.39158,3.11504 0.041,4.63575 -0.35058,1.52072 -1.03834,2.95597 -1.95046,4.22228 -1.82424,2.53261 -4.50234,4.35125 -7.35862,5.60966 -5.71256,2.51683 -12.16786,2.94316 -17.90121,5.41227 -6.72509,2.89621 -12.03803,8.46458 -15.77756,14.75988 -3.73953,6.29529 -6.04235,13.32795 -8.0784,20.36139 -4.70879,16.26632 -8.1497,32.89044 -13.25331,49.03724 -2.07133,6.55327 -4.44592,13.25603 -3.87959,20.10549 0.28316,3.42473 1.33782,6.83285 3.3637,9.60859 2.02588,2.77575 5.07348,4.87141 8.46787,5.40719 2.08024,0.32835 4.23395,0.0717 6.22508,-0.61434 1.99114,-0.686 3.82358,-1.79247 5.44559,-3.13572 3.24401,-2.68649 5.61673,-6.26158 7.79957,-9.86381 2.18284,-3.60224 4.24642,-7.31712 7.03745,-10.47165 2.79103,-3.15453 6.43882,-5.75499 10.60158,-6.39709 4.28031,-0.66023 8.66901,0.82446 12.29514,3.19261 3.62614,2.36815 6.61465,5.57211 9.57282,8.73537 4.25457,4.54953 8.55172,9.11509 11.9304,14.34807 3.37867,5.23298 5.82217,11.2325 5.96156,17.45987 0.0637,2.84677 -0.36243,5.72413 -1.44396,8.35823 -1.08153,2.63409 -2.83686,5.01743 -5.15575,6.66998 -2.31889,1.65255 -5.21188,2.54105 -8.04708,2.27685 -2.8352,-0.2642 -5.57654,-1.72724 -7.22116,-4.05176 -1.23075,-1.73956 -1.81671,-3.86727 -2.02363,-5.98812 -0.20692,-2.12085 -0.0568,-4.25802 0.0616,-6.38565 0.11834,-2.12763 0.20386,-4.27416 -0.12993,-6.37878 -0.33378,-2.10462 -1.11642,-4.18642 -2.54665,-5.76606 -1.35035,-1.4914 -3.22763,-2.46373 -5.20091,-2.85601 -1.97328,-0.39229 -4.03639,-0.22322 -5.96861,0.33737 -3.86443,1.12118 -7.11694,3.72492 -10.03577,6.49463 -18.21705,17.28635 -26.7894,42.04626 -37.10927,64.94121 -5.68471,12.61172 -12.16378,25.23947 -13.61331,38.99703 -0.72476,6.87878 -0.12916,13.975 2.41118,20.40847 2.54034,6.43347 7.1172,12.16474 13.19012,15.4757 2.83971,1.54821 6.03207,2.56513 9.26522,2.47803 3.23316,-0.0871 6.50278,-1.36419 8.62676,-3.80337 1.21571,-1.39613 2.01844,-3.10798 2.60444,-4.86403 0.58601,-1.75605 0.96893,-3.5721 1.4426,-5.36172 0.47367,-1.78963 1.04601,-3.57148 1.97613,-5.17211 0.93012,-1.60063 2.24642,-3.02132 3.9168,-3.81943 1.35333,-0.64662 2.89842,-0.86023 4.38735,-0.67938 1.48893,0.18086 2.9206,0.74789 4.17316,1.57294 2.50513,1.65009 4.2421,4.27294 5.35547,7.05842 1.79748,4.49703 2.10394,9.51259 1.30545,14.28926 -0.79849,4.77667 -2.66631,9.32958 -5.06451,13.53706 -4.79639,8.41495 -11.64224,15.44453 -17.44623,23.19892 -6.66164,8.90025 -12.02242,18.94861 -14.34359,29.82078 -2.32117,10.87217 -1.42979,22.62825 3.74094,32.46977 2.90611,5.53125 7.1303,10.38578 12.29918,13.89618 5.16888,3.51041 11.28121,5.65489 17.52076,5.98379 6.1981,0.32671 12.53297,-1.173 17.74307,-4.54614 5.2101,-3.37315 9.22615,-8.65482 10.75155,-14.67116 1.61496,-6.36958 0.44837,-13.0595 -0.0336,-19.61292 -0.24098,-3.27671 -0.30632,-6.5895 0.23734,-9.82976 0.54367,-3.24027 1.72452,-6.42252 3.77223,-8.99192 1.32798,-1.66631 3.01107,-3.05535 4.92282,-3.99627 1.91174,-0.94093 4.05162,-1.42836 6.18115,-1.35606 2.12953,0.0723 4.24396,0.7098 6.03088,1.87042 1.78692,1.16062 3.23695,2.84627 4.07044,4.80724 0.68919,1.62147 0.95409,3.40635 0.89163,5.1671 -0.0625,1.76075 -0.44548,3.50007 -1.00827,5.16962 -1.12558,3.33911 -2.95329,6.38799 -4.52202,9.54325 -3.16953,6.37504 -5.3269,13.44594 -4.81477,20.54698 0.25606,3.55052 1.18852,7.06971 2.88761,10.19779 1.6991,3.12807 4.17834,5.85451 7.22849,7.68982 3.94186,2.37187 8.73775,3.1778 13.29544,2.55217 4.5577,-0.62562 8.87264,-2.63224 12.50709,-5.45265 7.26891,-5.64084 11.66068,-14.23153 14.62006,-22.94348 4.68305,-13.78615 6.32527,-28.61143 4.63866,-43.07325 -1.59404,-13.66814 -6.08256,-26.80104 -9.66964,-40.08606 -3.58708,-13.28502 -6.30164,-27.1527 -4.24634,-40.75912 2.77211,-18.35179 13.96756,-34.63614 16.56664,-53.01323 1.86879,-13.21345 -0.83685,-26.62039 -4.04635,-39.57364 -3.20951,-12.95325 -6.96073,-25.9411 -7.21896,-39.28355 -0.24462,-12.63915 2.65703,-25.09801 4.24555,-37.63933 1.58852,-12.54131 1.76042,-25.78512 -3.58289,-37.24187 -0.86445,-1.8535 -1.88266,-3.66487 -3.30174,-5.13762 -1.41907,-1.47274 -3.27989,-2.59168 -5.31291,-2.81436 -1.39909,-0.15324 -2.82662,0.12269 -4.12166,0.67387 -1.29504,0.55118 -2.46367,1.37028 -3.51278,2.30853 -2.09821,1.87649 -3.72263,4.21454 -5.61887,6.29492 -2.63653,2.89255 -5.92731,5.34418 -9.73857,6.23441 -1.90562,0.44512 -3.91742,0.48539 -5.81567,0.01 -1.89825,-0.47559 -3.67692,-1.47844 -4.98839,-2.93088 -1.13905,-1.26148 -1.90883,-2.84079 -2.26996,-4.50162 -0.36114,-1.66083 -0.31962,-3.39999 0.0511,-5.05871 0.74135,-3.31745 2.7702,-6.24511 5.27564,-8.54246 5.01089,-4.59471 11.72865,-6.77595 17.48589,-10.39182 5.87301,-3.68858 10.73268,-8.89515 14.33504,-14.82144 3.60236,-5.92628 5.96994,-12.56017 7.30989,-19.36476 2.67991,-13.60917 1.28315,-27.6938 -1.10229,-41.35766 -1.2968,-7.42808 -2.88972,-14.90267 -2.4625,-22.43099 0.21361,-3.76416 0.94248,-7.52193 2.41744,-10.99166 1.47495,-3.46974 3.71635,-6.64692 6.67171,-8.98794 2.95887,-2.3438 6.54189,-3.79066 10.19939,-4.72398 3.65749,-0.93332 7.41809,-1.37994 11.15452,-1.91608 3.73643,-0.53614 7.48458,-1.17029 11.03311,-2.45727 3.54853,-1.28698 6.91557,-3.26843 9.3609,-6.14397 3.3793,-3.97382 4.73733,-9.37515 4.62457,-14.59033 -0.11276,-5.21519 -1.57765,-10.30549 -3.29924,-15.22962 -1.66839,-4.77197 -3.59061,-9.46214 -4.94778,-14.33177 -1.35717,-4.86963 -2.14167,-9.97843 -1.47185,-14.98907 0.66982,-5.01064 2.90956,-9.93475 6.79855,-13.16445 1.9445,-1.61485 4.2758,-2.78019 6.75645,-3.26514 2.48065,-0.48495 5.10736,-0.27639 7.44327,0.68919 2.60033,1.07488 4.77458,3.05507 6.31411,5.41027 1.53952,2.3552 2.46911,5.07302 2.9632,7.84303 1.35467,7.59474 -0.48706,15.34184 -1.90901,22.92428 -0.71098,3.79122 -1.32019,7.6186 -1.37108,11.47557 -0.0509,3.85697 0.47254,7.76291 1.95477,11.32406 2.69081,6.46482 8.35559,11.31825 14.59488,14.49719 6.23928,3.17894 13.10211,4.88742 19.86372,6.70812 11.36401,3.05998 22.71964,6.52258 34.44976,7.4757 11.73012,0.95311 24.09314,-0.82827 33.80477,-7.4757 10.21822,-6.99418 16.57195,-19.06261 17.31415,-31.42302 0.7422,-12.36041 -3.91619,-24.81202 -12.01282,-34.18086 -4.23313,-4.89828 -9.47584,-9.06313 -15.57009,-11.24777 -6.09424,-2.18464 -13.09234,-2.23878 -18.88851,0.64512 -3.46382,1.72343 -6.40741,4.41512 -9.98734,5.88222 -1.78997,0.73355 -3.74932,1.1454 -5.66778,0.89723 -1.91846,-0.24816 -3.78922,-1.21103 -4.88751,-2.80346 -0.85303,-1.23683 -1.1978,-2.78029 -1.135,-4.28145 0.0628,-1.50116 0.5127,-2.96566 1.135,-4.3332 1.34936,-2.96526 3.51423,-5.52338 6.07437,-7.53814 2.56014,-2.01476 5.50879,-3.50104 8.57806,-4.59336 6.13853,-2.18463 12.69976,-2.80691 19.14351,-3.77247 5.82015,-0.87212 11.71166,-2.07818 16.83226,-4.97889 2.56031,-1.45035 4.90146,-3.32182 6.73418,-5.62396 1.83272,-2.30213 3.14511,-5.04504 3.60284,-7.95178 0.40917,-2.59834 0.13233,-5.27616 -0.57605,-7.80933 -0.70839,-2.53317 -1.83944,-4.93152 -3.14064,-7.21749 -2.6024,-4.57193 -5.90017,-8.74193 -8.21129,-13.4678 -2.81544,-5.75712 -4.08302,-12.26231 -3.6351,-18.65532 0.44791,-6.393 2.61019,-12.65788 6.20091,-17.96617 3.59071,-5.30829 8.6009,-9.64675 14.36802,-12.44165 5.76712,-2.79491 12.27678,-4.0393 18.66815,-3.56861 h 40.39095 l -13.03971,-18.75 h -44.39858 c -5.07549,0 -10.24565,0.15179 -15.0357,1.82988 -4.79005,1.67808 -9.04781,4.86051 -11.94542,9.02757 -2.89761,4.16706 -4.41264,9.16466 -5.10068,14.19329 -0.68803,5.02864 -0.61925,10.12869 -1.05148,15.18574 -0.47513,5.55907 -1.5862,11.096 -3.71514,16.25319 -2.12893,5.1572 -5.3047,9.93264 -9.53817,13.56675 -6.54917,5.62197 -15.24109,8.208 -23.83435,9.01674 -8.59327,0.80874 -17.24327,-0.009 -25.86556,-0.40209 -18.36132,-0.83674 -36.75681,0.25758 -55.13422,-0.0727 -18.37741,-0.33024 -36.97523,-2.14249 -54.20557,-8.54199 -3.02244,-1.12256 -5.99932,-2.38494 -9.09978,-3.2695 -3.10046,-0.88455 -6.36224,-1.3854 -9.55588,-0.94278 -3.19365,0.44263 -6.32452,1.90403 -8.35065,4.41204 -1.01306,1.254 -1.73358,2.7528 -2.01586,4.33998 -0.28229,1.58718 -0.11796,3.26037 0.52755,4.73758 0.85663,1.96034 2.47875,3.4633 4.03993,4.92599 1.56118,1.46268 3.15199,3.01423 3.91206,5.01399 0.49981,1.315 0.60615,2.77038 0.34744,4.15317 -0.2587,1.38278 -0.87714,2.69119 -1.74567,3.79785 -1.73705,2.21331 -4.43345,3.56328 -7.21642,3.97696 -2.47955,0.36858 -5.03195,0.0395 -7.41968,-0.72386 -2.38772,-0.76341 -4.62159,-1.95115 -6.73015,-3.30688 -4.2171,-2.71146 -7.98169,-6.11154 -12.35679,-8.55991 -8.4329,-4.71919 -18.51304,-5.55412 -28.15746,-4.94611 -9.64442,0.60801 -19.17696,2.54655 -28.83176,2.95812 -14.63118,0.6237 -29.49706,-2.37074 -42.4106,-9.27732 -7.05382,-3.77261 -13.55002,-8.69684 -21.08513,-11.3822 -3.76755,-1.34268 -7.79077,-2.10069 -11.7763,-1.76488 -3.98554,0.33581 -7.93477,1.82035 -10.87448,4.53243 -2.2688,2.09312 -3.86658,4.83626 -4.94824,7.72739 -1.08166,2.89112 -1.67201,5.94104 -2.15349,8.9901 -0.96295,6.09813 -1.58576,12.48626 -4.82625,17.74112 -1.25713,2.0386 -2.89878,3.8595 -4.89478,5.18322 -1.996,1.32372 -4.35508,2.13528 -6.75005,2.1547 -2.39497,0.0194 -4.81566,-0.78136 -6.62536,-2.3502 -1.80969,-1.56884 -2.96055,-3.91815 -2.9351,-6.31306 0.0234,-2.19978 0.99928,-4.29805 2.30283,-6.07015 1.30355,-1.77211 2.93155,-3.27412 4.47691,-4.83983 1.54537,-1.56571 3.03762,-3.23586 3.98369,-5.22195 0.47303,-0.99305 0.80364,-2.0597 0.91103,-3.1544 0.10738,-1.0947 -0.0127,-2.21826 -0.40916,-3.24429 -0.60362,-1.56221 -1.83885,-2.84538 -3.31908,-3.62882 -1.48023,-0.78343 -3.19082,-1.0842 -4.86295,-0.9901 -3.34425,0.18819 -6.41801,1.88501 -9.13374,3.84569 -2.71572,1.96068 -5.22376,4.23421 -8.15479,5.85547 -1.46552,0.81062 -3.03597,1.45327 -4.68162,1.76424 -1.64565,0.31097 -3.37111,0.28152 -4.96908,-0.21983 -1.42779,-0.44796 -2.72838,-1.26497 -3.80995,-2.29911 -1.08157,-1.03415 -1.94816,-2.28178 -2.615,-3.62141 -1.33366,-2.67924 -1.86392,-5.68308 -2.1897,-8.65812 -1.3745,-12.55212 0.60804,-25.41452 -1.988,-37.77193 -1.12843,-5.37144 -3.13345,-10.57971 -6.11015,-15.19111 -2.9767,-4.6114 -6.93177,-8.59475 -11.55692,-11.55003 -4.62516,-2.95529 -9.88506,-4.85372 -15.28592,-5.83169 -5.40086,-0.97797 -10.92051,-1.03699 -16.4092,-1.03699 h -26.84433 z"
         style="opacity:1;vector-effect:none;fill:none;fill-opacity:1;stroke:#000000;stroke-width:4.00031233;stroke-linecap:butt;stroke-linejoin:miter;stroke-miterlimit:4;stroke-dasharray:none;stroke-dashoffset:0;stroke-opacity:1" />
      <path
         inkscape:original-d="m 190.03434,280.29753 c 2.64972,-6.8466 2.20982,-18.99734 3.31332,-28.49461 1.10351,-9.49727 -2.20794,-11.48714 -3.31332,-17.2293 -1.10538,-5.74217 5.74403,-0.88449 8.61465,-1.32533 2.87061,-0.44085 9.72003,10.6017 14.57864,15.90397 4.8586,5.30226 17.67201,-9.4e-4 26.50662,0 8.83459,9.4e-4 5.74403,3.97505 8.61465,5.96398 2.8706,1.98894 -4.41684,7.95105 -6.62666,11.92798 -2.20982,3.97693 -17.22837,-1.32627 -25.84395,-1.98799 -8.61559,-0.66173 -4.85861,11.92704 -7.28932,17.89197 -2.43071,5.96492 11.48714,5.74216 17.2293,8.61465 5.74216,2.87248 6.62759,10.15993 9.93998,15.2413 3.31239,5.08137 -16.78659,6.62572 -25.18129,9.93999 -8.3947,3.31426 2.20983,-11.04537 3.31333,-16.56664 1.10351,-5.52128 -8.8346,-3.09338 -13.25331,-4.63866 -4.4187,-1.54529 -4.41683,10.15993 -6.62665,15.2413 -2.20982,5.08138 -7.95105,-6.62759 -11.92798,-9.93998 -3.97693,-3.31239 5.30226,-13.69602 7.95199,-20.54263 z"
         inkscape:path-effect="#path-effect4702"
         inkscape:connector-curvature="0"
         id="path4700"
         d="m 190.03434,280.29753 c 2.27333,-4.3947 4.13239,-9.05456 4.90557,-13.94165 0.77318,-4.88708 0.41356,-10.02989 -1.59225,-14.55296 -1.26733,-2.85782 -3.16134,-5.42213 -4.23778,-8.35718 -0.53821,-1.46753 -0.86543,-3.03202 -0.76682,-4.59202 0.0986,-1.56 0.64628,-3.11765 1.69128,-4.2801 1.03897,-1.15574 2.52932,-1.86745 4.07084,-2.06475 1.54151,-0.1973 3.12667,0.10152 4.54381,0.73942 1.66035,0.74738 3.0895,1.94244 4.30079,3.30189 1.2113,1.35945 2.21862,2.88592 3.19902,4.42025 1.9608,3.06865 3.95241,6.31451 7.07883,8.18183 1.93087,1.15325 4.18273,1.69555 6.42808,1.82449 2.24536,0.12894 4.49546,-0.13984 6.71258,-0.5175 4.43424,-0.7553 8.91443,-1.95263 13.36596,-1.30699 1.81148,0.26273 3.59445,0.83925 5.13076,1.83436 1.53632,0.99511 2.81625,2.42528 3.48389,4.12962 0.46478,1.18649 0.62632,2.48685 0.49421,3.75426 -0.1321,1.26741 -0.55534,2.50057 -1.20495,3.59683 -1.29922,2.19252 -3.49049,3.79431 -5.91592,4.57689 -2.08128,0.67154 -4.31489,0.76726 -6.49103,0.55025 -2.17615,-0.21701 -4.30928,-0.73834 -6.42815,-1.27973 -2.11886,-0.54139 -4.23807,-1.10558 -6.40355,-1.41114 -2.16549,-0.30557 -4.39214,-0.34709 -6.52122,0.15263 -3.72133,0.87344 -7.03286,3.50763 -8.53565,7.02228 -0.7514,1.75733 -1.05537,3.70753 -0.84684,5.60735 0.20852,1.89982 0.93213,3.74419 2.09317,5.26234 1.97615,2.58398 5.05076,4.07765 8.11742,5.1629 3.06665,1.08525 6.27048,1.8679 9.11188,3.45175 2.74673,1.53108 5.07344,3.78592 6.76603,6.43618 1.69258,2.65026 2.75554,5.68844 3.17395,8.80512 0.48196,3.59008 0.0996,7.33057 -1.3673,10.64252 -1.46693,3.31196 -4.05626,6.1657 -7.33876,7.69741 -3.2825,1.53171 -7.25019,1.65823 -10.51579,0.0908 -1.6328,-0.78371 -3.07408,-1.97269 -4.12446,-3.44814 -1.05038,-1.47544 -1.70407,-3.2362 -1.83498,-5.0426 -0.20555,-2.83648 0.848,-5.5934 1.82952,-8.26258 0.98152,-2.66917 1.92206,-5.49411 1.48381,-8.30406 -0.22494,-1.44226 -0.81866,-2.82823 -1.72511,-3.97237 -0.90644,-1.14414 -2.1253,-2.04197 -3.4946,-2.54766 -1.3693,-0.50569 -2.88561,-0.61495 -4.30851,-0.28927 -1.4229,0.32567 -2.74595,1.08805 -3.72509,2.17064 -0.95004,1.05042 -1.56093,2.3691 -1.97227,3.72438 -0.41134,1.35527 -0.63528,2.7588 -0.90067,4.15003 -0.26538,1.39124 -0.57675,2.78535 -1.15001,4.08047 -0.57326,1.29512 -1.42798,2.4967 -2.6037,3.28642 -1.32136,0.88754 -2.99517,1.19916 -4.5668,0.94674 -1.57163,-0.25242 -3.03521,-1.0482 -4.17689,-2.15739 -1.14168,-1.10919 -1.96877,-2.52128 -2.48024,-4.02864 -0.51147,-1.50736 -0.71451,-3.10895 -0.70405,-4.70069 0.0244,-3.71132 1.19201,-7.33233 2.74686,-10.70234 1.55485,-3.37001 3.4999,-6.54382 5.20513,-9.84029 z"
         style="opacity:1;vector-effect:none;fill:#000000;fill-opacity:1;stroke:#000000;stroke-width:4.00031233;stroke-linecap:butt;stroke-linejoin:miter;stroke-miterlimit:4;stroke-dasharray:none;stroke-dashoffset:0;stroke-opacity:1" />
      <path
         inkscape:original-d="m 313.2901,296.2015 c -9.3e-4,-3.0915 17.23024,-10.1618 25.84396,-15.2413 8.61371,-5.0795 21.20623,-2.20983 31.80794,-3.31333 10.60171,-1.1035 12.37069,8.39283 18.55463,12.59064 6.18394,4.19782 -11.92704,4.41684 -17.89196,6.62666 -5.96493,2.20983 -7.0675,-5.30226 -10.60265,-7.95199 -3.53515,-2.64972 -18.11192,6.62572 -27.16929,9.93998 -9.05736,3.31427 -13.69414,4.41684 -20.54263,6.62666 -6.84847,2.20982 9.4e-4,-6.18582 0,-9.27732 z"
         inkscape:path-effect="#path-effect4706"
         inkscape:connector-curvature="0"
         id="path4704"
         d="m 313.2901,296.2015 c 2.1811,-4.71756 6.35771,-8.29498 10.9971,-10.63775 4.63939,-2.34276 9.7542,-3.56559 14.84686,-4.60355 10.46764,-2.13345 21.12823,-3.57193 31.80794,-3.31333 4.20074,0.10172 8.53328,0.505 12.23573,2.49205 1.85123,0.99352 3.51134,2.38344 4.674,4.1334 1.16266,1.74996 1.8068,3.87045 1.6449,5.96519 -0.14665,1.89732 -0.95295,3.72579 -2.19816,5.16482 -1.2452,1.43902 -2.91662,2.49074 -4.73088,3.06504 -1.81425,0.5743 -3.76597,0.67804 -5.64493,0.37659 -1.87895,-0.30144 -3.68525,-1.00229 -5.31799,-1.97979 -3.79936,-2.27462 -6.6318,-5.99203 -10.60265,-7.95199 -2.32788,-1.14901 -4.96036,-1.6327 -7.55432,-1.52979 -2.59396,0.10292 -5.14958,0.78103 -7.51696,1.84628 -4.73476,2.13049 -8.64889,5.74271 -12.09801,9.62349 -2.78403,3.13245 -5.44227,6.57471 -9.1834,8.46338 -1.87056,0.94433 -3.99652,1.45834 -6.07705,1.20904 -2.08054,-0.24931 -4.10048,-1.31534 -5.28218,-3.04576 -0.91252,-1.33625 -1.28763,-2.99558 -1.22408,-4.61243 0.0636,-1.61686 0.54503,-3.19616 1.22408,-4.66489 z"
         style="opacity:1;vector-effect:none;fill:#000000;fill-opacity:1;stroke:#000000;stroke-width:4.00031233;stroke-linecap:butt;stroke-linejoin:miter;stroke-miterlimit:4;stroke-dasharray:none;stroke-dashoffset:0;stroke-opacity:1" />
      <path
         inkscape:original-d="m 378.89398,249.15226 c 3.31239,3.31426 18.99735,16.78659 28.49462,25.18129 9.49727,8.39469 18.99734,12.81059 28.49461,19.21729 9.49727,6.4067 -4.41683,17.22837 -6.62665,25.84395 -2.20982,8.61559 3.53515,15.90303 5.30132,23.85596 1.76617,7.95292 12.81247,4.41683 19.2173,6.62665 6.40482,2.20983 1.76804,-8.83647 2.65066,-13.25331 0.88262,-4.41683 10.60358,-10.60358 15.90398,-15.90397 5.30038,-5.30038 13.25424,-7.06937 19.87995,-10.60265 6.62572,-3.53328 -7.06749,-8.39469 -10.60264,-12.59064 -3.53516,-4.19594 -12.36882,-1.32626 -18.55464,-1.98799 -6.18581,-0.66173 -12.81059,-2.20983 -19.21729,-3.31333 -6.40671,-1.1035 9.3e-4,-18.99735 0,-28.49461 -9.4e-4,-9.49727 -0.44084,-10.60359 -0.66267,-15.90397 -0.22183,-5.30039 -12.36882,3.0915 -18.55463,4.63865 -6.18581,1.54716 -15.01948,-4.86048 -22.53063,-7.28931 -7.51115,-2.42884 -11.48525,-12.81248 -17.2293,-19.2173 -5.74403,-6.40483 -10.60171,8.8346 -15.90396,13.25331 -5.30227,4.41871 6.62759,6.62571 9.93997,9.93998 z"
         inkscape:path-effect="#path-effect4710"
         inkscape:connector-curvature="0"
         id="path4708"
         d="m 378.89398,249.15226 c 5.10504,3.79263 9.38455,8.56202 13.80115,13.13795 4.41659,4.57593 9.0836,9.04755 14.69347,12.04334 5.25312,2.80528 11.14082,4.21251 16.52467,6.7579 2.69193,1.27269 5.27104,2.84385 7.41378,4.91142 2.14275,2.06758 3.83743,4.65839 4.55616,7.54797 0.54515,2.19173 0.5188,4.49965 0.13811,6.72585 -0.38068,2.2262 -1.10796,4.37975 -1.95186,6.47468 -1.68779,4.18986 -3.86511,8.22695 -4.8129,12.64342 -0.87582,4.08112 -0.65678,8.35806 0.34606,12.40984 1.00283,4.05178 2.77349,7.88768 4.95526,11.44612 2.0758,3.38561 4.67097,6.65503 8.26962,8.33462 1.79933,0.83979 3.82364,1.24642 5.79345,0.99603 1.9698,-0.25039 3.87421,-1.18598 5.15423,-2.704 1.47787,-1.75266 2.02697,-4.10847 2.21784,-6.39309 0.19086,-2.28462 0.0721,-4.59619 0.43282,-6.86022 0.62382,-3.91557 2.6957,-7.53935 5.56614,-10.27456 2.87044,-2.73522 6.50757,-4.60478 10.33784,-5.62941 3.87204,-1.0358 7.95158,-1.23859 11.74159,-2.54299 1.895,-0.65221 3.71608,-1.58932 5.19523,-2.94155 1.47915,-1.35223 2.60078,-3.14347 2.94313,-5.11811 0.25601,-1.47662 0.0703,-3.01633 -0.45308,-4.4206 -0.52341,-1.40428 -1.37727,-2.67498 -2.42131,-3.75011 -2.0881,-2.15025 -4.87899,-3.48963 -7.72825,-4.41993 -5.94559,-1.94126 -12.30627,-2.26441 -18.55464,-1.98799 -3.33228,0.14741 -6.67503,0.46028 -9.99607,0.14955 -3.32104,-0.31073 -6.68009,-1.3022 -9.22122,-3.46288 -1.94749,-1.65592 -3.32163,-3.93289 -4.07366,-6.37609 -0.75202,-2.44321 -0.90096,-5.04802 -0.63619,-7.59059 0.52953,-5.08515 2.65809,-9.84504 4.70985,-14.52793 1.15887,-2.64499 2.31851,-5.36342 2.50136,-8.24536 0.0914,-1.44097 -0.0702,-2.90959 -0.58508,-4.25852 -0.51492,-1.34892 -1.39492,-2.57376 -2.57895,-3.40009 -1.37667,-0.96077 -3.10454,-1.34259 -4.78164,-1.26752 -1.6771,0.0751 -3.311,0.58273 -4.842,1.27145 -3.06199,1.37745 -5.77767,3.48157 -8.93099,4.63472 -3.94235,1.44169 -8.38673,1.27872 -12.34269,-0.1252 -3.95595,-1.40393 -7.43324,-3.99674 -10.18794,-7.16411 -2.8664,-3.2958 -4.96483,-7.1764 -7.49324,-10.7381 -2.52841,-3.56169 -5.65475,-6.9231 -9.73606,-8.4792 -2.02077,-0.77047 -4.22802,-1.06534 -6.37399,-0.7971 -2.14597,0.26823 -4.22543,1.10491 -5.92563,2.44149 -1.70021,1.33657 -3.01128,3.17438 -3.66987,5.23433 -0.6586,2.05994 -0.65354,4.33497 0.0655,6.37459 0.79226,2.24723 2.39591,4.12716 4.20018,5.68353 1.80427,1.55637 3.82707,2.83546 5.73979,4.25645 z"
         style="opacity:1;vector-effect:none;fill:#000000;fill-opacity:1;stroke:#000000;stroke-width:4.00031233;stroke-linecap:butt;stroke-linejoin:miter;stroke-miterlimit:4;stroke-dasharray:none;stroke-dashoffset:0;stroke-opacity:1" />
      <path
         inkscape:original-d="m 494.19777,255.77891 c 2.42884,-9.27638 15.46313,-10.1618 23.19329,-15.2413 7.73016,-5.07951 42.41153,-2.20983 63.61588,-3.31333 21.20436,-1.1035 14.1378,-6.62759 21.2053,-9.93998 7.06749,-3.31239 3.09337,-1.32627 4.63865,-1.988 1.54529,-0.66173 -4.41683,-3.97693 -6.62665,-5.96398 -2.20982,-1.98706 -11.92704,3.0915 -17.89197,4.63865 -5.96492,1.54716 -28.27279,7.50927 -42.41059,11.26531 -14.1378,3.75604 -31.36522,-5.30225 -47.04924,-7.95198 -15.68402,-2.64973 -18.5537,5.30039 -27.83195,7.95198 -9.27825,2.6516 3.53515,19.43726 5.30133,29.15728 1.76616,9.72003 11.04535,12.81059 16.56663,19.2173 5.52127,6.40671 4.86048,-18.55557 7.28932,-27.83195 z"
         inkscape:path-effect="#path-effect4714"
         inkscape:connector-curvature="0"
         id="path4712"
         d="m 494.19777,255.77891 c 1.29098,-4.74676 4.87275,-8.65334 9.13574,-11.10799 4.26299,-2.45464 9.16902,-3.58505 14.05755,-4.13331 10.64269,-1.1936 21.37819,0.22744 32.07139,0.81646 10.69321,0.58902 21.78035,0.26943 31.54449,-4.12979 3.5748,-1.61062 6.8903,-3.73397 10.31651,-5.64037 3.42622,-1.9064 7.02757,-3.61822 10.88879,-4.29961 0.8544,-0.15078 1.72292,-0.25154 2.54678,-0.52355 0.82385,-0.272 1.61682,-0.73847 2.09187,-1.46445 0.50416,-0.77046 0.59316,-1.77549 0.31887,-2.65444 -0.27429,-0.87895 -0.88766,-1.63131 -1.64209,-2.15915 -0.75444,-0.52785 -1.64382,-0.84163 -2.55023,-1.00355 -0.9064,-0.16192 -1.83294,-0.17707 -2.7532,-0.14684 -6.18837,0.20326 -12.11262,2.41687 -17.89197,4.63865 -13.72292,5.27556 -27.71512,10.82577 -42.41059,11.26531 -15.94122,0.4768 -31.35952,-5.09145 -47.04924,-7.95198 -5.10117,-0.93004 -10.3644,-1.57304 -15.4511,-0.56688 -2.54335,0.50308 -5.01927,1.42365 -7.1861,2.84722 -2.16684,1.42357 -4.01728,3.36182 -5.19475,5.67164 -1.15888,2.27335 -1.64345,4.85482 -1.61923,7.40639 0.0242,2.55158 0.54278,5.07957 1.30264,7.5155 1.51971,4.87186 3.99306,9.39759 5.61792,14.23539 1.50771,4.48902 2.30617,9.29157 4.75809,13.34281 1.22596,2.02562 2.87729,3.83659 4.9499,4.9813 2.07262,1.14472 4.59105,1.57447 6.85864,0.89319 1.22906,-0.36926 2.35589,-1.05114 3.29442,-1.92641 0.93853,-0.87527 1.69139,-1.94083 2.25704,-3.09279 1.13128,-2.3039 1.50665,-4.91287 1.54101,-7.47931 0.0344,-2.56643 -0.25623,-5.12486 -0.38514,-7.68828 -0.12891,-2.56343 -0.0916,-5.16846 0.58199,-7.64516 z"
         style="opacity:1;vector-effect:none;fill:#000000;fill-opacity:1;stroke:#000000;stroke-width:4.00031233;stroke-linecap:butt;stroke-linejoin:miter;stroke-miterlimit:4;stroke-dasharray:none;stroke-dashoffset:0;stroke-opacity:1" />
      <path
         inkscape:original-d="m 567.75364,290.23751 c 2.8706,1.32628 3.09337,2.20795 4.63865,3.31333 1.54529,1.10538 6.62759,5.74216 9.93998,8.61466 3.31239,2.87248 15.02136,-6.18583 22.53063,-9.27733 7.50927,-3.0915 11.04536,13.25238 16.56663,19.87997 5.52128,6.62759 -18.11191,3.97506 -27.16928,5.96398 -9.05737,1.98894 -21.20436,-8.83647 -31.80794,-13.2533 -10.60358,-4.41684 -2.20794,-12.81247 -3.31332,-19.2173 -1.10539,-6.40483 5.74403,2.64972 8.61465,3.97599 z"
         inkscape:path-effect="#path-effect4718"
         inkscape:connector-curvature="0"
         id="path4716"
         d="m 567.75364,290.23751 c 1.54541,1.10718 3.19258,2.07923 4.63865,3.31333 1.68447,1.43756 3.05773,3.19752 4.57977,4.80606 1.52205,1.60853 3.25995,3.10651 5.36021,3.8086 1.98867,0.66478 4.17951,0.5616 6.19621,-0.0126 2.0167,-0.57416 3.8784,-1.59793 5.62847,-2.75291 3.50015,-2.30996 6.71644,-5.21927 10.70595,-6.51186 2.66046,-0.86198 5.57292,-0.9407 8.26984,-0.20067 2.69693,0.74004 5.16677,2.29913 6.97681,4.43099 1.81003,2.13185 2.94951,4.82927 3.19242,7.61532 0.24292,2.78604 -0.41566,5.6471 -1.87244,8.03433 -1.29503,2.12217 -3.19389,3.84872 -5.35779,5.07274 -2.16391,1.22401 -4.58706,1.95647 -7.05048,2.29153 -4.92684,0.67013 -9.92952,-0.22575 -14.76101,-1.40029 -11.2132,-2.72593 -22.10585,-7.00542 -31.80794,-13.2533 -1.8039,-1.16166 -3.57519,-2.3983 -5.09809,-3.90969 -1.5229,-1.51139 -2.79664,-3.31739 -3.44756,-5.36185 -0.65091,-2.04447 -0.63836,-4.3419 0.28369,-6.27926 0.46102,-0.96868 1.14341,-1.83566 1.99837,-2.48367 0.85496,-0.64801 1.88313,-1.07288 2.95027,-1.18283 1.61258,-0.16615 3.22673,0.38344 4.63637,1.18403 1.40964,0.80059 2.66046,1.84783 3.97828,2.79196 z"
         style="opacity:1;vector-effect:none;fill:#000000;fill-opacity:1;stroke:#000000;stroke-width:4.00031233;stroke-linecap:butt;stroke-linejoin:miter;stroke-miterlimit:4;stroke-dasharray:none;stroke-dashoffset:0;stroke-opacity:1" />
      <path
         sodipodi:nodetypes="csccscscsccsssccsscccccc"
         inkscape:original-d="m 362.32735,406.20397 c 0.88261,-7.0675 22.53156,-0.44272 33.79593,-0.66267 11.26438,-0.21995 10.16182,14.5777 15.24131,21.86796 5.0795,7.29025 6.18582,12.36881 9.27732,18.55464 3.0915,6.18581 13.25424,-7.51115 19.87996,-11.26532 6.62572,-3.75417 -4.41683,-21.20624 -6.62666,-31.80794 -2.20982,-10.60171 -17.67014,-9.27825 -26.50661,-13.91597 -8.83648,-4.63773 0.44272,-15.02136 0.66266,-22.53063 0.21996,-7.50927 8.83648,7.50927 13.25331,11.26531 4.41683,3.75604 11.04536,3.97505 16.56664,5.96399 5.52127,1.98893 -3.53328,-8.83647 -5.30132,-13.25331 -1.76805,-4.41683 -10.15993,-7.51114 -15.24131,-11.26531 -5.08138,-3.75417 -4.85861,-19.8809 -7.28932,-29.81994 -2.43071,-9.93905 -12.36881,-6.6276 -18.55463,-9.93999 -6.18582,-3.31239 -2.20795,15.90303 -3.31333,23.85596 -1.10537,7.95292 -2.42883,13.91504 1.32533,19.87997 3.75417,5.96492 -8.39282,2.20794 -13.25331,8.61465 -4.86048,6.40669 -6.8466,-0.66361 -14.57864,-5.30133 -7.73203,-4.63772 -1.76616,10.60171 -2.65066,15.90397 -0.88449,5.30226 1.32627,9.27638 1.988,13.91597 0.66172,4.6396 -6.62572,10.15993 -9.93999,15.24131 -3.31425,5.08137 9.4e-4,16.34481 0,24.51862 -9.3e-4,8.17381 5.74405,-5.74403 8.61465,-8.61465 2.87062,-2.87062 1.76805,-14.1378 2.65067,-21.20529 z"
         inkscape:path-effect="#path-effect4722"
         inkscape:connector-curvature="0"
         id="path4720"
         d="m 362.32735,406.20397 c 1.45483,-2.89476 3.95498,-5.21384 6.86595,-6.63596 2.91097,-1.42211 6.2132,-1.96981 9.44707,-1.77417 6.46773,0.39127 12.45572,3.65942 17.48291,7.74746 6.9963,5.68929 12.63116,13.23643 15.24131,21.86796 1.03273,3.41515 1.5916,6.97128 2.82749,10.31828 0.61794,1.67349 1.40786,3.29391 2.46856,4.72826 1.06071,1.43434 2.40087,2.68059 3.98127,3.5081 1.90628,0.99814 4.1223,1.35688 6.26168,1.12619 2.13938,-0.23068 4.20012,-1.037 5.99574,-2.22272 3.59124,-2.37143 6.04428,-6.16507 7.62254,-10.16879 2.11695,-5.37027 2.81432,-11.33146 1.72542,-17.00028 -1.08889,-5.66883 -4.00034,-11.01509 -8.35208,-14.80766 -3.77662,-3.29134 -8.46125,-5.32727 -13.10027,-7.2181 -4.63903,-1.89084 -9.37694,-3.72134 -13.40634,-6.69787 -1.97341,-1.45776 -3.76455,-3.19091 -5.11698,-5.23794 -1.35244,-2.04703 -2.25452,-4.41976 -2.40005,-6.86889 -0.14554,-2.44913 0.49649,-4.97076 1.95955,-6.94025 1.46306,-1.96948 3.77108,-3.33685 6.22014,-3.48355 1.52723,-0.0915 3.06406,0.28067 4.43743,0.95494 1.37338,0.67426 2.58901,1.64298 3.64499,2.7501 2.11195,2.21424 3.57902,4.94701 5.17089,7.56027 1.81677,2.98247 3.9552,5.96469 7.07256,7.53879 1.55868,0.78706 3.34006,1.18336 5.07117,0.95489 1.73111,-0.22848 3.39857,-1.11559 4.42291,-2.52969 0.78043,-1.07739 1.1642,-2.41866 1.16664,-3.74901 0.002,-1.33035 -0.36467,-2.64817 -0.96966,-3.833 -1.20997,-2.36966 -3.30873,-4.15964 -5.4983,-5.6713 -2.61556,-1.80576 -5.42896,-3.30508 -8.10268,-5.02354 -2.67372,-1.71847 -5.24197,-3.69136 -7.13863,-6.24177 -3.08369,-4.14658 -4.13126,-9.43986 -4.71799,-14.57397 -0.58673,-5.1341 -0.8141,-10.3864 -2.57133,-15.24597 -1.3608,-3.76325 -3.71957,-7.28148 -7.12953,-9.37576 -1.70498,-1.04713 -3.65227,-1.71846 -5.64888,-1.84893 -1.9966,-0.13046 -4.03943,0.29121 -5.77622,1.2847 -1.88908,1.08061 -3.36913,2.80804 -4.31583,4.76765 -0.94671,1.95962 -1.37833,4.14338 -1.4368,6.31891 -0.11694,4.35106 1.21335,8.59298 2.4393,12.7694 0.9515,3.24145 1.8515,6.51575 2.23037,9.87266 0.37887,3.3569 0.21954,6.82177 -0.90504,10.00731 -0.96158,2.72382 -2.65947,5.23134 -5.0244,6.88995 -2.36493,1.6586 -5.4211,2.40296 -8.22891,1.7247 -2.58473,-0.62438 -4.73949,-2.34074 -7.0195,-3.70903 -1.14001,-0.68415 -2.33948,-1.29295 -3.62604,-1.62827 -1.28655,-0.33532 -2.67194,-0.38492 -3.9331,0.036 -1.42727,0.47633 -2.62214,1.54001 -3.39137,2.83318 -0.76923,1.29317 -1.1315,2.80285 -1.18644,4.30651 -0.10987,3.00731 0.95835,5.91517 1.92715,8.76428 1.52581,4.4872 2.85426,9.25629 1.988,13.91597 -0.56267,3.02668 -2.03099,5.82489 -3.84425,8.31276 -1.81326,2.48786 -3.97325,4.69866 -6.09574,6.92855 -1.81828,1.91028 -3.62274,3.85123 -5.10342,6.03364 -1.48069,2.18241 -2.63563,4.63053 -3.02443,7.23901 -0.38879,2.60848 0.0382,5.39038 1.49183,7.59094 0.72679,1.10027 1.70156,2.04187 2.84927,2.69117 1.14771,0.64931 2.46863,1.00109 3.78675,0.96386 2.18317,-0.0617 4.25448,-1.19459 5.72297,-2.81125 1.46849,-1.61666 2.37603,-3.6811 2.89168,-5.8034 0.84711,-3.48646 0.68775,-7.12471 0.72715,-10.71239 0.0394,-3.58767 0.31237,-7.2871 1.92352,-10.4929 z"
         style="opacity:1;vector-effect:none;fill:#000000;fill-opacity:1;stroke:#000000;stroke-width:4.00031233;stroke-linecap:butt;stroke-linejoin:miter;stroke-miterlimit:4;stroke-dasharray:none;stroke-dashoffset:0;stroke-opacity:1" />
      <path
         inkscape:original-d="m 378.23132,524.82108 c -5.74404,2.43071 -10.60171,11.48526 -15.90397,17.2293 -5.30226,5.74403 -6.18394,-0.88449 -9.27732,-1.32533 -3.09337,-0.44084 6.62759,-10.16181 9.93999,-15.24131 3.31238,-5.07949 0.88449,-16.78846 1.32532,-25.18129 0.44084,-8.39281 9.27826,-12.81246 13.91598,-19.21729 4.63772,-6.40482 12.81246,-8.83647 19.2173,-13.25331 6.40483,-4.41683 7.51114,3.97506 11.2653,5.96399 3.75418,1.98894 -10.6017,12.36881 -15.90396,18.55464 -5.30227,6.18581 7.06937,13.25236 10.60265,19.87996 3.53327,6.62759 19.88089,11.04348 29.81994,16.56663 9.93905,5.52315 7.51115,4.85861 11.26531,7.28932 3.75417,2.43071 1.32627,25.18035 1.988,37.77193 0.66173,12.59158 -6.62572,8.83461 -9.93998,13.25331 -3.31427,4.41871 -2.64973,-11.04537 -3.97599,-16.56664 -1.32627,-5.52127 -10.60171,-18.55556 -15.90398,-27.83195 -5.30225,-9.27637 -14.13592,-16.78846 -21.20529,-25.18129 -7.06937,-8.39281 -11.48527,4.85862 -17.2293,7.28933 z"
         inkscape:path-effect="#path-effect4726"
         inkscape:connector-curvature="0"
         id="path4724"
         d="m 378.23132,524.82108 c -2.64865,2.92516 -4.74775,6.29725 -7.14724,9.43003 -2.3995,3.13279 -5.19561,6.09917 -8.75673,7.79927 -1.54405,0.73714 -3.24978,1.2257 -4.9553,1.08902 -0.85276,-0.0683 -1.69673,-0.29476 -2.45026,-0.69979 -0.75354,-0.40503 -1.41443,-0.99157 -1.87176,-1.71456 -0.4424,-0.6994 -0.68811,-1.51622 -0.74438,-2.34187 -0.0563,-0.82566 0.0737,-1.65954 0.34117,-2.4427 0.5349,-1.56633 1.6013,-2.90378 2.81914,-4.02466 2.43568,-2.24174 5.55681,-3.76977 7.52406,-6.43208 1.27561,-1.7263 1.97464,-3.83059 2.25208,-5.95904 0.27745,-2.12846 0.15103,-4.29033 -0.10227,-6.4218 -0.5066,-4.26292 -1.51879,-8.56405 -0.82449,-12.80045 0.65193,-3.9779 2.77827,-7.58455 5.36686,-10.67453 2.58859,-3.08997 5.65022,-5.74185 8.54912,-8.54276 2.8462,-2.74999 5.55298,-5.66064 8.65237,-8.12175 3.09939,-2.46112 6.66079,-4.48273 10.56493,-5.13156 2.32302,-0.38606 4.78378,-0.25943 6.92085,0.72973 1.06853,0.49458 2.04382,1.2018 2.80856,2.09709 0.76473,0.8953 1.31469,1.98069 1.53589,3.13717 0.20103,1.05105 0.12923,2.14673 -0.15371,3.17875 -0.28294,1.03202 -0.7735,2.00151 -1.39207,2.87471 -1.23715,1.74641 -2.9603,3.08933 -4.75002,4.26295 -1.78971,1.17362 -3.6737,2.20643 -5.39335,3.48052 -1.71964,1.27409 -3.29428,2.82559 -4.21481,4.75771 -0.88424,1.85596 -1.11664,3.99057 -0.80551,6.02273 0.31113,2.03215 1.14876,3.96389 2.29039,5.67361 2.28326,3.41944 5.69579,5.90417 9.11777,8.18362 9.47119,6.30895 19.57184,11.61862 29.81994,16.56663 4.05499,1.95784 8.25075,3.9444 11.26531,7.28932 2.19059,2.43065 3.63828,5.47614 4.42314,8.65274 0.78486,3.1766 0.92721,6.48643 0.71103,9.75141 -0.43234,6.52994 -2.27192,12.8822 -3.14617,19.36778 -0.42343,3.14122 -0.64941,6.41188 -2.1519,9.20278 -0.75125,1.39544 -1.82866,2.64206 -3.20489,3.42796 -1.37623,0.78589 -3.06515,1.07775 -4.58319,0.62257 -1.47831,-0.44327 -2.69992,-1.56134 -3.46157,-2.90365 -0.76165,-1.3423 -1.09417,-2.89457 -1.1705,-4.43602 -0.15268,-3.0829 0.6758,-6.14035 0.65608,-9.22697 -0.0348,-5.44229 -2.69664,-10.53823 -5.91419,-14.92767 -3.21754,-4.38944 -7.05173,-8.32306 -9.98979,-12.90428 -3.07094,-4.78841 -5.09704,-10.18323 -8.13714,-14.99127 -1.52005,-2.40403 -3.30354,-4.6663 -5.48567,-6.49064 -2.18212,-1.82433 -4.78238,-3.20009 -7.58248,-3.69938 -3.20592,-0.57165 -6.56081,0.0328 -9.51553,1.40187 -2.95473,1.36907 -5.52801,3.4735 -7.71377,5.88746 z"
         style="opacity:1;vector-effect:none;fill:#000000;fill-opacity:1;stroke:#000000;stroke-width:4.00031233;stroke-linecap:butt;stroke-linejoin:miter;stroke-miterlimit:4;stroke-dasharray:none;stroke-dashoffset:0;stroke-opacity:1" />
      <path
         inkscape:original-d="m 375.58066,663.98082 c 5.96305,-7.95105 6.62759,-5.30226 9.93997,-7.95198 3.3124,-2.64973 2.65161,10.6017 3.976,15.90396 1.3244,5.30227 3.53515,12.36882 5.30133,18.55464 1.76616,6.18581 6.18581,-13.69603 9.27731,-20.54264 3.0915,-6.8466 1.32627,-17.67201 1.988,-26.50661 0.66173,-8.8346 -17.67015,-18.11379 -26.50662,-27.16928 -8.83648,-9.05549 -7.06749,10.60171 -10.60264,15.90397 -3.53516,5.30226 -15.01949,21.20436 -22.53063,31.80794 -7.51115,10.60359 7.51114,15.90303 11.26531,23.85596 3.75417,7.95292 11.92892,-15.90492 17.89197,-23.85596 z"
         inkscape:path-effect="#path-effect4730"
         inkscape:connector-curvature="0"
         id="path4728"
         d="m 375.58066,663.98082 c 0.86891,-2.14167 1.93806,-4.26305 3.61489,-5.85364 0.83842,-0.7953 1.82385,-1.44613 2.91245,-1.83393 1.0886,-0.3878 2.28248,-0.50566 3.41263,-0.26441 1.51062,0.32246 2.84892,1.28013 3.76593,2.52313 0.91701,1.24301 1.43051,2.75505 1.61464,4.28869 0.36826,3.06729 -0.53165,6.12872 -1.40457,9.09214 -1.0399,3.53026 -2.06578,7.20482 -1.50817,10.84256 0.2788,1.81888 0.96888,3.59721 2.14014,5.01643 1.17126,1.41921 2.84491,2.45607 4.66936,2.69565 1.07533,0.14121 2.18144,0.006 3.20448,-0.35366 1.02304,-0.36008 1.96323,-0.94251 2.76717,-1.67049 1.60788,-1.45595 2.64625,-3.4661 3.19312,-5.56515 1.09373,-4.19811 0.31329,-8.61974 0.11254,-12.95334 -0.41039,-8.859 1.63692,-17.64507 1.988,-26.50661 0.15436,-3.89611 -0.0232,-7.82711 -0.88268,-11.63039 -0.85944,-3.80327 -2.42117,-7.48475 -4.84475,-10.53922 -2.42357,-3.05447 -5.74155,-5.45578 -9.5047,-6.47667 -3.76315,-1.02089 -7.96449,-0.58393 -11.27449,1.477 -2.74225,1.70743 -4.74096,4.39334 -6.30533,7.21965 -1.56437,2.82631 -2.7578,5.8444 -4.29731,8.68432 -3.10868,5.73454 -7.55021,10.61079 -11.7922,15.56603 -4.242,4.95524 -8.38962,10.15652 -10.73843,16.24191 -1.87692,4.8628 -2.50655,10.41026 -0.61895,15.26891 0.9438,2.42933 2.513,4.63433 4.59526,6.20168 2.08227,1.56735 4.68424,2.47258 7.289,2.38537 2.651,-0.0888 5.21126,-1.19226 7.28912,-2.84094 2.07786,-1.64869 3.69799,-3.81986 4.95953,-6.15313 2.52308,-4.66655 3.6489,-9.94611 5.64332,-14.86189 z"
         style="opacity:1;vector-effect:none;fill:#000000;fill-opacity:1;stroke:#000000;stroke-width:4.00031233;stroke-linecap:butt;stroke-linejoin:miter;stroke-miterlimit:4;stroke-dasharray:none;stroke-dashoffset:0;stroke-opacity:1" />
      <path
         sodipodi:nodetypes="scssccssssccsccs"
         inkscape:original-d="m 428.59389,638.79954 c -7.51114,8.61558 -1.76617,4.41682 -2.65066,6.62665 -0.88449,2.20982 -3.97505,27.83101 -5.96399,41.74792 -1.98893,13.91691 -7.95105,19.43725 -11.92798,29.15728 -3.97693,9.72003 4.86049,12.36882 7.28933,18.55463 2.42883,6.18581 18.11378,15.90304 27.16927,23.85595 9.05549,7.95293 4.41871,-1.76804 6.62667,-2.65066 2.20794,-0.88261 -7.50928,-11.04536 -11.26532,-16.56663 -3.75604,-5.52128 -8.8346,-13.25425 -13.25331,-19.87996 -4.41871,-6.62572 1.54715,-11.48714 3.31332,-21.20529 1.76617,-9.71816 9.49915,-0.8845 13.25332,2.65065 3.75416,3.53516 6.62759,-10.1618 9.93997,-15.2413 3.3124,-5.0795 -5.30038,-22.97334 -7.95198,-34.4586 -2.6516,-11.48527 7.95292,-15.46313 11.92798,-23.19329 3.97505,-7.73017 -2.64973,-10.16181 -3.976,-15.2413 -1.32626,-5.07951 -15.01947,17.22836 -22.53062,25.84395 z"
         inkscape:path-effect="#path-effect4734"
         inkscape:connector-curvature="0"
         id="path4732"
         d="m 428.59389,638.79954 c -0.81228,2.23637 -1.8474,4.38702 -2.65066,6.62665 -2.38323,6.64486 -2.65229,13.83214 -2.91855,20.88643 -0.26626,7.0543 -0.58091,14.24635 -3.04544,20.86149 -1.8533,4.9745 -4.85143,9.42431 -7.39024,14.08637 -2.53882,4.66206 -4.67178,9.76408 -4.53774,15.07091 0.0849,3.35993 1.08198,6.64395 2.45977,9.70958 1.37779,3.06562 3.13421,5.94295 4.82956,8.84505 3.19618,5.47123 6.23683,11.12376 10.57597,15.74132 2.16957,2.30878 4.65964,4.34146 7.47099,5.80222 2.81135,1.46076 5.95421,2.33686 9.12231,2.31241 1.23163,-0.01 2.47306,-0.15656 3.63311,-0.57046 1.16004,-0.4139 2.23855,-1.10708 2.99356,-2.0802 0.58089,-0.7487 0.95817,-1.64832 1.12203,-2.58167 0.16385,-0.93335 0.11713,-1.89923 -0.0994,-2.82177 -0.43316,-1.84508 -1.53158,-3.4844 -2.88359,-4.81257 -2.70402,-2.65634 -6.33998,-4.11955 -9.40431,-6.35062 -3.25869,-2.37258 -5.82768,-5.58907 -7.90733,-9.04208 -2.07965,-3.45301 -3.69954,-7.15855 -5.34598,-10.83788 -1.69299,-3.78334 -3.45548,-7.71276 -3.37185,-11.85678 0.0418,-2.07201 0.57075,-4.16231 1.71515,-5.89012 1.14439,-1.72781 2.93544,-3.06413 4.97002,-3.45839 2.23477,-0.43305 4.52189,0.26614 6.66059,1.04571 2.13869,0.77958 4.31709,1.66157 6.59273,1.60494 1.70284,-0.0424 3.37643,-0.62493 4.78777,-1.57864 1.41135,-0.95372 2.56373,-2.26946 3.40075,-3.75298 1.67406,-2.96705 2.06563,-6.51746 1.75145,-9.90968 -0.54961,-5.93419 -3.10154,-11.46331 -5.22662,-17.03114 -2.12507,-5.56783 -3.87118,-11.57906 -2.72536,-17.42746 0.84025,-4.28872 3.16984,-8.12198 5.57555,-11.7705 2.4057,-3.64852 4.96141,-7.27982 6.35243,-11.42279 0.90534,-2.69643 1.29043,-5.61979 0.70363,-8.40296 -0.5868,-2.78318 -2.22123,-5.40772 -4.67963,-6.83834 -1.43711,-0.8363 -3.10958,-1.24405 -4.77228,-1.23454 -1.6627,0.01 -3.31368,0.42935 -4.81179,1.15068 -2.99623,1.44267 -5.32001,4.04531 -6.92958,6.95528 -3.21915,5.81994 -3.74639,12.7212 -6.01697,18.97253 z"
         style="opacity:1;vector-effect:none;fill:#000000;fill-opacity:1;stroke:#000000;stroke-width:4.00031233;stroke-linecap:butt;stroke-linejoin:miter;stroke-miterlimit:4;stroke-dasharray:none;stroke-dashoffset:0;stroke-opacity:1" />
      <path
         inkscape:original-d="m 441.8472,822.35785 c -0.44272,-2.64972 2.6516,-14.1378 3.97599,-21.20529 1.3244,-7.06749 7.95293,-7.95291 11.92798,-11.92797 3.97505,-3.97506 9.4e-4,7.50927 0,11.26531 -9.3e-4,3.75605 -2.20795,12.8106 -3.31333,19.2173 -1.10537,6.4067 -7.50927,7.06749 -11.26531,10.60264 -3.75604,3.53516 -0.88261,-5.30225 -1.32533,-7.95199 z"
         inkscape:path-effect="#path-effect4738"
         inkscape:connector-curvature="0"
         id="path4736"
         d="m 441.8472,822.35785 c 1.22846,-7.08714 3.01957,-14.07634 3.97599,-21.20529 0.23295,-1.73633 0.41684,-3.48344 0.81053,-5.19052 0.39369,-1.70707 1.0077,-3.38706 2.02732,-4.81166 1.01961,-1.4246 2.47459,-2.58174 4.17034,-3.02164 0.84788,-0.21995 1.74625,-0.25737 2.60348,-0.0773 0.85724,0.18006 1.67135,0.58045 2.31631,1.17316 0.73552,0.67593 1.23577,1.58626 1.49692,2.55045 0.26115,0.96419 0.29125,1.98128 0.17566,2.9735 -0.2312,1.98444 -1.02682,3.85074 -1.67258,5.74136 -2.106,6.16584 -2.6499,12.73558 -3.31333,19.2173 -0.1646,1.60814 -0.33864,3.22192 -0.73662,4.78871 -0.39798,1.56679 -1.0301,3.09532 -2.03185,4.36406 -1.00175,1.26875 -2.39695,2.26444 -3.97797,2.60145 -0.79051,0.16851 -1.61906,0.17041 -2.40445,-0.0205 -0.78538,-0.19097 -1.52593,-0.57697 -2.11442,-1.13103 -1.02151,-0.96174 -1.52985,-2.3715 -1.65686,-3.76875 -0.127,-1.39725 0.0919,-2.80084 0.33153,-4.18324 z"
         style="opacity:1;vector-effect:none;fill:#000000;fill-opacity:1;stroke:#000000;stroke-width:4.00031233;stroke-linecap:butt;stroke-linejoin:miter;stroke-miterlimit:4;stroke-dasharray:none;stroke-dashoffset:0;stroke-opacity:1" />
      <path
         inkscape:original-d="m 390.1593,797.83924 c 0.44084,-4.63772 0.44272,-2.6516 0.66266,-3.97599 0.21995,-1.3244 2.6516,-16.78846 3.976,-25.18129 1.32438,-8.39283 3.53515,-12.37069 5.30131,-18.55464 1.76618,-6.18393 -5.30038,-9.3e-4 -7.95197,0 -2.65161,9.4e-4 -7.50927,11.04349 -11.26532,16.56664 -3.75604,5.52315 -7.95104,15.90304 -11.92797,23.85595 -3.97693,7.95293 2.20982,18.99548 3.31332,28.49462 1.1035,9.49915 11.04536,-4.86048 16.56664,-7.28932 5.52127,-2.42883 0.88449,-9.27825 1.32533,-13.91597 z"
         inkscape:path-effect="#path-effect4742"
         inkscape:connector-curvature="0"
         id="path4740"
         d="m 390.1593,797.83924 c 0.16828,-1.33316 0.45444,-2.64848 0.66266,-3.97599 0.66471,-4.23777 0.53003,-8.55533 0.80025,-12.83639 0.27022,-4.28106 0.9888,-8.65467 3.17575,-12.3449 1.82852,-3.08542 4.60062,-5.54978 6.27839,-8.7197 0.83888,-1.58496 1.39123,-3.3611 1.30808,-5.15244 -0.0416,-0.89567 -0.24335,-1.78718 -0.62546,-2.59832 -0.38211,-0.81114 -0.94691,-1.54023 -1.6597,-2.08418 -1.11319,-0.8495 -2.55151,-1.2153 -3.95074,-1.16051 -1.39923,0.0548 -2.76199,0.50848 -4.00123,1.16051 -3.01906,1.58849 -5.30775,4.31098 -7.01486,7.26459 -1.70711,2.9536 -2.89857,6.1699 -4.25046,9.30205 -3.5239,8.1644 -8.1605,15.80105 -11.92797,23.85595 -2.25581,4.82294 -4.22981,9.95715 -4.13944,15.2808 0.0452,2.66183 0.62381,5.33664 1.87114,7.68857 1.24732,2.35193 3.18472,4.3667 5.58162,5.52525 3.06302,1.48053 6.78424,1.4652 9.88292,0.0608 3.09868,-1.40436 5.53956,-4.14627 6.68372,-7.35016 0.78662,-2.2027 0.98021,-4.57055 1.03982,-6.90873 0.0596,-2.33819 -0.007,-4.68671 0.28551,-7.00724 z"
         style="opacity:1;vector-effect:none;fill:#000000;fill-opacity:1;stroke:#000000;stroke-width:4.00031233;stroke-linecap:butt;stroke-linejoin:miter;stroke-miterlimit:4;stroke-dasharray:none;stroke-dashoffset:0;stroke-opacity:1" />
    </g>
  </g>
  <g
     inkscape:groupmode="layer"
     id="layer3"
     inkscape:label="Layer 3"
     style="display:inline"
     transform="translate(-128.40645,-120.06977)">
    <path
       style="color:#000000;clip-rule:nonzero;display:inline;overflow:visible;visibility:visible;opacity:1;isolation:auto;mix-blend-mode:normal;color-interpolation:sRGB;color-interpolation-filters:linearRGB;solid-color:#000000;solid-opacity:1;fill:none;fill-opacity:1;fill-rule:evenodd;stroke:#000000;stroke-width:3.99999976;stroke-linecap:butt;stroke-linejoin:miter;stroke-miterlimit:4;stroke-dasharray:none;stroke-dashoffset:0;stroke-opacity:1;color-rendering:auto;image-rendering:auto;shape-rendering:auto;text-rendering:auto;enable-background:accumulate"
       d="m 170.90648,170.09295 8.13934,5.17061 4.7876,-7.53647"
       id="path4235-4-01-69-2-0-20-37-04-6-61-1-9"
       inkscape:connector-curvature="0"
       inkscape:transform-center-x="0.51826762"
       inkscape:transform-center-y="0.9215868" />
    <path
       style="color:#000000;clip-rule:nonzero;display:inline;overflow:visible;visibility:visible;opacity:1;isolation:auto;mix-blend-mode:normal;color-interpolation:sRGB;color-interpolation-filters:linearRGB;solid-color:#000000;solid-opacity:1;fill:none;fill-opacity:1;fill-rule:evenodd;stroke:#000000;stroke-width:3.99999976;stroke-linecap:butt;stroke-linejoin:miter;stroke-miterlimit:4;stroke-dasharray:none;stroke-dashoffset:0;stroke-opacity:1;color-rendering:auto;image-rendering:auto;shape-rendering:auto;text-rendering:auto;enable-background:accumulate"
       d="m 176.72386,264.45926 2.67455,9.2645 8.57827,-2.47646"
       id="path4235-4-01-69-2-0-20-37-04-6-61-1-9-5"
       inkscape:connector-curvature="0"
       inkscape:transform-center-x="-0.7134524"
       inkscape:transform-center-y="-0.35159821" />
    <path
       style="color:#000000;clip-rule:nonzero;display:inline;overflow:visible;visibility:visible;opacity:1;isolation:auto;mix-blend-mode:normal;color-interpolation:sRGB;color-interpolation-filters:linearRGB;solid-color:#000000;solid-opacity:1;fill:none;fill-opacity:1;fill-rule:evenodd;stroke:#000000;stroke-width:3.99999976;stroke-linecap:butt;stroke-linejoin:miter;stroke-miterlimit:4;stroke-dasharray:none;stroke-dashoffset:0;stroke-opacity:1;color-rendering:auto;image-rendering:auto;shape-rendering:auto;text-rendering:auto;enable-background:accumulate"
       d="m 312.12416,230.02489 7.40741,-6.17368 -5.71641,-6.85873"
       id="path4235-4-01-69-2-0-20-37-04-6-61-1-9-0"
       inkscape:connector-curvature="0"
       inkscape:transform-center-x="-1.1156874"
       inkscape:transform-center-y="-0.014053209" />
    <path
       style="color:#000000;clip-rule:nonzero;display:inline;overflow:visible;visibility:visible;opacity:1;isolation:auto;mix-blend-mode:normal;color-interpolation:sRGB;color-interpolation-filters:linearRGB;solid-color:#000000;solid-opacity:1;fill:none;fill-opacity:1;fill-rule:evenodd;stroke:#000000;stroke-width:3.99999976;stroke-linecap:butt;stroke-linejoin:miter;stroke-miterlimit:4;stroke-dasharray:none;stroke-dashoffset:0;stroke-opacity:1;color-rendering:auto;image-rendering:auto;shape-rendering:auto;text-rendering:auto;enable-background:accumulate"
       d="m 213.34287,219.09201 -9.27178,2.64919 2.45299,8.58502"
       id="path4235-4-01-69-2-0-20-37-04-6-61-1-9-6"
       inkscape:connector-curvature="0"
       inkscape:transform-center-x="-0.36137239"
       inkscape:transform-center-y="0.7177968" />
    <path
       style="color:#000000;clip-rule:nonzero;display:inline;overflow:visible;visibility:visible;opacity:1;isolation:auto;mix-blend-mode:normal;color-interpolation:sRGB;color-interpolation-filters:linearRGB;solid-color:#000000;solid-opacity:1;fill:none;fill-opacity:1;fill-rule:evenodd;stroke:#000000;stroke-width:3.99999976;stroke-linecap:butt;stroke-linejoin:miter;stroke-miterlimit:4;stroke-dasharray:none;stroke-dashoffset:0;stroke-opacity:1;color-rendering:auto;image-rendering:auto;shape-rendering:auto;text-rendering:auto;enable-background:accumulate"
       d="m 290.06941,304.6747 9.26187,2.68363 2.48483,-8.57585"
       id="path4235-4-01-69-2-0-20-37-04-6-61-1-9-60"
       inkscape:connector-curvature="0"
       inkscape:transform-center-x="0.96355762"
       inkscape:transform-center-y="-0.11012321" />
    <path
       style="color:#000000;clip-rule:nonzero;display:inline;overflow:visible;visibility:visible;opacity:1;isolation:auto;mix-blend-mode:normal;color-interpolation:sRGB;color-interpolation-filters:linearRGB;solid-color:#000000;solid-opacity:1;fill:none;fill-opacity:1;fill-rule:evenodd;stroke:#000000;stroke-width:3.99999976;stroke-linecap:butt;stroke-linejoin:miter;stroke-miterlimit:4;stroke-dasharray:none;stroke-dashoffset:0;stroke-opacity:1;color-rendering:auto;image-rendering:auto;shape-rendering:auto;text-rendering:auto;enable-background:accumulate"
       d="m 409.13143,283.23438 -9.32862,-2.44153 -2.26066,8.63765"
       id="path4235-4-01-69-2-0-20-37-04-6-61-1-9-1"
       inkscape:connector-curvature="0"
       inkscape:transform-center-x="-1.0010424"
       inkscape:transform-center-y="0.20558679" />
    <path
       style="color:#000000;clip-rule:nonzero;display:inline;overflow:visible;visibility:visible;opacity:1;isolation:auto;mix-blend-mode:normal;color-interpolation:sRGB;color-interpolation-filters:linearRGB;solid-color:#000000;solid-opacity:1;fill:none;fill-opacity:1;fill-rule:evenodd;stroke:#000000;stroke-width:3.99999976;stroke-linecap:butt;stroke-linejoin:miter;stroke-miterlimit:4;stroke-dasharray:none;stroke-dashoffset:0;stroke-opacity:1;color-rendering:auto;image-rendering:auto;shape-rendering:auto;text-rendering:auto;enable-background:accumulate"
       d="m 462.67394,274.49494 -9.06455,-3.2891 -3.04545,8.39314"
       id="path4235-4-01-69-2-0-20-37-04-6-61-1-9-3"
       inkscape:connector-curvature="0"
       inkscape:transform-center-x="-0.8656224"
       inkscape:transform-center-y="-0.13217821" />
    <path
       style="color:#000000;clip-rule:nonzero;display:inline;overflow:visible;visibility:visible;opacity:1;isolation:auto;mix-blend-mode:normal;color-interpolation:sRGB;color-interpolation-filters:linearRGB;solid-color:#000000;solid-opacity:1;fill:none;fill-opacity:1;fill-rule:evenodd;stroke:#000000;stroke-width:3.99999976;stroke-linecap:butt;stroke-linejoin:miter;stroke-miterlimit:4;stroke-dasharray:none;stroke-dashoffset:0;stroke-opacity:1;color-rendering:auto;image-rendering:auto;shape-rendering:auto;text-rendering:auto;enable-background:accumulate"
       d="m 533.92405,212.87653 -8.35845,4.80838 4.45223,7.73932"
       id="path4235-4-01-69-2-0-20-37-04-6-61-1-9-59"
       inkscape:connector-curvature="0"
       inkscape:transform-center-x="0.51195262"
       inkscape:transform-center-y="0.31339179" />
    <path
       style="color:#000000;clip-rule:nonzero;display:inline;overflow:visible;visibility:visible;opacity:1;isolation:auto;mix-blend-mode:normal;color-interpolation:sRGB;color-interpolation-filters:linearRGB;solid-color:#000000;solid-opacity:1;fill:none;fill-opacity:1;fill-rule:evenodd;stroke:#000000;stroke-width:3.99999976;stroke-linecap:butt;stroke-linejoin:miter;stroke-miterlimit:4;stroke-dasharray:none;stroke-dashoffset:0;stroke-opacity:1;color-rendering:auto;image-rendering:auto;shape-rendering:auto;text-rendering:auto;enable-background:accumulate"
       d="m 479.29141,340.41392 -0.83494,-9.60661 -8.89505,0.77312"
       id="path4235-4-01-69-2-0-20-37-04-6-61-1-9-19"
       inkscape:connector-curvature="0"
       inkscape:transform-center-x="1.0070626"
       inkscape:transform-center-y="1.0355468" />
    <path
       style="color:#000000;clip-rule:nonzero;display:inline;overflow:visible;visibility:visible;opacity:1;isolation:auto;mix-blend-mode:normal;color-interpolation:sRGB;color-interpolation-filters:linearRGB;solid-color:#000000;solid-opacity:1;fill:none;fill-opacity:1;fill-rule:evenodd;stroke:#000000;stroke-width:3.99999976;stroke-linecap:butt;stroke-linejoin:miter;stroke-miterlimit:4;stroke-dasharray:none;stroke-dashoffset:0;stroke-opacity:1;color-rendering:auto;image-rendering:auto;shape-rendering:auto;text-rendering:auto;enable-background:accumulate"
       d="m 339.53006,391.13697 5.15248,8.15084 7.54709,-4.77085"
       id="path4235-4-01-69-2-0-20-37-04-6-61-1-9-08"
       inkscape:connector-curvature="0"
       inkscape:transform-center-x="-0.24169739"
       inkscape:transform-center-y="0.6596918" />
    <path
       style="color:#000000;clip-rule:nonzero;display:inline;overflow:visible;visibility:visible;opacity:1;isolation:auto;mix-blend-mode:normal;color-interpolation:sRGB;color-interpolation-filters:linearRGB;solid-color:#000000;solid-opacity:1;fill:none;fill-opacity:1;fill-rule:evenodd;stroke:#000000;stroke-width:3.99999976;stroke-linecap:butt;stroke-linejoin:miter;stroke-miterlimit:4;stroke-dasharray:none;stroke-dashoffset:0;stroke-opacity:1;color-rendering:auto;image-rendering:auto;shape-rendering:auto;text-rendering:auto;enable-background:accumulate"
       d="m 453.28472,450.93607 -2.03364,-9.42594 -8.72776,1.88304"
       id="path4235-4-01-69-2-0-20-37-04-6-61-1-9-9"
       inkscape:connector-curvature="0"
       inkscape:transform-center-x="0.82067762"
       inkscape:transform-center-y="0.5957018" />
    <path
       style="color:#000000;clip-rule:nonzero;display:inline;overflow:visible;visibility:visible;opacity:1;isolation:auto;mix-blend-mode:normal;color-interpolation:sRGB;color-interpolation-filters:linearRGB;solid-color:#000000;solid-opacity:1;fill:none;fill-opacity:1;fill-rule:evenodd;stroke:#000000;stroke-width:3.99999976;stroke-linecap:butt;stroke-linejoin:miter;stroke-miterlimit:4;stroke-dasharray:none;stroke-dashoffset:0;stroke-opacity:1;color-rendering:auto;image-rendering:auto;shape-rendering:auto;text-rendering:auto;enable-background:accumulate"
       d="m 420.78191,454.82345 -9.59651,0.94408 0.87418,8.88568"
       id="path4235-4-01-69-2-0-20-37-04-6-61-1-9-16"
       inkscape:connector-curvature="0"
       inkscape:transform-center-x="-0.9963774"
       inkscape:transform-center-y="0.9908318" />
    <path
       style="color:#000000;clip-rule:nonzero;display:inline;overflow:visible;visibility:visible;opacity:1;isolation:auto;mix-blend-mode:normal;color-interpolation:sRGB;color-interpolation-filters:linearRGB;solid-color:#000000;solid-opacity:1;fill:none;fill-opacity:1;fill-rule:evenodd;stroke:#000000;stroke-width:3.99999976;stroke-linecap:butt;stroke-linejoin:miter;stroke-miterlimit:4;stroke-dasharray:none;stroke-dashoffset:0;stroke-opacity:1;color-rendering:auto;image-rendering:auto;shape-rendering:auto;text-rendering:auto;enable-background:accumulate"
       d="m 447.92702,507.69368 -7.7441,5.7457 5.32013,7.17048"
       id="path4235-4-01-69-2-0-20-37-04-6-61-1-9-8"
       inkscape:connector-curvature="0"
       inkscape:transform-center-x="0.92111762"
       inkscape:transform-center-y="0.11239179" />
    <path
       style="color:#000000;clip-rule:nonzero;display:inline;overflow:visible;visibility:visible;opacity:1;isolation:auto;mix-blend-mode:normal;color-interpolation:sRGB;color-interpolation-filters:linearRGB;solid-color:#000000;solid-opacity:1;fill:none;fill-opacity:1;fill-rule:evenodd;stroke:#000000;stroke-width:3.99999976;stroke-linecap:butt;stroke-linejoin:miter;stroke-miterlimit:4;stroke-dasharray:none;stroke-dashoffset:0;stroke-opacity:1;color-rendering:auto;image-rendering:auto;shape-rendering:auto;text-rendering:auto;enable-background:accumulate"
       d="m 401.59032,552.08242 9.26187,2.68363 2.48483,-8.57585"
       id="path4235-4-01-69-2-0-20-37-04-6-61-1-9-80"
       inkscape:connector-curvature="0"
       inkscape:transform-center-x="0.96355762"
       inkscape:transform-center-y="-0.11012321" />
    <path
       style="color:#000000;clip-rule:nonzero;display:inline;overflow:visible;visibility:visible;opacity:1;isolation:auto;mix-blend-mode:normal;color-interpolation:sRGB;color-interpolation-filters:linearRGB;solid-color:#000000;solid-opacity:1;fill:none;fill-opacity:1;fill-rule:evenodd;stroke:#000000;stroke-width:3.99999976;stroke-linecap:butt;stroke-linejoin:miter;stroke-miterlimit:4;stroke-dasharray:none;stroke-dashoffset:0;stroke-opacity:1;color-rendering:auto;image-rendering:auto;shape-rendering:auto;text-rendering:auto;enable-background:accumulate"
       d="m 415.24204,612.16747 3.55043,8.96541 8.30133,-3.28746"
       id="path4235-4-01-69-2-0-20-37-04-6-61-1-9-99"
       inkscape:connector-curvature="0"
       inkscape:transform-center-x="-0.5577424"
       inkscape:transform-center-y="-0.0071732089" />
    <path
       style="color:#000000;clip-rule:nonzero;display:inline;overflow:visible;visibility:visible;opacity:1;isolation:auto;mix-blend-mode:normal;color-interpolation:sRGB;color-interpolation-filters:linearRGB;solid-color:#000000;solid-opacity:1;fill:none;fill-opacity:1;fill-rule:evenodd;stroke:#000000;stroke-width:3.99999976;stroke-linecap:butt;stroke-linejoin:miter;stroke-miterlimit:4;stroke-dasharray:none;stroke-dashoffset:0;stroke-opacity:1;color-rendering:auto;image-rendering:auto;shape-rendering:auto;text-rendering:auto;enable-background:accumulate"
       d="m 454.12039,647.75379 2.67455,9.2645 8.57827,-2.47646"
       id="path4235-4-01-69-2-0-20-37-04-6-61-1-9-50"
       inkscape:connector-curvature="0"
       inkscape:transform-center-x="-0.7134524"
       inkscape:transform-center-y="-0.35159821" />
    <path
       style="color:#000000;clip-rule:nonzero;display:inline;overflow:visible;visibility:visible;opacity:1;isolation:auto;mix-blend-mode:normal;color-interpolation:sRGB;color-interpolation-filters:linearRGB;solid-color:#000000;solid-opacity:1;fill:none;fill-opacity:1;fill-rule:evenodd;stroke:#000000;stroke-width:3.99999976;stroke-linecap:butt;stroke-linejoin:miter;stroke-miterlimit:4;stroke-dasharray:none;stroke-dashoffset:0;stroke-opacity:1;color-rendering:auto;image-rendering:auto;shape-rendering:auto;text-rendering:auto;enable-background:accumulate"
       d="m 353.55022,705.05587 2.87519,-9.2042 -8.52246,-2.6622"
       id="path4235-4-01-69-2-0-20-37-04-6-61-1-9-69"
       inkscape:connector-curvature="0"
       inkscape:transform-center-x="0.03401761"
       inkscape:transform-center-y="0.9332318" />
    <path
       style="color:#000000;clip-rule:nonzero;display:inline;overflow:visible;visibility:visible;opacity:1;isolation:auto;mix-blend-mode:normal;color-interpolation:sRGB;color-interpolation-filters:linearRGB;solid-color:#000000;solid-opacity:1;fill:none;fill-opacity:1;fill-rule:evenodd;stroke:#000000;stroke-width:3.99999976;stroke-linecap:butt;stroke-linejoin:miter;stroke-miterlimit:4;stroke-dasharray:none;stroke-dashoffset:0;stroke-opacity:1;color-rendering:auto;image-rendering:auto;shape-rendering:auto;text-rendering:auto;enable-background:accumulate"
       d="m 431.6455,762.6336 -9.47033,1.81575 1.68128,8.76886"
       id="path4235-4-01-69-2-0-20-37-04-6-61-1-9-4"
       inkscape:connector-curvature="0"
       inkscape:transform-center-x="-0.6772474"
       inkscape:transform-center-y="0.8559068" />
    <path
       style="color:#000000;clip-rule:nonzero;display:inline;overflow:visible;visibility:visible;opacity:1;isolation:auto;mix-blend-mode:normal;color-interpolation:sRGB;color-interpolation-filters:linearRGB;solid-color:#000000;solid-opacity:1;fill:none;fill-opacity:1;fill-rule:evenodd;stroke:#000000;stroke-width:3.99999976;stroke-linecap:butt;stroke-linejoin:miter;stroke-miterlimit:4;stroke-dasharray:none;stroke-dashoffset:0;stroke-opacity:1;color-rendering:auto;image-rendering:auto;shape-rendering:auto;text-rendering:auto;enable-background:accumulate"
       d="m 373.75086,825.69026 -9.54721,1.35454 1.25423,8.84005"
       id="path4235-4-01-69-2-0-20-37-04-6-61-1-9-57"
       inkscape:connector-curvature="0"
       inkscape:transform-center-x="-0.8474974"
       inkscape:transform-center-y="0.9284768" />
    <path
       style="color:#000000;clip-rule:nonzero;display:inline;overflow:visible;visibility:visible;opacity:1;isolation:auto;mix-blend-mode:normal;color-interpolation:sRGB;color-interpolation-filters:linearRGB;solid-color:#000000;solid-opacity:1;fill:none;fill-opacity:1;fill-rule:evenodd;stroke:#000000;stroke-width:3.99999976;stroke-linecap:butt;stroke-linejoin:miter;stroke-miterlimit:4;stroke-dasharray:none;stroke-dashoffset:0;stroke-opacity:1;color-rendering:auto;image-rendering:auto;shape-rendering:auto;text-rendering:auto;enable-background:accumulate"
       d="m 567.84629,333.05189 8.34053,-4.83938 -4.48094,-7.72274"
       id="path4235-4-01-69-2-0-20-37-04-6-61-1-9-33"
       inkscape:connector-curvature="0"
       inkscape:transform-center-x="-0.5251574"
       inkscape:transform-center-y="-0.30702821" />
    <path
       style="color:#000000;clip-rule:nonzero;display:inline;overflow:visible;visibility:visible;opacity:1;isolation:auto;mix-blend-mode:normal;color-interpolation:sRGB;color-interpolation-filters:linearRGB;solid-color:#000000;solid-opacity:1;fill:none;fill-opacity:1;fill-rule:evenodd;stroke:#000000;stroke-width:3.99999976;stroke-linecap:butt;stroke-linejoin:miter;stroke-miterlimit:4;stroke-dasharray:none;stroke-dashoffset:0;stroke-opacity:1;color-rendering:auto;image-rendering:auto;shape-rendering:auto;text-rendering:auto;enable-background:accumulate"
       d="m 632.70298,311.26274 2.5719,9.29352 8.60514,-2.38143"
       id="path4235-4-01-69-2-0-20-37-04-6-61-1-9-43"
       inkscape:connector-curvature="0"
       inkscape:transform-center-x="4.8919103"
       inkscape:transform-center-y="-2.7340043" />
    <path
       style="color:#000000;clip-rule:nonzero;display:inline;overflow:visible;visibility:visible;opacity:1;isolation:auto;mix-blend-mode:normal;color-interpolation:sRGB;color-interpolation-filters:linearRGB;solid-color:#000000;solid-opacity:1;fill:none;fill-opacity:1;fill-rule:evenodd;stroke:#000000;stroke-width:3.99999976;stroke-linecap:butt;stroke-linejoin:miter;stroke-miterlimit:4;stroke-dasharray:none;stroke-dashoffset:0;stroke-opacity:1;color-rendering:auto;image-rendering:auto;shape-rendering:auto;text-rendering:auto;enable-background:accumulate"
       d="m 648.59559,145.21735 -0.31636,-9.63764 -8.92378,0.29296"
       id="path4235-4-01-69-2-0-20-37-04-6-61-1-9-91"
       inkscape:connector-curvature="0"
       inkscape:transform-center-x="1.0821876"
       inkscape:transform-center-y="1.2193318" />
  </g>
</svg>
