<?xml version="1.0" encoding="UTF-8" standalone="no"?>
<!-- Created with Inkscape (http://www.inkscape.org/) -->

<svg
   xmlns:dc="http://purl.org/dc/elements/1.1/"
   xmlns:cc="http://creativecommons.org/ns#"
   xmlns:rdf="http://www.w3.org/1999/02/22-rdf-syntax-ns#"
   xmlns:svg="http://www.w3.org/2000/svg"
   xmlns="http://www.w3.org/2000/svg"
   xmlns:sodipodi="http://sodipodi.sourceforge.net/DTD/sodipodi-0.dtd"
   xmlns:inkscape="http://www.inkscape.org/namespaces/inkscape"
   width="666.62231"
   height="800"
   viewBox="0 0 624.95842 750.00001"
   id="svg2"
   version="1.1"
   inkscape:version="0.92.3 (2405546, 2018-03-11)"
   sodipodi:docname="v.svg"
   inkscape:export-filename="C:\Users\zvi\Documents\Mazesplace\Mazes\Alphabet Maze Set\V\V (s).png"
   inkscape:export-xdpi="100"
   inkscape:export-ydpi="100">
  <defs
     id="defs4">
    <inkscape:path-effect
       effect="spiro"
       id="path-effect5224"
       is_visible="true" />
    <inkscape:path-effect
       effect="spiro"
       id="path-effect5220"
       is_visible="true" />
    <inkscape:path-effect
       effect="spiro"
       id="path-effect5216"
       is_visible="true" />
    <inkscape:path-effect
       effect="spiro"
       id="path-effect5212"
       is_visible="true" />
    <inkscape:path-effect
       effect="spiro"
       id="path-effect5208"
       is_visible="true" />
    <inkscape:path-effect
       effect="spiro"
       id="path-effect5204"
       is_visible="true" />
    <inkscape:path-effect
       effect="spiro"
       id="path-effect5200"
       is_visible="true" />
    <inkscape:path-effect
       effect="spiro"
       id="path-effect5192"
       is_visible="true" />
    <inkscape:path-effect
       effect="spiro"
       id="path-effect5188"
       is_visible="true" />
    <inkscape:path-effect
       effect="spiro"
       id="path-effect5184"
       is_visible="true" />
    <inkscape:path-effect
       effect="spiro"
       id="path-effect5180"
       is_visible="true" />
    <inkscape:path-effect
       effect="spiro"
       id="path-effect5176"
       is_visible="true" />
    <inkscape:path-effect
       effect="spiro"
       id="path-effect5172"
       is_visible="true" />
    <inkscape:path-effect
       effect="spiro"
       id="path-effect5168"
       is_visible="true" />
    <inkscape:path-effect
       effect="spiro"
       id="path-effect5160"
       is_visible="true" />
    <inkscape:path-effect
       effect="spiro"
       id="path-effect4545"
       is_visible="true" />
    <inkscape:path-effect
       effect="spiro"
       id="path-effect4571"
       is_visible="true" />
    <clipPath
       clipPathUnits="userSpaceOnUse"
       id="clipPath4540">
      <rect
         transform="rotate(90)"
         y="112.13254"
         x="28.427679"
         height="822.85712"
         width="694.28571"
         id="rect4542"
         style="opacity:1;fill:none;fill-opacity:1;fill-rule:evenodd;stroke:#000000;stroke-width:2.8125;stroke-linecap:round;stroke-linejoin:round;stroke-miterlimit:4;stroke-dasharray:none;stroke-dashoffset:2.4000001;stroke-opacity:1" />
    </clipPath>
    <clipPath
       clipPathUnits="userSpaceOnUse"
       id="clipPath922">
      <rect
         style="fill:#000000;fill-opacity:0.53266332;stroke:none;stroke-width:4.48228312;stroke-linecap:round;stroke-linejoin:miter;stroke-miterlimit:4;stroke-dasharray:none;stroke-dashoffset:0;stroke-opacity:1;paint-order:normal"
         id="rect924"
         width="624.95844"
         height="750"
         x="69.710846"
         y="143.98032" />
    </clipPath>
  </defs>
  <sodipodi:namedview
     id="base"
     pagecolor="#ffffff"
     bordercolor="#666666"
     borderopacity="1.0"
     inkscape:pageopacity="0.0"
     inkscape:pageshadow="2"
     inkscape:zoom="0.49497475"
     inkscape:cx="462.84139"
     inkscape:cy="142.45342"
     inkscape:document-units="px"
     inkscape:current-layer="layer2"
     showgrid="false"
     units="px"
     inkscape:window-width="1680"
     inkscape:window-height="987"
     inkscape:window-x="3832"
     inkscape:window-y="288"
     inkscape:window-maximized="1"
     fit-margin-top="0"
     fit-margin-left="15"
     fit-margin-right="15"
     fit-margin-bottom="0"
     inkscape:snap-page="true" />
  <metadata
     id="metadata7">
    <rdf:RDF>
      <cc:Work
         rdf:about="">
        <dc:format>image/svg+xml</dc:format>
        <dc:type
           rdf:resource="http://purl.org/dc/dcmitype/StillImage" />
        <dc:title></dc:title>
      </cc:Work>
    </rdf:RDF>
  </metadata>
  <g
     inkscape:groupmode="layer"
     id="layer2"
     inkscape:label="Layer 2"
     style="display:inline"
     transform="translate(-69.710847,-143.98032)">
    <g
       id="g896"
       clip-path="url(#clipPath922)">
      <path
         sodipodi:nodetypes="cccccccccccc"
         inkscape:connector-curvature="0"
         id="path4546"
         d="M 627.94131,198.76298 H 144.48862 m -36.46019,0 H 85.773503 V 370.17324 H 142.59458 L 316.8459,891.98017 H 433.32912 L 615.15658,373.0143 h 63.45004 V 198.76298 h -35.27626"
         style="opacity:1;vector-effect:none;fill:none;fill-opacity:1;stroke:#000000;stroke-width:4.00031233;stroke-linecap:butt;stroke-linejoin:miter;stroke-miterlimit:4;stroke-dasharray:none;stroke-dashoffset:0;stroke-opacity:1" />
      <path
         inkscape:connector-curvature="0"
         id="path4548"
         d="M 438.0642,372.06727 H 319.68696 l 57.76809,171.41026 z"
         style="opacity:1;vector-effect:none;fill:none;fill-opacity:1;stroke:#000000;stroke-width:4.00031233;stroke-linecap:butt;stroke-linejoin:miter;stroke-miterlimit:4;stroke-dasharray:none;stroke-dashoffset:0;stroke-opacity:1" />
      <path
         inkscape:connector-curvature="0"
         id="path4550"
         d="M 379.37416,371.89745 V 199.47324"
         style="opacity:1;vector-effect:none;fill:none;fill-opacity:1;stroke:#000000;stroke-width:4.00031233;stroke-linecap:butt;stroke-linejoin:miter;stroke-miterlimit:4;stroke-dasharray:none;stroke-dashoffset:0;stroke-opacity:1" />
      <path
         sodipodi:nodetypes="ccssssssssssssccsccssccsscssssssscsssssccssssssscscsssssscsssscssscscssszccc"
         inkscape:original-d="M 62.334807,167.41782 H 82.45894 c 0,0 12.470008,24.79402 26.04299,33.00244 13.57299,8.20843 -8.522219,17.59781 -13.258247,31.01484 -4.736027,13.41702 2.841992,15.7827 4.261582,23.67545 1.419585,7.89275 -3.155789,43.56189 -4.735091,65.34425 -1.5793,21.78235 8.524096,24.62153 12.784746,36.9337 4.26064,12.31217 23.36071,1.26175 35.03966,1.89403 11.67896,0.63229 9.15545,12.3103 13.73177,18.46686 4.57631,6.15655 30.30551,78.60155 45.45686,117.90374 15.15136,39.30218 9.78679,20.83346 14.67878,31.25159 4.89199,10.41814 6.31439,25.88422 9.47018,38.82774 3.15579,12.94352 11.68082,30.30364 17.51984,45.45687 5.839,15.15322 29.67416,11.99462 44.50984,17.99334 14.83568,5.99872 9.15544,7.89088 13.73176,11.83773 4.57632,3.94684 -5.68117,5.99684 -8.52316,8.99666 -2.84199,2.99983 -23.04316,-5.68304 -34.56616,-8.52316 -11.52299,-2.84012 -2.84011,-0.31661 -4.26158,-0.4735 -1.42147,-0.1569 -0.94608,7.25953 -1.42053,10.8907 -0.47444,3.63117 17.36294,30.93499 26.043,46.40388 8.68006,15.4689 11.9965,68.18437 17.99335,102.27795 5.99684,34.09359 10.41812,14.20434 15.62579,21.3079 5.20766,7.10358 12.31218,-1.89496 18.46685,-2.84105 6.15468,-0.94608 -3.78713,-25.25475 -5.68211,-37.88072 -1.89497,-12.62597 0.63229,-36.93464 0.94702,-55.40055 0.31473,-18.46592 10.10247,-3.15767 15.15229,-4.73509 5.04983,-1.57743 3.78901,14.83568 5.68211,22.25492 1.8931,7.41924 8.20843,41.03651 12.31123,61.55618 4.10281,20.51965 -14.52,21.14912 -21.78141,31.7251 -7.26141,10.57597 -6.94386,14.52 -10.4172,21.78141 -3.47334,7.26141 13.25919,13.25731 19.88738,19.88738 6.62819,6.63007 36.93464,-3.78901 55.40055,-5.68211 18.46592,-1.8931 17.36294,-13.25919 26.043,-19.88738 8.68006,-6.62819 6.31439,-29.98984 9.47017,-44.98336 3.1558,-14.99351 11.68083,-15.78456 17.51984,-23.67544 5.83901,-7.89089 7.89275,-20.83534 11.83772,-31.2516 3.94497,-10.41626 -21.14913,-15.4689 -31.7251,-23.20194 -10.57597,-7.73304 -17.67673,12.62597 -26.5165,18.94036 -8.83978,6.31439 1.89497,25.25288 2.84105,37.88072 0.94608,12.62784 -7.25953,5.68117 -10.8907,8.52316 -3.63118,2.84199 -6.31252,-8.83977 -9.47019,-13.25825 -3.15766,-4.41848 8.83978,-30.62119 13.25826,-45.93037 4.41848,-15.30919 9.4e-4,-15.4689 0,-23.20195 -9.4e-4,-7.73304 -17.04539,-16.41591 -25.56949,-24.62246 -8.5241,-8.20656 -18.30808,-10.10246 -27.46353,-15.15229 -9.15543,-5.04982 6.94574,-10.10246 10.4172,-15.15229 3.47146,-5.04983 23.36072,14.20433 35.03968,21.30791 11.67894,7.10357 15.78456,19.25509 23.67544,28.88404 7.89089,9.62895 16.73159,-9.3e-4 25.09598,0 8.36439,9.4e-4 17.36293,8.20656 26.043,12.31124 8.68006,4.10468 7.26141,-16.41592 10.8907,-24.62247 3.6293,-8.20655 28.41148,-62.18845 42.61582,-93.28128 14.20432,-31.09281 4.10467,-66.60786 6.15561,-99.91039 2.05094,-33.30254 30.62119,-44.19511 45.93038,-66.29127 15.30918,-22.09615 -8.83791,-9.78678 -13.25826,-14.67877 -4.42036,-4.892 -22.72749,0.94608 -34.09264,1.42052 -11.36516,0.47445 -29.98798,20.83346 -44.98336,31.2516 -14.99539,10.41813 -5.04983,-5.0517 -7.57615,-7.57615 -2.52632,-2.52444 9.47112,-13.25919 14.20527,-19.88738 4.73415,-6.62818 23.67639,-22.09802 35.51318,-33.14562 11.83679,-11.04762 -3.78713,-11.36517 -5.6821,-17.04633 -1.89498,-5.68118 10.7338,-21.78236 16.0993,-32.67212 5.3655,-10.88978 2.21064,4.1028 3.31456,6.15561 1.10391,2.05281 9.4e-4,17.67674 0,26.51651 -9.4e-4,8.83977 16.41592,19.88644 24.62247,29.83106 8.20655,9.94464 21.78235,-24.6234 32.67212,-36.93369 10.88978,-12.31031 8.20843,-7.57709 12.31123,-11.36423 4.10281,-3.78713 25.25476,-0.3166 37.88073,-0.4735 12.62597,-0.1569 11.68082,-5.68305 17.51983,-8.52316 5.83901,-2.84012 0.63228,-16.10025 0.94702,-24.14896 0.31474,-8.04872 -15.78269,-35.35629 -23.67545,-53.03302 -7.89276,-17.67673 6.94573,-9.15543 10.4172,-13.73176 3.47146,-4.57631 -2.1237,0.62285 4.02482,-10.18044 6.14852,-10.8033 -0.30483,-34.84371 -10.18044,-40.72177 -12.84597,-31.39926 24.49843,-39.66252 31.61461,-39.63157 h 26.627"
         inkscape:path-effect="#path-effect5160"
         inkscape:connector-curvature="0"
         id="path5158"
         d="M 62.334807,167.41782 H 82.45894 c 8.051399,0.0186 16.009052,3.8873 20.9967,10.2078 4.98766,6.3205 6.90017,14.95956 5.04629,22.79464 -1.30207,5.50293 -4.29245,10.42835 -7.0975,15.33846 -2.80506,4.91012 -5.515706,10.05842 -6.160747,15.67638 -0.460238,4.00843 0.160058,8.06841 1.113871,11.98882 0.953814,3.92041 2.240758,7.75512 3.147711,11.68663 2.471565,10.71388 2.063875,21.89962 0.640675,32.80239 -1.423205,10.90276 -3.842629,21.65401 -5.375766,32.54186 -0.982397,6.97667 -1.588945,14.16671 0.123277,21.00099 0.856112,3.41714 2.298713,6.7103 4.427274,9.51726 2.128565,2.80695 4.960465,5.11452 8.234195,6.41545 2.75234,1.09373 5.74964,1.46013 8.71129,1.44511 2.96165,-0.015 5.90725,-0.40048 8.84668,-0.76293 2.93942,-0.36245 5.89354,-0.70309 8.85428,-0.62787 2.96073,0.0752 5.9468,0.58037 8.62741,1.83972 3.55845,1.67176 6.41152,4.59838 8.57225,7.88298 2.16074,3.2846 3.68665,6.93861 5.15952,10.58388 15.78684,39.07157 26.9918,80.02428 45.45686,117.90374 5.04546,10.35033 10.63292,20.47119 14.67878,31.25159 4.68829,12.49218 7.23258,25.67374 9.47018,38.82774 1.38597,8.14756 2.6712,16.35116 5.20715,24.21707 2.53595,7.86591 6.40812,15.4571 12.31269,21.2398 5.79287,5.6733 13.27306,9.35128 20.96493,11.9162 7.69188,2.56492 15.68126,4.1006 23.54491,6.07714 3.18698,0.80106 6.42745,1.70811 9.11725,3.59584 1.3449,0.94387 2.53428,2.13081 3.37358,3.54334 0.8393,1.41252 1.31732,3.05727 1.24093,4.69855 -0.10254,2.20309 -1.20573,4.29206 -2.78932,5.8271 -1.5836,1.53504 -3.61751,2.54887 -5.73384,3.16956 -5.81208,1.70459 -12.10375,0.52759 -17.79571,-1.54303 -5.69197,-2.07061 -11.04289,-5.01009 -16.77045,-6.98013 -0.68736,-0.23642 -1.38315,-0.45954 -2.10132,-0.5718 -0.71816,-0.11226 -1.46397,-0.11036 -2.16026,0.0983 -1.00318,0.30062 -1.85376,1.02586 -2.39526,1.92225 -0.54151,0.8964 -0.78674,1.95332 -0.79673,3.00053 -0.02,2.09442 0.85804,4.08307 1.77146,5.96792 7.74247,15.97674 19.23137,30.00865 26.043,46.40388 6.66376,16.03932 8.55078,33.60515 10.01832,50.91156 1.46754,17.30642 2.6243,34.84261 7.97503,51.36639 1.39791,4.31694 3.09489,8.57809 5.60506,12.35819 2.51017,3.7801 5.88762,7.07687 10.02073,8.94971 3.02167,1.36921 6.42132,1.94455 9.7076,1.49114 3.28627,-0.45341 6.44328,-1.95701 8.75925,-4.33219 2.40288,-2.46431 3.83487,-5.78268 4.31861,-9.19041 0.48373,-3.40773 0.0587,-6.90274 -0.89518,-10.20981 -1.90784,-6.61412 -5.83732,-12.42201 -9.10554,-18.4805 -4.68822,-8.69082 -8.11577,-18.24785 -8.45889,-28.11659 -0.34313,-9.86874 2.64523,-20.08654 9.40591,-27.28396 1.94354,-2.0691 4.21912,-3.89716 6.87568,-4.89777 1.32828,-0.50031 2.74264,-0.7871 4.162,-0.78029 1.41936,0.007 2.84342,0.31154 4.11461,0.94297 1.82243,0.90524 3.27899,2.45943 4.25484,4.24505 0.97585,1.78562 1.49227,3.79549 1.71595,5.81804 0.44736,4.04509 -0.24374,8.12233 -0.28868,12.19183 -0.11684,10.58079 4.09537,20.65374 7.73998,30.5877 1.8223,4.96698 3.52417,10.00152 4.49642,15.20213 0.97225,5.20062 1.19899,10.59644 0.0748,15.76635 -1.38083,6.3503 -4.74216,12.11911 -8.73925,17.2432 -3.9971,5.12409 -8.64865,9.69336 -13.04216,14.4819 -2.80317,3.05521 -5.52586,6.23381 -7.52293,9.86751 -1.99707,3.63369 -3.24223,7.7822 -2.89427,11.9139 0.41779,4.96081 3.1316,9.55153 6.82607,12.88845 3.69448,3.33693 8.30944,5.51437 13.06131,6.99893 9.04417,2.82553 18.73465,3.26692 28.13017,2.04017 9.39551,-1.22674 18.52091,-4.08533 27.27038,-7.72228 5.14178,-2.13732 10.19778,-4.56245 14.7475,-7.77276 4.54972,-3.2103 8.59608,-7.24439 11.2955,-12.11462 3.73802,-6.74403 4.69329,-14.638 5.36083,-22.31973 0.66755,-7.68174 1.15465,-15.54152 4.10934,-22.66363 3.77968,-9.11069 11.19577,-16.10598 17.51984,-23.67544 3.68647,-4.41244 7.07575,-9.14083 9.35758,-14.41842 2.28183,-5.27759 3.41305,-11.15961 2.48014,-16.83318 -1.16042,-7.05719 -5.5352,-13.4179 -11.41583,-17.48837 -5.88063,-4.07047 -13.16027,-5.91929 -20.30927,-5.71357 -5.85381,0.16845 -11.74145,1.7122 -16.61849,4.9541 -4.87704,3.2419 -8.66895,8.26045 -9.89801,13.98626 -1.3447,6.26452 0.375,12.72754 1.92092,18.94546 0.77295,3.10896 1.50713,6.2409 1.7964,9.43142 0.28926,3.19052 0.12153,6.45959 -0.87627,9.50384 -0.77717,2.37111 -2.08188,4.61003 -3.98164,6.22778 -1.89975,1.61775 -4.42853,2.56585 -6.90906,2.29538 -1.46783,-0.16005 -2.87864,-0.7362 -4.08405,-1.58892 -1.20541,-0.85273 -2.20855,-1.97647 -2.98566,-3.23195 -1.55422,-2.51097 -2.1904,-5.4918 -2.40048,-8.43738 -0.57134,-8.01077 1.81287,-15.93843 4.76682,-23.40656 2.95396,-7.46814 6.51754,-14.73904 8.49144,-22.52381 1.92447,-7.5898 2.26893,-15.70792 0,-23.20195 -1.78731,-5.90329 -5.177,-11.29877 -9.64515,-15.55071 -4.46814,-4.25194 -9.99866,-7.36013 -15.92434,-9.07175 -5.3414,-1.54285 -10.98487,-1.9716 -16.20781,-3.87735 -2.61146,-0.95287 -5.11567,-2.28708 -7.15462,-4.17664 -2.03895,-1.88955 -3.59311,-4.36523 -4.1011,-7.0983 -0.61141,-3.28949 0.35281,-6.78017 2.33176,-9.47801 1.97895,-2.69784 4.90853,-4.62459 8.08544,-5.67428 3.54245,-1.17047 7.39912,-1.28768 11.05222,-0.53015 3.65309,0.75753 7.10439,2.37185 10.1498,4.52695 6.09082,4.31018 10.46608,10.65467 13.83766,17.31111 2.92181,5.76848 5.20085,11.88796 8.73273,17.30443 1.76594,2.70824 3.84806,5.23305 6.34843,7.28274 2.50038,2.04969 5.43387,3.61502 8.59428,4.29687 4.11718,0.88827 8.38906,0.2572 12.56625,-0.28254 4.17719,-0.53974 8.5093,-0.973 12.52973,0.28254 4.72025,1.47408 8.40872,5.07102 12.36131,8.04268 1.9763,1.48583 4.07731,2.84655 6.39784,3.70014 2.32052,0.85358 4.88726,1.17653 7.28385,0.56842 2.33475,-0.59241 4.40196,-2.04774 5.94257,-3.89937 1.5406,-1.85163 2.57792,-4.08431 3.24522,-6.39876 1.33461,-4.62891 1.22476,-9.53066 1.70291,-14.32434 1.71056,-17.14939 10.87039,-32.55129 20.15095,-47.07364 9.28057,-14.52235 19.11332,-29.30218 22.46487,-46.20764 3.29862,-16.63849 0.0103,-33.76305 -1.67379,-50.64156 -0.84203,-8.43926 -1.2791,-16.96842 -0.28316,-25.3909 0.99593,-8.42248 3.47888,-16.77447 8.11256,-23.87793 7.78043,-11.92743 20.74027,-19.25753 31.31823,-28.79196 5.28898,-4.76722 10.09405,-10.24249 13.05268,-16.71908 2.95863,-6.47658 3.92806,-14.06536 1.55947,-20.78023 -2.24388,-6.36132 -7.32109,-11.477 -13.25826,-14.67877 -5.26604,-2.83984 -11.28276,-4.3014 -17.26191,-4.08768 -5.97914,0.21372 -11.90307,2.11496 -16.83073,5.5082 -7.99438,5.50501 -12.87342,14.38619 -19.37192,21.59624 -3.24925,3.60502 -7.00477,6.86153 -11.44167,8.82818 -4.43691,1.96665 -9.62919,2.54093 -14.16977,0.82718 -1.72992,-0.65292 -3.34552,-1.62971 -4.67198,-2.91789 -1.32646,-1.28819 -2.3581,-2.8917 -2.90417,-4.65826 -0.65798,-2.12858 -0.59534,-4.44993 0.0249,-6.58981 0.62023,-2.13989 1.78165,-4.10234 3.23969,-5.78695 2.91608,-3.36923 6.92164,-5.58649 10.9407,-7.51062 7.76715,-3.71853 16.00272,-6.65625 22.97934,-11.70432 3.4883,-2.52403 6.63708,-5.57959 8.92643,-9.22622 2.28936,-3.64662 3.68975,-7.91017 3.60741,-12.21508 -0.11553,-6.03962 -3.05035,-11.60903 -5.6821,-17.04633 -1.9054,-3.93665 -3.69692,-7.96518 -4.68435,-12.22579 -0.98743,-4.2606 -1.13687,-8.79886 0.21697,-12.95757 0.67692,-2.07935 1.72717,-4.04499 3.14549,-5.70941 1.41832,-1.66442 3.20874,-3.02252 5.22779,-3.86238 2.01905,-0.83985 4.26668,-1.15184 6.42671,-0.81094 2.16003,0.3409 4.22306,1.34505 5.76669,2.89397 1.66304,1.66874 2.67232,3.88891 3.31456,6.15561 1.21089,4.27365 1.2202,8.79517 0.91468,13.22654 -0.30552,4.43136 -0.91666,8.84808 -0.91468,13.28997 0.003,7.23614 1.7453,14.64614 6.03529,20.47347 2.14499,2.91366 4.90839,5.3916 8.1156,7.06619 3.2072,1.67459 6.86133,2.52911 10.47158,2.2914 4.29011,-0.28247 8.39527,-2.09166 11.81379,-4.69905 3.41853,-2.60739 6.18841,-5.98587 8.51143,-9.60366 4.64604,-7.23558 7.58873,-15.46863 12.3469,-22.63098 3.13104,-4.71308 7.16379,-9.01468 12.31123,-11.36423 5.80674,-2.65049 12.47118,-2.58978 18.81853,-1.91569 6.34736,0.67409 12.69651,1.91268 19.0622,1.44219 3.34048,-0.2469 6.66548,-0.9737 9.71175,-2.36656 3.04626,-1.39287 5.80867,-3.46919 7.80808,-6.1566 2.52408,-3.39261 3.74599,-7.66044 3.78191,-11.88886 0.0359,-4.22842 -1.06866,-8.41806 -2.83489,-12.2601 -4.24977,-9.24441 -12.06604,-16.28498 -18.01549,-24.53869 -2.97473,-4.12685 -5.5205,-8.64591 -6.76299,-13.57908 -1.24249,-4.93316 -1.09846,-10.32904 1.10303,-14.91525 2.49274,-5.19294 7.31322,-8.87936 10.4172,-13.73176 1.97635,-3.0896 3.2197,-6.60226 4.02482,-10.18044 3.18567,-14.15792 -0.70701,-29.72862 -10.18044,-40.72177 -3.70761,-4.1193 -5.73282,-9.7033 -5.55532,-15.24257 0.17751,-5.53927 2.54274,-10.94165 6.34038,-14.97811 3.79763,-4.03646 8.92765,-6.67726 14.30699,-8.01057 5.37934,-1.33332 10.98045,-1.40032 16.52256,-1.40032 h 26.627"
         style="opacity:1;vector-effect:none;fill:none;fill-opacity:1;stroke:#000000;stroke-width:4.00031233;stroke-linecap:butt;stroke-linejoin:miter;stroke-miterlimit:4;stroke-dasharray:none;stroke-dashoffset:0;stroke-opacity:1" />
      <path
         sodipodi:nodetypes="ccsssscscccssscsscsssscsscscssssssssssccssccssssssscszcc"
         inkscape:original-d="M 703.22926,148.66782 H 679.0803 c -35.74993,-0.94702 -34.40739,21.68368 -51.61249,32.10182 -17.2051,10.41813 -6.62818,28.72527 -9.94369,43.08932 -3.3155,14.36404 -17.36106,-4.10469 -26.04299,-6.15562 -8.68194,-2.05094 -17.67673,-3.15767 -26.5165,-4.73509 -8.83978,-1.57743 -0.31474,14.83568 -0.47352,22.25492 -0.15877,7.41925 9.47113,30.93499 14.20528,46.40388 4.73415,15.4689 -6.6282,17.36107 -9.94369,26.043 -3.31551,8.68194 -7.89088,-8.83977 -11.83773,-13.25826 -3.94685,-4.41847 -1.57743,-23.67638 -2.36754,-35.51317 -0.79013,-11.83678 -14.20434,-28.41148 -21.30791,-42.61581 -7.10358,-14.20433 -33.14469,2.20877 -49.71845,3.31456 -16.57375,1.1058 -35.3544,-1.5793 -53.03301,-2.36754 -17.67861,-0.78824 -17.9924,-0.63228 -26.99001,-0.94702 -8.99761,-0.31473 -2.52444,9.78492 -3.78807,14.67878 -1.26363,4.89387 -5.99685,32.19768 -8.99667,48.29792 -2.99983,16.10025 11.99649,5.99685 17.99334,8.99667 5.99684,2.99983 17.04726,-10.7338 25.56948,-16.0993 8.52223,-5.3655 34.09359,-1.26363 51.13898,-1.89404 17.04539,-0.63041 -3.15579,17.04539 -4.73509,25.56948 -1.5793,8.52411 -23.99019,-3.78901 -35.98669,-5.6821 -11.99649,-1.8931 -24.30586,1.89309 -36.46019,2.84106 -12.15433,0.94795 -13.25732,27.77825 -19.88738,41.66879 -6.63006,13.89053 13.89054,18.30807 20.8344,27.46352 6.94386,9.15544 20.51966,-1.89497 30.77808,-2.84106 10.25843,-0.94608 13.57486,13.88866 20.36089,20.8344 6.78603,6.94573 -5.04982,8.20655 -7.57614,12.31123 -2.52632,4.10469 -12.94165,22.7275 -19.41387,34.09265 -6.47223,11.36515 -0.63041,29.98797 -0.94702,44.98336 -0.31661,14.99539 -14.83568,18.30808 -22.25493,27.46352 -7.41924,9.15544 -11.67894,39.14248 -17.51983,58.71512 -5.84088,19.57264 -12.62597,2.52444 -18.94036,3.78807 -6.31439,1.26363 -7.57521,-19.25697 -11.36422,-28.88405 -3.78901,-9.62707 -2.52444,-15.15322 -3.78807,-22.72843 -1.26363,-7.57521 -18.62374,-14.52188 -27.93703,-21.78142 -9.31328,-7.25953 -3.15578,-25.25475 -4.73509,-37.88071 -1.5793,-12.62597 -9.46924,-34.72494 -14.20527,-52.086 -4.73602,-17.36106 -1.57743,-24.30773 -2.36754,-36.4602 -0.79013,-12.15245 22.09802,-7.57708 33.14563,-11.36421 11.0476,-3.78714 18.9413,-20.83533 28.41053,-31.25159 9.46925,-10.41627 -5.04982,-26.20177 -7.57614,-39.30125 -2.52632,-13.09948 4.10468,-21.46668 6.15563,-32.19862 2.05093,-10.73192 -15.15136,-18.94129 -22.72845,-28.41053 -7.57708,-9.46925 -16.09836,1.57742 -24.14896,2.36754 -8.05058,0.79012 -20.83345,-6.63006 -31.25159,-9.94369 -10.41813,-3.31362 -21.4648,7.89088 -32.19861,11.83773 -10.73381,3.94684 -40.72084,-4.73603 -61.08267,-7.10264 -20.36182,-2.36661 -20.20211,-5.99872 -30.30457,-8.99667 -10.10246,-2.99795 -1.26175,23.04317 -1.89403,34.56616 -0.63229,11.52299 28.72715,25.56855 43.08932,38.35423 14.36217,12.78568 -9.15357,6.62818 -13.73176,9.94369 -4.5782,3.3155 -37.80087,-69.52785 -47.11415,-78.36574 -9.31328,-8.8379 -3.67168,-3.87622 -13.73177,-32.90888 -10.06008,-29.03266 -19.6599,-30.42051 -50.191948,-30.20778 H 63.281825"
         inkscape:path-effect="#path-effect5168"
         inkscape:connector-curvature="0"
         id="path5166"
         d="M 703.22926,148.66782 H 679.0803 c -5.59633,0 -11.21401,0.0353 -16.75192,0.84179 -5.53792,0.80647 -10.99412,2.39009 -15.92872,5.02991 -4.93459,2.63982 -9.32247,6.33367 -12.62668,10.85042 -3.30422,4.51674 -5.50978,9.84018 -6.30517,15.3797 -1.1061,7.70346 0.48302,15.53626 0.19292,23.31332 -0.14506,3.88852 -0.77743,7.8085 -2.38719,11.35115 -1.60977,3.54264 -4.26352,6.69564 -7.74942,8.42485 -2.1007,1.04207 -4.45002,1.54504 -6.7946,1.58767 -2.34457,0.0426 -4.68546,-0.36704 -6.92074,-1.07583 -4.47056,-1.41759 -8.47381,-3.99475 -12.32765,-6.66746 -4.02459,-2.79112 -8.05178,-5.76849 -12.7384,-7.1909 -2.34331,-0.7112 -4.83466,-1.01275 -7.25747,-0.65651 -2.42282,0.35624 -4.77372,1.39615 -6.52063,3.11232 -1.40308,1.37839 -2.38435,3.15624 -2.93925,5.04322 -0.55491,1.88697 -0.69434,3.88141 -0.55004,5.84299 0.28859,3.92315 1.68235,7.66785 3.01577,11.36871 5.48536,15.22445 10.17777,30.73059 14.20528,46.40388 1.35703,5.28097 2.64253,10.82402 1.38523,16.12962 -0.62865,2.6528 -1.91767,5.18757 -3.90455,7.05435 -1.98688,1.86678 -4.7026,3.01562 -7.42437,2.85903 -1.58511,-0.0912 -3.13311,-0.61462 -4.49435,-1.43188 -1.36123,-0.81727 -2.53896,-1.92288 -3.5106,-3.17858 -1.94327,-2.51141 -3.04562,-5.57146 -3.83278,-8.6478 -2.94809,-11.52156 -1.83584,-23.63231 -2.36754,-35.51317 -0.3729,-8.33241 -1.5979,-16.7398 -4.92017,-24.39032 -3.32228,-7.65053 -8.91079,-14.52911 -16.38774,-18.22549 -7.61736,-3.7658 -16.55178,-3.97433 -24.94633,-2.65637 -8.39455,1.31795 -16.49206,4.06146 -24.77212,5.97093 -17.50717,4.03734 -36.3157,4.21521 -53.03301,-2.36754 -4.50893,-1.77547 -8.89195,-4.04244 -13.67066,-4.84659 -2.38935,-0.40208 -4.86674,-0.42356 -7.21361,0.17884 -2.34687,0.60241 -4.559,1.85572 -6.10574,3.72073 -1.63742,1.97435 -2.4506,4.5104 -2.8833,7.03864 -0.4327,2.52824 -0.52103,5.10401 -0.90477,7.64014 -1.26536,8.36281 -5.64803,15.87245 -8.66549,23.77388 -1.50873,3.95072 -2.69065,8.06888 -2.93684,12.29071 -0.24618,4.22182 0.48891,8.57221 2.60566,12.23333 1.77346,3.06736 4.48897,5.57278 7.66591,7.14151 3.17694,1.56872 6.80127,2.20162 10.32743,1.85516 5.10227,-0.50132 9.82402,-2.98354 13.93366,-6.04872 4.10965,-3.06517 7.72807,-6.73185 11.63582,-10.05058 7.36917,-6.2584 16.10331,-11.38631 25.7088,-12.48489 4.80274,-0.54929 9.75666,-0.0569 14.2564,1.70963 4.49973,1.76648 8.52395,4.83815 11.17378,8.88122 2.65487,4.05075 3.86831,9.08102 3.0763,13.85905 -0.792,4.77804 -3.65109,9.23075 -7.81139,11.71043 -2.70802,1.61408 -5.87335,2.37604 -9.02458,2.4678 -3.15122,0.0918 -6.29539,-0.46558 -9.32202,-1.34772 -6.05325,-1.76429 -11.65906,-4.80673 -17.64009,-6.80218 -11.91871,-3.97644 -25.59765,-3.47345 -36.46019,2.84106 -7.03548,4.0898 -12.6695,10.47118 -16.09514,17.85287 -3.42565,7.3817 -4.66381,15.72488 -3.79224,23.81592 0.65759,6.10461 2.53782,12.15878 6.06017,17.18786 3.52236,5.02908 8.77575,8.96537 14.77423,10.27566 5.06306,1.10596 10.33619,0.33285 15.41769,-0.68502 5.08151,-1.01787 10.17953,-2.28425 15.36039,-2.15604 5.54286,0.13716 11.15817,1.99295 15.20576,5.7823 2.02379,1.89467 3.6294,4.25016 4.55917,6.86187 0.92977,2.61172 1.17196,5.47845 0.59596,8.19023 -0.50639,2.38408 -1.62457,4.60382 -2.99106,6.62199 -1.36648,2.01816 -2.98245,3.85299 -4.58508,5.68924 -4.36287,4.99886 -8.67885,10.07619 -12.20822,15.69463 -3.52936,5.61843 -6.26763,11.82966 -7.20565,18.39802 -1.07016,7.49365 0.22789,15.09128 1.02376,22.61901 0.79588,7.52772 1.03637,15.41762 -1.97078,22.36435 -2.35251,5.43447 -6.51048,9.85868 -10.7075,14.03634 -4.19703,4.17765 -8.57487,8.30549 -11.54743,13.42718 -2.61456,4.50485 -4.0355,9.61376 -4.87432,14.75438 -0.83883,5.14061 -1.11979,10.3532 -1.60764,15.5389 -0.48786,5.18571 -1.192,10.38918 -2.84045,15.33005 -1.64845,4.94086 -4.29664,9.64021 -8.19742,13.09179 -2.54824,2.25479 -5.6241,3.94911 -8.94574,4.68689 -3.32164,0.73778 -6.88812,0.48944 -9.99462,-0.89882 -2.5109,-1.12209 -4.67316,-2.95838 -6.33671,-5.14844 -1.66354,-2.19006 -2.84039,-4.72654 -3.61903,-7.36424 -1.55727,-5.2754 -1.53504,-10.87238 -1.40848,-16.37137 0.0898,-3.89993 0.225,-7.81491 -0.21361,-11.69113 -0.4386,-3.87622 -1.47921,-7.74679 -3.57446,-11.0373 -3.20048,-5.02624 -8.52071,-8.24746 -13.71096,-11.17448 -5.19026,-2.92701 -10.60341,-5.87592 -14.22607,-10.60694 -3.95375,-5.16341 -5.30304,-11.88892 -5.46962,-18.39009 -0.16659,-6.50117 0.73003,-12.98731 0.73453,-19.49062 0.0126,-18.13364 -6.86132,-35.50602 -14.20527,-52.086 -2.60252,-5.87555 -5.30521,-11.80807 -6.30424,-18.15607 -0.49951,-3.174 -0.56092,-6.43524 0.0415,-9.59133 0.6024,-3.15609 1.88456,-6.20661 3.89523,-8.7128 1.87013,-2.33101 4.33114,-4.14787 7.00329,-5.486 2.67216,-1.33812 5.55646,-2.21214 8.47752,-2.84333 5.84212,-1.26239 11.86895,-1.57479 17.66482,-3.03488 7.30748,-1.84089 14.20074,-5.56591 19.39157,-11.02883 5.19082,-5.46292 8.60017,-12.69861 9.01896,-20.22276 0.37258,-6.69393 -1.55755,-13.2808 -3.5456,-19.68355 -1.98805,-6.40275 -4.07553,-12.91356 -4.03054,-19.6177 0.0368,-5.47953 1.50006,-10.83812 2.98322,-16.11324 1.48316,-5.27512 3.00783,-10.6082 3.17241,-16.08538 0.20072,-6.67982 -1.73307,-13.47912 -5.79012,-18.78955 -4.05704,-5.31043 -10.28261,-9.01959 -16.93833,-9.62098 -4.04079,-0.36511 -8.09094,0.37837 -12.07707,1.1347 -3.98613,0.75634 -8.02572,1.53246 -12.07189,1.23284 -5.4833,-0.40604 -10.60881,-2.75302 -15.60819,-5.0416 -4.99938,-2.28859 -10.15382,-4.5923 -15.6434,-4.90209 -5.77604,-0.32595 -11.45546,1.59442 -16.68096,4.07697 -5.2255,2.48255 -10.17143,5.55013 -15.51765,7.76076 -9.81653,4.05908 -20.76571,5.08265 -31.28672,3.61674 -10.521,-1.46591 -20.62438,-5.36002 -29.79595,-10.71938 -4.72335,-2.76007 -9.24881,-5.92493 -14.31334,-7.99341 -2.53226,-1.03423 -5.19516,-1.78685 -7.91998,-2.02635 -2.72482,-0.23949 -5.51654,0.0456 -8.07125,1.02309 -3.25149,1.24407 -6.04409,3.60273 -7.92242,6.53391 -1.87833,2.93117 -2.85089,6.41407 -2.89118,9.89521 -0.0403,3.48113 0.83767,6.95366 2.41301,10.05821 1.57534,3.10454 3.83768,5.84344 6.50656,8.07883 4.07045,3.40931 9.00342,5.616 13.97651,7.47622 4.97308,1.86021 10.07314,3.42477 14.84337,5.75648 4.77023,2.33171 9.26859,5.52033 12.19362,9.9516 1.46251,2.21563 2.50784,4.7228 2.91395,7.34636 0.40612,2.62355 0.15959,5.36338 -0.83813,7.82357 -1.10911,2.73487 -3.12209,5.06161 -5.55414,6.73336 -2.43205,1.67175 -5.2697,2.70673 -8.17762,3.21033 -4.20361,0.72799 -8.57271,0.35993 -12.64802,-0.90188 -4.0753,-1.26181 -7.85823,-3.40458 -11.14641,-6.12271 -6.57634,-5.43625 -11.07923,-13.05887 -13.94636,-21.09509 -5.73426,-16.07242 -5.26998,-33.68204 -9.37336,-50.24606 -2.86669,-11.57187 -7.93232,-22.49291 -13.73177,-32.90888 -5.07789,-9.12004 -11.21131,-18.04834 -20.0674,-23.57371 -4.42805,-2.76268 -9.39857,-4.62266 -14.526858,-5.59258 -5.128283,-0.96991 -10.378492,-1.04149 -15.59769,-1.04149 H 63.281825"
         style="opacity:1;vector-effect:none;fill:none;fill-opacity:1;stroke:#000000;stroke-width:4.00031233;stroke-linecap:butt;stroke-linejoin:miter;stroke-miterlimit:4;stroke-dasharray:none;stroke-dashoffset:0;stroke-opacity:1" />
      <path
         inkscape:original-d="m 293.32506,352.81263 c 0.89192,-4.24014 3.79558,-9.15272 5.69196,-13.72768 1.89639,-4.57496 29.91165,-10.2688 44.86607,-15.40179 14.95442,-5.13299 0.44737,-20.31343 0.66965,-30.46875 0.22227,-10.15531 1.117,-23.88487 1.6741,-35.82589 0.5571,-11.94103 -9.15084,-12.05451 -13.72768,-18.08036 -4.57683,-6.02585 -9.37406,17.40978 -14.0625,26.11608 -4.68844,8.70629 5.35809,24.55263 8.03572,36.83035 2.67764,12.27773 -16.51692,7.81156 -24.77679,11.71875 -8.25986,3.90719 -21.42763,-18.52773 -32.14285,-27.79018 -10.71522,-9.26245 -1.11514,11.38299 -1.67411,17.0759 -0.55898,5.6929 -0.6687,11.82942 -1.00447,17.74553 -0.33576,5.91611 -11.82941,12.05263 -17.74553,18.08036 -5.91612,6.02773 14.50986,6.47228 21.76339,9.70982 7.25352,3.23755 7.59023,7.81156 11.38393,11.71875 3.7937,3.90718 -0.22228,5.80263 -0.33482,8.70536 -0.11254,2.90272 5.80451,-2.4563 8.70536,-3.68304 2.90085,-1.22674 1.78665,-8.48308 2.67857,-12.72321 z"
         inkscape:path-effect="#path-effect5172"
         inkscape:connector-curvature="0"
         id="path5170"
         d="m 293.32506,352.81263 c 0.78198,-4.96931 2.24373,-10.065 5.69196,-13.72768 2.79399,-2.96775 6.67139,-4.7303 10.63779,-5.66924 3.9664,-0.93894 8.06644,-1.11938 12.13532,-1.36046 4.06889,-0.24107 8.1741,-0.55379 12.07315,-1.7418 3.89905,-1.188 7.62297,-3.33346 10.01981,-6.63029 1.53533,-2.11184 2.47254,-4.62199 2.92577,-7.19332 0.45323,-2.57132 0.4361,-5.20788 0.1824,-7.80648 -0.50739,-5.19722 -1.94939,-10.26999 -2.43852,-15.46895 -1.12204,-11.92611 2.80731,-23.90084 1.6741,-35.82589 -0.38898,-4.09332 -1.41382,-8.21482 -3.69046,-11.63878 -1.13832,-1.71198 -2.58385,-3.23059 -4.29571,-4.3691 -1.71185,-1.13851 -3.69378,-1.88962 -5.74151,-2.07248 -2.89044,-0.25811 -5.83529,0.63768 -8.21272,2.30174 -2.37743,1.66406 -4.19784,4.06427 -5.35046,6.72748 -2.30526,5.32644 -1.93845,11.46423 -0.49932,17.08686 1.5823,6.182 4.37729,11.97969 6.40099,18.03157 2.02371,6.05189 3.2677,12.62998 1.63473,18.79878 -1.35807,5.13034 -4.80914,9.75801 -9.54629,12.15053 -2.36858,1.19627 -5.02647,1.82976 -7.6794,1.77352 -2.65292,-0.0562 -5.29524,-0.80806 -7.5511,-2.2053 -3.42487,-2.1213 -5.80312,-5.58802 -7.60801,-9.18968 -1.80488,-3.60167 -3.13841,-7.43085 -5.05726,-10.97311 -1.91885,-3.54226 -4.54055,-6.87502 -8.15246,-8.65933 -1.80595,-0.89216 -3.8351,-1.36846 -5.84478,-1.23207 -2.00967,0.13638 -3.9932,0.9054 -5.48034,2.26401 -1.11193,1.01583 -1.92649,2.33526 -2.43655,3.75234 -0.51006,1.41708 -0.723,2.93057 -0.73075,4.43663 -0.0155,3.01212 0.77273,5.9622 1.49319,8.88693 0.73181,2.97079 1.40268,5.98619 1.4208,9.04574 0.0181,3.05954 -0.6621,6.19932 -2.42527,8.69979 -1.27452,1.80749 -3.05297,3.20308 -4.92642,4.37848 -1.87345,1.17541 -3.86287,2.15552 -5.7532,3.30359 -1.89032,1.14808 -3.7041,2.48728 -5.05615,4.23753 -1.35204,1.75025 -2.21141,3.95832 -2.00976,6.16076 0.19746,2.15671 1.40465,4.14631 3.05013,5.55442 1.64547,1.40812 3.70004,2.27398 5.80693,2.7754 4.21376,1.00283 8.64312,0.61412 12.90633,1.38 2.95631,0.5311 5.87489,1.66011 8.08966,3.68906 1.10739,1.01447 2.02457,2.24621 2.61586,3.62672 0.5913,1.38051 0.85049,2.91104 0.67841,4.40297 -0.17279,1.49814 -0.76664,2.91457 -1.0617,4.39349 -0.14753,0.73946 -0.21979,1.50078 -0.12391,2.24869 0.0959,0.74791 0.36759,1.48432 0.85079,2.06318 0.60697,0.72712 1.52548,1.16589 2.4681,1.25848 0.94263,0.0926 1.90304,-0.14634 2.73387,-0.60113 0.83083,-0.45479 1.53655,-1.11807 2.10959,-1.87223 0.57304,-0.75415 1.01786,-1.5988 1.3938,-2.46816 1.72576,-3.99078 2.00269,-8.42812 2.67857,-12.72321 z"
         style="opacity:1;vector-effect:none;fill:none;fill-opacity:1;stroke:#000000;stroke-width:4.00031233;stroke-linecap:butt;stroke-linejoin:miter;stroke-miterlimit:4;stroke-dasharray:none;stroke-dashoffset:0;stroke-opacity:1" />
      <path
         inkscape:original-d="m 299.68666,455.26799 c -0.11254,-15.62407 0.8938,-21.65272 1.33929,-32.47768 0.44549,-10.82496 -10.49013,-4.46523 -15.73661,-6.69643 -5.24647,-2.23121 -11.38299,-17.18844 -17.07589,-25.78125 -5.6929,-8.59282 -6.69549,10.71334 -10.04464,16.07143 -3.34916,5.35807 11.16165,20.31155 16.74107,30.46875 5.57941,10.15718 -0.22228,20.9812 -0.33482,31.47321 -0.11255,10.49201 7.81343,24.99906 11.71875,37.50001 3.90531,12.50093 -0.44549,17.8562 -0.66965,26.78571 -0.22415,8.9295 16.29559,4.68656 24.44197,7.03125 8.14638,2.34469 -6.69549,-25.00094 -10.04464,-37.5 -3.34915,-12.49907 -0.22228,-31.25094 -0.33483,-46.875 z"
         inkscape:path-effect="#path-effect5176"
         inkscape:connector-curvature="0"
         id="path5174"
         d="m 299.68666,455.26799 c 2.26194,-5.42951 5.17961,-10.67411 6.23676,-16.46016 0.52858,-2.89303 0.57077,-5.9076 -0.1884,-8.74884 -0.75918,-2.84124 -2.35842,-5.50135 -4.70907,-7.26868 -2.29356,-1.72441 -5.13555,-2.51335 -7.89832,-3.28868 -2.76276,-0.77533 -5.59959,-1.61269 -7.83829,-3.40775 -2.11063,-1.69237 -3.5233,-4.11682 -4.50903,-6.63619 -0.98573,-2.51937 -1.58717,-5.16934 -2.37261,-7.75816 -0.78543,-2.58882 -1.78,-5.16326 -3.43827,-7.30079 -0.82914,-1.06877 -1.82115,-2.01871 -2.96575,-2.73955 -1.1446,-0.72084 -2.44461,-1.20862 -3.79023,-1.34656 -1.83981,-0.1886 -3.72565,0.28981 -5.30692,1.249 -1.58127,0.9592 -2.86062,2.38418 -3.73507,4.01384 -1.74891,3.25933 -1.848,7.20758 -1.00265,10.80859 1.33285,5.67764 4.79836,10.58496 8.23049,15.3001 3.43213,4.71514 6.97659,9.54203 8.51058,15.16865 1.38666,5.08623 1.02801,10.47212 0.45227,15.71245 -0.57574,5.24033 -1.3588,10.51999 -0.78709,15.76076 0.7138,6.54334 3.49442,12.65378 6.14806,18.67731 2.65365,6.02354 5.25445,12.24815 5.57069,18.8227 0.21607,4.49198 -0.64687,8.95481 -1.21495,13.41595 -0.56808,4.46115 -0.82871,9.08763 0.5453,13.36976 0.78536,2.44758 2.10222,4.73037 3.87458,6.59214 1.77236,1.86177 4.0018,3.29579 6.4509,4.07639 2.4491,0.78059 5.11432,0.89921 7.60865,0.27811 2.49432,-0.62111 4.80708,-1.988 6.50784,-3.91539 2.3081,-2.61567 3.40882,-6.16203 3.43135,-9.65038 0.0225,-3.48834 -0.96989,-6.92559 -2.44039,-10.08893 -2.94101,-6.32666 -7.73079,-11.61623 -11.0356,-17.76069 -3.82591,-7.1133 -5.56437,-15.26632 -5.45831,-23.34254 0.10605,-8.07622 2.01739,-16.07667 5.12348,-23.53246 z"
         style="opacity:1;vector-effect:none;fill:none;fill-opacity:1;stroke:#000000;stroke-width:4.00031233;stroke-linecap:butt;stroke-linejoin:miter;stroke-miterlimit:4;stroke-dasharray:none;stroke-dashoffset:0;stroke-opacity:1" />
      <path
         inkscape:original-d="m 232.72238,442.87959 c 0.6687,4.91165 10.93844,8.48121 16.40625,12.72322 5.46781,4.24201 2.23308,-13.17058 3.34821,-19.75447 1.11514,-6.58388 -9.82049,-20.98308 -14.73214,-31.47321 -4.91165,-10.49014 0.67058,-18.75094 1.00446,-28.125 0.33389,-9.37407 -9.82049,-27.00987 -14.73214,-40.51339 -4.91165,-13.50354 13.84022,-27.67951 20.75893,-41.51786 6.91871,-13.83835 -3.12407,-20.09023 -4.6875,-30.13394 -1.56344,-10.0437 26.56344,-2.23307 39.84375,-3.3482 13.28031,-1.11514 16.29558,-12.27773 24.44196,-18.41518 8.14639,-6.13746 -10.71335,-6.02773 -16.07142,-9.04018 -5.35809,-3.01246 -25.66871,9.82049 -38.50447,14.73214 -12.83576,4.91165 -18.07942,-1.56344 -27.12053,-2.34375 -9.04112,-0.78032 -0.44549,7.81156 -0.66965,11.71875 -0.22415,3.90718 6.69737,29.90978 10.04465,44.86607 3.34728,14.9563 -30.57942,10.26692 -45.87054,15.40179 -15.29112,5.13486 -27.90085,-36.16166 -41.85268,-54.24107 -13.95183,-18.07943 -10.49013,-21.87595 -15.73661,-32.81251 -5.24647,-10.93656 -6.69549,-8.03665 -10.04464,-12.05357 -3.34915,-4.01692 -5.57942,9.37407 -8.37054,14.0625 -2.79111,4.68844 16.74201,22.76692 25.11161,34.15179 8.3696,11.38486 -12.27585,18.07942 -18.41518,27.12054 -6.13933,9.04112 26.78665,8.70441 40.17857,13.05803 13.39192,4.35362 2.23309,16.0705 3.34822,24.10715 1.11513,8.03664 -26.11514,-6.69737 -39.17411,-10.04465 -13.05897,-3.34728 2.4563,15.62407 3.68304,23.4375 1.22674,7.81344 26.34022,-1.34022 39.50893,-2.00893 13.1687,-0.6687 19.42058,-5.8045 29.12946,-8.70535 9.70888,-2.90085 10.04558,14.7312 15.06697,22.09821 5.02138,7.36701 6.25093,31.47228 9.375,47.20982 3.12406,15.73754 8.48308,16.74013 12.72321,25.11161 4.24014,8.37148 1.34023,9.82049 2.00893,14.73214 z"
         inkscape:path-effect="#path-effect5180"
         inkscape:connector-curvature="0"
         id="path5178"
         d="m 232.72238,442.87959 c 0.79136,3.90792 2.39081,7.79528 5.33993,10.47872 1.47455,1.34172 3.27073,2.351 5.21571,2.78868 1.94499,0.43769 4.03788,0.2856 5.85061,-0.54418 1.68912,-0.7732 3.09345,-2.11268 4.05273,-3.70351 0.95928,-1.59083 1.48465,-3.4241 1.63879,-5.27537 0.30829,-3.70254 -0.83494,-7.3802 -2.34331,-10.77559 -2.36604,-5.32605 -5.63739,-10.19041 -8.53263,-15.24833 -2.89524,-5.05793 -5.45857,-10.44422 -6.19951,-16.22488 -0.59821,-4.66711 0.0154,-9.39411 0.59709,-14.06331 0.58171,-4.66919 1.13118,-9.4124 0.40737,-14.06169 -1.12,-7.19418 -5.16555,-13.53132 -8.71889,-19.8862 -1.77667,-3.17744 -3.45719,-6.42901 -4.6147,-9.8805 -1.15752,-3.4515 -1.78127,-7.12644 -1.39855,-10.74669 0.41403,-3.91648 1.98964,-7.63603 4.02929,-11.00502 2.03964,-3.369 4.54258,-6.42913 6.9916,-9.51338 2.44902,-3.08424 4.86552,-6.22447 6.70313,-9.70779 1.8376,-3.48331 3.08445,-7.35367 3.03491,-11.29167 -0.0653,-5.191 -2.33553,-10.05494 -4.0337,-14.96075 -0.84908,-2.45291 -1.56608,-4.97165 -1.79242,-7.55747 -0.22634,-2.58582 0.0578,-5.25574 1.13862,-7.61572 1.51358,-3.30488 4.52184,-5.79092 7.90488,-7.12065 3.38304,-1.32972 7.1165,-1.57949 10.73359,-1.21922 7.23418,0.72052 14.03731,3.77811 21.20528,4.99167 3.025,0.51214 6.12164,0.692 9.16605,0.31191 3.04441,-0.38009 6.03925,-1.33262 8.63367,-2.97026 2.59442,-1.63765 4.77476,-3.97916 6.03125,-6.77811 1.25648,-2.79896 1.54918,-6.05764 0.61099,-8.97872 -1.01704,-3.16657 -3.43733,-5.79747 -6.38372,-7.3403 -2.94639,-1.54282 -6.37934,-2.04082 -9.6877,-1.69988 -3.47636,0.35825 -6.81024,1.60549 -9.92166,3.19687 -3.11141,1.59139 -6.03023,3.52857 -8.99886,5.37264 -2.96863,1.84408 -6.01282,3.60788 -9.29341,4.81251 -3.28058,1.20464 -6.8295,1.83445 -10.29054,1.35012 -4.82029,-0.67454 -9.07734,-3.41787 -13.70887,-4.91425 -2.31576,-0.7482 -4.7765,-1.18494 -7.18851,-0.86129 -2.41201,0.32366 -4.77675,1.47463 -6.22315,3.43179 -1.20614,1.63206 -1.70063,3.70954 -1.69905,5.73892 0.002,2.02938 0.46758,4.02976 1.0294,5.97983 2.16157,7.50275 5.75642,14.51141 8.29704,21.89442 2.54063,7.38301 4.00151,15.49612 1.74761,22.97165 -1.32179,4.38399 -3.89585,8.36306 -7.25422,11.47559 -3.35837,3.11254 -7.48553,5.36428 -11.88107,6.64715 -8.79108,2.56575 -18.45632,1.19384 -26.73525,-2.72095 -10.533,-4.98066 -18.85328,-13.78006 -25.31442,-23.47567 -6.46114,-9.69561 -11.27078,-20.37286 -16.53826,-30.7654 -5.48772,-10.82707 -11.51647,-21.43135 -15.73661,-32.81251 -0.96131,-2.59251 -1.84376,-5.25487 -3.3929,-7.54515 -0.77457,-1.14514 -1.71529,-2.18846 -2.83958,-2.993 -1.12429,-0.80454 -2.43792,-1.36451 -3.81216,-1.51542 -1.6169,-0.17756 -3.28015,0.22309 -4.67769,1.05542 -1.39754,0.83233 -2.52993,2.08421 -3.28499,3.52496 -0.75507,1.44075 -1.13858,3.06487 -1.18316,4.69088 -0.0446,1.62601 0.24468,3.2536 0.7753,4.79124 1.20224,3.48387 3.60302,6.44223 6.32201,8.93017 2.719,2.48793 5.77888,4.56884 8.68574,6.83444 2.90686,2.26559 5.70354,4.76393 7.69016,7.86814 1.98662,3.1042 3.10468,6.89892 2.4137,10.51904 -0.52873,2.77007 -2.07056,5.26086 -3.94531,7.36756 -1.87475,2.1067 -4.08735,3.87932 -6.22994,5.71294 -2.1426,1.83361 -4.24619,3.76177 -5.82882,6.0959 -1.58263,2.33413 -2.62,5.13181 -2.41111,7.94414 0.14249,1.91835 0.86349,3.77636 1.96831,5.35108 1.10482,1.57472 2.58463,2.87075 4.23964,3.85123 3.31001,1.96094 7.23551,2.64225 11.08139,2.74606 3.84587,0.10382 7.68465,-0.33243 11.53054,-0.43585 3.84588,-0.10342 7.77627,0.14274 11.35869,1.54551 2.41742,0.94659 4.63969,2.41997 6.37513,4.35083 1.73543,1.93086 2.97308,4.32347 3.44341,6.87665 0.47033,2.55319 0.15715,5.26072 -0.97757,7.59575 -1.13473,2.33503 -3.10092,4.2744 -5.49275,5.28392 -1.63675,0.69082 -3.4415,0.94497 -5.21545,0.84869 -1.77395,-0.0963 -3.51907,-0.53598 -5.17343,-1.18349 -3.30872,-1.29502 -6.22926,-3.39353 -9.14874,-5.41872 -2.91947,-2.02519 -5.92957,-4.02402 -9.32312,-5.07688 -1.69678,-0.52643 -3.47977,-0.80761 -5.25373,-0.7115 -1.77396,0.0961 -3.53939,0.578 -5.05964,1.49725 -2.02518,1.22457 -3.55574,3.20562 -4.35295,5.43393 -0.79722,2.2283 -0.8775,4.68801 -0.35581,6.99642 0.52169,2.3084 1.6312,4.46617 3.1019,6.32034 1.4707,1.85417 3.29673,3.41081 5.2899,4.68681 5.82632,3.72991 13.01446,5.00827 19.90237,4.36414 6.88792,-0.64414 13.50599,-3.11097 19.60656,-6.37307 4.61116,-2.46569 8.98989,-5.40085 13.8283,-7.38383 2.4192,-0.99149 4.95173,-1.7399 7.55015,-2.02938 2.59842,-0.28947 5.26791,-0.11057 7.75101,0.70786 4.44193,1.46406 8.04179,4.90793 10.43787,8.92452 2.39608,4.01659 3.69528,8.59088 4.6291,13.17369 3.2161,15.78338 2.49376,32.64592 9.375,47.20982 4.02278,8.51406 10.53782,15.95213 12.72321,25.11161 1.15104,4.82428 1.02456,9.87111 2.00893,14.73214 z"
         style="opacity:1;vector-effect:none;fill:none;fill-opacity:1;stroke:#000000;stroke-width:4.00031233;stroke-linecap:butt;stroke-linejoin:miter;stroke-miterlimit:4;stroke-dasharray:none;stroke-dashoffset:0;stroke-opacity:1" />
      <path
         inkscape:original-d="m 217.32059,452.92424 c -10.3804,-11.71781 -3.34728,-13.3938 -5.02232,-20.08929 -1.67505,-6.69549 -14.50799,-21.65272 -21.7634,-32.47768 -7.25539,-10.82495 -0.89191,-14.50986 -1.33928,-21.76339 -0.44737,-7.25353 -4.24013,-2.23308 -6.3616,-3.34822 -2.12148,-1.11513 -2.67764,10.04371 -4.01787,15.06697 -1.34022,5.02325 10.49202,31.02585 15.73662,46.54018 5.2446,15.51433 23.88486,39.50799 35.82589,59.26339 11.94103,19.7554 6.02772,23.65978 9.04018,35.49108 3.01246,11.83128 4.91165,25.22227 7.36607,37.83481 2.45442,12.61255 4.91165,5.133 7.36607,7.7009 2.45442,2.5679 0.44737,-5.35808 0.66964,-8.03571 0.22228,-2.67764 -2.2312,-19.86702 -3.34821,-29.79912 -1.11701,-9.9321 6.69736,-26.34022 10.04464,-39.50892 3.34728,-13.16871 -8.70442,-7.81344 -13.05803,-11.71875 -4.35362,-3.90532 -20.758,-23.43844 -31.1384,-35.15625 z"
         inkscape:path-effect="#path-effect5184"
         inkscape:connector-curvature="0"
         id="path5182"
         d="m 217.32059,452.92424 c -1.91968,-6.64627 -2.1151,-13.81186 -5.02232,-20.08929 -2.77796,-5.99834 -7.76523,-10.62085 -12.26205,-15.46602 -2.24841,-2.42259 -4.40923,-4.94988 -6.13249,-7.77029 -1.72326,-2.8204 -3.00308,-5.95648 -3.36886,-9.24137 -0.40939,-3.67658 0.33088,-7.37007 0.62984,-11.05727 0.14948,-1.8436 0.18793,-3.70638 -0.0821,-5.53622 -0.27003,-1.82983 -0.85875,-3.63241 -1.88702,-5.1699 -0.70235,-1.05017 -1.61464,-1.97415 -2.71499,-2.59494 -1.10036,-0.62079 -2.39505,-0.92577 -3.64661,-0.75328 -1.47343,0.20307 -2.81678,1.06284 -3.74136,2.2279 -0.92459,1.16506 -1.44922,2.61582 -1.6407,4.0908 -0.38295,2.94995 0.5121,5.89821 1.36419,8.74827 4.69769,15.71276 8.44837,31.84867 15.73662,46.54018 10.27666,20.71549 27.22358,37.7985 35.82589,59.26339 4.54831,11.34917 6.58891,23.51268 9.04018,35.49108 2.57655,12.59062 5.64004,25.09969 7.36607,37.83481 0.28632,2.11251 0.57199,4.32711 1.80484,6.0663 0.61642,0.86959 1.47185,1.59124 2.48181,1.93206 0.50497,0.17041 1.04419,0.24397 1.57519,0.19829 0.53099,-0.0457 1.05316,-0.21188 1.50423,-0.49575 0.6184,-0.38918 1.08893,-0.99163 1.37446,-1.66421 0.28553,-0.67257 0.39244,-1.41273 0.37207,-2.14312 -0.0407,-1.46077 -0.57329,-2.85655 -1.07689,-4.22838 -3.49961,-9.53311 -5.9199,-19.97497 -3.34821,-29.79912 1.77899,-6.79596 5.80514,-12.75156 8.66498,-19.16804 1.42992,-3.20824 2.57914,-6.57627 2.96477,-10.06751 0.38562,-3.49124 -0.0262,-7.12578 -1.58511,-10.27337 -1.31555,-2.65627 -3.39333,-4.87303 -5.70012,-6.73453 -2.30679,-1.86151 -4.85405,-3.39767 -7.35791,-4.98422 -6.76299,-4.28531 -13.3067,-9.01373 -18.84807,-14.79258 -5.54136,-5.77885 -10.06862,-12.67173 -12.29033,-20.36367 z"
         style="opacity:1;vector-effect:none;fill:none;fill-opacity:1;stroke:#000000;stroke-width:4.00031233;stroke-linecap:butt;stroke-linejoin:miter;stroke-miterlimit:4;stroke-dasharray:none;stroke-dashoffset:0;stroke-opacity:1" />
      <path
         inkscape:original-d="m 322.45452,602.25459 c -3.46076,-11.15977 2.67951,-14.95629 4.01786,-22.43303 1.33834,-7.47674 17.63487,15.17763 26.45089,22.76785 8.81603,7.59023 0.22415,-18.52772 0.33482,-27.79017 0.11067,-9.26246 -22.76691,-6.25094 -34.15178,-9.375 -11.38487,-3.12407 -22.09728,2.90084 -33.14732,4.35267 -11.05005,1.45183 7.81343,26.56157 11.71875,39.84375 3.9053,13.28219 23.43844,17.40978 35.15625,26.11608 11.71781,8.70629 -6.9187,-22.32237 -10.37947,-33.48215 z"
         inkscape:path-effect="#path-effect5188"
         inkscape:connector-curvature="0"
         id="path5186"
         d="m 322.45452,602.25459 c -1.25186,-1.89849 -2.35775,-3.90641 -3.11236,-6.05164 -0.75461,-2.14522 -1.15144,-4.43572 -0.97111,-6.70264 0.18034,-2.26691 0.95746,-4.50944 2.36952,-6.292 1.41205,-1.78257 3.47916,-3.0753 5.73181,-3.38675 1.52263,-0.21052 3.09165,0.0244 4.52533,0.57866 1.43369,0.55432 2.73546,1.42088 3.8717,2.4561 2.27247,2.07045 3.86336,4.76919 5.33978,7.46567 1.47643,2.69649 2.89307,5.46369 4.90948,7.78425 1.0082,1.16027 2.16462,2.20172 3.48009,2.99686 1.31548,0.79513 2.79442,1.33957 4.32451,1.48631 1.59794,0.15325 3.23095,-0.13291 4.69794,-0.78473 1.46698,-0.65182 2.76703,-1.66476 3.78851,-2.90309 2.04297,-2.47667 2.91749,-5.81253 2.64891,-9.01182 -0.26857,-3.19929 -1.62316,-6.25457 -3.57646,-8.80255 -1.9533,-2.54799 -4.48642,-4.61083 -7.22408,-6.28798 -10.12991,-6.20581 -22.50032,-7.05751 -34.15178,-9.375 -5.79992,-1.15361 -11.5953,-2.71347 -17.50782,-2.60403 -2.95627,0.0547 -5.9265,0.53759 -8.66121,1.66181 -2.7347,1.12423 -5.22878,2.91126 -6.97829,5.29489 -2.18807,2.98114 -3.11523,6.77481 -2.98753,10.47056 0.12769,3.69574 1.25628,7.30411 2.85713,10.6376 3.20168,6.66698 8.23577,12.28247 11.84915,18.73559 4.2461,7.5831 6.5629,16.36085 12.29488,22.89362 2.86599,3.26639 6.62745,5.88944 10.89053,6.73163 2.13154,0.42109 4.36281,0.38659 6.4566,-0.19379 2.09378,-0.58039 4.04412,-1.71553 5.51424,-3.31538 2.15696,-2.3473 3.18459,-5.59903 3.17379,-8.78685 -0.0108,-3.18781 -0.99632,-6.31577 -2.44928,-9.15323 -2.90594,-5.67491 -7.59424,-10.2194 -11.10398,-15.54207 z"
         style="opacity:1;vector-effect:none;fill:none;fill-opacity:1;stroke:#000000;stroke-width:4.00031233;stroke-linecap:butt;stroke-linejoin:miter;stroke-miterlimit:4;stroke-dasharray:none;stroke-dashoffset:0;stroke-opacity:1" />
      <path
         inkscape:original-d="m 306.38309,705.04478 c 1.11514,4.68843 1.34022,-2.4563 2.00893,-3.68304 0.6687,-1.22674 10.2688,-20.98308 15.40179,-31.47321 5.13299,-10.49014 -12.72228,-3.12595 -19.08482,-4.6875 -6.36255,-1.56157 -1.11514,17.18656 -1.67411,25.78125 -0.55897,8.59468 2.23308,9.37406 3.34821,14.0625 z"
         inkscape:path-effect="#path-effect5192"
         inkscape:connector-curvature="0"
         id="path5190"
         d="m 306.38309,705.04478 c 0.56951,-0.42521 0.97459,-1.03789 1.27279,-1.68304 0.2982,-0.64515 0.4994,-1.32986 0.73614,-2 2.00448,-5.67407 6.43904,-10.07612 10.0953,-14.85573 1.82813,-2.38981 3.49702,-4.93855 4.55113,-7.75672 1.05412,-2.81817 1.46574,-5.93696 0.75536,-8.86076 -0.484,-1.99205 -1.48731,-3.85925 -2.90224,-5.34265 -1.41492,-1.48341 -3.24009,-2.57674 -5.22304,-3.09675 -1.98295,-0.52001 -4.11803,-0.46139 -6.06058,0.19362 -1.94254,0.65501 -3.68333,1.9076 -4.89896,3.55828 -1.30305,1.76939 -1.9811,3.94192 -2.22059,6.12626 -0.23949,2.18433 -0.0612,4.39325 0.21663,6.57304 0.55572,4.35958 1.50186,8.84625 0.32985,13.08195 -0.43542,1.57362 -1.151,3.05247 -1.76681,4.56463 -0.6158,1.51217 -1.13971,3.09616 -1.15926,4.72879 -0.01,0.81632 0.10924,1.63839 0.39662,2.40251 0.28738,0.76412 0.74664,1.4691 1.36228,2.00524 0.61564,0.53614 1.39042,0.89787 2.20279,0.97857 0.81238,0.0807 1.65843,-0.12883 2.31259,-0.61724 z"
         style="opacity:1;vector-effect:none;fill:none;fill-opacity:1;stroke:#000000;stroke-width:4.00031233;stroke-linecap:butt;stroke-linejoin:miter;stroke-miterlimit:4;stroke-dasharray:none;stroke-dashoffset:0;stroke-opacity:1" />
      <path
         inkscape:original-d="m 383.39202,733.16978 c 5.02139,5.8045 1.78665,-10.04559 2.67857,-15.06697 0.89192,-5.02138 -11.82942,-1.56344 -17.74553,-2.34375 -5.91611,-0.78031 10.04558,11.60621 15.06696,17.41072 z"
         inkscape:path-effect="#path-effect5200"
         inkscape:connector-curvature="0"
         id="path5198"
         d="m 383.39202,733.16978 c 2.18848,-1.72932 3.71306,-4.27848 4.20127,-7.02469 0.48822,-2.7462 -0.0644,-5.66463 -1.5227,-8.04228 -1.78607,-2.91195 -4.92774,-4.9522 -8.3144,-5.3995 -3.38665,-0.44729 -6.9503,0.70735 -9.43113,3.05575 -2.12875,2.01511 -3.44177,4.86851 -3.58747,7.79613 -0.14571,2.92763 0.8775,5.8973 2.79564,8.11382 1.91814,2.21652 4.71013,3.65552 7.62834,3.93168 2.91821,0.27616 5.93057,-0.61356 8.23045,-2.43091 z"
         style="opacity:1;vector-effect:none;fill:none;fill-opacity:1;stroke:#000000;stroke-width:4.00031233;stroke-linecap:butt;stroke-linejoin:miter;stroke-miterlimit:4;stroke-dasharray:none;stroke-dashoffset:0;stroke-opacity:1" />
      <path
         inkscape:original-d="m 367.65541,855.04478 c 0.11067,1.34022 1.56344,1.33835 2.34375,2.00892 0.78032,0.67059 18.0813,-6.02772 27.12055,-9.04017 9.03923,-3.01246 2.45628,-16.29559 3.68303,-24.44197 1.22674,-8.14638 -5.35621,1.11513 -8.03572,1.67411 -2.6795,0.55897 -7.14192,-7.14379 -10.71428,-10.71429 -3.57237,-3.57049 -5.35621,10.93657 -8.03572,16.40625 -2.6795,5.46969 -4.46335,13.39193 -6.69643,20.08929 -2.23308,6.69737 0.22416,2.67764 0.33482,4.01786 z"
         inkscape:path-effect="#path-effect5204"
         inkscape:connector-curvature="0"
         id="path5202"
         d="m 367.65541,855.04478 c 0.51477,0.90825 1.41407,1.53394 2.34375,2.00892 2.25083,1.14995 4.83214,1.584 7.35518,1.43266 2.52304,-0.15134 4.99134,-0.87152 7.29207,-1.91808 4.60146,-2.09311 8.49577,-5.43483 12.4733,-8.55475 2.19421,-1.72111 4.44007,-3.39323 6.4101,-5.367 1.97004,-1.97376 3.67221,-4.28393 4.54699,-6.93186 0.87478,-2.64793 0.85238,-5.66582 -0.46122,-8.12575 -0.65681,-1.22996 -1.62688,-2.29929 -2.81816,-3.0239 -1.19127,-0.72462 -2.60409,-1.09573 -3.99468,-0.99346 -1.37774,0.10132 -2.67631,0.64823 -3.98041,1.10402 -1.30411,0.4558 -2.69841,0.82942 -4.05531,0.57009 -1.28161,-0.24494 -2.40587,-1.04123 -3.27397,-2.01536 -0.86811,-0.97413 -1.51004,-2.12472 -2.13775,-3.26862 -0.62771,-1.1439 -1.25478,-2.30076 -2.09921,-3.29548 -0.84443,-0.99472 -1.93499,-1.82855 -3.20335,-2.13483 -0.85505,-0.20647 -1.7638,-0.16404 -2.60731,0.0854 -0.84351,0.24944 -1.62186,0.70224 -2.28143,1.28423 -1.31914,1.16396 -2.13963,2.81353 -2.5645,4.5207 -0.84973,3.41433 -0.21646,7.01652 -0.58248,10.51591 -0.36842,3.52234 -1.73789,6.85371 -3.15394,10.09985 -1.41606,3.24614 -2.90674,6.50541 -3.54249,9.98944 -0.12318,0.67505 -0.21386,1.36032 -0.18507,2.04592 0.0288,0.6856 0.18154,1.37495 0.51989,1.97194 z"
         style="opacity:1;vector-effect:none;fill:none;fill-opacity:1;stroke:#000000;stroke-width:4.00031233;stroke-linecap:butt;stroke-linejoin:miter;stroke-miterlimit:4;stroke-dasharray:none;stroke-dashoffset:0;stroke-opacity:1" />
      <path
         inkscape:original-d="m 469.10631,576.47334 c -4.35362,15.29112 -9.15084,22.32049 -13.72768,33.48215 -4.57683,11.16165 0.67058,9.37406 1.00446,14.0625 0.33388,4.68844 -10.26692,9.15085 -15.40178,13.72767 -5.13487,4.57683 0.44736,13.83836 0.66965,20.75894 0.22227,6.92057 -17.18657,-19.19737 -25.78125,-28.79465 -8.5947,-9.59727 -10.49014,-3.12594 -15.73662,-4.6875 -5.24647,-1.56156 -5.57942,5.80264 -8.37053,8.70536 -2.79112,2.90273 7.59022,8.48121 11.38393,12.72322 3.79371,4.24201 22.32236,19.86513 33.48214,29.7991 11.15978,9.93398 13.17058,10.26692 19.75446,15.40178 6.58389,5.13487 -1.33834,-16.07235 -2.00893,-24.10713 -0.67057,-8.03478 9.59916,-17.18845 14.39733,-25.78125 4.79817,-8.59282 16.5188,-17.18845 24.77679,-25.78125 8.25798,-8.59282 -3.12406,-22.09916 -4.6875,-33.14733 -1.56345,-11.04817 8.9295,-31.47415 13.39285,-47.20982 4.46335,-15.73567 -8.70442,-12.27773 -13.05804,-18.41518 -4.35362,-6.13746 -4.68656,8.92763 -7.03125,13.39286 -2.34468,4.46522 -8.70441,30.57942 -13.05803,45.87053 z"
         inkscape:path-effect="#path-effect5208"
         inkscape:connector-curvature="0"
         id="path5206"
         d="m 469.10631,576.47334 c -3.04236,5.35919 -6.78747,10.30444 -9.66587,15.75344 -2.8784,5.44901 -4.88846,11.62187 -4.06181,17.72871 0.32057,2.36823 1.05841,4.66038 1.47456,7.01369 0.41615,2.35332 0.4906,4.86058 -0.4701,7.04881 -0.70532,1.60654 -1.92967,2.94145 -3.31326,4.02039 -1.3836,1.07895 -2.93181,1.9238 -4.46792,2.77164 -1.53611,0.84785 -3.07669,1.70967 -4.43748,2.81724 -1.36079,1.10757 -2.54541,2.48384 -3.18312,4.1184 -0.64529,1.65398 -0.69933,3.48966 -0.45833,5.24863 0.241,1.75898 0.76457,3.46467 1.24878,5.17277 0.48422,1.7081 0.93334,3.44225 1.01893,5.21559 0.0856,1.77334 -0.21501,3.60638 -1.13973,5.12195 -1.04338,1.71005 -2.84355,2.90592 -4.79702,3.34963 -1.95347,0.4437 -4.03958,0.16288 -5.87276,-0.64483 -1.83318,-0.8077 -3.4192,-2.1235 -4.67673,-3.68283 -1.25754,-1.55934 -2.19636,-3.35818 -2.90726,-5.23102 -1.42181,-3.74569 -1.94147,-7.76055 -2.79525,-11.67498 -0.85378,-3.91443 -2.11561,-7.87665 -4.73223,-10.91062 -1.88397,-2.18445 -4.42071,-3.79082 -7.18933,-4.6007 -2.76862,-0.80988 -5.75893,-0.82588 -8.54729,-0.0868 -2.07949,0.55119 -4.07273,1.53445 -5.61928,3.02986 -1.54656,1.4954 -2.61863,3.5283 -2.75125,5.6755 -0.0932,1.50873 0.27472,3.02843 0.94818,4.38173 0.67346,1.35329 1.64471,2.54538 2.75924,3.56654 2.22906,2.04232 4.98855,3.39123 7.67651,4.77495 6.76036,3.48014 13.35104,7.37325 19.19808,12.23391 5.84705,4.86065 10.95,10.7316 14.28406,17.56519 2.12511,4.35569 3.58048,9.16292 6.80837,12.77801 1.61394,1.80754 3.68049,3.27268 6.0303,3.86467 1.1749,0.296 2.41003,0.36946 3.60516,0.17023 1.19512,-0.19922 2.3486,-0.67458 3.31063,-1.41113 1.71578,-1.31365 2.7364,-3.40056 3.0484,-5.53884 0.31199,-2.13828 -0.0319,-4.32856 -0.66006,-6.39618 -1.25623,-4.13524 -3.63819,-7.91745 -4.39727,-12.17211 -0.91173,-5.11024 0.65959,-10.44384 3.46561,-14.81099 2.80603,-4.36715 6.76597,-7.87312 10.93172,-10.97026 4.89713,-3.6409 10.1582,-6.80768 14.76225,-10.81277 4.60404,-4.0051 8.60576,-9.03102 10.01454,-14.96848 1.29935,-5.47627 0.29383,-11.2276 -1.11529,-16.67666 -1.40913,-5.44905 -3.22904,-10.85284 -3.57221,-16.47067 -0.50225,-8.22195 2.19076,-16.28971 5.29314,-23.92043 3.10238,-7.63073 6.68069,-15.17526 8.09971,-23.28939 0.39681,-2.26899 0.62115,-4.58065 0.4509,-6.87777 -0.17026,-2.29713 -0.74606,-4.58554 -1.87369,-6.59408 -1.12763,-2.00853 -2.82866,-3.72577 -4.92128,-4.68844 -2.09262,-0.96267 -4.58122,-1.12504 -6.71397,-0.25489 -1.22516,0.49986 -2.30737,1.32054 -3.18455,2.3112 -0.87719,0.99066 -1.55406,2.14851 -2.06747,3.36804 -1.02684,2.43908 -1.40126,5.09435 -1.77923,7.71362 -2.28442,15.83058 -5.16174,31.96102 -13.05803,45.87053 z"
         style="opacity:1;vector-effect:none;fill:none;fill-opacity:1;stroke:#000000;stroke-width:4.00031233;stroke-linecap:butt;stroke-linejoin:miter;stroke-miterlimit:4;stroke-dasharray:none;stroke-dashoffset:0;stroke-opacity:1" />
      <path
         inkscape:original-d="m 405.49024,573.79478 c -3.90719,5.91611 -6.24907,11.38298 -9.375,17.07588 -3.12594,5.69291 12.50093,6.02585 18.75,9.04018 6.24906,3.01434 7.81343,8.92764 11.71875,13.39286 3.90531,4.46523 8.25986,-15.40272 12.38839,-23.10267 4.12853,-7.69996 -9.15085,-17.18845 -13.72767,-25.78125 -4.57684,-8.59282 5.13486,-11.38487 7.70088,-17.0759 2.56603,-5.69103 24.55452,-33.25987 36.83037,-49.88839 12.27584,-16.62853 16.07236,-4.46523 24.10713,-6.69643 8.03478,-2.2312 18.0813,-12.05451 27.12054,-18.08036 9.03924,-6.02585 3.12594,-6.92058 4.6875,-10.37946 1.56156,-3.45889 -5.57942,2.00798 -8.37054,3.01339 -2.79111,1.0054 -14.7312,8.03478 -22.09821,12.05357 -7.36701,4.0188 -14.95442,-0.22415 -22.43304,-0.33482 -7.47861,-0.11067 -6.9187,-8.25986 -10.37946,-12.38839 -3.46076,-4.12853 -2.67763,-0.22416 -4.01786,-0.33483 -1.34022,-0.11067 -4.24013,5.13299 -6.36161,7.7009 -2.12147,2.5679 -10.49013,25.44549 -15.7366,38.16964 -5.24648,12.72415 -6.69549,10.04371 -10.04465,15.06696 -3.34914,5.02327 -6.02585,20.53478 -9.04017,30.80358 -3.01433,10.2688 -7.81157,11.82941 -11.71875,17.74554 z"
         inkscape:path-effect="#path-effect5212"
         inkscape:connector-curvature="0"
         id="path5210"
         d="m 405.49024,573.79478 c -2.57962,2.36596 -5.48612,4.43205 -7.5793,7.23754 -1.04658,1.40275 -1.8771,2.98955 -2.25202,4.69908 -0.37493,1.70952 -0.27341,3.54849 0.45632,5.13926 0.74498,1.62402 2.10364,2.91259 3.64622,3.81419 1.54258,0.90161 3.26841,1.4437 5.00476,1.86502 1.73636,0.42131 3.50005,0.72937 5.22298,1.20261 1.72293,0.47324 3.42079,1.12169 4.87604,2.15836 2.44212,1.73968 4.00978,4.41628 5.60976,6.95212 0.79998,1.26792 1.62895,2.52449 2.61781,3.65133 0.98885,1.12684 2.14684,2.12583 3.49118,2.78941 2.6151,1.29084 5.8206,1.18826 8.45517,-0.0624 2.63457,-1.25061 4.69299,-3.57642 5.83902,-6.25814 1.14603,-2.68172 1.41314,-5.69547 1.00071,-8.58249 -0.41243,-2.88702 -1.48367,-5.65401 -2.90651,-8.19969 -2.41879,-4.32758 -5.82004,-8.01303 -8.66761,-12.07134 -1.42378,-2.02916 -2.71602,-4.16515 -3.64494,-6.46335 -0.92893,-2.2982 -1.48818,-4.7688 -1.41512,-7.24656 0.0933,-3.16308 1.20861,-6.22055 2.68757,-9.01813 1.47896,-2.79757 3.32291,-5.38264 5.01331,-8.05777 5.63165,-8.91234 9.54453,-18.79989 14.83018,-27.92168 5.28564,-9.1218 12.3342,-17.75792 22.00019,-21.96671 7.65843,-3.33465 16.33921,-3.62547 24.10713,-6.69643 10.1325,-4.00576 17.8507,-12.35465 27.12054,-18.08036 1.93464,-1.19497 4.0141,-2.34558 5.26311,-4.24578 0.6245,-0.95009 1.01191,-2.08021 0.95355,-3.21568 -0.0292,-0.56773 -0.16988,-1.13145 -0.4281,-1.63791 -0.25822,-0.50645 -0.63511,-0.95442 -1.10106,-1.28009 -0.66121,-0.46215 -1.48497,-0.66487 -2.29126,-0.63897 -0.80629,0.0259 -1.59578,0.27106 -2.31438,0.63765 -1.4372,0.73319 -2.57724,1.92267 -3.7649,3.01471 -6.21614,5.71568 -14.19561,9.07729 -22.09821,12.05357 -3.69428,1.39134 -7.47112,2.73607 -11.40959,3.00436 -1.96924,0.13415 -3.96725,-0.007 -5.86798,-0.53915 -1.90072,-0.53211 -3.70303,-1.4635 -5.15547,-2.80003 -2.01147,-1.85095 -3.25681,-4.36176 -4.67378,-6.69933 -0.70848,-1.16878 -1.47343,-2.31159 -2.4041,-3.31251 -0.93068,-1.00093 -2.03622,-1.85997 -3.30158,-2.37655 -1.26569,-0.51671 -2.69374,-0.67491 -4.01786,-0.33483 -1.67913,0.43125 -3.08301,1.62718 -4.08811,3.03971 -1.0051,1.41252 -1.65697,3.0409 -2.2735,4.66119 -4.90607,12.89354 -8.26099,26.57533 -15.7366,38.16964 -3.27371,5.07737 -7.29996,9.68518 -10.04465,15.06696 -4.87236,9.55372 -5.32599,20.74285 -9.04017,30.80358 -2.47822,6.71285 -6.44524,12.90881 -11.71875,17.74554 z"
         style="opacity:1;vector-effect:none;fill:none;fill-opacity:1;stroke:#000000;stroke-width:4.00031233;stroke-linecap:butt;stroke-linejoin:miter;stroke-miterlimit:4;stroke-dasharray:none;stroke-dashoffset:0;stroke-opacity:1" />
      <path
         inkscape:original-d="m 595.66881,325.69209 c -4.57683,10.71522 -16.74013,9.82049 -25.1116,14.73215 -8.37148,4.91165 -0.89192,10.0437 -1.3393,15.06696 -0.44736,5.02326 12.05452,-7.14379 18.08037,-10.71429 6.02584,-3.57049 22.32236,-12.72415 33.48213,-19.08482 11.15979,-6.36066 -1.33834,-17.41165 -2.00892,-26.11607 -0.67058,-8.70442 5.5813,-26.78665 8.37054,-40.17858 2.78924,-13.39191 -9.59728,-8.92951 -14.39732,-13.39285 -4.80005,-4.46335 -7.81157,7.58835 -11.71875,11.38393 -3.90719,3.79558 5.58129,24.1062 8.37053,36.16072 2.78924,12.0545 -9.15085,21.42763 -13.72768,32.14285 z"
         inkscape:path-effect="#path-effect5216"
         inkscape:connector-curvature="0"
         id="path5214"
         d="m 595.66881,325.69209 c -3.96437,2.82964 -8.4691,4.78608 -12.86022,6.89348 -4.39112,2.1074 -8.76922,4.43314 -12.25138,7.83867 -2.08155,2.03575 -3.85423,4.53944 -4.34991,7.40849 -0.24784,1.43453 -0.16223,2.93781 0.34008,4.30419 0.50231,1.36637 1.43305,2.58752 2.67053,3.35428 1.62693,1.00807 3.68952,1.17211 5.54384,0.69817 1.85432,-0.47393 3.51571,-1.53853 4.93545,-2.82207 2.83948,-2.56706 4.7856,-5.99703 7.60108,-8.59039 2.42367,-2.23246 5.41324,-3.76838 8.49385,-4.93795 3.0806,-1.16957 6.27843,-1.99644 9.42191,-2.98464 3.14349,-0.98819 6.26363,-2.15261 9.0386,-3.92956 2.77498,-1.77696 5.2052,-4.21458 6.52777,-7.23267 0.88974,-2.03039 1.25486,-4.2647 1.26838,-6.48144 0.0135,-2.21674 -0.31598,-4.42304 -0.76886,-6.59306 -0.90575,-4.34006 -2.31259,-8.61234 -2.50844,-13.04157 -0.30515,-6.90114 2.3366,-13.54476 4.75486,-20.01553 2.41827,-6.47076 4.68929,-13.33911 3.61568,-20.16305 -0.56067,-3.56366 -2.08107,-7.0321 -4.62938,-9.58556 -2.54831,-2.55347 -6.17314,-4.10976 -9.76794,-3.80729 -2.90123,0.24412 -5.64578,1.67619 -7.67838,3.76072 -2.0326,2.08453 -3.37445,4.78891 -4.04037,7.62321 -1.43372,6.10228 0.19609,12.50069 2.39095,18.37231 2.19486,5.87162 4.98302,11.59969 5.97958,17.78841 0.97547,6.05774 0.15164,12.38448 -2.27947,18.01808 -2.4311,5.6336 -6.4541,10.56013 -11.44821,14.12477 z"
         style="opacity:1;vector-effect:none;fill:none;fill-opacity:1;stroke:#000000;stroke-width:4.00031233;stroke-linecap:butt;stroke-linejoin:miter;stroke-miterlimit:4;stroke-dasharray:none;stroke-dashoffset:0;stroke-opacity:1" />
      <path
         inkscape:original-d="m 480.82506,388.63852 c 5.13299,16.51879 -1.11514,7.14192 -1.6741,10.71429 -0.55898,3.57236 10.71522,-9.4e-4 16.07142,0 5.35621,9.4e-4 3.79558,-19.19737 5.69196,-28.79465 1.89639,-9.59727 -6.69549,-25.67058 -10.04463,-38.50446 -3.34916,-12.83388 13.17058,-10.93844 19.75445,-16.40625 6.58389,-5.46781 13.61701,-32.59022 20.42412,-48.88393 6.80709,-16.29371 -5.133,-18.30451 -7.7009,-27.45536 -2.5679,-9.15085 -19.4187,2.67763 -29.12947,4.01786 -9.71075,1.34022 12.72416,7.36513 19.08483,11.04911 6.36067,3.68397 2.90273,16.51692 4.35267,24.77678 1.44996,8.25987 -20.53477,25.22228 -30.80357,37.83483 -10.26879,12.61254 -33.70442,-3.79558 -50.55803,-5.69197 -16.85362,-1.89638 -15.40085,13.61514 -23.10268,20.42411 -7.70183,6.80897 20.53666,-1.11702 30.80358,-1.67411 10.26691,-0.5571 14.28664,6.02585 21.42856,9.04018 7.14193,3.01433 10.2688,33.03478 15.40179,49.55357 z"
         inkscape:path-effect="#path-effect5220"
         inkscape:connector-curvature="0"
         id="path5218"
         d="m 480.82506,388.63852 c -0.63742,1.74262 -1.41055,3.443 -1.85338,5.24493 -0.44283,1.80192 -0.53438,3.75655 0.17928,5.46936 0.6091,1.46185 1.78517,2.6603 3.19096,3.38951 1.40578,0.72922 3.02846,1.00131 4.60709,0.87515 3.15726,-0.25231 6.01846,-2.04039 8.27337,-4.26466 3.66709,-3.61725 6.02481,-8.47047 6.91767,-13.54342 0.89286,-5.07295 0.35871,-10.35004 -1.22571,-15.25123 -2.10765,-6.51975 -5.98884,-12.30901 -8.70298,-18.60049 -1.35708,-3.14574 -2.42719,-6.44488 -2.78693,-9.85192 -0.35974,-3.40704 0.0177,-6.93768 1.44528,-10.05205 1.8097,-3.94796 5.16822,-6.98056 8.75441,-9.43018 3.58619,-2.44961 7.48007,-4.43221 11.00004,-6.97607 7.45762,-5.38957 13.00929,-13.20085 16.32994,-21.78204 3.32064,-8.58118 4.47889,-17.90866 4.09418,-27.10189 -0.40202,-9.60688 -2.54932,-19.33656 -7.7009,-27.45536 -2.03016,-3.19949 -4.53891,-6.14462 -7.65497,-8.30065 -3.11605,-2.15603 -6.87559,-3.48675 -10.66174,-3.33381 -1.89307,0.0765 -3.77614,0.52308 -5.47777,1.35616 -1.70163,0.83309 -3.21817,2.0559 -4.34845,3.57644 -1.13028,1.52053 -1.86754,3.33943 -2.0596,5.22428 -0.19207,1.88486 0.16886,3.83051 1.07306,5.49544 0.8936,1.64542 2.28723,2.98177 3.85169,4.01056 1.56445,1.02879 3.30124,1.76693 5.05902,2.412 3.51557,1.29016 7.25419,2.28184 10.17412,4.62655 1.73099,1.38999 3.09686,3.21056 4.05362,5.21381 0.95677,2.00324 1.51133,4.18644 1.74418,6.39419 0.46569,4.4155 -0.34055,8.86838 -1.44513,13.16878 -2.1169,8.24157 -5.39472,16.28029 -10.50107,23.0869 -5.10634,6.80661 -12.14344,12.33246 -20.3025,14.74793 -8.22138,2.43392 -17.06176,1.62437 -25.45834,-0.11126 -8.39659,-1.73563 -16.61113,-4.37266 -25.09969,-5.58071 -3.33172,-0.47416 -6.71797,-0.72566 -10.0625,-0.35241 -3.34453,0.37326 -6.65981,1.39562 -9.43324,3.30172 -2.77344,1.9061 -4.97128,4.74314 -5.76857,8.01262 -0.39865,1.63474 -0.44449,3.36001 -0.0855,5.00392 0.35895,1.64391 1.12662,3.20301 2.24717,4.45826 1.806,2.02309 4.45393,3.17328 7.14377,3.51866 2.68984,0.34537 5.42866,-0.0593 8.04729,-0.76445 5.23727,-1.41037 10.20345,-4.02822 15.61252,-4.42832 3.97335,-0.29391 7.97855,0.64958 11.59344,2.32484 3.61488,1.67525 6.86254,4.06248 9.83512,6.71534 6.85368,6.1165 12.39839,13.82138 15.35023,22.52031 2.95183,8.69892 3.20719,18.40618 0.0516,27.03326 z"
         style="opacity:1;vector-effect:none;fill:none;fill-opacity:1;stroke:#000000;stroke-width:4.00031233;stroke-linecap:butt;stroke-linejoin:miter;stroke-miterlimit:4;stroke-dasharray:none;stroke-dashoffset:0;stroke-opacity:1" />
      <path
         inkscape:original-d="m 435.95899,764.64299 c -0.33577,4.35361 4.68844,-2.45629 7.03125,-3.68304 2.34281,-1.22674 -4.01692,-6.25093 -6.02678,-9.375 -2.00987,-3.12406 -0.66871,8.70442 -1.00447,13.05804 z"
         inkscape:path-effect="#path-effect5224"
         inkscape:connector-curvature="0"
         id="path5222"
         d="m 435.95899,764.64299 c 1.40084,0.23412 2.87606,-0.002 4.13418,-0.66064 1.25812,-0.65901 2.2919,-1.73751 2.89707,-3.0224 0.47225,-1.00267 0.68517,-2.12616 0.61254,-3.23209 -0.0726,-1.10594 -0.43067,-2.19193 -1.03,-3.12422 -0.59933,-0.93229 -1.43867,-1.70888 -2.41463,-2.2341 -0.97597,-0.52522 -2.08645,-0.79795 -3.19469,-0.78459 -1.62369,0.0196 -3.23186,0.66664 -4.41661,1.77709 -1.18476,1.11046 -1.93449,2.67341 -2.05903,4.29244 -0.12454,1.61902 0.37733,3.27825 1.37831,4.55684 1.00098,1.27858 2.49127,2.164 4.09286,2.43167 z"
         style="opacity:1;vector-effect:none;fill:none;fill-opacity:1;stroke:#000000;stroke-width:4.00031233;stroke-linecap:butt;stroke-linejoin:miter;stroke-miterlimit:4;stroke-dasharray:none;stroke-dashoffset:0;stroke-opacity:1" />
    </g>
  </g>
  <g
     inkscape:groupmode="layer"
     id="layer3"
     inkscape:label="Layer 3"
     style="display:inline"
     transform="translate(-69.710847,-143.98032)">
    <path
       style="color:#000000;clip-rule:nonzero;display:inline;overflow:visible;visibility:visible;opacity:1;isolation:auto;mix-blend-mode:normal;color-interpolation:sRGB;color-interpolation-filters:linearRGB;solid-color:#000000;solid-opacity:1;fill:none;fill-opacity:1;fill-rule:evenodd;stroke:#000000;stroke-width:4;stroke-linecap:butt;stroke-linejoin:miter;stroke-miterlimit:4;stroke-dasharray:none;stroke-dashoffset:0;stroke-opacity:1;color-rendering:auto;image-rendering:auto;shape-rendering:auto;text-rendering:auto;enable-background:accumulate"
       d="m 116.75665,194.14947 7.59461,5.94195 5.5018,-7.03207"
       id="path4235-62"
       inkscape:connector-curvature="0" />
    <path
       style="color:#000000;clip-rule:nonzero;display:inline;overflow:visible;visibility:visible;opacity:1;isolation:auto;mix-blend-mode:normal;color-interpolation:sRGB;color-interpolation-filters:linearRGB;solid-color:#000000;solid-opacity:1;fill:none;fill-opacity:1;fill-rule:evenodd;stroke:#000000;stroke-width:4;stroke-linecap:butt;stroke-linejoin:miter;stroke-miterlimit:4;stroke-dasharray:none;stroke-dashoffset:0;stroke-opacity:1;color-rendering:auto;image-rendering:auto;shape-rendering:auto;text-rendering:auto;enable-background:accumulate"
       d="m 201.35312,309.57537 5.38265,-8.00074 -7.40811,-4.98394"
       id="path4235-62-0"
       inkscape:connector-curvature="0" />
    <path
       style="color:#000000;clip-rule:nonzero;display:inline;overflow:visible;visibility:visible;opacity:1;isolation:auto;mix-blend-mode:normal;color-interpolation:sRGB;color-interpolation-filters:linearRGB;solid-color:#000000;solid-opacity:1;fill:none;fill-opacity:1;fill-rule:evenodd;stroke:#000000;stroke-width:4;stroke-linecap:butt;stroke-linejoin:miter;stroke-miterlimit:4;stroke-dasharray:none;stroke-dashoffset:0;stroke-opacity:1;color-rendering:auto;image-rendering:auto;shape-rendering:auto;text-rendering:auto;enable-background:accumulate"
       d="m 185.45618,360.55854 9.63963,-0.24959 -0.23111,-8.92559"
       id="path4235-62-9"
       inkscape:connector-curvature="0" />
    <path
       style="color:#000000;clip-rule:nonzero;display:inline;overflow:visible;visibility:visible;opacity:1;isolation:auto;mix-blend-mode:normal;color-interpolation:sRGB;color-interpolation-filters:linearRGB;solid-color:#000000;solid-opacity:1;fill:none;fill-opacity:1;fill-rule:evenodd;stroke:#000000;stroke-width:4;stroke-linecap:butt;stroke-linejoin:miter;stroke-miterlimit:4;stroke-dasharray:none;stroke-dashoffset:0;stroke-opacity:1;color-rendering:auto;image-rendering:auto;shape-rendering:auto;text-rendering:auto;enable-background:accumulate"
       d="m 208.01469,494.43927 9.63535,0.3805 0.35231,-8.92163"
       id="path4235-62-6"
       inkscape:connector-curvature="0" />
    <path
       style="color:#000000;clip-rule:nonzero;display:inline;overflow:visible;visibility:visible;opacity:1;isolation:auto;mix-blend-mode:normal;color-interpolation:sRGB;color-interpolation-filters:linearRGB;solid-color:#000000;solid-opacity:1;fill:none;fill-opacity:1;fill-rule:evenodd;stroke:#000000;stroke-width:4;stroke-linecap:butt;stroke-linejoin:miter;stroke-miterlimit:4;stroke-dasharray:none;stroke-dashoffset:0;stroke-opacity:1;color-rendering:auto;image-rendering:auto;shape-rendering:auto;text-rendering:auto;enable-background:accumulate"
       d="m 277.83458,530.87935 -7.67888,-5.83262 -5.40057,7.11009"
       id="path4235-62-67"
       inkscape:connector-curvature="0" />
    <path
       style="color:#000000;clip-rule:nonzero;display:inline;overflow:visible;visibility:visible;opacity:1;isolation:auto;mix-blend-mode:normal;color-interpolation:sRGB;color-interpolation-filters:linearRGB;solid-color:#000000;solid-opacity:1;fill:none;fill-opacity:1;fill-rule:evenodd;stroke:#000000;stroke-width:4;stroke-linecap:butt;stroke-linejoin:miter;stroke-miterlimit:4;stroke-dasharray:none;stroke-dashoffset:0;stroke-opacity:1;color-rendering:auto;image-rendering:auto;shape-rendering:auto;text-rendering:auto;enable-background:accumulate"
       d="m 254.73057,392.60318 -4.52531,-8.51507 -7.88432,4.19011"
       id="path4235-62-8"
       inkscape:connector-curvature="0" />
    <path
       style="color:#000000;clip-rule:nonzero;display:inline;overflow:visible;visibility:visible;opacity:1;isolation:auto;mix-blend-mode:normal;color-interpolation:sRGB;color-interpolation-filters:linearRGB;solid-color:#000000;solid-opacity:1;fill:none;fill-opacity:1;fill-rule:evenodd;stroke:#000000;stroke-width:4;stroke-linecap:butt;stroke-linejoin:miter;stroke-miterlimit:4;stroke-dasharray:none;stroke-dashoffset:0;stroke-opacity:1;color-rendering:auto;image-rendering:auto;shape-rendering:auto;text-rendering:auto;enable-background:accumulate"
       d="m 229.01832,335.79129 6.68703,6.94756 6.43291,-6.1917"
       id="path4235-62-2"
       inkscape:connector-curvature="0" />
    <path
       style="color:#000000;clip-rule:nonzero;display:inline;overflow:visible;visibility:visible;opacity:1;isolation:auto;mix-blend-mode:normal;color-interpolation:sRGB;color-interpolation-filters:linearRGB;solid-color:#000000;solid-opacity:1;fill:none;fill-opacity:1;fill-rule:evenodd;stroke:#000000;stroke-width:4;stroke-linecap:butt;stroke-linejoin:miter;stroke-miterlimit:4;stroke-dasharray:none;stroke-dashoffset:0;stroke-opacity:1;color-rendering:auto;image-rendering:auto;shape-rendering:auto;text-rendering:auto;enable-background:accumulate"
       d="m 317.86996,545.5139 -6.39557,7.21675 6.68218,5.92182"
       id="path4235-62-7"
       inkscape:connector-curvature="0" />
    <path
       style="color:#000000;clip-rule:nonzero;display:inline;overflow:visible;visibility:visible;opacity:1;isolation:auto;mix-blend-mode:normal;color-interpolation:sRGB;color-interpolation-filters:linearRGB;solid-color:#000000;solid-opacity:1;fill:none;fill-opacity:1;fill-rule:evenodd;stroke:#000000;stroke-width:4;stroke-linecap:butt;stroke-linejoin:miter;stroke-miterlimit:4;stroke-dasharray:none;stroke-dashoffset:0;stroke-opacity:1;color-rendering:auto;image-rendering:auto;shape-rendering:auto;text-rendering:auto;enable-background:accumulate"
       d="m 344.9493,640.90374 -2.98561,9.16902 8.48984,2.76445"
       id="path4235-62-3"
       inkscape:connector-curvature="0" />
    <path
       style="color:#000000;clip-rule:nonzero;display:inline;overflow:visible;visibility:visible;opacity:1;isolation:auto;mix-blend-mode:normal;color-interpolation:sRGB;color-interpolation-filters:linearRGB;solid-color:#000000;solid-opacity:1;fill:none;fill-opacity:1;fill-rule:evenodd;stroke:#000000;stroke-width:4;stroke-linecap:butt;stroke-linejoin:miter;stroke-miterlimit:4;stroke-dasharray:none;stroke-dashoffset:0;stroke-opacity:1;color-rendering:auto;image-rendering:auto;shape-rendering:auto;text-rendering:auto;enable-background:accumulate"
       d="m 346.16378,702.01492 9.08897,-3.22106 -2.98248,-8.41573"
       id="path4235-62-90"
       inkscape:connector-curvature="0" />
    <path
       style="color:#000000;clip-rule:nonzero;display:inline;overflow:visible;visibility:visible;opacity:1;isolation:auto;mix-blend-mode:normal;color-interpolation:sRGB;color-interpolation-filters:linearRGB;solid-color:#000000;solid-opacity:1;fill:none;fill-opacity:1;fill-rule:evenodd;stroke:#000000;stroke-width:4;stroke-linecap:butt;stroke-linejoin:miter;stroke-miterlimit:4;stroke-dasharray:none;stroke-dashoffset:0;stroke-opacity:1;color-rendering:auto;image-rendering:auto;shape-rendering:auto;text-rendering:auto;enable-background:accumulate"
       d="m 358.61936,856.38387 -6.62751,-7.00435 -6.48551,6.13659"
       id="path4235-62-80"
       inkscape:connector-curvature="0" />
    <path
       style="color:#000000;clip-rule:nonzero;display:inline;overflow:visible;visibility:visible;opacity:1;isolation:auto;mix-blend-mode:normal;color-interpolation:sRGB;color-interpolation-filters:linearRGB;solid-color:#000000;solid-opacity:1;fill:none;fill-opacity:1;fill-rule:evenodd;stroke:#000000;stroke-width:4;stroke-linecap:butt;stroke-linejoin:miter;stroke-miterlimit:4;stroke-dasharray:none;stroke-dashoffset:0;stroke-opacity:1;color-rendering:auto;image-rendering:auto;shape-rendering:auto;text-rendering:auto;enable-background:accumulate"
       d="m 405.34958,802.14441 -7.85633,5.59132 5.17716,7.27438"
       id="path4235-62-1"
       inkscape:connector-curvature="0" />
    <path
       style="color:#000000;clip-rule:nonzero;display:inline;overflow:visible;visibility:visible;opacity:1;isolation:auto;mix-blend-mode:normal;color-interpolation:sRGB;color-interpolation-filters:linearRGB;solid-color:#000000;solid-opacity:1;fill:none;fill-opacity:1;fill-rule:evenodd;stroke:#000000;stroke-width:4;stroke-linecap:butt;stroke-linejoin:miter;stroke-miterlimit:4;stroke-dasharray:none;stroke-dashoffset:0;stroke-opacity:1;color-rendering:auto;image-rendering:auto;shape-rendering:auto;text-rendering:auto;enable-background:accumulate"
       d="m 451.98791,540.40603 4.06309,8.74506 8.09728,-3.76213"
       id="path4235-62-21"
       inkscape:connector-curvature="0" />
    <path
       style="color:#000000;clip-rule:nonzero;display:inline;overflow:visible;visibility:visible;opacity:1;isolation:auto;mix-blend-mode:normal;color-interpolation:sRGB;color-interpolation-filters:linearRGB;solid-color:#000000;solid-opacity:1;fill:none;fill-opacity:1;fill-rule:evenodd;stroke:#000000;stroke-width:4;stroke-linecap:butt;stroke-linejoin:miter;stroke-miterlimit:4;stroke-dasharray:none;stroke-dashoffset:0;stroke-opacity:1;color-rendering:auto;image-rendering:auto;shape-rendering:auto;text-rendering:auto;enable-background:accumulate"
       d="m 416.93945,504.72765 1.82225,9.46912 8.7677,-1.68728"
       id="path4235-62-35"
       inkscape:connector-curvature="0" />
    <path
       style="color:#000000;clip-rule:nonzero;display:inline;overflow:visible;visibility:visible;opacity:1;isolation:auto;mix-blend-mode:normal;color-interpolation:sRGB;color-interpolation-filters:linearRGB;solid-color:#000000;solid-opacity:1;fill:none;fill-opacity:1;fill-rule:evenodd;stroke:#000000;stroke-width:4;stroke-linecap:butt;stroke-linejoin:miter;stroke-miterlimit:4;stroke-dasharray:none;stroke-dashoffset:0;stroke-opacity:1;color-rendering:auto;image-rendering:auto;shape-rendering:auto;text-rendering:auto;enable-background:accumulate"
       d="m 547.44722,442.47272 -9.24998,2.72445 2.52264,8.5648"
       id="path4235-62-09"
       inkscape:connector-curvature="0" />
    <path
       style="color:#000000;clip-rule:nonzero;display:inline;overflow:visible;visibility:visible;opacity:1;isolation:auto;mix-blend-mode:normal;color-interpolation:sRGB;color-interpolation-filters:linearRGB;solid-color:#000000;solid-opacity:1;fill:none;fill-opacity:1;fill-rule:evenodd;stroke:#000000;stroke-width:4;stroke-linecap:butt;stroke-linejoin:miter;stroke-miterlimit:4;stroke-dasharray:none;stroke-dashoffset:0;stroke-opacity:1;color-rendering:auto;image-rendering:auto;shape-rendering:auto;text-rendering:auto;enable-background:accumulate"
       d="m 315.68687,349.82534 2.03694,-9.42527 -8.7271,-1.88605"
       id="path4235-62-61"
       inkscape:connector-curvature="0" />
    <path
       style="color:#000000;clip-rule:nonzero;display:inline;overflow:visible;visibility:visible;opacity:1;isolation:auto;mix-blend-mode:normal;color-interpolation:sRGB;color-interpolation-filters:linearRGB;solid-color:#000000;solid-opacity:1;fill:none;fill-opacity:1;fill-rule:evenodd;stroke:#000000;stroke-width:4;stroke-linecap:butt;stroke-linejoin:miter;stroke-miterlimit:4;stroke-dasharray:none;stroke-dashoffset:0;stroke-opacity:1;color-rendering:auto;image-rendering:auto;shape-rendering:auto;text-rendering:auto;enable-background:accumulate"
       d="m 512.07692,323.36281 -0.55855,9.62667 8.91359,0.51717"
       id="path4235-62-84"
       inkscape:connector-curvature="0" />
    <path
       style="color:#000000;clip-rule:nonzero;display:inline;overflow:visible;visibility:visible;opacity:1;isolation:auto;mix-blend-mode:normal;color-interpolation:sRGB;color-interpolation-filters:linearRGB;solid-color:#000000;solid-opacity:1;fill:none;fill-opacity:1;fill-rule:evenodd;stroke:#000000;stroke-width:4;stroke-linecap:butt;stroke-linejoin:miter;stroke-miterlimit:4;stroke-dasharray:none;stroke-dashoffset:0;stroke-opacity:1;color-rendering:auto;image-rendering:auto;shape-rendering:auto;text-rendering:auto;enable-background:accumulate"
       d="m 537.04965,283.23869 6.70263,6.9325 6.41898,-6.20615"
       id="path4235-62-5"
       inkscape:connector-curvature="0" />
    <path
       style="color:#000000;clip-rule:nonzero;display:inline;overflow:visible;visibility:visible;opacity:1;isolation:auto;mix-blend-mode:normal;color-interpolation:sRGB;color-interpolation-filters:linearRGB;solid-color:#000000;solid-opacity:1;fill:none;fill-opacity:1;fill-rule:evenodd;stroke:#000000;stroke-width:4;stroke-linecap:butt;stroke-linejoin:miter;stroke-miterlimit:4;stroke-dasharray:none;stroke-dashoffset:0;stroke-opacity:1;color-rendering:auto;image-rendering:auto;shape-rendering:auto;text-rendering:auto;enable-background:accumulate"
       d="m 582.72424,307.29138 -0.55855,9.62667 8.91359,0.51717"
       id="path4235-62-82"
       inkscape:connector-curvature="0" />
    <path
       style="color:#000000;clip-rule:nonzero;display:inline;overflow:visible;visibility:visible;opacity:1;isolation:auto;mix-blend-mode:normal;color-interpolation:sRGB;color-interpolation-filters:linearRGB;solid-color:#000000;solid-opacity:1;fill:none;fill-opacity:1;fill-rule:evenodd;stroke:#000000;stroke-width:4;stroke-linecap:butt;stroke-linejoin:miter;stroke-miterlimit:4;stroke-dasharray:none;stroke-dashoffset:0;stroke-opacity:1;color-rendering:auto;image-rendering:auto;shape-rendering:auto;text-rendering:auto;enable-background:accumulate"
       d="m 647.74578,253.86726 -5.18494,-8.13027 -7.52802,4.80088"
       id="path4235-62-22"
       inkscape:connector-curvature="0" />
    <path
       style="color:#000000;clip-rule:nonzero;display:inline;overflow:visible;visibility:visible;opacity:1;isolation:auto;mix-blend-mode:normal;color-interpolation:sRGB;color-interpolation-filters:linearRGB;solid-color:#000000;solid-opacity:1;fill:none;fill-opacity:1;fill-rule:evenodd;stroke:#000000;stroke-width:4;stroke-linecap:butt;stroke-linejoin:miter;stroke-miterlimit:4;stroke-dasharray:none;stroke-dashoffset:0;stroke-opacity:1;color-rendering:auto;image-rendering:auto;shape-rendering:auto;text-rendering:auto;enable-background:accumulate"
       d="m 645.10861,214.43962 -8.30638,-4.89786 -4.53503,7.69111"
       id="path4235-62-08"
       inkscape:connector-curvature="0" />
    <path
       style="color:#000000;clip-rule:nonzero;display:inline;overflow:visible;visibility:visible;opacity:1;isolation:auto;mix-blend-mode:normal;color-interpolation:sRGB;color-interpolation-filters:linearRGB;solid-color:#000000;solid-opacity:1;fill:none;fill-opacity:1;fill-rule:evenodd;stroke:#000000;stroke-width:4;stroke-linecap:butt;stroke-linejoin:miter;stroke-miterlimit:4;stroke-dasharray:none;stroke-dashoffset:0;stroke-opacity:1;color-rendering:auto;image-rendering:auto;shape-rendering:auto;text-rendering:auto;enable-background:accumulate"
       d="m 311.08908,274.15211 -1.97813,-9.43779 -8.73869,1.83161"
       id="path4235-62-78"
       inkscape:connector-curvature="0" />
  </g>
</svg>
