<?xml version="1.0" encoding="UTF-8" standalone="no"?>
<!-- Created with Inkscape (http://www.inkscape.org/) -->

<svg
   xmlns:dc="http://purl.org/dc/elements/1.1/"
   xmlns:cc="http://creativecommons.org/ns#"
   xmlns:rdf="http://www.w3.org/1999/02/22-rdf-syntax-ns#"
   xmlns:svg="http://www.w3.org/2000/svg"
   xmlns="http://www.w3.org/2000/svg"
   xmlns:sodipodi="http://sodipodi.sourceforge.net/DTD/sodipodi-0.dtd"
   xmlns:inkscape="http://www.inkscape.org/namespaces/inkscape"
   width="661.94934"
   height="800"
   viewBox="0 0 620.57753 749.99997"
   id="svg2"
   version="1.1"
   inkscape:version="0.92.3 (2405546, 2018-03-11)"
   sodipodi:docname="y.svg"
   inkscape:export-filename="C:\Users\zvi\Documents\Mazesplace\Mazes\Alphabet Maze Set\Y\Y (s).png"
   inkscape:export-xdpi="100"
   inkscape:export-ydpi="100">
  <defs
     id="defs4">
    <inkscape:path-effect
       effect="spiro"
       id="path-effect4789"
       is_visible="true" />
    <inkscape:path-effect
       effect="spiro"
       id="path-effect4632"
       is_visible="true" />
    <inkscape:path-effect
       effect="spiro"
       id="path-effect4628"
       is_visible="true" />
    <inkscape:path-effect
       effect="spiro"
       id="path-effect4620"
       is_visible="true" />
    <inkscape:path-effect
       effect="spiro"
       id="path-effect4616"
       is_visible="true" />
    <inkscape:path-effect
       effect="spiro"
       id="path-effect4612"
       is_visible="true" />
    <inkscape:path-effect
       effect="spiro"
       id="path-effect4608"
       is_visible="true" />
    <inkscape:path-effect
       effect="spiro"
       id="path-effect4604"
       is_visible="true" />
    <inkscape:path-effect
       effect="spiro"
       id="path-effect4600"
       is_visible="true" />
    <inkscape:path-effect
       effect="spiro"
       id="path-effect4596"
       is_visible="true" />
    <inkscape:path-effect
       effect="spiro"
       id="path-effect4592"
       is_visible="true" />
    <inkscape:path-effect
       effect="spiro"
       id="path-effect4588"
       is_visible="true" />
    <inkscape:path-effect
       effect="spiro"
       id="path-effect4584"
       is_visible="true" />
    <inkscape:path-effect
       effect="spiro"
       id="path-effect4575"
       is_visible="true" />
    <inkscape:path-effect
       effect="spiro"
       id="path-effect4570"
       is_visible="true" />
    <inkscape:path-effect
       effect="spiro"
       id="path-effect4813"
       is_visible="true" />
    <inkscape:path-effect
       effect="spiro"
       id="path-effect4635"
       is_visible="true" />
    <inkscape:path-effect
       effect="spiro"
       id="path-effect4631"
       is_visible="true" />
    <inkscape:path-effect
       effect="spiro"
       id="path-effect4627"
       is_visible="true" />
    <inkscape:path-effect
       effect="spiro"
       id="path-effect4623"
       is_visible="true" />
    <inkscape:path-effect
       effect="spiro"
       id="path-effect4619"
       is_visible="true" />
    <inkscape:path-effect
       effect="spiro"
       id="path-effect4615"
       is_visible="true" />
    <inkscape:path-effect
       effect="spiro"
       id="path-effect4611"
       is_visible="true" />
    <inkscape:path-effect
       effect="spiro"
       id="path-effect4607"
       is_visible="true" />
    <inkscape:path-effect
       effect="spiro"
       id="path-effect4595"
       is_visible="true" />
    <inkscape:path-effect
       effect="spiro"
       id="path-effect4591"
       is_visible="true" />
    <inkscape:path-effect
       effect="spiro"
       id="path-effect4587"
       is_visible="true" />
    <inkscape:path-effect
       effect="spiro"
       id="path-effect4583"
       is_visible="true" />
    <inkscape:path-effect
       effect="spiro"
       id="path-effect4579"
       is_visible="true" />
    <inkscape:path-effect
       effect="spiro"
       id="path-effect4574"
       is_visible="true" />
    <clipPath
       clipPathUnits="userSpaceOnUse"
       id="clipPath4150">
      <rect
         style="opacity:1;fill:#000000;fill-opacity:1;fill-rule:evenodd;stroke:none;stroke-width:4;stroke-linecap:round;stroke-linejoin:round;stroke-miterlimit:4;stroke-dasharray:none;stroke-dashoffset:2.4000001;stroke-opacity:1"
         id="rect4152"
         width="694.28571"
         height="822.85712"
         x="-62.857143"
         y="75.21933"
         transform="rotate(90)" />
    </clipPath>
    <clipPath
       clipPathUnits="userSpaceOnUse"
       id="clipPath4194">
      <rect
         style="opacity:1;fill:#000000;fill-opacity:1;fill-rule:evenodd;stroke:none;stroke-width:4;stroke-linecap:round;stroke-linejoin:round;stroke-miterlimit:4;stroke-dasharray:none;stroke-dashoffset:2.4000001;stroke-opacity:1"
         id="rect4196"
         width="652.55853"
         height="800.04083"
         x="54.548237"
         y="98.778214"
         transform="rotate(90)" />
    </clipPath>
    <clipPath
       clipPathUnits="userSpaceOnUse"
       id="clipPath8848">
      <rect
         style="opacity:1;fill:#b0c836;fill-opacity:1;fill-rule:evenodd;stroke:none;stroke-width:4;stroke-linecap:round;stroke-linejoin:round;stroke-miterlimit:4;stroke-dasharray:none;stroke-dashoffset:2.4000001;stroke-opacity:1"
         id="rect8850"
         width="256.66153"
         height="167.81715"
         x="541.52765"
         y="194.94344" />
    </clipPath>
    <clipPath
       clipPathUnits="userSpaceOnUse"
       id="clipPath4554">
      <rect
         y="329.5043"
         x="33.676014"
         height="249.13623"
         width="186.21127"
         id="rect4556"
         style="fill:#ffffff;fill-opacity:1;fill-rule:evenodd;stroke:#000000;stroke-width:3.89577293;stroke-linecap:round;stroke-linejoin:miter;stroke-miterlimit:4;stroke-dasharray:none;stroke-opacity:1;paint-order:normal"
         transform="rotate(-90)" />
    </clipPath>
    <clipPath
       clipPathUnits="userSpaceOnUse"
       id="clipPath922">
      <rect
         style="fill:#000000;fill-opacity:0.53266332;stroke:none;stroke-width:4.48228312;stroke-linecap:round;stroke-linejoin:miter;stroke-miterlimit:4;stroke-dasharray:none;stroke-dashoffset:0;stroke-opacity:1;paint-order:normal"
         id="rect924"
         width="620.57751"
         height="750"
         x="148.24641"
         y="137.96495" />
    </clipPath>
  </defs>
  <sodipodi:namedview
     id="base"
     pagecolor="#ffffff"
     bordercolor="#666666"
     borderopacity="1.0"
     inkscape:pageopacity="0.0"
     inkscape:pageshadow="2"
     inkscape:zoom="4.0014918"
     inkscape:cx="2.4158042"
     inkscape:cy="772.12657"
     inkscape:document-units="px"
     inkscape:current-layer="layer2"
     showgrid="false"
     units="px"
     inkscape:window-width="1680"
     inkscape:window-height="987"
     inkscape:window-x="3832"
     inkscape:window-y="288"
     inkscape:window-maximized="1"
     fit-margin-top="0"
     fit-margin-left="15"
     fit-margin-right="15"
     fit-margin-bottom="0"
     inkscape:snap-global="true"
     inkscape:snap-page="true" />
  <metadata
     id="metadata7">
    <rdf:RDF>
      <cc:Work
         rdf:about="">
        <dc:format>image/svg+xml</dc:format>
        <dc:type
           rdf:resource="http://purl.org/dc/dcmitype/StillImage" />
        <dc:title></dc:title>
      </cc:Work>
    </rdf:RDF>
  </metadata>
  <g
     inkscape:groupmode="layer"
     id="layer2"
     inkscape:label="Layer 2"
     style="display:inline"
     transform="translate(-148.24642,-137.96495)">
    <g
       id="g918"
       clip-path="url(#clipPath922)">
      <path
         sodipodi:nodetypes="cccccccccccccc"
         inkscape:connector-curvature="0"
         id="path4562"
         d="m 723.1319,194.21495 h 29.75454 V 313.49104 H 691.0345 L 544.83903,595.57333 V 886.08996 H 368.65474 V 595.57333 L 214.96207,314.42818 H 165.29309 V 194.21495 h 25.52878 m 24.18729,0 h 488.2083"
         style="opacity:1;vector-effect:none;fill:none;fill-opacity:1;stroke:#000000;stroke-width:3.74999976;stroke-linecap:butt;stroke-linejoin:miter;stroke-miterlimit:4;stroke-dasharray:none;stroke-dashoffset:0;stroke-opacity:1" />
      <path
         inkscape:connector-curvature="0"
         id="path4564"
         d="M 514.53395,310.94346 H 399.89282 l 58.31456,111.32779 z"
         style="opacity:1;vector-effect:none;fill:none;fill-opacity:1;stroke:#000000;stroke-width:3.74999976;stroke-linecap:butt;stroke-linejoin:miter;stroke-miterlimit:4;stroke-dasharray:none;stroke-dashoffset:0;stroke-opacity:1" />
      <path
         inkscape:connector-curvature="0"
         id="path4566"
         d="M 457.21546,195.41008 V 311.14816"
         style="opacity:1;vector-effect:none;fill:none;fill-opacity:1;stroke:#000000;stroke-width:3.74999976;stroke-linecap:butt;stroke-linejoin:miter;stroke-miterlimit:4;stroke-dasharray:none;stroke-dashoffset:0;stroke-opacity:1" />
      <path
         sodipodi:nodetypes="cssccssssssssssssscssssscscccssccscsscssssscsssssssssscsccscscscccsscc"
         inkscape:original-d="m 145.25234,161.40245 h 5.43285 c 7.19962,0 34.289,33.53811 35.69379,43.84771 1.40479,10.30959 -7.18388,8.7458 -10.77723,13.1201 -3.59335,4.37431 2.81239,8.43342 4.21718,12.65153 1.40478,4.21812 3.74954,39.98415 5.6229,59.97763 1.87336,19.99348 19.36871,2.81051 29.05166,4.21718 9.68295,1.40667 23.11732,21.55352 34.67457,32.33169 11.55725,10.77817 23.74208,54.97856 35.61172,82.46924 11.86963,27.49068 30.30213,53.41664 45.4518,80.12637 15.14966,26.70972 28.11544,58.10238 42.17176,87.15499 14.05633,29.0526 13.43343,19.05446 20.14874,28.58309 6.71531,9.52863 -4.9972,38.10985 -7.4972,57.16617 -2.50001,19.05634 6.24861,30.92503 9.3715,46.38896 3.1229,15.46392 -10.6201,51.85471 -15.93155,77.78348 -5.31147,25.92877 5.62383,23.74021 8.43435,35.61172 2.81051,11.87151 -2.18575,25.61451 -3.28003,38.42317 -1.09428,12.80866 25.92877,-9.4e-4 38.89174,0 12.96298,9.3e-4 0.31332,-15.9325 0.46858,-23.89734 0.15525,-7.96484 2.5,-23.74208 3.7486,-35.61171 1.2486,-11.86964 10.3096,-6.87338 15.46299,-10.30866 5.15338,-3.43528 7.49813,12.18202 11.2458,18.27444 3.74766,6.09241 -7.80865,20.92875 -11.71438,31.39454 -3.90573,10.46578 -1.24859,18.42968 -1.8743,27.64593 -0.62571,9.21626 10.93435,-0.93809 16.40013,-1.40572 5.46577,-0.46764 38.73649,4.37243 58.10333,6.56005 19.36684,2.18762 12.49628,-3.74954 18.74301,-5.6229 6.24673,-1.87337 0.6257,-3.43715 0.93715,-5.15433 0.31145,-1.71717 -2.18574,-15.62012 -3.28003,-23.42876 -1.09428,-7.80865 5.31146,-18.43157 7.96578,-27.64595 2.65432,-9.21436 -7.49626,-39.36125 -11.2458,-59.04047 -3.74954,-19.67922 5.31145,-16.24488 7.96578,-24.36591 2.65432,-8.12104 -5.93435,-40.92317 -8.90294,-61.38335 -2.96857,-20.46019 5.93623,-10.3096 8.90294,-15.46299 2.96671,-5.15339 -8.43342,-19.99348 -12.65154,-29.98881 -4.21811,-9.99534 -6.8715,6.55911 -10.30865,9.84007 -3.43716,3.28097 -13.11917,22.80306 -19.68016,34.20599 -6.56099,11.40295 -4.06004,-10.30958 -6.09148,-15.46297 -2.03143,-5.15339 11.55913,-31.55168 17.33729,-47.32611 5.77816,-15.77442 -10.62011,-14.68295 -15.93156,-22.02302 -5.31146,-7.34009 -7.80865,-40.29841 -11.71438,-60.44622 -3.90574,-20.14779 -23.42783,-21.86777 -35.14314,-32.80026 -11.71532,-10.93249 7.49814,-11.24675 11.2458,-16.86871 3.74766,-5.62196 15.62011,9.05818 23.42876,13.58869 7.80865,4.53049 14.68296,19.05445 22.02303,28.58308 7.34009,9.52864 7.18576,39.35939 10.77724,59.04048 3.59147,19.6811 11.55912,19.99161 17.33728,29.98882 5.77816,9.99721 6.56099,-2.18763 9.84008,-3.28003 3.27909,-1.0924 1.87524,-12.18389 2.81145,-18.27444 0.93621,-6.09054 10.30959,-24.36685 15.46298,-36.54886 5.15339,-12.18202 -2.18574,-22.49255 -3.28002,-33.73742 -1.09428,-11.24486 17.18203,-10.3096 25.77164,-15.46299 8.5896,-5.15338 7.49813,-35.61265 11.2458,-53.41756 3.74767,-17.80493 18.43157,-13.74582 27.64594,-20.61732 9.21437,-6.8715 6.2486,-18.43156 9.37151,-27.64593 3.1229,-9.21438 -7.49627,-1.25048 -11.24581,-1.87431 -3.74954,-0.62383 -9.37057,-6.87337 -14.05726,-10.30865 -4.68668,-3.43529 4.68669,-5.93623 7.02863,-8.90294 2.34194,-2.9667 29.0526,-8.43528 43.5775,-12.65152 14.52489,-4.21625 2.5,-5.62385 3.7486,-8.43436 1.24859,-2.81051 7.81052,-26.24115 11.71438,-39.36032 3.90385,-13.11917 7.18576,-4.06192 10.77723,-6.09148 3.59147,-2.02955 17.18203,-4.68668 25.77164,-7.02862 8.58961,-2.34194 9.99721,-6.56099 14.9944,-9.84009 4.99721,-3.27908 16.24488,-1.87523 24.36592,-2.81145 8.12103,-0.9362 1.25047,-12.80866 1.87429,-19.21158 0.62384,-6.40292 0.9381,-36.5498 1.40573,-54.8233 0.46764,-18.2735 -4.99719,-6.56099 -7.4972,-9.84008 -2.50001,-3.27909 -47.79373,-39.78766 -4.21718,-40.56768 h 39.36032"
         inkscape:path-effect="#path-effect4570"
         inkscape:connector-curvature="0"
         id="path4568"
         d="m 145.25234,161.40245 h 5.43285 c 6.21611,0 12.49361,0.0656 18.54195,1.50008 6.04833,1.43446 11.84881,4.28629 16.19986,8.7257 4.35105,4.43941 7.13907,10.45389 7.38739,16.66504 0.24832,6.21114 -2.09,12.51196 -6.43541,16.95689 -2.02551,2.0719 -4.43615,3.72977 -6.52573,5.73703 -1.0448,1.00363 -2.01175,2.09916 -2.77135,3.3328 -0.7596,1.23365 -1.30843,2.61174 -1.48015,4.05027 -0.26721,2.23842 0.38536,4.49183 1.29296,6.55537 0.90759,2.06353 2.07407,4.0083 2.92422,6.09616 1.98357,4.87142 2.15428,10.31091 1.54219,15.53495 -0.61208,5.22405 -1.97107,10.32769 -2.95859,15.49394 -0.98752,5.16625 -1.60269,10.49262 -0.71293,15.6766 0.44488,2.59199 1.26922,5.13004 2.55551,7.42389 1.28629,2.29386 3.04246,4.33977 5.19672,5.84825 4.06516,2.84655 9.2276,3.60672 14.18883,3.72768 4.96122,0.12096 9.9653,-0.31212 14.86283,0.4895 8.09901,1.32563 15.3786,5.99458 21.04442,11.93173 5.66582,5.93716 9.86779,13.1064 13.63015,20.39996 13.73269,26.62161 22.23962,55.66469 35.61172,82.46924 13.71382,27.48953 32.39275,52.31981 45.4518,80.12637 13.77448,29.32993 21.47836,62.21979 42.17176,87.15499 3.75403,4.52354 7.89167,8.72116 11.5707,13.30591 3.67903,4.58474 6.9294,9.63474 8.57804,15.27718 2.72417,9.3234 0.85328,19.33819 -1.69807,28.71035 -2.55135,9.37217 -5.79731,18.74259 -5.79913,28.45582 -0.001,7.91258 2.15804,15.65025 4.39456,23.24017 2.23652,7.58992 4.58444,15.24595 4.97694,23.14879 0.66239,13.33681 -4.25857,26.23395 -8.82899,38.78068 -4.57042,12.54673 -8.92963,25.77514 -7.10256,39.0028 0.83754,6.06365 2.95078,11.86404 4.8482,17.68377 1.89741,5.81972 3.6055,11.80676 3.58615,17.92795 -0.0206,6.50547 -1.98614,12.82154 -3.37162,19.17779 -1.38548,6.35625 -2.16984,13.14559 0.0916,19.24538 1.45363,3.9209 4.149,7.36862 7.59494,9.73759 3.44594,2.36897 7.6256,3.65029 11.80726,3.63428 4.18166,-0.016 8.34729,-1.32712 11.79264,-3.69694 3.44534,-2.36983 6.15747,-5.78692 7.6969,-9.67493 1.48382,-3.74754 1.87818,-7.85033 1.74807,-11.87884 -0.13012,-4.0285 -0.76708,-8.0206 -1.27949,-12.0185 -0.7708,-6.0139 -1.26182,-12.09177 -0.83545,-18.13986 0.42637,-6.04809 1.79599,-12.08781 4.58405,-17.47185 1.52243,-2.93998 3.49953,-5.70766 6.1511,-7.69018 2.65158,-1.98253 6.03902,-3.11806 9.31189,-2.61848 1.93528,0.29541 3.76953,1.14931 5.30433,2.3646 1.5348,1.2153 2.77457,2.7844 3.69106,4.51432 1.83298,3.45982 2.35744,7.4816 2.25041,11.39552 -0.30925,11.30932 -5.5696,21.89518 -11.71438,31.39454 -2.84781,4.4025 -5.97688,8.81869 -7.05428,13.95008 -0.5387,2.5657 -0.52947,5.28179 0.30797,7.76608 0.83744,2.48429 2.54815,4.71624 4.87201,5.92977 2.49836,1.30466 5.48342,1.35559 8.25685,0.85354 2.77342,-0.50206 5.42443,-1.51641 8.14328,-2.25926 9.50113,-2.59591 19.6159,-1.81882 29.28645,0.0495 9.67056,1.86831 19.11723,4.79977 28.81688,6.51057 3.47144,0.61228 7.05088,1.06521 10.50422,0.35792 1.72666,-0.35365 3.40463,-1.00163 4.85448,-2.00382 1.44986,-1.00218 2.66533,-2.3678 3.38431,-3.977 0.71752,-1.60593 0.92395,-3.39545 0.93715,-5.15433 0.0297,-3.95328 -0.86776,-7.84734 -1.73061,-11.70542 -0.86285,-3.85808 -1.70074,-7.77285 -1.54942,-11.72334 0.18426,-4.81057 1.82459,-9.43603 3.5766,-13.92 1.75202,-4.48397 3.64894,-8.9691 4.38918,-13.72595 0.77962,-5.00989 0.24061,-10.15391 -0.94061,-15.08458 -1.18121,-4.93068 -2.993,-9.68407 -4.79117,-14.42468 -1.79816,-4.74062 -3.59298,-9.50172 -4.73828,-14.44087 -1.14531,-4.93914 -1.62819,-10.09232 -0.77574,-15.09034 1.43988,-8.44218 6.56617,-15.91696 7.96578,-24.36591 0.85957,-5.18895 0.26582,-10.53072 -0.98111,-15.64043 -1.24693,-5.10972 -3.13482,-10.03591 -4.90403,-14.98909 -1.76921,-4.95317 -3.43176,-9.979 -4.20197,-15.18196 -0.77021,-5.20296 -0.61411,-10.62918 1.18417,-15.57187 2.0374,-5.59992 6.0285,-10.24306 8.90294,-15.46299 1.65073,-2.9977 2.94156,-6.2175 3.54824,-9.58545 0.60669,-3.36794 0.51176,-6.89232 -0.53709,-10.14977 -1.04885,-3.25746 -3.08415,-6.23242 -5.89892,-8.17874 -2.81478,-1.94632 -6.41964,-2.80141 -9.76377,-2.07485 -2.41926,0.52562 -4.6326,1.84656 -6.37963,3.6007 -1.74702,1.75413 -3.04109,3.92838 -3.92902,6.23937 -1.36002,3.53967 -1.78062,7.36254 -2.07577,11.14299 -0.29516,3.78045 -0.48083,7.59613 -1.40705,11.27322 -0.92622,3.6771 -2.66919,7.26544 -5.57567,9.70087 -1.45324,1.21771 -3.18209,2.12349 -5.03543,2.52335 -1.85333,0.39985 -3.83041,0.28096 -5.58624,-0.43444 -1.39111,-0.56679 -2.62422,-1.49701 -3.60094,-2.63826 -0.97672,-1.14126 -1.70028,-2.48986 -2.17315,-3.91564 -0.94573,-2.85155 -0.88427,-5.95874 -0.31739,-8.90907 1.62577,-8.46129 7.1147,-15.55998 11.60475,-22.91361 2.24502,-3.67682 4.28457,-7.52353 5.47197,-11.66469 1.1874,-4.14116 1.48595,-8.61773 0.26057,-12.74781 -1.29779,-4.37413 -4.19448,-8.08321 -7.24194,-11.47883 -3.04746,-3.39561 -6.33758,-6.63457 -8.68962,-10.54419 -2.69002,-4.47143 -4.03418,-9.64493 -4.6289,-14.82915 -0.59473,-5.18422 -0.47203,-10.42001 -0.41996,-15.63797 0.0521,-5.21797 0.0303,-10.46593 -0.84742,-15.6098 -0.87771,-5.14388 -2.65526,-10.21884 -5.8181,-14.3693 -2.49666,-3.27626 -5.77618,-5.87944 -9.23114,-8.12231 -3.45496,-2.24287 -7.11157,-4.15669 -10.63433,-6.29149 -3.52276,-2.1348 -6.94197,-4.51716 -9.73185,-7.54764 -2.78988,-3.03047 -4.93299,-6.76554 -5.54582,-10.83882 -0.55568,-3.69342 0.20629,-7.5963 2.23703,-10.73098 2.03074,-3.13469 5.33798,-5.44819 9.00877,-6.13773 2.32944,-0.43757 4.75721,-0.23333 7.03148,0.4341 2.27427,0.66744 4.40008,1.78844 6.3348,3.15761 3.86944,2.73834 6.94994,6.42162 10.06248,9.99698 7.91812,9.09551 16.43075,17.89892 22.02303,28.58308 9.35384,17.87069 9.55227,38.90704 10.77724,59.04048 0.38147,6.26977 0.91861,12.67904 3.49873,18.40604 1.29005,2.8635 3.09359,5.52201 5.44859,7.59996 2.35501,2.07794 5.27839,3.55619 8.38996,3.98282 1.78536,0.2448 3.62825,0.14125 5.34794,-0.39735 1.7197,-0.5386 3.31165,-1.52111 4.49214,-2.88268 1.03189,-1.19017 1.73267,-2.64386 2.16234,-4.15933 0.42968,-1.51548 0.59638,-3.09509 0.6404,-4.66968 0.088,-3.1492 -0.30697,-6.31086 0.009,-9.44543 0.67011,-6.65401 4.43768,-12.53145 8.01704,-18.18061 1.78969,-2.82458 3.5636,-5.67308 4.94527,-8.71811 1.38166,-3.04504 2.36754,-6.30896 2.50067,-9.65014 0.23025,-5.77862 -2.06581,-11.30927 -3.67355,-16.8645 -0.80387,-2.77762 -1.44481,-5.62645 -1.50942,-8.51733 -0.0646,-2.89089 0.47343,-5.84206 1.90295,-8.35559 1.2588,-2.21335 3.16332,-4.01124 5.28804,-5.41448 2.12472,-1.40323 4.47267,-2.433 6.84631,-3.35459 4.74728,-1.84318 9.78772,-3.36003 13.63729,-6.69392 3.53319,-3.05988 5.74648,-7.43216 6.87651,-11.9675 1.13002,-4.53535 1.25047,-9.25939 1.14874,-13.93229 -0.10173,-4.6729 -0.41946,-9.35047 -0.14291,-14.01628 0.27654,-4.66582 1.17575,-9.37108 3.36346,-13.50149 2.73419,-5.16217 7.31854,-9.12371 12.25447,-12.24788 4.93593,-3.12417 10.29099,-5.52182 15.39147,-8.36944 2.58783,-1.44479 5.12222,-3.01423 7.37449,-4.94077 2.25227,-1.92653 4.22341,-4.22771 5.50623,-6.89953 1.28283,-2.67182 1.84764,-5.73291 1.30219,-8.64611 -0.54544,-2.91321 -2.26298,-5.6463 -4.8114,-7.15952 -1.65281,-0.98142 -3.5738,-1.42661 -5.48588,-1.62389 -1.91208,-0.19728 -3.83982,-0.1602 -5.75993,-0.25042 -3.2283,-0.15168 -6.53339,-0.69844 -9.29182,-2.38248 -1.37922,-0.84202 -2.59973,-1.96539 -3.46302,-3.33139 -0.86329,-1.36601 -1.35814,-2.97981 -1.30242,-4.59478 0.0685,-1.98525 0.9642,-3.8869 2.26443,-5.38867 1.30023,-1.50177 2.98531,-2.63027 4.7642,-3.51427 6.94872,-3.45307 15.05267,-3.24951 22.78706,-3.87214 3.86719,-0.31132 7.75073,-0.85575 11.39558,-2.18507 3.64486,-1.32933 7.06198,-3.49435 9.39486,-6.59431 1.86192,-2.47414 2.96557,-5.43853 3.7486,-8.43436 1.76266,-6.74383 2.00977,-13.78291 3.19613,-20.65159 1.18637,-6.86868 3.49923,-13.87182 8.51825,-18.70873 2.99793,-2.88916 6.80698,-4.83771 10.77723,-6.09148 4.26591,-1.34714 8.72838,-1.92696 13.12337,-2.76176 4.39498,-0.83479 8.81565,-1.95952 12.64827,-4.26686 2.5776,-1.55178 4.81649,-3.59495 7.17458,-5.46351 2.35809,-1.86855 4.91267,-3.60161 7.81982,-4.37658 4.05927,-1.08209 8.34105,-0.19686 12.52737,0.15443 2.09316,0.17564 4.21739,0.214 6.27749,-0.19609 2.06009,-0.41008 4.0652,-1.29515 5.56106,-2.76979 1.19241,-1.17549 2.02327,-2.68857 2.51467,-4.28923 0.49141,-1.60067 0.65371,-3.28912 0.62309,-4.96324 -0.0613,-3.34825 -0.87902,-6.63245 -1.26347,-9.95911 -1.0621,-9.19031 1.19209,-18.39015 2.75472,-27.50871 0.78131,-4.55928 1.39347,-9.168 1.33067,-13.79331 -0.0628,-4.62532 -0.81885,-9.28632 -2.67966,-13.52128 -1.67499,-3.81205 -4.24543,-7.23945 -7.4972,-9.84008 -4.49957,-3.59856 -10.07535,-5.53571 -15.04638,-8.44855 -2.48552,-1.45642 -4.84441,-3.17033 -6.78384,-5.30048 -1.93943,-2.13016 -3.44336,-4.68559 -4.16923,-7.47343 -0.72587,-2.78784 -0.65027,-5.78961 0.28723,-8.51359 0.9375,-2.72397 2.72705,-5.13516 5.01551,-6.88499 2.28845,-1.74983 5.04148,-2.83271 7.8701,-3.37843 2.82863,-0.54572 5.72864,-0.56821 8.60943,-0.56821 h 39.36032"
         style="opacity:1;vector-effect:none;fill:none;fill-opacity:1;stroke:#000000;stroke-width:3.74999976;stroke-linecap:butt;stroke-linejoin:miter;stroke-miterlimit:4;stroke-dasharray:none;stroke-dashoffset:0;stroke-opacity:1" />
      <path
         sodipodi:nodetypes="ccssssssssscccsssscccssscssssscscsssssssssssc"
         inkscape:original-d="m 772.59028,142.65245 h -78.74433 c -21.55446,-0.23429 -3.87397,19.819 -6.36187,36.02618 -2.48789,16.20717 16.79333,21.53962 17.65192,26.77252 1.71716,10.46578 -30.81307,11.82483 -43.15316,12.45054 -12.34009,0.6257 -32.79933,-2.81239 -49.2004,-4.21718 -16.40107,-1.40479 -19.05446,7.80865 -28.58309,11.71438 -9.52863,3.90573 -19.67922,-9.99721 -29.52024,-14.99441 -9.84102,-4.9972 -7.80865,13.74394 -11.71438,20.61731 -3.90574,6.87338 5.93622,24.36498 8.90293,36.54887 2.9667,12.1839 -9.05819,-3.12477 -13.58868,-4.68575 -4.5305,-1.56098 -3.74767,-16.24488 -5.6229,-24.36591 -1.87525,-8.12104 -7.80866,-6.87338 -11.71439,-10.30866 -3.90572,-3.43528 -28.11358,-7.81052 -42.17176,-11.71438 -14.0582,-3.90385 -4.99721,7.18388 -7.49721,10.77723 -2.5,3.59335 0.62571,12.80679 0.93715,19.21159 0.31144,6.4048 9.4e-4,22.80305 0,34.20598 -9.3e-4,11.40294 5.93623,7.18389 8.90293,10.77724 2.9667,3.59335 13.43342,0.93621 20.14874,1.40573 6.7153,0.46951 20.30586,12.18201 30.45738,18.27443 10.15153,6.09241 -3.12289,12.80678 -4.68574,19.21158 -1.56286,6.4048 -23.74021,30.30026 -35.61173,45.4518 -11.8715,15.15153 -12.18201,29.98787 -18.27443,44.98322 -6.09241,14.99534 -9.99534,13.43156 -14.99441,20.14874 -4.99907,6.71718 -7.18388,-5.93623 -10.77723,-8.90294 -3.59335,-2.9667 -5.62196,-15.6201 -8.43435,-23.42876 -2.81239,-7.80864 -18.42969,-18.43156 -27.64594,-27.64593 -9.21625,-9.21438 -2.81051,-21.86778 -4.21717,-32.80027 -1.40667,-10.93249 -15.93063,-15.62011 -23.89735,-23.42876 -7.96671,-7.80865 14.68297,-17.8068 22.02304,-26.70879 7.34007,-8.90199 4.37431,-6.87337 6.56005,-10.30865 2.18576,-3.43528 -13.43155,-1.56286 -20.14873,-2.34288 -6.71719,-0.78002 -13.43155,-12.18389 -20.14874,-18.27443 -6.71718,-6.09055 -19.9916,8.43341 -29.98881,12.65153 -9.99721,4.21811 -4.9972,-24.36685 -7.4972,-36.54887 -2.50001,-12.18202 26.86592,3.1229 40.29746,4.68575 13.43155,1.56286 31.86406,21.86591 47.79468,32.80026 15.93062,10.93437 7.18576,-9.37244 10.77723,-14.05725 3.59147,-4.68481 -6.24673,-19.36871 -9.37151,-29.05166 -3.12477,-9.68295 -47.48135,-11.24675 -71.22343,-16.86871 -23.74208,-5.62197 -43.73275,-5.93623 -65.60053,-8.90293 -21.86778,-2.96671 -31.23741,0.31144 -46.85753,0.46857 -15.62011,0.15713 -13.43155,-5.62384 -20.14873,-8.43435 -6.71718,-2.81051 -14.68245,-61.19198 -46.55713,-61.19198 h -27.44544"
         inkscape:path-effect="#path-effect4575"
         inkscape:connector-curvature="0"
         id="path4572"
         d="m 772.59028,142.65245 h -78.74433 c -2.38043,0 -4.76986,0.0122 -7.12608,0.35081 -2.35623,0.33861 -4.6798,1.00884 -6.77257,2.14319 -2.09277,1.13436 -3.94108,2.7338 -5.30215,4.68673 -1.36107,1.95293 -2.22465,4.24754 -2.50076,6.61191 -0.2761,2.36436 0.0314,4.7853 0.81188,7.03413 0.78051,2.24884 2.02421,4.32263 3.53676,6.16074 3.0251,3.67621 7.05911,6.35434 10.99105,9.03867 4.6724,3.18984 9.33888,6.55167 12.83273,11.00133 1.74692,2.22482 3.18298,4.71228 4.06665,7.39942 0.88366,2.68715 1.20361,5.57926 0.75254,8.37177 -0.68048,4.21274 -3.11691,8.04729 -6.40911,10.76236 -3.29221,2.71507 -7.3934,4.35309 -11.60329,5.051 -8.41977,1.39583 -16.98547,-0.84647 -25.14076,-3.36282 -8.05129,-2.48426 -16.05821,-5.26614 -24.38198,-6.57369 -8.32377,-1.30755 -17.11501,-1.05703 -24.81842,2.35651 -4.80611,2.12968 -9.00697,5.39905 -13.57516,8.00017 -2.2841,1.30056 -4.67617,2.44006 -7.20606,3.15297 -2.52988,0.71291 -5.20861,0.98967 -7.80187,0.56124 -2.77744,-0.45885 -5.37293,-1.70865 -7.72792,-3.25097 -2.35499,-1.54232 -4.49904,-3.38004 -6.68852,-5.14947 -2.18948,-1.76943 -4.44787,-3.48605 -6.96616,-4.74419 -2.51829,-1.25815 -5.3293,-2.04459 -8.13764,-1.84978 -2.27438,0.15777 -4.49295,0.96364 -6.37105,2.2561 -1.8781,1.29247 -3.41538,3.06413 -4.48096,5.07964 -2.13116,4.031 -2.30431,8.95587 -0.86237,13.28157 1.11529,3.34579 3.11667,6.32001 5.22995,9.14353 2.11328,2.82352 4.372,5.55859 6.10874,8.62811 1.73673,3.06952 2.94257,6.5503 2.72722,10.07051 -0.10768,1.7601 -0.57632,3.50773 -1.44828,5.04045 -0.87196,1.53272 -2.15494,2.84365 -3.7147,3.66627 -2.33541,1.23171 -5.20704,1.29581 -7.67848,0.36673 -2.47144,-0.92909 -4.53937,-2.79592 -5.9102,-5.05248 -2.18343,-3.59421 -2.60449,-7.9531 -2.93055,-12.14588 -0.32606,-4.19278 -0.65396,-8.54162 -2.69235,-12.22003 -1.2741,-2.2992 -3.15821,-4.21058 -5.21739,-5.84442 -2.05917,-1.63385 -4.305,-3.01345 -6.497,-4.46424 -6.48066,-4.28925 -12.60462,-9.27035 -19.77798,-12.26025 -3.58668,-1.49495 -7.42592,-2.47013 -11.31158,-2.49782 -3.88567,-0.0277 -7.82327,0.92744 -11.0822,3.04369 -3.76205,2.44296 -6.4892,6.40631 -7.49721,10.77723 -0.72412,3.1399 -0.58937,6.41535 -0.22106,9.61655 0.3683,3.2012 0.96597,6.37846 1.15821,9.59504 0.34247,5.73032 -0.60661,11.44699 -1.16525,17.16028 -0.55863,5.7133 -0.70613,11.61875 1.16525,17.0457 1.55785,4.51772 4.62853,8.64036 8.90293,10.77724 3.04908,1.52431 6.53095,1.97519 9.93982,1.97333 3.40888,-0.002 6.80273,-0.43227 10.20892,-0.5676 6.4574,-0.25655 13.09857,0.60126 18.82788,3.59104 2.86466,1.4949 5.47021,3.51598 7.51558,6.01747 2.04536,2.50149 3.51969,5.48978 4.11392,8.66592 0.61897,3.30835 0.27734,6.74877 -0.63841,9.98755 -0.91576,3.23877 -2.39121,6.29392 -4.04733,9.22403 -9.48443,16.78046 -24.75834,29.52252 -35.61173,45.4518 -9.17341,13.46361 -15.02448,29.01894 -18.27443,44.98322 -0.91757,4.50724 -1.66996,9.1574 -3.93617,13.16008 -1.13311,2.00134 -2.64785,3.81357 -4.55146,5.10414 -1.9036,1.29057 -4.21192,2.03583 -6.50678,1.88452 -2.43894,-0.16081 -4.7456,-1.32252 -6.55793,-2.96256 -1.81234,-1.64005 -3.16291,-3.73622 -4.2193,-5.94038 -1.79933,-3.75429 -2.78453,-7.8352 -3.87693,-11.85253 -1.0924,-4.01732 -2.32889,-8.05971 -4.55742,-11.57623 -3.52897,-5.56854 -9.2102,-9.3361 -14.5479,-13.20536 -2.66885,-1.93464 -5.30125,-3.94347 -7.60986,-6.29632 -2.30862,-2.35284 -4.29538,-5.07134 -5.48818,-8.14425 -2.01756,-5.1977 -1.63838,-10.96642 -1.45419,-16.53891 0.0921,-2.78625 0.12727,-5.58591 -0.22969,-8.35074 -0.35697,-2.76482 -1.11943,-5.50799 -2.53329,-7.91062 -1.44253,-2.45136 -3.51915,-4.4772 -5.77437,-6.21042 -2.25522,-1.73321 -4.70194,-3.19765 -7.08939,-4.74365 -2.38745,-1.546 -4.73592,-3.18996 -6.72351,-5.22454 -1.98759,-2.03459 -3.61122,-4.49304 -4.31008,-7.25015 -0.76712,-3.02638 -0.37336,-6.28436 0.81491,-9.17148 1.18828,-2.88712 3.13825,-5.41964 5.42166,-7.54884 4.56682,-4.25841 10.3588,-6.90135 15.78647,-9.98847 1.93606,-1.10119 3.87944,-2.30385 5.25609,-4.05479 0.68832,-0.87548 1.22291,-1.88276 1.4783,-2.96674 0.25539,-1.08398 0.22248,-2.24656 -0.17434,-3.28712 -0.32475,-0.85157 -0.88604,-1.60542 -1.57938,-2.19696 -0.69334,-0.59155 -1.51601,-1.02347 -2.38324,-1.30372 -1.73447,-0.56051 -3.61218,-0.51457 -5.41287,-0.23158 -1.80069,0.28299 -3.55703,0.79473 -5.34389,1.15483 -1.78687,0.36011 -3.6372,0.56735 -5.42935,0.23455 -2.28315,-0.42398 -4.33835,-1.70773 -6.01997,-3.3092 -1.68161,-1.60147 -3.02726,-3.51741 -4.32731,-5.44156 -1.30006,-1.92416 -2.57377,-3.88002 -4.14021,-5.59431 -1.56644,-1.71429 -3.45878,-3.19339 -5.66125,-3.92936 -2.65719,-0.88792 -5.60131,-0.62932 -8.25023,0.28298 -2.64892,0.91229 -5.041,2.44231 -7.30132,4.09762 -2.26031,1.65531 -4.4202,3.45151 -6.76554,4.98397 -2.34534,1.53247 -4.91129,2.80832 -7.67172,3.28696 -4.28767,0.74346 -8.84282,-0.56198 -12.22724,-3.2974 -3.38441,-2.73543 -5.59234,-6.82306 -6.24618,-11.1253 -0.65384,-4.30225 0.20804,-8.78545 2.21057,-12.64895 2.00254,-3.86351 5.11328,-7.11142 8.76565,-9.47722 6.09404,-3.94737 13.66644,-5.41425 20.86114,-4.43682 7.1947,0.97742 13.98749,4.32369 19.43632,9.12257 7.81084,6.87914 12.759,16.42911 19.92196,23.98052 3.58148,3.7757 7.78669,7.07811 12.65936,8.90569 4.87267,1.82757 10.47439,2.06465 15.21336,-0.0859 2.78412,-1.26346 5.18877,-3.30684 7.00843,-5.76377 1.81966,-2.45693 3.06366,-5.31851 3.7688,-8.29348 1.22577,-5.1715 0.82126,-10.68017 -0.89589,-15.70991 -1.71716,-5.02974 -4.71797,-9.58316 -8.47562,-13.34175 -8.84031,-8.84251 -21.39953,-13.00657 -33.78983,-14.68635 -12.39029,-1.67977 -24.97123,-1.16726 -37.4336,-2.18236 -22.0119,-1.79293 -43.52295,-8.33814 -65.60053,-8.90293 -15.62931,-0.39983 -31.32037,2.20976 -46.85753,0.46857 -3.70015,-0.41466 -7.3958,-1.08155 -10.88184,-2.38945 -3.48604,-1.3079 -6.76899,-3.28382 -9.26689,-6.0449 -2.44379,-2.70128 -4.06424,-6.0684 -5.10905,-9.55802 -1.04481,-3.48961 -1.54219,-7.11835 -1.92295,-10.74107 -0.76154,-7.24543 -1.20761,-14.65373 -3.89691,-21.42454 -2.6893,-6.7708 -7.75314,-12.6445 -14.28747,-15.86612 -3.26716,-1.61081 -6.82572,-2.58654 -10.43436,-3.08333 -3.60864,-0.49678 -7.26372,-0.5189 -10.90639,-0.5189 h -27.44544"
         style="opacity:1;vector-effect:none;fill:none;fill-opacity:1;stroke:#000000;stroke-width:3.74999976;stroke-linecap:butt;stroke-linejoin:miter;stroke-miterlimit:4;stroke-dasharray:none;stroke-dashoffset:0;stroke-opacity:1" />
      <path
         inkscape:original-d="m 298.83634,234.73693 c -0.55316,-2.09751 -28.93545,-9.4e-4 -43.40459,0 -14.46913,9.3e-4 -20.3208,-6.18582 -30.48261,-9.27732 -10.1618,-3.0915 -15.68214,7.50927 -23.52462,11.26531 -7.84248,3.75604 3.75604,23.41325 5.63266,35.12127 1.87661,11.70803 14.57957,-7.51114 21.86796,-11.26532 7.28838,-3.75416 3.75604,-7.06936 5.63265,-10.60264 1.87662,-3.53328 6.84848,-0.88449 10.27132,-1.32533 3.42283,-0.44084 7.29025,0.21995 10.93398,0.33133 3.64372,0.11139 9.05736,3.31239 13.58464,4.96999 4.52728,1.65761 1.76804,11.26438 2.65066,16.89797 0.88262,5.6336 14.1378,17.89103 21.20529,26.83795 7.0675,8.94692 7.51115,-7.73203 11.26532,-11.59664 3.75416,-3.86462 -4.85861,-13.91691 -7.28932,-20.87396 -2.43071,-6.95706 2.20982,-16.1258 3.31332,-24.18729 1.10351,-8.06149 -1.1035,-4.19782 -1.65666,-6.29532 z"
         inkscape:path-effect="#path-effect4584"
         inkscape:connector-curvature="0"
         id="path4582"
         d="m 298.83634,234.73693 c -0.95652,-1.69153 -2.35874,-3.11572 -3.9858,-4.17821 -1.62706,-1.06248 -3.47476,-1.76884 -5.37899,-2.15624 -3.80847,-0.77479 -7.77561,-0.28039 -11.53618,0.70087 -3.76057,0.98126 -7.37748,2.43903 -11.07672,3.63085 -3.69923,1.19182 -7.54233,2.12471 -11.4269,2.00273 -5.33933,-0.16766 -10.39694,-2.30392 -15.28363,-4.46189 -4.88669,-2.15797 -9.87285,-4.40446 -15.19898,-4.81543 -4.51164,-0.34812 -9.08991,0.66877 -13.13731,2.6923 -4.0474,2.02353 -7.57005,5.03194 -10.38731,8.57301 -4.33878,5.45351 -7.0492,12.4479 -6.31946,19.37851 0.36488,3.4653 1.5916,6.85636 3.65687,9.6628 2.06528,2.80644 4.97992,5.00757 8.29525,6.07996 4.28904,1.38735 9.12404,0.81313 13.09241,-1.32525 3.96837,-2.13837 7.06066,-5.77117 8.77555,-9.94007 0.77482,-1.88359 1.28048,-3.86944 2.0623,-5.75013 0.78183,-1.88069 1.88945,-3.70238 3.57035,-4.85251 1.45389,-0.9948 3.23564,-1.41425 4.99408,-1.52056 1.75844,-0.1063 3.51934,0.0802 5.27724,0.19523 3.63884,0.23802 7.29095,0.16952 10.93398,0.33133 2.48323,0.1103 4.9839,0.33181 7.36098,1.0585 2.37708,0.72669 4.64224,1.99376 6.22366,3.91149 1.85853,2.25377 2.63656,5.22715 2.84005,8.14129 0.2035,2.91414 -0.11487,5.83639 -0.18939,8.75668 -0.16589,6.50074 0.97427,13.24427 4.61866,18.62996 1.82219,2.69284 4.25731,4.99604 7.14231,6.49558 2.88499,1.49954 6.22536,2.17077 9.44432,1.71241 2.88683,-0.41107 5.65037,-1.74159 7.7049,-3.8108 2.05454,-2.06922 3.37342,-4.87589 3.56042,-7.78584 0.23876,-3.71527 -1.3036,-7.3004 -3.00902,-10.60975 -1.70541,-3.30936 -3.63663,-6.59734 -4.2803,-10.26421 -0.70817,-4.03432 0.20739,-8.16323 1.2501,-12.12428 1.0427,-3.96106 2.22808,-7.97033 2.06322,-12.06301 -0.0882,-2.18868 -0.57846,-4.38861 -1.65666,-6.29532 z"
         style="opacity:1;vector-effect:none;fill:none;fill-opacity:1;stroke:#000000;stroke-width:3.74999976;stroke-linecap:butt;stroke-linejoin:miter;stroke-miterlimit:4;stroke-dasharray:none;stroke-dashoffset:0;stroke-opacity:1" />
      <path
         inkscape:original-d="m 356.48823,290.40083 c -0.22182,-5.18995 -9.49727,3.53327 -14.24731,5.30132 -4.75004,1.76805 -10.60171,8.61371 -15.90396,12.92197 -5.30227,4.30826 -21.86703,7.95105 -32.80194,11.92798 -10.93492,3.97693 -4.41684,31.58612 -6.62666,47.38058 -2.20982,15.79447 9.94092,6.62572 14.90998,9.93998 4.96905,3.31427 2.65159,-6.62759 3.97599,-9.93998 1.32439,-3.31239 4.4187,-23.8569 6.62665,-35.78393 2.20795,-11.92704 11.92892,-5.08137 17.89197,-7.62066 5.96306,-2.53928 7.73203,22.97147 11.59664,34.4586 3.86461,11.48714 14.1378,10.38083 21.2053,15.57265 7.06749,5.19182 15.46313,28.93545 23.19329,43.40458 7.73016,14.46914 10.3827,11.48526 15.57264,17.22931 5.18994,5.74403 3.31426,-6.18583 4.96999,-9.27732 1.65572,-3.0915 -16.78659,-36.00576 -25.18129,-54.00723 -8.39469,-18.00148 -8.17193,-17.45113 -12.25931,-26.17529 -4.08737,-8.72416 -13.91503,-13.03336 -20.87396,-19.54863 -6.95893,-6.51528 5.74404,-13.47514 8.61465,-20.2113 2.87061,-6.73616 -0.44084,-10.38269 -0.66267,-15.57263 z"
         inkscape:path-effect="#path-effect4588"
         inkscape:connector-curvature="0"
         id="path4586"
         d="m 356.48823,290.40083 c -1.18554,-0.68294 -2.58207,-0.96263 -3.94858,-0.8949 -1.36651,0.0677 -2.70393,0.47238 -3.93083,1.07788 -2.45381,1.21102 -4.43532,3.18112 -6.3679,5.11834 -4.84557,4.8572 -9.79133,9.80626 -15.90396,12.92197 -5.2121,2.6567 -11.02102,3.85023 -16.69746,5.2652 -5.67643,1.41498 -11.43041,3.14466 -16.10448,6.66278 -3.42687,2.57937 -6.14553,6.05135 -8.01584,9.91121 -1.87031,3.85987 -2.90553,8.10021 -3.2332,12.3768 -0.65533,8.55319 1.48701,17.10784 4.62238,25.09257 1.25604,3.19871 2.75517,6.44631 5.37517,8.67004 1.31,1.11186 2.8899,1.93528 4.5853,2.21451 1.6954,0.27924 3.50605,-0.0125 4.94951,-0.94457 1.55905,-1.00672 2.59498,-2.6815 3.16292,-4.44829 0.56793,-1.76679 0.71157,-3.63864 0.81307,-5.49169 0.33615,-6.1368 0.25384,-12.30351 0.97339,-18.40725 0.71955,-6.10374 2.29353,-12.23027 5.65326,-17.37668 1.92772,-2.95287 4.4788,-5.57739 7.65011,-7.11958 1.58565,-0.77109 3.31406,-1.26243 5.07388,-1.37162 1.75982,-0.10918 3.55035,0.16902 5.16798,0.87054 2.90249,1.25873 5.10407,3.82091 6.42892,6.69383 1.32485,2.87292 1.84829,6.05107 2.09724,9.20494 0.24894,3.15387 0.2372,6.32612 0.55822,9.47347 0.32102,3.14735 0.99352,6.31106 2.51226,9.08636 2.13356,3.8988 5.77746,6.75048 9.59632,9.02405 3.81885,2.27356 7.90972,4.08523 11.60898,6.5486 7.02866,4.68043 12.39659,11.5882 16.08487,19.18458 3.68828,7.59639 5.77416,15.88164 7.10842,24.22 0.72101,4.50591 1.29456,9.22447 3.81296,13.02983 1.2592,1.90268 3.01176,3.52308 5.12802,4.37585 2.11625,0.85278 4.60802,0.8775 6.63166,-0.17637 1.6234,-0.84544 2.86046,-2.32387 3.64602,-3.97707 0.78557,-1.6532 1.14856,-3.47832 1.32397,-5.30025 0.48467,-5.03408 -0.42242,-10.13786 -2.13421,-14.89671 -1.7118,-4.75885 -4.21125,-9.19863 -6.96404,-13.44116 -5.50558,-8.48505 -12.11528,-16.36536 -16.08304,-25.66936 -1.90674,-4.47113 -3.16481,-9.18931 -4.86895,-13.74152 -1.70414,-4.55222 -3.92092,-9.02941 -7.39036,-12.43377 -3.49496,-3.4294 -8.02791,-5.55442 -12.09737,-8.27746 -2.03474,-1.36152 -3.97765,-2.89437 -5.55866,-4.76367 -1.58101,-1.86929 -2.79194,-4.09661 -3.21793,-6.5075 -0.32715,-1.85152 -0.18477,-3.76865 0.27246,-5.59241 0.45724,-1.82376 1.22336,-3.55928 2.13635,-5.20294 1.82598,-3.28732 4.23288,-6.21469 6.20584,-9.41595 1.52554,-2.47529 2.81323,-5.20418 2.94883,-8.10865 0.0678,-1.45223 -0.16241,-2.9293 -0.76465,-4.25251 -0.60223,-1.32321 -1.5871,-2.48578 -2.84685,-3.21147 z"
         style="opacity:1;vector-effect:none;fill:none;fill-opacity:1;stroke:#000000;stroke-width:3.74999976;stroke-linecap:butt;stroke-linejoin:miter;stroke-miterlimit:4;stroke-dasharray:none;stroke-dashoffset:0;stroke-opacity:1" />
      <path
         inkscape:original-d="m 374.71154,520.34573 c 2.53927,-0.21995 -5.74217,-22.53155 -8.61465,-33.79594 -2.87249,-11.26437 7.06936,-26.06578 10.60264,-39.09725 3.53328,-13.03149 -10.15993,-14.57958 -15.2413,-21.86797 -5.08138,-7.28837 -16.78659,-27.83288 -25.18129,-41.74792 -8.3947,-13.91503 -9.05549,1.1035 -13.58464,1.65667 -4.52915,0.55316 -8.61372,10.8226 -12.92198,16.2353 -4.30826,5.4127 6.40671,13.69415 9.60865,20.54263 3.20194,6.84848 9.72003,9.27638 14.57864,13.91597 4.85861,4.63959 9.05736,34.01589 13.58464,51.02524 4.52727,17.00935 8.17381,9.05549 12.25931,13.58464 4.0855,4.52915 4.86048,13.47327 7.28932,20.2113 2.42884,6.73803 5.08137,-0.44271 7.62066,-0.66267 z"
         inkscape:path-effect="#path-effect4592"
         inkscape:connector-curvature="0"
         id="path4590"
         d="m 374.71154,520.34573 c 1.30388,-0.91743 2.31354,-2.22716 2.95026,-3.68878 0.63673,-1.46163 0.90789,-3.07057 0.87442,-4.66451 -0.0669,-3.18789 -1.32614,-6.24545 -2.96477,-8.98077 -1.63863,-2.73532 -3.66187,-5.21785 -5.45849,-7.85209 -1.79662,-2.63424 -3.39045,-5.48318 -4.01607,-8.60979 -0.67602,-3.37849 -0.17805,-6.9082 0.89005,-10.18393 1.06809,-3.27572 2.68839,-6.33952 4.30841,-9.38036 1.62003,-3.04084 3.25545,-6.0949 4.3571,-9.3595 1.10165,-3.26459 1.65363,-6.78181 1.04708,-10.17346 -0.79166,-4.42676 -3.47216,-8.28197 -6.43516,-11.6648 -2.963,-3.38283 -6.29185,-6.47473 -8.80614,-10.20317 -4.72185,-7.00201 -6.18691,-15.62075 -9.02357,-23.57546 -1.41833,-3.97735 -3.22405,-7.86755 -5.87044,-11.15809 -2.64639,-3.29053 -6.19789,-5.9618 -10.28728,-7.01437 -4.50483,-1.1595 -9.35507,-0.27948 -13.58464,1.65667 -3.28913,1.50565 -6.30834,3.65906 -8.62292,6.439 -2.31459,2.77993 -3.90287,6.20069 -4.29906,9.7963 -0.42955,3.89842 0.54882,7.87275 2.349,11.35722 1.80018,3.48447 4.39166,6.51018 7.25965,9.18541 4.92802,4.59681 10.80168,8.3347 14.57864,13.91597 2.50386,3.69998 3.94541,8.03276 4.77974,12.42173 0.83432,4.38897 1.08759,8.8642 1.39469,13.3212 0.3071,4.457 0.67327,8.93243 1.72546,13.27433 1.0522,4.34189 2.82472,8.57586 5.68475,12.00798 1.96637,2.3597 4.39281,4.28316 6.65394,6.36212 2.26113,2.07895 4.41255,4.39198 5.60537,7.22252 1.44369,3.42586 1.35438,7.2712 1.902,10.94827 0.27381,1.83854 0.71907,3.6724 1.57377,5.32306 0.85471,1.65066 2.1475,3.11568 3.81355,3.93997 1.19938,0.5934 2.56613,0.83797 3.89869,0.71584 1.33256,-0.12213 2.62758,-0.60848 3.72197,-1.37851 z"
         style="opacity:1;vector-effect:none;fill:none;fill-opacity:1;stroke:#000000;stroke-width:3.74999976;stroke-linecap:butt;stroke-linejoin:miter;stroke-miterlimit:4;stroke-dasharray:none;stroke-dashoffset:0;stroke-opacity:1" />
      <path
         inkscape:original-d="m 435.67676,442.15121 c -1.10538,-0.10951 -29.15635,26.28479 -43.73592,39.4286 -14.57958,13.14379 2.87249,23.85501 4.30732,35.78393 1.43484,11.92892 13.47514,13.25237 20.2113,19.87996 6.73616,6.62759 -0.88262,16.5657 -1.32533,24.84996 -0.44272,8.28425 11.04536,4.19595 16.56663,6.29532 5.52128,2.09938 2.43071,-16.34668 3.64466,-24.51863 1.21395,-8.17193 -17.00747,-29.82088 -25.51261,-44.72991 -8.50515,-14.90904 3.31426,-11.70803 4.96998,-17.56063 1.65573,-5.85261 11.70803,-17.23024 17.56063,-25.84396 5.85261,-8.61371 3.97694,-5.08137 5.964,-7.62065 1.98705,-2.53928 0.44271,-3.75605 0.66267,-5.63266 0.21994,-1.87661 -2.20796,-0.22182 -3.31333,-0.33133 z"
         inkscape:path-effect="#path-effect4596"
         inkscape:connector-curvature="0"
         id="path4594"
         d="m 435.67676,442.15121 c -10.07692,1.98253 -19.51327,6.92863 -27.07581,13.8772 -7.56255,6.94857 -13.25674,15.86162 -16.66011,25.5514 -2.0952,5.96528 -3.3439,12.30966 -2.85359,18.61315 0.49032,6.3035 2.81934,12.57455 7.16091,17.17078 3.30815,3.5022 7.59507,5.88616 11.47949,8.73582 1.94221,1.42483 3.80309,2.9842 5.35572,4.82584 1.55264,1.84165 2.79309,3.98112 3.37609,6.3183 1.01617,4.07369 -0.0172,8.34178 -0.95332,12.43462 -0.46803,2.04642 -0.91343,4.10677 -1.06548,6.20051 -0.15205,2.09375 -0.002,4.23425 0.69347,6.21483 1.11534,3.17461 3.67464,5.81226 6.81859,7.01131 3.14394,1.19905 6.81529,0.93359 9.74804,-0.71599 1.98995,-1.11928 3.622,-2.83377 4.74698,-4.8205 1.12499,-1.98673 1.75201,-4.2382 1.93656,-6.51385 0.36911,-4.55132 -1.00742,-9.0948 -3.03888,-13.18428 -3.88129,-7.8133 -10.05141,-14.20114 -15.38654,-21.10392 -2.66757,-3.4514 -5.15171,-7.07298 -7.0082,-11.02032 -1.85649,-3.94734 -3.0742,-8.24378 -3.11787,-12.60567 -0.0615,-6.14323 2.18762,-12.08327 4.96998,-17.56063 4.72554,-9.30268 11.03815,-17.69977 17.56063,-25.84396 2.01657,-2.51796 4.05753,-5.01834 5.964,-7.62065 0.62163,-0.84852 1.24215,-1.73647 1.48144,-2.76075 0.11964,-0.51214 0.13863,-1.05297 0.009,-1.56276 -0.12929,-0.50979 -0.41269,-0.98661 -0.82811,-1.30915 -0.45275,-0.35153 -1.03567,-0.50329 -1.60851,-0.52363 -0.57284,-0.0203 -1.1424,0.0817 -1.70482,0.1923 z"
         style="opacity:1;vector-effect:none;fill:none;fill-opacity:1;stroke:#000000;stroke-width:3.74999976;stroke-linecap:butt;stroke-linejoin:miter;stroke-miterlimit:4;stroke-dasharray:none;stroke-dashoffset:0;stroke-opacity:1" />
      <path
         inkscape:original-d="m 404.53148,586.94361 c -4.30826,-2.98105 -7.50927,-13.91691 -11.26531,-20.87396 -3.75605,-6.95705 -2.20795,-13.03336 -3.31333,-19.54863 -1.10538,-6.51528 -6.40483,0.66173 -9.60865,0.99399 -3.20382,0.33227 3.75604,10.15994 5.63265,15.24131 1.87662,5.08138 6.18583,13.25238 9.27733,19.87997 3.0915,6.62759 12.59158,19.43725 18.88596,29.15728 6.29439,9.72002 -1.54528,29.59812 -2.31933,44.39858 -0.77404,14.80046 10.60359,36.88744 15.90397,55.33256 5.30039,18.44514 -7.50927,34.45767 -11.26531,51.68791 -3.75605,17.23024 8.39469,7.28838 12.59064,10.93398 4.19594,3.6456 5.96493,-13.69602 8.94598,-20.54263 2.98106,-6.8466 -4.19594,-42.85331 -6.29532,-64.27855 -2.09938,-21.42525 4.86049,-20.98534 7.28933,-31.4766 2.42883,-10.49128 -14.35682,-41.30709 -21.53664,-61.95923 -7.1798,-20.65213 -8.61371,-5.96493 -12.92197,-8.94598 z"
         inkscape:path-effect="#path-effect4600"
         inkscape:connector-curvature="0"
         id="path4598"
         d="m 404.53148,586.94361 c -3.14449,-2.59071 -5.88768,-5.69715 -7.88512,-9.24819 -1.99744,-3.55103 -3.23555,-7.55408 -3.38019,-11.62577 -0.122,-3.43425 0.52468,-6.85922 0.436,-10.29449 -0.0443,-1.71763 -0.27661,-3.4442 -0.86479,-5.05861 -0.58817,-1.6144 -1.54731,-3.11661 -2.88454,-4.19553 -1.41072,-1.13821 -3.24661,-1.77134 -5.05325,-1.62407 -1.80664,0.14728 -3.55534,1.10627 -4.5554,2.61806 -0.80331,1.21436 -1.10203,2.72193 -0.98475,4.17321 0.11728,1.45128 0.63039,2.85036 1.33551,4.12425 1.41024,2.54777 3.55483,4.59924 5.28189,6.94385 4.34766,5.90228 5.87851,13.38481 9.27733,19.87997 2.69714,5.15424 6.52776,9.60786 10.12266,14.18143 3.5949,4.57356 7.03877,9.42006 8.7633,14.97585 2.21391,7.13239 1.41594,14.8288 0.15995,22.19051 -1.25599,7.36172 -2.95597,14.75521 -2.47928,22.20807 0.61728,9.65104 4.82369,18.65014 8.72146,27.50062 3.89777,8.85048 7.62163,18.17116 7.18251,27.83194 -0.40583,8.92842 -4.32356,17.25376 -7.57045,25.58076 -1.62345,4.16351 -3.09906,8.40843 -3.8972,12.8054 -0.79814,4.39696 -0.90152,8.97141 0.20234,13.30175 0.75236,2.95141 2.10191,5.81659 4.28858,7.93681 1.09334,1.06011 2.38779,1.92143 3.81259,2.45915 1.42481,0.53772 2.98089,0.74634 4.48947,0.53802 2.06074,-0.28456 3.97802,-1.34483 5.44174,-2.82306 1.46371,-1.47824 2.48867,-3.35705 3.11036,-5.34228 1.24338,-3.97046 0.90054,-8.24766 0.39388,-12.37729 -2.63237,-21.45548 -9.35688,-42.88009 -6.29532,-64.27855 1.52617,-10.66701 5.44661,-20.8597 7.28933,-31.4766 1.96786,-11.33793 1.49988,-23.17639 -2.05147,-34.12212 -3.55136,-10.94572 -10.26392,-20.95309 -19.48517,-27.83711 -4.19992,-3.1354 -8.87685,-5.61325 -12.92197,-8.94598 z"
         style="opacity:1;vector-effect:none;fill:none;fill-opacity:1;stroke:#000000;stroke-width:3.74999976;stroke-linecap:butt;stroke-linejoin:miter;stroke-miterlimit:4;stroke-dasharray:none;stroke-dashoffset:0;stroke-opacity:1" />
      <path
         inkscape:original-d="m 477.09335,689.65676 c -3.53515,-13.36282 -7.73017,-32.91332 -11.59665,-49.36858 -3.86649,-16.45526 5.96493,-22.75245 8.94598,-34.12727 2.98106,-11.37482 -9.71815,-18.33468 -14.57864,-27.50062 -4.86048,-9.16593 -2.87061,12.58971 -4.30733,18.88597 -1.4367,6.29626 1.76805,30.0399 2.65067,45.06125 0.88261,15.02135 -4.19595,25.62212 -6.29532,38.4346 -2.09938,12.81246 8.17381,36.88743 12.25931,55.33256 4.0855,18.44512 0.44271,26.94746 0.66267,40.42259 0.21994,13.47513 6.62759,2.20795 9.93998,3.31333 3.31239,1.10538 5.30226,-11.48714 7.95198,-17.2293 2.64973,-5.74217 3.31427,-22.08979 4.97,-33.13328 1.65572,-11.04348 -7.0675,-26.72844 -10.60265,-40.09125 z"
         inkscape:path-effect="#path-effect4604"
         inkscape:connector-curvature="0"
         id="path4602"
         d="m 477.09335,689.65676 c -6.46821,-15.79168 -12.85989,-32.35038 -11.59665,-49.36858 0.87292,-11.75981 5.35733,-22.89443 8.94598,-34.12727 1.03528,-3.24053 2.00311,-6.52226 2.42418,-9.89798 0.42107,-3.37573 0.27661,-6.87166 -0.86811,-10.07516 -1.14473,-3.20351 -3.35671,-6.09579 -6.37705,-7.66115 -1.51017,-0.78268 -3.20347,-1.22397 -4.9044,-1.21994 -1.70094,0.004 -3.40623,0.45957 -4.85326,1.35361 -1.46186,0.9032 -2.63658,2.23548 -3.45941,3.74403 -0.82284,1.50855 -1.30303,3.18955 -1.52575,4.89343 -0.44542,3.40775 0.12075,6.85723 0.67783,10.24851 2.44882,14.90745 4.75374,30.10111 2.65067,45.06125 -1.81219,12.891 -6.8758,25.4298 -6.29532,38.4346 0.42371,9.49267 3.83703,18.5563 6.95033,27.53392 3.11331,8.97762 5.99882,18.32159 5.30898,27.79864 -0.50898,6.99236 -2.94653,13.70184 -3.93779,20.64227 -0.49563,3.47022 -0.62476,7.02491 0.034,10.46789 0.65873,3.44298 2.14235,6.78032 4.56649,9.31243 1.27059,1.32718 2.80191,2.428 4.52728,3.05959 1.72536,0.6316 3.65096,0.77534 5.4127,0.25374 1.61933,-0.47944 3.05028,-1.50342 4.14503,-2.78936 1.09475,-1.28594 1.86562,-2.82577 2.3876,-4.4319 1.04395,-3.21226 1.10878,-6.64471 1.41935,-10.00804 1.0281,-11.13403 4.83264,-21.95273 4.97,-33.13328 0.17104,-13.92202 -5.32534,-27.20707 -10.60265,-40.09125 z"
         style="opacity:1;vector-effect:none;fill:none;fill-opacity:1;stroke:#000000;stroke-width:3.74999976;stroke-linecap:butt;stroke-linejoin:miter;stroke-miterlimit:4;stroke-dasharray:none;stroke-dashoffset:0;stroke-opacity:1" />
      <path
         sodipodi:nodetypes="cscsccsscssscssssc"
         inkscape:original-d="m 510.22661,771.16461 c -0.33226,-6.40483 -0.66172,-12.3707 -0.99399,-18.55464 -0.33227,-6.18393 9.05736,-26.94933 11.59665,-35.78394 2.53927,-8.83459 -12.14794,-11.04535 -16.23531,-21.20528 -4.08737,-10.15993 0.6636,-5.52315 0.994,-8.28332 0.33039,-2.76017 -4.85861,-0.22183 -7.28932,-0.33133 -2.43071,-0.10951 0.22182,10.15993 0.33133,15.2413 0.10951,5.08137 -29.66415,40.7602 8.61465,26.17528 8.58643,-3.27159 -0.21994,5.52127 -1.98799,8.94599 -1.76804,3.42471 -4.63772,31.58611 -6.95799,47.38057 -2.32026,15.79447 -7.73016,14.57771 -11.59665,21.86797 -3.86648,7.29025 -6.62571,-9.4e-4 -9.93997,0 -3.31427,9.4e-4 -2.87062,8.8346 -4.30734,13.25331 -1.43671,4.4187 0.8845,20.09991 1.32534,30.15127 0.44084,10.05137 11.70802,-9.4e-4 17.56063,0 5.85261,9.4e-4 14.13781,-16.56757 21.2053,-24.84995 7.06749,-8.28238 -0.88262,-23.19423 -1.32533,-34.78994 -0.44272,-11.59571 -0.66173,-12.81246 -0.99401,-19.21729 z"
         inkscape:path-effect="#path-effect4608"
         inkscape:connector-curvature="0"
         id="path4606"
         d="m 510.22661,771.16461 c -0.70199,-6.18734 -2.28792,-12.46352 -0.99399,-18.55464 1.3531,-6.36967 5.65814,-11.62644 8.9373,-17.25233 1.63958,-2.81294 3.05429,-5.80216 3.68615,-8.99616 0.63186,-3.194 0.43284,-6.62507 -1.0268,-9.53545 -1.03885,-2.07137 -2.66396,-3.79559 -4.42908,-5.29698 -1.76511,-1.5014 -3.68654,-2.80785 -5.4963,-4.25511 -1.80977,-1.44726 -3.52787,-3.06014 -4.75036,-5.02873 -1.22249,-1.96858 -1.91872,-4.33518 -1.55957,-6.62446 0.22149,-1.41179 0.82681,-2.73167 1.20091,-4.11089 0.18705,-0.68962 0.31673,-1.39995 0.3072,-2.11442 -0.01,-0.71447 -0.16317,-1.4356 -0.51411,-2.05801 -0.34447,-0.61093 -0.8737,-1.11227 -1.49124,-1.44475 -0.61754,-0.33248 -1.32077,-0.49781 -2.02212,-0.49983 -1.4027,-0.004 -2.76079,0.64525 -3.77596,1.61325 -0.98776,0.94186 -1.67668,2.17568 -2.05078,3.48824 -0.3741,1.31257 -0.44129,2.70198 -0.28962,4.05836 0.30333,2.71277 1.45543,5.25099 2.67173,7.6947 2.0754,4.16978 4.38751,8.23224 6.12094,12.55538 1.73343,4.32314 2.88192,8.97839 2.49371,13.6199 -0.25503,3.04918 -1.16223,5.9997 -1.98799,8.94599 -4.31887,15.40965 -6.53015,31.38285 -6.95799,47.38057 -0.1218,4.55452 -0.12082,9.22824 -1.74482,13.48513 -0.812,2.12845 -2.03754,4.12424 -3.72456,5.65512 -1.68702,1.53088 -3.85432,2.57496 -6.12727,2.72772 -1.67268,0.11242 -3.33535,-0.2492 -4.99885,-0.45712 -1.66351,-0.20793 -3.4205,-0.24871 -4.94112,0.45712 -1.11454,0.51734 -2.03025,1.4131 -2.67801,2.45724 -0.64776,1.04415 -1.03859,2.23259 -1.26063,3.44111 -0.44409,2.41704 -0.22924,4.90142 -0.3687,7.35496 -0.30023,5.28209 -2.23368,10.33689 -2.93385,15.58097 -0.35009,2.62204 -0.38579,5.31653 0.24392,7.88579 0.62971,2.56926 1.96387,5.01436 4.01527,6.68451 2.39733,1.9518 5.6145,2.71153 8.70098,2.53749 3.08649,-0.17405 6.066,-1.21377 8.85965,-2.53749 5.08487,-2.40936 9.71598,-5.81062 13.41093,-10.05423 3.69496,-4.2436 6.44028,-9.33428 7.79437,-14.79572 1.4044,-5.66435 1.3053,-11.59802 0.73236,-17.40568 -0.57294,-5.80766 -1.60984,-11.56562 -2.05769,-17.38426 -0.49237,-6.39695 -0.27073,-12.84231 -0.99401,-19.21729 z"
         style="opacity:1;vector-effect:none;fill:none;fill-opacity:1;stroke:#000000;stroke-width:3.74999976;stroke-linecap:butt;stroke-linejoin:miter;stroke-miterlimit:4;stroke-dasharray:none;stroke-dashoffset:0;stroke-opacity:1" />
      <path
         inkscape:original-d="m 531.10058,542.54503 c -1.21582,1.10538 -7.28838,-19.21824 -10.93398,-28.82595 -3.6456,-9.60771 -9.27638,-18.55557 -13.91597,-27.83195 -4.6396,-9.27638 13.03335,-11.48714 19.54863,-17.2293 6.51527,-5.74217 1.10538,-20.10179 1.65666,-30.15128 0.55128,-10.04949 8.83647,-6.18581 13.25331,-9.27731 4.41683,-3.0915 5.52315,9.05549 8.28332,13.58463 2.76017,4.52916 9.27825,7.50928 13.91598,11.26532 4.63771,3.75604 -15.90304,20.09992 -23.85597,30.15128 -7.95292,10.05136 -2.42883,22.30879 -3.64466,33.4646 -1.21581,11.15581 -0.44083,14.35682 -0.66266,21.53663 -0.22182,7.17981 -2.42884,2.20795 -3.64466,3.31333 z"
         inkscape:path-effect="#path-effect4612"
         inkscape:connector-curvature="0"
         id="path4610"
         d="m 531.10058,542.54503 c -1.40343,0.59726 -3.01599,0.6454 -4.48179,0.22376 -1.4658,-0.42165 -2.78399,-1.29737 -3.81489,-2.42147 -2.06178,-2.2482 -2.92754,-5.37719 -3.07036,-8.42431 -0.14281,-3.04713 0.36563,-6.08125 0.70919,-9.11231 0.34356,-3.03107 0.51715,-6.1461 -0.27613,-9.09162 -0.69763,-2.59038 -2.11574,-4.93437 -3.74758,-7.06365 -1.63185,-2.12928 -3.48761,-4.07581 -5.20372,-6.13778 -1.71611,-2.06197 -3.30855,-4.26821 -4.31278,-6.75583 -1.00423,-2.48763 -1.38646,-5.29454 -0.65189,-7.87469 0.60719,-2.13271 1.94365,-4.0056 3.55925,-5.52447 1.6156,-1.51887 3.50802,-2.71064 5.43178,-3.81349 1.92376,-1.10285 3.89541,-2.12902 5.73625,-3.36532 1.84084,-1.2363 3.56262,-2.70044 4.82135,-4.52602 1.4554,-2.11082 2.2372,-4.63394 2.54239,-7.17965 0.30519,-2.5457 0.15251,-5.1253 -0.13469,-7.6731 -0.57439,-5.09559 -1.68376,-10.25621 -0.75104,-15.29853 0.571,-3.08688 1.984,-6.11947 4.43409,-8.0821 1.22505,-0.98132 2.69325,-1.67354 4.24468,-1.91179 1.55144,-0.23824 3.18359,-0.0107 4.57454,0.71658 1.19663,0.62571 2.1876,1.59918 2.96875,2.70066 0.78115,1.10147 1.3631,2.33144 1.87303,3.5818 1.01987,2.50072 1.79533,5.16121 3.44154,7.30217 1.83718,2.38932 4.56779,3.88692 7.1693,5.40883 2.60152,1.5219 5.2541,3.23804 6.74668,5.85649 0.87119,1.52834 1.29219,3.29718 1.29105,5.05639 -10e-4,1.75921 -0.4166,3.50766 -1.12606,5.11747 -1.4189,3.21962 -3.96497,5.82835 -6.78779,7.92858 -2.82282,2.10023 -5.94729,3.75183 -8.96366,5.56312 -3.01637,1.8113 -5.97142,3.82151 -8.26951,6.48572 -3.80711,4.41364 -5.52255,10.33695 -5.77092,16.1604 -0.24836,5.82345 0.8589,11.6149 2.12626,17.3042 0.80323,3.60575 1.67666,7.22361 1.82354,10.91483 0.14689,3.69121 -0.48599,7.51603 -2.4862,10.6218 -0.90243,1.40122 -2.11108,2.66069 -3.64466,3.31333 z"
         style="opacity:1;vector-effect:none;fill:none;fill-opacity:1;stroke:#000000;stroke-width:3.74999976;stroke-linecap:butt;stroke-linejoin:miter;stroke-miterlimit:4;stroke-dasharray:none;stroke-dashoffset:0;stroke-opacity:1" />
      <path
         sodipodi:nodetypes="cssssccssccsssc"
         inkscape:original-d="m 555.95053,382.51132 c 4.52728,-1.98705 -0.88262,9.38683 -0.33133,24.51862 0.55128,15.1318 24.96134,6.51528 36.4466,-0.66266 11.48526,-7.17794 -12.36882,-21.20623 -18.55463,-31.80794 -6.18582,-10.60171 3.09338,-23.63601 4.63866,-35.4526 1.54528,-11.8166 -6.62572,-8.83649 -9.93999,-13.25331 -3.31426,-4.41684 -11.70615,12.14793 -17.56063,18.22329 -5.85448,6.07538 -16.34481,24.29681 -24.51862,36.44661 -8.17381,12.1498 -24.51769,24.29679 -36.77793,36.44659 -12.26025,12.14981 -0.44084,17.67014 -0.66267,26.50663 -0.22182,8.83647 -3.31239,4.41682 -4.96999,6.62665 -1.6576,2.20982 10.16181,3.75416 15.2413,5.63265 5.0795,1.87849 9.49915,-27.61199 14.24731,-41.41659 4.74817,-13.80459 19.43912,-17.23023 29.15728,-25.84395 9.71816,-8.61372 9.05737,-3.97693 13.58464,-5.96399 z"
         inkscape:path-effect="#path-effect4616"
         inkscape:connector-curvature="0"
         id="path4614"
         d="m 555.95053,382.51132 c 1.0588,0.41428 1.99653,1.11715 2.73023,1.9857 0.73369,0.86856 1.26604,1.89956 1.59819,2.98693 0.66429,2.17474 0.52533,4.53071 -0.0133,6.73992 -1.07731,4.41843 -3.68469,8.36105 -4.64642,12.80607 -1.16533,5.38602 0.30949,11.27207 3.84866,15.49598 3.53918,4.22391 9.05794,6.70353 14.56723,6.58161 5.50929,-0.12192 10.89947,-2.83109 14.31359,-7.1567 3.41412,-4.32562 4.7975,-10.17985 3.71712,-15.58355 -1.21549,-6.07946 -5.23986,-11.16047 -9.16941,-15.95588 -3.92954,-4.79542 -8.0121,-9.80625 -9.38522,-15.85206 -1.33135,-5.8619 0.0569,-11.97155 1.6556,-17.76625 1.5987,-5.7947 3.43164,-11.69192 2.98306,-17.68635 -0.22245,-2.97257 -1.03551,-5.95006 -2.71385,-8.41356 -1.67833,-2.46351 -4.28263,-4.36925 -7.22614,-4.83975 -2.27209,-0.36318 -4.63892,0.13879 -6.67636,1.20795 -2.03744,1.06916 -3.75823,2.68253 -5.13936,4.52285 -2.76227,3.68062 -4.16494,8.17036 -5.74491,12.49249 -5.0942,13.93553 -12.79855,27.34772 -24.51862,36.44661 -7.0898,5.50417 -15.3979,9.24736 -22.62748,14.56659 -3.6148,2.65962 -6.97066,5.73411 -9.5442,9.41068 -2.57354,3.67657 -4.34083,7.98938 -4.60625,12.46932 -0.26767,4.51795 0.97615,8.97028 1.5737,13.45653 0.29877,2.24312 0.43589,4.52385 0.1411,6.7675 -0.29479,2.24365 -1.03892,4.45801 -2.37747,6.2826 -0.8237,1.12279 -1.85259,2.07588 -2.78764,3.10778 -0.93505,1.0319 -1.79673,2.1808 -2.18235,3.51887 -0.49746,1.72614 -0.12781,3.65376 0.8684,5.14862 0.9962,1.49486 2.58034,2.55889 4.30965,3.04525 1.7293,0.48636 3.59223,0.41441 5.32112,-0.0734 1.72888,-0.48784 3.32806,-1.37987 4.74213,-2.48778 2.93264,-2.2977 5.06669,-5.50204 6.50787,-8.93757 1.44118,-3.43552 2.2246,-7.11067 2.79978,-10.79156 1.15035,-7.36179 1.55802,-15.0479 4.93966,-21.68746 2.97474,-5.84065 8.01478,-10.35856 13.30191,-14.23266 5.28712,-3.8741 10.95017,-7.26372 15.85537,-11.61129 1.95707,-1.73459 3.80885,-3.63261 6.07171,-4.94349 1.13143,-0.65544 2.36273,-1.15717 3.65291,-1.36973 1.29017,-0.21256 2.64234,-0.12721 3.86002,0.34923 z"
         style="opacity:1;vector-effect:none;fill:none;fill-opacity:1;stroke:#000000;stroke-width:3.74999976;stroke-linecap:butt;stroke-linejoin:miter;stroke-miterlimit:4;stroke-dasharray:none;stroke-dashoffset:0;stroke-opacity:1" />
      <path
         inkscape:original-d="m 509.23262,269.19553 c 3.42283,-0.66173 3.09338,-10.82447 4.63866,-16.2353 1.54528,-5.41083 -9.27638,-4.19782 -13.91597,-6.29533 -4.63961,-2.0975 -4.41684,10.60171 -6.62666,15.90397 -2.20982,5.30227 3.75604,5.74217 5.63265,8.61466 1.87662,2.87248 6.84849,-1.32627 10.27132,-1.988 z"
         inkscape:path-effect="#path-effect4620"
         inkscape:connector-curvature="0"
         id="path4618"
         d="m 509.23262,269.19553 c 2.36654,-1.87932 4.18824,-4.46235 5.05492,-7.35738 0.86668,-2.89504 0.75512,-6.0922 -0.41626,-8.87792 -1.09544,-2.60513 -3.12896,-4.82859 -5.68552,-6.03303 -2.55657,-1.20444 -5.62054,-1.34632 -8.23045,-0.2623 -2.87181,1.1928 -5.03876,3.78 -6.10326,6.70179 -1.06451,2.92179 -1.10137,6.14669 -0.5234,9.20218 0.33155,1.75276 0.86774,3.48499 1.7819,5.01679 0.91416,1.53179 2.2275,2.85816 3.85075,3.59787 1.67014,0.76108 3.6001,0.86536 5.38972,0.45808 1.78961,-0.40728 3.4443,-1.30469 4.8816,-2.44608 z"
         style="opacity:1;vector-effect:none;fill:none;fill-opacity:1;stroke:#000000;stroke-width:3.74999976;stroke-linecap:butt;stroke-linejoin:miter;stroke-miterlimit:4;stroke-dasharray:none;stroke-dashoffset:0;stroke-opacity:1" />
      <path
         inkscape:original-d="m 607.30711,313.59412 c 2.53927,-7.50927 -28.27279,-6.62759 -42.41059,-9.93999 -14.13781,-3.31239 22.53156,-8.3947 33.79594,-12.59064 11.26437,-4.19594 17.23024,-4.86049 25.84395,-7.28932 8.61371,-2.42883 7.51114,13.91503 11.26531,20.87396 3.75417,6.95893 -2.42884,21.86702 -3.64466,32.80194 -1.21582,10.93491 -17.89103,7.06749 -26.83795,10.60265 -8.94692,3.53515 -3.75417,-7.95293 -5.63266,-11.92798 -1.87848,-3.97505 5.08137,-15.02135 7.62066,-22.53062 z"
         inkscape:path-effect="#path-effect4628"
         inkscape:connector-curvature="0"
         id="path4626"
         d="m 607.30711,313.59412 c -0.68454,-1.90182 -2.09473,-3.50136 -3.80558,-4.5777 -1.71086,-1.07634 -3.70849,-1.64961 -5.72147,-1.83255 -4.02595,-0.36589 -8.01751,0.77795 -11.91056,1.86715 -3.89304,1.08919 -7.92614,2.14477 -11.93191,1.60075 -2.00289,-0.272 -3.97062,-0.95711 -5.60614,-2.1448 -1.63552,-1.18768 -2.92154,-2.89785 -3.43493,-4.85284 -0.44273,-1.68592 -0.29883,-3.50539 0.31324,-5.13748 0.61208,-1.63208 1.67951,-3.07776 2.99628,-4.21989 2.63354,-2.28425 6.16316,-3.31101 9.63986,-3.56781 3.47669,-0.2568 6.96099,0.19094 10.43154,0.52054 3.47055,0.32959 7.00489,0.53815 10.41502,-0.186 4.47282,-0.94982 8.43908,-3.43348 12.5872,-5.35739 2.07406,-0.96195 4.22531,-1.79407 6.47289,-2.21292 2.24759,-0.41885 4.60481,-0.41098 6.78386,0.28099 2.00155,0.6356 3.80304,1.83558 5.26249,3.34561 1.45945,1.51003 2.58498,3.32371 3.41992,5.25064 1.66987,3.85385 2.17917,8.09707 2.5829,12.27771 0.53619,5.55229 0.91868,11.1427 0.51141,16.70593 -0.40728,5.56323 -1.6279,11.12371 -4.15607,16.09601 -2.46613,4.85027 -6.28422,9.15688 -11.2343,11.41599 -2.47504,1.12956 -5.20454,1.72851 -7.92317,1.62479 -2.71864,-0.10371 -5.42159,-0.92184 -7.68048,-2.43813 -1.9224,-1.29042 -3.51216,-3.08352 -4.51644,-5.16973 -1.00428,-2.0862 -1.41435,-4.46218 -1.11622,-6.75825 0.26246,-2.02137 1.05584,-3.94025 2.02661,-5.73258 0.97076,-1.79232 2.12242,-3.47957 3.16989,-5.22818 1.04748,-1.74861 1.99861,-3.57845 2.52081,-5.54876 0.5222,-1.97031 0.59367,-4.10322 -0.0967,-6.0211 z"
         style="opacity:1;vector-effect:none;fill:none;fill-opacity:1;stroke:#000000;stroke-width:3.74999976;stroke-linecap:butt;stroke-linejoin:miter;stroke-miterlimit:4;stroke-dasharray:none;stroke-dashoffset:0;stroke-opacity:1" />
      <path
         inkscape:original-d="m 655.68169,257.26755 c 12.25837,-3.53328 5.30225,22.97147 7.95198,34.4586 2.64972,11.48714 20.32268,-10.82447 30.48261,-16.23529 10.15993,-5.41084 18.33469,-5.74405 27.50061,-8.61466 9.16594,-2.87061 3.31427,-16.78846 4.97,-25.18129 1.65572,-8.39282 -9.05549,-13.69602 -13.58465,-20.54263 -4.52914,-6.8466 -8.17193,9.93905 -12.25931,14.90998 -4.08737,4.97093 -15.46125,10.38082 -23.19329,15.57263 -7.73203,5.19182 -23.85501,-12.37069 -35.78393,-18.55463 -11.92892,-6.18394 -27.16835,11.70615 -40.75392,17.56064 -13.58559,5.85448 -12.8106,-0.66361 -19.2173,-0.994 -6.40671,-0.3304 -1.98706,11.70616 -2.982,17.56064 -0.99493,5.85448 26.72844,0.44084 40.09126,0.66266 13.36281,0.22182 24.51956,-7.06937 36.77794,-10.60265 z"
         inkscape:path-effect="#path-effect4632"
         inkscape:connector-curvature="0"
         id="path4630"
         d="m 655.68169,257.26755 c 1.89602,2.42547 2.70454,5.55018 2.89451,8.62292 0.18996,3.07274 -0.19009,6.14767 -0.4291,9.21698 -0.23902,3.06931 -0.33248,6.19846 0.4146,9.18505 0.37354,1.49329 0.95853,2.94071 1.80196,4.22838 0.84343,1.28766 1.95018,2.41311 3.27001,3.20527 1.32221,0.79359 2.84066,1.24139 4.37791,1.36336 1.53724,0.12196 3.09264,-0.077 4.57168,-0.51338 2.95809,-0.87278 5.56871,-2.66819 7.86048,-4.73213 2.29177,-2.06394 4.30877,-4.41034 6.46165,-6.61876 2.15288,-2.20842 4.47795,-4.30503 7.21089,-5.73438 4.31015,-2.25424 9.29835,-2.6938 14.10865,-3.41488 2.40516,-0.36054 4.80927,-0.80403 7.1085,-1.59665 2.29924,-0.79263 4.50116,-1.94839 6.28346,-3.60313 3.25363,-3.02078 4.85801,-7.4774 5.3472,-11.8901 0.48919,-4.4127 -0.0216,-8.86572 -0.3772,-13.29119 -0.37109,-4.61812 -0.60821,-9.38971 -2.62598,-13.56025 -1.00888,-2.08527 -2.47064,-3.98316 -4.3796,-5.29542 -1.90897,-1.31227 -4.28444,-2.00456 -6.57907,-1.68696 -1.66964,0.23109 -3.24399,0.98221 -4.57215,2.02005 -1.32815,1.03785 -2.41979,2.3551 -3.32672,3.77587 -1.81386,2.84154 -2.89817,6.07659 -4.36044,9.11406 -2.15313,4.47255 -5.19896,8.58625 -9.21229,11.50736 -4.01334,2.92111 -9.04376,4.57842 -13.981,4.06527 -3.39519,-0.35288 -6.62606,-1.69829 -9.55353,-3.45378 -2.92747,-1.75549 -5.58516,-3.91939 -8.24507,-6.05871 -2.65992,-2.13932 -5.34721,-4.27147 -8.31779,-5.95299 -2.97058,-1.68151 -6.25893,-2.90697 -9.66754,-3.08915 -3.76729,-0.20135 -7.51502,0.88149 -10.90373,2.5397 -3.3887,1.65821 -6.46564,3.87916 -9.51624,6.09881 -3.0506,2.21965 -6.11085,4.46001 -9.47713,6.16328 -3.36628,1.70327 -7.0855,2.85962 -10.85682,2.75885 -3.26446,-0.0872 -6.42235,-1.10307 -9.63059,-1.71262 -1.60412,-0.30478 -3.23614,-0.50904 -4.86759,-0.44216 -1.63144,0.0669 -3.26772,0.41277 -4.71912,1.16078 -1.48622,0.76596 -2.74951,1.94439 -3.66257,3.34506 -0.91307,1.40066 -1.47891,3.01876 -1.69198,4.67712 -0.42613,3.31672 0.56772,6.72336 2.37255,9.53846 2.03297,3.17095 5.07246,5.65296 8.51028,7.19221 3.43781,1.53926 7.25967,2.15357 11.02178,1.96817 7.52423,-0.37081 14.6134,-3.87182 20.5592,-8.49772 5.66884,-4.41042 10.58925,-9.93275 17.03657,-13.09813 3.22365,-1.58269 6.82585,-2.53045 10.40542,-2.24132 3.57956,0.28912 7.12422,1.90746 9.33595,4.7368 z"
         style="opacity:1;vector-effect:none;fill:none;fill-opacity:1;stroke:#000000;stroke-width:3.74999976;stroke-linecap:butt;stroke-linejoin:miter;stroke-miterlimit:4;stroke-dasharray:none;stroke-dashoffset:0;stroke-opacity:1" />
    </g>
  </g>
  <g
     inkscape:groupmode="layer"
     id="layer3"
     inkscape:label="Layer 3"
     style="display:inline"
     transform="translate(-148.24642,-137.96495)">
    <path
       style="color:#000000;clip-rule:nonzero;display:inline;overflow:visible;visibility:visible;opacity:1;isolation:auto;mix-blend-mode:normal;color-interpolation:sRGB;color-interpolation-filters:linearRGB;solid-color:#000000;solid-opacity:1;fill:none;fill-opacity:1;fill-rule:evenodd;stroke:#000000;stroke-width:4;stroke-linecap:butt;stroke-linejoin:miter;stroke-miterlimit:4;stroke-dasharray:none;stroke-dashoffset:0;stroke-opacity:1;color-rendering:auto;image-rendering:auto;shape-rendering:auto;text-rendering:auto;enable-background:accumulate"
       d="m 196.49302,197.09438 6.62512,7.0066 6.48757,-6.13438"
       id="path4235-4-01-69-2-0-5"
       inkscape:connector-curvature="0"
       inkscape:transform-center-x="-0.19989266"
       inkscape:transform-center-y="0.32180727" />
    <path
       style="color:#000000;clip-rule:nonzero;display:inline;overflow:visible;visibility:visible;opacity:1;isolation:auto;mix-blend-mode:normal;color-interpolation:sRGB;color-interpolation-filters:linearRGB;solid-color:#000000;solid-opacity:1;fill:none;fill-opacity:1;fill-rule:evenodd;stroke:#000000;stroke-width:4;stroke-linecap:butt;stroke-linejoin:miter;stroke-miterlimit:4;stroke-dasharray:none;stroke-dashoffset:0;stroke-opacity:1;color-rendering:auto;image-rendering:auto;shape-rendering:auto;text-rendering:auto;enable-background:accumulate"
       d="m 185.47431,231.94422 6.84305,6.79392 6.29065,-6.33616"
       id="path4235-4-01-69-2-0-5-5"
       inkscape:connector-curvature="0"
       inkscape:transform-center-x="-0.11310765"
       inkscape:transform-center-y="0.41775727" />
    <path
       style="color:#000000;clip-rule:nonzero;display:inline;overflow:visible;visibility:visible;opacity:1;isolation:auto;mix-blend-mode:normal;color-interpolation:sRGB;color-interpolation-filters:linearRGB;solid-color:#000000;solid-opacity:1;fill:none;fill-opacity:1;fill-rule:evenodd;stroke:#000000;stroke-width:4;stroke-linecap:butt;stroke-linejoin:miter;stroke-miterlimit:4;stroke-dasharray:none;stroke-dashoffset:0;stroke-opacity:1;color-rendering:auto;image-rendering:auto;shape-rendering:auto;text-rendering:auto;enable-background:accumulate"
       d="m 285.4706,318.84899 4.10403,-8.72591 -8.07956,-3.80002"
       id="path4235-4-01-69-2-0-5-4"
       inkscape:connector-curvature="0"
       inkscape:transform-center-x="0.57682237"
       inkscape:transform-center-y="0.81626228" />
    <path
       style="color:#000000;clip-rule:nonzero;display:inline;overflow:visible;visibility:visible;opacity:1;isolation:auto;mix-blend-mode:normal;color-interpolation:sRGB;color-interpolation-filters:linearRGB;solid-color:#000000;solid-opacity:1;fill:none;fill-opacity:1;fill-rule:evenodd;stroke:#000000;stroke-width:4;stroke-linecap:butt;stroke-linejoin:miter;stroke-miterlimit:4;stroke-dasharray:none;stroke-dashoffset:0;stroke-opacity:1;color-rendering:auto;image-rendering:auto;shape-rendering:auto;text-rendering:auto;enable-background:accumulate"
       d="m 304.67127,255.49614 6.9709,6.66267 6.16913,-6.45454"
       id="path4235-4-01-69-2-0-5-8"
       inkscape:connector-curvature="0"
       inkscape:transform-center-x="-0.060832649"
       inkscape:transform-center-y="0.47529227" />
    <path
       style="color:#000000;clip-rule:nonzero;display:inline;overflow:visible;visibility:visible;opacity:1;isolation:auto;mix-blend-mode:normal;color-interpolation:sRGB;color-interpolation-filters:linearRGB;solid-color:#000000;solid-opacity:1;fill:none;fill-opacity:1;fill-rule:evenodd;stroke:#000000;stroke-width:4;stroke-linecap:butt;stroke-linejoin:miter;stroke-miterlimit:4;stroke-dasharray:none;stroke-dashoffset:0;stroke-opacity:1;color-rendering:auto;image-rendering:auto;shape-rendering:auto;text-rendering:auto;enable-background:accumulate"
       d="m 374.44236,404.45285 -9.44364,-1.94998 -1.80552,8.74411"
       id="path4235-4-01-69-2-0-5-3"
       inkscape:connector-curvature="0"
       inkscape:transform-center-x="-1.4083077"
       inkscape:transform-center-y="1.3901223" />
    <path
       style="color:#000000;clip-rule:nonzero;display:inline;overflow:visible;visibility:visible;opacity:1;isolation:auto;mix-blend-mode:normal;color-interpolation:sRGB;color-interpolation-filters:linearRGB;solid-color:#000000;solid-opacity:1;fill:none;fill-opacity:1;fill-rule:evenodd;stroke:#000000;stroke-width:4;stroke-linecap:butt;stroke-linejoin:miter;stroke-miterlimit:4;stroke-dasharray:none;stroke-dashoffset:0;stroke-opacity:1;color-rendering:auto;image-rendering:auto;shape-rendering:auto;text-rendering:auto;enable-background:accumulate"
       d="m 302.59453,431.25461 9.64195,0.13217 0.12236,-8.92772"
       id="path4235-4-01-69-2-0-5-6"
       inkscape:connector-curvature="0"
       inkscape:transform-center-x="1.8294674"
       inkscape:transform-center-y="-1.9906428" />
    <path
       style="color:#000000;clip-rule:nonzero;display:inline;overflow:visible;visibility:visible;opacity:1;isolation:auto;mix-blend-mode:normal;color-interpolation:sRGB;color-interpolation-filters:linearRGB;solid-color:#000000;solid-opacity:1;fill:none;fill-opacity:1;fill-rule:evenodd;stroke:#000000;stroke-width:4;stroke-linecap:butt;stroke-linejoin:miter;stroke-miterlimit:4;stroke-dasharray:none;stroke-dashoffset:0;stroke-opacity:1;color-rendering:auto;image-rendering:auto;shape-rendering:auto;text-rendering:auto;enable-background:accumulate"
       d="m 374.98791,476.66168 5.8989,7.62808 7.06303,-5.46196"
       id="path4235-4-01-69-2-0-5-64"
       inkscape:connector-curvature="0"
       inkscape:transform-center-x="-0.47071266"
       inkscape:transform-center-y="0.018877257" />
    <path
       style="color:#000000;clip-rule:nonzero;display:inline;overflow:visible;visibility:visible;opacity:1;isolation:auto;mix-blend-mode:normal;color-interpolation:sRGB;color-interpolation-filters:linearRGB;solid-color:#000000;solid-opacity:1;fill:none;fill-opacity:1;fill-rule:evenodd;stroke:#000000;stroke-width:4;stroke-linecap:butt;stroke-linejoin:miter;stroke-miterlimit:4;stroke-dasharray:none;stroke-dashoffset:0;stroke-opacity:1;color-rendering:auto;image-rendering:auto;shape-rendering:auto;text-rendering:auto;enable-background:accumulate"
       d="m 440.4821,524.60989 9.4779,-1.77596 -1.64442,-8.77583"
       id="path4235-4-01-69-2-0-5-7"
       inkscape:connector-curvature="0"
       inkscape:transform-center-x="1.3776424"
       inkscape:transform-center-y="-1.6546078" />
    <path
       style="color:#000000;clip-rule:nonzero;display:inline;overflow:visible;visibility:visible;opacity:1;isolation:auto;mix-blend-mode:normal;color-interpolation:sRGB;color-interpolation-filters:linearRGB;solid-color:#000000;solid-opacity:1;fill:none;fill-opacity:1;fill-rule:evenodd;stroke:#000000;stroke-width:4;stroke-linecap:butt;stroke-linejoin:miter;stroke-miterlimit:4;stroke-dasharray:none;stroke-dashoffset:0;stroke-opacity:1;color-rendering:auto;image-rendering:auto;shape-rendering:auto;text-rendering:auto;enable-background:accumulate"
       d="m 451.08223,463.79014 7.55056,-5.9978 -5.55353,-6.99125"
       id="path4235-4-01-69-2-0-5-30"
       inkscape:connector-curvature="0"
       inkscape:transform-center-x="-0.058757649"
       inkscape:transform-center-y="-0.43532776" />
    <path
       style="color:#000000;clip-rule:nonzero;display:inline;overflow:visible;visibility:visible;opacity:1;isolation:auto;mix-blend-mode:normal;color-interpolation:sRGB;color-interpolation-filters:linearRGB;solid-color:#000000;solid-opacity:1;fill:none;fill-opacity:1;fill-rule:evenodd;stroke:#000000;stroke-width:4;stroke-linecap:butt;stroke-linejoin:miter;stroke-miterlimit:4;stroke-dasharray:none;stroke-dashoffset:0;stroke-opacity:1;color-rendering:auto;image-rendering:auto;shape-rendering:auto;text-rendering:auto;enable-background:accumulate"
       d="m 479.7347,604.81235 7.41954,6.15914 5.7029,-6.86995"
       id="path4235-4-01-69-2-0-5-0"
       inkscape:connector-curvature="0"
       inkscape:transform-center-x="0.13166236"
       inkscape:transform-center-y="0.33007227" />
    <path
       style="color:#000000;clip-rule:nonzero;display:inline;overflow:visible;visibility:visible;opacity:1;isolation:auto;mix-blend-mode:normal;color-interpolation:sRGB;color-interpolation-filters:linearRGB;solid-color:#000000;solid-opacity:1;fill:none;fill-opacity:1;fill-rule:evenodd;stroke:#000000;stroke-width:4;stroke-linecap:butt;stroke-linejoin:miter;stroke-miterlimit:4;stroke-dasharray:none;stroke-dashoffset:0;stroke-opacity:1;color-rendering:auto;image-rendering:auto;shape-rendering:auto;text-rendering:auto;enable-background:accumulate"
       d="m 490.00957,672.51521 -8.85445,-3.81881 -3.53593,8.19857"
       id="path4235-4-01-69-2-0-5-36"
       inkscape:connector-curvature="0"
       inkscape:transform-center-x="-0.90110768"
       inkscape:transform-center-y="0.69157228" />
    <path
       style="color:#000000;clip-rule:nonzero;display:inline;overflow:visible;visibility:visible;opacity:1;isolation:auto;mix-blend-mode:normal;color-interpolation:sRGB;color-interpolation-filters:linearRGB;solid-color:#000000;solid-opacity:1;fill:none;fill-opacity:1;fill-rule:evenodd;stroke:#000000;stroke-width:4;stroke-linecap:butt;stroke-linejoin:miter;stroke-miterlimit:4;stroke-dasharray:none;stroke-dashoffset:0;stroke-opacity:1;color-rendering:auto;image-rendering:auto;shape-rendering:auto;text-rendering:auto;enable-background:accumulate"
       d="m 394.15162,671.77931 8.33063,4.85645 4.49671,-7.71355"
       id="path4235-4-01-69-2-0-5-2"
       inkscape:connector-curvature="0"
       inkscape:transform-center-x="0.58160237"
       inkscape:transform-center-y="-0.26227775" />
    <path
       style="color:#000000;clip-rule:nonzero;display:inline;overflow:visible;visibility:visible;opacity:1;isolation:auto;mix-blend-mode:normal;color-interpolation:sRGB;color-interpolation-filters:linearRGB;solid-color:#000000;solid-opacity:1;fill:none;fill-opacity:1;fill-rule:evenodd;stroke:#000000;stroke-width:4;stroke-linecap:butt;stroke-linejoin:miter;stroke-miterlimit:4;stroke-dasharray:none;stroke-dashoffset:0;stroke-opacity:1;color-rendering:auto;image-rendering:auto;shape-rendering:auto;text-rendering:auto;enable-background:accumulate"
       d="m 438.82712,709.77915 8.66281,4.23561 3.92184,-8.02112"
       id="path4235-4-01-69-2-0-5-51"
       inkscape:connector-curvature="0"
       inkscape:transform-center-x="0.77638738"
       inkscape:transform-center-y="-0.52308276" />
    <path
       style="color:#000000;clip-rule:nonzero;display:inline;overflow:visible;visibility:visible;opacity:1;isolation:auto;mix-blend-mode:normal;color-interpolation:sRGB;color-interpolation-filters:linearRGB;solid-color:#000000;solid-opacity:1;fill:none;fill-opacity:1;fill-rule:evenodd;stroke:#000000;stroke-width:4;stroke-linecap:butt;stroke-linejoin:miter;stroke-miterlimit:4;stroke-dasharray:none;stroke-dashoffset:0;stroke-opacity:1;color-rendering:auto;image-rendering:auto;shape-rendering:auto;text-rendering:auto;enable-background:accumulate"
       d="m 512.6617,850.80186 -2.68792,9.26065 8.57469,2.4888"
       id="path4235-4-01-69-2-0-5-75"
       inkscape:connector-curvature="0"
       inkscape:transform-center-x="-1.1247527"
       inkscape:transform-center-y="-1.2175978" />
    <path
       style="color:#000000;clip-rule:nonzero;display:inline;overflow:visible;visibility:visible;opacity:1;isolation:auto;mix-blend-mode:normal;color-interpolation:sRGB;color-interpolation-filters:linearRGB;solid-color:#000000;solid-opacity:1;fill:none;fill-opacity:1;fill-rule:evenodd;stroke:#000000;stroke-width:4;stroke-linecap:butt;stroke-linejoin:miter;stroke-miterlimit:4;stroke-dasharray:none;stroke-dashoffset:0;stroke-opacity:1;color-rendering:auto;image-rendering:auto;shape-rendering:auto;text-rendering:auto;enable-background:accumulate"
       d="m 528.86198,553.65862 -8.2726,4.95467 4.58767,7.65981"
       id="path4235-4-01-69-2-0-5-79"
       inkscape:connector-curvature="0"
       inkscape:transform-center-x="-0.34349766"
       inkscape:transform-center-y="0.78837728" />
    <path
       style="color:#000000;clip-rule:nonzero;display:inline;overflow:visible;visibility:visible;opacity:1;isolation:auto;mix-blend-mode:normal;color-interpolation:sRGB;color-interpolation-filters:linearRGB;solid-color:#000000;solid-opacity:1;fill:none;fill-opacity:1;fill-rule:evenodd;stroke:#000000;stroke-width:4;stroke-linecap:butt;stroke-linejoin:miter;stroke-miterlimit:4;stroke-dasharray:none;stroke-dashoffset:0;stroke-opacity:1;color-rendering:auto;image-rendering:auto;shape-rendering:auto;text-rendering:auto;enable-background:accumulate"
       d="m 536.25351,421.35103 6.6977,-6.93725 -6.42338,-6.20157"
       id="path4235-4-01-69-2-0-5-81"
       inkscape:connector-curvature="0"
       inkscape:transform-center-x="-0.46005766"
       inkscape:transform-center-y="-0.074692747" />
    <path
       style="color:#000000;clip-rule:nonzero;display:inline;overflow:visible;visibility:visible;opacity:1;isolation:auto;mix-blend-mode:normal;color-interpolation:sRGB;color-interpolation-filters:linearRGB;solid-color:#000000;solid-opacity:1;fill:none;fill-opacity:1;fill-rule:evenodd;stroke:#000000;stroke-width:4;stroke-linecap:butt;stroke-linejoin:miter;stroke-miterlimit:4;stroke-dasharray:none;stroke-dashoffset:0;stroke-opacity:1;color-rendering:auto;image-rendering:auto;shape-rendering:auto;text-rendering:auto;enable-background:accumulate"
       d="m 507.51458,367.20809 1.60907,9.50766 8.80338,-1.48989"
       id="path4235-4-01-69-2-0-5-25"
       inkscape:connector-curvature="0"
       inkscape:transform-center-x="-1.6930227"
       inkscape:transform-center-y="-1.4254828" />
    <path
       style="color:#000000;clip-rule:nonzero;display:inline;overflow:visible;visibility:visible;opacity:1;isolation:auto;mix-blend-mode:normal;color-interpolation:sRGB;color-interpolation-filters:linearRGB;solid-color:#000000;solid-opacity:1;fill:none;fill-opacity:1;fill-rule:evenodd;stroke:#000000;stroke-width:4;stroke-linecap:butt;stroke-linejoin:miter;stroke-miterlimit:4;stroke-dasharray:none;stroke-dashoffset:0;stroke-opacity:1;color-rendering:auto;image-rendering:auto;shape-rendering:auto;text-rendering:auto;enable-background:accumulate"
       d="m 595.87344,321.94914 -9.59223,0.98676 0.91368,8.8817"
       id="path4235-4-01-69-2-0-5-9"
       inkscape:connector-curvature="0"
       inkscape:transform-center-x="-1.5987727"
       inkscape:transform-center-y="1.8307173" />
    <path
       style="color:#000000;clip-rule:nonzero;display:inline;overflow:visible;visibility:visible;opacity:1;isolation:auto;mix-blend-mode:normal;color-interpolation:sRGB;color-interpolation-filters:linearRGB;solid-color:#000000;solid-opacity:1;fill:none;fill-opacity:1;fill-rule:evenodd;stroke:#000000;stroke-width:4;stroke-linecap:butt;stroke-linejoin:miter;stroke-miterlimit:4;stroke-dasharray:none;stroke-dashoffset:0;stroke-opacity:1;color-rendering:auto;image-rendering:auto;shape-rendering:auto;text-rendering:auto;enable-background:accumulate"
       d="m 644.25493,356.46541 -1.4658,-9.53079 -8.82481,1.35723"
       id="path4235-4-01-69-2-0-5-29"
       inkscape:connector-curvature="0"
       inkscape:transform-center-x="1.7254974"
       inkscape:transform-center-y="1.4660823" />
    <path
       style="color:#000000;clip-rule:nonzero;display:inline;overflow:visible;visibility:visible;opacity:1;isolation:auto;mix-blend-mode:normal;color-interpolation:sRGB;color-interpolation-filters:linearRGB;solid-color:#000000;solid-opacity:1;fill:none;fill-opacity:1;fill-rule:evenodd;stroke:#000000;stroke-width:4;stroke-linecap:butt;stroke-linejoin:miter;stroke-miterlimit:4;stroke-dasharray:none;stroke-dashoffset:0;stroke-opacity:1;color-rendering:auto;image-rendering:auto;shape-rendering:auto;text-rendering:auto;enable-background:accumulate"
       d="m 541.2814,278.40263 -8.83721,3.85853 3.57272,8.1826"
       id="path4235-4-01-69-2-0-5-55"
       inkscape:connector-curvature="0"
       inkscape:transform-center-x="-0.72881267"
       inkscape:transform-center-y="1.1184723" />
    <path
       style="color:#000000;clip-rule:nonzero;display:inline;overflow:visible;visibility:visible;opacity:1;isolation:auto;mix-blend-mode:normal;color-interpolation:sRGB;color-interpolation-filters:linearRGB;solid-color:#000000;solid-opacity:1;fill:none;fill-opacity:1;fill-rule:evenodd;stroke:#000000;stroke-width:4;stroke-linecap:butt;stroke-linejoin:miter;stroke-miterlimit:4;stroke-dasharray:none;stroke-dashoffset:0;stroke-opacity:1;color-rendering:auto;image-rendering:auto;shape-rendering:auto;text-rendering:auto;enable-background:accumulate"
       d="m 647.23018,273.96294 -9.4513,1.91248 1.77082,8.7512"
       id="path4235-4-01-69-2-0-5-27"
       inkscape:connector-curvature="0"
       inkscape:transform-center-x="-1.3380777"
       inkscape:transform-center-y="1.6227073" />
    <path
       style="color:#000000;clip-rule:nonzero;display:inline;overflow:visible;visibility:visible;opacity:1;isolation:auto;mix-blend-mode:normal;color-interpolation:sRGB;color-interpolation-filters:linearRGB;solid-color:#000000;solid-opacity:1;fill:none;fill-opacity:1;fill-rule:evenodd;stroke:#000000;stroke-width:4;stroke-linecap:butt;stroke-linejoin:miter;stroke-miterlimit:4;stroke-dasharray:none;stroke-dashoffset:0;stroke-opacity:1;color-rendering:auto;image-rendering:auto;shape-rendering:auto;text-rendering:auto;enable-background:accumulate"
       d="m 592.27297,244.42911 6.6436,-6.98908 -6.47138,-6.15147"
       id="path4235-4-01-69-2-0-5-77"
       inkscape:connector-curvature="0"
       inkscape:transform-center-x="-0.48355766"
       inkscape:transform-center-y="-0.053307746" />
    <path
       style="color:#000000;clip-rule:nonzero;display:inline;overflow:visible;visibility:visible;opacity:1;isolation:auto;mix-blend-mode:normal;color-interpolation:sRGB;color-interpolation-filters:linearRGB;solid-color:#000000;solid-opacity:1;fill:none;fill-opacity:1;fill-rule:evenodd;stroke:#000000;stroke-width:4;stroke-linecap:butt;stroke-linejoin:miter;stroke-miterlimit:4;stroke-dasharray:none;stroke-dashoffset:0;stroke-opacity:1;color-rendering:auto;image-rendering:auto;shape-rendering:auto;text-rendering:auto;enable-background:accumulate"
       d="m 683.83422,229.17985 -5.99319,7.55423 6.99467,5.54923"
       id="path4235-4-01-69-2-0-5-99"
       inkscape:connector-curvature="0"
       inkscape:transform-center-x="0.25068736"
       inkscape:transform-center-y="-0.19257275" />
    <path
       style="color:#000000;clip-rule:nonzero;display:inline;overflow:visible;visibility:visible;opacity:1;isolation:auto;mix-blend-mode:normal;color-interpolation:sRGB;color-interpolation-filters:linearRGB;solid-color:#000000;solid-opacity:1;fill:none;fill-opacity:1;fill-rule:evenodd;stroke:#000000;stroke-width:4;stroke-linecap:butt;stroke-linejoin:miter;stroke-miterlimit:4;stroke-dasharray:none;stroke-dashoffset:0;stroke-opacity:1;color-rendering:auto;image-rendering:auto;shape-rendering:auto;text-rendering:auto;enable-background:accumulate"
       d="m 723.95106,202.73855 -8.93457,-3.62742 -3.35871,8.27275"
       id="path4235-4-01-69-2-0-5-95"
       inkscape:connector-curvature="0"
       inkscape:transform-center-x="-0.95685768"
       inkscape:transform-center-y="0.76727228" />
  </g>
</svg>
