<?xml version="1.0" encoding="UTF-8" standalone="no"?>
<!-- Created with Inkscape (http://www.inkscape.org/) -->

<svg
   xmlns:dc="http://purl.org/dc/elements/1.1/"
   xmlns:cc="http://creativecommons.org/ns#"
   xmlns:rdf="http://www.w3.org/1999/02/22-rdf-syntax-ns#"
   xmlns:svg="http://www.w3.org/2000/svg"
   xmlns="http://www.w3.org/2000/svg"
   xmlns:sodipodi="http://sodipodi.sourceforge.net/DTD/sodipodi-0.dtd"
   xmlns:inkscape="http://www.inkscape.org/namespaces/inkscape"
   width="672.83844"
   height="800"
   viewBox="0 0 630.78604 750"
   id="svg2"
   version="1.1"
   inkscape:version="0.92.3 (2405546, 2018-03-11)"
   sodipodi:docname="z.svg"
   inkscape:export-filename="C:\Users\zvi\Documents\Mazesplace\Mazes\Alphabet Maze Set\Z\Z (s).png"
   inkscape:export-xdpi="100"
   inkscape:export-ydpi="100">
  <defs
     id="defs4">
    <inkscape:path-effect
       effect="spiro"
       id="path-effect4622"
       is_visible="true" />
    <inkscape:path-effect
       effect="spiro"
       id="path-effect4618"
       is_visible="true" />
    <inkscape:path-effect
       effect="spiro"
       id="path-effect4614"
       is_visible="true" />
    <inkscape:path-effect
       effect="spiro"
       id="path-effect4610"
       is_visible="true" />
    <inkscape:path-effect
       effect="spiro"
       id="path-effect4606"
       is_visible="true" />
    <inkscape:path-effect
       effect="spiro"
       id="path-effect4602"
       is_visible="true" />
    <inkscape:path-effect
       effect="spiro"
       id="path-effect4598"
       is_visible="true" />
    <inkscape:path-effect
       effect="spiro"
       id="path-effect4594"
       is_visible="true" />
    <inkscape:path-effect
       effect="spiro"
       id="path-effect4590"
       is_visible="true" />
    <inkscape:path-effect
       effect="spiro"
       id="path-effect4586"
       is_visible="true" />
    <inkscape:path-effect
       effect="spiro"
       id="path-effect4582"
       is_visible="true" />
    <inkscape:path-effect
       effect="spiro"
       id="path-effect4578"
       is_visible="true" />
    <inkscape:path-effect
       effect="spiro"
       id="path-effect4574"
       is_visible="true" />
    <inkscape:path-effect
       effect="spiro"
       id="path-effect4570"
       is_visible="true" />
    <inkscape:path-effect
       effect="spiro"
       id="path-effect4562"
       is_visible="true" />
    <inkscape:path-effect
       effect="spiro"
       id="path-effect4558"
       is_visible="true" />
    <inkscape:path-effect
       effect="spiro"
       id="path-effect4545"
       is_visible="true" />
    <inkscape:path-effect
       effect="spiro"
       id="path-effect4571"
       is_visible="true" />
    <clipPath
       clipPathUnits="userSpaceOnUse"
       id="clipPath4540">
      <rect
         transform="rotate(90)"
         y="112.13254"
         x="28.427679"
         height="822.85712"
         width="694.28571"
         id="rect4542"
         style="opacity:1;fill:none;fill-opacity:1;fill-rule:evenodd;stroke:#000000;stroke-width:3.99999976;stroke-linecap:round;stroke-linejoin:round;stroke-miterlimit:4;stroke-dasharray:none;stroke-dashoffset:2.4000001;stroke-opacity:1" />
    </clipPath>
    <clipPath
       clipPathUnits="userSpaceOnUse"
       id="clipPath902">
      <rect
         style="fill:#000000;fill-opacity:0.53266332;stroke:none;stroke-width:4.48228312;stroke-linecap:round;stroke-linejoin:miter;stroke-miterlimit:4;stroke-dasharray:none;stroke-dashoffset:0;stroke-opacity:1;paint-order:normal"
         id="rect904"
         width="630.78601"
         height="750"
         x="67.329361"
         y="140.19225" />
    </clipPath>
  </defs>
  <sodipodi:namedview
     id="base"
     pagecolor="#ffffff"
     bordercolor="#666666"
     borderopacity="1.0"
     inkscape:pageopacity="0.0"
     inkscape:pageshadow="2"
     inkscape:zoom="0.49497475"
     inkscape:cx="-338.90394"
     inkscape:cy="503.40818"
     inkscape:document-units="px"
     inkscape:current-layer="layer2"
     showgrid="false"
     units="px"
     inkscape:window-width="1680"
     inkscape:window-height="987"
     inkscape:window-x="3832"
     inkscape:window-y="288"
     inkscape:window-maximized="1"
     fit-margin-top="0"
     fit-margin-left="15"
     fit-margin-right="15"
     fit-margin-bottom="0"
     inkscape:snap-page="true" />
  <metadata
     id="metadata7">
    <rdf:RDF>
      <cc:Work
         rdf:about="">
        <dc:format>image/svg+xml</dc:format>
        <dc:type
           rdf:resource="http://purl.org/dc/dcmitype/StillImage" />
        <dc:title></dc:title>
      </cc:Work>
    </rdf:RDF>
  </metadata>
  <g
     inkscape:groupmode="layer"
     id="layer2"
     inkscape:label="Layer 2"
     style="display:inline"
     transform="translate(-67.329363,-140.19224)">
    <g
       id="g898"
       clip-path="url(#clipPath902)">
      <path
         sodipodi:nodetypes="cccccccccccccc"
         inkscape:connector-curvature="0"
         id="path4550"
         d="m 146.40537,196.44224 h 479.66462 m 29.35756,0 h 26.62519 l 6e-5,168.08914 -348.21435,348.21428 348.21435,-8e-5 v 175.44644 l -598.661249,8e-5 V 711.40638 L 431.60631,363.19209 H 83.391551 V 196.44224 h 31.288709"
         style="opacity:1;vector-effect:none;fill:none;fill-opacity:1;stroke:#000000;stroke-width:4.00031233;stroke-linecap:butt;stroke-linejoin:miter;stroke-miterlimit:4;stroke-dasharray:none;stroke-dashoffset:0;stroke-opacity:1" />
      <path
         sodipodi:nodetypes="ccssscsccssscssscssccscsscszzscssscssssssssscsssssssssssccssssssccssssscsssssssssscssccssssssssssssssscccsssscsscsccsssssssscccscssssscsssssssssssc"
         inkscape:original-d="m 52.588448,163.62974 c 11.161652,-9.4e-4 33.482142,0 33.482142,0 0,0 18.58846,19.9896 29.30181,23.78518 10.71335,3.79558 -2.06873,11.2673 -4.52502,23.76824 -2.4563,12.50094 -5.80264,20.08835 -8.70536,30.13393 -2.902724,10.04559 -0.89192,18.74906 -1.33929,28.125 -0.44736,9.37594 -2.67763,24.55264 -4.017853,36.83035 -1.340224,12.27773 7.590223,12.9455 11.383933,19.41965 3.7937,6.47415 4.46522,17.85621 6.69642,26.78572 2.23121,8.92951 23.21523,-4.91166 34.82143,-7.36607 11.60621,-2.45442 3.57237,-37.50094 5.35715,-56.25 1.78477,-18.74906 24.10808,-30.80452 36.16071,-46.20536 12.05263,-15.40085 2.23308,5.3562 3.34822,8.03571 1.11513,2.67951 -8.48121,14.28477 -12.72322,21.42857 -4.24201,7.1438 -1.33835,24.99907 -2.00893,37.5 -0.67057,12.50094 8.92951,25.89192 13.39286,38.83929 4.46335,12.94737 28.12594,-8.48309 42.1875,-12.72321 14.06157,-4.24014 30.80451,-13.3938 46.20536,-20.08929 15.40084,-6.69549 -3.12406,12.49906 -4.6875,18.75 -1.56344,6.25094 -2.23121,10.71335 -3.34822,16.07143 -1.117,5.35808 8.48308,2.67763 12.72322,4.01786 4.24013,1.34022 34.37594,-16.5188 51.5625,-24.77679 17.18656,-8.25799 13.39379,9.37406 20.08928,14.0625 6.6955,4.68843 13.84023,1.33835 20.75893,2.00893 6.91871,0.67058 -3.12406,-19.6438 -4.6875,-29.46429 -1.56344,-9.82049 -8.92763,-21.4295 -13.39286,-32.14285 -4.46522,-10.71336 17.41165,4.90977 26.11608,7.36607 8.70442,2.45629 12.67266,27.5034 18.75,44.19643 6.07734,16.69303 15.39188,13.49283 24.44196,20.4241 9.05009,6.93127 40.51433,1.22674 59.93304,-1.6741 19.4187,-2.90085 12.94736,8.4812 19.41964,12.72321 6.47228,4.242 -8.03478,7.58835 -12.05357,11.38393 -4.01879,3.79558 -33.48121,6.24906 -50.22322,9.375 -16.742,3.12593 -26.33835,17.8562 -39.50893,26.78571 -13.17057,8.92951 -3.12406,12.05263 -4.6875,18.08036 -1.56343,6.02773 -36.15977,17.8562 -54.24107,26.78571 -18.08129,8.92951 -11.6062,20.98121 -17.41071,31.47322 -5.80451,10.49201 -37.49907,32.58835 -56.25,48.88393 -18.75094,16.29558 -16.96335,37.94549 -25.44643,56.91964 -8.48308,18.97415 0.8938,13.83835 1.33929,20.75893 0.44549,6.92058 -11.60621,3.12406 -17.41072,4.6875 -5.80451,1.56344 -51.78478,24.55264 -77.67857,36.83036 -25.8938,12.27772 -28.57049,36.15977 -42.85714,54.24107 -14.286656,18.08129 -7.14192,18.30264 -10.71429,27.45536 -3.572366,9.15272 5.35808,15.62406 8.03571,23.4375 2.67764,7.81344 -5.3562,19.64191 -8.03571,29.46428 -2.679509,9.82237 2.67951,40.17764 4.01786,60.26786 1.33834,20.09023 19.64379,10.71335 29.46428,16.07143 9.82049,5.35808 15.17951,-13.3938 22.76786,-20.08929 7.58835,-6.69548 -5.35621,-43.75093 -8.03571,-65.625 -2.67951,-21.87406 8.48308,-28.12594 12.72321,-42.1875 4.24013,-14.06156 9.37594,7.14192 14.0625,10.71429 4.68656,3.57237 -1.78477,16.51692 -2.67857,24.77679 -0.8938,8.25986 3.57237,42.40977 5.35714,63.61607 1.78478,21.20629 34.82237,24.10621 52.23215,36.16071 17.40978,12.05451 48.21522,1.33835 72.32142,2.00893 24.10621,0.67058 37.05451,-8.9295 55.58036,-13.39286 18.52585,-4.46334 3.12594,-15.62594 4.6875,-23.4375 1.56157,-7.81156 -18.74906,-15.1795 -28.125,-22.76785 -9.37593,-7.58835 -51.78478,-4.0188 -77.67857,-6.02679 -25.89379,-2.00799 -5.35621,-2.23308 -8.03571,-3.34821 -2.67952,-1.11514 6.69736,-8.48308 10.04464,-12.72322 3.34727,-4.24013 34.37594,0.44549 51.5625,0.66964 17.18657,0.22416 28.57236,3.5705 42.85714,5.35715 14.28478,1.78665 15.17951,-1.34022 22.76786,-2.00893 7.58835,-0.6687 6.69737,17.40977 10.04464,26.11607 3.34728,8.70629 -2.67763,25.44549 -4.01786,38.16964 -1.34022,12.72416 22.7688,7.14192 34.1518,10.71429 11.38298,3.57237 43.3045,-14.73308 64.95535,-22.09822 21.65085,-7.36513 28.12594,7.58835 42.1875,11.38393 14.06156,3.79558 25.00094,7.14192 37.5,10.71429 12.49906,3.57237 12.94736,-3.57237 19.41965,-5.35714 6.47227,-1.78478 26.34021,1.78477 39.50892,2.67857 13.16871,0.89379 21.87594,-14.73309 32.8125,-22.09822 10.93657,-7.36513 -3.57049,-17.85808 -5.35714,-26.78571 -1.78665,-8.92764 10.2688,-16.96523 15.40179,-25.44643 5.13299,-8.4812 -6.24907,-17.85808 -9.375,-26.78571 -3.12594,-8.92764 2.23307,-27.23308 3.34821,-40.84822 1.11513,-13.61513 -18.74906,-0.89379 -28.125,-1.33928 -9.37594,-0.44549 -15.62406,8.92763 -23.4375,13.39285 -7.81344,4.46523 -26.78478,-6.69737 -40.17858,-10.04464 -13.39379,-3.34727 -30.80263,-2.23308 -46.20535,-3.34821 -15.40272,-1.11514 -4.90977,6.24905 -7.36607,9.375 -2.4563,3.12593 8.03665,12.49906 12.05357,18.75 4.01692,6.25093 25.00094,29.90977 37.5,44.86607 12.49906,14.95629 4.91166,15.62406 7.36607,23.4375 2.45442,7.81343 -8.48121,2.67763 -12.72322,4.01785 -4.242,1.34023 -12.05263,-18.30451 -18.08035,-27.45535 -6.02772,-9.15085 -19.19549,-29.46523 -28.79465,-44.19643 -9.59914,-14.7312 -27.67763,-27.23309 -41.51785,-40.84822 -13.84022,-13.61514 -19.64192,7.14192 -29.46429,10.71429 -9.82236,3.57237 -28.12406,-5.35808 -42.1875,-8.03571 -14.06343,-2.67764 -25.44549,9.82049 -38.16964,14.73214 -12.72416,4.91165 -37.05264,-7.59023 -55.58036,-11.38393 -18.52773,-3.7937 -33.03478,2.23121 -49.55357,3.34821 -16.51879,1.11701 0.8938,-18.75094 1.33929,-28.125 0.44549,-9.37406 29.01879,-3.57236 43.52678,-5.35714 14.50799,-1.78477 11.60808,-10.26879 17.41072,-15.40178 5.80263,-5.13299 12.50093,1.33834 18.75,2.00892 6.24906,0.67058 11.16165,-9.37594 16.74107,-14.0625 5.57942,-4.68656 44.19737,-43.3045 66.29465,-64.95536 22.09726,-21.65085 5.8045,-11.60807 8.70535,-17.41071 2.90085,-5.80263 -4.01692,-3.57236 -6.02679,-5.35714 -2.00986,-1.78478 -9.82049,1.33835 -14.73214,2.00892 -4.91165,0.67059 1.78665,-10.26879 2.67858,-15.40178 0.89191,-5.13299 40.62593,-10.26879 60.9375,-15.40179 20.31155,-5.13299 22.76879,-21.87593 34.15178,-32.8125 11.38299,-10.93656 12.05451,-48.66165 18.08035,-72.99107 6.02585,-24.32941 26.45184,-21.76433 42.52233,-41.85268 16.07049,-20.08835 32.47861,-34.93398 45.87054,-43.19196 13.39191,-8.25799 12.0545,-11.16165 18.08035,-16.74107 6.02585,-5.57942 3.57236,1.78477 5.35715,2.67857 1.78477,0.89379 -8.03478,11.6062 -12.05358,17.41071 -4.01879,5.80451 -25.89191,32.14192 -38.83929,48.21429 -12.94736,16.07237 -25.44549,20.53477 -38.16963,30.80357 -12.72416,10.26879 9.3e-4,17.8562 0,26.78571 -9.4e-4,8.92951 13.39379,-1.78665 20.08928,-2.67857 6.69549,-0.89192 15.1795,-23.21522 22.76785,-34.82143 7.58835,-11.6062 21.87595,-12.94736 32.81251,-19.41964 10.93656,-6.47228 32.59022,-53.57237 48.88393,-80.35714 16.2937,-26.78478 -6.6955,-43.75094 -10.04465,-65.625 -3.34915,-21.87406 4.46523,-33.03665 6.69643,-49.55358 2.2312,-16.51691 -8.92763,-16.07236 -13.39285,-24.10714 -4.46523,-8.03478 6.21383,-28.80342 16.74153,-28.80342 h 34.50052 m -1.01884,-18.75 h -32.8125 c 0,0 -29.46335,23.89177 -44.19643,40.18735 -14.73308,16.29558 -1.78478,19.64192 -2.67857,29.46429 -0.8938,9.82236 -11.60621,6.69549 -17.41072,10.04464 -5.80451,3.34915 -14.49445,7.83207 -21.86146,9.61872 -7.36701,1.78665 -16.75367,6.45177 -25.01354,11.80985 -8.25987,5.35808 -26.33835,-2.23308 -28.125,-7.36608 -1.78665,-5.13299 42.85808,-20.09021 52.90179,-26.11606 10.0437,-6.02585 -7.19609,-3.27448 -10.32202,-7.51462 -3.12594,-4.24013 -23.15919,2.82618 -35.2137,6.84497 -12.05451,4.0188 -24.99906,-4.01879 -37.5,-6.02678 -12.50094,-2.00799 -13.83835,5.3562 -20.75893,8.03571 -6.92058,2.67951 -36.60621,-4.0188 -54.24107,-10.04464 -17.63487,-6.02585 -50.6687,7.81157 -68.30357,12.72322 -17.63487,4.91165 -35.93656,-3.57237 -59.59821,-10.04464 -23.66165,-6.47228 -7.58835,21.87405 -18.75001,30.80356 -11.16165,8.92951 -45.9812,-27.45629 -64.28571,-31.47321 -18.30451,-4.01692 -40.17763,4.01692 -60.26786,6.02678 -20.09022,2.00987 -6.69549,-21.4295 -10.04464,-32.14285 C 140.98037,168.9966 98.771927,144.87974 86.751781,144.87974 H 53.368089"
         inkscape:path-effect="#path-effect4558"
         inkscape:connector-curvature="0"
         id="path4556"
         d="M 52.588448,163.62974 H 86.07059 c 6.929966,-0.60968 14.06605,1.57474 19.4673,5.9591 5.40125,4.38436 9.00627,10.91883 9.83451,17.82608 0.96963,8.08635 -1.71884,16.12268 -4.52502,23.76824 -3.61188,9.84073 -7.51834,19.71872 -8.70536,30.13393 -1.06365,9.33272 0.0933,18.84176 -1.33929,28.125 -0.955969,6.1946 -3.045733,12.15477 -4.361172,18.28311 -1.315439,6.12834 -1.822243,12.66529 0.343319,18.54724 1.300157,3.53139 3.497633,6.64967 5.675633,9.71847 2.17799,3.06879 4.38498,6.1784 5.7083,9.70118 1.63563,4.35417 1.83243,9.08977 2.35973,13.71102 0.52729,4.62126 1.48666,9.39891 4.33669,13.0747 2.13359,2.75177 5.23679,4.69921 8.59945,5.60309 3.36265,0.90387 6.96755,0.78697 10.32021,-0.1533 6.70532,-1.88052 12.18306,-6.92783 15.90177,-12.81586 5.13969,-8.13795 7.2717,-17.88405 7.62772,-27.50257 0.35602,-9.61852 -0.96878,-19.21076 -2.27057,-28.74743 -0.89569,-6.56166 -1.78397,-13.15891 -1.6081,-19.77908 0.17588,-6.62018 1.46541,-13.32176 4.68397,-19.10955 3.21855,-5.78779 8.5193,-10.59009 14.91303,-12.31571 3.19687,-0.86282 6.61834,-0.94179 9.8219,-0.10415 3.20356,0.83764 6.17647,2.60502 8.34991,5.10313 1.94179,2.23185 3.23782,5.07944 3.34822,8.03571 0.0792,2.12152 -0.44602,4.23773 -1.31673,6.17396 -0.8707,1.93623 -2.0794,3.70386 -3.40341,5.36341 -2.64802,3.3191 -5.79214,6.26626 -8.00308,9.8912 -3.32777,5.45604 -4.28824,12.06448 -4.1177,18.45301 0.17055,6.38852 1.39207,12.6965 2.10877,19.04699 0.79415,7.03674 0.97517,14.1761 2.62434,21.06279 0.82458,3.44335 2.02045,6.81564 3.78043,9.88795 1.75997,3.07231 4.09854,5.84231 6.98809,7.88855 3.32044,2.35138 7.31395,3.69586 11.36925,4.02587 4.0553,0.33001 8.16685,-0.33615 11.98342,-1.74617 7.63314,-2.82004 13.93369,-8.50704 18.83483,-15.00291 3.17096,-4.20273 5.82532,-8.76832 8.80569,-13.10828 2.98037,-4.33997 6.34492,-8.50959 10.62022,-11.582 4.27531,-3.0724 9.57245,-4.9766 14.80348,-4.38137 2.61551,0.29762 5.1726,1.2228 7.30281,2.76932 2.1302,1.54652 3.81879,3.72315 4.67316,6.21304 1.08213,3.15366 0.79351,6.65314 -0.22076,9.82927 -1.01427,3.17614 -2.71446,6.08417 -4.46674,8.92073 -1.51828,2.45777 -3.10373,4.92239 -3.95576,7.6828 -0.42601,1.38021 -0.66207,2.82787 -0.59224,4.27064 0.0698,1.44276 0.45308,2.8815 1.19978,4.11799 1.22584,2.02991 3.37524,3.40017 5.66986,3.99846 2.29461,0.59829 4.72733,0.48067 7.05336,0.0194 4.82495,-0.95683 9.26161,-3.34681 13.26922,-6.19896 4.0076,-2.85216 7.64959,-6.1798 11.46308,-9.28673 3.81348,-3.10694 7.85276,-6.02471 12.40015,-7.90006 4.54739,-1.87536 9.67517,-2.65074 14.43005,-1.39104 3.98376,1.05541 7.47627,3.4568 10.63866,6.09943 3.16238,2.64264 6.09277,5.57371 9.45062,7.96307 3.0362,2.16049 6.46601,3.8779 10.15121,4.43065 3.68521,0.55276 7.65007,-0.15488 10.60772,-2.42172 2.24721,-1.72233 3.80957,-4.26528 4.52939,-7.00357 0.71982,-2.73829 0.6233,-5.65921 -0.075,-8.40306 -1.3966,-5.48772 -5.07543,-10.11693 -9.14189,-14.05766 -4.66684,-4.52256 -10.04662,-8.48124 -13.47181,-14.00401 -1.7126,-2.76139 -2.89465,-5.90816 -3.01476,-9.15529 -0.12011,-3.24712 0.89159,-6.59422 3.09371,-8.98355 1.76739,-1.91765 4.22932,-3.14298 6.80237,-3.56782 2.57305,-0.42485 5.24668,-0.0727 7.68939,0.84068 4.88542,1.82673 8.70846,5.76863 11.62432,10.09321 4.48584,6.65307 7.1616,14.33499 9.68124,21.95322 2.51964,7.61823 4.96542,15.34766 9.06876,22.24321 5.54249,9.31399 14.19757,16.88544 24.44196,20.4241 9.52677,3.29078 19.91006,3.03599 29.91882,1.84723 10.00877,-1.18876 19.93816,-3.27335 30.01422,-3.52133 4.39085,-0.10806 8.94758,0.17501 12.84837,2.19369 1.9504,1.00934 3.69869,2.4534 4.91157,4.28417 1.21288,1.83078 1.8667,4.05904 1.6597,6.24535 -0.13774,1.45473 -0.64901,2.86358 -1.40893,4.11168 -0.75991,1.2481 -1.76432,2.33854 -2.89624,3.26265 -2.26384,1.84821 -4.99918,3.01831 -7.7484,4.0096 -16.04817,5.78647 -33.46637,6.17575 -50.22322,9.375 -8.20608,1.56672 -16.39115,3.86256 -23.56824,8.13852 -7.17708,4.27596 -13.3146,10.71636 -15.94069,18.64719 -1.96216,5.92575 -1.93575,12.47747 -4.6875,18.08036 -2.2838,4.65008 -6.33959,8.26144 -10.87981,10.75652 -4.54022,2.49507 -9.5704,3.95865 -14.61132,5.15371 -5.04091,1.19506 -10.14896,2.14354 -15.09034,3.69974 -4.94138,1.55621 -9.76298,3.76175 -13.6596,7.17574 -4.5454,3.98241 -7.59619,9.39085 -10.06798,14.90542 -2.47179,5.51457 -4.45982,11.25658 -7.34273,16.5678 -5.97875,11.01472 -15.52712,19.66664 -25.61829,27.09885 -10.09117,7.43221 -20.90782,13.87841 -30.63171,21.78508 -8.53811,6.94249 -16.28188,15.12 -21.28094,24.92341 -4.99905,9.80341 -7.0664,21.38105 -4.16549,31.99623 0.95235,3.4849 2.4192,6.83115 3.0874,10.3815 0.3341,1.77518 0.4642,3.60144 0.21877,5.39104 -0.24544,1.78959 -0.87861,3.54467 -1.96688,4.98639 -0.94207,1.24804 -2.2053,2.23601 -3.5967,2.94952 -1.39141,0.7135 -2.90976,1.15921 -4.45118,1.42211 -3.08286,0.52581 -6.2355,0.3298 -9.36284,0.31587 -14.70847,-0.0655 -29.28197,3.97857 -42.40404,10.62347 -13.12207,6.6449 -24.84474,15.83564 -35.27453,26.20689 -16.36219,16.27035 -29.57482,35.37244 -42.85714,54.24107 -2.89574,4.11364 -5.81621,8.25056 -7.92479,12.81797 -2.10858,4.5674 -3.38052,9.64159 -2.7895,14.63739 0.48705,4.11693 2.2008,7.97522 3.92343,11.74601 1.72263,3.77079 3.49489,7.59208 4.11228,11.69149 0.76871,5.10415 -0.31039,10.32759 -2.03379,15.1931 -1.7234,4.86551 -4.08309,9.47938 -6.00192,14.27118 -3.893766,9.72371 -5.951344,20.24123 -5.442263,30.7032 0.509081,10.46197 3.637983,20.8575 9.460123,29.56466 3.27815,4.90255 7.44063,9.29156 12.51494,12.297 5.07431,3.00543 11.10444,4.56083 16.94934,3.77443 5.26117,-0.70787 10.18771,-3.28649 14.07111,-6.9059 3.8834,-3.61942 6.75648,-8.2421 8.69675,-13.18339 4.12254,-10.4989 4.06448,-22.25331 1.94667,-33.33199 -2.11781,-11.07868 -6.19489,-21.66864 -9.98238,-32.29301 -2.91972,-8.19016 -5.71698,-16.84596 -4.33202,-25.42997 0.69248,-4.29201 2.47992,-8.46974 5.46992,-11.62581 2.99,-3.15606 7.23846,-5.20775 11.58531,-5.13172 3.1361,0.0548 6.2257,1.20906 8.69824,3.139 2.47255,1.92995 4.32807,4.6148 5.36426,7.57529 1.39631,3.9894 1.3119,8.36574 0.57203,12.52719 -0.73988,4.16144 -2.10836,8.18016 -3.2506,12.2496 -2.9521,10.51736 -4.40322,21.50506 -3.68469,32.40522 0.71852,10.90016 3.6445,21.71356 9.04183,31.21085 5.3883,9.4814 13.1751,17.52719 22.22812,23.60778 9.05302,6.08058 19.35076,10.22086 30.00403,12.55293 23.61501,5.16947 48.15263,1.49709 72.32142,2.00893 9.91414,0.20996 19.88758,1.12577 29.70892,-0.24379 4.91066,-0.68478 9.76723,-1.94927 14.24149,-4.08577 4.47425,-2.13649 8.56274,-5.16769 11.62995,-9.0633 2.56227,-3.25429 4.38771,-7.09531 5.22327,-11.15209 0.83556,-4.05678 0.67334,-8.32389 -0.53577,-12.28541 -1.83649,-6.01708 -6.02252,-11.14408 -11.09142,-14.87022 -5.0689,-3.72615 -10.99229,-6.14242 -17.03358,-7.89763 -25.00715,-7.26549 -51.75275,-3.57802 -77.67857,-6.02679 -1.4949,-0.1412 -3.0024,-0.30608 -4.42395,-0.78964 -1.42155,-0.48357 -2.76791,-1.31657 -3.61176,-2.55857 -0.89679,-1.31992 -1.15165,-3.02303 -0.8301,-4.58604 0.32156,-1.56302 1.1877,-2.98514 2.32164,-4.1079 2.26787,-2.24554 5.45478,-3.26371 8.5531,-4.02928 16.83401,-4.15954 34.61829,-3.01538 51.5625,0.66964 7.08765,1.54142 14.08163,3.51999 21.22111,4.80006 7.13947,1.28007 14.49909,1.85123 21.63603,0.55709 3.80925,-0.69073 7.50885,-1.90394 11.31832,-2.59344 3.80947,-0.6895 7.84522,-0.82842 11.44954,0.58451 2.36021,0.92523 4.44908,2.49387 6.08839,4.42759 1.6393,1.93372 2.83559,4.22539 3.60078,6.64222 1.53038,4.83368 1.33362,10.07135 0.35547,15.04626 -1.26481,6.43286 -3.78784,12.55529 -5.24787,18.94666 -0.73001,3.19569 -1.19305,6.47048 -1.08168,9.74659 0.11138,3.27612 0.81231,6.56139 2.31169,9.47639 1.4708,2.85943 3.68859,5.31091 6.30259,7.18349 2.61401,1.87258 5.61706,3.17474 8.73753,3.9508 6.24094,1.55212 12.84032,1.00424 19.11168,-0.42 11.20767,-2.54529 21.58368,-7.78146 32.05743,-12.51336 10.47375,-4.73189 21.41694,-9.05808 32.89792,-9.58486 14.70768,-0.67483 28.95331,4.93199 42.1875,11.38393 5.93748,2.89465 11.80404,5.98897 18.03666,8.17694 6.23262,2.18796 12.92118,3.44998 19.46334,2.53735 6.65841,-0.92884 12.82581,-4.04621 19.41965,-5.35714 6.50247,-1.29277 13.22717,-0.79187 19.79402,0.11906 6.56685,0.91094 13.09347,2.22785 19.7149,2.55951 7.37899,0.36961 15.03642,-0.57061 21.44513,-4.24684 3.20435,-1.83811 6.04667,-4.35089 8.08998,-7.42846 2.0433,-3.07757 3.26537,-6.72882 3.27739,-10.42292 0.015,-4.60146 -1.79127,-8.98246 -3.35578,-13.30982 -1.56452,-4.32735 -2.92814,-8.9687 -2.00136,-13.47589 0.50645,-2.46301 1.67974,-4.74901 3.11641,-6.81272 1.43668,-2.0637 3.13821,-3.92666 4.81816,-5.79768 1.67994,-1.87101 3.35059,-3.76582 4.71446,-5.87835 1.36388,-2.11252 2.41912,-4.46537 2.75276,-6.95768 0.31818,-2.37688 -0.0304,-4.80881 -0.7419,-7.0989 -0.71154,-2.2901 -1.77818,-4.4534 -2.91894,-6.56278 -2.28153,-4.21876 -4.92468,-8.39328 -5.71416,-13.12403 -0.57991,-3.47494 -0.11307,-7.05196 0.76654,-10.46338 0.87962,-3.41142 2.1651,-6.7023 3.2582,-10.05143 1.09311,-3.34913 2.00077,-6.80017 2.0855,-10.32215 0.0847,-3.52198 -0.70945,-7.14797 -2.76203,-10.01126 -1.50361,-2.0975 -3.63652,-3.71404 -6.00947,-4.72866 -2.37295,-1.01462 -4.97877,-1.4394 -7.55878,-1.37713 -5.16002,0.12455 -10.10511,2.15419 -14.55675,4.76651 -3.8986,2.28778 -7.50734,5.03222 -11.28408,7.51601 -3.77674,2.48379 -7.78067,4.7314 -12.15342,5.87684 -6.82982,1.78906 -14.13279,0.76339 -20.83602,-1.45335 -6.70323,-2.21674 -12.95753,-5.57821 -19.34256,-8.59129 -7.28833,-3.43935 -14.88254,-6.46616 -22.87067,-7.5332 -7.98814,-1.06704 -16.4674,-0.0327 -23.33468,4.18499 -1.74522,1.07188 -3.38233,2.34843 -4.69943,3.91686 -1.31711,1.56843 -2.30625,3.44199 -2.66664,5.45814 -0.34386,1.92368 -0.10597,3.92783 0.53347,5.77442 0.63944,1.8466 1.67014,3.54187 2.8954,5.06421 2.45052,3.04468 5.64084,5.38714 8.6247,7.91137 14.90979,12.61312 24.86876,29.97163 37.5,44.86607 2.86191,3.37469 5.91323,6.69971 7.71676,10.74028 0.90177,2.02029 1.47387,4.20853 1.47823,6.42093 0.004,2.21241 -0.57982,4.45023 -1.82892,6.27629 -1.34088,1.96023 -3.41405,3.37979 -5.69207,4.05143 -2.27802,0.67165 -4.74601,0.6134 -7.03115,-0.0336 -2.74773,-0.77795 -5.22167,-2.38418 -7.23986,-4.40461 -2.01819,-2.02043 -3.5979,-4.44613 -4.86972,-7.00303 -2.54362,-5.11379 -3.87692,-10.73389 -5.97077,-16.04771 -6.46252,-16.40072 -19.76226,-29.05828 -28.79465,-44.19643 -5.28571,-8.85878 -9.13286,-18.61017 -15.39552,-26.80747 -3.13133,-4.09866 -6.87892,-7.78943 -11.3322,-10.39183 -4.45328,-2.6024 -9.64964,-4.07266 -14.79013,-3.64892 -5.23728,0.43172 -10.1086,2.75716 -14.80354,5.11788 -4.69495,2.36073 -9.46156,4.83225 -14.66075,5.59641 -7.14524,1.05018 -14.32192,-1.22313 -21.14178,-3.59945 -6.81986,-2.37632 -13.84018,-4.9236 -21.04572,-4.43626 -6.84935,0.46325 -13.19183,3.63021 -19.23682,6.88386 -6.045,3.25365 -12.16257,6.71165 -18.93282,7.84828 -9.41901,1.58131 -18.94375,-1.50078 -27.9003,-4.81717 -8.95655,-3.31638 -18.13771,-6.96891 -27.68006,-6.56676 -8.55983,0.36074 -16.6015,3.9587 -24.90196,6.08075 -4.15023,1.06103 -8.4367,1.75905 -12.71134,1.48035 -4.27464,-0.27871 -8.55661,-1.58591 -11.94027,-4.21289 -4.35202,-3.3788 -6.94515,-8.92406 -6.69909,-14.42822 0.24607,-5.50416 3.34304,-10.81405 8.03838,-13.69678 3.17984,-1.95228 6.94036,-2.79322 10.66638,-2.99214 3.72602,-0.19891 7.45427,0.21209 11.16561,0.59778 3.71134,0.38569 7.44896,0.74699 11.16836,0.44893 3.7194,-0.29806 7.45503,-1.29291 10.52643,-3.41171 3.2378,-2.23359 5.53151,-5.54756 8.0488,-8.57006 1.25864,-1.51125 2.59553,-2.97083 4.13938,-4.18927 1.54385,-1.21844 3.30773,-2.19351 5.22254,-2.64245 3.08532,-0.72337 6.3111,-0.0463 9.38553,0.72203 3.07443,0.76834 6.21481,1.63632 9.36447,1.28689 3.74117,-0.41505 7.11859,-2.53349 9.79734,-5.17791 2.67875,-2.64442 4.76496,-5.81513 6.94373,-8.88459 17.95569,-25.29603 42.91231,-44.57002 66.29465,-64.95536 2.59984,-2.26661 5.22286,-4.59631 7.03837,-7.52898 0.90775,-1.46634 1.60248,-3.07653 1.92871,-4.76997 0.32624,-1.69344 0.2751,-3.47286 -0.26173,-5.11176 -0.44064,-1.34524 -1.21072,-2.58829 -2.25659,-3.54222 -1.04587,-0.95393 -2.36936,-1.61125 -3.7702,-1.81492 -1.2537,-0.18228 -2.53682,-0.004 -3.7601,0.32526 -1.22327,0.32954 -2.40017,0.80817 -3.59079,1.24108 -1.19063,0.43291 -2.40773,0.82317 -3.66662,0.96525 -1.25889,0.14208 -2.57162,0.0237 -3.71463,-0.52267 -1.41694,-0.67731 -2.48616,-1.99087 -2.99231,-3.47757 -0.50615,-1.4867 -0.4728,-3.12937 -0.0405,-4.63921 0.43228,-1.50983 1.24902,-2.89207 2.25605,-4.09721 1.00704,-1.20513 2.20248,-2.24081 3.45536,-3.18779 8.44059,-6.37977 19.24034,-8.66736 29.7388,-9.98168 10.49846,-1.31433 21.23505,-1.8605 31.1987,-5.42011 15.28574,-5.46097 27.63211,-17.94744 34.15178,-32.8125 5.05376,-11.52273 6.76659,-24.18202 8.58536,-36.63216 1.81877,-12.45013 3.86594,-25.10602 9.49499,-36.35891 8.99591,-17.98349 26.02625,-30.35435 42.52233,-41.85268 17.3861,-12.1187 35.48764,-24.71671 45.87054,-43.19196 2.13898,-3.80608 3.9441,-7.85426 6.76652,-11.18523 1.41121,-1.66548 3.07713,-3.13852 5.00613,-4.16045 1.92899,-1.02194 4.13236,-1.57772 6.3077,-1.39539 1.02385,0.0858 2.03826,0.33493 2.96463,0.77932 0.92637,0.44439 1.76312,1.08716 2.39252,1.89925 0.62048,0.80058 1.03187,1.75664 1.22213,2.75149 0.19026,0.99485 0.16197,2.02729 -0.047,3.01837 -0.41798,1.98217 -1.5471,3.76591 -2.9728,5.20504 -2.8514,2.87827 -6.75441,4.39754 -10.25588,6.43581 -8.99249,5.2347 -15.37295,13.94511 -20.90628,22.75699 -5.53332,8.81188 -10.58146,18.09377 -17.93301,25.4573 -5.7976,5.80705 -12.81919,10.20603 -19.6282,14.78549 -6.809,4.57947 -13.5712,9.48885 -18.54143,16.01808 -3.02766,3.97733 -5.37376,8.64699 -5.71203,13.63411 -0.16913,2.49357 0.17582,5.03567 1.13007,7.34562 0.95425,2.30995 2.52993,4.37922 4.58196,5.80598 2.98121,2.07282 6.83992,2.68466 10.41641,2.05782 3.57649,-0.62685 6.88047,-2.41546 9.67287,-4.73639 5.3644,-4.45869 8.85722,-10.72989 11.99619,-16.95914 3.13897,-6.22925 6.11392,-12.66978 10.77166,-17.86229 4.27314,-4.76375 9.78022,-8.25876 15.47741,-11.1734 5.69718,-2.91464 11.64986,-5.30837 17.3351,-8.24624 14.73021,-7.61189 27.59966,-18.97534 36.40874,-33.0224 8.80907,-14.04707 13.45398,-30.78295 12.47519,-47.33474 -0.65595,-11.09229 -3.75346,-21.86987 -6.38908,-32.66443 -2.63562,-10.79457 -4.83636,-21.91182 -3.65557,-32.96057 0.89518,-8.37624 3.70277,-16.4096 5.72428,-24.58739 2.0215,-8.1778 3.24849,-16.85564 0.97215,-24.96619 -2.49317,-8.88314 -8.86746,-16.06681 -13.39285,-24.10714 -1.77498,-3.15363 -3.28142,-6.51811 -3.82272,-10.09623 -0.5413,-3.57812 -0.043,-7.35761 1.71637,-10.51996 1.7594,-3.16235 4.74478,-5.57686 8.13936,-6.83094 3.39459,-1.25408 7.08969,-1.35629 10.70852,-1.35629 h 34.50052 m -1.01884,-18.75 h -32.8125 c -11.13398,-0.94415 -22.59445,2.93867 -30.86168,10.45597 -8.26723,7.5173 -13.21908,18.55804 -13.33475,29.73138 -0.0521,5.03509 0.82806,10.03749 0.93335,15.07175 0.1053,5.03425 -0.6592,10.31379 -3.61192,14.39254 -1.9966,2.758 -4.86701,4.78028 -7.91455,6.29867 -3.04754,1.51839 -6.29896,2.57515 -9.49617,3.74597 -7.47926,2.73892 -14.70558,6.12096 -21.86146,9.61872 -8.28528,4.04981 -16.49995,8.26504 -25.01354,11.80985 -5.27254,2.19533 -10.91986,4.16336 -16.58103,3.40817 -2.83059,-0.3776 -5.60331,-1.46638 -7.75472,-3.34421 -2.1514,-1.87783 -3.63533,-4.57853 -3.78925,-7.43004 -0.15703,-2.90915 1.07766,-5.80437 3.06561,-7.93412 1.98795,-2.12975 4.67683,-3.52979 7.49633,-4.26344 5.63898,-1.46731 11.58254,-0.36759 17.33761,0.54361 2.87754,0.4556 5.77407,0.86337 8.68743,0.87315 2.91337,0.01 5.85888,-0.38963 8.55354,-1.49713 2.69467,-1.10751 5.1311,-2.95948 6.64864,-5.44642 1.51754,-2.48694 2.04209,-5.63057 1.11263,-8.39171 -0.71367,-2.12008 -2.23587,-3.91854 -4.08955,-5.17071 -1.85368,-1.25216 -4.02483,-1.98282 -6.23247,-2.34391 -5.94877,-0.973 -11.99588,0.66261 -17.7175,2.55936 -5.72161,1.89675 -11.47141,4.09454 -17.4962,4.28561 -6.37556,0.2022 -12.57433,-1.8565 -18.68741,-3.67826 -6.11309,-1.82177 -12.52822,-3.44183 -18.81259,-2.34852 -7.32939,1.27511 -13.58038,6.08268 -20.75893,8.03571 -4.49167,1.22202 -9.24265,1.28812 -13.85549,0.66345 -4.61283,-0.62466 -9.1081,-1.92481 -13.52179,-3.40393 -8.82738,-2.95824 -17.57446,-6.68595 -26.86379,-7.30416 -11.6651,-0.77632 -23.01292,3.40977 -34.05506,7.25013 -11.04214,3.84035 -22.72472,7.44273 -34.24851,5.47309 -10.4655,-1.78875 -19.57765,-7.97009 -29.43909,-11.90433 -4.93073,-1.96711 -10.15936,-3.38987 -15.46777,-3.34189 -5.30842,0.048 -10.72445,1.67379 -14.69135,5.20158 -2.27602,2.02408 -4.00763,4.59814 -5.39213,7.31114 -1.38449,2.71299 -2.44067,5.57858 -3.53732,8.42016 -1.09665,2.84157 -2.24311,5.67899 -3.79147,8.30192 -1.54836,2.62293 -3.52227,5.0403 -6.02909,6.77034 -2.62893,1.81431 -5.78114,2.81598 -8.96728,3.04303 -3.18613,0.22704 -6.40399,-0.30332 -9.41858,-1.35936 -6.02919,-2.11208 -11.14402,-6.23803 -15.69192,-10.72451 -4.54791,-4.48648 -8.66757,-9.41149 -13.46674,-13.62811 -4.79917,-4.21662 -10.43825,-7.76268 -16.74119,-8.80426 -5.18903,-0.8575 -10.53024,0.0322 -15.5548,1.58624 -5.02457,1.55405 -9.8189,3.76077 -14.73605,5.62702 -4.91716,1.86626 -10.04028,3.40655 -15.29809,3.53583 -5.25782,0.12928 -10.70594,-1.27604 -14.67892,-4.72231 -2.16736,-1.88003 -3.82731,-4.30032 -5.02983,-6.9053 -1.20252,-2.60498 -1.96116,-5.39623 -2.4924,-8.21577 -1.06248,-5.63906 -1.23448,-11.4299 -2.52241,-17.02178 -2.7547,-11.96022 -10.94563,-22.50027 -21.76286,-28.29878 -5.40861,-2.89926 -11.37866,-4.67236 -17.44793,-5.57946 -6.069262,-0.9071 -12.230271,-0.95197 -18.366949,-0.95197 H 53.368089"
         style="opacity:1;vector-effect:none;fill:none;fill-opacity:1;stroke:#000000;stroke-width:4.00031233;stroke-linecap:butt;stroke-linejoin:miter;stroke-miterlimit:4;stroke-dasharray:none;stroke-dashoffset:0;stroke-opacity:1" />
      <path
         inkscape:original-d="m 131.60631,271.78584 c -0.33576,-13.1687 4.46522,-18.75094 6.69642,-28.125 2.23121,-9.37406 2.23309,-4.91166 3.34822,-7.36607 1.11513,-2.45442 -8.03478,-6.02772 -12.05357,-9.04018 -4.0188,-3.01245 -4.90978,14.06156 -7.36607,21.09375 -2.4563,7.03219 -1.56157,30.3562 -2.34375,45.53572 -0.78219,15.1795 1.34022,13.61513 2.00892,20.4241 0.66871,6.80898 7.1438,-2.00986 10.71429,-3.01339 3.57049,-1.00353 -0.66871,-26.34022 -1.00446,-39.50893 z"
         inkscape:path-effect="#path-effect4562"
         inkscape:connector-curvature="0"
         id="path4560"
         d="m 131.60631,271.78584 c -1.18032,-9.74455 1.63855,-19.71267 6.69642,-28.125 1.40113,-2.33038 3.01202,-4.66777 3.34822,-7.36607 0.18659,-1.49753 -0.0435,-3.0435 -0.64871,-4.42593 -0.60523,-1.38243 -1.58303,-2.59824 -2.79744,-3.49413 -1.21441,-0.8959 -2.66199,-1.47068 -4.15893,-1.66204 -1.49693,-0.19135 -3.03999,1e-4 -4.44849,0.54192 -1.8724,0.72027 -3.48278,2.0474 -4.67632,3.65989 -1.19354,1.61249 -1.98286,3.50199 -2.44749,5.45361 -0.92924,3.90322 -0.58085,7.98225 -0.24226,11.98025 1.29137,15.24832 2.31309,30.95859 -2.34375,45.53572 -1.14678,3.58974 -2.64375,7.14621 -2.80182,10.91136 -0.079,1.88257 0.19193,3.80209 0.98115,5.51307 0.78921,1.71099 2.1228,3.20141 3.82959,3.99967 1.79967,0.8417 3.92419,0.86789 5.8166,0.26288 1.89241,-0.60501 3.56008,-1.80724 4.89769,-3.27627 2.31166,-2.53878 3.66329,-5.85709 4.18525,-9.25072 0.52197,-3.39363 0.25226,-6.86955 -0.38241,-10.24392 -1.26933,-6.74874 -3.98155,-13.19705 -4.8073,-20.01429 z"
         style="opacity:1;vector-effect:none;fill:none;fill-opacity:1;stroke:#000000;stroke-width:4.00031233;stroke-linecap:butt;stroke-linejoin:miter;stroke-miterlimit:4;stroke-dasharray:none;stroke-dashoffset:0;stroke-opacity:1" />
      <path
         inkscape:original-d="m 215.31166,270.78138 c -0.67058,8.48308 12.94737,-11.38487 19.41965,-17.07589 6.47227,-5.69103 6.47415,-1.56344 9.70982,-2.34376 3.23566,-0.78031 -8.03478,-10.71522 -12.05357,-16.07142 -4.01879,-5.35621 -10.04371,6.69548 -15.06697,10.04463 -5.02326,3.34916 -1.33835,16.96335 -2.00893,25.44644 z"
         inkscape:path-effect="#path-effect4570"
         inkscape:connector-curvature="0"
         id="path4568"
         d="m 215.31166,270.78138 c 2.23766,0.13521 4.44041,-0.8175 6.18139,-2.22973 1.74098,-1.41223 3.07524,-3.25783 4.28641,-5.14421 1.21118,-1.88639 2.32586,-3.84353 3.72782,-5.59279 1.40195,-1.74926 3.13154,-3.30487 5.22403,-4.10916 1.56262,-0.60062 3.25338,-0.75767 4.91303,-0.97698 1.65965,-0.21931 3.35214,-0.52089 4.79679,-1.36678 1.0484,-0.61387 1.93093,-1.50261 2.55772,-2.54334 0.62678,-1.04074 0.99868,-2.23069 1.09969,-3.44139 0.202,-2.4214 -0.70145,-4.88097 -2.29253,-6.71739 -1.59107,-1.83642 -3.83014,-3.06182 -6.20119,-3.59295 -2.37105,-0.53113 -4.8663,-0.3903 -7.21726,0.22365 -5.90545,1.54219 -10.62353,5.86031 -15.06697,10.04463 -1.98545,1.86967 -3.97612,3.7508 -5.66516,5.89202 -1.68904,2.14122 -3.07765,4.56797 -3.70222,7.2227 -0.62457,2.65473 -0.43565,5.55647 0.85997,7.95627 0.64781,1.1999 1.5648,2.25962 2.68698,3.03431 1.12218,0.77468 2.45038,1.2589 3.8115,1.34114 z"
         style="opacity:1;vector-effect:none;fill:none;fill-opacity:1;stroke:#000000;stroke-width:4.00031233;stroke-linecap:butt;stroke-linejoin:miter;stroke-miterlimit:4;stroke-dasharray:none;stroke-dashoffset:0;stroke-opacity:1" />
      <path
         inkscape:original-d="m 283.95006,287.18763 c -7.47862,-4.24014 -0.89192,-0.44737 -1.33929,-0.66964 -0.44736,-0.22228 -28.79371,9.37406 -43.19196,14.0625 -14.39826,4.68844 6.25094,-19.42059 9.375,-29.12947 3.12406,-9.70889 31.92058,-4.91165 47.87946,-7.36608 15.95889,-2.45441 15.84915,-20.53665 23.77232,-30.80356 7.92317,-10.26692 29.91165,2.45442 44.86607,3.68303 14.95443,1.22862 28.57238,-11.38486 42.85715,-17.07589 14.28478,-5.69103 33.03666,11.6062 49.55357,17.41071 16.51692,5.80451 25.67059,1.33835 38.50446,2.00893 12.83389,0.67058 1.78665,5.35621 2.67857,8.03572 0.89193,2.6795 -7.14191,18.30263 -10.71428,27.45536 -3.57236,9.15272 -16.07049,1.33835 -24.10714,2.00892 -8.03665,0.67058 -24.32942,-26.11701 -36.49553,-39.1741 -12.16612,-13.0571 -15.62407,0.89192 -23.4375,1.33928 -7.81345,0.44737 -38.83836,21.65085 -58.25894,32.47768 -19.42058,10.82683 -12.27585,14.95442 -18.41518,22.43304 -6.13933,7.47861 -1.11513,4.90977 -1.6741,7.36607 -0.55898,2.45629 -12.9455,-0.8938 -19.41965,-1.33929 -6.47415,-0.44549 -14.95442,-8.48308 -22.43303,-12.72321 z"
         inkscape:path-effect="#path-effect4574"
         inkscape:connector-curvature="0"
         id="path4572"
         d="m 283.95006,287.18763 c -0.44123,-0.23354 -0.88299,-0.46711 -1.33929,-0.66964 -1.82667,-0.81079 -3.86188,-1.10611 -5.85644,-0.98036 -1.99456,0.12575 -3.9505,0.66341 -5.78665,1.45247 -3.67232,1.57812 -6.83156,4.12226 -9.94379,6.63032 -3.11224,2.50806 -6.28097,5.04308 -9.96316,6.59804 -1.84109,0.77747 -3.80172,1.29984 -5.79738,1.40674 -1.99566,0.1069 -4.02823,-0.21097 -5.84454,-1.04471 -3.02306,-1.38767 -5.30902,-4.19042 -6.28487,-7.3704 -0.97584,-3.17997 -0.686,-6.68986 0.57983,-9.76592 1.26584,-3.07607 3.46999,-5.72381 6.12438,-7.72848 2.6544,-2.00467 5.74792,-3.38436 8.95566,-4.26467 7.91687,-2.17264 16.29378,-1.3331 24.5033,-1.30152 4.10476,0.0158 8.23379,-0.17811 12.24404,-1.05399 4.01026,-0.87587 7.9157,-2.46029 11.13212,-5.01057 5.14759,-4.08149 8.11716,-10.22888 11.20298,-16.02836 1.5429,-2.89974 3.16332,-5.7757 5.18552,-8.36409 2.02221,-2.58838 4.47045,-4.8941 7.38382,-6.41111 3.3935,-1.76701 7.29678,-2.39665 11.12122,-2.28778 3.82443,0.10888 7.5943,0.92677 11.28863,1.92181 7.38865,1.99009 14.83475,4.73151 22.45622,4.049 7.73396,-0.69258 14.67134,-4.82734 21.35187,-8.78516 6.68052,-3.95783 13.74804,-7.94565 21.50528,-8.29073 4.42904,-0.19702 8.84571,0.82509 12.98049,2.42469 4.13479,1.59961 8.02199,3.76819 11.87917,5.9539 3.85718,2.18572 7.71281,4.40235 11.80521,6.10748 4.0924,1.70513 8.45539,2.89428 12.8887,2.92464 6.79821,0.0465 13.30312,-2.60275 20.02151,-3.6425 3.35919,-0.51987 6.83027,-0.63052 10.12732,0.19648 3.29704,0.827 6.41932,2.66118 8.35563,5.45495 1.62444,2.3438 2.33082,5.20531 2.67857,8.03572 0.62857,5.11614 0.16837,10.39666 -1.61447,15.23313 -1.78285,4.83646 -4.91721,9.20962 -9.09981,12.22223 -3.4383,2.47651 -7.55351,4.00655 -11.7758,4.36329 -4.2223,0.35673 -8.53974,-0.46258 -12.33134,-2.35437 -4.06261,-2.02701 -7.4508,-5.21916 -10.27818,-8.77156 -2.82738,-3.55239 -5.13826,-7.48053 -7.4922,-11.36286 -2.35395,-3.88234 -4.77615,-7.75396 -7.7918,-11.148 -3.01565,-3.39403 -6.67531,-6.31603 -10.93335,-7.89168 -3.74054,-1.38416 -7.82205,-1.68341 -11.7924,-1.30408 -3.97035,0.37933 -7.8497,1.4176 -11.6451,2.64336 -21.24408,6.86095 -40.06905,19.53506 -58.25894,32.47768 -4.05189,2.88303 -8.118,5.81318 -11.50749,9.452 -3.3895,3.63882 -6.09682,8.0747 -6.90769,12.98104 -0.20686,1.25167 -0.28911,2.52122 -0.49021,3.77383 -0.20109,1.2526 -0.52911,2.50563 -1.18389,3.59224 -0.94021,1.56029 -2.52098,2.68432 -4.25727,3.23546 -1.7363,0.55114 -3.61736,0.5559 -5.40312,0.19595 -3.57151,-0.71989 -6.68583,-2.81417 -9.75926,-4.7707 -7.25393,-4.61781 -14.83292,-8.70052 -22.43303,-12.72321 z"
         style="opacity:1;vector-effect:none;fill:none;fill-opacity:1;stroke:#000000;stroke-width:4.00031233;stroke-linecap:butt;stroke-linejoin:miter;stroke-miterlimit:4;stroke-dasharray:none;stroke-dashoffset:0;stroke-opacity:1" />
      <path
         inkscape:original-d="m 509.95453,311.96441 c -1.78665,8.14826 -5.57942,-0.67057 -8.37054,-1.00447 -2.79111,-0.33388 -22.3205,2.90085 -33.48215,4.35269 -11.16165,1.45183 -19.86512,-16.07237 -29.7991,-24.10714 -9.93397,-8.03478 -10.26692,-18.75094 -15.40178,-28.125 -5.13487,-9.37406 -10.93657,8.92762 -16.40625,13.39285 -5.4697,4.46522 11.60807,13.16871 17.4107,19.75447 5.80264,6.58576 0.8938,16.07049 1.3393,24.10714 0.44549,8.03665 27.45629,6.69549 41.18303,10.04464 13.72673,3.34916 29.68843,-9.4e-4 44.53125,0 14.84281,9.4e-4 15.40272,-15.84915 23.10267,-23.77232 7.69996,-7.92317 -0.89192,-22.09915 -1.33928,-33.14733 -0.44737,-11.04816 -11.6062,9.37407 -17.41072,14.0625 -5.8045,4.68844 -3.57048,16.29372 -5.35713,24.44197 z"
         inkscape:path-effect="#path-effect4578"
         inkscape:connector-curvature="0"
         id="path4576"
         d="m 509.95453,311.96441 c -1.38012,0.32815 -2.82997,0.21461 -4.22354,-0.0507 -1.39358,-0.26527 -2.75527,-0.67905 -4.147,-0.95381 -5.55902,-1.09747 -11.29859,0.064 -16.79113,1.45659 -5.49253,1.39256 -11.02635,3.0328 -16.69102,2.8961 -6.79387,-0.16396 -13.41373,-2.95975 -18.59307,-7.35954 -5.17933,-4.39978 -8.95134,-10.33667 -11.20603,-16.7476 -1.84318,-5.24086 -2.70863,-10.7971 -4.72036,-15.9756 -1.00587,-2.58925 -2.30562,-5.086 -4.07047,-7.23106 -1.76485,-2.14507 -4.01443,-3.93138 -6.61095,-4.91834 -2.03061,-0.77185 -4.25413,-1.04144 -6.40619,-0.74516 -2.15206,0.29628 -4.22735,1.16118 -5.93314,2.50633 -1.70579,1.34514 -3.03482,3.16974 -3.76186,5.21682 -0.72704,2.04708 -0.84546,4.31079 -0.30506,6.41486 0.55481,2.1602 1.77708,4.10505 3.26404,5.76735 1.48696,1.6623 3.23816,3.06469 5.00755,4.42247 1.76939,1.35777 3.57105,2.68366 5.18779,4.22004 1.61674,1.53639 3.05495,3.30235 3.95132,5.34461 1.63403,3.72291 1.33323,7.97539 0.91808,12.01985 -0.41515,4.04447 -0.89852,8.24172 0.42122,12.08729 1.24193,3.61886 4.02687,6.59273 7.34553,8.49668 3.31866,1.90395 7.14225,2.80099 10.95881,3.07008 7.63312,0.53817 15.22882,-1.33872 22.87869,-1.52212 7.49231,-0.17962 14.91534,1.26494 22.37073,2.02928 7.45539,0.76434 15.2229,0.80559 22.16052,-2.02928 5.20567,-2.12715 9.67959,-5.78354 13.40792,-9.99344 3.72833,-4.20991 6.76291,-8.98012 9.69475,-13.77888 3.32286,-5.43877 6.61628,-11.18615 7.15452,-17.5369 0.26911,-3.17537 -0.19141,-6.45168 -1.62077,-9.2999 -1.42935,-2.84822 -3.87318,-5.23521 -6.87303,-6.31053 -2.04272,-0.73223 -4.2944,-0.8439 -6.414,-0.379 -2.11961,0.4649 -4.10384,1.49827 -5.74248,2.92083 -3.2773,2.84513 -5.07594,7.18435 -5.25424,11.52067 -0.18769,4.56464 1.28646,9.0577 1.2836,13.6262 -0.001,2.28425 -0.39076,4.61069 -1.47955,6.61876 -0.5444,1.00403 -1.26117,1.91927 -2.13712,2.65219 -0.87594,0.73292 -1.91291,1.28062 -3.02406,1.54482 z"
         style="opacity:1;vector-effect:none;fill:none;fill-opacity:1;stroke:#000000;stroke-width:4.00031233;stroke-linecap:butt;stroke-linejoin:miter;stroke-miterlimit:4;stroke-dasharray:none;stroke-dashoffset:0;stroke-opacity:1" />
      <path
         inkscape:original-d="m 638.86078,290.20102 c 0.89192,-9.37406 -0.44549,-18.52773 -0.66965,-27.79018 -0.22415,-9.26245 1.78666,-5.13486 2.67858,-7.7009 0.89192,-2.56602 -15.40086,1.11514 -23.10268,1.67412 -7.70184,0.55897 4.68843,16.07049 7.03125,24.10713 2.34281,8.03666 -7.14193,23.21336 -10.71429,34.82144 -3.57237,11.60807 14.73308,2.00799 22.09822,3.01339 7.36513,1.00541 1.78665,-18.75093 2.67857,-28.125 z"
         inkscape:path-effect="#path-effect4582"
         inkscape:connector-curvature="0"
         id="path4580"
         d="m 638.86078,290.20102 c -1.02831,-4.59009 -2.04539,-9.2034 -2.38002,-13.89535 -0.33464,-4.69194 0.0358,-9.49912 1.71037,-13.89483 0.97109,-2.54917 2.38379,-4.989 2.67858,-7.7009 0.33809,-3.1103 -0.92865,-6.32911 -3.22103,-8.45826 -2.29237,-2.12915 -5.54008,-3.15315 -8.65273,-2.83741 -3.11265,0.31575 -6.05138,1.93647 -8.0695,4.32718 -2.01812,2.3907 -3.11732,5.51427 -3.15942,8.64261 -0.0568,4.21983 1.71009,8.22518 3.45994,12.06553 1.74985,3.84034 3.55157,7.82143 3.57131,12.0416 0.0146,3.12459 -0.96184,6.1837 -2.3134,9.00089 -1.35156,2.81719 -3.07679,5.43532 -4.67666,8.11928 -1.59987,2.68397 -3.09051,5.47128 -3.9118,8.48603 -0.82129,3.01475 -0.9347,6.29912 0.18757,9.21524 0.79839,2.07455 2.20834,3.90404 3.98887,5.2348 1.78053,1.33075 3.92401,2.16268 6.13206,2.41903 2.20805,0.25634 4.47558,-0.0595 6.54371,-0.8744 2.06813,-0.81488 3.93492,-2.12433 5.43358,-3.76604 3.30842,-3.62423 4.6843,-8.6826 4.76499,-13.58915 0.0807,-4.90654 -1.01365,-9.74734 -2.08642,-14.53585 z"
         style="opacity:1;vector-effect:none;fill:none;fill-opacity:1;stroke:#000000;stroke-width:4.00031233;stroke-linecap:butt;stroke-linejoin:miter;stroke-miterlimit:4;stroke-dasharray:none;stroke-dashoffset:0;stroke-opacity:1" />
      <path
         sodipodi:nodetypes="zssssscscscszz"
         inkscape:original-d="m 571.56166,353.14745 c -9.4111,9.09939 5.58131,-21.42951 8.37055,-32.14286 2.78924,-10.71335 10.93843,-10.93844 16.40625,-16.40625 5.46781,-5.46781 -5.35621,-25.67058 -8.03572,-38.50446 -2.67951,-12.83389 -16.74014,15.84727 -25.11161,23.77231 -8.37147,7.92505 -4.46334,41.74014 -6.69642,62.61162 -2.23309,20.87147 -34.37407,34.37405 -51.5625,51.5625 -17.18845,17.18843 -25.4455,12.27585 -38.16965,18.41518 -12.72415,6.13932 3.12593,7.58834 4.6875,11.38392 1.56156,3.79558 10.71522,17.85621 16.07143,26.78572 5.3562,8.92951 4.68844,-5.13487 7.03125,-7.70089 2.34281,-2.56603 6.47415,-21.65272 9.70982,-32.47768 3.23567,-10.82496 25.86902,-19.09219 34.4866,-26.4509 8.61758,-7.35871 42.2236,-49.9476 32.8125,-40.84821 z"
         inkscape:path-effect="#path-effect4586"
         inkscape:connector-curvature="0"
         id="path4584"
         d="m 571.56166,353.14745 c 1.37757,-5.40398 1.88073,-10.98704 2.84441,-16.47994 0.96368,-5.49291 2.44031,-11.01767 5.52614,-15.66292 4.29009,-6.45809 11.25563,-10.61118 16.40625,-16.40625 2.6799,-3.01521 4.86698,-6.49323 6.22578,-10.29152 1.3588,-3.79829 1.87373,-7.92156 1.2832,-11.91212 -0.59052,-3.99057 -2.30993,-7.83695 -5.04433,-10.80283 -2.73439,-2.96588 -6.49568,-5.01244 -10.50037,-5.49799 -3.12817,-0.37928 -6.34189,0.18758 -9.22728,1.45403 -2.88538,1.26644 -5.44749,3.2168 -7.57282,5.54324 -4.25065,4.65288 -6.70175,10.68193 -8.31151,16.77504 -5.37091,20.32939 -2.19501,42.07219 -6.69642,62.61162 -2.78193,12.69364 -8.59822,24.84969 -17.53663,34.2822 -8.93841,9.43252 -21.0944,15.99785 -34.02587,17.2803 -7.9835,0.79174 -16.19462,-0.37641 -23.95972,1.64014 -3.88255,1.00827 -7.62727,2.85772 -10.36982,5.78504 -1.37127,1.46366 -2.47709,3.18571 -3.16351,5.07026 -0.68643,1.88455 -0.94706,3.93239 -0.6766,5.91974 0.27784,2.04158 1.09949,3.96823 2.017,5.81308 0.91751,1.84484 1.94191,3.64356 2.6705,5.57084 2.08508,5.51546 1.61603,11.68985 3.29826,17.34122 0.84112,2.82568 2.27041,5.55444 4.52666,7.45215 1.12812,0.94885 2.45287,1.67512 3.87981,2.04504 1.42694,0.36991 2.95629,0.37595 4.3667,-0.0527 1.71843,-0.52225 3.20261,-1.66711 4.3487,-3.04994 1.1461,-1.38283 1.97729,-2.99918 2.68255,-4.65095 2.22565,-5.21263 3.26219,-10.83898 4.43063,-16.38514 1.16844,-5.54615 2.51515,-11.14429 5.27919,-16.09254 3.57887,-6.40698 9.33103,-11.3413 15.47629,-15.35298 6.14525,-4.01168 12.77349,-7.23012 19.01031,-11.09792 7.60732,-4.71772 14.64804,-10.43035 20.40191,-17.28754 5.75388,-6.8572 10.19943,-14.88663 12.41059,-23.56067 z"
         style="opacity:1;vector-effect:none;fill:none;fill-opacity:1;stroke:#000000;stroke-width:4.00031233;stroke-linecap:butt;stroke-linejoin:miter;stroke-miterlimit:4;stroke-dasharray:none;stroke-dashoffset:0;stroke-opacity:1" />
      <path
         inkscape:original-d="m 374.14049,508.43787 c 23.04317,-16.88755 25.88609,-10.10246 38.82774,-15.15229 12.94164,-5.04982 21.15101,-30.93686 31.7251,-46.40388 10.5741,-15.46702 -5.99684,-1.5793 -8.99667,-2.36755 -2.99982,-0.78824 -21.4648,12.31031 -32.19861,18.46686 -10.73381,6.15655 -60.60822,51.76938 -90.91373,77.65548 -30.30552,25.88609 -11.04761,12.31029 -16.57282,18.46685 -5.5252,6.15655 5.99873,-9.4e-4 8.99667,0 2.99796,9.3e-4 46.08915,-33.77791 69.13232,-50.66547 z"
         inkscape:path-effect="#path-effect4590"
         inkscape:connector-curvature="0"
         id="path4588"
         d="m 374.14049,508.43787 c 11.90074,-7.26423 25.35518,-11.56246 38.82774,-15.15229 5.84613,-1.55773 11.74351,-3.00112 17.37009,-5.22494 5.62658,-2.22382 11.02191,-5.27857 15.20749,-9.64717 4.18559,-4.36861 7.08286,-10.15644 7.19899,-16.20543 0.0581,-3.0245 -0.58226,-6.07364 -1.95526,-8.76916 -1.37301,-2.69551 -3.48735,-5.0259 -6.09621,-6.55718 -2.70309,-1.58659 -5.86339,-2.28673 -8.99667,-2.36755 -6.38778,-0.16478 -12.65587,2.17181 -18.01277,5.65527 -5.35689,3.48347 -9.89777,8.07415 -14.18584,12.81159 -13.67886,15.11236 -25.23501,32.07758 -39.33525,46.79756 -14.10024,14.71998 -31.48556,27.42729 -51.57848,30.85792 -2.69635,0.46037 -5.42437,0.75073 -8.08982,1.36525 -2.66545,0.61453 -5.29913,1.57551 -7.47336,3.23533 -2.17423,1.65982 -3.85604,4.08648 -4.19814,6.80038 -0.17104,1.35695 -0.002,2.76313 0.54262,4.01786 0.54427,1.25473 1.46921,2.35089 2.64588,3.04803 1.33043,0.78824 2.92618,1.04397 4.47021,0.95835 1.54404,-0.0856 3.05146,-0.49387 4.52646,-0.95835 13.71685,-4.31946 25.32818,-13.50998 35.99661,-23.15333 10.66844,-9.64334 20.86089,-20.01957 33.13571,-27.51214 z"
         style="opacity:1;vector-effect:none;fill:none;fill-opacity:1;stroke:#000000;stroke-width:4.00031233;stroke-linecap:butt;stroke-linejoin:miter;stroke-miterlimit:4;stroke-dasharray:none;stroke-dashoffset:0;stroke-opacity:1" />
      <path
         inkscape:original-d="m 375.56102,567.15299 c 14.0465,-19.88645 28.72715,-19.25697 43.08932,-28.88406 14.36216,-9.62707 38.513,-16.10024 57.76809,-24.14895 19.2551,-8.04871 0.63229,-16.73159 0.94703,-25.09598 0.31473,-8.36438 -6.62819,-9.4e-4 -9.9437,0 -3.31549,9.4e-4 -19.88644,13.57299 -29.83106,20.36089 -9.94463,6.7879 -31.56633,12.62597 -47.3509,18.94036 -15.78457,6.31439 -37.24845,30.93499 -55.87407,46.40389 -18.62562,15.4689 -17.67673,34.72305 -26.5165,52.08599 -8.83977,17.36293 -8.52222,-9.15545 -12.78474,-13.73176 -4.26253,-4.57632 -4.41848,-23.36072 -6.62913,-35.03968 -2.21065,-11.67895 -9.15357,5.3655 -13.73176,8.04966 -4.57819,2.68416 -10.73193,44.19324 -16.09931,66.29126 -5.36737,22.09802 -17.9924,16.72971 -26.99001,25.09598 -8.99761,8.36626 0.94795,6.62819 1.42053,9.94369 0.47257,3.31549 6.31439,-5.99872 9.47017,-8.99667 3.1558,-2.99796 19.88832,-20.20399 29.83107,-30.30458 9.94275,-10.10059 40.72272,-14.20621 61.08267,-21.3079 20.35995,-7.10171 28.0958,-39.7757 42.1423,-59.66214 z"
         inkscape:path-effect="#path-effect4594"
         inkscape:connector-curvature="0"
         id="path4592"
         d="m 375.56102,567.15299 c 11.05166,-13.59081 26.52802,-23.1768 43.08932,-28.88406 9.98031,-3.43936 20.37496,-5.54155 30.41484,-8.8029 10.03989,-3.26135 19.93278,-7.8379 27.35325,-15.34605 3.46709,-3.50806 6.41785,-7.81773 7.04638,-12.70979 0.31426,-2.44603 0.0196,-4.99225 -1.01509,-7.23083 -1.03469,-2.23858 -2.83299,-4.14859 -5.08426,-5.15536 -1.54608,-0.69141 -3.26453,-0.94893 -4.95735,-0.89634 -1.69282,0.0526 -3.3649,0.40714 -4.98635,0.89634 -5.79981,1.74984 -10.94274,5.18941 -15.68472,8.95946 -4.74199,3.77006 -9.18764,7.92133 -14.14634,11.40143 -13.97635,9.80885 -31.09608,13.71228 -47.3509,18.94036 -12.0518,3.87625 -23.98419,8.65937 -34.18751,16.15361 -10.20332,7.49423 -18.62316,17.96668 -21.68656,30.25028 -2.65853,10.66016 -1.19378,22.0148 -3.80436,32.6868 -1.30528,5.33601 -3.7055,10.53327 -7.66859,14.3373 -1.98155,1.90202 -4.33798,3.43061 -6.92752,4.34629 -2.58954,0.91568 -5.41367,1.20694 -8.11603,0.7156 -3.28075,-0.5965 -6.32165,-2.34977 -8.56606,-4.81589 -2.24441,-2.46613 -3.69544,-5.62264 -4.21868,-8.91587 -0.51027,-3.21162 -0.15945,-6.49752 0.37838,-9.70464 0.53783,-3.20713 1.26281,-6.39144 1.50481,-9.63433 0.24201,-3.24289 -0.0243,-6.59775 -1.38745,-9.55014 -0.68159,-1.47619 -1.6352,-2.83514 -2.84796,-3.91816 -1.21276,-1.08302 -2.68867,-1.88424 -4.27691,-2.23241 -2.76985,-0.60721 -5.72578,0.20707 -8.08576,1.77911 -2.35997,1.57204 -4.17893,3.84393 -5.646,6.27055 -2.98418,4.93603 -4.62988,10.58321 -5.54537,16.27808 -0.91549,5.69488 -1.12916,11.47537 -1.43652,17.23517 -0.30735,5.75979 -0.71405,11.54317 -2.00389,17.16509 -1.28985,5.62192 -3.50443,11.11358 -7.11353,15.61292 -3.87252,4.82773 -9.14163,8.28948 -14.15151,11.92328 -5.00988,3.63379 -9.98299,7.68185 -12.8385,13.1727 -0.86906,1.67112 -1.53624,3.51528 -1.42994,5.39586 0.0532,0.94029 0.30472,1.87623 0.78669,2.68535 0.48196,0.80913 1.20041,1.48623 2.06378,1.86248 1.13144,0.49307 2.45913,0.44239 3.60825,-0.008 1.14912,-0.45031 2.12692,-1.27545 2.88519,-2.24926 1.51653,-1.94762 2.16199,-4.4094 2.97673,-6.73948 2.40536,-6.87907 6.5654,-13.09373 11.76304,-18.20174 5.19765,-5.10802 11.41597,-9.1267 18.06803,-12.10284 9.89183,-4.42562 20.62539,-6.54414 31.14218,-9.15787 10.51679,-2.61373 21.11981,-5.85479 29.94049,-12.15003 9.97946,-7.12225 16.96717,-17.64314 23.00077,-28.31608 6.0336,-10.67295 11.4064,-21.83376 19.14153,-31.34606 z"
         style="opacity:1;vector-effect:none;fill:none;fill-opacity:1;stroke:#000000;stroke-width:4.00031233;stroke-linecap:butt;stroke-linejoin:miter;stroke-miterlimit:4;stroke-dasharray:none;stroke-dashoffset:0;stroke-opacity:1" />
      <path
         inkscape:original-d="m 182.84285,720.0964 c 5.52333,0.94796 10.73381,12.94164 16.09931,19.41387 5.36549,6.47223 0.63228,15.7827 0.94702,23.67545 0.31473,7.89275 8.20843,-4.73603 12.31123,-7.10264 4.10281,-2.3666 -8.20655,-27.46445 -12.31123,-41.19528 -4.10469,-13.73083 -14.20434,-15.78457 -21.30791,-23.67545 -7.10358,-7.89088 12.62785,-14.20621 18.94036,-21.3079 6.31252,-7.10171 14.20621,-10.10247 21.3079,-15.15229 7.1017,-5.04983 -5.04982,-0.31661 -7.57614,-0.47351 -2.52632,-0.1569 -23.35884,12.31029 -35.03966,18.46685 -11.68083,6.15656 -10.73194,20.51778 -16.09931,30.77808 -5.36738,10.2603 -19.88644,19.57077 -29.83107,29.35756 -9.94463,9.7868 10.41814,-9.4e-4 15.6258,0 5.20766,9.4e-4 13.57486,-10.41814 20.36088,-15.62579 6.78603,-5.20766 11.04949,1.89309 16.57282,2.84105 z"
         inkscape:path-effect="#path-effect4598"
         inkscape:connector-curvature="0"
         id="path4596"
         d="m 182.84285,720.0964 c 4.0307,1.89098 7.95143,4.18689 11.00433,7.4276 3.05289,3.24072 5.17802,7.53481 5.09498,11.98627 -0.0798,4.27794 -2.13053,8.25328 -2.97596,12.44761 -0.42271,2.09716 -0.53737,4.29907 0.0479,6.35679 0.29265,1.02886 0.76025,2.01238 1.41327,2.85959 0.65302,0.84721 1.4941,1.55563 2.46178,2.01146 1.19491,0.56287 2.56148,0.72764 3.86918,0.54175 1.3077,-0.18588 2.55625,-0.7137 3.64745,-1.45797 2.18238,-1.48855 3.69445,-3.78471 4.7946,-6.18642 3.20516,-6.99711 3.24273,-15.23525 0.79662,-22.53245 -2.44611,-7.29721 -7.24575,-13.67601 -13.10785,-18.66283 -4.15116,-3.53135 -8.83388,-6.40784 -12.89934,-10.03752 -2.03273,-1.81485 -3.91142,-3.82275 -5.40444,-6.10233 -1.49303,-2.27959 -2.5943,-4.84159 -3.00413,-7.5356 -0.79993,-5.25834 1.17347,-10.77009 4.81843,-14.64363 3.64495,-3.87355 8.82842,-6.14583 14.12193,-6.66427 2.95454,-0.28936 5.9318,-0.0624 8.9004,-0.0418 2.9686,0.0206 5.99767,-0.1784 8.75872,-1.26911 1.38052,-0.54535 2.68116,-1.31372 3.76654,-2.32625 1.08537,-1.01254 1.95097,-2.27427 2.42311,-3.68152 0.47213,-1.40725 0.53953,-2.96065 0.1085,-4.38102 -0.43104,-1.42038 -1.37312,-2.69471 -2.64937,-3.45263 -1.11297,-0.66095 -2.43074,-0.91444 -3.72515,-0.92332 -1.2944,-0.009 -2.57813,0.21449 -3.85099,0.44981 -6.67651,1.23434 -13.34174,2.83725 -19.49474,5.70779 -6.153,2.87054 -11.80781,7.09043 -15.54492,12.75906 -3.21877,4.88238 -4.88351,10.59094 -6.92595,16.07059 -2.04244,5.47965 -4.64808,11.00344 -9.17336,14.70749 -3.17573,2.59941 -7.08503,4.12171 -10.98929,5.38619 -3.90426,1.26449 -7.90319,2.32364 -11.57047,4.16571 -3.66728,1.84207 -7.04901,4.58569 -8.75252,8.31935 -0.85175,1.86683 -1.25681,3.95339 -1.03672,5.99352 0.22009,2.04012 1.08329,4.02571 2.51793,5.49279 0.98695,1.00927 2.22623,1.76106 3.56032,2.22248 1.33409,0.46141 2.76103,0.63599 4.17089,0.56527 2.81972,-0.14145 5.52514,-1.25265 7.89459,-2.78775 3.6259,-2.34912 6.5141,-5.64529 9.60544,-8.66343 3.09134,-3.01813 6.5755,-5.86982 10.75544,-6.96236 2.76823,-0.72355 5.70703,-0.6279 8.50661,-0.0371 2.79957,0.59075 5.47588,1.66296 8.06621,2.8782 z"
         style="opacity:1;vector-effect:none;fill:none;fill-opacity:1;stroke:#000000;stroke-width:4.00031233;stroke-linecap:butt;stroke-linejoin:miter;stroke-miterlimit:4;stroke-dasharray:none;stroke-dashoffset:0;stroke-opacity:1" />
      <path
         inkscape:original-d="m 239.19042,836.10611 c -22.57153,-2.52445 -13.25732,-17.04727 -19.88737,-25.56949 -6.63007,-8.52222 18.94129,-24.6234 28.41053,-36.9337 9.46925,-12.3103 2.52632,-13.25919 3.78807,-19.88738 1.26176,-6.62819 -6.94385,1.26175 -10.41719,1.89403 -3.47334,0.63229 -11.04761,20.83346 -16.57281,31.2516 -5.52522,10.41814 -12.62597,12.62597 -18.94037,18.94036 -6.31439,6.31439 18.62563,29.67229 27.93704,44.50985 9.3114,14.83755 51.77125,5.3655 77.65547,8.04965 25.88422,2.68415 6.63006,-6.94574 9.9437,-10.41719 3.31362,-3.47147 -9.46925,-2.842 -14.20528,-4.26159 -4.73603,-1.41959 -45.14026,-5.0517 -67.71179,-7.57614 z"
         inkscape:path-effect="#path-effect4602"
         inkscape:connector-curvature="0"
         id="path4600"
         d="m 239.19042,836.10611 c -5.00133,-2.64745 -9.75404,-5.91403 -13.43628,-10.21094 -3.68223,-4.29691 -6.24126,-9.70362 -6.45109,-15.35855 -0.14979,-4.03674 0.89576,-8.06793 2.68096,-11.69158 1.7852,-3.62364 4.29214,-6.85747 7.11114,-9.75074 5.63798,-5.78653 12.49006,-10.22698 18.61843,-15.49138 3.03188,-2.60445 5.99336,-5.57729 7.20576,-9.3859 0.6062,-1.90431 0.73697,-3.98633 0.18061,-5.90579 -0.55636,-1.91946 -1.83417,-3.65671 -3.5983,-4.59569 -1.64917,-0.87779 -3.63102,-1.01925 -5.45325,-0.60721 -1.82223,0.41204 -3.4954,1.34639 -4.96394,2.50124 -4.68569,3.68478 -7.2437,9.40662 -9.25812,15.01692 -2.01441,5.6103 -3.72827,11.47328 -7.31469,16.23468 -2.69922,3.58352 -6.31623,6.34472 -9.7965,9.17582 -3.48027,2.8311 -6.93656,5.85875 -9.14387,9.76454 -2.44249,4.32192 -3.17411,9.51271 -2.40142,14.41655 0.7727,4.90384 2.99378,9.52055 6.03857,13.44151 6.08957,7.84193 15.16512,12.76146 24.29989,16.65179 24.3935,10.38875 52.05414,14.94467 77.65547,8.04965 2.59088,-0.69778 5.22751,-1.54987 7.27622,-3.2826 1.02435,-0.86636 1.88171,-1.94923 2.38649,-3.19225 0.50479,-1.24301 0.64264,-2.6504 0.28099,-3.94234 -0.36756,-1.31305 -1.23697,-2.45836 -2.33322,-3.26919 -1.09625,-0.81082 -2.40919,-1.30013 -3.75277,-1.53251 -2.68715,-0.46475 -5.4332,0.0692 -8.11929,0.54011 -22.78657,3.99465 -47.26565,3.247 -67.71179,-7.57614 z"
         style="opacity:1;vector-effect:none;fill:none;fill-opacity:1;stroke:#000000;stroke-width:4.00031233;stroke-linecap:butt;stroke-linejoin:miter;stroke-miterlimit:4;stroke-dasharray:none;stroke-dashoffset:0;stroke-opacity:1" />
      <path
         inkscape:original-d="m 118.44563,831.37102 c -4.42036,4.73602 7.57708,6.94386 11.36421,10.4172 3.78714,3.47333 1.26363,-16.41593 1.89404,-24.62247 0.6304,-8.20656 -8.8379,9.46923 -13.25825,14.20527 z"
         inkscape:path-effect="#path-effect4606"
         inkscape:connector-curvature="0"
         id="path4604"
         d="m 118.44563,831.37102 c 0.42754,2.74172 1.81124,5.32487 3.85673,7.19991 2.0455,1.87504 4.739,3.02932 7.50748,3.21729 3.20686,0.21773 6.48349,-0.8778 8.9145,-2.98054 2.43102,-2.10274 3.98716,-5.18737 4.23368,-8.39214 0.24652,-3.20478 -0.81954,-6.49111 -2.90036,-8.94092 -2.08082,-2.4498 -5.15135,-4.03358 -8.35378,-4.30887 -3.71387,-0.31926 -7.54135,1.15234 -10.08474,3.87739 -2.54339,2.72506 -3.74784,6.64482 -3.17351,10.32788 z"
         style="opacity:1;vector-effect:none;fill:none;fill-opacity:1;stroke:#000000;stroke-width:4.00031233;stroke-linecap:butt;stroke-linejoin:miter;stroke-miterlimit:4;stroke-dasharray:none;stroke-dashoffset:0;stroke-opacity:1" />
      <path
         inkscape:original-d="m 451.79597,773.12941 c -6.31439,-7.73304 -1.57743,-13.57487 -2.36754,-20.36089 -0.79013,-6.78602 18.94129,2.52445 28.41053,3.78808 9.46925,1.26362 21.15102,25.56854 31.72511,38.35422 10.5741,12.78568 2.84199,3.47147 4.26158,5.2086 1.41959,1.73714 -4.73415,0.63041 -7.10264,0.94702 -2.36848,0.31661 -23.99019,-3.15766 -35.98668,-4.73509 -11.9965,-1.57742 -12.62597,-15.4689 -18.94036,-23.20194 z"
         inkscape:path-effect="#path-effect4610"
         inkscape:connector-curvature="0"
         id="path4608"
         d="m 451.79597,773.12941 c -1.55915,-3.21535 -3.11385,-6.48297 -3.80482,-9.98896 -0.69098,-3.506 -0.43795,-7.33006 1.43728,-10.37193 1.46133,-2.37048 3.8392,-4.12028 6.48098,-5.00102 2.64177,-0.88074 5.52926,-0.91955 8.24588,-0.30747 5.43324,1.22415 10.00377,4.91603 13.68367,9.09657 5.54529,6.2997 9.47282,13.82257 14.06036,20.85044 4.58755,7.02786 10.12648,13.81448 17.66475,17.50378 1.11009,0.54329 2.27871,1.03023 3.18018,1.87569 0.45073,0.42274 0.82726,0.93453 1.03784,1.5155 0.21058,0.58097 0.24714,1.23395 0.0436,1.81741 -0.22008,0.63074 -0.71077,1.14858 -1.298,1.46706 -0.58723,0.31847 -1.26492,0.4475 -1.93293,0.44164 -1.33602,-0.0117 -2.6047,-0.5377 -3.87171,-0.96168 -5.77507,-1.93252 -12.00056,-1.82738 -18.09023,-1.87151 -6.08967,-0.0441 -12.37182,-0.30145 -17.89645,-2.86358 -4.62371,-2.14432 -8.42283,-5.79327 -11.43056,-9.90791 -3.00774,-4.11465 -5.286,-8.70802 -7.5098,-13.29403 z"
         style="opacity:1;vector-effect:none;fill:none;fill-opacity:1;stroke:#000000;stroke-width:4.00031233;stroke-linecap:butt;stroke-linejoin:miter;stroke-miterlimit:4;stroke-dasharray:none;stroke-dashoffset:0;stroke-opacity:1" />
      <path
         inkscape:original-d="m 383.61067,755.60957 c -11.36516,-8.52222 -29.67229,10.10059 -44.50985,15.15229 -14.83755,5.0517 -27.46258,-6.94573 -41.19528,-10.41719 -13.7327,-3.47147 -8.52222,8.8379 -12.78474,13.25825 -4.26252,4.42035 5.68304,0.63041 8.52316,0.94701 2.84012,0.31661 27.14879,9.15357 40.72177,13.73177 13.57299,4.57819 35.98763,-6.94574 53.98003,-10.4172 17.9924,-3.47146 14.83755,39.14247 22.25492,58.71512 7.41737,19.57264 3.78901,9.46924 5.68212,14.20526 1.89309,4.73604 17.99427,-6.63005 26.99,-9.94369 8.99574,-3.31362 27.14879,-5.0517 40.72178,-7.57614 13.57299,-2.52444 22.09803,6.62819 33.14563,9.94369 11.04761,3.3155 1.26363,-6.94573 1.89404,-10.41719 0.6304,-3.47147 -19.57077,-4.10469 -29.35756,-6.15563 -9.78679,-2.05093 -28.72528,-3.15766 -43.08932,-4.73509 -14.36405,-1.57742 -19.2551,-27.14878 -28.88405,-40.72177 -9.62896,-13.57299 -22.7275,-17.04726 -34.09265,-25.56949 z"
         inkscape:path-effect="#path-effect4614"
         inkscape:connector-curvature="0"
         id="path4612"
         d="m 383.61067,755.60957 c -7.90565,-0.0533 -15.34688,3.48126 -22.38224,7.08763 -7.03535,3.60637 -14.2465,7.44001 -22.12761,8.06466 -7.10716,0.56331 -14.14422,-1.5457 -20.83314,-4.01295 -6.68892,-2.46726 -13.31277,-5.33868 -20.36214,-6.40424 -2.11822,-0.32018 -4.27961,-0.47363 -6.40202,-0.1825 -2.12241,0.29113 -4.21359,1.04774 -5.87657,2.39826 -1.66297,1.35051 -2.86346,3.32979 -3.04221,5.46461 -0.0894,1.0674 0.0765,2.15931 0.5097,3.13895 0.43318,0.97964 1.13615,1.84323 2.02636,2.43893 1.21055,0.81006 2.70302,1.09653 4.15901,1.1377 1.456,0.0412 2.90832,-0.14398 4.36415,-0.19069 7.22562,-0.23182 14.09072,2.92047 20.53059,6.20551 6.43987,3.28504 12.99426,6.84233 20.19118,7.52626 4.63637,0.4406 9.31937,-0.34842 13.78521,-1.66989 4.46585,-1.32147 8.75458,-3.16876 13.07622,-4.9047 4.32164,-1.73594 8.71314,-3.3718 13.28831,-4.2424 4.57516,-0.87061 9.37294,-0.95006 13.83029,0.39979 5.37378,1.62737 10.009,5.28614 13.33926,9.80668 3.33026,4.52053 5.41707,9.86831 6.63895,15.34854 2.44376,10.96046 1.52491,22.35551 2.27671,33.5599 0.17654,2.63105 0.45114,5.28158 1.28303,7.78388 0.83189,2.50231 2.26668,4.87012 4.39909,6.42138 2.1072,1.53292 4.78756,2.17536 7.39007,2.04471 2.6025,-0.13065 5.13129,-0.99706 7.42103,-2.24093 4.57947,-2.48773 8.18538,-6.39901 12.1789,-9.74747 5.61102,-4.7047 12.18507,-8.39145 19.3331,-9.97997 7.14803,-1.58852 14.89136,-0.97293 21.38868,2.40383 5.60535,2.91319 10.05172,7.69384 15.58972,10.73311 2.769,1.51963 5.84722,2.5948 9.00571,2.61937 3.15849,0.0246 6.40306,-1.09223 8.5502,-3.40879 1.26391,-1.36364 2.1118,-3.10278 2.43519,-4.93374 0.32338,-1.83095 0.12474,-3.74748 -0.54115,-5.48345 -0.98172,-2.55935 -2.95523,-4.67698 -5.31302,-6.07516 -2.35779,-1.39818 -5.08187,-2.10791 -7.81504,-2.31725 -5.46635,-0.41867 -10.86743,1.09465 -16.2295,2.23678 -7.25112,1.5445 -14.69377,2.42851 -22.08635,1.86818 -7.39258,-0.56034 -14.75419,-2.61367 -21.00297,-6.60327 -7.09566,-4.5303 -12.46148,-11.33581 -16.82273,-18.53661 -4.36125,-7.2008 -7.84676,-14.89753 -12.06132,-22.18516 -3.7259,-6.44267 -8.08606,-12.63153 -13.7844,-17.41893 -5.69834,-4.7874 -12.86595,-8.10038 -20.30825,-8.15056 z"
         style="opacity:1;vector-effect:none;fill:none;fill-opacity:1;stroke:#000000;stroke-width:4.00031233;stroke-linecap:butt;stroke-linejoin:miter;stroke-miterlimit:4;stroke-dasharray:none;stroke-dashoffset:0;stroke-opacity:1" />
      <path
         inkscape:original-d="m 624.62676,793.9638 c 2.99795,5.20954 4.73603,9.46925 7.10263,14.20528 2.36661,4.73602 5.36738,-3.78901 8.04966,-5.68212 2.68228,-1.89309 -7.89088,-23.36071 -11.83773,-35.03966 -3.94685,-11.67895 -8.20656,7.25953 -12.31123,10.8907 -4.10469,3.63118 5.99871,10.41627 8.99667,15.6258 z"
         inkscape:path-effect="#path-effect4618"
         inkscape:connector-curvature="0"
         id="path4616"
         d="m 624.62676,793.9638 c 0.9902,2.63942 1.01447,5.54076 1.7557,8.26062 0.37062,1.35992 0.9316,2.68882 1.82153,3.78187 0.88994,1.09306 2.13413,1.9367 3.5254,2.16279 0.86509,0.14059 1.76194,0.04 2.59225,-0.24066 0.8303,-0.28062 1.59544,-0.73767 2.27059,-1.29654 1.35028,-1.11774 2.3269,-2.61745 3.18682,-4.14492 1.81177,-3.21824 3.20684,-6.69051 3.90562,-10.31698 0.69878,-3.62647 0.68853,-7.41204 -0.24625,-10.98496 -0.93479,-3.57291 -2.81554,-6.92399 -5.53087,-9.42729 -2.71534,-2.5033 -6.27782,-4.12283 -9.96623,-4.31043 -3.09766,-0.15755 -6.29141,0.72891 -8.67962,2.70799 -1.1941,0.98955 -2.17632,2.24033 -2.81776,3.65229 -0.64144,1.41196 -0.93772,2.98454 -0.81385,4.53042 0.12151,1.51641 0.64011,2.98181 1.35579,4.32422 0.71567,1.34241 1.62604,2.57097 2.57418,3.76063 1.89629,2.37933 3.998,4.69228 5.0667,7.54095 z"
         style="opacity:1;vector-effect:none;fill:none;fill-opacity:1;stroke:#000000;stroke-width:4.00031233;stroke-linecap:butt;stroke-linejoin:miter;stroke-miterlimit:4;stroke-dasharray:none;stroke-dashoffset:0;stroke-opacity:1" />
      <path
         inkscape:original-d="m 599.05727,842.26172 c 2.68228,14.04837 -3.47147,8.20656 -5.2086,12.31123 -1.73714,4.10469 8.83977,-1.26362 13.25825,-1.89403 4.41848,-0.63041 2.84199,-20.20399 4.26158,-30.30457 1.4196,-10.10059 -28.72527,-42.61676 -43.08931,-63.92372 -14.36405,-21.30697 -5.99685,2.20877 -8.99668,3.31457 -2.99983,1.10579 8.5241,7.5752 12.78475,11.36421 4.26064,3.78901 12.62784,17.9924 18.94036,26.99001 6.31251,8.99761 5.36737,28.09393 8.04965,42.1423 z"
         inkscape:path-effect="#path-effect4622"
         inkscape:connector-curvature="0"
         id="path4620"
         d="m 599.05727,842.26172 c -1.34773,1.93502 -3.09085,3.58197 -4.32601,5.59071 -0.61758,1.00437 -1.10504,2.1028 -1.30287,3.26513 -0.19783,1.16234 -0.0928,2.39385 0.42028,3.45539 0.58536,1.21098 1.68413,2.143 2.94215,2.61889 1.25803,0.4759 2.66221,0.51123 3.97068,0.19971 1.30846,-0.31152 2.52368,-0.9588 3.58161,-1.7894 1.05793,-0.8306 1.96398,-1.84185 2.76381,-2.92323 3.11169,-4.20706 4.60367,-9.44064 5.03932,-14.65525 0.43564,-5.21461 -0.12473,-10.45745 -0.77774,-15.64932 -1.73309,-13.77921 -4.22593,-27.7757 -10.93726,-39.93417 -3.35566,-6.07924 -7.76162,-11.62935 -13.2304,-15.90837 -5.46877,-4.27903 -12.02733,-7.25296 -18.92165,-8.08118 -1.70449,-0.20476 -3.4606,-0.27579 -5.11219,0.19266 -0.8258,0.23423 -1.61776,0.60415 -2.29734,1.12853 -0.67957,0.52439 -1.24432,1.20644 -1.58715,1.99338 -0.32251,0.74029 -0.44385,1.56292 -0.38106,2.36797 0.0628,0.80505 0.30706,1.59214 0.6824,2.3071 0.75068,1.42992 2.00661,2.54751 3.40363,3.35777 2.79405,1.62051 6.10412,2.07511 9.07978,3.33137 5.19633,2.19377 9.08613,6.72098 11.87818,11.6219 2.79206,4.90092 4.66203,10.26381 7.06218,15.36811 3.20893,6.82432 7.38425,13.22907 9.73832,20.39335 1.17704,3.58214 1.88433,7.35135 1.71479,11.1181 -0.16953,3.76675 -1.24847,7.53679 -3.40346,10.63085 z"
         style="opacity:1;vector-effect:none;fill:none;fill-opacity:1;stroke:#000000;stroke-width:4.00031233;stroke-linecap:butt;stroke-linejoin:miter;stroke-miterlimit:4;stroke-dasharray:none;stroke-dashoffset:0;stroke-opacity:1" />
    </g>
  </g>
  <g
     inkscape:groupmode="layer"
     id="layer3"
     inkscape:label="Layer 3"
     style="display:inline"
     transform="translate(-67.329363,-140.19224)">
    <path
       style="color:#000000;clip-rule:nonzero;display:inline;overflow:visible;visibility:visible;opacity:1;isolation:auto;mix-blend-mode:normal;color-interpolation:sRGB;color-interpolation-filters:linearRGB;solid-color:#000000;solid-opacity:1;fill:none;fill-opacity:1;fill-rule:evenodd;stroke:#000000;stroke-width:4;stroke-linecap:butt;stroke-linejoin:miter;stroke-miterlimit:4;stroke-dasharray:none;stroke-dashoffset:0;stroke-opacity:1;color-rendering:auto;image-rendering:auto;shape-rendering:auto;text-rendering:auto;enable-background:accumulate"
       d="m 125.83752,186.87804 7.15719,6.46214 5.98347,-6.62703"
       id="path4235-6"
       inkscape:connector-curvature="0" />
    <path
       style="color:#000000;clip-rule:nonzero;display:inline;overflow:visible;visibility:visible;opacity:1;isolation:auto;mix-blend-mode:normal;color-interpolation:sRGB;color-interpolation-filters:linearRGB;solid-color:#000000;solid-opacity:1;fill:none;fill-opacity:1;fill-rule:evenodd;stroke:#000000;stroke-width:4;stroke-linecap:butt;stroke-linejoin:miter;stroke-miterlimit:4;stroke-dasharray:none;stroke-dashoffset:0;stroke-opacity:1;color-rendering:auto;image-rendering:auto;shape-rendering:auto;text-rendering:auto;enable-background:accumulate"
       d="m 146.36001,213.06228 -9.20599,2.86954 2.65698,8.52408"
       id="path4235-6-1"
       inkscape:connector-curvature="0" />
    <path
       style="color:#000000;clip-rule:nonzero;display:inline;overflow:visible;visibility:visible;opacity:1;isolation:auto;mix-blend-mode:normal;color-interpolation:sRGB;color-interpolation-filters:linearRGB;solid-color:#000000;solid-opacity:1;fill:none;fill-opacity:1;fill-rule:evenodd;stroke:#000000;stroke-width:4;stroke-linecap:butt;stroke-linejoin:miter;stroke-miterlimit:4;stroke-dasharray:none;stroke-dashoffset:0;stroke-opacity:1;color-rendering:auto;image-rendering:auto;shape-rendering:auto;text-rendering:auto;enable-background:accumulate"
       d="m 209.19528,243.45645 -7.50723,-6.05195 -5.60367,6.95115"
       id="path4235-6-11"
       inkscape:connector-curvature="0" />
    <path
       style="color:#000000;clip-rule:nonzero;display:inline;overflow:visible;visibility:visible;opacity:1;isolation:auto;mix-blend-mode:normal;color-interpolation:sRGB;color-interpolation-filters:linearRGB;solid-color:#000000;solid-opacity:1;fill:none;fill-opacity:1;fill-rule:evenodd;stroke:#000000;stroke-width:4;stroke-linecap:butt;stroke-linejoin:miter;stroke-miterlimit:4;stroke-dasharray:none;stroke-dashoffset:0;stroke-opacity:1;color-rendering:auto;image-rendering:auto;shape-rendering:auto;text-rendering:auto;enable-background:accumulate"
       d="m 237.32959,257.00616 0.0574,9.64268 8.92843,-0.0531"
       id="path4235-6-4"
       inkscape:connector-curvature="0"
       inkscape:transform-center-x="3.0238221"
       inkscape:transform-center-y="-1.6696198" />
    <path
       style="color:#000000;clip-rule:nonzero;display:inline;overflow:visible;visibility:visible;opacity:1;isolation:auto;mix-blend-mode:normal;color-interpolation:sRGB;color-interpolation-filters:linearRGB;solid-color:#000000;solid-opacity:1;fill:none;fill-opacity:1;fill-rule:evenodd;stroke:#000000;stroke-width:4;stroke-linecap:butt;stroke-linejoin:miter;stroke-miterlimit:4;stroke-dasharray:none;stroke-dashoffset:0;stroke-opacity:1;color-rendering:auto;image-rendering:auto;shape-rendering:auto;text-rendering:auto;enable-background:accumulate"
       d="m 511.33245,278.66041 -3.22364,-9.08805 -8.41488,2.98486"
       id="path4235-6-6"
       inkscape:connector-curvature="0" />
    <path
       style="color:#000000;clip-rule:nonzero;display:inline;overflow:visible;visibility:visible;opacity:1;isolation:auto;mix-blend-mode:normal;color-interpolation:sRGB;color-interpolation-filters:linearRGB;solid-color:#000000;solid-opacity:1;fill:none;fill-opacity:1;fill-rule:evenodd;stroke:#000000;stroke-width:4;stroke-linecap:butt;stroke-linejoin:miter;stroke-miterlimit:4;stroke-dasharray:none;stroke-dashoffset:0;stroke-opacity:1;color-rendering:auto;image-rendering:auto;shape-rendering:auto;text-rendering:auto;enable-background:accumulate"
       d="m 557.11042,298.70967 -6.89954,-6.73655 -6.23755,6.38847"
       id="path4235-6-0"
       inkscape:connector-curvature="0" />
    <path
       style="color:#000000;clip-rule:nonzero;display:inline;overflow:visible;visibility:visible;opacity:1;isolation:auto;mix-blend-mode:normal;color-interpolation:sRGB;color-interpolation-filters:linearRGB;solid-color:#000000;solid-opacity:1;fill:none;fill-opacity:1;fill-rule:evenodd;stroke:#000000;stroke-width:4;stroke-linecap:butt;stroke-linejoin:miter;stroke-miterlimit:4;stroke-dasharray:none;stroke-dashoffset:0;stroke-opacity:1;color-rendering:auto;image-rendering:auto;shape-rendering:auto;text-rendering:auto;enable-background:accumulate"
       d="m 467.59042,350.08428 4.67084,-8.43611 -7.81122,-4.32485"
       id="path4235-6-5"
       inkscape:connector-curvature="0" />
    <path
       style="color:#000000;clip-rule:nonzero;display:inline;overflow:visible;visibility:visible;opacity:1;isolation:auto;mix-blend-mode:normal;color-interpolation:sRGB;color-interpolation-filters:linearRGB;solid-color:#000000;solid-opacity:1;fill:none;fill-opacity:1;fill-rule:evenodd;stroke:#000000;stroke-width:4;stroke-linecap:butt;stroke-linejoin:miter;stroke-miterlimit:4;stroke-dasharray:none;stroke-dashoffset:0;stroke-opacity:1;color-rendering:auto;image-rendering:auto;shape-rendering:auto;text-rendering:auto;enable-background:accumulate"
       d="m 587.49825,242.98387 -5.77619,7.72141 7.14946,5.34834"
       id="path4235-6-7"
       inkscape:connector-curvature="0" />
    <path
       style="color:#000000;clip-rule:nonzero;display:inline;overflow:visible;visibility:visible;opacity:1;isolation:auto;mix-blend-mode:normal;color-interpolation:sRGB;color-interpolation-filters:linearRGB;solid-color:#000000;solid-opacity:1;fill:none;fill-opacity:1;fill-rule:evenodd;stroke:#000000;stroke-width:4;stroke-linecap:butt;stroke-linejoin:miter;stroke-miterlimit:4;stroke-dasharray:none;stroke-dashoffset:0;stroke-opacity:1;color-rendering:auto;image-rendering:auto;shape-rendering:auto;text-rendering:auto;enable-background:accumulate"
       d="m 607.95565,276.33579 5.395,7.99241 7.40039,-4.99538"
       id="path4235-6-02"
       inkscape:connector-curvature="0" />
    <path
       style="color:#000000;clip-rule:nonzero;display:inline;overflow:visible;visibility:visible;opacity:1;isolation:auto;mix-blend-mode:normal;color-interpolation:sRGB;color-interpolation-filters:linearRGB;solid-color:#000000;solid-opacity:1;fill:none;fill-opacity:1;fill-rule:evenodd;stroke:#000000;stroke-width:4;stroke-linecap:butt;stroke-linejoin:miter;stroke-miterlimit:4;stroke-dasharray:none;stroke-dashoffset:0;stroke-opacity:1;color-rendering:auto;image-rendering:auto;shape-rendering:auto;text-rendering:auto;enable-background:accumulate"
       d="m 596.7466,356.7374 -4.28148,-8.64023 -8.00023,3.96435"
       id="path4235-6-01"
       inkscape:connector-curvature="0" />
    <path
       style="color:#000000;clip-rule:nonzero;display:inline;overflow:visible;visibility:visible;opacity:1;isolation:auto;mix-blend-mode:normal;color-interpolation:sRGB;color-interpolation-filters:linearRGB;solid-color:#000000;solid-opacity:1;fill:none;fill-opacity:1;fill-rule:evenodd;stroke:#000000;stroke-width:4;stroke-linecap:butt;stroke-linejoin:miter;stroke-miterlimit:4;stroke-dasharray:none;stroke-dashoffset:0;stroke-opacity:1;color-rendering:auto;image-rendering:auto;shape-rendering:auto;text-rendering:auto;enable-background:accumulate"
       d="m 486.21898,472.56578 -9.64233,0.0998 0.0924,8.9281"
       id="path4235-6-49"
       inkscape:connector-curvature="0" />
    <path
       style="color:#000000;clip-rule:nonzero;display:inline;overflow:visible;visibility:visible;opacity:1;isolation:auto;mix-blend-mode:normal;color-interpolation:sRGB;color-interpolation-filters:linearRGB;solid-color:#000000;solid-opacity:1;fill:none;fill-opacity:1;fill-rule:evenodd;stroke:#000000;stroke-width:4;stroke-linecap:butt;stroke-linejoin:miter;stroke-miterlimit:4;stroke-dasharray:none;stroke-dashoffset:0;stroke-opacity:1;color-rendering:auto;image-rendering:auto;shape-rendering:auto;text-rendering:auto;enable-background:accumulate"
       d="m 374.01292,478.05118 -1.27904,-9.55765 -8.84969,1.18429"
       id="path4235-6-2"
       inkscape:connector-curvature="0" />
    <path
       style="color:#000000;clip-rule:nonzero;display:inline;overflow:visible;visibility:visible;opacity:1;isolation:auto;mix-blend-mode:normal;color-interpolation:sRGB;color-interpolation-filters:linearRGB;solid-color:#000000;solid-opacity:1;fill:none;fill-opacity:1;fill-rule:evenodd;stroke:#000000;stroke-width:4;stroke-linecap:butt;stroke-linejoin:miter;stroke-miterlimit:4;stroke-dasharray:none;stroke-dashoffset:0;stroke-opacity:1;color-rendering:auto;image-rendering:auto;shape-rendering:auto;text-rendering:auto;enable-background:accumulate"
       d="m 250.67266,627.60316 -2.78869,9.23081 8.54706,2.58212"
       id="path4235-6-3"
       inkscape:connector-curvature="0" />
    <path
       style="color:#000000;clip-rule:nonzero;display:inline;overflow:visible;visibility:visible;opacity:1;isolation:auto;mix-blend-mode:normal;color-interpolation:sRGB;color-interpolation-filters:linearRGB;solid-color:#000000;solid-opacity:1;fill:none;fill-opacity:1;fill-rule:evenodd;stroke:#000000;stroke-width:4;stroke-linecap:butt;stroke-linejoin:miter;stroke-miterlimit:4;stroke-dasharray:none;stroke-dashoffset:0;stroke-opacity:1;color-rendering:auto;image-rendering:auto;shape-rendering:auto;text-rendering:auto;enable-background:accumulate"
       d="m 151.3813,677.24175 0.91083,9.59973 8.88867,-0.84337"
       id="path4235-6-18"
       inkscape:connector-curvature="0" />
    <path
       style="color:#000000;clip-rule:nonzero;display:inline;overflow:visible;visibility:visible;opacity:1;isolation:auto;mix-blend-mode:normal;color-interpolation:sRGB;color-interpolation-filters:linearRGB;solid-color:#000000;solid-opacity:1;fill:none;fill-opacity:1;fill-rule:evenodd;stroke:#000000;stroke-width:4;stroke-linecap:butt;stroke-linejoin:miter;stroke-miterlimit:4;stroke-dasharray:none;stroke-dashoffset:0;stroke-opacity:1;color-rendering:auto;image-rendering:auto;shape-rendering:auto;text-rendering:auto;enable-background:accumulate"
       d="m 121.73459,769.32787 7.33104,6.26423 5.80022,-6.78801"
       id="path4235-6-22"
       inkscape:connector-curvature="0" />
    <path
       style="color:#000000;clip-rule:nonzero;display:inline;overflow:visible;visibility:visible;opacity:1;isolation:auto;mix-blend-mode:normal;color-interpolation:sRGB;color-interpolation-filters:linearRGB;solid-color:#000000;solid-opacity:1;fill:none;fill-opacity:1;fill-rule:evenodd;stroke:#000000;stroke-width:4;stroke-linecap:butt;stroke-linejoin:miter;stroke-miterlimit:4;stroke-dasharray:none;stroke-dashoffset:0;stroke-opacity:1;color-rendering:auto;image-rendering:auto;shape-rendering:auto;text-rendering:auto;enable-background:accumulate"
       d="m 208.10362,769.11951 -0.67907,9.61891 8.90642,0.62877"
       id="path4235-6-8"
       inkscape:connector-curvature="0" />
    <path
       style="color:#000000;clip-rule:nonzero;display:inline;overflow:visible;visibility:visible;opacity:1;isolation:auto;mix-blend-mode:normal;color-interpolation:sRGB;color-interpolation-filters:linearRGB;solid-color:#000000;solid-opacity:1;fill:none;fill-opacity:1;fill-rule:evenodd;stroke:#000000;stroke-width:4;stroke-linecap:butt;stroke-linejoin:miter;stroke-miterlimit:4;stroke-dasharray:none;stroke-dashoffset:0;stroke-opacity:1;color-rendering:auto;image-rendering:auto;shape-rendering:auto;text-rendering:auto;enable-background:accumulate"
       d="m 228.9133,764.05189 -5.02301,-8.23128 -7.62157,4.65094"
       id="path4235-6-9"
       inkscape:connector-curvature="0" />
    <path
       style="color:#000000;clip-rule:nonzero;display:inline;overflow:visible;visibility:visible;opacity:1;isolation:auto;mix-blend-mode:normal;color-interpolation:sRGB;color-interpolation-filters:linearRGB;solid-color:#000000;solid-opacity:1;fill:none;fill-opacity:1;fill-rule:evenodd;stroke:#000000;stroke-width:4;stroke-linecap:butt;stroke-linejoin:miter;stroke-miterlimit:4;stroke-dasharray:none;stroke-dashoffset:0;stroke-opacity:1;color-rendering:auto;image-rendering:auto;shape-rendering:auto;text-rendering:auto;enable-background:accumulate"
       d="m 263.4244,760.15276 5.395,7.99241 7.40039,-4.99538"
       id="path4235-6-38"
       inkscape:connector-curvature="0" />
    <path
       style="color:#000000;clip-rule:nonzero;display:inline;overflow:visible;visibility:visible;opacity:1;isolation:auto;mix-blend-mode:normal;color-interpolation:sRGB;color-interpolation-filters:linearRGB;solid-color:#000000;solid-opacity:1;fill:none;fill-opacity:1;fill-rule:evenodd;stroke:#000000;stroke-width:4;stroke-linecap:butt;stroke-linejoin:miter;stroke-miterlimit:4;stroke-dasharray:none;stroke-dashoffset:0;stroke-opacity:1;color-rendering:auto;image-rendering:auto;shape-rendering:auto;text-rendering:auto;enable-background:accumulate"
       d="m 311.72726,737.53295 -8.70291,4.15257 3.84498,8.05827"
       id="path4235-6-33"
       inkscape:connector-curvature="0" />
    <path
       style="color:#000000;clip-rule:nonzero;display:inline;overflow:visible;visibility:visible;opacity:1;isolation:auto;mix-blend-mode:normal;color-interpolation:sRGB;color-interpolation-filters:linearRGB;solid-color:#000000;solid-opacity:1;fill:none;fill-opacity:1;fill-rule:evenodd;stroke:#000000;stroke-width:4;stroke-linecap:butt;stroke-linejoin:miter;stroke-miterlimit:4;stroke-dasharray:none;stroke-dashoffset:0;stroke-opacity:1;color-rendering:auto;image-rendering:auto;shape-rendering:auto;text-rendering:auto;enable-background:accumulate"
       d="m 462.6321,853.93187 4.96755,-8.26487 -7.65267,-4.59959"
       id="path4235-6-025"
       inkscape:connector-curvature="0" />
    <path
       style="color:#000000;clip-rule:nonzero;display:inline;overflow:visible;visibility:visible;opacity:1;isolation:auto;mix-blend-mode:normal;color-interpolation:sRGB;color-interpolation-filters:linearRGB;solid-color:#000000;solid-opacity:1;fill:none;fill-opacity:1;fill-rule:evenodd;stroke:#000000;stroke-width:4;stroke-linecap:butt;stroke-linejoin:miter;stroke-miterlimit:4;stroke-dasharray:none;stroke-dashoffset:0;stroke-opacity:1;color-rendering:auto;image-rendering:auto;shape-rendering:auto;text-rendering:auto;enable-background:accumulate"
       d="m 456.22007,813.78301 9.29388,-2.57066 -2.38024,-8.60546"
       id="path4235-6-380"
       inkscape:connector-curvature="0" />
    <path
       style="color:#000000;clip-rule:nonzero;display:inline;overflow:visible;visibility:visible;opacity:1;isolation:auto;mix-blend-mode:normal;color-interpolation:sRGB;color-interpolation-filters:linearRGB;solid-color:#000000;solid-opacity:1;fill:none;fill-opacity:1;fill-rule:evenodd;stroke:#000000;stroke-width:4;stroke-linecap:butt;stroke-linejoin:miter;stroke-miterlimit:4;stroke-dasharray:none;stroke-dashoffset:0;stroke-opacity:1;color-rendering:auto;image-rendering:auto;shape-rendering:auto;text-rendering:auto;enable-background:accumulate"
       d="m 469.826,737.5482 9.63352,-0.42416 -0.39274,-8.91994"
       id="path4235-6-06"
       inkscape:connector-curvature="0" />
    <path
       style="color:#000000;clip-rule:nonzero;display:inline;overflow:visible;visibility:visible;opacity:1;isolation:auto;mix-blend-mode:normal;color-interpolation:sRGB;color-interpolation-filters:linearRGB;solid-color:#000000;solid-opacity:1;fill:none;fill-opacity:1;fill-rule:evenodd;stroke:#000000;stroke-width:4;stroke-linecap:butt;stroke-linejoin:miter;stroke-miterlimit:4;stroke-dasharray:none;stroke-dashoffset:0;stroke-opacity:1;color-rendering:auto;image-rendering:auto;shape-rendering:auto;text-rendering:auto;enable-background:accumulate"
       d="m 591.20373,831.03081 -4.51305,-8.52156 -7.89035,4.17876"
       id="path4235-6-70"
       inkscape:connector-curvature="0" />
    <path
       style="color:#000000;clip-rule:nonzero;display:inline;overflow:visible;visibility:visible;opacity:1;isolation:auto;mix-blend-mode:normal;color-interpolation:sRGB;color-interpolation-filters:linearRGB;solid-color:#000000;solid-opacity:1;fill:none;fill-opacity:1;fill-rule:evenodd;stroke:#000000;stroke-width:4;stroke-linecap:butt;stroke-linejoin:miter;stroke-miterlimit:4;stroke-dasharray:none;stroke-dashoffset:0;stroke-opacity:1;color-rendering:auto;image-rendering:auto;shape-rendering:auto;text-rendering:auto;enable-background:accumulate"
       d="m 624.93013,847.80899 -0.64583,9.6212 8.90854,0.59799"
       id="path4235-6-50"
       inkscape:connector-curvature="0" />
    <path
       style="color:#000000;clip-rule:nonzero;display:inline;overflow:visible;visibility:visible;opacity:1;isolation:auto;mix-blend-mode:normal;color-interpolation:sRGB;color-interpolation-filters:linearRGB;solid-color:#000000;solid-opacity:1;fill:none;fill-opacity:1;fill-rule:evenodd;stroke:#000000;stroke-width:4;stroke-linecap:butt;stroke-linejoin:miter;stroke-miterlimit:4;stroke-dasharray:none;stroke-dashoffset:0;stroke-opacity:1;color-rendering:auto;image-rendering:auto;shape-rendering:auto;text-rendering:auto;enable-background:accumulate"
       d="m 647.8972,203.05186 -8.58978,-4.38181 -4.05725,7.95351"
       id="path4235-6-7-8"
       inkscape:connector-curvature="0" />
  </g>
</svg>
